<svg width="25" height="19" viewBox="0 0 25 19" fill="none" xmlns="http://www.w3.org/2000/svg">
<path d="M18.7932 15.4979L19.7435 14.9569L18.9693 13.6345C18.8262 13.3902 18.9106 13.0773 19.1583 12.9362C19.406 12.7951 19.7234 12.8783 19.8665 13.1225L20.8994 14.8882C21.0425 15.1324 20.9581 15.4453 20.7104 15.5864L19.7289 16.1454L23.5266 17.8586L23.921 13.7593L22.9395 14.3182C22.8203 14.3852 22.679 14.4051 22.545 14.3689C22.413 14.3345 22.2992 14.2477 22.2295 14.1301L21.1966 12.3645C21.0535 12.1202 21.1379 11.8073 21.3856 11.6662C21.6332 11.5251 21.9506 11.6083 22.0937 11.8525L22.8679 13.1749L23.8183 12.634C24.0751 12.4875 24.3888 12.4947 24.6383 12.6521C24.8878 12.8095 25.0254 13.0881 24.9961 13.3794L24.5228 18.2963C24.4989 18.5495 24.3558 18.7684 24.132 18.8951C24.0091 18.9656 23.8751 19 23.7394 19C23.6275 19 23.5174 18.9765 23.411 18.9295L18.8556 16.8744C18.5859 16.7532 18.4098 16.4963 18.397 16.205C18.3841 15.9138 18.5327 15.6424 18.7914 15.4959L18.7932 15.4979ZM14.5075 13.7162C16.3073 13.6764 17.4356 13.1572 18.8336 12.4264C19.9857 11.8239 23.3541 9.90995 24.0018 9.07055C24.4604 8.47535 24.4806 7.78252 24.0531 7.30491C23.666 6.87254 22.8918 6.65367 22.0332 7.14208C21.1141 7.66489 18.896 8.73585 17.1384 9.41608C17.1439 9.13386 17.0705 8.85163 16.9182 8.60021C16.6265 8.11537 16.0926 7.82592 15.5221 7.84403C13.326 7.84222 11.9005 7.25971 10.6418 6.74412C9.45661 6.25928 8.43288 5.84141 7.19635 6.13628C5.98551 6.42573 4.70858 7.39175 3.08127 9.2551C2.61894 9.09046 2.0814 9.18818 1.71262 9.55358L0.151358 11.0931C-0.0504527 11.2921 -0.0504527 11.6159 0.151358 11.8167L4.97812 16.5762C5.07534 16.6721 5.20741 16.7264 5.34502 16.7264C5.48263 16.7264 5.6147 16.6721 5.71197 16.5762L7.27323 15.0367C7.51906 14.7943 7.65484 14.4704 7.65484 14.1249C7.65484 14.0218 7.64197 13.9205 7.61811 13.821C8.55194 13.4737 9.60136 13.4465 10.9296 13.5243C11.247 13.5424 11.5809 13.5695 11.935 13.5967C12.7808 13.6636 13.6559 13.7342 14.5053 13.7142L14.5075 13.7162ZM6.54154 14.3114L5.34718 15.4891L1.25229 11.4513L2.44664 10.2736C2.54938 10.1723 2.72551 10.1723 2.82825 10.2736L6.5415 13.9351C6.60941 14.002 6.61857 14.0816 6.61857 14.1232C6.61857 14.1649 6.60762 14.2445 6.54154 14.3114ZM12.0197 12.5783C11.6601 12.5494 11.3207 12.5223 10.9923 12.5042C9.74663 12.43 8.32293 12.4047 7.01482 12.9582L3.89782 9.88467C6.98364 6.35519 8.09177 6.80747 10.2439 7.68666C11.5263 8.21128 13.1224 8.86437 15.5295 8.86437H15.5497C15.8323 8.85349 15.9772 9.03985 16.0249 9.12126C16.0744 9.20263 16.1716 9.41613 16.0267 9.65491C15.8726 9.90995 15.2085 10.1886 13.8417 10.1289C12.7189 10.08 11.5961 9.81951 11.1595 9.59522C10.9063 9.46494 10.5926 9.56261 10.4605 9.81228C10.3284 10.0619 10.4275 10.3713 10.6807 10.5015C11.3136 10.8254 12.6235 11.0985 13.7958 11.1492C13.9243 11.1546 14.0582 11.1582 14.1939 11.1582C14.8177 11.1582 15.4947 11.0895 16.0414 10.8687C17.876 10.3586 21.2923 8.74127 22.5505 8.02492C22.8826 7.835 23.1651 7.85852 23.2734 7.97791C23.3614 8.07559 23.3229 8.25648 23.1743 8.44826C22.7909 8.94393 20.2004 10.5522 18.3457 11.52C16.9954 12.2255 16.0616 12.6561 14.4819 12.6905C13.6857 12.7085 12.8381 12.6398 12.018 12.5747L12.0197 12.5783ZM18.4739 3.504L17.5235 4.04493L18.2977 5.36736C18.4408 5.61156 18.3564 5.92454 18.1088 6.06565C17.8611 6.20676 17.5437 6.12354 17.4006 5.87929L16.3677 4.11365C16.2999 3.99607 16.2797 3.85676 16.3164 3.72473C16.3512 3.59445 16.4393 3.48228 16.5585 3.41356L17.54 2.85457L13.7424 1.1414L13.3479 5.24074L14.3294 4.68176C14.4487 4.61303 14.59 4.59493 14.7239 4.6311C14.856 4.66546 14.9697 4.75229 15.0394 4.86988L16.0723 6.63552C16.2154 6.87977 16.131 7.1927 15.8834 7.33381C15.8008 7.38086 15.7127 7.40258 15.6247 7.40258C15.4449 7.40258 15.2706 7.31033 15.1752 7.1475L14.401 5.82506L13.4507 6.36598C13.1938 6.51252 12.8801 6.50529 12.6306 6.34788C12.3811 6.19051 12.2435 5.9119 12.2728 5.62064L12.7461 0.703729C12.77 0.450458 12.9131 0.231579 13.137 0.104916C13.3607 -0.0217189 13.6232 -0.0343806 13.858 0.0705436L18.4134 2.12563C18.683 2.24684 18.8592 2.50373 18.8738 2.79497C18.8885 3.08622 18.7381 3.35757 18.4794 3.5041L18.4739 3.504Z" fill="black"/>
</svg>
