<svg width="22" height="22" viewBox="0 0 22 22" fill="none" xmlns="http://www.w3.org/2000/svg">
<g clip-path="url(#clip0_2759_69459)">
<path d="M8.30157 11.4101C8.83594 11.4101 9.3375 11.2023 9.71566 10.8242C10.4953 10.0445 10.4953 8.77576 9.71566 7.99608C9.3375 7.61796 8.83598 7.41016 8.30157 7.41016C7.76721 7.41016 7.26565 7.618 6.88749 7.99608C6.10781 8.77576 6.10781 10.0445 6.88749 10.8242C7.26405 11.2023 7.76717 11.4101 8.30157 11.4101ZM7.73593 8.84448C7.88749 8.69292 8.08749 8.61012 8.30157 8.61012C8.51561 8.61012 8.71566 8.69292 8.86722 8.84448C9.1797 9.157 9.1797 9.66324 8.86722 9.97572C8.56406 10.2773 8.03753 10.2773 7.73597 9.97572C7.42345 9.66324 7.42341 9.1554 7.73593 8.84448Z" fill="black"/>
<path d="M12.4373 11.5469C11.903 11.5469 11.4014 11.7547 11.0232 12.1328C10.2436 12.9125 10.2436 14.1812 11.0232 14.9609C11.4014 15.339 11.9029 15.5468 12.4373 15.5468C12.9717 15.5468 13.4732 15.339 13.8514 14.9609C14.6311 14.1812 14.6311 12.9125 13.8514 12.1328C13.4748 11.7547 12.9717 11.5469 12.4373 11.5469ZM13.003 14.1125C12.6998 14.4156 12.1733 14.4141 11.8717 14.1125C11.7202 13.961 11.6374 13.761 11.6374 13.5469C11.6374 13.3328 11.7202 13.1328 11.8717 12.9812C12.0233 12.8297 12.2233 12.7468 12.4374 12.7468C12.6514 12.7468 12.8514 12.8297 13.003 12.9812C13.1546 13.1328 13.2374 13.3328 13.2374 13.5469C13.2374 13.7609 13.1545 13.961 13.003 14.1125Z" fill="black"/>
<path d="M6.83399 15.0118C6.95119 15.129 7.10431 15.1868 7.25899 15.1868C7.41211 15.1868 7.56527 15.1275 7.68399 15.0118L13.9044 8.78983C14.1388 8.55547 14.1388 8.17575 13.9044 7.94139C13.67 7.70704 13.2903 7.70704 13.056 7.94139L6.83395 14.1634C6.59959 14.3978 6.59963 14.7775 6.83399 15.0118Z" fill="black"/>
<path d="M21.6718 0.175252C21.5531 0.0564996 21.3937 -0.00443648 21.225 0.000251531L11.8202 0.353376C11.6686 0.359626 11.5248 0.422128 11.4186 0.528376L0.175 11.772C0.0625 11.8845 0 12.0376 0 12.197C0 12.3564 0.0625 12.5095 0.175 12.622L9.2266 21.6736C9.33908 21.7861 9.49224 21.8486 9.6516 21.8486C9.81096 21.8486 9.96408 21.7861 10.0766 21.6736L21.3202 10.43C21.4264 10.3237 21.4905 10.18 21.4952 10.0284L21.8483 0.623616C21.853 0.454864 21.789 0.294004 21.6718 0.175252ZM20.3031 9.74724L9.64988 20.3988L1.44828 12.1972L12.1015 1.54565L20.6251 1.22534L20.3031 9.74724Z" fill="black"/>
<path d="M16.1732 7.02849C16.6014 7.02849 17.0029 6.86289 17.3045 6.55973C17.6076 6.25817 17.7732 5.85505 17.7732 5.42849C17.7732 5.00037 17.6076 4.59881 17.3045 4.29725C16.6998 3.69258 15.6451 3.69258 15.042 4.29725C14.7389 4.59885 14.5732 5.00193 14.5732 5.42849C14.5732 5.85661 14.7389 6.25817 15.042 6.55973C15.3451 6.86133 15.7467 7.02849 16.1732 7.02849Z" fill="black"/>
</g>
<defs>
<clipPath id="clip0_2759_69459">
<rect width="22" height="22" fill="white"/>
</clipPath>
</defs>
</svg>
