<svg width="28" height="28" viewBox="0 0 28 28" fill="none" xmlns="http://www.w3.org/2000/svg">
<path fill-rule="evenodd" clip-rule="evenodd" d="M3.06216 17.9553H5.30121C5.67458 17.9553 5.97885 18.2596 5.97885 18.633V23.821C5.97885 24.1944 5.67455 24.4986 5.30121 24.4986H3.06216C2.6888 24.4986 2.38452 24.1943 2.38452 23.821V18.633C2.38452 18.2596 2.68883 17.9553 3.06216 17.9553ZM17.2722 9.88834C17.6628 9.88834 17.761 10.048 17.8203 9.98869L22.7981 5.01087C22.8305 4.9785 22.8035 4.92347 22.7582 4.92886L21.7407 5.04C21.5421 5.06158 21.363 4.91699 21.3425 4.71843C21.3209 4.51989 21.4655 4.34076 21.6641 4.32026L23.8168 4.08611C24.0844 4.05697 24.2743 4.25444 24.2355 4.5145L23.9161 6.66289C23.8869 6.86143 23.7035 6.99846 23.5049 6.96935C23.3064 6.94021 23.1694 6.75677 23.1985 6.55822L23.3377 5.62268C23.3442 5.57628 23.288 5.54823 23.2557 5.58168L18.3342 10.502C18.3191 10.5171 18.3159 10.5376 18.3245 10.5571C18.6817 11.3135 18.1335 12.2134 17.2724 12.2134C16.5451 12.2134 16.0045 11.5563 16.1275 10.8506C16.1308 10.8301 16.1221 10.8107 16.1038 10.7999L11.5351 8.18532C11.5167 8.17453 11.4952 8.17669 11.4801 8.19071C11.1348 8.48422 10.6481 8.5522 10.2348 8.35797C10.2165 8.34933 10.1949 8.35257 10.1798 8.36768L5.24203 13.3303C5.22693 13.3454 5.22369 13.3659 5.23232 13.3853C5.59489 14.1471 5.03917 15.0449 4.18132 15.0449C3.53928 15.0449 3.01918 14.5248 3.01918 13.8828C3.01918 13.0217 3.91696 12.4746 4.67338 12.8296C4.69173 12.8383 4.71331 12.835 4.72841 12.8199L9.66728 7.85729C9.68239 7.84218 9.68563 7.82168 9.677 7.80226C9.31766 7.04583 9.86367 6.14267 10.728 6.14267C11.4553 6.14267 11.9959 6.79982 11.8729 7.50552C11.8696 7.52603 11.8783 7.54545 11.8966 7.55624L16.4653 10.1708C16.4837 10.1816 16.5052 10.1794 16.5204 10.1654C16.7221 9.99274 16.9854 9.88807 17.2725 9.88807L17.2722 9.88834ZM22.6989 9.30564C22.3255 9.30564 22.0212 9.60994 22.0212 9.98328V23.8223C22.0212 24.1956 22.3255 24.4999 22.6989 24.4999H24.9379C25.3113 24.4999 25.6155 24.1956 25.6155 23.8223L25.6145 9.98328C25.6145 9.60992 25.3102 9.30564 24.9368 9.30564H22.6989ZM16.1534 15.9925H18.3924C18.7658 15.9925 19.0701 16.2969 19.0701 16.6702V23.8223C19.0701 24.1956 18.7658 24.4999 18.3924 24.4999H16.1534C15.78 24.4999 15.4757 24.1956 15.4757 23.8223V16.6702C15.4757 16.2968 15.78 15.9925 16.1534 15.9925ZM9.60791 14.0297C9.23455 14.0297 8.93027 14.334 8.93027 14.7074V23.8221C8.93027 24.1955 9.23458 24.4998 9.60791 24.4998H11.847C12.2203 24.4998 12.5246 24.1955 12.5246 23.8221L12.5235 14.7074C12.5235 14.334 12.2192 14.0297 11.8459 14.0297H9.60791Z" fill="#3E50F7"/>
</svg>
