<svg width="32" height="32" viewBox="0 0 32 32" fill="none" xmlns="http://www.w3.org/2000/svg">
<path d="M12.1696 14.9306C12.7595 14.3682 14.4201 14.6111 14.317 15.5762C14.3114 16.2067 13.1789 17.1686 14.4664 17.1875C14.5196 17.1897 16.9801 17.0344 17.0377 17.0322C17.2948 17.0123 17.5402 17.2157 17.569 17.4717C17.5821 17.6589 17.5175 18.5091 17.5153 18.6885C17.4887 18.8719 17.4687 20.31 17.4 20.4219C17.0243 20.3055 16.6316 19.9304 16.1617 19.9492C15.5435 19.9516 14.8847 20.3595 14.8903 21.4941C14.8969 22.6266 15.5568 23.0274 16.1774 23.0254C16.6659 23.0298 17.0054 22.6794 17.4108 22.5429L17.4088 22.5439C17.4753 22.6438 17.5837 25.2161 17.608 25.4033C17.6321 25.6946 17.37 25.9596 17.0787 25.9375L14.5651 25.8086C14.339 25.8053 14.0433 25.8242 13.9303 26.0215C13.7111 26.6354 14.8994 27.2349 14.1071 28.0771C13.7311 28.4692 12.611 28.4737 12.2321 28.0859C11.4322 27.2537 12.613 26.6398 12.3893 26.0293C12.2729 25.832 11.9786 25.8166 11.7526 25.8232L9.23889 25.9756C8.94639 25.9999 8.68379 25.7387 8.70471 25.4463C8.73131 25.2757 8.80777 22.6651 8.87757 22.5869C9.25106 22.7044 9.64233 23.0719 10.11 23.0586C10.9589 23.0475 11.4019 22.3759 11.3864 21.5137C11.3795 20.3804 10.7197 19.9793 10.0992 19.9814C9.63051 19.9692 9.24136 20.344 8.86682 20.4648C8.80145 20.3651 8.68993 17.7947 8.66663 17.6054C8.64226 17.314 8.90655 17.0491 9.1969 17.0713L11.7115 17.1992C11.9375 17.2025 12.2322 17.1842 12.3453 16.9873C12.5637 16.3678 11.376 15.7707 12.1696 14.9306ZM26.9293 16.8506L26.7653 20.0312C26.7619 20.2571 26.7792 20.5528 26.9772 20.666C27.3993 20.8566 27.9183 20.1809 28.3815 20.2226V20.2217C29.6658 20.1518 29.634 22.7305 28.3854 22.6357C27.9255 22.6756 27.4007 22.0121 26.984 22.206C26.7871 22.3225 26.7713 22.6168 26.778 22.8428L26.9313 25.3564C26.9556 25.6479 26.6924 25.9128 26.401 25.8906C26.2263 25.8673 23.6225 25.7798 23.5416 25.7178C23.658 25.3421 24.0298 24.9494 24.0143 24.4795C23.9998 23.6385 23.3375 23.1959 22.4821 23.207C21.3499 23.2039 20.9286 23.8724 20.9352 24.4951C20.9241 24.9638 21.2998 25.354 21.4196 25.7285C20.9652 25.8548 18.3945 25.5503 17.9332 25.5713C17.9775 25.6543 17.7868 22.8852 17.7887 22.8496C17.7865 22.6258 17.7605 22.3575 17.5768 22.251C17.1567 22.0581 16.6364 22.7332 16.1754 22.6933C15.5826 22.6955 15.2268 22.2467 15.2223 21.4922C15.2178 20.7353 15.5715 20.2814 16.1666 20.2803C16.8083 20.2958 17.766 21.423 17.775 20.1103C17.8194 19.2426 17.8991 17.8459 17.9235 16.9892C18.4179 16.946 19.5683 16.8767 20.0846 16.8457C20.2682 16.8478 21.2578 16.7321 21.3785 16.8281C21.26 17.2038 20.8904 17.5976 20.9059 18.0664C20.9037 18.6859 21.3293 19.3487 22.4508 19.3398C23.3128 19.3463 23.9774 18.9005 23.984 18.0517C23.995 17.583 23.6215 17.1928 23.4996 16.8193C24.0404 16.6265 26.3296 17.121 26.8356 16.7734L26.9293 16.8506ZM21.1823 6.22264C21.0703 5.26065 22.7254 4.99903 23.3239 5.5576C24.1234 6.38855 22.941 7.00485 23.1657 7.61424C23.2798 7.81151 23.5763 7.82694 23.8024 7.82029L26.316 7.66795C26.6074 7.64372 26.8724 7.90475 26.8502 8.19725C26.8236 8.36783 26.7439 10.9778 26.6774 11.0566C26.3029 10.9392 25.9115 10.5709 25.444 10.584C24.5952 10.5951 24.1512 11.2668 24.1666 12.1289C24.1733 13.2626 24.8363 13.6644 25.4547 13.6611C25.9434 13.6655 26.2825 13.314 26.6881 13.1777C26.7568 13.2779 26.8585 15.8487 26.8873 16.0371C26.9116 16.3295 26.6505 16.5922 26.358 16.5713C26.3026 16.5691 23.8377 16.4393 23.7867 16.4404H23.6783C23.1505 16.4655 23.0245 16.8287 23.3746 17.3222C23.6517 17.7722 23.8284 18.2533 23.3873 18.7099C22.7977 19.2726 21.1385 19.0313 21.2399 18.0654C21.1977 17.6055 21.8646 17.081 21.6696 16.6621C21.5188 16.4317 21.1887 16.4518 20.9449 16.4629L18.7155 16.5976L18.6686 16.6006C18.3339 16.6759 17.9594 16.4502 17.986 16.0801C18.0104 15.908 18.0956 13.2983 18.1588 13.2207C18.5312 13.3382 18.9237 13.7065 19.3912 13.6933C20.0129 13.6922 20.6729 13.2852 20.6686 12.1484C20.6619 11.0148 20.0011 10.6131 19.3805 10.6152C18.8918 10.6108 18.5526 10.9622 18.1471 11.0986C18.0817 11.0011 17.9713 8.42653 17.9469 8.23924C17.9226 7.94783 18.1847 7.6829 18.4772 7.70506L20.9908 7.83396C21.2169 7.83727 21.5126 7.81927 21.6256 7.62107C21.8162 7.20224 21.1427 6.68359 21.1823 6.22264ZM13.4381 4.00193C13.7284 3.97867 13.9933 4.2398 13.9723 4.53123L13.8434 7.04686C13.839 7.27175 13.8582 7.56751 14.0553 7.68064C14.4775 7.87125 14.9974 7.1953 15.4606 7.23728C16.7206 7.14309 16.7285 9.7421 15.4674 9.65135C15.0042 9.69458 14.483 9.02661 14.0641 9.22166C13.8671 9.33808 13.8514 9.63243 13.858 9.85838L14.0114 12.3721C14.0357 12.6635 13.7736 12.9273 13.4811 12.9062C13.3036 12.8818 10.7015 12.7976 10.6217 12.7334C10.7392 12.3588 11.1099 11.965 11.0944 11.4951C11.0808 10.6487 10.4081 10.2081 9.54944 10.2236C8.41481 10.2292 8.01418 10.8924 8.01624 11.5107C8.00515 11.9794 8.37857 12.3698 8.50061 12.7431C8.40107 12.8096 5.8296 12.919 5.64124 12.9433C5.34995 12.9674 5.0849 12.7033 5.10706 12.4131L5.23596 9.89842C5.23928 9.67235 5.2214 9.37777 5.02307 9.26365C4.56209 9.08208 4.10205 9.74691 3.6178 9.70701C2.37358 9.80087 2.32811 7.22923 3.61096 7.29295C4.06978 7.25082 4.59646 7.91658 5.01428 7.72264C5.21143 7.60623 5.22698 7.31195 5.22034 7.08592L5.068 4.57225C5.04365 4.27971 5.30698 4.01816 5.59729 4.03807C5.76901 4.06356 8.37879 4.14442 8.45667 4.21092C8.33918 4.58661 7.9685 4.98042 7.98401 5.4492C7.99852 6.28912 8.66186 6.73274 9.51624 6.72166C10.3794 6.73266 11.0565 6.28677 11.0621 5.43357C11.0743 4.96479 10.6985 4.57572 10.5787 4.20115C10.6773 4.13356 13.2492 4.02855 13.4381 4.00193Z" fill="#3E50F7"/>
</svg>
