<svg width="32" height="32" viewBox="0 0 32 32" fill="none" xmlns="http://www.w3.org/2000/svg">
<path fill-rule="evenodd" clip-rule="evenodd" d="M13.5004 18.2407C13.2154 18.2786 12.912 18.2969 12.6126 18.2982C12.3341 18.2996 12.0582 18.2878 11.8005 18.2616C11.8293 18.3388 11.8724 18.4185 11.9378 18.4892C12.0241 18.5833 12.1523 18.6605 12.3367 18.6918C12.3759 18.6984 12.4818 18.6997 12.5956 18.6971C12.7512 18.6945 12.9172 18.6853 12.9669 18.6788C13.1356 18.6552 13.2599 18.5755 13.3488 18.4774C13.4168 18.4029 13.4651 18.3179 13.4978 18.2407L13.5004 18.2407ZM14.319 17.205C13.8064 17.3097 13.1892 17.3567 12.589 17.3554C11.9797 17.3541 11.3847 17.3005 10.927 17.2064C10.8773 17.277 10.8473 17.3685 10.8473 17.4627C10.8473 17.5673 10.8839 17.6758 10.9689 17.7634L10.9806 17.7752C11.1454 17.8327 11.3612 17.8785 11.6083 17.9125C11.6135 17.9125 11.6188 17.9138 11.6227 17.9151C11.9208 17.9543 12.2634 17.9753 12.6112 17.9739C12.9774 17.9713 13.3474 17.9439 13.677 17.8863C13.6848 17.885 13.6913 17.8837 13.6992 17.8824C13.8914 17.8471 14.0693 17.8026 14.2249 17.7464C14.2445 17.7386 14.2628 17.7294 14.2772 17.7163C14.3282 17.6758 14.3556 17.6039 14.3661 17.5241C14.3779 17.43 14.3635 17.3267 14.3321 17.2404C14.3282 17.2286 14.3229 17.2168 14.3177 17.2064L14.319 17.205ZM8.85182 11.2893C8.96297 11.4423 9.03358 11.5403 9.09896 11.6306C9.86916 12.6871 10.0391 12.9212 10.2131 14.2798C10.2274 14.3923 10.234 14.493 10.2405 14.5963C10.2627 14.9389 10.285 15.2959 10.5844 15.5822C11.0578 15.6868 11.9103 15.7509 12.7433 15.7535C13.503 15.7562 14.2392 15.7091 14.642 15.5979C14.7074 15.5391 14.8159 15.4005 14.9035 15.1795C14.9702 15.0108 15.0199 14.7977 15.0199 14.5414C15.0199 13.3684 15.5926 12.4806 16.0372 11.7914C16.1157 11.6698 16.1902 11.5535 16.2439 11.4658C16.2478 11.4567 16.253 11.4488 16.2595 11.4397C16.4975 11.1023 16.6845 10.731 16.81 10.3373C16.9317 9.95683 16.997 9.55145 16.997 9.12909C16.997 7.98098 16.508 6.9401 15.7156 6.1869C14.9205 5.4311 13.8221 4.96428 12.6073 4.96428C11.3925 4.96428 10.2941 5.4311 9.49906 6.1869C8.70793 6.9401 8.21759 7.97968 8.21759 9.12909C8.21759 9.5946 8.29735 10.0418 8.44512 10.459C8.54842 10.7519 8.68576 11.0304 8.85182 11.2893ZM10.574 16.0217C10.5687 16.0269 10.5648 16.0322 10.5596 16.0374C10.5007 16.1054 10.4641 16.1969 10.4537 16.295C10.4419 16.3983 10.4589 16.5081 10.5047 16.6088C10.5347 16.6768 10.5779 16.7396 10.6354 16.7932C11.0709 16.9423 11.8149 17.0273 12.589 17.0286C13.2101 17.0299 13.8469 16.9789 14.3543 16.8625C14.3582 16.8612 14.3621 16.8599 14.3661 16.8599C14.4563 16.839 14.5426 16.8154 14.6237 16.7906C14.6838 16.7723 14.7283 16.7357 14.7597 16.6886C14.8015 16.6258 14.8237 16.5421 14.829 16.4532C14.8355 16.3564 14.8224 16.2545 14.7937 16.1629C14.7767 16.1093 14.7557 16.0596 14.7322 16.0191C14.2863 16.1355 13.5213 16.1851 12.7407 16.1825C11.926 16.1799 11.0878 16.1198 10.5726 16.0191L10.574 16.0217ZM12.8139 3.81357C12.8152 3.93256 12.7185 4.03063 12.5995 4.03194C12.4805 4.03325 12.3824 3.93648 12.3811 3.81749L12.3733 2.88513C12.372 2.76614 12.4687 2.66807 12.5877 2.66676C12.7067 2.66545 12.8048 2.76222 12.8061 2.88121L12.8139 3.81357ZM15.7312 4.71974C15.6698 4.82305 15.5377 4.85705 15.4344 4.79559C15.3311 4.73413 15.2971 4.60206 15.3586 4.49875L15.8319 3.69588C15.8934 3.59258 16.0255 3.55858 16.1288 3.62004C16.2321 3.6815 16.2661 3.81357 16.2046 3.91687L15.7312 4.71974ZM17.7489 6.70996C17.643 6.76487 17.5122 6.72434 17.4573 6.61842C17.4024 6.5125 17.4429 6.38174 17.5488 6.32682L18.3739 5.89529C18.4799 5.84037 18.6106 5.8809 18.6655 5.98682C18.7205 6.09274 18.6799 6.2235 18.574 6.27842L17.7489 6.70996ZM9.84938 4.5432C9.91215 4.64519 9.87946 4.77857 9.77747 4.84133C9.67547 4.9041 9.54209 4.87141 9.47933 4.76942L8.9929 3.97438C8.93013 3.87238 8.96282 3.739 9.06482 3.67624C9.16681 3.61347 9.30019 3.64616 9.36295 3.74816L9.84938 4.5432ZM7.68788 6.40526C7.79511 6.45888 7.83826 6.58964 7.78334 6.69686C7.72972 6.80409 7.59896 6.84593 7.49174 6.79232L6.65877 6.37388C6.55155 6.32027 6.5097 6.1895 6.56331 6.08228C6.61693 5.97505 6.74769 5.93321 6.85491 5.98682L7.68788 6.40526ZM7.39889 12.0803C7.50481 12.0254 7.63558 12.066 7.6905 12.1719C7.74541 12.2778 7.70488 12.4086 7.59896 12.4635L6.77386 12.895C6.66794 12.9499 6.53718 12.9094 6.48226 12.8035C6.42734 12.6976 6.46787 12.5668 6.57379 12.5119L7.39889 12.0803ZM6.12134 9.41014C6.00235 9.41145 5.90427 9.31469 5.90297 9.19569C5.90166 9.0767 5.99843 8.97863 6.11742 8.97732L7.04977 8.96948C7.16877 8.96817 7.26684 9.06493 7.26815 9.18393C7.26945 9.30292 7.17269 9.40099 7.0537 9.4023L6.12134 9.41014ZM15.1165 8.52489H15.2852C15.4055 8.52489 15.5153 8.57458 15.5951 8.65435C15.6749 8.73411 15.7246 8.84395 15.7246 8.96425V9.58408C15.7246 9.70569 15.6749 9.81553 15.5951 9.89399C15.5153 9.97376 15.4055 10.0234 15.2852 10.0234H15.1165C15.0917 10.1084 15.0616 10.1934 15.0263 10.2771C14.9923 10.3595 14.9531 10.4406 14.9112 10.5203L15.0302 10.6393C15.1152 10.7243 15.1584 10.8381 15.1584 10.9506C15.1584 11.063 15.1152 11.1755 15.0302 11.2618L14.5921 11.6998C14.5071 11.7848 14.3934 11.828 14.2809 11.828C14.1685 11.828 14.0573 11.7848 13.971 11.6998L13.852 11.5808C13.7723 11.624 13.6912 11.6619 13.6088 11.6959C13.5251 11.7299 13.4414 11.76 13.3551 11.7861V11.9548C13.3551 12.0751 13.3054 12.185 13.2257 12.2647C13.1459 12.3445 13.0361 12.3942 12.9158 12.3942H12.2959C12.1743 12.3942 12.0645 12.3445 11.986 12.2647C11.9063 12.185 11.8566 12.0751 11.8566 11.9548V11.7861C11.7716 11.7613 11.6866 11.7312 11.6029 11.6959C11.5205 11.6619 11.4394 11.6227 11.3597 11.5808L11.2407 11.6998C11.1557 11.7848 11.0419 11.828 10.9295 11.828C10.817 11.828 10.7045 11.7848 10.6182 11.6998L10.1802 11.2618C10.0952 11.1768 10.052 11.063 10.052 10.9506C10.052 10.8381 10.0952 10.7256 10.1802 10.6393L10.2992 10.5203C10.256 10.4406 10.2181 10.3595 10.1841 10.2771C10.1501 10.1934 10.12 10.1097 10.0939 10.0234H9.92519C9.80358 10.0234 9.69374 9.97376 9.61529 9.89399C9.53552 9.81423 9.48583 9.70438 9.48583 9.58408V8.96425C9.48583 8.84264 9.53552 8.7328 9.61529 8.65435C9.69505 8.57458 9.80489 8.52489 9.92519 8.52489H10.0939C10.1187 8.43989 10.1488 8.3549 10.1841 8.27121C10.2181 8.18883 10.2573 8.10776 10.2992 8.02799L10.1802 7.909C10.0952 7.824 10.052 7.71024 10.052 7.59778C10.052 7.48532 10.0952 7.37417 10.1802 7.28787L10.6182 6.84981C10.7032 6.76481 10.817 6.72166 10.9295 6.72166C11.0419 6.72166 11.1544 6.76482 11.2407 6.84981L11.3597 6.96881C11.4394 6.92565 11.5205 6.88773 11.6029 6.85374C11.6866 6.81974 11.7703 6.78966 11.8566 6.76351V6.59482C11.8566 6.47452 11.9063 6.36468 11.986 6.28492C12.0658 6.20515 12.1756 6.15546 12.2959 6.15546H12.9158C13.0361 6.15546 13.1459 6.20515 13.2257 6.28492C13.3054 6.36468 13.3551 6.47452 13.3551 6.59482V6.76351C13.4401 6.78835 13.5251 6.81843 13.6088 6.85374C13.6912 6.88773 13.7723 6.92696 13.852 6.96881L13.971 6.84981C13.9763 6.84458 13.9815 6.83935 13.988 6.83543C14.0717 6.75959 14.1776 6.72167 14.2822 6.72167C14.3947 6.72167 14.5071 6.76482 14.5935 6.84981L15.0315 7.28787C15.0367 7.2931 15.042 7.29833 15.0459 7.30487C15.1217 7.38856 15.1597 7.49317 15.1597 7.59909C15.1597 7.71155 15.1165 7.82269 15.0315 7.909L14.9125 8.02799C14.9557 8.10776 14.9936 8.18883 15.0276 8.27121C15.0616 8.3549 15.0917 8.43859 15.1178 8.52489L15.1165 8.52489ZM14.9491 8.95903H15.2852C15.2865 8.95903 15.2878 8.95903 15.2891 8.96034C15.2904 8.96165 15.2904 8.96295 15.2904 8.96426V9.58409C15.2904 9.5854 15.2904 9.58671 15.2891 9.58801C15.2878 9.58932 15.2865 9.58932 15.2852 9.58932H14.9491C14.8406 9.58932 14.7491 9.6704 14.7347 9.77501C14.7085 9.89008 14.6719 10.0025 14.6261 10.1124C14.5817 10.2196 14.5281 10.3255 14.464 10.4262C14.4012 10.5112 14.4078 10.6315 14.4849 10.7087L14.7229 10.9466C14.7242 10.9479 14.7242 10.9493 14.7242 10.9506C14.7242 10.9519 14.7242 10.9532 14.7229 10.9545L14.2849 11.3925C14.2835 11.3939 14.2822 11.3939 14.2809 11.3939C14.2796 11.3939 14.2783 11.3939 14.277 11.3925L14.039 11.1546C13.9619 11.0774 13.8416 11.0709 13.7566 11.1336C13.6546 11.1964 13.55 11.25 13.4427 11.2945C13.3329 11.3402 13.2191 11.3769 13.1054 11.403C13.0008 11.4187 12.9197 11.5089 12.9197 11.6175V11.9535C12.9197 11.9548 12.9197 11.9561 12.9184 11.9574C12.9171 11.9587 12.9158 11.9587 12.9145 11.9587H12.2946C12.2933 11.9587 12.292 11.9587 12.2907 11.9574C12.2894 11.9561 12.2894 11.9548 12.2894 11.9535V11.6175C12.2894 11.5089 12.2083 11.4174 12.1037 11.403C11.9886 11.3755 11.8762 11.3402 11.7663 11.2945C11.6591 11.25 11.5532 11.1964 11.4525 11.1336C11.3675 11.0709 11.2472 11.0774 11.1701 11.1546L10.9321 11.3925C10.9308 11.3939 10.9295 11.3939 10.9282 11.3939C10.9268 11.3939 10.9255 11.3939 10.9242 11.3925L10.4862 10.9545C10.4849 10.9532 10.4849 10.9519 10.4849 10.9506C10.4849 10.9493 10.4849 10.9479 10.4862 10.9466L10.7242 10.7087C10.8013 10.6315 10.8079 10.5112 10.7451 10.4262C10.6823 10.3242 10.6287 10.2196 10.5842 10.1124C10.5385 10.0025 10.5019 9.88877 10.4757 9.77501C10.46 9.6704 10.3698 9.58932 10.2613 9.58932H9.9252C9.92389 9.58932 9.92259 9.58932 9.92128 9.58801C9.91997 9.58671 9.91997 9.5854 9.91997 9.58409V8.96426C9.91997 8.96295 9.92128 8.96165 9.92128 8.96034C9.92259 8.95903 9.92389 8.95903 9.9252 8.95903H10.2613C10.3698 8.95903 10.4613 8.87796 10.4757 8.77335C10.5019 8.65828 10.5385 8.54582 10.5842 8.43598C10.6287 8.32876 10.6823 8.22284 10.7451 8.12215C10.8079 8.03715 10.8013 7.91685 10.7242 7.8397L10.4862 7.60171C10.4849 7.6004 10.4849 7.5991 10.4849 7.59779C10.4849 7.59648 10.4849 7.59517 10.4862 7.59387L10.9242 7.15581C10.9255 7.1545 10.9268 7.1545 10.9282 7.1545C10.9295 7.1545 10.9308 7.1545 10.9321 7.15581L11.1701 7.3938C11.2472 7.47095 11.3675 7.47749 11.4525 7.41472C11.5545 7.35195 11.6591 7.29834 11.7663 7.25388C11.8762 7.20811 11.99 7.1715 12.1037 7.14535C12.2083 7.12966 12.2894 7.03943 12.2894 6.9309V6.59484C12.2894 6.59353 12.2894 6.59222 12.2907 6.59091C12.292 6.58961 12.2933 6.58961 12.2946 6.58961H12.9145C12.9158 6.58961 12.9171 6.58961 12.9184 6.59091C12.9197 6.59222 12.9197 6.59353 12.9197 6.59484V6.9309C12.9197 7.03943 13.0008 7.13097 13.1054 7.14535C13.2204 7.1715 13.3329 7.20811 13.4427 7.25388C13.55 7.29834 13.6559 7.35195 13.7566 7.41472C13.8416 7.47749 13.9619 7.47095 14.039 7.3938L14.277 7.15581H14.2796C14.2809 7.15581 14.2822 7.15581 14.2835 7.15712L14.7229 7.59648V7.59909C14.7229 7.6004 14.7229 7.60171 14.7216 7.60302L14.4836 7.84101C14.4065 7.91816 14.3999 8.03846 14.4627 8.12346C14.5255 8.22545 14.5791 8.33006 14.6235 8.43729C14.6693 8.54713 14.7059 8.66089 14.7321 8.77465C14.7478 8.87926 14.838 8.96034 14.9465 8.96034L14.9491 8.95903ZM12.6045 8.20584C12.8778 8.20584 13.1511 8.31045 13.3604 8.51836C13.5696 8.72758 13.6729 9.00087 13.6729 9.27416C13.6729 9.54746 13.5683 9.82075 13.3604 10.03C13.1511 10.2392 12.8778 10.3425 12.6045 10.3425C12.3313 10.3425 12.058 10.2379 11.8487 10.03C11.6395 9.82075 11.5362 9.54746 11.5362 9.27416C11.5362 9.00087 11.6408 8.72758 11.8487 8.51836C12.058 8.30914 12.3313 8.20584 12.6045 8.20584ZM11.5427 8.21107C11.8357 7.91816 12.2214 7.7704 12.6059 7.7704C12.9903 7.7704 13.3747 7.91685 13.669 8.21107C13.9619 8.50397 14.1096 8.88971 14.1096 9.27418C14.1096 9.65864 13.9632 10.0431 13.669 10.3373C13.3761 10.6302 12.9903 10.778 12.6059 10.778C12.2214 10.778 11.837 10.6315 11.5427 10.3373C11.2498 10.0444 11.1021 9.65864 11.1021 9.27418C11.1021 8.88971 11.2485 8.50528 11.5427 8.21107ZM11.1531 25.7649L10.2037 26.5939C11.9795 26.8947 13.6755 27.2726 15.2903 27.7316C16.8922 28.1866 18.4155 28.7201 19.859 29.3334L19.0483 27.266C17.8244 26.8215 16.5546 26.471 15.2405 26.2199C13.9237 25.9676 12.5611 25.8146 11.1528 25.7636L11.1531 25.7649ZM15.0027 15.8424C15.1008 15.7313 15.2172 15.56 15.3061 15.3364C15.3898 15.1233 15.4525 14.8565 15.4525 14.5414C15.4525 13.4939 15.9861 12.6675 16.4006 12.0255C16.4712 11.9156 16.5392 11.811 16.6124 11.6894V11.6881C16.8739 11.3167 17.0805 10.9062 17.2205 10.4668C17.3564 10.0405 17.4297 9.59199 17.4297 9.12779C17.4297 8.99833 17.4244 8.87018 17.4127 8.74336C18.6602 8.83881 19.8959 9.25727 20.9497 10.1307C21.8951 10.9153 22.6954 12.0674 23.2237 13.6808C23.3283 14.0012 23.3636 14.2745 23.4002 14.5517C23.4904 15.2473 23.5833 15.9744 24.7301 17.5396C24.9811 17.8822 25.3944 18.4851 25.4283 18.9846C25.461 19.4566 25.1276 19.8398 23.9062 19.8031C23.816 19.8005 23.7467 19.8528 23.6944 19.9261C23.6343 20.0111 23.5989 20.1301 23.5885 20.2059C23.5728 20.3249 23.6094 20.4543 23.646 20.589C23.7114 20.827 23.782 21.0807 23.4747 21.2023L23.4551 21.2101C23.3583 21.2481 22.9294 21.4181 22.7765 21.4154C22.7621 21.4141 22.7464 21.4167 22.7333 21.4233C22.6928 21.4429 22.6771 21.4926 22.6967 21.5318C22.7791 21.6966 22.9229 21.8509 23.0563 21.9934C23.1857 22.132 23.306 22.2589 23.3296 22.3556C23.3492 22.438 23.272 22.5125 22.9974 22.5792C22.6313 22.6681 22.7045 23.0879 22.7908 23.5926C22.8876 24.1575 23.0066 24.8401 22.4875 25.1552C21.3564 25.8418 20.152 24.9225 19.4878 24.4151C19.2707 24.2491 19.1073 24.1248 19.004 24.1026C18.9974 24.1013 18.9909 24.1 18.9843 24.1013C18.9399 24.1026 18.9046 24.1405 18.9059 24.185C18.9203 24.576 18.9451 25.137 18.9686 25.6979C18.9909 26.2053 19.0131 26.7126 19.0275 27.0866C17.8192 26.6525 16.5678 26.3099 15.2746 26.0627C13.967 25.813 12.6148 25.66 11.2157 25.6064L11.2405 25.3514C11.3726 23.964 11.4707 22.9362 11.1738 22.1412C11.0849 21.9045 11.0104 21.707 10.9319 21.5044C10.1081 19.3481 9.09078 16.6819 9.74589 14.0507C9.75897 14.1396 9.77204 14.2338 9.78512 14.3345C9.79558 14.4208 9.80212 14.5215 9.80866 14.6235C9.83481 15.0458 9.86358 15.4865 10.2716 15.8827C10.1944 15.9926 10.1473 16.1233 10.1329 16.2619C10.1159 16.4201 10.1408 16.5888 10.2101 16.7444C10.2624 16.8608 10.3409 16.9694 10.4455 17.0609C10.4599 17.074 10.4769 17.0844 10.4965 17.091C10.5292 17.1027 10.5645 17.1145 10.6011 17.1263C10.5514 17.2283 10.5239 17.3446 10.5239 17.4636C10.5226 17.648 10.588 17.8389 10.7384 17.9932C10.7541 18.0089 10.7711 18.0246 10.7868 18.039C10.8024 18.0534 10.8208 18.0651 10.8417 18.073C11.0038 18.1331 11.2131 18.1828 11.4536 18.2194C11.4863 18.3737 11.5582 18.5568 11.7008 18.7111C11.8315 18.8536 12.0198 18.9687 12.2866 19.0132C12.3454 19.0236 12.4723 19.0249 12.6044 19.0223C12.773 19.0197 12.9574 19.0093 13.015 19.0014C13.27 18.9661 13.4582 18.8445 13.5929 18.6967C13.742 18.5333 13.8257 18.3319 13.861 18.1815C14.0336 18.1462 14.1945 18.103 14.3383 18.0507C14.3932 18.0311 14.4416 18.0024 14.4835 17.9697C14.6077 17.869 14.6717 17.7212 14.6914 17.5617C14.7084 17.4178 14.6874 17.2609 14.6391 17.1288C14.6665 17.121 14.694 17.1131 14.7214 17.104C14.8587 17.0622 14.9594 16.9798 15.0313 16.8725C15.1072 16.7588 15.1464 16.6202 15.1556 16.4763C15.1647 16.3403 15.1464 16.1978 15.1072 16.071C15.0823 15.9886 15.047 15.9114 15.0039 15.8434L15.0027 15.8424Z" fill="#3E50F7"/>
</svg>
