<svg width="32" height="32" viewBox="0 0 32 32" fill="none" xmlns="http://www.w3.org/2000/svg">
<path d="M21.1666 7.33325C25.6735 7.33329 29.3335 10.9914 29.3336 15.4983C29.3336 17.6952 28.4645 19.6913 27.0504 21.1594C26.9883 21.2242 26.9555 21.3092 26.9596 21.3997L27.0895 24.7043L24.6735 23.0471C24.5804 22.9838 24.4634 22.9715 24.361 23.0159H24.359C23.3781 23.4328 22.2996 23.6633 21.1676 23.6633C16.7704 23.6631 13.1814 20.1808 13.0084 15.8254L16.8873 15.8264C17.2179 15.8264 17.5357 15.6936 17.7692 15.4602C18.0037 15.2268 18.1344 14.9097 18.1344 14.5793V9.87134C18.1343 9.18186 17.5755 8.62427 16.8873 8.62427H16.7604C18.0315 7.80653 19.5447 7.33325 21.1666 7.33325ZM16.8893 9.27759C17.2158 9.27767 17.4811 9.54386 17.4811 9.87036V14.5784C17.481 14.7361 17.4178 14.8867 17.3073 14.9973C17.1967 15.1079 17.0457 15.1707 16.8893 15.1721H7.26135C7.17364 15.1721 7.091 15.2057 7.02893 15.2678L5.23596 17.0608L4.87268 15.428C4.83886 15.2785 4.70557 15.1723 4.55334 15.1721H3.47327C3.26032 15.1721 3.05401 15.087 2.90295 14.9348C2.75182 14.7837 2.66663 14.5781 2.66663 14.3635V10.0862C2.66663 9.87166 2.75182 9.6664 2.90295 9.51392C3.05403 9.3629 3.25884 9.27764 3.47327 9.27759H16.8893ZM4.06213 12.219C3.88131 12.219 3.73401 12.3653 3.73401 12.5461C3.73408 12.7269 3.88136 12.8723 4.06213 12.8723H14.1617C14.3412 12.8723 14.4878 12.7255 14.4879 12.5461C14.4879 12.3653 14.3412 12.219 14.1617 12.219H4.06213ZM4.06213 10.4954C3.88131 10.4954 3.73401 10.6421 3.73401 10.8215C3.73404 11.0023 3.88133 11.1477 4.06213 11.1477H5.78479C5.96559 11.1477 6.11289 11.0023 6.11292 10.8215C6.11292 10.6421 5.96561 10.4954 5.78479 10.4954H4.06213Z" fill="#3E50F7"/>
</svg>
