<svg xmlns="http://www.w3.org/2000/svg" width="40" height="40" viewBox="0 0 40 40" fill="none">
  <path d="M5.0011 19.7609C4.9561 19.7609 4.90938 19.7592 4.86438 19.7542C4.17771 19.6792 3.68114 19.061 3.75781 18.376C4.36114 12.846 7.69778 8.08587 12.6828 5.6392C13.0711 5.4492 13.5279 5.47251 13.8945 5.70085C14.2612 5.92918 14.4845 6.33099 14.4845 6.76265V11.8459C14.4845 12.5359 13.9245 13.0959 13.2345 13.0959C12.5445 13.0959 11.9845 12.5359 11.9845 11.8459V8.94425C8.77787 11.1743 6.67609 14.6776 6.24275 18.6493C6.17109 19.2876 5.6311 19.7609 5.0011 19.7609ZM27.3162 34.5509C32.3012 32.1043 35.6378 27.3427 36.2411 21.8143C36.3178 21.1277 35.8212 20.511 35.1346 20.436C34.4462 20.366 33.8328 20.8559 33.7578 21.5425C33.3228 25.5142 31.2229 29.0159 28.0162 31.2475V28.3459C28.0162 27.6559 27.4562 27.0959 26.7662 27.0959C26.0762 27.0959 25.5162 27.6559 25.5162 28.3459V33.4293C25.5162 33.861 25.7394 34.2626 26.106 34.4909C26.3077 34.6159 26.5379 34.6793 26.7662 34.6793C26.9546 34.6793 27.1412 34.6359 27.3162 34.5509ZM25.8411 10.4193C23.5428 10.4193 21.6745 8.54927 21.6745 6.2526C21.6745 3.95594 23.5428 2.08594 25.8411 2.08594C28.1395 2.08594 30.0078 3.95594 30.0078 6.2526C30.0078 8.54927 28.1395 10.4193 25.8411 10.4193ZM25.8411 4.58594C24.9211 4.58594 24.1745 5.33427 24.1745 6.2526C24.1745 7.17094 24.9211 7.91927 25.8411 7.91927C26.7611 7.91927 27.5078 7.17094 27.5078 6.2526C27.5078 5.33427 26.7611 4.58594 25.8411 4.58594ZM29.1645 21.2526H22.5011C20.1528 21.2526 18.7495 19.856 18.7495 17.5177C18.7495 14.8127 20.4245 12.0859 24.1661 12.0859H27.4995C31.2411 12.0859 32.9161 14.8143 32.9161 17.5177C32.9161 19.856 31.5128 21.2526 29.1645 21.2526ZM24.1661 14.5859C21.6295 14.5859 21.2495 16.4227 21.2495 17.5177C21.2495 18.476 21.5294 18.7526 22.5011 18.7526H29.1645C30.1362 18.7526 30.4161 18.476 30.4161 17.5177C30.4161 16.4227 30.0361 14.5859 27.4995 14.5859H24.1661ZM12.5078 27.0859C10.2095 27.0859 8.34114 25.2159 8.34114 22.9193C8.34114 20.6226 10.2095 18.7526 12.5078 18.7526C14.8061 18.7526 16.6745 20.6226 16.6745 22.9193C16.6745 25.2159 14.8061 27.0859 12.5078 27.0859ZM12.5078 21.2526C11.5878 21.2526 10.8411 22.0009 10.8411 22.9193C10.8411 23.8376 11.5878 24.5859 12.5078 24.5859C13.4278 24.5859 14.1745 23.8376 14.1745 22.9193C14.1745 22.0009 13.4278 21.2526 12.5078 21.2526ZM15.8312 37.9193H9.16776C6.81943 37.9193 5.41613 36.5227 5.41613 34.1843C5.41613 31.4793 7.09113 28.7526 10.8328 28.7526H14.1661C17.9078 28.7526 19.5828 31.481 19.5828 34.1843C19.5828 36.5227 18.1795 37.9193 15.8312 37.9193ZM10.8328 31.2526C8.29613 31.2526 7.91613 33.0893 7.91613 34.1843C7.91613 35.1427 8.1961 35.4193 9.16776 35.4193H15.8312C16.8028 35.4193 17.0828 35.1427 17.0828 34.1843C17.0828 33.0893 16.7028 31.2526 14.1661 31.2526H10.8328Z" fill="#736FE3"/>
</svg>