<svg width="17" height="17" viewBox="0 0 17 17" fill="none" xmlns="http://www.w3.org/2000/svg">
<g clip-path="url(#clip0_3189_78210)">
<path d="M9.7588 10.7661H10.5949C10.9019 10.7661 11.1522 10.5116 11.1522 10.1995C11.1522 9.88736 10.9019 9.63281 10.5949 9.63281H9.7588C8.52973 9.63281 7.5293 10.6499 7.5293 11.8995V14.7328C7.5293 15.9824 8.52973 16.9995 9.7588 16.9995H10.5949C10.9019 16.9995 11.1522 16.7449 11.1522 16.4328C11.1522 16.1207 10.9019 15.8661 10.5949 15.8661H9.7588C9.14265 15.8661 8.64405 15.3592 8.64405 14.7328V11.8995C8.64405 11.2731 9.14265 10.7661 9.7588 10.7661Z" fill="black"/>
<path d="M14.496 15.8661H13.6599C13.3529 15.8661 13.1025 16.1207 13.1025 16.4328C13.1025 16.7449 13.3529 16.9995 13.6599 16.9995H14.496C15.7251 16.9995 16.7255 15.9824 16.7255 14.7328V11.8995C16.7255 10.6499 15.7251 9.63281 14.496 9.63281H13.6599C13.3529 9.63281 13.1025 9.88736 13.1025 10.1995C13.1025 10.5116 13.3529 10.7661 13.6599 10.7661H14.496C15.1121 10.7661 15.6107 11.2731 15.6107 11.8995V14.7328C15.6107 15.3592 15.1121 15.8661 14.496 15.8661Z" fill="black"/>
<path d="M14.789 1.21942C14.9533 1.32457 15.0535 1.50276 15.0535 1.70086V5.61878C15.0535 5.9309 15.3039 6.18545 15.6109 6.18545C15.9179 6.18545 16.1683 5.9309 16.1683 5.61878V1.70086C16.1683 1.10875 15.8732 0.56753 15.3735 0.25541C14.8771 -0.0567098 14.2697 -0.0843628 13.7461 0.181256L10.3539 1.9067C10.1949 1.9886 9.98374 1.98307 9.82697 1.89231L6.96178 0.226623C6.47407 -0.05671 5.88621 -0.0733134 5.38435 0.181244L0.925329 2.44791C0.353795 2.73677 0 3.32004 0 3.96972V14.1697C0 14.7618 0.29502 15.3031 0.79142 15.6152C1.05596 15.7823 1.35969 15.8697 1.67213 15.8697C1.92905 15.8697 2.18815 15.8078 2.41676 15.6915L4.14767 14.8161C4.42309 14.6777 4.53521 14.3369 4.39804 14.0568C4.26198 13.7768 3.92667 13.6628 3.65124 13.8023L1.92034 14.6777C1.75051 14.763 1.53823 14.7541 1.3793 14.6523C1.21491 14.5471 1.11476 14.3689 1.11476 14.1708V3.97083C1.11476 3.75501 1.23233 3.56022 1.42394 3.46392L5.88295 1.19726C6.05061 1.11204 6.24546 1.11757 6.40984 1.21165L9.27503 2.87733C9.75404 3.15514 10.3593 3.17174 10.8525 2.92272L14.2447 1.19728C14.4178 1.10984 14.6213 1.11759 14.7879 1.22273L14.789 1.21942Z" fill="black"/>
</g>
<defs>
<clipPath id="clip0_3189_78210">
<rect width="17" height="17" fill="white"/>
</clipPath>
</defs>
</svg>
