<svg width="48" height="48" viewBox="0 0 48 48" fill="none" xmlns="http://www.w3.org/2000/svg">
<path d="M18.2539 22.3965C19.1384 21.5522 21.6302 21.9164 21.4756 23.3643C21.4671 24.3102 19.7686 25.753 21.7002 25.7812C21.7886 25.784 25.4703 25.5521 25.5566 25.5488C25.9423 25.5189 26.3093 25.823 26.3525 26.207C26.3724 26.4867 26.2768 27.763 26.2734 28.0322C26.2336 28.3049 26.2035 30.4613 26.1006 30.6318C25.537 30.4573 24.948 29.8956 24.2432 29.9238C23.3156 29.9272 22.3267 30.5391 22.335 32.2412C22.345 33.9402 23.3357 34.5424 24.2666 34.5391C24.9997 34.5457 25.5088 34.0179 26.1172 33.8135L26.1133 33.8154C26.213 33.9617 26.3765 37.8235 26.4131 38.1045C26.4495 38.5416 26.0553 38.9385 25.6182 38.9053L21.8477 38.7129C21.5085 38.7079 21.065 38.7364 20.8955 39.0322C20.5667 39.9531 22.3494 40.852 21.1611 42.1152C20.5976 42.7037 18.9172 42.7107 18.3486 42.1289C17.1486 40.8807 18.92 39.9597 18.585 39.0439C18.4104 38.7481 17.968 38.7244 17.6289 38.7344L13.8584 38.9639C13.4196 39.0004 13.026 38.6078 13.0576 38.1689C13.0976 37.9108 13.2117 33.9945 13.3164 33.8799C13.8766 34.0561 14.4636 34.6088 15.165 34.5889C16.4383 34.5722 17.1032 33.5646 17.0801 32.2715C17.0701 30.5709 16.0794 29.9684 15.1484 29.9717C14.4452 29.9534 13.8617 30.5161 13.2998 30.6973C13.2018 30.5478 13.036 26.693 13.001 26.4082C12.9644 25.9711 13.3595 25.5735 13.7949 25.6064L17.5674 25.7998C17.9065 25.8048 18.349 25.7763 18.5186 25.4805C18.846 24.5512 17.0637 23.6565 18.2539 22.3965ZM40.3936 25.2754L40.1475 30.0469C40.1425 30.386 40.1692 30.8295 40.4668 30.999C41.1 31.2848 41.8775 30.2722 42.5723 30.335V30.333C44.4989 30.2283 44.4506 34.0961 42.5771 33.9531C41.8874 34.0126 41.1015 33.018 40.4766 33.3086C40.1807 33.4832 40.157 33.9255 40.167 34.2646L40.3965 38.0342C40.433 38.4714 40.0387 38.8692 39.6016 38.8359C39.3396 38.801 35.4371 38.6692 35.3135 38.5762C35.4882 38.0128 36.0447 37.4243 36.0215 36.7197C35.9999 35.458 35.007 34.7949 33.7236 34.8115C32.0248 34.8066 31.3933 35.8089 31.4033 36.7432C31.3868 37.4462 31.9503 38.031 32.1299 38.5928C31.4485 38.7823 27.591 38.3258 26.8994 38.3574C26.9657 38.4803 26.6807 34.3265 26.6836 34.2744C26.6803 33.9386 26.6402 33.5365 26.3643 33.377C25.7343 33.0879 24.9551 34.0994 24.2637 34.04C23.3744 34.0434 22.8408 33.3701 22.834 32.2383C22.8273 31.1029 23.3573 30.4226 24.25 30.4209C25.2125 30.4442 26.6488 32.1347 26.6621 30.165C26.7286 28.8634 26.8482 26.7684 26.8848 25.4834C27.626 25.4186 29.3511 25.3161 30.126 25.2695C30.4002 25.2729 31.8885 25.0977 32.0684 25.2422C31.8905 25.8057 31.3351 26.3964 31.3584 27.0996C31.3551 28.0289 31.9935 29.0231 33.6758 29.0098C34.9689 29.0197 35.9665 28.3513 35.9766 27.0781C35.9932 26.375 35.4329 25.7896 35.25 25.2295C36.0614 24.9403 39.4959 25.6812 40.2539 25.1592L40.3936 25.2754ZM31.7734 9.33398C31.6056 7.89104 34.0876 7.49813 34.9854 8.33594C36.1856 9.58272 34.4116 10.5076 34.749 11.4219C34.9203 11.7175 35.3641 11.7404 35.7031 11.7305L39.4736 11.501C39.9108 11.4644 40.3086 11.8571 40.2754 12.2959C40.2355 12.5518 40.1154 16.4686 40.0156 16.585C39.4537 16.4087 38.8665 15.857 38.165 15.877C36.8919 15.8938 36.2267 16.9011 36.25 18.1943C36.2602 19.8943 37.2542 20.496 38.1816 20.4912C38.9147 20.4979 39.4238 19.9711 40.0322 19.7666C40.1353 19.9168 40.2878 23.7731 40.3311 24.0557C40.3674 24.4944 39.9758 24.8879 39.5371 24.8564C39.4542 24.8531 35.7705 24.6592 35.6807 24.6602C34.7538 24.6282 34.5022 25.1947 35.0615 25.9834C35.4771 26.6583 35.7437 27.3805 35.082 28.0654C34.1976 28.9098 31.7076 28.5471 31.8604 27.0977C31.7972 26.4078 32.7973 25.6215 32.5049 24.9932C32.2788 24.6474 31.7837 24.6767 31.418 24.6934L28.0732 24.8965L28.0029 24.9014C27.501 25.0142 26.9396 24.6752 26.9795 24.1201C27.0161 23.8615 27.1435 19.9474 27.2383 19.8311C27.7968 20.0073 28.3855 20.5589 29.0869 20.5391C30.0194 20.5374 31.0084 19.9279 31.002 18.2227C30.992 16.522 30.0012 15.9195 29.0703 15.9229C28.3375 15.9163 27.8289 16.4429 27.2207 16.6475C27.1227 16.499 26.9575 12.6427 26.9209 12.3594C26.8843 11.9222 27.277 11.5244 27.7158 11.5576L31.4863 11.751C31.8254 11.7559 32.2689 11.7289 32.4385 11.4316C32.7243 10.8034 31.7141 10.0254 31.7734 9.33398ZM20.1572 6.00195C20.5927 5.96707 20.9905 6.35976 20.959 6.79688L20.7656 10.5703C20.759 10.9077 20.7872 11.3519 21.083 11.5215C21.7164 11.8074 22.4965 10.7933 23.1914 10.8564C25.0811 10.7157 25.0927 14.6136 23.2012 14.4775C22.5064 14.5424 21.725 13.5398 21.0967 13.832C20.8008 14.0066 20.7771 14.449 20.7871 14.7881L21.0166 18.5586C21.053 18.9957 20.6604 19.391 20.2217 19.3594C19.9558 19.3228 16.0615 19.1969 15.9336 19.1006C16.1098 18.5387 16.6649 17.948 16.6416 17.2432C16.6215 15.9733 15.6124 15.3118 14.3242 15.335C12.622 15.3433 12.0221 16.339 12.0254 17.2666C12.0088 17.9698 12.5681 18.5551 12.751 19.1152C12.5981 19.2149 8.74835 19.3774 8.46289 19.4141C8.02579 19.4506 7.62808 19.0555 7.66113 18.6201L7.85449 14.8477C7.85946 14.5086 7.83244 14.0668 7.53516 13.8955C6.84361 13.6229 6.1532 14.6204 5.42676 14.5605C3.56026 14.7014 3.49221 10.8432 5.41699 10.9395C6.10512 10.8763 6.89479 11.8755 7.52148 11.585C7.81735 11.4104 7.84102 10.968 7.83105 10.6289L7.60156 6.8584C7.56507 6.41957 7.96099 6.0277 8.39648 6.05762C8.65797 6.0959 12.5619 6.21677 12.6846 6.31641C12.5083 6.87994 11.9533 7.47066 11.9766 8.17383C11.9983 9.4337 12.9929 10.0987 14.2744 10.082C15.5692 10.0985 16.5844 9.43019 16.5928 8.15039C16.6111 7.44722 16.0477 6.86361 15.8682 6.30176C16.016 6.20035 19.8746 6.04185 20.1572 6.00195Z" fill="white"/>
</svg>
