<svg width="58" height="58" viewBox="0 0 58 58" fill="none" xmlns="http://www.w3.org/2000/svg">
<rect width="58" height="58" rx="16" fill="#22A565" fill-opacity="0.1"/>
<path d="M44.8984 19.0734V48.1203C44.8984 49.6844 43.6352 50.9477 42.0711 50.9477H15.9289C14.3648 50.9477 13.1016 49.6844 13.1016 48.1203V9.87813C13.1016 8.31406 14.3648 7.05078 15.9289 7.05078H32.8758L44.8984 19.0734Z" fill="#23A566"/>
<path d="M35.9525 28.9062H22.0479C21.5494 28.9062 21.1455 29.3102 21.1455 29.8086V41.9172C21.1455 42.4156 21.5494 42.8195 22.0479 42.8195H35.9611C36.4596 42.8195 36.8635 42.4156 36.8635 41.9172V29.8172C36.8549 29.3188 36.451 28.9062 35.9525 28.9062ZM22.9502 34.7156H28.0979V37.0102H22.9502V34.7156ZM29.9025 34.7156H35.0502V37.0102H29.9025V34.7156ZM35.0502 32.9109H29.9025V30.7195H35.0502V32.9109ZM28.0979 30.7195V32.9109H22.9502V30.7195H28.0979ZM22.9502 38.8234H28.0979V41.0148H22.9502V38.8234ZM29.9025 41.0148V38.8234H35.0502V41.0148H29.9025Z" fill="white"/>
<path opacity="0.19" d="M34.4912 18.6359L44.8982 27.0664V19.1516L38.9943 15.7227L34.4912 18.6359Z" fill="black"/>
<path d="M44.8986 19.0734H35.7033C34.1393 19.0734 32.876 17.8102 32.876 16.2461V7.05078L44.8986 19.0734Z" fill="#8ED1B1"/>
</svg>
