<svg width="20" height="20" viewBox="0 0 20 20" fill="none" xmlns="http://www.w3.org/2000/svg">
<path d="M15 15.7164H14.3667C13.7 15.7164 13.0667 15.9748 12.6 16.4414L11.175 17.8498C10.525 18.4915 9.46667 18.4915 8.81667 17.8498L7.39166 16.4414C6.925 15.9748 6.28333 15.7164 5.625 15.7164H5C3.61667 15.7164 2.5 14.6081 2.5 13.2415V4.14978C2.5 2.78311 3.61667 1.6748 5 1.6748H15C16.3833 1.6748 17.5 2.78311 17.5 4.14978V13.2415C17.5 14.5998 16.3833 15.7164 15 15.7164Z" stroke="#4D5C78" stroke-width="1.5" stroke-miterlimit="10" stroke-linecap="round" stroke-linejoin="round"/>
<path d="M5.83337 7.63397C5.83337 6.85897 6.46671 6.22559 7.24171 6.22559C8.01671 6.22559 8.65004 6.85897 8.65004 7.63397C8.65004 9.20064 6.42504 9.3673 5.93337 10.859C5.83337 11.1673 6.0917 11.4756 6.4167 11.4756H8.65004" stroke="#4D5C78" stroke-width="1.5" stroke-linecap="round" stroke-linejoin="round"/>
<path d="M13.3667 11.467V6.70874C13.3667 6.49208 13.225 6.30036 13.0167 6.24203C12.8084 6.1837 12.5834 6.26703 12.4667 6.45036C11.8667 7.41703 11.2167 8.51704 10.65 9.48371C10.5584 9.64204 10.5584 9.85038 10.65 10.0087C10.7417 10.167 10.9167 10.267 11.1084 10.267H14.1667" stroke="#4D5C78" stroke-width="1.5" stroke-linecap="round" stroke-linejoin="round"/>
</svg>
