<svg width="47" height="47" viewBox="0 0 47 47" fill="none" xmlns="http://www.w3.org/2000/svg">
<path d="M23.5 0.527344C18.9572 0.527344 14.5164 1.87444 10.7393 4.39828C6.96207 6.92211 4.0181 10.5093 2.27965 14.7063C0.541202 18.9033 0.0863441 23.5216 0.972598 27.9771C1.85885 32.4326 4.04641 36.5252 7.25865 39.7375C10.4709 42.9497 14.5635 45.1372 19.019 46.0235C23.4745 46.9098 28.0928 46.4549 32.2898 44.7164C36.4868 42.978 40.074 40.034 42.5978 36.2568C45.1217 32.4797 46.4688 28.0389 46.4688 23.4961C46.4613 17.4067 44.039 11.5688 39.7332 7.26294C35.4273 2.95707 29.5894 0.534769 23.5 0.527344ZM33.8819 22.4855C34.491 22.485 35.0917 22.6288 35.6345 22.9052C36.1773 23.1816 36.647 23.5827 37.0049 24.0756C37.3628 24.5685 37.5989 25.1392 37.6937 25.741C37.7885 26.3427 37.7394 26.9583 37.5504 27.5374C37.3614 28.1165 37.0379 28.6426 36.6064 29.0726C36.1748 29.5025 35.6476 29.8241 35.0678 30.011C34.488 30.1978 33.8722 30.2446 33.2708 30.1476C32.6694 30.0506 32.0996 29.8124 31.608 29.4527C30.9561 28.9705 30.4725 28.2953 30.2257 27.5229C29.979 26.7506 29.9816 25.9201 30.2331 25.1493C30.4847 24.3784 30.9725 23.7063 31.6274 23.2282C32.2823 22.7501 33.0711 22.4903 33.8819 22.4855ZM23.4924 3.20703C31.3783 3.36016 33.0703 14.1861 25.6361 16.7586L23.9824 18.9559C23.9257 19.0325 23.8518 19.0947 23.7667 19.1376C23.6816 19.1805 23.5876 19.2028 23.4924 19.2028C23.3971 19.2028 23.3031 19.1805 23.218 19.1376C23.1329 19.0947 23.0591 19.0325 23.0024 18.9559L21.3486 16.7586C13.9067 14.1861 15.5988 3.36016 23.4924 3.20703ZM25.9806 29.5292C25.3748 29.9162 24.6872 30.1568 23.9722 30.2319C23.2573 30.307 22.5347 30.2145 21.8617 29.9618C21.1887 29.709 20.5838 29.303 20.095 28.7759C19.6062 28.2488 19.2469 27.6151 19.0455 26.925C18.8442 26.2349 18.8064 25.5073 18.9351 24.8001C19.0638 24.0928 19.3555 23.4252 19.787 22.8503C20.2185 22.2753 20.778 21.8088 21.4212 21.4877C22.0644 21.1665 22.7735 20.9996 23.4924 21.0002C24.4825 21.022 25.4398 21.3589 26.2255 21.9618C27.0112 22.5646 27.5843 23.4022 27.8617 24.3529C28.139 25.3037 28.1062 26.318 27.768 27.2488C27.4297 28.1796 26.8037 28.9784 25.9806 29.5292ZM13.1181 22.4855C13.727 22.4862 14.327 22.6311 14.8691 22.9083C15.4111 23.1855 15.8799 23.5871 16.2369 24.0803C16.5939 24.5735 16.829 25.1442 16.923 25.7457C17.0171 26.3472 16.9673 26.9625 16.7778 27.5411C16.5883 28.1197 16.2645 28.6452 15.8329 29.0746C15.4013 29.504 14.8741 29.8251 14.2945 30.0115C13.715 30.198 13.0995 30.2446 12.4984 30.1474C11.8974 30.0503 11.3279 29.8122 10.8366 29.4527C10.1832 28.9706 9.69837 28.2948 9.45116 27.5214C9.20395 26.7479 9.2069 25.9162 9.4596 25.1446C9.7123 24.3729 10.2019 23.7006 10.8587 23.2232C11.5155 22.7458 12.3062 22.4876 13.1181 22.4855ZM13.945 36.1825H7.66688C7.29733 36.1825 6.94293 36.0356 6.68162 35.7743C6.42031 35.513 6.27349 35.1586 6.27345 34.7891V33.3803C6.27361 32.6795 6.49395 31.9965 6.90335 31.4278C7.31276 30.859 7.89052 30.4332 8.55501 30.2107L9.48142 29.9044C10.2055 30.6392 11.1358 31.1366 12.1489 31.3307C13.162 31.5249 14.2103 31.4066 15.1547 30.9916C13.8684 32.385 13.8761 34.3833 13.945 36.1825ZM31.8147 36.0906C31.816 36.1214 31.8134 36.1523 31.807 36.1825C31.7817 36.5833 31.6044 36.9594 31.3113 37.2339C31.0183 37.5085 30.6315 37.661 30.2299 37.6602H16.7472C16.5406 37.6607 16.3359 37.6205 16.1448 37.5419C15.9537 37.4633 15.78 37.3478 15.6335 37.2021C15.4871 37.0563 15.3708 36.8831 15.2912 36.6924C15.2117 36.5017 15.1705 36.2972 15.17 36.0906V34.3373C15.1758 33.4441 15.4783 32.5781 16.0298 31.8754C16.5814 31.1728 17.3509 30.6734 18.2172 30.4557C18.2402 30.4557 19.5877 29.9963 19.5953 29.9963C20.6683 30.9524 22.0552 31.4806 23.4924 31.4806C24.9295 31.4806 26.3164 30.9524 27.3894 29.9963C28.405 30.2468 29.376 30.6522 30.2681 31.1983C30.7495 31.5678 31.1394 32.0431 31.4076 32.5874C31.6758 33.1318 31.8151 33.7306 31.8147 34.3374V36.0906ZM39.3331 36.1825H33.0397V34.3373C33.0468 33.1088 32.612 31.9186 31.8147 30.984C32.7621 31.4072 33.8162 31.5306 34.8358 31.3377C35.8553 31.1447 36.7914 30.6446 37.5186 29.9044L38.445 30.2107C39.1095 30.4333 39.6873 30.859 40.0967 31.4278C40.5061 31.9965 40.7264 32.6795 40.7266 33.3803V34.7891C40.7265 35.1586 40.5797 35.513 40.3184 35.7743C40.0571 36.0356 39.7027 36.1825 39.3331 36.1825Z" fill="black"/>
</svg>
