<svg width="26" height="17" viewBox="0 0 26 17" fill="none" xmlns="http://www.w3.org/2000/svg">
<path d="M3.62109 16.0938C2.94922 16.0312 2.16406 16 1.26562 16H0.339844L5.4375 1.71484C5.66406 1.07422 5.77734 0.703125 5.77734 0.601562C5.77734 0.492188 5.77344 0.425781 5.76562 0.402344L5.77734 0.378906C6.28516 0.402344 6.82422 0.414062 7.39453 0.414062C7.86328 0.414062 8.42578 0.40625 9.08203 0.390625L9.09375 0.414062C9.07812 0.445313 9.07031 0.488281 9.07031 0.542969C9.07031 0.691406 9.1875 1.08594 9.42188 1.72656L14.625 16.0352C14.4688 16.0273 14.2852 16.0234 14.0742 16.0234C14.0742 16.0234 13.8711 16.0156 13.4648 16C13.2695 16 13.0938 16 12.9375 16H11.1211L10.0195 12.625H4.72266L3.62109 16.0938ZM9.10547 9.8125L7.33594 4.36328L5.61328 9.8125H9.10547ZM25.8047 14.8633C24.9297 15.7383 23.5586 16.1758 21.6914 16.1758C19.8789 16.1758 18.3984 15.625 17.25 14.5234C16.0859 13.4062 15.5039 11.9219 15.5039 10.0703C15.5039 8.1875 16.0781 6.64062 17.2266 5.42969C18.4453 4.15625 20.0742 3.51953 22.1133 3.51953C23.5586 3.51953 24.7695 3.83594 25.7461 4.46875L25.2773 7.46875L25.1953 7.45703C24.8203 7.00391 24.4258 6.70703 24.0117 6.56641C23.3398 6.33203 22.668 6.21484 21.9961 6.21484C21.3242 6.21484 20.7969 6.30078 20.4141 6.47266C20.0312 6.64453 19.7031 6.88281 19.4297 7.1875C18.8828 7.8125 18.6094 8.64062 18.6094 9.67188C18.6094 11.5 19.2422 12.6953 20.5078 13.2578C20.9453 13.4453 21.4062 13.5391 21.8906 13.5391C22.3828 13.5391 22.8086 13.4961 23.168 13.4102C23.5352 13.3242 23.8672 13.207 24.1641 13.0586C24.7969 12.7461 25.2266 12.3828 25.4531 11.9688L25.5352 12.0039L25.8047 14.8633Z" fill="#2563EB"/>
</svg>
