<svg width="22" height="20" viewBox="0 0 22 20" fill="none" xmlns="http://www.w3.org/2000/svg">
<path d="M7.53125 19.9609C7.12125 19.9609 6.78125 19.6209 6.78125 19.2109V17.2109C6.78125 16.8009 7.12125 16.4609 7.53125 16.4609C7.94125 16.4609 8.28125 16.8009 8.28125 17.2109V19.2109C8.28125 19.6209 7.94125 19.9609 7.53125 19.9609Z" fill="#2563EB"/>
<path d="M11.5312 19.9609C11.1213 19.9609 10.7812 19.6209 10.7812 19.2109V17.2109C10.7812 16.8009 11.1213 16.4609 11.5312 16.4609C11.9412 16.4609 12.2812 16.8009 12.2812 17.2109V19.2109C12.2812 19.6209 11.9412 19.9609 11.5312 19.9609Z" fill="#2563EB"/>
<path d="M15.5313 19.9609C15.1213 19.9609 14.7812 19.6209 14.7812 19.2109V17.2109C14.7812 16.8009 15.1213 16.4609 15.5313 16.4609C15.9413 16.4609 16.2813 16.8009 16.2813 17.2109V19.2109C16.2813 19.6209 15.9413 19.9609 15.5313 19.9609Z" fill="#2563EB"/>
<path opacity="0.4" d="M21.5312 5.71094V10.711C21.5312 12.371 20.5312 13.711 18.5312 13.711H4.53125C2.53125 13.711 1.53125 12.371 1.53125 10.711V5.71094C1.53125 5.52094 1.55125 5.34094 1.57125 5.16094C1.98125 5.33094 2.30125 5.67094 2.42125 6.11094L2.68125 7.08094C2.84125 7.68094 3.34125 8.06096 3.95125 8.06096C4.56125 8.06096 5.06125 7.68094 5.22125 7.09094L5.48125 6.13094C5.62125 5.62094 5.99125 5.25094 6.50125 5.11094L7.49125 4.84094C8.04243 4.66742 8.44125 4.17357 8.44125 3.59094C8.44125 3.25094 8.32125 2.95094 8.11125 2.71094H18.5312C20.5312 2.71094 21.5312 4.05094 21.5312 5.71094Z" fill="#2563EB"/>
<path d="M16.7812 10.7109C16.7812 11.1209 16.4412 11.4609 16.0312 11.4609H7.03125C6.62125 11.4609 6.28125 11.1209 6.28125 10.7109C6.28125 10.3009 6.62125 9.96094 7.03125 9.96094H16.0312C16.4412 9.96094 16.7812 10.3009 16.7812 10.7109Z" fill="#2563EB"/>
<path d="M17.2813 6.21094C17.2813 6.62094 16.9413 6.96094 16.5313 6.96094H14.5312C14.1213 6.96094 13.7812 6.62094 13.7812 6.21094C13.7812 5.80094 14.1213 5.46094 14.5312 5.46094H16.5313C16.9413 5.46094 17.2813 5.80094 17.2813 6.21094Z" fill="#2563EB"/>
<path d="M7.4607 3.57102C7.4607 3.64102 7.4207 3.80102 7.2307 3.86102L6.2507 4.13102C5.4007 4.36102 4.7607 5.00102 4.5307 5.85102L4.2707 6.81102C4.2107 7.03102 4.0407 7.05102 3.9607 7.05102C3.8807 7.05102 3.7107 7.03102 3.6507 6.81102L3.3907 5.84102C3.1607 5.00102 2.5107 4.36102 1.6707 4.13102L0.700703 3.87102C0.490703 3.81102 0.470703 3.63102 0.470703 3.56102C0.470703 3.48102 0.490703 3.30102 0.700703 3.24102L1.6807 2.98102C2.5207 2.74102 3.1607 2.10102 3.3907 1.26102L3.6707 0.241016C3.7407 0.0710157 3.9007 0.0410156 3.9607 0.0410156C4.0207 0.0410156 4.1907 0.0610157 4.2507 0.221016L4.5307 1.25102C4.7607 2.09102 5.4107 2.73102 6.2507 2.97102L7.2507 3.25102C7.4507 3.33102 7.4607 3.51102 7.4607 3.57102Z" fill="#2563EB"/>
</svg>
