<svg xmlns="http://www.w3.org/2000/svg" width="160" height="160" viewBox="0 0 160 160" fill="none">
  <g clip-path="url(#clip0_2005_103555)">
    <g filter="url(#filter0_d_2005_103555)">
      <path d="M79.9995 143.523C71.4249 143.523 63.1061 141.842 55.273 138.529C47.7082 135.33 40.9156 130.75 35.0818 124.917C29.2491 119.084 24.6684 112.291 21.4698 104.726C18.1567 96.893 16.4766 88.5742 16.4766 79.9995C16.4766 71.4249 18.1567 63.1061 21.4698 55.273C24.6694 47.7082 29.2491 40.9156 35.0818 35.0818C40.9146 29.2491 47.7082 24.6684 55.273 21.4698C63.1061 18.1567 71.4249 16.4766 79.9995 16.4766C88.5742 16.4766 96.893 18.1567 104.726 21.4698C112.291 24.6694 119.084 29.2491 124.917 35.0818C130.75 40.9146 135.331 47.7082 138.529 55.273C141.842 63.1061 143.523 71.4249 143.523 79.9995C143.523 88.5742 141.842 96.893 138.529 104.726C135.33 112.291 130.75 119.084 124.917 124.917C119.084 130.75 112.291 135.331 104.726 138.529C96.893 141.842 88.5742 143.523 79.9995 143.523Z" fill="url(#paint0_linear_2005_103555)"/>
    </g>
    <path d="M79.9986 142.318C71.5865 142.318 63.4245 140.67 55.7414 137.42C48.3208 134.281 41.6561 129.787 35.933 124.064C30.2098 118.341 25.7167 111.676 22.5777 104.256C19.3281 96.5718 17.6797 88.4107 17.6797 79.9986C17.6797 71.5865 19.3271 63.4245 22.5777 55.7414C25.7167 48.3208 30.2098 41.6561 35.933 35.933C41.6561 30.2098 48.3208 25.7167 55.7414 22.5777C63.4254 19.3281 71.5865 17.6797 79.9986 17.6797C88.4107 17.6797 96.5728 19.3271 104.256 22.5777C111.677 25.7167 118.341 30.2098 124.064 35.933C129.787 41.6561 134.281 48.3208 137.42 55.7414C140.669 63.4254 142.318 71.5865 142.318 79.9986C142.318 88.4107 140.67 96.5728 137.42 104.256C134.281 111.677 129.787 118.341 124.064 124.064C118.341 129.787 111.676 134.281 104.256 137.42C96.5718 140.669 88.4107 142.318 79.9986 142.318Z" fill="url(#paint1_linear_2005_103555)"/>
    <path d="M79.9986 142.318C71.5865 142.318 63.4245 140.67 55.7414 137.42C48.3208 134.281 41.6561 129.787 35.933 124.064C30.2098 118.341 25.7167 111.676 22.5777 104.256C19.3281 96.5718 17.6797 88.4107 17.6797 79.9986C17.6797 71.5865 19.3271 63.4245 22.5777 55.7414C25.7167 48.3208 30.2098 41.6561 35.933 35.933C41.6561 30.2098 48.3208 25.7167 55.7414 22.5777C63.4254 19.3281 71.5865 17.6797 79.9986 17.6797C88.4107 17.6797 96.5728 19.3271 104.256 22.5777C111.677 25.7167 118.341 30.2098 124.064 35.933C129.787 41.6561 134.281 48.3208 137.42 55.7414C140.669 63.4254 142.318 71.5865 142.318 79.9986C142.318 88.4107 140.67 96.5728 137.42 104.256C134.281 111.677 129.787 118.341 124.064 124.064C118.341 129.787 111.676 134.281 104.256 137.42C96.5718 140.669 88.4107 142.318 79.9986 142.318Z" fill="url(#paint2_linear_2005_103555)"/>
    <g style="mix-blend-mode:multiply" opacity="0.5">
      <path d="M79.9986 142.318C71.5865 142.318 63.4245 140.67 55.7414 137.42C48.3208 134.281 41.6561 129.787 35.933 124.064C30.2098 118.341 25.7167 111.676 22.5777 104.256C19.3281 96.5718 17.6797 88.4107 17.6797 79.9986C17.6797 71.5865 19.3271 63.4245 22.5777 55.7414C25.7167 48.3208 30.2098 41.6561 35.933 35.933C41.6561 30.2098 48.3208 25.7167 55.7414 22.5777C63.4254 19.3281 71.5865 17.6797 79.9986 17.6797C88.4107 17.6797 96.5728 19.3271 104.256 22.5777C111.677 25.7167 118.341 30.2098 124.064 35.933C129.787 41.6561 134.281 48.3208 137.42 55.7414C140.669 63.4254 142.318 71.5865 142.318 79.9986C142.318 88.4107 140.67 96.5728 137.42 104.256C134.281 111.677 129.787 118.341 124.064 124.064C118.341 129.787 111.676 134.281 104.256 137.42C96.5718 140.669 88.4107 142.318 79.9986 142.318Z" fill="#231F20"/>
      <path opacity="0.99" d="M80.0005 142.294C71.5961 142.294 63.4417 140.647 55.7644 137.401C48.3496 134.265 41.6916 129.775 35.9743 124.058C30.2569 118.341 25.7676 111.682 22.6315 104.268C19.3847 96.5914 17.7383 88.4371 17.7383 80.0317C17.7383 71.6264 19.3847 63.473 22.6315 55.7956C25.7676 48.3808 30.2569 41.7229 35.9743 36.0055C41.6916 30.2881 48.3505 25.7989 55.7644 22.6627C63.4408 19.416 71.5951 17.7695 80.0005 17.7695C88.4058 17.7695 96.5592 19.416 104.237 22.6627C111.651 25.7989 118.309 30.2881 124.027 36.0055C129.744 41.7229 134.233 48.3818 137.369 55.7956C140.616 63.472 142.263 71.6264 142.263 80.0317C142.263 88.4371 140.616 96.5905 137.369 104.268C134.233 111.683 129.744 118.341 124.027 124.058C118.309 129.775 111.65 134.265 104.237 137.401C96.5602 140.647 88.4058 142.294 80.0005 142.294Z" fill="#262223"/>
      <path opacity="0.98" d="M80.0003 142.27C71.6027 142.27 63.456 140.626 55.7864 137.381C48.3783 134.248 41.7261 129.762 36.0136 124.05C30.301 118.337 25.8156 111.685 22.6823 104.277C19.4385 96.6072 17.793 88.4605 17.793 80.0628C17.793 71.6652 19.4375 63.5185 22.6823 55.8489C25.8156 48.4408 30.301 41.7886 36.0136 36.0761C41.7261 30.3635 48.3783 25.8781 55.7864 22.7448C63.456 19.501 71.6027 17.8555 80.0003 17.8555C88.398 17.8555 96.5447 19.5 104.214 22.7448C111.622 25.8781 118.275 30.3635 123.987 36.0761C129.7 41.7886 134.185 48.4408 137.318 55.8489C140.562 63.5185 142.208 71.6652 142.208 80.0628C142.208 88.4605 140.563 96.6072 137.318 104.277C134.185 111.685 129.7 118.337 123.987 124.05C118.275 129.762 111.622 134.248 104.214 137.381C96.5447 140.625 88.398 142.27 80.0003 142.27Z" fill="#282526"/>
      <path opacity="0.96" d="M79.9973 142.245C71.6073 142.245 63.4684 140.601 55.8055 137.36C48.4041 134.23 41.7577 129.749 36.0509 124.041C30.3432 118.334 25.8626 111.687 22.7322 104.287C19.4912 96.6239 17.8477 88.485 17.8477 80.095C17.8477 71.705 19.4912 63.566 22.7322 55.9031C25.8626 48.5018 30.3432 41.8554 36.0509 36.1486C41.7587 30.4408 48.4051 25.9602 55.8055 22.8298C63.4684 19.5889 71.6073 17.9453 79.9973 17.9453C88.3873 17.9453 96.5263 19.5889 104.189 22.8298C111.591 25.9602 118.237 30.4408 123.944 36.1486C129.651 41.8564 134.132 48.5027 137.262 55.9031C140.503 63.566 142.147 71.705 142.147 80.095C142.147 88.485 140.503 96.6239 137.262 104.287C134.132 111.688 129.651 118.335 123.944 124.041C118.236 129.749 111.59 134.23 104.189 137.36C96.5263 140.601 88.3873 142.245 79.9973 142.245Z" fill="#2B2728"/>
      <path opacity="0.95" d="M79.9992 142.221C71.6169 142.221 63.4856 140.579 55.8294 137.341C48.4348 134.214 41.7952 129.737 36.0922 124.035C30.3902 118.333 25.9135 111.692 22.786 104.298C19.5479 96.6416 17.9062 88.5094 17.9062 80.1281C17.9062 71.7468 19.5479 63.6145 22.786 55.9583C25.9135 48.5637 30.3902 41.9241 36.0922 36.2211C41.7942 30.5191 48.4348 26.0424 55.8294 22.9149C63.4856 19.6768 71.6179 18.0352 79.9992 18.0352C88.3805 18.0352 96.5127 19.6768 104.169 22.9149C111.564 26.0424 118.203 30.5191 123.906 36.2211C129.608 41.9231 134.085 48.5637 137.212 55.9583C140.45 63.6145 142.092 71.7468 142.092 80.1281C142.092 88.5094 140.45 96.6416 137.212 104.298C134.085 111.692 129.608 118.332 123.906 124.035C118.204 129.737 111.564 134.214 104.169 137.341C96.5127 140.579 88.3805 142.221 79.9992 142.221Z" fill="#2E2A2B"/>
      <path opacity="0.94" d="M79.9981 142.197C71.6235 142.197 63.499 140.557 55.8505 137.321C48.4626 134.197 41.8287 129.724 36.1315 124.027C30.4343 118.33 25.9614 111.696 22.8368 104.308C19.6016 96.6583 17.9609 88.5338 17.9609 80.1592C17.9609 71.7846 19.6016 63.6601 22.8368 56.0106C25.9614 48.6227 30.4343 41.9889 36.1315 36.2917C41.8287 30.5945 48.4626 26.1216 55.8505 22.997C63.4999 19.7618 71.6245 18.1211 79.9981 18.1211C88.3717 18.1211 96.4972 19.7618 104.147 22.997C111.535 26.1216 118.168 30.5945 123.866 36.2917C129.563 41.9889 134.036 48.6227 137.16 56.0106C140.396 63.6601 142.036 71.7846 142.036 80.1592C142.036 88.5338 140.396 96.6583 137.16 104.308C134.036 111.696 129.563 118.33 123.866 124.027C118.168 129.724 111.535 134.197 104.147 137.321C96.4972 140.557 88.3727 142.197 79.9981 142.197Z" fill="#312D2E"/>
      <path opacity="0.93" d="M79.9999 142.172C71.633 142.172 63.5162 140.533 55.8735 137.301C48.4923 134.179 41.8642 129.71 36.1728 124.018C30.4814 118.327 26.0123 111.698 22.8906 104.318C19.6583 96.676 18.0195 88.5582 18.0195 80.1913C18.0195 71.8244 19.6583 63.7076 22.8906 56.0649C26.0123 48.6837 30.4814 42.0556 36.1728 36.3642C41.8642 30.6728 48.4933 26.2037 55.8735 23.082C63.5152 19.8497 71.633 18.2109 79.9999 18.2109C88.3668 18.2109 96.4837 19.8497 104.126 23.082C111.508 26.2037 118.136 30.6728 123.827 36.3642C129.518 42.0556 133.988 48.6847 137.109 56.0649C140.342 63.7066 141.98 71.8244 141.98 80.1913C141.98 88.5582 140.342 96.6751 137.109 104.318C133.988 111.699 129.518 118.327 123.827 124.018C118.136 129.71 111.507 134.179 104.126 137.301C96.4846 140.533 88.3668 142.172 79.9999 142.172Z" fill="#333031"/>
      <path opacity="0.91" d="M79.9998 142.148C71.6406 142.148 63.5305 140.51 55.8955 137.281C48.5211 134.162 41.8987 129.697 36.2121 124.01C30.5255 118.324 26.0603 111.701 22.9414 104.327C19.712 96.6918 18.0742 88.5817 18.0742 80.2225C18.0742 71.8633 19.712 63.7531 22.9414 56.1181C26.0603 48.7437 30.5255 42.1214 36.2121 36.4348C41.8987 30.7482 48.5211 26.2829 55.8955 23.1641C63.5305 19.9347 71.6406 18.2969 79.9998 18.2969C88.359 18.2969 96.4691 19.9347 104.104 23.1641C111.479 26.2829 118.101 30.7482 123.788 36.4348C129.474 42.1214 133.939 48.7437 137.058 56.1181C140.288 63.7531 141.925 71.8633 141.925 80.2225C141.925 88.5817 140.288 96.6918 137.058 104.327C133.939 111.701 129.474 118.324 123.788 124.01C118.101 129.697 111.479 134.162 104.104 137.281C96.4691 140.51 88.359 142.148 79.9998 142.148Z" fill="#363233"/>
      <path opacity="0.9" d="M79.9968 142.124C71.6453 142.124 63.5429 140.489 55.9146 137.262C48.5469 134.146 41.9313 129.685 36.2495 124.004C30.5677 118.322 26.1073 111.706 22.9913 104.339C19.7648 96.7105 18.1289 88.6081 18.1289 80.2566C18.1289 71.9051 19.7648 63.8026 22.9913 56.1743C26.1073 48.8067 30.5686 42.191 36.2495 36.5092C41.9313 30.8275 48.5469 26.367 55.9146 23.2511C63.5429 20.0245 71.6453 18.3887 79.9968 18.3887C88.3483 18.3887 96.4507 20.0245 104.079 23.2511C111.447 26.367 118.062 30.8284 123.744 36.5092C129.426 42.191 133.886 48.8067 137.002 56.1743C140.229 63.8026 141.865 71.9051 141.865 80.2566C141.865 88.6081 140.229 96.7105 137.002 104.339C133.886 111.706 129.425 118.322 123.744 124.004C118.062 129.686 111.447 134.146 104.079 137.262C96.4507 140.489 88.3483 142.124 79.9968 142.124Z" fill="#393536"/>
      <path opacity="0.89" d="M79.9996 142.101C71.6558 142.101 63.5601 140.466 55.9395 137.243C48.5786 134.13 41.9687 129.674 36.2917 123.997C30.6157 118.321 26.1591 111.71 23.0451 104.349C19.8214 96.7272 18.1875 88.6325 18.1875 80.2887C18.1875 71.9449 19.8224 63.8492 23.0451 56.2286C26.1582 48.8676 30.6147 42.2578 36.2917 36.5808C41.9678 30.9048 48.5786 26.4482 55.9395 23.3342C63.5611 20.1105 71.6558 18.4766 79.9996 18.4766C88.3434 18.4766 96.4391 20.1115 104.06 23.3342C111.421 26.4472 118.031 30.9038 123.707 36.5808C129.384 42.2568 133.84 48.8676 136.954 56.2286C140.178 63.8501 141.812 71.9449 141.812 80.2887C141.812 88.6325 140.177 96.7282 136.954 104.349C133.841 111.71 129.384 118.32 123.707 123.997C118.031 129.673 111.421 134.129 104.06 137.243C96.4382 140.467 88.3434 142.101 79.9996 142.101Z" fill="#3B3839"/>
      <path opacity="0.88" d="M79.9985 142.077C71.6624 142.077 63.5744 140.444 55.9596 137.223C48.6054 134.113 42.0013 129.66 36.3301 123.989C30.6588 118.318 26.2061 111.714 23.0959 104.36C19.8752 96.7459 18.2422 88.6579 18.2422 80.3208C18.2422 71.9837 19.8752 63.8967 23.0959 56.2818C26.2061 48.9276 30.6588 42.3235 36.3301 36.6523C42.0013 30.9811 48.6054 26.5284 55.9596 23.4182C63.5734 20.1974 71.6614 18.5645 79.9985 18.5645C88.3356 18.5645 96.4226 20.1974 104.037 23.4182C111.392 26.5284 117.996 30.9811 123.667 36.6523C129.338 42.3235 133.791 48.9276 136.901 56.2818C140.122 63.8957 141.755 71.9837 141.755 80.3208C141.755 88.6579 140.122 96.7449 136.901 104.36C133.791 111.714 129.338 118.318 123.667 123.989C117.996 129.66 111.392 134.113 104.037 137.223C96.4236 140.444 88.3356 142.077 79.9985 142.077Z" fill="#3E3B3C"/>
      <path opacity="0.86" d="M80.0004 142.052C71.6719 142.052 63.5916 140.42 55.9835 137.203C48.6361 134.095 42.0378 129.646 36.3723 123.98C30.7059 118.314 26.258 111.716 23.1497 104.369C19.9318 96.7616 18.3008 88.6813 18.3008 80.3519C18.3008 72.0225 19.9318 63.9432 23.1497 56.3351C26.257 48.9876 30.7059 42.3893 36.3723 36.7239C42.0387 31.0575 48.637 26.6095 55.9835 23.5013C63.5907 20.2834 71.671 18.6523 80.0004 18.6523C88.3298 18.6523 96.4091 20.2834 104.017 23.5013C111.365 26.6086 117.963 31.0575 123.628 36.7239C129.295 42.3903 133.743 48.9886 136.851 56.3351C140.069 63.9422 141.7 72.0225 141.7 80.3519C141.7 88.6813 140.069 96.7607 136.851 104.369C133.744 111.716 129.295 118.315 123.628 123.98C117.962 129.646 111.365 134.094 104.017 137.203C96.4101 140.42 88.3298 142.052 80.0004 142.052Z" fill="#413D3E"/>
      <path opacity="0.85" d="M79.9993 142.028C71.6776 142.028 63.605 140.398 56.0046 137.183C48.6638 134.078 42.0722 129.633 36.4106 123.973C30.75 118.312 26.305 111.719 23.2006 104.379C19.9856 96.7783 18.3555 88.7057 18.3555 80.384C18.3555 72.0623 19.9856 63.9897 23.2006 56.3893C26.305 49.0486 30.75 42.456 36.4106 36.7954C42.0713 31.1348 48.6638 26.6897 56.0046 23.5853C63.605 20.3703 71.6776 18.7402 79.9993 18.7402C88.321 18.7402 96.3936 20.3703 103.994 23.5853C111.335 26.6897 117.926 31.1348 123.588 36.7954C129.249 42.456 133.694 49.0486 136.798 56.3893C140.013 63.9897 141.643 72.0623 141.643 80.384C141.643 88.7057 140.013 96.7783 136.798 104.379C133.694 111.719 129.249 118.312 123.588 123.973C117.927 129.633 111.335 134.078 103.994 137.183C96.3936 140.398 88.321 142.028 79.9993 142.028Z" fill="#444041"/>
      <path opacity="0.84" d="M79.9972 142.003C71.6832 142.003 63.6183 140.375 56.0246 137.163C48.6906 134.061 42.1048 129.62 36.449 123.964C30.7932 118.309 26.3529 111.723 23.2505 104.389C20.0383 96.7951 18.4102 88.7292 18.4102 80.4162C18.4102 72.1031 20.0383 64.0373 23.2505 56.4436C26.352 49.1096 30.7932 42.5238 36.449 36.8679C42.1048 31.2121 48.6906 26.7719 56.0246 23.6704C63.6183 20.4583 71.6842 18.8301 79.9972 18.8301C88.3103 18.8301 96.3761 20.4583 103.97 23.6704C111.304 26.7719 117.89 31.2131 123.545 36.8679C129.201 42.5238 133.642 49.1096 136.744 56.4436C139.956 64.0373 141.584 72.1031 141.584 80.4162C141.584 88.7292 139.956 96.7951 136.744 104.389C133.642 111.723 129.201 118.309 123.545 123.964C117.89 129.62 111.304 134.06 103.97 137.163C96.3761 140.375 88.3103 142.003 79.9972 142.003Z" fill="#464344"/>
      <path opacity="0.83" d="M79.9981 141.979C71.6918 141.979 63.6336 140.351 56.0476 137.143C48.7204 134.045 42.1403 129.607 36.4903 123.957C30.8402 118.307 26.4038 111.726 23.3042 104.4C20.095 96.8128 18.4688 88.7546 18.4688 80.4493C18.4688 72.1439 20.096 64.0848 23.3042 56.4988C26.4029 49.1715 30.8402 42.5915 36.4903 36.9414C42.1403 31.2914 48.7213 26.855 56.0476 23.7554C63.6346 20.5462 71.6928 18.9199 79.9981 18.9199C88.3035 18.9199 96.3626 20.5471 103.949 23.7554C111.276 26.854 117.856 31.2914 123.506 36.9414C129.156 42.5915 133.592 49.1725 136.692 56.4988C139.901 64.0858 141.527 72.1439 141.527 80.4493C141.527 88.7546 139.9 96.8138 136.692 104.4C133.593 111.727 129.156 118.307 123.506 123.957C117.856 129.607 111.275 134.044 103.949 137.143C96.3616 140.352 88.3035 141.979 79.9981 141.979Z" fill="#494647"/>
      <path opacity="0.81" d="M79.998 141.955C71.6994 141.955 63.6489 140.33 56.0687 137.123C48.7481 134.027 42.1739 129.595 36.5286 123.95C30.8834 118.305 26.4508 111.73 23.3551 104.41C20.1487 96.8305 18.5234 88.779 18.5234 80.4804C18.5234 72.1818 20.1487 64.1313 23.3551 56.5511C26.4518 49.2305 30.8834 42.6563 36.5286 37.011C42.1739 31.3658 48.7481 26.9333 56.0687 23.8375C63.6479 20.6312 71.6994 19.0059 79.998 19.0059C88.2966 19.0059 96.3471 20.6312 103.927 23.8375C111.248 26.9342 117.822 31.3658 123.467 37.011C129.113 42.6563 133.545 49.2305 136.641 56.5511C139.847 64.1303 141.473 72.1818 141.473 80.4804C141.473 88.779 139.847 96.8295 136.641 104.41C133.544 111.73 129.113 118.305 123.467 123.95C117.822 129.595 111.248 134.028 103.927 137.123C96.3481 140.33 88.2966 141.955 79.998 141.955Z" fill="#4C4849"/>
      <path opacity="0.8" d="M79.9998 141.931C71.7089 141.931 63.6652 140.307 56.0926 137.104C48.7788 134.011 42.2103 129.583 36.5709 123.942C30.9304 118.302 26.5027 111.735 23.4089 104.421C20.2054 96.8482 18.582 88.8044 18.582 80.5135C18.582 72.2226 20.2064 64.1788 23.4089 56.6063C26.5027 49.2925 30.9304 42.724 36.5709 37.0845C42.2113 31.4441 48.7788 27.0164 56.0926 23.9225C63.6652 20.7191 71.7089 19.0957 79.9998 19.0957C88.2908 19.0957 96.3345 20.72 103.907 23.9225C111.221 27.0164 117.789 31.4441 123.429 37.0845C129.069 42.725 133.497 49.2925 136.591 56.6063C139.793 64.1788 141.418 72.2226 141.418 80.5135C141.418 88.8044 139.793 96.8482 136.591 104.421C133.497 111.735 129.069 118.303 123.429 123.942C117.788 129.583 111.221 134.011 103.907 137.104C96.3345 140.307 88.2908 141.931 79.9998 141.931Z" fill="#4E4B4C"/>
      <path opacity="0.79" d="M79.9987 141.908C71.7155 141.908 63.6795 140.285 56.1137 137.085C48.8066 133.994 42.2448 129.57 36.6092 123.935C30.9745 118.301 26.5497 111.738 23.4597 104.431C20.2601 96.8649 18.6367 88.8288 18.6367 80.5456C18.6367 72.2624 20.2591 64.2263 23.4597 56.6605C26.5506 49.3535 30.9745 42.7917 36.6092 37.1561C42.2439 31.5214 48.8066 27.0966 56.1137 24.0066C63.6795 20.807 71.7155 19.1836 79.9987 19.1836C88.282 19.1836 96.318 20.806 103.884 24.0066C111.191 27.0975 117.753 31.5214 123.388 37.1561C129.023 42.7907 133.448 49.3535 136.538 56.6605C139.737 64.2263 141.361 72.2624 141.361 80.5456C141.361 88.8288 139.738 96.8649 136.538 104.431C133.447 111.738 129.023 118.3 123.388 123.935C117.754 129.57 111.191 133.995 103.884 137.085C96.318 140.284 88.282 141.908 79.9987 141.908Z" fill="#514E4F"/>
      <path opacity="0.78" d="M79.9967 141.882C71.7212 141.882 63.6928 140.261 56.1337 137.064C48.8334 133.976 42.2774 129.556 36.6475 123.926C31.0177 118.296 26.5976 111.74 23.5096 104.44C20.3129 96.8807 18.6914 88.8523 18.6914 80.5768C18.6914 72.3012 20.3129 64.2729 23.5096 56.7138C26.5976 49.4135 31.0177 42.8575 36.6475 37.2276C42.2774 31.5977 48.8334 27.1777 56.1337 24.0897C63.6928 20.8929 71.7212 19.2715 79.9967 19.2715C88.2722 19.2715 96.3006 20.8929 103.86 24.0897C111.16 27.1777 117.716 31.5977 123.346 37.2276C128.976 42.8575 133.396 49.4135 136.484 56.7138C139.681 64.2729 141.302 72.3012 141.302 80.5768C141.302 88.8523 139.681 96.8807 136.484 104.44C133.396 111.74 128.976 118.296 123.346 123.926C117.716 129.556 111.16 133.976 103.86 137.064C96.3006 140.261 88.2722 141.882 79.9967 141.882Z" fill="#545152"/>
      <path opacity="0.77" d="M79.9976 141.858C71.7297 141.858 63.7081 140.239 56.1567 137.045C48.8631 133.96 42.3129 129.544 36.6888 123.92C31.0638 118.295 26.6485 111.745 23.5634 104.452C20.3695 96.8994 18.75 88.8787 18.75 80.6109C18.75 72.343 20.3695 64.3214 23.5634 56.77C26.6485 49.4764 31.0647 42.9262 36.6888 37.3021C42.3139 31.677 48.8631 27.2618 56.1567 24.1766C63.7091 20.9828 71.7297 19.3633 79.9976 19.3633C88.2654 19.3633 96.2871 20.9828 103.838 24.1766C111.132 27.2618 117.682 31.678 123.306 37.3021C128.931 42.9271 133.347 49.4764 136.432 56.77C139.626 64.3223 141.245 72.343 141.245 80.6109C141.245 88.8787 139.626 96.9003 136.432 104.452C133.347 111.745 128.93 118.296 123.306 123.92C117.681 129.545 111.132 133.96 103.838 137.045C96.2861 140.239 88.2654 141.858 79.9976 141.858Z" fill="#575454"/>
      <path opacity="0.75" d="M79.9984 141.835C71.7383 141.835 63.7243 140.216 56.1787 137.025C48.8918 133.943 42.3474 129.532 36.7281 123.911C31.1088 118.292 26.6965 111.748 23.6142 104.461C20.4232 96.916 18.8047 88.9021 18.8047 80.641C18.8047 72.3799 20.4223 64.3669 23.6142 56.8213C26.6965 49.5344 31.1088 42.99 36.7281 37.3707C42.3474 31.7514 48.8918 27.3391 56.1787 24.2568C63.7234 21.0658 71.7373 19.4473 79.9984 19.4473C88.2595 19.4473 96.2725 21.0649 103.818 24.2568C111.105 27.3391 117.649 31.7514 123.269 37.3707C128.888 42.99 133.3 49.5344 136.383 56.8213C139.574 64.3659 141.192 72.3799 141.192 80.641C141.192 88.9021 139.574 96.9151 136.383 104.461C133.3 111.748 128.889 118.292 123.269 123.911C117.649 129.531 111.105 133.943 103.818 137.025C96.2735 140.216 88.2595 141.835 79.9984 141.835Z" fill="#595657"/>
      <path opacity="0.74" d="M79.9993 141.811C71.7468 141.811 63.7396 140.194 56.2017 137.006C48.9216 133.927 42.3839 129.519 36.7694 123.905C31.1549 118.291 26.7474 111.753 23.668 104.473C20.4799 96.9348 18.8633 88.9285 18.8633 80.6751C18.8633 72.4217 20.4799 64.4154 23.668 56.8775C26.7474 49.5974 31.1549 43.0597 36.7694 37.4452C42.3839 31.8307 48.9216 27.4232 56.2017 24.3438C63.7396 21.1557 71.7459 19.5391 79.9993 19.5391C88.2527 19.5391 96.259 21.1557 103.797 24.3438C111.077 27.4232 117.615 31.8307 123.229 37.4452C128.844 43.0597 133.251 49.5974 136.331 56.8775C139.519 64.4154 141.135 72.4217 141.135 80.6751C141.135 88.9285 139.519 96.9348 136.331 104.473C133.251 111.753 128.844 118.291 123.229 123.905C117.615 129.519 111.077 133.927 103.797 137.006C96.259 140.194 88.2527 141.811 79.9993 141.811Z" fill="#5C595A"/>
      <path opacity="0.73" d="M79.9992 141.787C71.7544 141.787 63.7549 140.173 56.2237 136.987C48.9503 133.91 42.4184 129.506 36.8087 123.897C31.2 118.288 26.7954 111.756 23.7188 104.482C20.5336 96.9505 18.918 88.951 18.918 80.7062C18.918 72.4614 20.5327 64.4619 23.7188 56.9308C26.7954 49.6573 31.199 43.1254 36.8087 37.5157C42.4174 31.907 48.9493 27.5024 56.2237 24.4259C63.7549 21.2407 71.7544 19.625 79.9992 19.625C88.2439 19.625 96.2434 21.2397 103.775 24.4259C111.048 27.5024 117.58 31.9061 123.19 37.5157C128.798 43.1244 133.203 49.6564 136.28 56.9308C139.465 64.4619 141.08 72.4614 141.08 80.7062C141.08 88.951 139.466 96.9505 136.28 104.482C133.203 111.755 128.799 118.287 123.19 123.897C117.581 129.505 111.049 133.91 103.775 136.987C96.2434 140.172 88.2439 141.787 79.9992 141.787Z" fill="#5F5C5D"/>
      <path opacity="0.72" d="M80.0001 141.762C71.762 141.762 63.7702 140.148 56.2467 136.966C48.98 133.892 42.4539 129.492 36.85 123.888C31.2461 118.285 26.8463 111.758 23.7726 104.492C20.5903 96.9672 18.9766 88.9754 18.9766 80.7383C18.9766 72.5013 20.5903 64.5085 23.7726 56.985C26.8463 49.7183 31.2461 43.1922 36.85 37.5883C42.4539 31.9844 48.98 27.5845 56.2467 24.5109C63.7712 21.3286 71.763 19.7148 80.0001 19.7148C88.2371 19.7148 96.2299 21.3286 103.753 24.5109C111.02 27.5845 117.546 31.9844 123.15 37.5883C128.754 43.1922 133.154 49.7183 136.228 56.985C139.41 64.5095 141.024 72.5013 141.024 80.7383C141.024 88.9754 139.41 96.9682 136.228 104.492C133.154 111.758 128.754 118.285 123.15 123.888C117.546 129.492 111.02 133.892 103.753 136.966C96.229 140.148 88.2371 141.762 80.0001 141.762Z" fill="#615F5F"/>
      <path opacity="0.7" d="M79.9971 141.738C71.7667 141.738 63.7826 140.126 56.2659 136.947C49.0059 133.876 42.4855 129.48 36.8874 123.882C31.2883 118.283 26.8932 111.764 23.8225 104.504C20.6431 96.9869 19.0312 89.0018 19.0312 80.7724C19.0312 72.5431 20.6431 64.558 23.8225 57.0412C26.8932 49.7813 31.2892 43.2609 36.8874 37.6627C42.4864 32.0637 49.0059 27.6686 56.2659 24.5979C63.7826 21.4185 71.7677 19.8066 79.9971 19.8066C88.2264 19.8066 96.2115 21.4185 103.728 24.5979C110.988 27.6686 117.509 32.0646 123.107 37.6627C128.706 43.2618 133.101 49.7813 136.172 57.0412C139.351 64.558 140.963 72.5431 140.963 80.7724C140.963 89.0018 139.351 96.9869 136.172 104.504C133.101 111.764 128.705 118.284 123.107 123.882C117.508 129.481 110.988 133.876 103.728 136.947C96.2115 140.126 88.2264 141.738 79.9971 141.738Z" fill="#646162"/>
      <path opacity="0.69" d="M79.9979 141.715C71.7752 141.715 63.7988 140.104 56.2878 136.927C49.0346 133.859 42.5209 129.467 36.9267 123.874C31.3333 118.28 26.9412 111.766 23.8733 104.513C20.6968 97.0026 19.0859 89.0252 19.0859 80.8026C19.0859 72.5799 20.6968 64.6035 23.8733 57.0925C26.9412 49.8393 31.3333 43.3256 36.9267 37.7313C42.52 32.138 49.0346 27.7459 56.2878 24.678C63.7978 21.5015 71.7752 19.8906 79.9979 19.8906C88.2205 19.8906 96.197 21.5015 103.708 24.678C110.961 27.7459 117.475 32.138 123.069 37.7313C128.662 43.3247 133.055 49.8393 136.122 57.0925C139.299 64.6025 140.91 72.5799 140.91 80.8026C140.91 89.0252 139.299 97.0016 136.122 104.513C133.055 111.766 128.662 118.28 123.069 123.874C117.476 129.467 110.961 133.859 103.708 136.927C96.1979 140.104 88.2205 141.715 79.9979 141.715Z" fill="#676465"/>
      <path opacity="0.68" d="M79.9988 141.689C71.7838 141.689 63.8141 140.08 56.3108 136.906C49.0643 133.841 42.5564 129.454 36.9679 123.866C31.3794 118.277 26.9921 111.769 23.9271 104.523C20.7535 97.0194 19.1445 89.0497 19.1445 80.8347C19.1445 72.6198 20.7535 64.6501 23.9271 57.1468C26.9921 49.9003 31.3794 43.3924 36.9679 37.8039C42.5564 32.2154 49.0643 27.828 56.3108 24.7631C63.8141 21.5894 71.7838 19.9805 79.9988 19.9805C88.2137 19.9805 96.1834 21.5894 103.687 24.7631C110.933 27.828 117.441 32.2154 123.03 37.8039C128.618 43.3924 133.005 49.9003 136.07 57.1468C139.244 64.6501 140.853 72.6198 140.853 80.8347C140.853 89.0497 139.244 97.0194 136.07 104.523C133.005 111.769 128.618 118.277 123.03 123.866C117.441 129.454 110.933 133.841 103.687 136.906C96.1834 140.08 88.2137 141.689 79.9988 141.689Z" fill="#6A6768"/>
      <path opacity="0.67" d="M79.9986 141.665C71.7914 141.665 63.8294 140.057 56.3328 136.887C49.0931 133.824 42.5909 129.441 37.0072 123.857C31.4235 118.274 27.0401 111.772 23.978 104.532C20.8072 97.0351 19.1992 89.0731 19.1992 80.8658C19.1992 72.6586 20.8072 64.6966 23.978 57.2C27.0401 49.9603 31.4235 43.4581 37.0072 37.8744C42.5909 32.2907 49.0921 27.9072 56.3328 24.8452C63.8294 21.6744 71.7914 20.0664 79.9986 20.0664C88.2059 20.0664 96.1679 21.6744 103.664 24.8452C110.904 27.9072 117.406 32.2907 122.99 37.8744C128.574 43.4581 132.957 49.9593 136.019 57.2C139.19 64.6966 140.798 72.6586 140.798 80.8658C140.798 89.0731 139.19 97.0351 136.019 104.532C132.957 111.771 128.574 118.274 122.99 123.857C117.406 129.441 110.905 133.824 103.664 136.887C96.1679 140.057 88.2059 141.665 79.9986 141.665Z" fill="#6C6A6A"/>
      <path opacity="0.65" d="M79.9995 141.642C71.8 141.642 63.8447 140.036 56.3558 136.868C49.1228 133.809 42.6264 129.429 37.0485 123.851C31.4706 118.273 27.091 111.777 24.0318 104.544C20.8639 97.0538 19.2578 89.0995 19.2578 80.8999C19.2578 72.7004 20.8639 64.7451 24.0318 57.2562C27.091 50.0232 31.4706 43.5268 37.0485 37.9489C42.6264 32.371 49.1228 27.9913 56.3558 24.9321C63.8457 21.7643 71.8 20.1582 79.9995 20.1582C88.1991 20.1582 96.1544 21.7643 103.643 24.9321C110.876 27.9913 117.373 32.371 122.951 37.9489C128.528 43.5268 132.908 50.0232 135.967 57.2562C139.135 64.746 140.741 72.7004 140.741 80.8999C140.741 89.0995 139.135 97.0548 135.967 104.544C132.908 111.777 128.528 118.273 122.951 123.851C117.373 129.429 110.876 133.809 103.643 136.868C96.1534 140.036 88.1991 141.642 79.9995 141.642Z" fill="#6F6C6D"/>
      <path opacity="0.64" d="M79.9975 141.618C71.8056 141.618 63.858 140.013 56.3759 136.849C49.1496 133.793 42.66 129.417 37.0869 123.844C31.5137 118.271 27.1389 111.781 24.0816 104.555C20.9166 97.0725 19.3125 89.1249 19.3125 80.933C19.3125 72.7412 20.9176 64.7936 24.0816 57.3115C27.1379 50.0852 31.5137 43.5955 37.0869 38.0224C42.66 32.4493 49.1496 28.0745 56.3759 25.0172C63.858 21.8522 71.8056 20.248 79.9975 20.248C88.1893 20.248 96.1369 21.8531 103.619 25.0172C110.845 28.0735 117.335 32.4493 122.908 38.0224C128.481 43.5955 132.856 50.0852 135.913 57.3115C139.078 64.7936 140.682 72.7412 140.682 80.933C140.682 89.1249 139.077 97.0725 135.913 104.555C132.857 111.781 128.481 118.271 122.908 123.844C117.335 129.417 110.845 133.792 103.619 136.849C96.1369 140.014 88.1893 141.618 79.9975 141.618Z" fill="#726F70"/>
      <path opacity="0.63" d="M79.9973 141.594C71.8132 141.594 63.8723 139.991 56.3969 136.829C49.1774 133.776 42.6935 129.404 37.1252 123.836C31.5578 118.269 27.1859 111.785 24.1325 104.565C20.9704 97.0892 19.3672 89.1493 19.3672 80.9641C19.3672 72.779 20.9704 64.8391 24.1325 57.3637C27.1859 50.1442 31.5578 43.6603 37.1252 38.092C42.6925 32.5246 49.1764 28.1527 56.3969 25.0993C63.8723 21.9372 71.8122 20.334 79.9973 20.334C88.1825 20.334 96.1224 21.9372 103.598 25.0993C110.817 28.1527 117.301 32.5246 122.87 38.092C128.437 43.6593 132.809 50.1432 135.862 57.3637C139.024 64.8391 140.628 72.779 140.628 80.9641C140.628 89.1493 139.024 97.0892 135.862 104.565C132.809 111.784 128.437 118.268 122.87 123.836C117.302 129.405 110.818 133.776 103.598 136.829C96.1224 139.991 88.1825 141.594 79.9973 141.594Z" fill="#747273"/>
      <path opacity="0.62" d="M79.9992 141.569C71.8227 141.569 63.8896 139.967 56.4209 136.808C49.2081 133.758 42.73 129.39 37.1674 123.827C31.6049 118.265 27.2378 111.786 24.1863 104.574C21.027 97.1049 19.4258 89.1718 19.4258 80.9953C19.4258 72.8188 21.027 64.8857 24.1863 57.417C27.2368 50.2042 31.6049 43.7261 37.1674 38.1635C42.73 32.601 49.2081 28.2339 56.4209 25.1823C63.8896 22.0231 71.8227 20.4219 79.9992 20.4219C88.1757 20.4219 96.1088 22.0231 103.577 25.1823C110.79 28.2329 117.268 32.601 122.831 38.1635C128.394 43.7261 132.761 50.2042 135.812 57.417C138.971 64.8857 140.573 72.8188 140.573 80.9953C140.573 89.1718 138.97 97.1049 135.812 104.574C132.762 111.786 128.394 118.265 122.831 123.827C117.268 129.39 110.79 133.757 103.577 136.808C96.1088 139.967 88.1757 141.569 79.9992 141.569Z" fill="#777575"/>
      <path opacity="0.6" d="M79.9972 141.545C71.8284 141.545 63.9029 139.945 56.441 136.788C49.2349 133.741 42.7626 129.378 37.2058 123.82C31.648 118.262 27.2848 111.791 24.2371 104.585C21.0808 97.1227 19.4805 89.1972 19.4805 81.0284C19.4805 72.8596 21.0808 64.9342 24.2371 57.4722C27.2848 50.2661 31.648 43.7938 37.2058 38.237C42.7635 32.6793 49.2349 28.316 56.441 25.2683C63.9029 22.112 71.8284 20.5117 79.9972 20.5117C88.1659 20.5117 96.0914 22.112 103.553 25.2683C110.759 28.316 117.232 32.6793 122.789 38.237C128.346 43.7948 132.71 50.2661 135.757 57.4722C138.914 64.9342 140.514 72.8596 140.514 81.0284C140.514 89.1972 138.914 97.1227 135.757 104.585C132.71 111.791 128.346 118.263 122.789 123.82C117.231 129.378 110.759 133.741 103.553 136.788C96.0914 139.945 88.1659 141.545 79.9972 141.545Z" fill="#7A7778"/>
      <path opacity="0.59" d="M80 141.519C71.8379 141.519 63.9201 139.921 56.4659 136.768C49.2665 133.723 42.8 129.363 37.248 123.811C31.6961 118.259 27.3366 111.793 24.2909 104.593C21.1374 97.1384 19.5391 89.2196 19.5391 81.0586C19.5391 72.8975 21.1374 64.9787 24.2909 57.5245C27.3357 50.3251 31.6951 43.8586 37.248 38.3066C42.8 32.7547 49.2656 28.3952 56.4659 25.3495C63.9201 22.196 71.8389 20.5977 80 20.5977C88.1611 20.5977 96.0798 22.196 103.534 25.3495C110.733 28.3943 117.2 32.7537 122.752 38.3066C128.304 43.8586 132.663 50.3242 135.709 57.5245C138.863 64.9787 140.461 72.8975 140.461 81.0586C140.461 89.2196 138.863 97.1384 135.709 104.593C132.664 111.792 128.305 118.259 122.752 123.811C117.199 129.362 110.734 133.722 103.534 136.768C96.0798 139.921 88.1611 141.519 80 141.519Z" fill="#7D7A7B"/>
      <path opacity="0.58" d="M79.9969 141.496C71.8426 141.496 63.9325 139.898 56.485 136.749C49.2924 133.707 42.8326 129.351 37.2854 123.804C31.7382 118.257 27.3836 111.797 24.3408 104.605C21.1902 97.1571 19.5938 89.246 19.5938 81.0917C19.5938 72.9373 21.1912 65.0272 24.3408 57.5788C27.3836 50.3861 31.7382 43.9263 37.2854 38.3792C42.8326 32.832 49.2924 28.4774 56.485 25.4345C63.9325 22.2839 71.8436 20.6875 79.9969 20.6875C88.1503 20.6875 96.0614 22.2849 103.51 25.4345C110.702 28.4774 117.162 32.832 122.709 38.3792C128.257 43.9263 132.612 50.3861 135.654 57.5788C138.805 65.0263 140.401 72.9373 140.401 81.0917C140.401 89.246 138.804 97.1561 135.654 104.605C132.612 111.797 128.257 118.257 122.709 123.804C117.162 129.351 110.702 133.706 103.51 136.749C96.0623 139.899 88.1513 141.496 79.9969 141.496Z" fill="#7F7D7E"/>
      <path opacity="0.57" d="M79.9968 141.472C71.8502 141.472 63.9468 139.877 56.506 136.729C49.3201 133.689 42.8661 129.338 37.3237 123.797C31.7824 118.255 27.4306 111.801 24.3916 104.615C21.2449 97.1738 19.6484 89.2704 19.6484 81.1238C19.6484 72.9771 21.2439 65.0738 24.3916 57.633C27.4316 50.4471 31.7824 43.993 37.3237 38.4507C42.8661 32.9093 49.3192 28.5576 56.506 25.5186C63.9468 22.3709 71.8502 20.7754 79.9968 20.7754C88.1435 20.7754 96.0468 22.3709 103.488 25.5186C110.674 28.5585 117.128 32.9093 122.67 38.4507C128.212 43.993 132.563 50.4461 135.602 57.633C138.749 65.0738 140.345 72.9771 140.345 81.1238C140.345 89.2704 138.75 97.1738 135.602 104.615C132.562 111.8 128.211 118.255 122.67 123.797C117.128 129.339 110.674 133.69 103.488 136.729C96.0468 139.876 88.1435 141.472 79.9968 141.472Z" fill="#828080"/>
      <path opacity="0.56" d="M79.9987 141.449C71.8597 141.449 63.9641 139.854 56.53 136.71C49.3508 133.673 42.9026 129.326 37.366 123.79C31.8294 118.253 27.4825 111.806 24.4454 104.626C21.3016 97.1915 19.707 89.2958 19.707 81.1569C19.707 73.0179 21.3016 65.1222 24.4454 57.6882C27.4825 50.509 31.8294 44.0608 37.366 38.5242C42.9026 32.9876 49.3508 28.6407 56.53 25.6036C63.9641 22.4598 71.8597 20.8652 79.9987 20.8652C88.1376 20.8652 96.0333 22.4598 103.467 25.6036C110.647 28.6407 117.095 32.9876 122.631 38.5242C128.168 44.0608 132.515 50.509 135.552 57.6882C138.696 65.1222 140.29 73.0179 140.29 81.1569C140.29 89.2958 138.696 97.1915 135.552 104.626C132.515 111.805 128.168 118.253 122.631 123.79C117.095 129.326 110.647 133.673 103.467 136.71C96.0333 139.854 88.1376 141.449 79.9987 141.449Z" fill="#858383"/>
      <path opacity="0.54" d="M80.0005 141.425C71.8692 141.425 63.9803 139.832 56.554 136.69C49.3806 133.656 42.939 129.313 37.4082 123.782C31.8765 118.251 27.5334 111.809 24.5001 104.637C21.3592 97.2092 19.7656 89.3212 19.7656 81.19C19.7656 73.0587 21.3582 65.1698 24.5001 57.7434C27.5343 50.57 31.8774 44.1285 37.4082 38.5977C42.94 33.0659 49.3815 28.7228 56.554 25.6896C63.9813 22.5486 71.8692 20.9551 80.0005 20.9551C88.1318 20.9551 96.0207 22.5477 103.447 25.6896C110.62 28.7238 117.062 33.0669 122.593 38.5977C128.125 44.1294 132.468 50.571 135.501 57.7434C138.642 65.1707 140.235 73.0587 140.235 81.19C140.235 89.3212 138.643 97.2102 135.501 104.637C132.467 111.81 128.124 118.251 122.593 123.782C117.061 129.314 110.62 133.657 103.447 136.69C96.0198 139.831 88.1318 141.425 80.0005 141.425Z" fill="#878586"/>
      <path opacity="0.53" d="M79.9994 141.399C71.8759 141.399 63.9946 139.808 56.575 136.67C49.4083 133.638 42.9735 129.3 37.4466 123.773C31.9206 118.247 27.5813 111.811 24.55 104.645C21.4119 97.2249 19.8203 89.3437 19.8203 81.2201C19.8203 73.0966 21.4119 65.2153 24.55 57.7957C27.5813 50.629 31.9196 44.1942 37.4466 38.6673C42.9726 33.1413 49.4083 28.802 56.575 25.7707C63.9946 22.6326 71.8759 21.041 79.9994 21.041C88.123 21.041 96.0042 22.6326 103.424 25.7707C110.591 28.802 117.025 33.1403 122.552 38.6673C128.078 44.1933 132.418 50.629 135.449 57.7957C138.587 65.2153 140.179 73.0966 140.179 81.2201C140.179 89.3437 138.587 97.2249 135.449 104.645C132.418 111.811 128.079 118.246 122.552 123.773C117.026 129.299 110.591 133.638 103.424 136.67C96.0042 139.808 88.123 141.399 79.9994 141.399Z" fill="#8A8889"/>
      <path opacity="0.52" d="M79.9974 141.376C71.8815 141.376 64.008 139.786 56.5941 136.651C49.4342 133.622 43.0051 129.288 37.4839 123.767C31.9628 118.245 27.6283 111.815 24.5999 104.656C21.4647 97.2436 19.875 89.3701 19.875 81.2532C19.875 73.1364 21.4647 65.2638 24.5999 57.85C27.6283 50.69 31.9628 44.261 37.4839 38.7398C43.0051 33.2186 49.4351 28.8842 56.5941 25.8557C64.007 22.7206 71.8805 21.1309 79.9974 21.1309C88.1142 21.1309 95.9868 22.7206 103.401 25.8557C110.561 28.8842 116.99 33.2186 122.511 38.7398C128.032 44.261 132.366 50.691 135.395 57.85C138.53 65.2629 140.12 73.1364 140.12 81.2532C140.12 89.3701 138.53 97.2427 135.395 104.656C132.366 111.816 128.032 118.245 122.511 123.767C116.99 129.288 110.56 133.622 103.401 136.651C95.9878 139.786 88.1142 141.376 79.9974 141.376Z" fill="#8D8B8B"/>
      <path opacity="0.51" d="M79.9972 141.352C71.8891 141.352 64.0223 139.763 56.6161 136.631C49.4629 133.605 43.0396 129.275 37.5232 123.758C32.0069 118.242 27.6763 111.819 24.6507 104.665C21.5184 97.2594 19.9297 89.3926 19.9297 81.2844C19.9297 73.1762 21.5184 65.3094 24.6507 57.9032C27.6763 50.75 32.0069 44.3267 37.5232 38.8104C43.0396 33.294 49.4629 28.9634 56.6161 25.9378C64.0223 22.8055 71.8891 21.2168 79.9972 21.2168C88.1054 21.2168 95.9722 22.8055 103.378 25.9378C110.532 28.9634 116.955 33.294 122.471 38.8104C127.988 44.3267 132.318 50.75 135.344 57.9032C138.476 65.3094 140.065 73.1762 140.065 81.2844C140.065 89.3926 138.476 97.2594 135.344 104.665C132.318 111.819 127.988 118.242 122.471 123.758C116.955 129.275 110.532 133.605 103.378 136.631C95.9722 139.763 88.1054 141.352 79.9972 141.352Z" fill="#908E8E"/>
      <path opacity="0.49" d="M79.9981 141.328C71.8976 141.328 64.0385 139.741 56.6391 136.612C49.4926 133.589 43.0751 129.263 37.5645 123.752C32.0539 118.241 27.7272 111.824 24.7045 104.677C21.5751 97.2781 19.9883 89.419 19.9883 81.3185C19.9883 73.218 21.5751 65.3588 24.7045 57.9594C27.7272 50.813 32.0539 44.3954 37.5645 38.8848C43.0751 33.3742 49.4926 29.0475 56.6391 26.0248C64.0385 22.8954 71.8976 21.3086 79.9981 21.3086C88.0986 21.3086 95.9577 22.8954 103.357 26.0248C110.504 29.0475 116.921 33.3742 122.432 38.8848C127.942 44.3954 132.269 50.813 135.292 57.9594C138.421 65.3588 140.008 73.218 140.008 81.3185C140.008 89.419 138.421 97.2781 135.292 104.677C132.269 111.824 127.942 118.241 122.432 123.752C116.921 129.263 110.504 133.589 103.357 136.612C95.9577 139.741 88.0986 141.328 79.9981 141.328Z" fill="#929091"/>
      <path opacity="0.48" d="M79.997 141.303C71.9042 141.303 64.0519 139.718 56.6601 136.59C49.5204 133.571 43.1096 129.248 37.6038 123.742C32.098 118.236 27.7751 111.824 24.7554 104.686C21.6288 97.2938 20.043 89.4414 20.043 81.3486C20.043 73.2558 21.6279 65.4034 24.7554 58.0117C27.7751 50.872 32.098 44.4612 37.6038 38.9554C43.1096 33.4496 49.5214 29.1267 56.6601 26.1069C64.0519 22.9804 71.9042 21.3945 79.997 21.3945C88.0899 21.3945 95.9422 22.9794 103.334 26.1069C110.474 29.1267 116.884 33.4496 122.39 38.9554C127.896 44.4612 132.219 50.8729 135.239 58.0117C138.365 65.4034 139.951 73.2558 139.951 81.3486C139.951 89.4414 138.366 97.2938 135.239 104.686C132.219 111.825 127.896 118.236 122.39 123.742C116.884 129.248 110.473 133.571 103.334 136.59C95.9422 139.717 88.0899 141.303 79.997 141.303Z" fill="#959394"/>
      <path opacity="0.47" d="M79.9989 141.279C71.9138 141.279 64.0691 139.695 56.6841 136.571C49.5511 133.555 43.1461 129.236 37.6451 123.735C32.1451 118.235 27.826 111.83 24.8091 104.696C21.6855 97.3115 20.1016 89.4668 20.1016 81.3817C20.1016 73.2966 21.6855 65.4519 24.8091 58.0669C27.826 50.9339 32.1451 44.5289 37.6451 39.0279C43.1451 33.5279 49.5511 29.2088 56.6841 26.192C64.0691 23.0683 71.9138 21.4844 79.9989 21.4844C88.084 21.4844 95.9287 23.0683 103.314 26.192C110.447 29.2088 116.852 33.5279 122.353 39.0279C127.854 44.5289 132.172 50.9339 135.189 58.0669C138.312 65.4519 139.896 73.2966 139.896 81.3817C139.896 89.4668 138.312 97.3115 135.189 104.696C132.172 111.83 127.853 118.235 122.353 123.735C116.852 129.236 110.447 133.555 103.314 136.571C95.9287 139.695 88.084 141.279 79.9989 141.279Z" fill="#989696"/>
      <path opacity="0.46" d="M79.9968 141.255C71.9185 141.255 64.0815 139.673 56.7032 136.553C49.5769 133.539 43.1777 129.224 37.6825 123.729C32.1873 118.234 27.873 111.835 24.859 104.708C21.7383 97.3302 20.1562 89.4932 20.1562 81.4148C20.1562 73.3364 21.7383 65.4994 24.859 58.1212C27.873 50.9949 32.1873 44.5957 37.6825 39.1005C43.1777 33.6052 49.5769 29.291 56.7032 26.277C64.0815 23.1562 71.9185 21.5742 79.9968 21.5742C88.0752 21.5742 95.9122 23.1562 103.29 26.277C110.417 29.291 116.816 33.6052 122.311 39.1005C127.806 44.5957 132.122 50.9949 135.135 58.1212C138.255 65.4994 139.837 73.3364 139.837 81.4148C139.837 89.4932 138.255 97.3302 135.135 104.708C132.121 111.835 127.806 118.234 122.311 123.729C116.816 129.224 110.417 133.539 103.29 136.553C95.9122 139.673 88.0752 141.255 79.9968 141.255Z" fill="#9B9999"/>
      <path opacity="0.44" d="M79.9997 141.232C71.929 141.232 64.0997 139.651 56.7282 136.533C49.6086 133.522 43.2151 129.211 37.7257 123.721C32.2353 118.23 27.9249 111.837 24.9138 104.718C21.7959 97.3469 20.2148 89.5176 20.2148 81.4469C20.2148 73.3762 21.7959 65.5469 24.9138 58.1754C27.9249 51.0559 32.2353 44.6624 37.7257 39.173C43.2161 33.6825 49.6096 29.3722 56.7282 26.361C64.0997 23.2432 71.929 21.6621 79.9997 21.6621C88.0703 21.6621 95.8996 23.2432 103.271 26.361C110.391 29.3722 116.784 33.6825 122.274 39.173C127.764 44.6634 132.074 51.0568 135.086 58.1754C138.203 65.5469 139.784 73.3762 139.784 81.4469C139.784 89.5176 138.203 97.3469 135.086 104.718C132.074 111.838 127.764 118.231 122.274 123.721C116.783 129.211 110.39 133.522 103.271 136.533C95.8996 139.651 88.0703 141.232 79.9997 141.232Z" fill="#9D9B9C"/>
      <path opacity="0.43" d="M79.9976 141.206C71.9346 141.206 64.113 139.627 56.7482 136.512C49.6354 133.504 43.2477 129.197 37.7631 123.713C32.2784 118.228 27.9719 111.84 24.9636 104.727C21.8487 97.3627 20.2695 89.5411 20.2695 81.4781C20.2695 73.4151 21.8487 65.5935 24.9636 58.2287C27.9719 51.1159 32.2784 44.7282 37.7631 39.2435C43.2477 33.7589 49.6354 29.4524 56.7482 26.4441C64.113 23.3291 71.9346 21.75 79.9976 21.75C88.0606 21.75 95.8822 23.3291 103.247 26.4441C110.36 29.4524 116.747 33.7589 122.232 39.2435C127.717 44.7282 132.023 51.1159 135.032 58.2287C138.147 65.5935 139.726 73.4151 139.726 81.4781C139.726 89.5411 138.147 97.3627 135.032 104.727C132.023 111.84 127.717 118.228 122.232 123.713C116.747 129.197 110.36 133.504 103.247 136.512C95.8822 139.627 88.0606 141.206 79.9976 141.206Z" fill="#A09E9F"/>
      <path opacity="0.42" d="M80.0004 141.182C71.9451 141.182 64.1303 139.604 56.7732 136.492C49.6671 133.487 43.2861 129.184 37.8063 123.704C32.3264 118.225 28.0237 111.844 25.0184 104.737C21.9063 97.3804 20.3281 89.5655 20.3281 81.5102C20.3281 73.4549 21.9063 65.64 25.0184 58.2829C28.0237 51.1768 32.3264 44.7959 37.8063 39.316C43.2861 33.8362 49.668 29.5335 56.7732 26.5282C64.1303 23.4161 71.9451 21.8379 80.0004 21.8379C88.0557 21.8379 95.8706 23.4161 103.228 26.5282C110.334 29.5335 116.715 33.8362 122.195 39.316C127.674 44.7959 131.977 51.1768 134.982 58.2829C138.095 65.64 139.673 73.4549 139.673 81.5102C139.673 89.5655 138.095 97.3804 134.982 104.737C131.977 111.844 127.674 118.225 122.195 123.704C116.715 129.184 110.334 133.487 103.228 136.492C95.8706 139.604 88.0557 141.182 80.0004 141.182Z" fill="#A3A1A1"/>
      <path opacity="0.41" d="M79.9984 141.159C71.9508 141.159 64.1436 139.583 56.7932 136.473C49.6939 133.471 43.3187 129.172 37.8437 123.698C32.3686 118.223 28.0707 111.848 25.0683 104.748C21.9591 97.3981 20.3828 89.5909 20.3828 81.5433C20.3828 73.4957 21.9591 65.6885 25.0683 58.3381C28.0707 51.2388 32.3696 44.8636 37.8437 39.3886C43.3187 33.9135 49.6939 29.6157 56.7932 26.6132C64.1436 23.504 71.9508 21.9277 79.9984 21.9277C88.046 21.9277 95.8531 23.504 103.204 26.6132C110.303 29.6157 116.678 33.9145 122.153 39.3886C127.628 44.8636 131.926 51.2388 134.928 58.3381C138.038 65.6885 139.614 73.4957 139.614 81.5433C139.614 89.5909 138.038 97.3981 134.928 104.748C131.926 111.848 127.627 118.223 122.153 123.698C116.678 129.173 110.303 133.471 103.204 136.473C95.8531 139.583 88.046 141.159 79.9984 141.159Z" fill="#A5A4A4"/>
      <path opacity="0.4" d="M79.9973 141.135C71.9574 141.135 64.1569 139.56 56.8133 136.455C49.7207 133.455 43.3512 129.161 37.882 123.691C32.4127 118.221 28.1187 111.852 25.1182 104.759C22.0118 97.4158 20.4375 89.6153 20.4375 81.5754C20.4375 73.5355 22.0128 65.735 25.1182 58.3914C28.1177 51.2988 32.4127 44.9294 37.882 39.4601C43.3512 33.9909 49.7207 29.6968 56.8133 26.6963C64.1569 23.5899 71.9574 22.0156 79.9973 22.0156C88.0372 22.0156 95.8376 23.5909 103.181 26.6963C110.274 29.6959 116.643 33.9909 122.113 39.4601C127.582 44.9294 131.876 51.2988 134.876 58.3914C137.983 65.735 139.557 73.5355 139.557 81.5754C139.557 89.6153 137.982 97.4158 134.876 104.759C131.877 111.852 127.582 118.221 122.113 123.691C116.643 129.16 110.274 133.454 103.181 136.455C95.8376 139.561 88.0372 141.135 79.9973 141.135Z" fill="#A8A7A7"/>
      <path opacity="0.38" d="M79.9991 141.112C71.9669 141.112 64.1742 139.538 56.8373 136.435C49.7514 133.438 43.3877 129.148 37.9242 123.683C32.4598 118.219 28.1696 111.855 25.1729 104.77C22.0695 97.4335 20.4961 89.6407 20.4961 81.6085C20.4961 73.5763 22.0695 65.7835 25.1729 58.4466C28.1696 51.3607 32.4598 44.9971 37.9242 39.5336C43.3887 34.0692 49.7523 29.779 56.8373 26.7823C64.1742 23.6788 71.9669 22.1055 79.9991 22.1055C88.0313 22.1055 95.8241 23.6788 103.161 26.7823C110.247 29.779 116.611 34.0692 122.074 39.5336C127.538 44.9981 131.829 51.3617 134.825 58.4466C137.929 65.7835 139.502 73.5763 139.502 81.6085C139.502 89.6407 137.929 97.4335 134.825 104.77C131.829 111.856 127.538 118.22 122.074 123.683C116.61 129.148 110.246 133.438 103.161 136.435C95.8241 139.538 88.0313 141.112 79.9991 141.112Z" fill="#ABA9AA"/>
      <path opacity="0.37" d="M79.998 141.086C71.9735 141.086 64.1875 139.514 56.8583 136.414C49.7791 133.42 43.4222 129.134 37.9626 123.674C32.5039 118.215 28.2175 111.858 25.2228 104.778C22.1222 97.4492 20.5508 89.6632 20.5508 81.6387C20.5508 73.6141 22.1222 65.8281 25.2228 58.4989C28.2166 51.4198 32.5029 45.0628 37.9626 39.6032C43.4213 34.1445 49.7791 29.8582 56.8583 26.8634C64.1875 23.7628 71.9735 22.1914 79.998 22.1914C88.0226 22.1914 95.8086 23.7638 103.138 26.8634C110.217 29.8572 116.574 34.1436 122.034 39.6032C127.492 45.0619 131.779 51.4198 134.773 58.4989C137.874 65.8281 139.445 73.6141 139.445 81.6387C139.445 89.6632 137.873 97.4492 134.773 104.778C131.779 111.858 127.493 118.214 122.034 123.674C116.575 129.133 110.217 133.419 103.138 136.414C95.8086 139.514 88.0226 141.086 79.998 141.086Z" fill="#AEACAC"/>
      <path opacity="0.36" d="M79.9999 141.062C71.9831 141.062 64.2047 139.492 56.8823 136.394C49.8098 133.403 43.4587 129.121 38.0048 123.667C32.551 118.213 28.2684 111.862 25.2775 104.789C22.1798 97.4669 20.6094 89.6886 20.6094 81.6718C20.6094 73.6549 22.1798 65.8766 25.2775 58.5541C28.2684 51.4817 32.551 45.1306 38.0048 39.6767C43.4587 34.2228 49.8098 29.9403 56.8823 26.9494C64.2047 23.8517 71.9831 22.2812 79.9999 22.2812C88.0167 22.2812 95.795 23.8517 103.118 26.9494C110.19 29.9403 116.541 34.2228 121.995 39.6767C127.449 45.1306 131.731 51.4817 134.722 58.5541C137.82 65.8766 139.39 73.6549 139.39 81.6718C139.39 89.6886 137.82 97.4669 134.722 104.789C131.731 111.862 127.449 118.213 121.995 123.667C116.541 129.121 110.19 133.403 103.118 136.394C95.795 139.492 88.0167 141.062 79.9999 141.062Z" fill="#B0AFAF"/>
      <path opacity="0.35" d="M79.9988 141.037C71.9897 141.037 64.219 139.468 56.9033 136.373C49.8376 133.385 43.4922 129.107 38.0432 123.658C32.5941 118.209 28.3164 111.863 25.3274 104.797C22.2326 97.4817 20.6641 89.7111 20.6641 81.7019C20.6641 73.6928 22.2326 65.9222 25.3274 58.6064C28.3154 51.5407 32.5941 45.1953 38.0432 39.7463C43.4922 34.2972 49.8376 30.0195 56.9033 27.0305C64.219 23.9357 71.9897 22.3672 79.9988 22.3672C88.0079 22.3672 95.7786 23.9357 103.094 27.0305C110.16 30.0186 116.505 34.2972 121.954 39.7463C127.404 45.1953 131.681 51.5407 134.67 58.6064C137.764 65.9222 139.334 73.6928 139.334 81.7019C139.334 89.7111 137.765 97.4817 134.67 104.797C131.682 111.863 127.404 118.209 121.954 123.658C116.505 129.107 110.16 133.384 103.094 136.373C95.7786 139.467 88.0079 141.037 79.9988 141.037Z" fill="#B3B2B2"/>
      <path opacity="0.33" d="M79.9967 141.013C71.9943 141.013 64.2314 139.445 56.9224 136.354C49.8634 133.368 43.5238 129.095 38.0805 123.651C32.6372 118.208 28.3634 111.868 25.3773 104.809C22.2863 97.5004 20.7188 89.7374 20.7188 81.735C20.7188 73.7326 22.2863 65.9697 25.3773 58.6607C28.3634 51.6017 32.6372 45.2621 38.0805 39.8188C43.5238 34.3755 49.8634 30.1017 56.9224 27.1156C64.2314 24.0246 71.9943 22.457 79.9967 22.457C87.9992 22.457 95.7621 24.0246 103.071 27.1156C110.13 30.1017 116.47 34.3755 121.913 39.8188C127.356 45.2621 131.631 51.6017 134.616 58.6607C137.707 65.9697 139.275 73.7326 139.275 81.735C139.275 89.7374 137.707 97.5004 134.616 104.809C131.631 111.868 127.356 118.208 121.913 123.651C116.47 129.095 110.13 133.369 103.071 136.354C95.7621 139.445 87.9992 141.013 79.9967 141.013Z" fill="#B6B4B5"/>
      <path opacity="0.32" d="M79.9986 140.989C72.0039 140.989 64.2486 139.424 56.9464 136.335C49.8941 133.351 43.5613 129.082 38.1228 123.644C32.6843 118.205 28.4143 111.873 25.432 104.82C22.344 97.5181 20.7773 89.7628 20.7773 81.7681C20.7773 73.7734 22.343 66.0182 25.432 58.7159C28.4153 51.6637 32.6853 45.3308 38.1228 39.8923C43.5613 34.4538 49.8941 30.1838 56.9464 27.2016C64.2486 24.1135 72.0039 22.5469 79.9986 22.5469C87.9933 22.5469 95.7486 24.1125 103.051 27.2016C110.103 30.1848 116.436 34.4548 121.874 39.8923C127.313 45.3308 131.583 51.6637 134.565 58.7159C137.653 66.0182 139.22 73.7734 139.22 81.7681C139.22 89.7628 137.654 97.5181 134.565 104.82C131.582 111.873 127.313 118.205 121.874 123.644C116.436 129.082 110.103 133.352 103.051 136.335C95.7486 139.423 87.9933 140.989 79.9986 140.989Z" fill="#B8B7B7"/>
      <path opacity="0.31" d="M79.9975 140.966C72.0105 140.966 64.262 139.401 56.9674 136.316C49.9219 133.335 43.5948 129.07 38.1611 123.637C32.7274 118.203 28.4623 111.876 25.4819 104.83C22.3967 97.5358 20.832 89.7873 20.832 81.8002C20.832 73.8132 22.3967 66.0647 25.4819 58.7701C28.4623 51.7246 32.7274 45.3975 38.1611 39.9639C43.5948 34.5302 49.9219 30.265 56.9674 27.2846C64.262 24.1995 72.0105 22.6348 79.9975 22.6348C87.9845 22.6348 95.733 24.1995 103.028 27.2846C110.073 30.265 116.4 34.5302 121.834 39.9639C127.268 45.3975 131.533 51.7246 134.513 58.7701C137.598 66.0647 139.163 73.8132 139.163 81.8002C139.163 89.7873 137.598 97.5358 134.513 104.83C131.533 111.876 127.268 118.203 121.834 123.637C116.4 129.07 110.073 133.335 103.028 136.316C95.733 139.401 87.9845 140.966 79.9975 140.966Z" fill="#BBBABA"/>
      <path opacity="0.3" d="M79.9994 140.942C72.02 140.942 64.2792 139.379 56.9914 136.296C49.9526 133.319 43.6313 129.057 38.2034 123.629C32.7755 118.201 28.5132 111.88 25.5367 104.841C22.4544 97.5535 20.8906 89.8127 20.8906 81.8333C20.8906 73.854 22.4534 66.1132 25.5367 58.8253C28.5141 51.7866 32.7755 45.4652 38.2034 40.0373C43.6313 34.6094 49.9526 30.3471 56.9914 27.3706C64.2792 24.2884 72.02 22.7246 79.9994 22.7246C87.9787 22.7246 95.7195 24.2874 103.007 27.3706C110.046 30.3481 116.367 34.6094 121.795 40.0373C127.223 45.4652 131.486 51.7866 134.462 58.8253C137.544 66.1132 139.108 73.854 139.108 81.8333C139.108 89.8127 137.545 97.5535 134.462 104.841C131.485 111.88 127.223 118.201 121.795 123.629C116.367 129.057 110.046 133.32 103.007 136.296C95.7195 139.378 87.9787 140.942 79.9994 140.942Z" fill="#BEBDBD"/>
      <path opacity="0.28" d="M79.9983 140.916C72.0266 140.916 64.2926 139.355 57.0124 136.275C49.9804 133.301 43.6648 129.043 38.2417 123.62C32.8186 118.197 28.5611 111.882 25.5865 104.849C22.5071 97.5683 20.9453 89.8342 20.9453 81.8635C20.9453 73.8928 22.5071 66.1578 25.5865 58.8776C28.5611 51.8456 32.8186 45.53 38.2417 40.1069C43.6648 34.6838 49.9794 30.4263 57.0124 27.4518C64.2935 24.3724 72.0276 22.8105 79.9983 22.8105C87.9689 22.8105 95.704 24.3724 102.984 27.4518C110.016 30.4263 116.332 34.6838 121.755 40.1069C127.178 45.53 131.435 51.8446 134.41 58.8776C137.489 66.1587 139.051 73.8928 139.051 81.8635C139.051 89.8342 137.489 97.5692 134.41 104.849C131.435 111.881 127.178 118.197 121.755 123.62C116.332 129.043 110.017 133.301 102.984 136.275C95.703 139.355 87.9689 140.916 79.9983 140.916Z" fill="#C1BFC0"/>
      <path opacity="0.27" d="M80.0001 140.893C72.0362 140.893 64.3098 139.333 57.0354 136.256C50.0101 133.285 43.7013 129.031 38.283 123.614C32.8657 118.196 28.612 111.887 25.6403 104.861C22.5638 97.5869 21.0039 89.8605 21.0039 81.8966C21.0039 73.9327 22.5638 66.2063 25.6403 58.9319C28.612 51.9066 32.8657 45.5978 38.283 40.1795C43.7003 34.7621 50.0101 30.5085 57.0354 27.5368C64.3098 24.4603 72.0362 22.9004 80.0001 22.9004C87.9641 22.9004 95.6904 24.4603 102.965 27.5368C109.99 30.5085 116.299 34.7621 121.717 40.1795C127.135 45.5968 131.389 51.9066 134.36 58.9319C137.436 66.2063 138.996 73.9327 138.996 81.8966C138.996 89.8605 137.436 97.5869 134.36 104.861C131.388 111.887 127.135 118.195 121.717 123.614C116.3 129.031 109.99 133.286 102.965 136.256C95.6904 139.333 87.9641 140.893 80.0001 140.893Z" fill="#C3C2C2"/>
      <path opacity="0.26" d="M79.999 140.869C72.0428 140.869 64.3241 139.31 57.0564 136.237C50.0379 133.268 43.7348 129.018 38.3223 123.605C32.9098 118.193 28.66 111.89 25.6912 104.871C22.6175 97.6037 21.0586 89.885 21.0586 81.9287C21.0586 73.9725 22.6175 66.2538 25.6912 58.9861C28.66 51.9675 32.9098 45.6645 38.3223 40.252C43.7348 34.8395 50.0379 30.5897 57.0564 27.6208C64.3231 24.5472 72.0428 22.9883 79.999 22.9883C87.9553 22.9883 95.674 24.5472 102.942 27.6208C109.96 30.5897 116.263 34.8395 121.676 40.252C127.088 45.6645 131.338 51.9675 134.307 58.9861C137.381 66.2528 138.939 73.9725 138.939 81.9287C138.939 89.885 137.381 97.6037 134.307 104.871C131.338 111.89 127.088 118.193 121.676 123.605C116.263 129.018 109.96 133.268 102.942 136.237C95.6749 139.31 87.9553 140.869 79.999 140.869Z" fill="#C6C5C5"/>
      <path opacity="0.25" d="M79.997 140.844C72.0484 140.844 64.3365 139.287 57.0765 136.216C50.0647 133.25 43.7674 129.005 38.3597 123.597C32.952 118.189 28.707 111.892 25.741 104.88C22.6703 97.6204 21.1133 89.9084 21.1133 81.9599C21.1133 74.0113 22.6703 66.2993 25.741 59.0394C28.707 52.0275 32.952 45.7303 38.3597 40.3225C43.7674 34.9148 50.0647 30.6698 57.0765 27.7039C64.3365 24.6332 72.0484 23.0762 79.997 23.0762C87.9455 23.0762 95.6575 24.6332 102.917 27.7039C109.929 30.6698 116.227 34.9148 121.634 40.3225C127.042 45.7303 131.287 52.0275 134.253 59.0394C137.324 66.2993 138.881 74.0113 138.881 81.9599C138.881 89.9084 137.324 97.6204 134.253 104.88C131.287 111.892 127.042 118.189 121.634 123.597C116.227 129.005 109.929 133.25 102.917 136.216C95.6575 139.287 87.9455 140.844 79.997 140.844Z" fill="#C9C8C8"/>
      <path opacity="0.23" d="M79.9988 140.82C72.058 140.82 64.3537 139.265 57.1005 136.196C50.0954 133.233 43.8038 128.992 38.4019 123.589C33 118.187 28.7579 111.895 25.7948 104.89C22.727 97.6371 21.1719 89.9328 21.1719 81.992C21.1719 74.0511 22.727 66.3468 25.7948 59.0936C28.7579 52.0885 32.999 45.797 38.4019 40.3951C43.8038 34.9931 50.0954 30.751 57.1005 27.788C64.3537 24.7201 72.058 23.1641 79.9988 23.1641C87.9397 23.1641 95.644 24.7191 102.897 27.788C109.902 30.751 116.194 34.9922 121.596 40.3951C126.998 45.797 131.24 52.0885 134.203 59.0936C137.271 66.3468 138.827 74.0511 138.827 81.992C138.827 89.9328 137.272 97.6371 134.203 104.89C131.24 111.895 126.999 118.187 121.596 123.589C116.194 128.991 109.902 133.233 102.897 136.196C95.644 139.264 87.9397 140.82 79.9988 140.82Z" fill="#CBCACB"/>
      <path opacity="0.22" d="M79.9968 140.796C72.0636 140.796 64.3661 139.242 57.1205 136.177C50.1222 133.217 43.8374 128.98 38.4402 123.583C33.0431 118.185 28.8058 111.901 25.8457 104.902C22.7807 97.6558 21.2266 89.9592 21.2266 82.0261C21.2266 74.0929 22.7807 66.3954 25.8457 59.1498C28.8058 52.1515 33.0431 45.8667 38.4402 40.4695C43.8374 35.0724 50.1222 30.8351 57.1205 27.875C64.367 24.81 72.0636 23.2559 79.9968 23.2559C87.9299 23.2559 95.6275 24.81 102.873 27.875C109.871 30.8351 116.156 35.0724 121.553 40.4695C126.95 45.8667 131.188 52.1515 134.148 59.1498C137.213 66.3963 138.767 74.0929 138.767 82.0261C138.767 89.9592 137.213 97.6568 134.148 104.902C131.188 111.901 126.95 118.185 121.553 123.583C116.156 128.98 109.871 133.217 102.873 136.177C95.6265 139.242 87.9299 140.796 79.9968 140.796Z" fill="#CECDCD"/>
      <path opacity="0.21" d="M80.0005 140.773C72.0751 140.773 64.3852 139.22 57.1455 136.158C50.1538 133.201 43.8748 128.968 38.4825 123.575C33.0902 118.183 28.8577 111.904 25.8994 104.912C22.8374 97.6725 21.2852 89.9836 21.2852 82.0572C21.2852 74.1308 22.8374 66.4419 25.8994 59.2021C28.8567 52.2105 33.0902 45.9314 38.4825 40.5391C43.8748 35.1468 50.1538 30.9143 57.1455 27.9561C64.3852 24.894 72.0741 23.3418 80.0005 23.3418C87.927 23.3418 95.6159 24.894 102.856 27.9561C109.847 30.9134 116.126 35.1468 121.519 40.5391C126.911 45.9314 131.144 52.2105 134.102 59.2021C137.164 66.4419 138.716 74.1308 138.716 82.0572C138.716 89.9836 137.164 97.6725 134.102 104.912C131.144 111.904 126.911 118.183 121.519 123.575C116.126 128.968 109.847 133.201 102.856 136.158C95.6159 139.22 87.927 140.773 80.0005 140.773Z" fill="#D1D0D0"/>
      <path opacity="0.2" d="M79.9985 140.749C72.0798 140.749 64.3986 139.198 57.1655 136.138C50.1806 133.184 43.9074 128.955 38.5208 123.568C33.1343 118.181 28.9047 111.908 25.9503 104.923C22.8911 97.6912 21.3398 90.009 21.3398 82.0903C21.3398 74.1716 22.8911 66.4894 25.9503 59.2573C28.9047 52.2724 33.1343 45.9992 38.5208 40.6126C43.9074 35.2261 50.1806 30.9965 57.1655 28.0421C64.3976 24.9829 72.0798 23.4316 79.9985 23.4316C87.9172 23.4316 95.5994 24.9829 102.831 28.0421C109.816 30.9965 116.09 35.2261 121.476 40.6126C126.863 45.9992 131.092 52.2724 134.047 59.2573C137.106 66.4894 138.657 74.1716 138.657 82.0903C138.657 90.009 137.106 97.6912 134.047 104.923C131.092 111.908 126.863 118.181 121.476 123.568C116.09 128.955 109.816 133.184 102.831 136.138C95.5994 139.198 87.9172 140.749 79.9985 140.749Z" fill="#D4D3D3"/>
      <path opacity="0.19" d="M80.0003 140.723C72.0893 140.723 64.4148 139.174 57.1895 136.118C50.2113 133.166 43.9438 128.94 38.5621 123.56C33.1804 118.178 28.9556 111.911 26.0041 104.932C22.9478 97.7069 21.3984 90.0325 21.3984 82.1214C21.3984 74.2104 22.9478 66.5359 26.0041 59.3106C28.9556 52.3324 33.1813 46.0649 38.5621 40.6832C43.9438 35.3015 50.2104 31.0767 57.1895 28.1252C64.4148 25.0688 72.0893 23.5195 80.0003 23.5195C87.9114 23.5195 95.5859 25.0688 102.811 28.1252C109.789 31.0767 116.057 35.3024 121.439 40.6832C126.82 46.0649 131.045 52.3315 133.997 59.3106C137.053 66.5359 138.602 74.2104 138.602 82.1214C138.602 90.0325 137.053 97.7069 133.997 104.932C131.045 111.91 126.819 118.178 121.439 123.56C116.057 128.941 109.79 133.166 102.811 136.118C95.5859 139.174 87.9114 140.723 80.0003 140.723Z" fill="#D6D6D6"/>
      <path opacity="0.17" d="M79.9983 140.7C72.0949 140.7 64.4282 139.151 57.2096 136.099C50.2381 133.15 43.9764 128.929 38.6004 123.552C33.2245 118.176 29.0026 111.915 26.054 104.943C23.0005 97.7247 21.4531 90.0569 21.4531 82.1545C21.4531 74.2522 23.0015 66.5844 26.054 59.3658C29.0026 52.3944 33.2235 46.1327 38.6004 40.7567C43.9764 35.3807 50.2381 31.1588 57.2096 28.2102C64.4282 25.1568 72.0959 23.6094 79.9983 23.6094C87.9007 23.6094 95.5684 25.1577 102.787 28.2102C109.758 31.1588 116.02 35.3798 121.396 40.7567C126.772 46.1327 130.994 52.3944 133.943 59.3658C136.996 66.5844 138.543 74.2522 138.543 82.1545C138.543 90.0569 136.995 97.7247 133.943 104.943C130.994 111.915 126.773 118.176 121.396 123.552C116.02 128.928 109.758 133.15 102.787 136.099C95.5684 139.152 87.9007 140.7 79.9983 140.7Z" fill="#D9D8D8"/>
      <path opacity="0.16" d="M79.9972 140.676C72.1015 140.676 64.4415 139.13 57.2296 136.079C50.2649 133.133 44.0099 128.916 38.6388 123.545C33.2676 118.174 29.0505 111.919 26.1048 104.954C23.0542 97.7423 21.5078 90.0823 21.5078 82.1867C21.5078 74.291 23.0542 66.631 26.1048 59.4191C29.0505 52.4544 33.2676 46.1994 38.6388 40.8282C44.0099 35.4571 50.2649 31.24 57.2296 28.2942C64.4415 25.2437 72.1015 23.6973 79.9972 23.6973C87.8929 23.6973 95.5529 25.2437 102.765 28.2942C109.729 31.24 115.984 35.4571 121.356 40.8282C126.727 46.1994 130.944 52.4544 133.89 59.4191C136.94 66.631 138.487 74.291 138.487 82.1867C138.487 90.0823 136.94 97.7423 133.89 104.954C130.944 111.919 126.727 118.174 121.356 123.545C115.984 128.916 109.729 133.133 102.765 136.079C95.5529 139.13 87.8929 140.676 79.9972 140.676Z" fill="#DCDBDB"/>
      <path opacity="0.15" d="M80 140.65C72.1121 140.65 64.4597 139.105 57.2546 136.058C50.2966 133.115 44.0474 128.902 38.681 123.536C33.3147 118.169 29.1024 111.921 26.1586 104.962C23.1109 97.7571 21.5664 90.1048 21.5664 82.2168C21.5664 74.3289 23.1119 66.6765 26.1586 59.4714C29.1014 52.5134 33.3147 46.2642 38.681 40.8978C44.0474 35.5315 50.2956 31.3192 57.2546 28.3754C64.4597 25.3277 72.1121 23.7832 80 23.7832C87.888 23.7832 95.5403 25.3287 102.745 28.3754C109.703 31.3182 115.953 35.5315 121.319 40.8978C126.685 46.2642 130.899 52.5124 133.841 59.4714C136.889 66.6765 138.434 74.3289 138.434 82.2168C138.434 90.1048 136.888 97.7571 133.841 104.962C130.899 111.92 126.685 118.169 121.319 123.536C115.953 128.902 109.704 133.115 102.745 136.058C95.5403 139.106 87.888 140.65 80 140.65Z" fill="#DEDEDE"/>
      <path opacity="0.14" d="M79.998 140.627C72.1177 140.627 64.4721 139.083 57.2746 136.038C50.3234 133.099 44.08 128.889 38.7194 123.529C33.3588 118.168 29.1494 111.924 26.2094 104.973C23.1646 97.7758 21.6211 90.1302 21.6211 82.2499C21.6211 74.3697 23.1646 66.724 26.2094 59.5266C29.1494 52.5753 33.3588 46.3319 38.7194 40.9713C44.08 35.6107 50.3234 31.4013 57.2746 28.4614C64.4721 25.4166 72.1177 23.873 79.998 23.873C87.8782 23.873 95.5238 25.4166 102.721 28.4614C109.673 31.4013 115.916 35.6107 121.277 40.9713C126.637 46.3319 130.847 52.5753 133.787 59.5266C136.831 66.724 138.375 74.3697 138.375 82.2499C138.375 90.1302 136.831 97.7758 133.787 104.973C130.847 111.924 126.637 118.168 121.277 123.529C115.916 128.889 109.673 133.099 102.721 136.038C95.5238 139.083 87.8782 140.627 79.998 140.627Z" fill="#E1E1E1"/>
      <path opacity="0.12" d="M79.9969 140.603C72.1243 140.603 64.4864 139.061 57.2957 136.02C50.3511 133.083 44.1135 128.877 38.7577 123.521C33.4019 118.165 29.1973 111.929 26.2593 104.983C23.2174 97.7925 21.6758 90.1546 21.6758 82.282C21.6758 74.4095 23.2184 66.7715 26.2593 59.5808C29.1964 52.6363 33.4019 46.3986 38.7577 41.0429C44.1135 35.6871 50.3502 31.4825 57.2957 28.5445C64.4864 25.5026 72.1243 23.9609 79.9969 23.9609C87.8694 23.9609 95.5074 25.5035 102.698 28.5445C109.643 31.4815 115.88 35.6871 121.236 41.0429C126.592 46.3986 130.796 52.6353 133.734 59.5808C136.776 66.7715 138.318 74.4095 138.318 82.282C138.318 90.1546 136.775 97.7925 133.734 104.983C130.797 111.928 126.592 118.165 121.236 123.521C115.88 128.877 109.644 133.082 102.698 136.02C95.5074 139.061 87.8694 140.603 79.9969 140.603Z" fill="#E4E3E3"/>
      <path opacity="0.11" d="M79.9978 140.58C72.1329 140.58 64.5027 139.039 57.3187 136.001C50.3809 133.067 44.15 128.865 38.799 123.515C33.448 118.164 29.2473 111.934 26.3131 104.995C23.275 97.8112 21.7344 90.181 21.7344 82.3161C21.7344 74.4512 23.275 66.821 26.3131 59.637C29.2473 52.6992 33.449 46.4683 38.799 41.1173C44.15 35.7664 50.3809 31.5656 57.3187 28.6314C64.5027 25.5924 72.1329 24.0527 79.9978 24.0527C87.8626 24.0527 95.4929 25.5934 102.677 28.6314C109.615 31.5656 115.846 35.7673 121.197 41.1173C126.548 46.4683 130.748 52.6992 133.682 59.637C136.72 66.821 138.261 74.4512 138.261 82.3161C138.261 90.181 136.72 97.8112 133.682 104.995C130.748 111.933 126.547 118.164 121.197 123.515C115.846 128.866 109.616 133.067 102.677 136.001C95.4929 139.039 87.8626 140.58 79.9978 140.58Z" fill="#E7E6E6"/>
      <path opacity="0.1" d="M79.9976 140.554C72.1404 140.554 64.517 139.015 57.3397 135.979C50.4086 133.048 44.1835 128.851 38.8383 123.505C33.4931 118.159 29.2962 111.934 26.3639 105.003C23.3288 97.826 21.7891 90.2034 21.7891 82.3453C21.7891 74.4871 23.3278 66.8646 26.3639 59.6874C29.2952 52.7563 33.4921 46.5311 38.8383 41.1859C44.1835 35.8408 50.4086 31.6438 57.3397 28.7116C64.517 25.6764 72.1395 24.1367 79.9976 24.1367C87.8558 24.1367 95.4783 25.6755 102.656 28.7116C109.587 31.6429 115.812 35.8398 121.157 41.1859C126.502 46.5311 130.699 52.7563 133.631 59.6874C136.667 66.8646 138.206 74.4871 138.206 82.3453C138.206 90.2034 136.667 97.826 133.631 105.003C130.7 111.934 126.503 118.159 121.157 123.505C115.812 128.85 109.587 133.047 102.656 135.979C95.4783 139.014 87.8558 140.554 79.9976 140.554Z" fill="#E9E9E9"/>
      <path opacity="0.09" d="M79.9995 140.53C72.15 140.53 64.5342 138.992 57.3637 135.96C50.4393 133.031 44.22 128.839 38.8796 123.498C33.5392 118.158 29.3471 111.939 26.4177 105.014C23.3854 97.8446 21.8477 90.2288 21.8477 82.3784C21.8477 74.5279 23.3854 66.9131 26.4177 59.7426C29.3471 52.8183 33.5392 46.5989 38.8796 41.2585C44.22 35.9181 50.4384 31.726 57.3637 28.7966C64.5332 25.7643 72.149 24.2266 79.9995 24.2266C87.8499 24.2266 95.4648 25.7643 102.635 28.7966C109.561 31.726 115.779 35.9181 121.119 41.2585C126.46 46.5989 130.653 52.8173 133.581 59.7426C136.614 66.9121 138.151 74.5279 138.151 82.3784C138.151 90.2288 136.614 97.8437 133.581 105.014C130.652 111.939 126.46 118.158 121.119 123.498C115.779 128.839 109.561 133.032 102.635 135.96C95.4657 138.992 87.8499 140.53 79.9995 140.53Z" fill="#ECECEC"/>
      <path opacity="0.07" d="M79.9974 140.507C72.1547 140.507 64.5466 138.971 57.3837 135.94C50.4652 133.014 44.2525 128.826 38.9179 123.491C33.5833 118.156 29.3941 111.943 26.4686 105.025C23.4392 97.8624 21.9023 90.2543 21.9023 82.4115C21.9023 74.5687 23.4382 66.9606 26.4686 59.7978C29.395 52.8792 33.5833 46.6666 38.9179 41.332C44.2525 35.9974 50.4661 31.8081 57.3837 28.8826C64.5466 25.8532 72.1547 24.3164 79.9974 24.3164C87.8402 24.3164 95.4483 25.8523 102.611 28.8826C109.53 31.8091 115.742 35.9974 121.077 41.332C126.412 46.6666 130.601 52.8802 133.526 59.7978C136.556 66.9606 138.093 74.5687 138.093 82.4115C138.093 90.2543 136.557 97.8624 133.526 105.025C130.6 111.944 126.412 118.156 121.077 123.491C115.742 128.826 109.529 133.015 102.611 135.94C95.4483 138.97 87.8402 140.507 79.9974 140.507Z" fill="#EFEEEE"/>
      <path opacity="0.06" d="M79.9993 140.483C72.1642 140.483 64.5638 138.948 57.4077 135.922C50.4959 132.998 44.29 128.814 38.9602 123.484C33.6303 118.154 29.4459 111.947 26.5223 105.036C23.4958 97.8801 21.9609 90.2787 21.9609 82.4446C21.9609 74.6105 23.4958 67.0091 26.5223 59.853C29.4459 52.9412 33.6303 46.7353 38.9602 41.4055C44.29 36.0757 50.4969 31.8913 57.4077 28.9676C64.5638 25.9411 72.1652 24.4062 79.9993 24.4062C87.8334 24.4062 95.4348 25.9411 102.591 28.9676C109.503 31.8913 115.709 36.0757 121.038 41.4055C126.368 46.7353 130.553 52.9422 133.476 59.853C136.503 67.0091 138.038 74.6105 138.038 82.4446C138.038 90.2787 136.503 97.8801 133.476 105.036C130.553 111.948 126.368 118.154 121.038 123.484C115.709 128.814 109.502 132.998 102.591 135.922C95.4348 138.948 87.8334 140.483 79.9993 140.483Z" fill="#F1F1F1"/>
      <path opacity="0.05" d="M79.9972 140.459C72.1699 140.459 64.5762 138.926 57.4278 135.903C50.5227 132.982 44.3225 128.801 38.9975 123.477C33.6725 118.152 29.492 111.952 26.5722 105.047C23.5486 97.8978 22.0156 90.3041 22.0156 82.4777C22.0156 74.6513 23.5486 67.0567 26.5722 59.9082C29.4929 53.0032 33.6735 46.803 38.9975 41.478C44.3225 36.153 50.5227 31.9724 57.4278 29.0527C64.5771 26.0291 72.1708 24.4961 79.9972 24.4961C87.8236 24.4961 95.4183 26.0291 102.567 29.0527C109.472 31.9734 115.672 36.154 120.997 41.478C126.322 46.803 130.503 53.0032 133.422 59.9082C136.446 67.0576 137.979 74.6513 137.979 82.4777C137.979 90.3041 136.446 97.8988 133.422 105.047C130.502 111.952 126.321 118.152 120.997 123.477C115.672 128.802 109.472 132.983 102.567 135.903C95.4173 138.926 87.8236 140.459 79.9972 140.459Z" fill="#F4F4F4"/>
      <path opacity="0.04" d="M79.9971 140.434C72.1774 140.434 64.5914 138.902 57.4488 135.881C50.5504 132.963 44.3561 128.786 39.0368 123.467C33.7176 118.148 29.5409 111.953 26.6231 105.055C23.6023 97.9125 22.0703 90.3265 22.0703 82.5069C22.0703 74.6872 23.6023 67.1012 26.6231 59.9586C29.5409 53.0602 33.7176 46.8658 39.0368 41.5466C44.3561 36.2274 50.5514 32.0507 57.4488 29.1328C64.5914 26.1121 72.1774 24.5801 79.9971 24.5801C87.8168 24.5801 95.4028 26.1121 102.545 29.1328C109.444 32.0507 115.638 36.2274 120.957 41.5466C126.277 46.8658 130.453 53.0612 133.371 59.9586C136.392 67.1012 137.924 74.6872 137.924 82.5069C137.924 90.3265 136.392 97.9125 133.371 105.055C130.453 111.954 126.277 118.148 120.957 123.467C115.638 128.786 109.443 132.963 102.545 135.881C95.4028 138.902 87.8168 140.434 79.9971 140.434Z" fill="#F7F7F7"/>
      <path opacity="0.02" d="M79.999 140.41C72.187 140.41 64.6087 138.88 57.4728 135.862C50.5812 132.947 44.3925 128.775 39.0781 123.461C33.7637 118.146 29.5918 111.958 26.6768 105.066C23.659 97.9312 22.1289 90.352 22.1289 82.54C22.1289 74.728 23.659 67.1497 26.6768 60.0138C29.5918 53.1222 33.7637 46.9335 39.0781 41.6191C44.3925 36.3047 50.5812 32.1328 57.4728 29.2179C64.6077 26.2 72.187 24.6699 79.999 24.6699C87.8109 24.6699 95.3892 26.2 102.525 29.2179C109.417 32.1328 115.605 36.3047 120.92 41.6191C126.234 46.9335 130.407 53.1222 133.321 60.0138C136.339 67.1487 137.869 74.728 137.869 82.54C137.869 90.352 136.339 97.9302 133.321 105.066C130.406 111.958 126.234 118.146 120.92 123.461C115.605 128.775 109.417 132.948 102.525 135.862C95.3902 138.88 87.8109 140.41 79.999 140.41Z" fill="#FAF9F9"/>
      <path opacity="0.01" d="M79.9979 140.386C72.1936 140.386 64.622 138.857 57.4938 135.842C50.6089 132.93 44.4261 128.762 39.1174 123.453C33.8078 118.143 29.6397 111.961 26.7277 105.076C23.7127 97.9479 22.1836 90.3764 22.1836 82.5721C22.1836 74.7678 23.7127 67.1962 26.7277 60.068C29.6397 53.1831 33.8078 47.0003 39.1174 41.6916C44.427 36.382 50.6089 32.214 57.4938 29.3019C64.622 26.2869 72.1936 24.7578 79.9979 24.7578C87.8022 24.7578 95.3737 26.2869 102.502 29.3019C109.387 32.214 115.57 36.382 120.878 41.6916C126.188 47.0012 130.356 53.1831 133.268 60.068C136.283 67.1962 137.812 74.7678 137.812 82.5721C137.812 90.3764 136.283 97.9479 133.268 105.076C130.356 111.961 126.188 118.144 120.878 123.453C115.569 128.762 109.387 132.93 102.502 135.842C95.3737 138.857 87.8022 140.386 79.9979 140.386Z" fill="#FCFCFC"/>
    </g>
    <path d="M80.0006 132.056C72.9205 132.056 66.051 130.669 59.5844 127.934C53.3381 125.292 47.7294 121.511 42.9132 116.694C38.0969 111.877 34.3145 106.268 31.6727 100.022C28.9376 93.5548 27.5508 86.6862 27.5508 79.6061C27.5508 72.526 28.9376 65.6565 31.6727 59.1899C34.3145 52.9436 38.096 47.3349 42.9132 42.5186C47.7294 37.7024 53.3391 33.92 59.5844 31.2781C66.052 28.543 72.9205 27.1562 80.0006 27.1562C87.0807 27.1562 93.9503 28.543 100.417 31.2781C106.663 33.92 112.272 37.7014 117.088 42.5186C121.904 47.3349 125.687 52.9446 128.329 59.1899C131.064 65.6574 132.45 72.526 132.45 79.6061C132.45 86.6862 131.064 93.5557 128.329 100.022C125.687 106.269 121.905 111.877 117.088 116.694C112.272 121.51 106.662 125.292 100.417 127.934C93.9493 130.669 87.0807 132.056 80.0006 132.056Z" fill="url(#paint3_linear_2005_103555)"/>
    <path d="M80.0006 131.298C108.549 131.298 131.693 108.155 131.693 79.6061C131.693 51.0574 108.549 27.9141 80.0006 27.9141C51.4519 27.9141 28.3086 51.0574 28.3086 79.6061C28.3086 108.155 51.4519 131.298 80.0006 131.298Z" fill="#F5FBFD"/>
    <path d="M98.9609 112.195V99.9635H101.393V101.458H101.503C101.611 101.218 101.768 100.975 101.972 100.728C102.181 100.477 102.451 100.268 102.783 100.102C103.119 99.9326 103.536 99.8477 104.034 99.8477C104.683 99.8477 105.281 100.018 105.829 100.357C106.378 100.693 106.816 101.201 107.144 101.88C107.472 102.556 107.636 103.404 107.636 104.423C107.636 105.415 107.476 106.253 107.156 106.936C106.839 107.616 106.407 108.131 105.858 108.482C105.314 108.83 104.704 109.004 104.028 109.004C103.55 109.004 103.142 108.925 102.806 108.766C102.474 108.608 102.202 108.409 101.99 108.17C101.777 107.927 101.615 107.681 101.503 107.434H101.428V112.195H98.9609ZM101.376 104.411C101.376 104.94 101.449 105.402 101.596 105.795C101.743 106.189 101.955 106.496 102.233 106.716C102.511 106.932 102.849 107.04 103.247 107.04C103.648 107.04 103.988 106.93 104.266 106.71C104.544 106.486 104.754 106.178 104.897 105.784C105.044 105.386 105.117 104.929 105.117 104.411C105.117 103.898 105.046 103.446 104.903 103.056C104.76 102.666 104.55 102.361 104.272 102.141C103.994 101.921 103.652 101.811 103.247 101.811C102.845 101.811 102.505 101.917 102.227 102.129C101.953 102.342 101.743 102.643 101.596 103.033C101.449 103.423 101.376 103.882 101.376 104.411Z" fill="url(#paint4_linear_2005_103555)"/>
    <path d="M93.2684 109.033C92.3534 109.033 91.5658 108.847 90.9056 108.477C90.2492 108.102 89.7435 107.573 89.3883 106.89C89.0331 106.203 88.8555 105.39 88.8555 104.452C88.8555 103.537 89.0331 102.734 89.3883 102.043C89.7435 101.351 90.2435 100.813 90.8882 100.427C91.5368 100.041 92.2974 99.8477 93.17 99.8477C93.7568 99.8477 94.3032 99.9422 94.8089 100.131C95.3186 100.317 95.7626 100.597 96.1409 100.971C96.5232 101.346 96.8204 101.817 97.0328 102.384C97.2451 102.948 97.3513 103.608 97.3513 104.365V105.042H89.84V103.514H95.029C95.029 103.158 94.9518 102.844 94.7973 102.57C94.6429 102.295 94.4286 102.081 94.1545 101.927C93.8842 101.768 93.5696 101.689 93.2105 101.689C92.836 101.689 92.504 101.776 92.2144 101.95C91.9287 102.12 91.7048 102.349 91.5426 102.639C91.3805 102.925 91.2975 103.243 91.2936 103.595V105.048C91.2936 105.488 91.3747 105.869 91.5368 106.189C91.7029 106.51 91.9364 106.757 92.2376 106.93C92.5387 107.104 92.8959 107.191 93.309 107.191C93.5831 107.191 93.8341 107.152 94.0618 107.075C94.2896 106.998 94.4846 106.882 94.6468 106.728C94.8089 106.573 94.9325 106.384 95.0174 106.16L97.2992 106.311C97.1834 106.859 96.9459 107.338 96.5869 107.747C96.2317 108.152 95.7722 108.469 95.2085 108.697C94.6487 108.921 94.002 109.033 93.2684 109.033Z" fill="url(#paint5_linear_2005_103555)"/>
    <path d="M83.5223 109.033C82.6073 109.033 81.8197 108.847 81.1595 108.477C80.5031 108.102 79.9974 107.573 79.6422 106.89C79.287 106.203 79.1094 105.39 79.1094 104.452C79.1094 103.537 79.287 102.734 79.6422 102.043C79.9974 101.351 80.4974 100.813 81.1421 100.427C81.7907 100.041 82.5513 99.8477 83.4239 99.8477C84.0107 99.8477 84.5571 99.9422 85.0628 100.131C85.5725 100.317 86.0165 100.597 86.3948 100.971C86.7771 101.346 87.0743 101.817 87.2867 102.384C87.499 102.948 87.6052 103.608 87.6052 104.365V105.042H80.0939V103.514H85.2829C85.2829 103.158 85.2057 102.844 85.0513 102.57C84.8968 102.295 84.6825 102.081 84.4084 101.927C84.1382 101.768 83.8235 101.689 83.4644 101.689C83.0899 101.689 82.7579 101.776 82.4683 101.95C82.1826 102.12 81.9587 102.349 81.7965 102.639C81.6344 102.925 81.5514 103.243 81.5475 103.595V105.048C81.5475 105.488 81.6286 105.869 81.7907 106.189C81.9568 106.51 82.1903 106.757 82.4915 106.93C82.7926 107.104 83.1498 107.191 83.5629 107.191C83.837 107.191 84.088 107.152 84.3158 107.075C84.5435 106.998 84.7385 106.882 84.9007 106.728C85.0628 106.573 85.1864 106.384 85.2713 106.16L87.5531 106.311C87.4373 106.859 87.1998 107.338 86.8408 107.747C86.4856 108.152 86.0261 108.469 85.4624 108.697C84.9026 108.921 84.2559 109.033 83.5223 109.033Z" fill="url(#paint6_linear_2005_103555)"/>
    <path d="M67.5731 108.858L65.1523 99.9629H67.6484L69.0267 105.94H69.1078L70.544 99.9629H72.9938L74.4532 105.905H74.5285L75.8836 99.9629H78.3739L75.9589 108.858H73.347L71.8181 103.264H71.7081L70.1792 108.858H67.5731Z" fill="url(#paint7_linear_2005_103555)"/>
    <path d="M58.2045 108.859H54V96.998H58.2392C59.4322 96.998 60.4592 97.2355 61.3202 97.7104C62.1812 98.1814 62.8433 98.859 63.3066 99.7431C63.7738 100.627 64.0074 101.685 64.0074 102.917C64.0074 104.152 63.7738 105.214 63.3066 106.102C62.8433 106.99 62.1773 107.671 61.3086 108.146C60.4438 108.621 59.4091 108.859 58.2045 108.859ZM56.5076 106.71H58.1002C58.8415 106.71 59.4651 106.579 59.9708 106.316C60.4805 106.05 60.8627 105.639 61.1175 105.083C61.3762 104.523 61.5055 103.801 61.5055 102.917C61.5055 102.04 61.3762 101.324 61.1175 100.768C60.8627 100.212 60.4824 99.803 59.9766 99.5404C59.4708 99.2779 58.8473 99.1466 58.106 99.1466H56.5076V106.71Z" fill="url(#paint8_linear_2005_103555)"/>
    <path d="M78.9912 59.2507C81.4609 58.7689 81.9407 58.288 82.4226 55.8193C82.4351 55.7529 82.5303 55.7529 82.5437 55.8193C83.0256 58.289 83.5064 58.7689 85.9751 59.2507C86.0415 59.2632 86.0415 59.3584 85.9751 59.3719C83.5054 59.8537 83.0256 60.3345 82.5437 62.8033C82.5312 62.8696 82.436 62.8696 82.4226 62.8033C81.9407 60.3336 81.4599 59.8537 78.9912 59.3719C78.9248 59.3594 78.9248 59.2642 78.9912 59.2507Z" fill="url(#paint9_linear_2005_103555)"/>
    <path d="M57.7152 70.8207C61.362 70.11 62.066 69.407 62.7757 65.7601C62.794 65.6659 62.9287 65.6659 62.9469 65.7601C63.6576 69.407 64.3606 70.1109 68.0075 70.8207C68.1017 70.8389 68.1017 70.9736 68.0075 70.9919C64.3606 71.7026 63.6567 72.4056 62.9469 76.0524C62.9287 76.1466 62.794 76.1466 62.7757 76.0524C62.065 72.4056 61.362 71.7016 57.7152 70.9919C57.621 70.9736 57.621 70.8389 57.7152 70.8207Z" fill="url(#paint10_linear_2005_103555)"/>
    <path d="M56.4237 53.6261C64.4722 52.0143 66.1745 50.3121 67.7863 42.2635C67.8478 41.9538 68.2902 41.9538 68.3527 42.2635C69.9646 50.3121 71.6668 52.0143 79.7154 53.6261C80.025 53.6877 80.025 54.1301 79.7154 54.1926C71.6668 55.8044 69.9646 57.5066 68.3527 65.5552C68.2912 65.8649 67.8488 65.8649 67.7863 65.5552C66.1745 57.5066 64.4722 55.8044 56.4237 54.1926C56.114 54.131 56.114 53.6886 56.4237 53.6261Z" fill="url(#paint11_linear_2005_103555)"/>
    <path d="M72.5179 84.5513L70.6791 90.7476H65.4531C65.7945 89.732 73.0449 65.8142 73.4276 64.6621H80.3029L88.6871 90.7476H83.1073L81.13 84.5513H72.5179ZM80.0856 80.1524C78.4641 74.8659 77.3341 71.1325 76.7436 68.6975H76.7013C76.0695 71.598 74.8866 75.667 73.5248 80.1524H80.0856Z" fill="url(#paint12_linear_2005_103555)"/>
    <path d="M92.0195 64.6621H97.1406V69.2293H92.0195V64.6621ZM92.0195 72.251H97.1406V90.7485H92.0195V72.251Z" fill="url(#paint13_linear_2005_103555)"/>
  </g>
  <defs>
    <filter id="filter0_d_2005_103555" x="-7.52344" y="-7.52344" width="175.047" height="175.047" filterUnits="userSpaceOnUse" color-interpolation-filters="sRGB">
      <feFlood flood-opacity="0" result="BackgroundImageFix"/>
      <feColorMatrix in="SourceAlpha" type="matrix" values="0 0 0 0 0 0 0 0 0 0 0 0 0 0 0 0 0 0 127 0" result="hardAlpha"/>
      <feOffset/>
      <feGaussianBlur stdDeviation="12"/>
      <feComposite in2="hardAlpha" operator="out"/>
      <feColorMatrix type="matrix" values="0 0 0 0 0 0 0 0 0 0 0 0 0 0 0 0 0 0 0.25 0"/>
      <feBlend mode="normal" in2="BackgroundImageFix" result="effect1_dropShadow_2005_103555"/>
      <feBlend mode="normal" in="SourceGraphic" in2="effect1_dropShadow_2005_103555" result="shape"/>
    </filter>
    <linearGradient id="paint0_linear_2005_103555" x1="79.9996" y1="143.523" x2="79.9996" y2="16.4766" gradientUnits="userSpaceOnUse">
      <stop stop-color="#9FA1A3"/>
      <stop offset="0.5" stop-color="#E9EEF1"/>
      <stop offset="1" stop-color="#A7A9AC"/>
    </linearGradient>
    <linearGradient id="paint1_linear_2005_103555" x1="35.933" y1="35.933" x2="124.065" y2="124.065" gradientUnits="userSpaceOnUse">
      <stop offset="0.25" stop-color="#FCFCFC"/>
      <stop offset="0.85" stop-color="#CDCECE"/>
    </linearGradient>
    <linearGradient id="paint2_linear_2005_103555" x1="79.9986" y1="142.318" x2="79.9986" y2="17.6797" gradientUnits="userSpaceOnUse">
      <stop stop-color="#BA39B5"/>
      <stop offset="0.38" stop-color="#2F71DD"/>
      <stop offset="0.48" stop-color="#219CD9"/>
      <stop offset="0.58" stop-color="#15BFD6"/>
      <stop offset="0.69" stop-color="#0CDBD3"/>
      <stop offset="0.79" stop-color="#06EFD1"/>
      <stop offset="0.89" stop-color="#02FBD0"/>
      <stop offset="1" stop-color="#01FFD0"/>
    </linearGradient>
    <linearGradient id="paint3_linear_2005_103555" x1="80.0006" y1="132.056" x2="80.0006" y2="27.1553" gradientUnits="userSpaceOnUse">
      <stop stop-color="#96989A"/>
      <stop offset="0.64" stop-color="white"/>
    </linearGradient>
    <linearGradient id="paint4_linear_2005_103555" x1="103.297" y1="111.565" x2="103.297" y2="16.8401" gradientUnits="userSpaceOnUse">
      <stop stop-color="#BA39B5"/>
      <stop offset="0.38" stop-color="#2F71DD"/>
      <stop offset="0.48" stop-color="#219CD9"/>
      <stop offset="0.58" stop-color="#15BFD6"/>
      <stop offset="0.69" stop-color="#0CDBD3"/>
      <stop offset="0.79" stop-color="#06EFD1"/>
      <stop offset="0.89" stop-color="#02FBD0"/>
      <stop offset="1" stop-color="#01FFD0"/>
    </linearGradient>
    <linearGradient id="paint5_linear_2005_103555" x1="93.102" y1="108.564" x2="93.102" y2="38.0981" gradientUnits="userSpaceOnUse">
      <stop stop-color="#BA39B5"/>
      <stop offset="0.38" stop-color="#2F71DD"/>
      <stop offset="0.48" stop-color="#219CD9"/>
      <stop offset="0.58" stop-color="#15BFD6"/>
      <stop offset="0.69" stop-color="#0CDBD3"/>
      <stop offset="0.79" stop-color="#06EFD1"/>
      <stop offset="0.89" stop-color="#02FBD0"/>
      <stop offset="1" stop-color="#01FFD0"/>
    </linearGradient>
    <linearGradient id="paint6_linear_2005_103555" x1="83.3559" y1="108.564" x2="83.3559" y2="38.0981" gradientUnits="userSpaceOnUse">
      <stop stop-color="#BA39B5"/>
      <stop offset="0.38" stop-color="#2F71DD"/>
      <stop offset="0.48" stop-color="#219CD9"/>
      <stop offset="0.58" stop-color="#15BFD6"/>
      <stop offset="0.69" stop-color="#0CDBD3"/>
      <stop offset="0.79" stop-color="#06EFD1"/>
      <stop offset="0.89" stop-color="#02FBD0"/>
      <stop offset="1" stop-color="#01FFD0"/>
    </linearGradient>
    <linearGradient id="paint7_linear_2005_103555" x1="71.7609" y1="108.405" x2="71.7609" y2="40.1601" gradientUnits="userSpaceOnUse">
      <stop stop-color="#BA39B5"/>
      <stop offset="0.38" stop-color="#2F71DD"/>
      <stop offset="0.48" stop-color="#219CD9"/>
      <stop offset="0.58" stop-color="#15BFD6"/>
      <stop offset="0.69" stop-color="#0CDBD3"/>
      <stop offset="0.79" stop-color="#06EFD1"/>
      <stop offset="0.89" stop-color="#02FBD0"/>
      <stop offset="1" stop-color="#01FFD0"/>
    </linearGradient>
    <linearGradient id="paint8_linear_2005_103555" x1="59.002" y1="108.254" x2="59.002" y2="17.2609" gradientUnits="userSpaceOnUse">
      <stop stop-color="#BA39B5"/>
      <stop offset="0.38" stop-color="#2F71DD"/>
      <stop offset="0.48" stop-color="#219CD9"/>
      <stop offset="0.58" stop-color="#15BFD6"/>
      <stop offset="0.69" stop-color="#0CDBD3"/>
      <stop offset="0.79" stop-color="#06EFD1"/>
      <stop offset="0.89" stop-color="#02FBD0"/>
      <stop offset="1" stop-color="#01FFD0"/>
    </linearGradient>
    <linearGradient id="paint9_linear_2005_103555" x1="82.4832" y1="106.285" x2="82.4832" y2="45.1058" gradientUnits="userSpaceOnUse">
      <stop stop-color="#BA39B5"/>
      <stop offset="0.38" stop-color="#2F71DD"/>
      <stop offset="0.48" stop-color="#219CD9"/>
      <stop offset="0.58" stop-color="#15BFD6"/>
      <stop offset="0.69" stop-color="#0CDBD3"/>
      <stop offset="0.79" stop-color="#06EFD1"/>
      <stop offset="0.89" stop-color="#02FBD0"/>
      <stop offset="1" stop-color="#01FFD0"/>
    </linearGradient>
    <linearGradient id="paint10_linear_2005_103555" x1="62.8613" y1="106.285" x2="62.8613" y2="45.1054" gradientUnits="userSpaceOnUse">
      <stop stop-color="#BA39B5"/>
      <stop offset="0.38" stop-color="#2F71DD"/>
      <stop offset="0.48" stop-color="#219CD9"/>
      <stop offset="0.58" stop-color="#15BFD6"/>
      <stop offset="0.69" stop-color="#0CDBD3"/>
      <stop offset="0.79" stop-color="#06EFD1"/>
      <stop offset="0.89" stop-color="#02FBD0"/>
      <stop offset="1" stop-color="#01FFD0"/>
    </linearGradient>
    <linearGradient id="paint11_linear_2005_103555" x1="68.069" y1="106.286" x2="68.069" y2="45.1063" gradientUnits="userSpaceOnUse">
      <stop stop-color="#BA39B5"/>
      <stop offset="0.38" stop-color="#2F71DD"/>
      <stop offset="0.48" stop-color="#219CD9"/>
      <stop offset="0.58" stop-color="#15BFD6"/>
      <stop offset="0.69" stop-color="#0CDBD3"/>
      <stop offset="0.79" stop-color="#06EFD1"/>
      <stop offset="0.89" stop-color="#02FBD0"/>
      <stop offset="1" stop-color="#01FFD0"/>
    </linearGradient>
    <linearGradient id="paint12_linear_2005_103555" x1="77.0696" y1="106.285" x2="77.0696" y2="45.1057" gradientUnits="userSpaceOnUse">
      <stop stop-color="#BA39B5"/>
      <stop offset="0.38" stop-color="#2F71DD"/>
      <stop offset="0.48" stop-color="#219CD9"/>
      <stop offset="0.58" stop-color="#15BFD6"/>
      <stop offset="0.69" stop-color="#0CDBD3"/>
      <stop offset="0.79" stop-color="#06EFD1"/>
      <stop offset="0.89" stop-color="#02FBD0"/>
      <stop offset="1" stop-color="#01FFD0"/>
    </linearGradient>
    <linearGradient id="paint13_linear_2005_103555" x1="94.5806" y1="106.285" x2="94.5806" y2="45.1057" gradientUnits="userSpaceOnUse">
      <stop stop-color="#BA39B5"/>
      <stop offset="0.38" stop-color="#2F71DD"/>
      <stop offset="0.48" stop-color="#219CD9"/>
      <stop offset="0.58" stop-color="#15BFD6"/>
      <stop offset="0.69" stop-color="#0CDBD3"/>
      <stop offset="0.79" stop-color="#06EFD1"/>
      <stop offset="0.89" stop-color="#02FBD0"/>
      <stop offset="1" stop-color="#01FFD0"/>
    </linearGradient>
    <clipPath id="clip0_2005_103555">
      <rect width="160" height="160" fill="white"/>
    </clipPath>
  </defs>
</svg>