<svg width="16" height="16" viewBox="0 0 16 16" fill="none" xmlns="http://www.w3.org/2000/svg">
<g clip-path="url(#clip0_1214_4238)">
<path fill-rule="evenodd" clip-rule="evenodd" d="M3.26562 0.747582C3.48276 -0.244418 4.89648 -0.251275 5.12276 0.739582L5.13419 0.789868L5.15705 0.888153C5.29508 1.47542 5.60265 2.00918 6.04154 2.42307C6.48043 2.83697 7.03128 3.11276 7.62562 3.21615C8.65991 3.39558 8.65991 4.8813 7.62562 5.06072C7.02792 5.16469 6.47428 5.44299 6.03425 5.86064C5.59423 6.2783 5.28746 6.81668 5.15248 7.40815L5.12276 7.5373C4.89648 8.52815 3.48391 8.5213 3.26562 7.5293L3.24276 7.41844C3.11279 6.82499 2.80901 6.28369 2.37017 5.86358C1.93133 5.44346 1.37731 5.16357 0.778763 5.05958C-0.254379 4.87901 -0.254379 3.39787 0.778763 3.2173C1.37504 3.11357 1.92713 2.83525 2.36514 2.41759C2.80315 1.99992 3.10739 1.46168 3.23933 0.87101L3.25762 0.789868L3.26562 0.747582ZM12.157 4.13272C12.4737 3.99976 12.8229 3.96496 13.1595 4.03281C13.4962 4.10067 13.8047 4.26806 14.045 4.5133L14.0473 4.51444L15.4942 5.97387C15.6542 6.13315 15.7811 6.32247 15.8678 6.53095C15.9544 6.73943 15.999 6.96296 15.999 7.18872C15.999 7.41448 15.9544 7.63802 15.8678 7.8465C15.7811 8.05498 15.6542 8.2443 15.4942 8.40358L15.4919 8.40587L8.40962 15.5339C8.31428 15.63 8.18792 15.6891 8.05305 15.7007L4.62448 15.9979C4.54149 16.005 4.45794 15.9939 4.37968 15.9654C4.30143 15.9368 4.23036 15.8915 4.17146 15.8326C4.11256 15.7737 4.06725 15.7026 4.0387 15.6244C4.01015 15.5461 3.99906 15.4626 4.00619 15.3796L4.30333 11.951C4.31496 11.8161 4.37409 11.6898 4.47019 11.5944L11.5982 4.51215C11.7571 4.34999 11.9479 4.22102 12.157 4.13272Z" fill="white"/>
</g>
<defs>
<clipPath id="clip0_1214_4238">
<rect width="16" height="16" fill="white"/>
</clipPath>
</defs>
</svg>
