<svg width="16" height="16" viewBox="0 0 16 16" fill="none" xmlns="http://www.w3.org/2000/svg">
<path d="M7.91416 15.0882L4.48558 15.3854L4.78273 11.9568L11.9142 4.8711C12.0206 4.76224 12.1477 4.67575 12.288 4.6167C12.4283 4.55765 12.5791 4.52724 12.7313 4.52724C12.8835 4.52724 13.0342 4.55765 13.1746 4.6167C13.3149 4.67575 13.442 4.76224 13.5484 4.8711L14.9999 6.33395C15.1069 6.44027 15.1918 6.5667 15.2497 6.70596C15.3076 6.84521 15.3374 6.99455 15.3374 7.14538C15.3374 7.29621 15.3076 7.44555 15.2497 7.58481C15.1918 7.72406 15.1069 7.85049 14.9999 7.95681L7.91416 15.0882ZM0.961013 4.53967C0.559871 4.46995 0.559871 3.89395 0.961013 3.82424C1.67128 3.70062 2.32864 3.36829 2.8493 2.86962C3.36996 2.37094 3.73032 1.72852 3.88444 1.02424L3.90844 0.913381C3.9953 0.517953 4.55987 0.514524 4.6513 0.911095L4.67987 1.0391C4.83964 1.74024 5.20301 2.37855 5.72435 2.87386C6.24569 3.36917 6.90176 3.69941 7.61016 3.8231C8.01358 3.89167 8.01358 4.4711 7.61016 4.54195C6.9017 4.66535 6.24549 4.99533 5.72395 5.49044C5.20241 5.98555 4.83878 6.62372 4.67873 7.32481L4.64901 7.45395C4.55873 7.84938 3.99416 7.8471 3.9073 7.45052L3.88444 7.33967C3.73016 6.63508 3.36946 5.99243 2.84837 5.49372C2.32727 4.99502 1.66941 4.66287 0.958728 4.53967H0.961013Z" stroke="#677489" stroke-width="1.5" stroke-linecap="round" stroke-linejoin="round"/>
</svg>
