<svg width="758" height="773" viewBox="0 0 758 773" fill="none" xmlns="http://www.w3.org/2000/svg">
<path d="M746 386.5C746 593.553 581.468 761 379 761C176.532 761 12 593.553 12 386.5C12 179.447 176.532 12 379 12C581.468 12 746 179.447 746 386.5Z" fill="#182C55" stroke="white" stroke-width="24"/>
<path d="M212 266V466C212 499.137 238.863 526 272 526H457.772C485.512 526 508 503.512 508 475.772V452.083C533.018 473.153 572 455.525 572 422.137V309.863C572 276.475 533.018 258.847 508 279.917V256.228C508 228.488 485.512 206 457.772 206H272C238.863 206 212 232.863 212 266Z" stroke="white" stroke-width="40"/>
<path d="M289.934 346V386" stroke="white" stroke-width="40" stroke-linecap="round" stroke-linejoin="round"/>
<path d="M349.934 326L454.066 369L349.934 406" stroke="white" stroke-width="40" stroke-linecap="round" stroke-linejoin="round"/>
</svg>
