<svg width="29" height="29" viewBox="0 0 29 29" fill="none" xmlns="http://www.w3.org/2000/svg">
<path d="M3.8125 14.4998C9.15625 14.4998 14.5 9.15601 14.5 3.81226C14.5 9.15601 19.8438 14.4998 25.1875 14.4998C19.8438 14.4998 14.5 19.8435 14.5 25.1873C14.5 19.8435 9.15625 14.4998 3.8125 14.4998Z" stroke="#2A3241" stroke-width="1.71" stroke-linejoin="round"/>
<path d="M2.625 23.4063C3.61458 23.4063 5.59375 21.4271 5.59375 20.4375C5.59375 21.4271 7.57292 23.4063 8.5625 23.4063C7.57292 23.4063 5.59375 25.3854 5.59375 26.375C5.59375 25.3854 3.61458 23.4063 2.625 23.4063Z" stroke="#2A3241" stroke-width="1.71" stroke-linejoin="round"/>
<path d="M19.25 6.1875C20.4375 6.1875 22.8125 3.8125 22.8125 2.625C22.8125 3.8125 25.1875 6.1875 26.375 6.1875C25.1875 6.1875 22.8125 8.5625 22.8125 9.75C22.8125 8.5625 20.4375 6.1875 19.25 6.1875Z" stroke="#2A3241" stroke-width="1.71" stroke-linejoin="round"/>
</svg>
