<svg width="230" height="131" viewBox="0 0 230 131" fill="none" xmlns="http://www.w3.org/2000/svg">
<g clip-path="url(#clip0_9668_34982)">
<g filter="url(#filter0_d_9668_34982)">
<path d="M4 62.4C4 62.1791 4.17909 62 4.4 62H225.6C225.821 62 226 62.1791 226 62.4V68.6C226 68.8209 225.821 69 225.6 69H4.4C4.17908 69 4 68.8209 4 68.6V62.4Z" fill="#2748B7"/>
</g>
<g filter="url(#filter1_d_9668_34982)">
<path d="M27.5 61.5V14.5H30.5V61.5H27.5Z" fill="white" stroke="#2748B7"/>
<path d="M27.1992 61.7992V14.1992H30.7992V61.7992H27.1992Z" stroke="#2748B7" stroke-width="0.4"/>
</g>
<path d="M37.3 9.65C37.3 4.87274 33.4273 1 28.65 1C23.8727 1 20 4.87274 20 9.65C20 14.4273 23.8727 18.3 28.65 18.3C33.4273 18.3 37.3 14.4273 37.3 9.65Z" fill="#2748B7" stroke="white" stroke-width="0.7"/>
<g filter="url(#filter2_d_9668_34982)">
<path d="M64.5 116.5H61.5V69.5H64.5V116.5Z" fill="white" stroke="#2748B7"/>
<path d="M61.1992 69.1992V116.799H64.7992V69.1992H61.1992Z" stroke="#2748B7" stroke-width="0.4"/>
</g>
<path d="M71.6496 121.998C71.6496 126.776 67.7769 130.648 62.9996 130.648C58.2223 130.648 54.3496 126.776 54.3496 121.998C54.3496 117.221 58.2223 113.348 62.9996 113.348C67.7769 113.348 71.6496 117.221 71.6496 121.998Z" fill="#2748B7" stroke="white" stroke-width="0.7"/>
<g filter="url(#filter3_d_9668_34982)">
<path d="M163.5 116.5H160.5V69.5H163.5V116.5Z" fill="white" stroke="#2748B7"/>
<path d="M160.199 69.1992V116.799H163.799V69.1992H160.199Z" stroke="#2748B7" stroke-width="0.4"/>
</g>
<path d="M170.65 121.998C170.65 126.776 166.777 130.648 162 130.648C157.222 130.648 153.35 126.776 153.35 121.998C153.35 117.221 157.222 113.348 162 113.348C166.777 113.348 170.65 117.221 170.65 121.998Z" fill="#2748B7" stroke="white" stroke-width="0.7"/>
<g filter="url(#filter4_d_9668_34982)">
<path d="M113.5 61.5V14.5H116.5V61.5H113.5Z" fill="white" stroke="#2748B7"/>
<path d="M113.199 61.7992V14.1992H116.799V61.7992H113.199Z" stroke="#2748B7" stroke-width="0.4"/>
</g>
<path d="M123.65 9.00156C123.65 4.2243 119.777 0.351562 115 0.351562C110.222 0.351562 106.35 4.2243 106.35 9.00156C106.35 13.7788 110.222 17.6516 115 17.6516C119.777 17.6516 123.65 13.7788 123.65 9.00156Z" fill="#2748B7" stroke="white" stroke-width="0.7"/>
<g filter="url(#filter5_d_9668_34982)">
<path d="M191.5 61.5V14.5H194.5V61.5H191.5Z" fill="white" stroke="#2748B7"/>
<path d="M191.199 61.7992V14.1992H194.799V61.7992H191.199Z" stroke="#2748B7" stroke-width="0.4"/>
</g>
<path d="M201.65 9.00156C201.65 4.2243 197.777 0.351562 193 0.351562C188.222 0.351562 184.35 4.2243 184.35 9.00156C184.35 13.7788 188.222 17.6516 193 17.6516C197.777 17.6516 201.65 13.7788 201.65 9.00156Z" fill="#2748B7" stroke="white" stroke-width="0.7"/>
<mask id="mask0_9668_34982" style="mask-type:luminance" maskUnits="userSpaceOnUse" x="22" y="3" width="13" height="13">
<path d="M35 3H22V16H35V3Z" fill="white"/>
</mask>
<g mask="url(#mask0_9668_34982)">
<path d="M23.4082 9.50182C23.4082 6.69131 25.6894 4.41016 28.4999 4.41016C31.3104 4.41016 33.5916 6.69131 33.5916 9.50182C33.5916 12.3124 31.3104 14.5935 28.4999 14.5935C25.6894 14.5935 23.4082 12.3124 23.4082 9.50182ZM30.9373 10.4118C31.3389 10.4118 31.6686 10.0821 31.6686 9.68057V7.06432C31.6686 6.66274 31.3389 6.33307 30.9373 6.33307H28.3211C27.9195 6.33307 27.5899 6.66274 27.5899 7.06432C27.5899 7.4659 27.9195 7.79557 28.3211 7.79557H29.1723L25.5455 11.4224C25.2615 11.7064 25.2615 12.1722 25.5455 12.4562C25.6909 12.6016 25.8779 12.6706 26.0624 12.6706C26.2468 12.6706 26.4339 12.6016 26.5793 12.4562L30.2061 8.82936V9.68057C30.2061 10.0821 30.5358 10.4118 30.9373 10.4118Z" fill="#F0F6FF" stroke="#F0F6FF"/>
</g>
<mask id="mask1_9668_34982" style="mask-type:luminance" maskUnits="userSpaceOnUse" x="56" y="115" width="13" height="13">
<path d="M69 115H56V128H69V115Z" fill="white"/>
</mask>
<g mask="url(#mask1_9668_34982)">
<path d="M60.8737 126.915H64.1237C66.832 126.915 67.9154 125.832 67.9154 123.124V119.874C67.9154 117.165 66.832 116.082 64.1237 116.082H60.8737C58.1653 116.082 57.082 117.165 57.082 119.874V123.124C57.082 125.832 58.1653 126.915 60.8737 126.915Z" stroke="#F0F6FF" stroke-width="1.5" stroke-linecap="round" stroke-linejoin="round"/>
<path d="M57.0977 119.605H67.9148" stroke="#F0F6FF" stroke-width="1.5" stroke-linecap="round" stroke-linejoin="round"/>
<path d="M57.0977 123.395H67.9148" stroke="#F0F6FF" stroke-width="1.5" stroke-linecap="round" stroke-linejoin="round"/>
<path d="M60.6094 126.908V116.086" stroke="#F0F6FF" stroke-width="1.5" stroke-linecap="round" stroke-linejoin="round"/>
<path d="M64.4004 126.908V116.086" stroke="#F0F6FF" stroke-width="1.5" stroke-linecap="round" stroke-linejoin="round"/>
</g>
</g>
<defs>
<filter id="filter0_d_9668_34982" x="0" y="62" width="230" height="15" filterUnits="userSpaceOnUse" color-interpolation-filters="sRGB">
<feFlood flood-opacity="0" result="BackgroundImageFix"/>
<feColorMatrix in="SourceAlpha" type="matrix" values="0 0 0 0 0 0 0 0 0 0 0 0 0 0 0 0 0 0 127 0" result="hardAlpha"/>
<feOffset dy="4"/>
<feGaussianBlur stdDeviation="2"/>
<feComposite in2="hardAlpha" operator="out"/>
<feColorMatrix type="matrix" values="0 0 0 0 0 0 0 0 0 0 0 0 0 0 0 0 0 0 0.25 0"/>
<feBlend mode="normal" in2="BackgroundImageFix" result="effect1_dropShadow_9668_34982"/>
<feBlend mode="normal" in="SourceGraphic" in2="effect1_dropShadow_9668_34982" result="shape"/>
</filter>
<filter id="filter1_d_9668_34982" x="23" y="14" width="12" height="56" filterUnits="userSpaceOnUse" color-interpolation-filters="sRGB">
<feFlood flood-opacity="0" result="BackgroundImageFix"/>
<feColorMatrix in="SourceAlpha" type="matrix" values="0 0 0 0 0 0 0 0 0 0 0 0 0 0 0 0 0 0 127 0" result="hardAlpha"/>
<feOffset dy="4"/>
<feGaussianBlur stdDeviation="2"/>
<feComposite in2="hardAlpha" operator="out"/>
<feColorMatrix type="matrix" values="0 0 0 0 0 0 0 0 0 0 0 0 0 0 0 0 0 0 0.25 0"/>
<feBlend mode="normal" in2="BackgroundImageFix" result="effect1_dropShadow_9668_34982"/>
<feBlend mode="normal" in="SourceGraphic" in2="effect1_dropShadow_9668_34982" result="shape"/>
</filter>
<filter id="filter2_d_9668_34982" x="57" y="69" width="12" height="56" filterUnits="userSpaceOnUse" color-interpolation-filters="sRGB">
<feFlood flood-opacity="0" result="BackgroundImageFix"/>
<feColorMatrix in="SourceAlpha" type="matrix" values="0 0 0 0 0 0 0 0 0 0 0 0 0 0 0 0 0 0 127 0" result="hardAlpha"/>
<feOffset dy="4"/>
<feGaussianBlur stdDeviation="2"/>
<feComposite in2="hardAlpha" operator="out"/>
<feColorMatrix type="matrix" values="0 0 0 0 0 0 0 0 0 0 0 0 0 0 0 0 0 0 0.25 0"/>
<feBlend mode="normal" in2="BackgroundImageFix" result="effect1_dropShadow_9668_34982"/>
<feBlend mode="normal" in="SourceGraphic" in2="effect1_dropShadow_9668_34982" result="shape"/>
</filter>
<filter id="filter3_d_9668_34982" x="156" y="69" width="12" height="56" filterUnits="userSpaceOnUse" color-interpolation-filters="sRGB">
<feFlood flood-opacity="0" result="BackgroundImageFix"/>
<feColorMatrix in="SourceAlpha" type="matrix" values="0 0 0 0 0 0 0 0 0 0 0 0 0 0 0 0 0 0 127 0" result="hardAlpha"/>
<feOffset dy="4"/>
<feGaussianBlur stdDeviation="2"/>
<feComposite in2="hardAlpha" operator="out"/>
<feColorMatrix type="matrix" values="0 0 0 0 0 0 0 0 0 0 0 0 0 0 0 0 0 0 0.25 0"/>
<feBlend mode="normal" in2="BackgroundImageFix" result="effect1_dropShadow_9668_34982"/>
<feBlend mode="normal" in="SourceGraphic" in2="effect1_dropShadow_9668_34982" result="shape"/>
</filter>
<filter id="filter4_d_9668_34982" x="109" y="14" width="12" height="56" filterUnits="userSpaceOnUse" color-interpolation-filters="sRGB">
<feFlood flood-opacity="0" result="BackgroundImageFix"/>
<feColorMatrix in="SourceAlpha" type="matrix" values="0 0 0 0 0 0 0 0 0 0 0 0 0 0 0 0 0 0 127 0" result="hardAlpha"/>
<feOffset dy="4"/>
<feGaussianBlur stdDeviation="2"/>
<feComposite in2="hardAlpha" operator="out"/>
<feColorMatrix type="matrix" values="0 0 0 0 0 0 0 0 0 0 0 0 0 0 0 0 0 0 0.25 0"/>
<feBlend mode="normal" in2="BackgroundImageFix" result="effect1_dropShadow_9668_34982"/>
<feBlend mode="normal" in="SourceGraphic" in2="effect1_dropShadow_9668_34982" result="shape"/>
</filter>
<filter id="filter5_d_9668_34982" x="187" y="14" width="12" height="56" filterUnits="userSpaceOnUse" color-interpolation-filters="sRGB">
<feFlood flood-opacity="0" result="BackgroundImageFix"/>
<feColorMatrix in="SourceAlpha" type="matrix" values="0 0 0 0 0 0 0 0 0 0 0 0 0 0 0 0 0 0 127 0" result="hardAlpha"/>
<feOffset dy="4"/>
<feGaussianBlur stdDeviation="2"/>
<feComposite in2="hardAlpha" operator="out"/>
<feColorMatrix type="matrix" values="0 0 0 0 0 0 0 0 0 0 0 0 0 0 0 0 0 0 0.25 0"/>
<feBlend mode="normal" in2="BackgroundImageFix" result="effect1_dropShadow_9668_34982"/>
<feBlend mode="normal" in="SourceGraphic" in2="effect1_dropShadow_9668_34982" result="shape"/>
</filter>
<clipPath id="clip0_9668_34982">
<rect width="230" height="131" fill="white"/>
</clipPath>
</defs>
</svg>
