<svg id="SvgjsSvg1001" width="288" height="288" xmlns="http://www.w3.org/2000/svg" version="1.1" xmlns:xlink="http://www.w3.org/1999/xlink" xmlns:svgjs="http://svgjs.com/svgjs"><defs id="SvgjsDefs1002"></defs><g id="SvgjsG1008"><svg xmlns="http://www.w3.org/2000/svg" fill="none" viewBox="0 0 20 20" width="288" height="288"><path stroke="#64748b" stroke-linecap="round" stroke-linejoin="round" stroke-width="1.5" d="M13.4375 10.9375L16.875 7.5M9.0625 8.4375L11.5625 10.9375M3.125 12.5L7.1875 8.4375M17.8125 7.5C18.3303 7.5 18.75 7.08027 18.75 6.5625 18.75 6.04473 18.3303 5.625 17.8125 5.625 17.2947 5.625 16.875 6.04473 16.875 6.5625 16.875 7.08027 17.2947 7.5 17.8125 7.5zM12.5 12.8125C13.0178 12.8125 13.4375 12.3928 13.4375 11.875 13.4375 11.3572 13.0178 10.9375 12.5 10.9375 11.9822 10.9375 11.5625 11.3572 11.5625 11.875 11.5625 12.3928 11.9822 12.8125 12.5 12.8125zM8.125 8.4375C8.64277 8.4375 9.0625 8.01777 9.0625 7.5 9.0625 6.98223 8.64277 6.5625 8.125 6.5625 7.60723 6.5625 7.1875 6.98223 7.1875 7.5 7.1875 8.01777 7.60723 8.4375 8.125 8.4375zM2.1875 14.375C2.70527 14.375 3.125 13.9553 3.125 13.4375 3.125 12.9197 2.70527 12.5 2.1875 12.5 1.66973 12.5 1.25 12.9197 1.25 13.4375 1.25 13.9553 1.66973 14.375 2.1875 14.375z" class="colorStrokefff svgStroke"></path></svg></g></svg>