<svg width="421" height="132" viewBox="0 0 421 132" fill="none" xmlns="http://www.w3.org/2000/svg">
<rect x="1" y="1" width="371" height="84" stroke="#6863FB" stroke-width="2"/>
<g opacity="0.3" filter="url(#filter0_f_2539_57710)">
<mask id="mask0_2539_57710" style="mask-type:alpha" maskUnits="userSpaceOnUse" x="371" y="82" width="39" height="39">
<path d="M374.5 87.8253C374.867 87.5494 375.264 87.3672 375.656 87.2938L375.824 87.269L375.863 87.2687L375.942 87.2582L376.005 87.2489L376.063 87.2432L376.068 87.2407L376.173 87.2261L377.098 87.1315L377.108 87.1297L380.491 86.7551L380.492 86.756C387.407 85.9999 394.323 85.2371 401.24 84.4693L401.241 84.4698L404.768 84.0745L404.773 84.0744L405.81 83.9542L405.822 83.953L406.09 83.9186L406.09 83.9196L406.185 83.9096L406.426 83.8849L406.455 83.8711C406.579 83.8609 406.699 83.8669 406.814 83.8886C406.909 83.9172 406.999 83.955 407.083 84.0039L407.109 84.0191L407.137 84.0328L407.167 84.0487C407.281 84.1066 407.375 84.1923 407.446 84.2989C407.516 84.4057 407.563 84.5329 407.584 84.6719C407.605 84.8107 407.6 84.9618 407.569 85.1168C407.538 85.272 407.48 85.4297 407.398 85.5811L407.398 85.5821C407.34 85.6886 407.254 85.8073 407.139 85.9383C407.022 86.0718 406.907 86.1819 406.768 86.3148L406.767 86.3152L406.665 86.4112C404.352 88.5284 402.033 90.6361 399.707 92.7324L399.704 92.7351L395.121 96.8797L393.657 98.2026L393.018 98.7263L392.852 99.5925L392.849 99.6085L392.841 99.6505L392.835 99.6917L392.54 101.637L392.54 101.638L391.642 107.589L390.267 116.695L390.254 116.776C390.21 117.069 390.186 117.223 390.151 117.356C390.116 117.485 390.063 117.615 389.993 117.739L389.96 117.798L389.931 117.858C389.819 118.085 389.654 118.293 389.455 118.452C389.255 118.611 389.033 118.711 388.818 118.738C388.602 118.765 388.407 118.718 388.254 118.611C388.101 118.504 387.995 118.342 387.944 118.147L387.899 117.975L387.82 117.83L387.782 117.76L387.78 117.756L387.646 117.513L387.642 117.505L387.158 116.637C383.285 109.701 379.411 102.766 375.536 95.8315L375.536 95.8306L373.902 92.9133L373.901 92.9137L373.448 92.1007L373.445 92.0948L373.329 91.8902L373.303 91.8426L373.295 91.8287L373.287 91.8138C373.086 91.4491 372.995 90.9983 373.025 90.5116C373.055 90.0245 373.205 89.5143 373.464 89.0388C373.723 88.5628 374.081 88.1406 374.5 87.8253Z" fill="#211F54" stroke="white" stroke-width="3.28702"/>
</mask>
<g mask="url(#mask0_2539_57710)">
<rect width="853.131" height="833.245" transform="matrix(0.911369 -0.166356 -0.0958911 1.06742 354.723 -294.762)" fill="#001A56"/>
</g>
</g>
<path d="M374.752 81.1397C375.633 80.4764 376.594 80.0631 377.536 79.9328L377.661 79.901L377.802 79.8993L377.973 79.8757L377.995 79.8724L378.017 79.8695L378.953 79.7746L382.339 79.3987L382.341 79.3989C389.254 78.6429 396.168 77.8807 403.083 77.1131L406.606 76.7189L407.633 76.6005L407.926 76.5635L407.938 76.5628L407.95 76.5612L407.984 76.5577C408.427 76.4788 408.861 76.4722 409.274 76.5398L409.455 76.5747L409.485 76.581L409.514 76.5891C409.77 76.6606 410.013 76.7622 410.242 76.8906L410.272 76.9055C410.71 77.1281 411.084 77.465 411.371 77.8984C411.658 78.3318 411.852 78.8527 411.939 79.4311C412.026 80.0093 412.005 80.6317 411.878 81.2617C411.768 81.8129 411.579 82.3597 411.321 82.8777L411.206 83.0981C410.656 84.1084 409.913 84.7871 409.667 85.0216L409.557 85.1281L409.541 85.1428L409.524 85.158C407.196 87.2891 404.86 89.4089 402.519 91.5191L402.52 91.5196L397.937 95.6653L397.937 95.6657L397.055 96.462L396.886 97.5689L396.887 97.5695L395.989 103.522L394.627 112.536L394.625 112.561L394.612 112.641C394.575 112.884 394.512 113.342 394.392 113.792L394.391 113.795C394.25 114.318 394.04 114.831 393.77 115.313L393.769 115.312C393.341 116.138 392.753 116.864 392.069 117.41C391.352 117.981 390.558 118.337 389.781 118.434C389.003 118.53 388.27 118.365 387.674 117.949C387.128 117.567 386.721 116.988 386.494 116.273L386.388 116.082L386.388 116.081L385.908 115.223L385.908 115.222C382.035 108.286 378.162 101.352 374.287 94.4179L372.749 91.6695L372.744 91.6739L372.088 90.4867L371.103 89.2548L371.507 88.8938C371.411 88.391 371.377 87.856 371.411 87.3C371.482 86.144 371.837 84.9546 372.429 83.867C373.021 82.7797 373.827 81.836 374.752 81.1397Z" fill="#211F54" stroke="white" stroke-width="3.28702"/>
<mask id="mask1_2539_57710" style="mask-type:alpha" maskUnits="userSpaceOnUse" x="372" y="78" width="39" height="39">
<path d="M375.887 83.9972C376.254 83.7212 376.651 83.539 377.043 83.4656L377.21 83.4409L377.25 83.4406L377.329 83.43L377.392 83.4208L377.449 83.4151L377.455 83.4126L377.559 83.398L378.484 83.3033L378.495 83.3016L381.878 82.927L381.878 82.9279C388.794 82.1718 395.71 81.409 402.627 80.6412L402.628 80.6417L406.155 80.2464L406.16 80.2463L407.197 80.1261L407.208 80.1249L407.476 80.0905L407.476 80.0915L407.571 80.0815L407.812 80.0568L407.841 80.043C407.966 80.0328 408.086 80.0388 408.2 80.0605C408.295 80.0891 408.386 80.1269 408.469 80.1758L408.496 80.1909L408.524 80.2047L408.553 80.2206C408.667 80.2785 408.762 80.3642 408.832 80.4708C408.903 80.5775 408.95 80.7047 408.971 80.8437C408.992 80.9826 408.987 81.1337 408.956 81.2887C408.924 81.4438 408.867 81.6016 408.785 81.753L408.785 81.754C408.727 81.8605 408.641 81.9791 408.526 82.1102C408.408 82.2437 408.294 82.3538 408.154 82.4866L408.153 82.4871L408.052 82.5831C405.738 84.7003 403.419 86.808 401.094 88.9043L401.091 88.907L396.507 93.0516L395.044 94.3745L394.404 94.8981L394.239 95.7643L394.236 95.7804L394.228 95.8224L394.222 95.8636L393.927 97.8091L393.927 97.8101L393.029 103.761L391.653 112.867L391.641 112.948C391.596 113.241 391.573 113.395 391.537 113.528C391.503 113.657 391.45 113.787 391.38 113.911L391.347 113.969L391.317 114.03C391.205 114.257 391.041 114.465 390.842 114.624C390.642 114.783 390.42 114.883 390.204 114.91C389.989 114.936 389.794 114.889 389.641 114.782C389.488 114.676 389.382 114.513 389.331 114.319L389.286 114.147L389.206 114.002L389.169 113.932L389.167 113.928L389.033 113.685L389.029 113.677L388.545 112.809C384.672 105.873 380.798 98.9376 376.923 92.0034L376.923 92.0024L375.289 89.0852L375.288 89.0856L374.835 88.2726L374.832 88.2667L374.716 88.0621L374.69 88.0145L374.682 88.0006L374.674 87.9857C374.472 87.621 374.382 87.1702 374.412 86.6835C374.442 86.1963 374.592 85.6861 374.851 85.2107C375.11 84.7347 375.468 84.3125 375.887 83.9972Z" fill="#211F54" stroke="white" stroke-width="3.28702"/>
</mask>
<g mask="url(#mask1_2539_57710)">
<rect width="853.131" height="833.245" transform="matrix(0.911369 -0.166356 -0.0958911 1.06742 356.104 -298.586)" fill="#6863FB"/>
</g>
<defs>
<filter id="filter0_f_2539_57710" x="360.483" y="71.0608" width="59.6519" height="60.4878" filterUnits="userSpaceOnUse" color-interpolation-filters="sRGB">
<feFlood flood-opacity="0" result="BackgroundImageFix"/>
<feBlend mode="normal" in="SourceGraphic" in2="BackgroundImageFix" result="shape"/>
<feGaussianBlur stdDeviation="5.51648" result="effect1_foregroundBlur_2539_57710"/>
</filter>
</defs>
</svg>
