<svg width="27" height="27" viewBox="0 0 27 27" fill="none" xmlns="http://www.w3.org/2000/svg">
<path d="M0 27H10.0623C11.0027 27 11.66 26.4466 11.4787 25.7607C11.3278 25.1898 9.82258 24.3985 9.94426 22.3525C10.0659 20.3064 11.9953 19.2541 13.5 19.2541C15.0047 19.2541 16.9341 20.3064 17.0557 22.3525C17.1774 24.3985 15.6722 25.1898 15.5213 25.7607C15.34 26.4466 15.9826 27 16.923 27H27V16.9082C27 15.9678 26.4466 15.34 25.7607 15.5213C25.1898 15.6722 24.3985 17.1774 22.3525 17.0557C20.3064 16.9341 19.2541 15.0047 19.2541 13.5C19.2541 11.9953 20.3064 10.0512 22.3525 9.92951C24.3985 9.80783 25.1898 11.313 25.7607 11.4639C26.4466 11.6453 27 11.0027 27 10.0623V0H16.923C15.9826 0 15.34 0.538603 15.5213 1.22459C15.6722 1.79549 17.1774 2.58674 17.0557 4.63279C16.9341 6.67883 15.0047 7.73115 13.5 7.73115C11.9953 7.73115 10.0659 6.67883 9.94426 4.63279C9.82258 2.58674 11.3278 1.79549 11.4787 1.22459C11.66 0.538603 11.0027 0 10.0623 0H0V27Z" fill="#3E50F7"/>
</svg>
