<svg width="27" height="27" viewBox="0 0 27 27" fill="none" xmlns="http://www.w3.org/2000/svg">
<path d="M27 27H16.9377C15.9973 27 15.34 26.4466 15.5213 25.7607C15.6722 25.1898 17.1774 24.3985 17.0557 22.3525C16.9341 20.3064 15.0047 19.2541 13.5 19.2541C11.9953 19.2541 10.0659 20.3064 9.94426 22.3525C9.82258 24.3985 11.3278 25.1898 11.4787 25.7607C11.66 26.4466 11.0174 27 10.077 27H0V16.9082C0 15.9678 0.553358 15.34 1.23935 15.5213C1.81024 15.6722 2.60149 17.1774 4.64754 17.0557C6.69359 16.9341 7.7459 15.0047 7.7459 13.5C7.7459 11.9953 6.69359 10.0512 4.64754 9.92951C2.60149 9.80783 1.81024 11.313 1.23935 11.4639C0.553358 11.6453 0 11.0027 0 10.0623V0H10.077C11.0174 0 11.66 0.538603 11.4787 1.22459C11.3278 1.79549 21.3783 0.953953 21.5 3C21.6217 5.04605 14.1894 1.53104 15.6942 1.53104C17.1989 1.53104 15.8783 5.04605 16 3C16.1217 0.953953 15.6722 1.79549 15.5213 1.22459C15.34 0.538603 15.9973 0 16.9377 0H27V27Z" fill="#3E50F7"/>
</svg>
