<svg width="18" height="22" viewBox="0 0 18 22" fill="none" xmlns="http://www.w3.org/2000/svg">
<path d="M13.5001 20.75C13.5001 20.9489 13.4211 21.1396 13.2805 21.2803C13.1398 21.4209 12.949 21.5 12.7501 21.5H5.25012C5.05121 21.5 4.86045 21.4209 4.71979 21.2803C4.57914 21.1396 4.50012 20.9489 4.50012 20.75C4.50012 20.551 4.57914 20.3603 4.71979 20.2196C4.86045 20.079 5.05121 20 5.25012 20H12.7501C12.949 20 13.1398 20.079 13.2805 20.2196C13.4211 20.3603 13.5001 20.551 13.5001 20.75ZM17.2501 8.74995C17.2534 10.0002 16.9709 11.2347 16.4243 12.3592C15.8778 13.4837 15.0815 14.4685 14.0964 15.2384C13.9122 15.3796 13.7627 15.561 13.6593 15.7688C13.556 15.9767 13.5015 16.2054 13.5001 16.4375V17C13.5001 17.3978 13.3421 17.7793 13.0608 18.0606C12.7795 18.3419 12.3979 18.5 12.0001 18.5H6.00012C5.6023 18.5 5.22077 18.3419 4.93946 18.0606C4.65816 17.7793 4.50012 17.3978 4.50012 17V16.4375C4.49997 16.2081 4.44724 15.9819 4.34599 15.7762C4.24474 15.5704 4.09766 15.3906 3.91606 15.2506C2.93337 14.4852 2.13767 13.5064 1.58916 12.3881C1.04066 11.2698 0.753744 10.0414 0.750123 8.79589C0.725748 4.32777 4.337 0.606828 8.80137 0.499953C9.90139 0.473445 10.9956 0.667253 12.0196 1.06997C13.0436 1.47269 13.9767 2.07617 14.7639 2.84491C15.5512 3.61365 16.1767 4.53211 16.6037 5.54622C17.0306 6.56034 17.2504 7.64962 17.2501 8.74995ZM12.5307 8.96933C12.4611 8.8996 12.3784 8.84428 12.2873 8.80653C12.1963 8.76879 12.0987 8.74936 12.0001 8.74936C11.9016 8.74936 11.804 8.76879 11.7129 8.80653C11.6219 8.84428 11.5392 8.8996 11.4695 8.96933L9.00012 11.4396L6.53075 8.96933C6.39002 8.8286 6.19915 8.74954 6.00012 8.74954C5.8011 8.74954 5.61023 8.8286 5.4695 8.96933C5.32877 9.11006 5.24971 9.30093 5.24971 9.49995C5.24971 9.69898 5.32877 9.88985 5.4695 10.0306L8.25012 12.8103V16.25C8.25012 16.4489 8.32914 16.6396 8.46979 16.7803C8.61045 16.9209 8.80121 17 9.00012 17C9.19904 17 9.3898 16.9209 9.53045 16.7803C9.67111 16.6396 9.75012 16.4489 9.75012 16.25V12.8103L12.5307 10.0306C12.6005 9.96092 12.6558 9.87821 12.6935 9.78716C12.7313 9.69611 12.7507 9.59852 12.7507 9.49995C12.7507 9.40139 12.7313 9.3038 12.6935 9.21275C12.6558 9.1217 12.6005 9.03898 12.5307 8.96933Z" fill="#2563EB"/>
</svg>
