<svg width="16" height="17" viewBox="0 0 16 17" fill="none" xmlns="http://www.w3.org/2000/svg">
<path d="M1.99902 7.8335L2.10094 9.98477C2.21045 12.2792 2.2652 13.4264 3.03825 14.13C3.81131 14.8335 5.01713 14.8335 7.42877 14.8335H8.56927C10.9809 14.8335 12.1867 14.8335 12.9598 14.13C13.7328 13.4264 13.7876 12.2792 13.8971 9.98477L13.999 7.8335" stroke="#141B34" stroke-linecap="round" stroke-linejoin="round"/>
<path d="M1.89747 7.46204C3.03033 9.61629 5.58548 10.5 7.99935 10.5C10.4132 10.5 12.9684 9.61629 14.1012 7.46204C14.642 6.43371 14.2325 4.5 12.9007 4.5H3.09802C1.76617 4.5 1.3567 6.43371 1.89747 7.46204Z" stroke="#141B34"/>
<path d="M7.99902 7.8335H8.00501" stroke="#141B34" stroke-width="1.33333" stroke-linecap="round" stroke-linejoin="round"/>
<path d="M10.6663 4.50008L10.6075 4.29404C10.3141 3.26734 10.1675 2.75399 9.81828 2.46037C9.46909 2.16675 9.00528 2.16675 8.07765 2.16675H7.9217C6.99407 2.16675 6.53026 2.16675 6.18107 2.46037C5.83189 2.75399 5.68522 3.26734 5.39188 4.29404L5.33301 4.50008" stroke="#141B34"/>
</svg>
