<svg xmlns="http://www.w3.org/2000/svg" width="40" height="40" viewBox="0 0 40 40" fill="none">
  <path d="M30 8.75H27.9167V6.66667C27.9167 5.05833 26.6083 3.75 25 3.75H15C13.3917 3.75 12.0833 5.05833 12.0833 6.66667V8.75H10C5.97 8.75 3.75 10.97 3.75 15V15.1984V18.7551V30C3.75 34.03 5.97 36.25 10 36.25H30C34.03 36.25 36.25 34.03 36.25 30V18.7551V15.1984V15C36.25 10.97 34.03 8.75 30 8.75ZM14.5833 6.66667C14.5833 6.43667 14.77 6.25 15 6.25H25C25.23 6.25 25.4167 6.43667 25.4167 6.66667V8.75H14.5833V6.66667ZM6.25 15C6.25 12.3717 7.37167 11.25 10 11.25H30C32.6283 11.25 33.75 12.3717 33.75 15V15.1984V18.7551C33.75 19.2568 33.465 19.6949 33.0067 19.8999C31.565 20.5432 29.1083 21.4601 25.5967 22.1767C25.425 22.2117 25.24 22.0801 25.14 21.9334C23.9317 20.1284 22.0117 19.0517 20 19.0517C17.9883 19.0517 16.0683 20.1284 14.86 21.9334C14.7617 22.0817 14.5833 22.215 14.4033 22.1767C10.8933 21.4601 8.435 20.5432 6.99333 19.8999C6.535 19.6949 6.25 19.2568 6.25 18.7551V15.1984V15ZM30 33.75H10C7.37167 33.75 6.25 32.6283 6.25 30V22.3C7.83333 22.985 10.3717 23.9034 13.9017 24.625C15.0517 24.8584 16.2483 24.3501 16.9367 23.3217C17.68 22.2117 18.825 21.5501 20 21.5501C21.175 21.5501 22.32 22.2117 23.0617 23.3217C23.6383 24.1834 24.5683 24.6816 25.5333 24.6816C25.72 24.6816 25.9083 24.6634 26.095 24.625C29.6267 23.9034 32.165 22.985 33.7483 22.3V30C33.75 32.6283 32.6283 33.75 30 33.75ZM21.7 25C21.7 25.92 20.9533 26.6667 20.0333 26.6667C19.1133 26.6667 18.3583 25.92 18.3583 25C18.3583 24.08 19.095 23.3333 20.0167 23.3333H20.0333C20.9533 23.3333 21.7 24.08 21.7 25Z" fill="#736FE3"/>
</svg>