<svg width="22" height="18" viewBox="0 0 22 18" fill="none" xmlns="http://www.w3.org/2000/svg">
<path d="M20.7 12.9C20.5702 12.8026 20.4123 12.75 20.25 12.75H19.5V3C19.5 2.20435 19.1839 1.44129 18.6213 0.87868C18.0587 0.31607 17.2956 0 16.5 0H3.75C2.95435 0 2.19129 0.31607 1.62868 0.87868C1.06607 1.44129 0.75 2.20435 0.75 3C0.75 4.27594 1.69219 5.01938 1.8 5.1C1.92947 5.19804 2.0876 5.25076 2.25 5.25C2.40631 5.24957 2.55858 5.20032 2.68553 5.10912C2.81248 5.01792 2.90776 4.88933 2.95806 4.74133C3.00836 4.59333 3.01115 4.43332 2.96606 4.28365C2.92097 4.13398 2.83025 4.00215 2.70656 3.90656C2.70281 3.90187 2.25 3.53813 2.25 3C2.25 2.60218 2.40804 2.22064 2.68934 1.93934C2.97064 1.65804 3.35218 1.5 3.75 1.5C4.14782 1.5 4.52936 1.65804 4.81066 1.93934C5.09196 2.22064 5.25 2.60218 5.25 3V15C5.25 15.7956 5.56607 16.5587 6.12868 17.1213C6.69129 17.6839 7.45435 18 8.25 18H18.75C19.5456 18 20.3087 17.6839 20.8713 17.1213C21.4339 16.5587 21.75 15.7956 21.75 15C21.75 13.7241 20.8125 12.9806 20.7 12.9ZM9.75 6H15.75C15.9489 6 16.1397 6.07902 16.2803 6.21967C16.421 6.36032 16.5 6.55109 16.5 6.75C16.5 6.94891 16.421 7.13968 16.2803 7.28033C16.1397 7.42098 15.9489 7.5 15.75 7.5H9.75C9.55109 7.5 9.36032 7.42098 9.21967 7.28033C9.07902 7.13968 9 6.94891 9 6.75C9 6.55109 9.07902 6.36032 9.21967 6.21967C9.36032 6.07902 9.55109 6 9.75 6ZM9 9.75C9 9.55109 9.07902 9.36032 9.21967 9.21967C9.36032 9.07902 9.55109 9 9.75 9H15.75C15.9489 9 16.1397 9.07902 16.2803 9.21967C16.421 9.36032 16.5 9.55109 16.5 9.75C16.5 9.94891 16.421 10.1397 16.2803 10.2803C16.1397 10.421 15.9489 10.5 15.75 10.5H9.75C9.55109 10.5 9.36032 10.421 9.21967 10.2803C9.07902 10.1397 9 9.94891 9 9.75ZM18.75 16.5H10.0978C10.362 16.0443 10.5007 15.5267 10.5 15C10.5002 14.7457 10.4619 14.4929 10.3866 14.25H19.9491C20.1353 14.4565 20.2425 14.7221 20.2519 15C20.2519 15.1971 20.213 15.3923 20.1375 15.5745C20.062 15.7566 19.9514 15.922 19.8119 16.0613C19.6724 16.2006 19.5068 16.3111 19.3246 16.3864C19.1424 16.4616 18.9471 16.5002 18.75 16.5Z" fill="#2563EB"/>
</svg>
