<svg width="30" height="29" viewBox="0 0 30 29" fill="none" xmlns="http://www.w3.org/2000/svg">
<path d="M2.86621 15.1444C2.86621 11.5408 2.86621 9.73899 3.99647 8.6195C5.12673 7.5 6.94586 7.5 10.5841 7.5H11.8704C15.5087 7.5 17.3278 7.5 18.4581 8.6195C19.5883 9.73899 19.5883 11.5408 19.5883 15.1444V18.9666C19.5883 22.5702 19.5883 24.372 18.4581 25.4915C17.3278 26.611 15.5087 26.611 11.8704 26.611H10.5841C6.94586 26.611 5.12673 26.611 3.99647 25.4915C2.86621 24.372 2.86621 22.5702 2.86621 18.9666V15.1444Z" stroke="#141B34" stroke-width="1.79166" stroke-linejoin="round"/>
<path d="M19.0362 19.4443H20.1389C23.2578 19.4443 24.8173 19.4443 25.7862 18.4647C26.7551 17.4852 26.7551 15.9086 26.7551 12.7554V9.41102C26.7551 6.25786 26.7551 4.68129 25.7862 3.70173C24.8173 2.72217 23.2578 2.72217 20.1389 2.72217H19.0362C15.9173 2.72217 14.3578 2.72217 13.3889 3.70173C12.5416 4.55833 12.4352 5.87147 12.4219 8.29621" stroke="#141B34" stroke-width="1.79166" stroke-linejoin="round"/>
<path d="M7.64453 14.6665H11.2278M7.64453 20.6387H13.6167" stroke="#141B34" stroke-width="1.79166" stroke-linecap="round"/>
<path d="M13.0195 3.9165L17.7973 8.09704" stroke="#141B34" stroke-width="1.79166" stroke-linejoin="round"/>
</svg>
