<svg width="25" height="24" viewBox="0 0 25 24" fill="none" xmlns="http://www.w3.org/2000/svg">
<g clip-path="url(#clip0_14107_13482)">
<mask id="mask0_14107_13482" style="mask-type:luminance" maskUnits="userSpaceOnUse" x="0" y="0" width="25" height="24">
<path d="M24.918 0H0.917969V24H24.918V0Z" fill="white"/>
</mask>
<g mask="url(#mask0_14107_13482)">
<path opacity="0.4" d="M17.108 2H8.72797C5.08797 2 2.91797 4.17 2.91797 7.81V16.18C2.91797 19.83 5.08797 22 8.72797 22H17.098C20.738 22 22.908 19.83 22.908 16.19V7.81C22.918 4.17 20.748 2 17.108 2Z" fill="#2563EB"/>
<path d="M17.3378 7.81039V16.1904C17.3378 16.8304 16.8178 17.3504 16.1778 17.3504C15.5278 17.3504 15.0078 16.8304 15.0078 16.1904V7.81039C15.0078 7.17039 15.5278 6.65039 16.1778 6.65039C16.8178 6.65039 17.3378 7.17039 17.3378 7.81039Z" fill="#2563EB"/>
<path d="M10.828 12.9295V16.1895C10.828 16.8295 10.308 17.3495 9.65805 17.3495C9.01805 17.3495 8.49805 16.8295 8.49805 16.1895V12.9295C8.49805 12.2895 9.01805 11.7695 9.65805 11.7695C10.308 11.7695 10.828 12.2895 10.828 12.9295Z" fill="#2563EB"/>
</g>
</g>
<defs>
<clipPath id="clip0_14107_13482">
<rect width="24" height="24" fill="white" transform="translate(0.917969)"/>
</clipPath>
</defs>
</svg>
