<svg width="25" height="24" viewBox="0 0 25 24" fill="none" xmlns="http://www.w3.org/2000/svg">
<g clip-path="url(#clip0_14107_13472)">
<mask id="mask0_14107_13472" style="mask-type:luminance" maskUnits="userSpaceOnUse" x="0" y="0" width="25" height="24">
<path d="M24.459 0H0.458984V24H24.459V0Z" fill="white"/>
</mask>
<g mask="url(#mask0_14107_13472)">
<path d="M8.56828 11.8498C5.74828 12.0498 5.75828 16.1498 8.56828 16.3498H15.2383C16.0483 16.3598 16.8283 16.0498 17.4283 15.5098C19.4083 13.7798 18.3483 10.3098 15.7483 9.97976C14.8183 4.33976 6.66831 6.47976 8.59831 11.8498" fill="#2563EB"/>
<path opacity="0.4" d="M9.45898 22.75C5.18898 22.75 1.70898 19.27 1.70898 15C1.70898 14.59 2.04898 14.25 2.45898 14.25C2.86898 14.25 3.20898 14.59 3.20898 15C3.20898 17.96 5.26897 20.44 8.03897 21.09L7.76898 20.64C7.55898 20.28 7.66899 19.82 8.02899 19.61C8.37899 19.4 8.84899 19.51 9.05899 19.87L10.109 21.62C10.249 21.85 10.249 22.14 10.119 22.37C9.97898 22.6 9.72898 22.75 9.45898 22.75Z" fill="#2563EB"/>
<path opacity="0.4" d="M22.4594 9.75C22.0494 9.75 21.7094 9.41 21.7094 9C21.7094 6.04 19.6494 3.55997 16.8794 2.90997L17.1494 3.35999C17.3594 3.71999 17.2494 4.18001 16.8894 4.39001C16.5394 4.60001 16.0694 4.49001 15.8594 4.13L14.8094 2.38C14.6694 2.15 14.6694 1.86 14.7994 1.63C14.9294 1.39 15.1794 1.25 15.4494 1.25C19.7194 1.25 23.1994 4.73 23.1994 9C23.2094 9.41 22.8694 9.75 22.4594 9.75Z" fill="#2563EB"/>
</g>
</g>
<defs>
<clipPath id="clip0_14107_13472">
<rect width="24" height="24" fill="white" transform="translate(0.458984)"/>
</clipPath>
</defs>
</svg>
