<svg width="858" height="705" viewBox="0 0 858 705" fill="none" xmlns="http://www.w3.org/2000/svg">
<g id="No Results">
<g id="circle">
<path id="Stroke 1" d="M29.2818 323.514V330.785" stroke="#D2D8DF" stroke-width="2.921" stroke-linecap="round"/>
<g id="Group 8">
<path id="Stroke 2" d="M12.9499 327.451L18.8916 333.567" stroke="#D2D8DF" stroke-width="2.921" stroke-linecap="round"/>
<path id="Stroke 4" d="M6 343.734H14.4015" stroke="#D2D8DF" stroke-width="2.921" stroke-linecap="round"/>
<path id="Stroke 6" d="M12.2684 360.304L18.2101 354.188" stroke="#D2D8DF" stroke-width="2.921" stroke-linecap="round"/>
</g>
<path id="Stroke 9" d="M29.2818 362.293V355.022" stroke="#D2D8DF" stroke-width="2.921" stroke-linecap="round"/>
<path id="Stroke 10" d="M41.4005 357.446L36.553 352.599" stroke="#D2D8DF" stroke-width="2.921" stroke-linecap="round"/>
<path id="Stroke 11" d="M51.0955 345.327H43.8242" stroke="#D2D8DF" stroke-width="2.921" stroke-linecap="round"/>
<path id="Stroke 12" d="M46.2485 328.36L41.401 333.208" stroke="#D2D8DF" stroke-width="2.921" stroke-linecap="round"/>
<path id="Stroke 13" d="M419.508 5.99963V10.8472" stroke="#D2D8DF" stroke-width="2.921" stroke-linecap="round"/>
<path id="Stroke 15" d="M404.966 20.5421H409.813" stroke="#D2D8DF" stroke-width="2.921" stroke-linecap="round"/>
<path id="Stroke 16" d="M419.508 35.084V30.2365" stroke="#D2D8DF" stroke-width="2.921" stroke-linecap="round"/>
<path id="Stroke 17" d="M431.627 20.5421H426.779" stroke="#D2D8DF" stroke-width="2.921" stroke-linecap="round"/>
<path id="Stroke 18" d="M138.351 209.596V216.867" stroke="#D2D8DF" stroke-width="2.921" stroke-linecap="round"/>
<path id="Stroke 19" d="M116.537 231.409H123.809" stroke="#D2D8DF" stroke-width="2.921" stroke-linecap="round"/>
<path id="Stroke 20" d="M138.351 250.8V243.528" stroke="#D2D8DF" stroke-width="2.921" stroke-linecap="round"/>
<path id="Stroke 21" d="M157.742 231.409H150.47" stroke="#D2D8DF" stroke-width="2.921" stroke-linecap="round"/>
<g id="Group 42">
<path id="Stroke 22" d="M660.077 473.881C665.869 473.881 670.567 478.58 670.567 484.374C670.567 490.17 665.869 494.867 660.077 494.867C654.284 494.867 649.587 490.17 649.587 484.374" stroke="#D2D8DF" stroke-width="2.921" stroke-linecap="round"/>
<path id="Fill 26" fill-rule="evenodd" clip-rule="evenodd" d="M708.083 378.686C714.312 376.743 723.86 369.126 726.07 360.93C728.074 368.175 736.475 376.743 744.056 377.391C735.523 380.413 727.364 389.389 726.07 396.44C725.189 389.253 713.905 379.734 708.083 378.686Z" fill="#EBECEE"/>
<path id="Fill 28" fill-rule="evenodd" clip-rule="evenodd" d="M68.7204 470.649C71.8357 469.677 76.6075 465.87 77.7124 461.772C78.7145 465.392 82.9143 469.677 86.7045 470.003C82.4389 471.511 78.3606 476 77.7124 479.526C77.2721 475.932 71.63 471.172 68.7204 470.649Z" fill="#EBECEE"/>
<path id="Fill 30" fill-rule="evenodd" clip-rule="evenodd" d="M126.533 133.482C126.533 137.977 122.891 141.618 118.399 141.618C113.905 141.618 110.265 137.977 110.265 133.482C110.265 128.989 113.905 125.346 118.399 125.346C122.891 125.346 126.533 128.989 126.533 133.482Z" fill="#D1D8DF"/>
<path id="Fill 32" fill-rule="evenodd" clip-rule="evenodd" d="M669.687 155.33C669.687 162.84 663.598 168.928 656.092 168.928C648.581 168.928 642.494 162.84 642.494 155.33C642.494 147.819 648.581 141.731 656.092 141.731C663.598 141.731 669.687 147.819 669.687 155.33Z" fill="#EBECEE"/>
<path id="Fill 34" fill-rule="evenodd" clip-rule="evenodd" d="M858 118.485C858 124.444 853.173 129.272 847.218 129.272C841.261 129.272 836.434 124.444 836.434 118.485C836.434 112.526 841.261 107.698 847.218 107.698C853.173 107.698 858 112.526 858 118.485Z" fill="#EBECEE"/>
<path id="Stroke 36" fill-rule="evenodd" clip-rule="evenodd" d="M278.551 622.284C278.551 626.04 275.507 629.084 271.752 629.084C267.999 629.084 264.955 626.04 264.955 622.284C264.955 618.528 267.999 615.484 271.752 615.484C275.507 615.484 278.551 618.528 278.551 622.284Z" stroke="#D2D8DF" stroke-width="2.921" stroke-linecap="round"/>
<path id="Stroke 38" fill-rule="evenodd" clip-rule="evenodd" d="M274.505 81.2122C274.505 85.7074 270.863 89.3484 266.371 89.3484C261.88 89.3484 258.237 85.7074 258.237 81.2122C258.237 76.7192 261.88 73.0761 266.371 73.0761C270.863 73.0761 274.505 76.7192 274.505 81.2122Z" stroke="#D2D8DF" stroke-width="2.921" stroke-linecap="round"/>
<path id="Stroke 40" fill-rule="evenodd" clip-rule="evenodd" d="M481.987 697.588C476.789 699.566 470.972 696.954 468.995 691.757C467.017 686.558 469.626 680.737 474.826 678.761C480.022 676.784 485.839 679.393 487.816 684.592C489.796 689.791 487.184 695.61 481.987 697.588Z" stroke="#D2D8DF" stroke-width="2.921" stroke-linecap="round"/>
</g>
</g>
<g id="search">
<g id="documents">
<path id="Fill 1" fill-rule="evenodd" clip-rule="evenodd" d="M478.889 505.296H280.128C266.139 505.296 254.687 493.811 254.687 479.774V196.332C254.687 182.296 266.139 170.816 280.128 170.816H478.889C492.884 170.816 504.335 182.296 504.335 196.332V479.774C504.335 493.811 492.884 505.296 478.889 505.296Z" fill="#E0E2EE"/>
<path id="Fill 3" fill-rule="evenodd" clip-rule="evenodd" d="M461.922 517.413H263.162C249.172 517.413 237.721 505.928 237.721 491.892V208.45C237.721 194.413 249.172 182.934 263.162 182.934H461.922C475.918 182.934 487.369 194.413 487.369 208.45V491.892C487.369 505.928 475.918 517.413 461.922 517.413Z" fill="#E8EBF2"/>
<path id="Fill 5" fill-rule="evenodd" clip-rule="evenodd" d="M445.419 526.981H246.248C232.23 526.981 220.755 515.543 220.755 501.564V219.296C220.755 205.318 232.23 193.886 246.248 193.886H445.419C459.444 193.886 470.918 205.318 470.918 219.296V501.564C470.918 515.543 459.444 526.981 445.419 526.981Z" fill="#D8DBEA"/>
<path id="Fill 8" fill-rule="evenodd" clip-rule="evenodd" d="M445.419 526.981H246.248C232.23 526.981 220.755 515.543 220.755 501.564V219.296C220.755 205.318 232.23 193.886 246.248 193.886H445.419C459.444 193.886 470.918 205.318 470.918 219.296V501.564C470.918 515.543 459.444 526.981 445.419 526.981Z" fill="#F1F2F7"/>
<path id="Fill 11" fill-rule="evenodd" clip-rule="evenodd" d="M416.711 279.885H269.599C265.398 279.885 261.959 276.613 261.959 272.616C261.959 268.614 265.398 265.342 269.599 265.342H416.711C420.912 265.342 424.351 268.614 424.351 272.616C424.351 276.613 420.912 279.885 416.711 279.885Z" fill="#E0E2EE"/>
<path id="Fill 13" fill-rule="evenodd" clip-rule="evenodd" d="M416.711 323.514H269.599C265.398 323.514 261.959 320.242 261.959 316.245C261.959 312.243 265.398 308.971 269.599 308.971H416.711C420.912 308.971 424.351 312.243 424.351 316.245C424.351 320.242 420.912 323.514 416.711 323.514Z" fill="#E0E2EE"/>
<path id="Fill 15" fill-rule="evenodd" clip-rule="evenodd" d="M416.711 367.141H269.599C265.398 367.141 261.959 363.869 261.959 359.872C261.959 355.875 265.398 352.598 269.599 352.598H416.711C420.912 352.598 424.351 355.875 424.351 359.872C424.351 363.869 420.912 367.141 416.711 367.141Z" fill="#E0E2EE"/>
<path id="Fill 17" fill-rule="evenodd" clip-rule="evenodd" d="M416.711 410.768H269.599C265.398 410.768 261.959 407.497 261.959 403.5C261.959 399.497 265.398 396.226 269.599 396.226H416.711C420.912 396.226 424.351 399.497 424.351 403.5C424.351 407.497 420.912 410.768 416.711 410.768Z" fill="#E0E2EE"/>
<path id="Fill 19" fill-rule="evenodd" clip-rule="evenodd" d="M346.389 454.396H269.632C265.412 454.396 261.959 451.124 261.959 447.127C261.959 443.125 265.412 439.853 269.632 439.853H346.389C350.608 439.853 354.062 443.125 354.062 447.127C354.062 451.124 350.608 454.396 346.389 454.396Z" fill="#E0E2EE"/>
</g>
<g id="search_2">
<path id="Fill 21" fill-rule="evenodd" clip-rule="evenodd" d="M501.317 398.012C471.901 427.424 426.36 430.742 393.298 408.034C389.073 405.08 385.051 401.762 381.301 398.012C379.37 396.088 377.551 394.102 375.836 392.012C372.406 387.836 369.402 383.384 366.941 378.783C362.605 371.012 359.657 362.767 358.047 354.244C352.853 327.515 360.619 298.745 381.301 278.072C402.033 257.338 430.808 249.623 457.541 254.766C466.059 256.425 474.313 259.373 482.085 263.659C486.692 266.176 491.084 269.179 495.266 272.608C497.351 274.316 499.337 276.142 501.262 278.072C505.018 281.822 508.386 285.837 511.285 290.067C534.003 323.118 530.678 368.656 501.317 398.012Z" fill="white" fill-opacity="0.1"/>
<path id="Fill 23" fill-rule="evenodd" clip-rule="evenodd" d="M493.086 392.219C462.482 422.829 412.886 422.823 382.276 392.219C351.707 361.649 351.707 312.048 382.316 281.444C412.886 250.874 462.482 250.874 493.052 281.444C523.656 312.048 523.656 361.649 493.086 392.219ZM508.793 265.719C469.51 226.436 405.853 226.436 366.571 265.719C327.294 304.996 327.259 368.693 366.536 407.976C402.288 443.716 458.325 446.94 497.739 417.594C501.589 414.724 505.296 411.506 508.833 407.976C512.363 404.439 515.581 400.732 518.445 396.882C547.791 357.463 544.539 301.466 508.793 265.719Z" fill="#E0E2EE"/>
<path id="Fill 25" fill-rule="evenodd" clip-rule="evenodd" d="M663.388 556.053L661.739 557.703C650.828 568.619 632.961 568.619 622.045 557.703L521.302 456.959L562.645 415.616L663.388 516.36C674.304 527.276 674.304 545.137 663.388 556.053Z" fill="url(#paint0_linear_6871_6852)"/>
<path id="Fill 27" fill-rule="evenodd" clip-rule="evenodd" d="M520.616 393.803L550.386 423.573L529.252 444.702L499.487 414.932C503.416 412.003 507.193 408.72 510.807 405.117C514.41 401.514 517.693 397.731 520.616 393.803Z" fill="#E0E2EE"/>
<path id="Fill 29" fill-rule="evenodd" clip-rule="evenodd" d="M661.88 515.12L620.8 556.194L613.405 548.793L654.479 507.719L661.88 515.12Z" fill="#B5E5FF"/>
<path id="Fill 31" fill-rule="evenodd" clip-rule="evenodd" d="M564.929 417.038L522.724 459.244L516.454 452.974L558.659 410.768L564.929 417.038Z" fill="#B5E5FF"/>
<path id="Fill 33" fill-rule="evenodd" clip-rule="evenodd" d="M472.827 270.914L369.323 374.412C365.425 367.426 362.775 360.013 361.333 352.351L450.764 262.919C458.421 264.416 465.84 267.06 472.827 270.914Z" fill="white" fill-opacity="0.5"/>
<path id="Fill 35" fill-rule="evenodd" clip-rule="evenodd" d="M506.759 295.514L394.861 401.073C390.854 398.435 387.04 395.466 383.483 392.11C381.652 390.383 379.92 388.611 378.3 386.74L491.561 279.884C493.544 281.419 495.428 283.052 497.253 284.78C500.81 288.135 504.01 291.728 506.759 295.514Z" fill="white" fill-opacity="0.5"/>
</g>
</g>
</g>
<defs>
<linearGradient id="paint0_linear_6871_6852" x1="596.439" y1="340.48" x2="446.165" y2="490.753" gradientUnits="userSpaceOnUse">
<stop stop-color="#067CFF"/>
<stop offset="1" stop-color="#084FC5"/>
</linearGradient>
</defs>
</svg>
