<svg width="116" height="64" viewBox="0 0 116 64" fill="none" xmlns="http://www.w3.org/2000/svg">
<rect x="0.5" width="64" height="64" rx="16" fill="#3E50F7"/>
<path d="M32.3299 35.9868C29.2146 33.5017 21.9884 30.8092 18.0058 39.9209C17.7672 33.3217 24.9665 14.516 28.6043 11.0856C29.382 10.2602 31.2887 9.11022 32.6944 11.1137C32.8351 11.3142 33.0334 11.5777 33.2802 11.9055C34.1509 13.0624 35.6248 15.0207 37.2972 17.8402C36.498 18.1887 35.7903 18.8038 35.3604 19.509C35.6486 19.3772 35.9333 19.2366 36.2174 19.0962C36.691 18.8622 37.1631 18.629 37.6474 18.4386C37.8701 18.8241 38.0957 19.2244 38.3233 19.6397C37.3504 20.1941 36.5032 20.9756 35.9669 21.8103C36.2948 21.6452 36.6213 21.4739 36.948 21.3025C37.5399 20.992 38.1329 20.681 38.736 20.4056C38.9537 20.8164 39.1727 21.2407 39.3923 21.6788C38.2916 22.4191 37.3307 23.3449 36.629 24.3348C36.9281 24.1691 37.2277 24.0007 37.5282 23.8319C38.2887 23.4044 39.0548 22.9737 39.8335 22.5766C42.9648 29.0744 46.1008 38.3606 47 50.7683C38.0203 54.9375 35.8814 55.6055 29.7501 49.583C34.6971 49.8633 42.8797 45.4838 36.0343 25.7227C29.8022 7.73164 26.2096 19.3645 23.3895 28.4962C23.112 29.3946 22.8421 30.2688 22.5778 31.0882C24.8494 30.5133 29.9801 30.6883 32.3299 35.9868Z" fill="white"/>
<rect x="52.5" y="1" width="62" height="62" rx="15" fill="#2D98D4"/>
<rect x="52.5" y="1" width="62" height="62" rx="15" stroke="white" stroke-width="2"/>
<path d="M95.0231 20.1365L86.6142 11.7275H68.1146C66.2569 11.7275 64.751 13.2335 64.751 15.0911V48.727C64.751 50.5847 66.2569 52.0906 68.1146 52.0906H91.6596C93.5172 52.0906 95.0231 50.5847 95.0231 48.727V20.1365Z" fill="white"/>
<path opacity="0.1" d="M91.6593 51.671H68.1145C66.2569 51.671 64.751 50.1651 64.751 48.3076V48.728C64.751 50.5855 66.2569 52.0914 68.1145 52.0914H91.6593C93.5169 52.0914 95.0229 50.5855 95.0229 48.728V48.3076C95.0229 50.1651 93.5169 51.671 91.6593 51.671Z" fill="#010101"/>
<path d="M86.6147 11.7275V16.7726C86.6147 18.6301 88.1207 20.136 89.9783 20.136H95.0236L86.6147 11.7275Z" fill="#0377BE"/>
<path opacity="0.2" d="M86.614 11.7275H68.1145C66.2569 11.7275 64.751 13.2333 64.751 15.0909V15.5113C64.751 13.6537 66.2569 12.148 68.1145 12.148H86.614V11.7275Z" fill="white"/>
<path opacity="0.1" d="M89.9783 19.7159C88.1207 19.7159 86.6147 18.21 86.6147 16.3525V16.773C86.6147 18.6305 88.1207 20.1363 89.9783 20.1363H95.0236L94.6032 19.7159H89.9783Z" fill="#010101"/>
<path d="M89.9769 20.1351C89.0523 20.1351 88.2155 19.7612 87.6074 19.1572L95.0223 26.5717V20.1351H89.9769Z" fill="url(#paint0_linear_8658_213777)"/>
<path d="M74.8419 30.2256H100.069C100.997 30.2256 101.75 30.9785 101.75 31.9073V43.6791C101.75 44.6078 100.997 45.3608 100.069 45.3608H74.8419C73.9131 45.3608 73.1602 44.6078 73.1602 43.6791V31.9073C73.1602 30.9785 73.9131 30.2256 74.8419 30.2256Z" fill="#0A70B9"/>
<path opacity="0.2" d="M100.069 30.2256H74.8419C73.9131 30.2256 73.1602 30.9785 73.1602 31.9073V32.3277C73.1602 31.3989 73.9131 30.646 74.8419 30.646H100.069C100.997 30.646 101.75 31.3989 101.75 32.3277V31.9073C101.75 30.9785 100.997 30.2256 100.069 30.2256Z" fill="white"/>
<path opacity="0.1" d="M100.069 44.9424H74.8419C73.9131 44.9424 73.1602 44.1894 73.1602 43.2607V43.6812C73.1602 44.6099 73.9131 45.3628 74.8419 45.3628H100.069C100.997 45.3628 101.75 44.6099 101.75 43.6812V43.2607C101.75 44.1894 100.997 44.9424 100.069 44.9424Z" fill="#010101"/>
<path d="M74.8411 45.3623C74.3833 45.3623 73.9703 45.1766 73.667 44.8799L80.8765 52.089H91.6588C93.5164 52.089 95.0223 50.5832 95.0223 48.7257V45.3623H74.8411Z" fill="url(#paint1_linear_8658_213777)"/>
<path opacity="0.2" d="M86.6135 11.7275H68.114C66.2564 11.7275 64.7505 13.2333 64.7505 15.0909V15.5113C64.7505 13.6537 66.2564 12.148 68.114 12.148H86.6135V11.7275Z" fill="white"/>
<path d="M87.4543 41.9992H84.9316V40.3176H87.4543C87.9183 40.3176 88.2952 39.9407 88.2952 39.4767C88.2952 39.0128 87.9183 38.6359 87.4543 38.6359C86.0632 38.6359 84.9316 37.5044 84.9316 36.1133C84.9316 34.7223 86.0632 33.5908 87.4543 33.5908H89.977V35.2725H87.4543C86.9903 35.2725 86.6134 35.6494 86.6134 36.1133C86.6134 36.5773 86.9903 36.9542 87.4543 36.9542C88.8454 36.9542 89.977 38.0857 89.977 39.4767C89.977 40.8677 88.8454 41.9992 87.4543 41.9992Z" fill="white"/>
<path d="M80.7268 41.9992C79.3357 41.9992 78.2041 40.8677 78.2041 39.4767V36.1133C78.2041 34.7223 79.3357 33.5908 80.7268 33.5908C82.1178 33.5908 83.2494 34.7223 83.2494 36.1133H81.5676C81.5676 35.6494 81.1907 35.2725 80.7268 35.2725C80.2628 35.2725 79.8859 35.6494 79.8859 36.1133V39.4767C79.8859 39.9407 80.2628 40.3176 80.7268 40.3176C81.1907 40.3176 81.5676 39.9407 81.5676 39.4767H83.2494C83.2494 40.8677 82.1178 41.9992 80.7268 41.9992Z" fill="white"/>
<path d="M95.0232 38.3813L94.1823 40.3176L93.3414 38.3813V33.5908H91.6597V38.6359L93.3414 41.9992H95.0232L96.705 38.6359V33.5908H95.0232V38.3813Z" fill="white"/>
<path d="M100.568 30.4089H95.5227V20.3182L87.1137 11.9092H68.6141C66.7564 11.9092 65.2505 13.415 65.2505 15.2728V48.9087C65.2505 50.7663 66.7564 52.2723 68.6141 52.2723H92.1591C94.0167 52.2723 95.5227 50.7663 95.5227 48.9087V45.5451H100.568C101.497 45.5451 102.25 44.7921 102.25 43.8633V32.0907C102.25 31.1619 101.497 30.4089 100.568 30.4089Z" fill="url(#paint2_linear_8658_213777)"/>
<defs>
<linearGradient id="paint0_linear_8658_213777" x1="89.6086" y1="17.9405" x2="95.4777" y2="23.8099" gradientUnits="userSpaceOnUse">
<stop stop-color="#010101" stop-opacity="0.1"/>
<stop offset="1" stop-color="#010101" stop-opacity="0"/>
</linearGradient>
<linearGradient id="paint1_linear_8658_213777" x1="79.587" y1="40.3643" x2="90.1144" y2="50.8905" gradientUnits="userSpaceOnUse">
<stop stop-color="#010101" stop-opacity="0.1"/>
<stop offset="1" stop-color="#010101" stop-opacity="0"/>
</linearGradient>
<linearGradient id="paint2_linear_8658_213777" x1="60.708" y1="24.2653" x2="102.48" y2="43.7437" gradientUnits="userSpaceOnUse">
<stop stop-color="white" stop-opacity="0.2"/>
<stop offset="1" stop-color="white" stop-opacity="0"/>
</linearGradient>
</defs>
</svg>
