<svg width="58" height="58" viewBox="0 0 58 58" fill="none" xmlns="http://www.w3.org/2000/svg">
<g clip-path="url(#clip0_8658_212832)">
<path d="M38.52 18.8122L31.5409 11.833H16.1867C14.6449 11.833 13.395 13.0829 13.395 14.6247V42.5413C13.395 44.0831 14.6449 45.333 16.1867 45.333H35.7284C37.2701 45.333 38.52 44.0831 38.52 42.5413V18.8122Z" fill="#2D98D4"/>
<path opacity="0.1" d="M35.7284 44.984H16.1867C14.6449 44.984 13.395 43.7342 13.395 42.1924V42.5413C13.395 44.0831 14.6449 45.333 16.1867 45.333H35.7284C37.2701 45.333 38.52 44.0831 38.52 42.5413V42.1924C38.52 43.7342 37.2701 44.984 35.7284 44.984Z" fill="#010101"/>
<path d="M31.541 11.833V16.0205C31.541 17.5623 32.7909 18.8122 34.3327 18.8122H38.5202L31.541 11.833Z" fill="#0377BE"/>
<path opacity="0.2" d="M31.5409 11.833H16.1867C14.6449 11.833 13.395 13.0828 13.395 14.6247V14.9736C13.395 13.4318 14.6449 12.182 16.1867 12.182H31.5409V11.833Z" fill="white"/>
<path opacity="0.1" d="M34.3327 18.4632C32.7909 18.4632 31.541 17.2133 31.541 15.6715V16.0205C31.541 17.5622 32.7909 18.8121 34.3327 18.8121H38.5202L38.1712 18.4632H34.3327Z" fill="#010101"/>
<path d="M34.3319 18.8112C33.5644 18.8112 32.8699 18.5008 32.3652 17.9995L38.5194 24.1537V18.8112H34.3319Z" fill="url(#paint0_linear_8658_212832)"/>
<path d="M21.7703 27.1871H42.7078C43.4787 27.1871 44.1037 27.8121 44.1037 28.583V38.3538C44.1037 39.1247 43.4787 39.7496 42.7078 39.7496H21.7703C20.9994 39.7496 20.3745 39.1247 20.3745 38.3538V28.583C20.3745 27.8121 20.9994 27.1871 21.7703 27.1871Z" fill="#0A70B9"/>
<path opacity="0.2" d="M42.7078 27.1871H21.7703C20.9994 27.1871 20.3745 27.812 20.3745 28.583V28.9319C20.3745 28.161 20.9994 27.5361 21.7703 27.5361H42.7078C43.4788 27.5361 44.1037 28.161 44.1037 28.9319V28.583C44.1037 27.812 43.4788 27.1871 42.7078 27.1871Z" fill="white"/>
<path opacity="0.1" d="M42.7078 39.4007H21.7703C20.9994 39.4007 20.3745 38.7757 20.3745 38.0049V38.3538C20.3745 39.1247 20.9994 39.7497 21.7703 39.7497H42.7078C43.4788 39.7497 44.1037 39.1247 44.1037 38.3538V38.0049C44.1037 38.7757 43.4788 39.4007 42.7078 39.4007Z" fill="#010101"/>
<path d="M21.7694 39.7501C21.3894 39.7501 21.0467 39.596 20.7949 39.3497L26.7787 45.3335H35.7277C37.2695 45.3335 38.5194 44.0836 38.5194 42.5418V39.7501H21.7694Z" fill="url(#paint1_linear_8658_212832)"/>
<path opacity="0.2" d="M31.5404 11.833H16.1862C14.6444 11.833 13.3945 13.0828 13.3945 14.6247V14.9736C13.3945 13.4318 14.6444 12.182 16.1862 12.182H31.5404V11.833Z" fill="white"/>
<path d="M32.2383 36.958H30.1445V35.5622H32.2383C32.6234 35.5622 32.9362 35.2494 32.9362 34.8643C32.9362 34.4792 32.6234 34.1664 32.2383 34.1664C31.0837 34.1664 30.1445 33.2272 30.1445 32.0726C30.1445 30.9181 31.0837 29.9789 32.2383 29.9789H34.332V31.3747H32.2383C31.8532 31.3747 31.5404 31.6876 31.5404 32.0726C31.5404 32.4577 31.8532 32.7705 32.2383 32.7705C33.3928 32.7705 34.332 33.7097 34.332 34.8643C34.332 36.0189 33.3928 36.958 32.2383 36.958Z" fill="white"/>
<path d="M26.6548 36.958C25.5002 36.958 24.561 36.0189 24.561 34.8643V32.0726C24.561 30.9181 25.5002 29.9789 26.6548 29.9789C27.8093 29.9789 28.7485 30.9181 28.7485 32.0726H27.3527C27.3527 31.6876 27.0399 31.3747 26.6548 31.3747C26.2697 31.3747 25.9569 31.6876 25.9569 32.0726V34.8643C25.9569 35.2494 26.2697 35.5622 26.6548 35.5622C27.0399 35.5622 27.3527 35.2494 27.3527 34.8643H28.7485C28.7485 36.0189 27.8093 36.958 26.6548 36.958Z" fill="white"/>
<path d="M38.5197 33.9551L37.8218 35.5622L37.1239 33.9551V29.9789H35.728V34.1664L37.1239 36.958H38.5197L39.9155 34.1664V29.9789H38.5197V33.9551Z" fill="white"/>
<path d="M42.7075 27.1872H38.52V18.8122L31.5409 11.833H16.1867C14.6449 11.833 13.395 13.0828 13.395 14.6247V42.5413C13.395 44.0831 14.6449 45.333 16.1867 45.333H35.7284C37.2701 45.333 38.52 44.0831 38.52 42.5413V39.7497H42.7075C43.4784 39.7497 44.1034 39.1247 44.1034 38.3538V28.583C44.1034 27.8121 43.4784 27.1872 42.7075 27.1872Z" fill="url(#paint2_linear_8658_212832)"/>
</g>
<defs>
<linearGradient id="paint0_linear_8658_212832" x1="34.0262" y1="16.9896" x2="38.8976" y2="21.8611" gradientUnits="userSpaceOnUse">
<stop stop-color="#010101" stop-opacity="0.1"/>
<stop offset="1" stop-color="#010101" stop-opacity="0"/>
</linearGradient>
<linearGradient id="paint1_linear_8658_212832" x1="25.7084" y1="35.6017" x2="34.4463" y2="44.3383" gradientUnits="userSpaceOnUse">
<stop stop-color="#010101" stop-opacity="0.1"/>
<stop offset="1" stop-color="#010101" stop-opacity="0"/>
</linearGradient>
<linearGradient id="paint2_linear_8658_212832" x1="9.62487" y1="22.0882" x2="44.2946" y2="38.2547" gradientUnits="userSpaceOnUse">
<stop stop-color="white" stop-opacity="0.2"/>
<stop offset="1" stop-color="white" stop-opacity="0"/>
</linearGradient>
<clipPath id="clip0_8658_212832">
<rect width="33.5" height="33.5" fill="white" transform="translate(12 11.833)"/>
</clipPath>
</defs>
</svg>
