<svg width="172" height="184" viewBox="0 0 172 184" fill="none" xmlns="http://www.w3.org/2000/svg">
<path d="M153.906 140.212C156.933 140.212 159.386 137.758 159.386 134.727C159.386 131.709 156.933 129.254 153.906 129.254C150.88 129.254 148.427 131.709 148.427 134.727C148.427 137.758 150.88 140.212 153.906 140.212Z" fill="#EAEEF9"/>
<path d="M168.258 52.9076C170.325 52.9076 172 51.228 172 49.1608C172 47.0936 170.325 45.4258 168.258 45.4258C166.191 45.4258 164.515 47.0936 164.515 49.1608C164.515 51.228 166.191 52.9076 168.258 52.9076Z" fill="#EAEEF9"/>
<path d="M34.4698 35.974C36.537 35.974 38.213 34.2944 38.213 32.2272C38.213 30.16 36.537 28.4922 34.4698 28.4922C32.4037 28.4922 30.7277 30.16 30.7277 32.2272C30.7277 34.2944 32.4037 35.974 34.4698 35.974Z" fill="#EAEEF9"/>
<path d="M30.9054 134.68C34.7438 134.68 37.8552 131.567 37.8552 127.738C37.8552 123.898 34.7438 120.785 30.9054 120.785C27.0658 120.785 23.9545 123.898 23.9545 127.738C23.9545 131.567 27.0658 134.68 30.9054 134.68Z" fill="#EAEEF9"/>
<path d="M98.1306 148.195C135.555 148.195 165.896 117.857 165.896 80.295C165.896 42.733 135.421 12.3945 98.1306 12.3945C60.7061 12.3945 30.3652 42.733 30.3652 80.295C30.3652 117.857 60.7061 148.195 98.1306 148.195Z" fill="#EAEEF9"/>
<g filter="url(#filter0_d_1055_40156)">
<path d="M146.468 57.6634L139.93 80.5435L138.062 86.9331L121.715 144.38C120.47 149.043 115.487 151.697 110.817 150.452L83.1051 142.513L54.6153 134.256C49.9453 133.01 47.2979 128.03 48.5441 123.356L70.0277 47.8559L73.2976 36.639C74.3876 32.904 77.0339 29.7914 80.4588 28.0766L112.374 12.8193C117.2 10.4937 122.961 12.1968 125.918 16.7188L144.912 46.4465C146.936 49.7235 147.558 53.7639 146.468 57.6634Z" fill="url(#paint0_linear_1055_40156)"/>
</g>
<g filter="url(#filter1_d_1055_40156)">
<path d="M65.8246 138.616L24.5687 97.3658C21.1438 93.9361 21.1438 88.3336 24.5687 84.9039L88.3994 21.0791C91.2007 18.2719 94.9381 16.8742 98.8294 17.0269L134.014 19.2116C139.308 19.517 143.666 23.7218 143.978 29.1717L146.158 64.3611C146.469 68.2488 144.911 72.1366 142.11 74.7911L78.2795 138.616C74.8545 142.046 69.2496 142.046 65.8246 138.616Z" fill="url(#paint1_linear_1055_40156)"/>
</g>
<path d="M129.738 48.5059C133.873 44.3715 133.873 37.6766 129.738 33.5422C125.604 29.4078 118.901 29.4078 114.767 33.5422C110.632 37.6766 110.632 44.3715 114.767 48.5059C118.901 52.6403 125.604 52.6403 129.738 48.5059Z" fill="#E5EAF6"/>
<path d="M45.1199 93.1589C44.3412 93.1589 43.5625 92.8418 42.94 92.2193C41.695 90.9743 41.695 89.1067 42.94 87.8617L83.4172 47.3869C84.6634 46.1419 86.5309 46.1419 87.7771 47.3869C89.0221 48.6319 89.0221 50.4994 87.7771 51.7445L47.4549 92.2193C46.8324 92.8418 46.0537 93.1589 45.1199 93.1589Z" fill="#E5EAF6"/>
<path d="M56.0164 103.897C55.2388 103.897 54.4601 103.591 53.8376 102.969C52.5914 101.724 52.5914 99.8564 53.8376 98.6114L94.1597 58.2892C95.4048 57.0442 97.2735 57.0442 98.5185 58.2892C99.7635 59.5343 99.7635 61.4018 98.5185 62.6468L58.1963 102.969C57.5738 103.591 56.7951 103.897 56.0164 103.897Z" fill="#E5EAF6"/>
<path d="M71.1182 118.996C70.3395 118.996 69.5608 118.69 68.9383 118.068C67.6933 116.811 67.6933 114.944 68.9383 113.699L82.3269 100.309C83.5731 99.0637 85.4406 99.0637 86.6868 100.309C87.9319 101.566 87.9319 103.433 86.6868 104.678L73.2982 118.068C72.6745 118.69 71.897 118.996 71.1182 118.996Z" fill="#E5EAF6"/>
<path d="M159.079 25.1184C159.079 34.1507 153.787 42.4077 145.379 45.9901L144.757 44.4279V42.7131C151.45 39.4479 155.81 32.6003 155.81 25.1184C155.81 14.3831 147.092 5.50352 136.194 5.50352C125.452 5.50352 116.578 14.2304 116.578 25.1184C116.578 27.3031 116.889 29.3233 117.668 31.3553C119.847 37.733 125.141 42.7131 131.834 44.2753L131.523 45.8257L130.589 47.3878C123.272 45.5203 117.512 40.2231 114.866 33.3755C113.931 30.8854 113.308 28.0783 113.308 25.2829C113.464 12.5156 123.583 2.23828 136.194 2.23828C148.96 2.23828 159.079 12.5156 159.079 25.1184Z" fill="#989FB0"/>
<defs>
<filter id="filter0_d_1055_40156" x="26.2368" y="0.78125" width="142.762" height="182.977" filterUnits="userSpaceOnUse" color-interpolation-filters="sRGB">
<feFlood flood-opacity="0" result="BackgroundImageFix"/>
<feColorMatrix in="SourceAlpha" type="matrix" values="0 0 0 0 0 0 0 0 0 0 0 0 0 0 0 0 0 0 127 0" result="hardAlpha"/>
<feOffset dy="11"/>
<feGaussianBlur stdDeviation="11"/>
<feColorMatrix type="matrix" values="0 0 0 0 0.396078 0 0 0 0 0.478431 0 0 0 0 0.576471 0 0 0 0.27 0"/>
<feBlend mode="normal" in2="BackgroundImageFix" result="effect1_dropShadow_1055_40156"/>
<feBlend mode="normal" in="SourceGraphic" in2="effect1_dropShadow_1055_40156" result="shape"/>
</filter>
<filter id="filter1_d_1055_40156" x="0" y="6.01562" width="168.197" height="168.172" filterUnits="userSpaceOnUse" color-interpolation-filters="sRGB">
<feFlood flood-opacity="0" result="BackgroundImageFix"/>
<feColorMatrix in="SourceAlpha" type="matrix" values="0 0 0 0 0 0 0 0 0 0 0 0 0 0 0 0 0 0 127 0" result="hardAlpha"/>
<feOffset dy="11"/>
<feGaussianBlur stdDeviation="11"/>
<feColorMatrix type="matrix" values="0 0 0 0 0.396078 0 0 0 0 0.478431 0 0 0 0 0.576471 0 0 0 0.27 0"/>
<feBlend mode="normal" in2="BackgroundImageFix" result="effect1_dropShadow_1055_40156"/>
<feBlend mode="normal" in="SourceGraphic" in2="effect1_dropShadow_1055_40156" result="shape"/>
</filter>
<linearGradient id="paint0_linear_1055_40156" x1="46.527" y1="8.56227" x2="46.527" y2="152.261" gradientUnits="userSpaceOnUse">
<stop stop-color="#FDFEFF"/>
<stop offset="0.9964" stop-color="#ECF0F5"/>
</linearGradient>
<linearGradient id="paint1_linear_1055_40156" x1="19.8499" y1="14.1396" x2="19.8499" y2="142.53" gradientUnits="userSpaceOnUse">
<stop stop-color="#FDFEFF"/>
<stop offset="0.9964" stop-color="#ECF0F5"/>
</linearGradient>
</defs>
</svg>
