<svg width="216" height="149" viewBox="0 0 216 149" fill="none" xmlns="http://www.w3.org/2000/svg">
<path d="M213.548 1.81196H212.207V0H211.997V1.81196H210.656V2.07081H211.997V3.88277H212.207V2.07081H213.548V1.81196Z" fill="#424B84"/>
<path d="M213.548 14.7545H212.207V12.9425H211.997V14.7545H210.656V15.0133H211.997V16.8253H212.207V15.0133H213.548V14.7545Z" fill="#424B84"/>
<path d="M213.548 27.6972H212.207V25.8852H211.997V27.6972H210.656V27.956H211.997V29.768H212.207V27.956H213.548V27.6972Z" fill="#424B84"/>
<path d="M213.548 40.6397H212.207V38.8277H211.997V40.6397H210.656V40.8985H211.997V42.7105H212.207V40.8985H213.548V40.6397Z" fill="#424B84"/>
<path d="M213.548 53.5822H212.207V51.7703H211.997V53.5822H210.656V53.8411H211.997V55.653H212.207V53.8411H213.548V53.5822Z" fill="#424B84"/>
<path d="M213.548 66.5249H212.207V64.7129H211.997V66.5249H210.656V66.7837H211.997V68.5957H212.207V66.7837H213.548V66.5249Z" fill="#424B84"/>
<path d="M213.548 79.4674H212.207V77.6555H211.997V79.4674H210.656V79.7263H211.997V81.5382H212.207V79.7263H213.548V79.4674Z" fill="#424B84"/>
<path d="M213.548 92.41H212.207V90.598H211.997V92.41H210.656V92.6688H211.997V94.4808H212.207V92.6688H213.548V92.41Z" fill="#424B84"/>
<path d="M213.548 105.353H212.207V103.541H211.997V105.353H210.656V105.611H211.997V107.423H212.207V105.611H213.548V105.353Z" fill="#424B84"/>
<path d="M213.548 118.295H212.207V116.483H211.997V118.295H210.656V118.554H211.997V120.366H212.207V118.554H213.548V118.295Z" fill="#424B84"/>
<path d="M213.548 131.238H212.207V129.426H211.997V131.238H210.656V131.497H211.997V133.309H212.207V131.497H213.548V131.238Z" fill="#424B84"/>
<path d="M213.548 144.18H212.207V142.368H211.997V144.18H210.656V144.439H211.997V146.251H212.207V144.439H213.548V144.18Z" fill="#424B84"/>
<path d="M203.974 1.81196H202.633V0H202.423V1.81196H201.082V2.07081H202.423V3.88277H202.633V2.07081H203.974V1.81196Z" fill="#424B84"/>
<path d="M203.974 14.7545H202.633V12.9426H202.423V14.7545H201.082V15.0134H202.423V16.8253H202.633V15.0134H203.974V14.7545Z" fill="#424B84"/>
<path d="M203.974 27.6971H202.633V25.8851H202.423V27.6971H201.082V27.9559H202.423V29.7679H202.633V27.9559H203.974V27.6971Z" fill="#424B84"/>
<path d="M203.974 40.6397H202.633V38.8277H202.423V40.6397H201.082V40.8985H202.423V42.7105H202.633V40.8985H203.974V40.6397Z" fill="#424B84"/>
<path d="M203.974 53.5822H202.633V51.7703H202.423V53.5822H201.082V53.8411H202.423V55.653H202.633V53.8411H203.974V53.5822Z" fill="#424B84"/>
<path d="M203.974 66.5249H202.633V64.7129H202.423V66.5249H201.082V66.7837H202.423V68.5957H202.633V66.7837H203.974V66.5249Z" fill="#424B84"/>
<path d="M203.974 79.4674H202.633V77.6555H202.423V79.4674H201.082V79.7263H202.423V81.5382H202.633V79.7263H203.974V79.4674Z" fill="#424B84"/>
<path d="M203.974 92.41H202.633V90.598H202.423V92.41H201.082V92.6688H202.423V94.4808H202.633V92.6688H203.974V92.41Z" fill="#424B84"/>
<path d="M203.974 105.353H202.633V103.541H202.423V105.353H201.082V105.611H202.423V107.423H202.633V105.611H203.974V105.353Z" fill="#424B84"/>
<path d="M203.974 118.295H202.633V116.483H202.423V118.295H201.082V118.554H202.423V120.366H202.633V118.554H203.974V118.295Z" fill="#424B84"/>
<path d="M203.974 131.238H202.633V129.426H202.423V131.238H201.082V131.497H202.423V133.309H202.633V131.497H203.974V131.238Z" fill="#424B84"/>
<path d="M203.974 144.18H202.633V142.368H202.423V144.18H201.082V144.439H202.423V146.251H202.633V144.439H203.974V144.18Z" fill="#424B84"/>
<path d="M194.4 1.81196H193.059V0H192.848V1.81196H191.508V2.07081H192.848V3.88277H193.059V2.07081H194.4V1.81196Z" fill="#424B84"/>
<path d="M194.4 14.7545H193.059V12.9426H192.848V14.7545H191.508V15.0134H192.848V16.8253H193.059V15.0134H194.4V14.7545Z" fill="#424B84"/>
<path d="M194.4 27.6971H193.059V25.8851H192.848V27.6971H191.508V27.9559H192.848V29.7679H193.059V27.9559H194.4V27.6971Z" fill="#424B84"/>
<path d="M194.4 40.6397H193.059V38.8277H192.848V40.6397H191.508V40.8985H192.848V42.7105H193.059V40.8985H194.4V40.6397Z" fill="#424B84"/>
<path d="M194.4 53.5822H193.059V51.7703H192.848V53.5822H191.508V53.8411H192.848V55.653H193.059V53.8411H194.4V53.5822Z" fill="#424B84"/>
<path d="M194.4 66.5249H193.059V64.7129H192.848V66.5249H191.508V66.7837H192.848V68.5957H193.059V66.7837H194.4V66.5249Z" fill="#424B84"/>
<path d="M194.4 79.4674H193.059V77.6555H192.848V79.4674H191.508V79.7263H192.848V81.5382H193.059V79.7263H194.4V79.4674Z" fill="#424B84"/>
<path d="M194.4 92.41H193.059V90.598H192.848V92.41H191.508V92.6688H192.848V94.4808H193.059V92.6688H194.4V92.41Z" fill="#424B84"/>
<path d="M194.4 105.353H193.059V103.541H192.848V105.353H191.508V105.611H192.848V107.423H193.059V105.611H194.4V105.353Z" fill="#424B84"/>
<path d="M194.4 118.295H193.059V116.483H192.848V118.295H191.508V118.554H192.848V120.366H193.059V118.554H194.4V118.295Z" fill="#424B84"/>
<path d="M194.4 131.238H193.059V129.426H192.848V131.238H191.508V131.497H192.848V133.309H193.059V131.497H194.4V131.238Z" fill="#424B84"/>
<path d="M194.4 144.18H193.059V142.368H192.848V144.18H191.508V144.439H192.848V146.251H193.059V144.439H194.4V144.18Z" fill="#424B84"/>
<path d="M184.821 1.81196H183.481V0H183.27V1.81196H181.93V2.07081H183.27V3.88277H183.481V2.07081H184.821V1.81196Z" fill="#424B84"/>
<path d="M184.821 14.7545H183.481V12.9425H183.27V14.7545H181.93V15.0133H183.27V16.8253H183.481V15.0133H184.821V14.7545Z" fill="#424B84"/>
<path d="M184.821 27.6972H183.481V25.8852H183.27V27.6972H181.93V27.956H183.27V29.768H183.481V27.956H184.821V27.6972Z" fill="#424B84"/>
<path d="M184.821 40.6397H183.481V38.8277H183.27V40.6397H181.93V40.8985H183.27V42.7105H183.481V40.8985H184.821V40.6397Z" fill="#424B84"/>
<path d="M184.821 53.5822H183.481V51.7702H183.27V53.5822H181.93V53.841H183.27V55.653H183.481V53.841H184.821V53.5822Z" fill="#424B84"/>
<path d="M184.821 66.525H183.481V64.713H183.27V66.525H181.93V66.7838H183.27V68.5958H183.481V66.7838H184.821V66.525Z" fill="#424B84"/>
<path d="M184.821 79.4675H183.481V77.6555H183.27V79.4675H181.93V79.7263H183.27V81.5383H183.481V79.7263H184.821V79.4675Z" fill="#424B84"/>
<path d="M184.821 92.41H183.481V90.598H183.27V92.41H181.93V92.6688H183.27V94.4808H183.481V92.6688H184.821V92.41Z" fill="#424B84"/>
<path d="M184.821 105.353H183.481V103.541H183.27V105.353H181.93V105.611H183.27V107.423H183.481V105.611H184.821V105.353Z" fill="#424B84"/>
<path d="M184.821 118.295H183.481V116.483H183.27V118.295H181.93V118.554H183.27V120.366H183.481V118.554H184.821V118.295Z" fill="#424B84"/>
<path d="M184.821 131.238H183.481V129.426H183.27V131.238H181.93V131.497H183.27V133.309H183.481V131.497H184.821V131.238Z" fill="#424B84"/>
<path d="M184.821 144.18H183.481V142.368H183.27V144.18H181.93V144.439H183.27V146.251H183.481V144.439H184.821V144.18Z" fill="#424B84"/>
<path d="M175.247 1.81196H173.907V0H173.696V1.81196H172.355V2.07081H173.696V3.88277H173.907V2.07081H175.247V1.81196Z" fill="#424B84"/>
<path d="M175.247 14.7545H173.907V12.9425H173.696V14.7545H172.355V15.0133H173.696V16.8253H173.907V15.0133H175.247V14.7545Z" fill="#424B84"/>
<path d="M175.247 27.6972H173.907V25.8852H173.696V27.6972H172.355V27.956H173.696V29.768H173.907V27.956H175.247V27.6972Z" fill="#424B84"/>
<path d="M175.247 40.6397H173.907V38.8277H173.696V40.6397H172.355V40.8985H173.696V42.7105H173.907V40.8985H175.247V40.6397Z" fill="#424B84"/>
<path d="M175.247 53.5822H173.907V51.7702H173.696V53.5822H172.355V53.841H173.696V55.653H173.907V53.841H175.247V53.5822Z" fill="#424B84"/>
<path d="M175.247 66.525H173.907V64.713H173.696V66.525H172.355V66.7838H173.696V68.5958H173.907V66.7838H175.247V66.525Z" fill="#424B84"/>
<path d="M175.247 79.4675H173.907V77.6555H173.696V79.4675H172.355V79.7263H173.696V81.5383H173.907V79.7263H175.247V79.4675Z" fill="#424B84"/>
<path d="M175.247 92.41H173.907V90.598H173.696V92.41H172.355V92.6688H173.696V94.4808H173.907V92.6688H175.247V92.41Z" fill="#424B84"/>
<path d="M175.247 105.353H173.907V103.541H173.696V105.353H172.355V105.611H173.696V107.423H173.907V105.611H175.247V105.353Z" fill="#424B84"/>
<path d="M175.247 118.295H173.907V116.483H173.696V118.295H172.355V118.554H173.696V120.366H173.907V118.554H175.247V118.295Z" fill="#424B84"/>
<path d="M175.247 131.238H173.907V129.426H173.696V131.238H172.355V131.497H173.696V133.309H173.907V131.497H175.247V131.238Z" fill="#424B84"/>
<path d="M175.247 144.18H173.907V142.368H173.696V144.18H172.355V144.439H173.696V146.251H173.907V144.439H175.247V144.18Z" fill="#424B84"/>
<path d="M165.673 1.81196H164.332V0H164.122V1.81196H162.781V2.07081H164.122V3.88277H164.332V2.07081H165.673V1.81196Z" fill="#424B84"/>
<path d="M165.673 14.7545H164.332V12.9425H164.122V14.7545H162.781V15.0133H164.122V16.8253H164.332V15.0133H165.673V14.7545Z" fill="#424B84"/>
<path d="M165.673 27.6972H164.332V25.8852H164.122V27.6972H162.781V27.956H164.122V29.768H164.332V27.956H165.673V27.6972Z" fill="#424B84"/>
<path d="M165.673 40.6397H164.332V38.8277H164.122V40.6397H162.781V40.8985H164.122V42.7105H164.332V40.8985H165.673V40.6397Z" fill="#424B84"/>
<path d="M165.673 53.5822H164.332V51.7703H164.122V53.5822H162.781V53.8411H164.122V55.653H164.332V53.8411H165.673V53.5822Z" fill="#424B84"/>
<path d="M165.673 66.5249H164.332V64.7129H164.122V66.5249H162.781V66.7837H164.122V68.5957H164.332V66.7837H165.673V66.5249Z" fill="#424B84"/>
<path d="M165.673 79.4674H164.332V77.6555H164.122V79.4674H162.781V79.7263H164.122V81.5382H164.332V79.7263H165.673V79.4674Z" fill="#424B84"/>
<path d="M165.673 92.41H164.332V90.598H164.122V92.41H162.781V92.6688H164.122V94.4808H164.332V92.6688H165.673V92.41Z" fill="#424B84"/>
<path d="M165.673 105.353H164.332V103.541H164.122V105.353H162.781V105.611H164.122V107.423H164.332V105.611H165.673V105.353Z" fill="#424B84"/>
<path d="M165.673 118.295H164.332V116.483H164.122V118.295H162.781V118.554H164.122V120.366H164.332V118.554H165.673V118.295Z" fill="#424B84"/>
<path d="M165.673 131.238H164.332V129.426H164.122V131.238H162.781V131.497H164.122V133.309H164.332V131.497H165.673V131.238Z" fill="#424B84"/>
<path d="M165.673 144.18H164.332V142.368H164.122V144.18H162.781V144.439H164.122V146.251H164.332V144.439H165.673V144.18Z" fill="#424B84"/>
<path d="M156.095 1.81196H154.754V0H154.544V1.81196H153.203V2.07081H154.544V3.88277H154.754V2.07081H156.095V1.81196Z" fill="#424B84"/>
<path d="M156.095 14.7545H154.754V12.9425H154.544V14.7545H153.203V15.0133H154.544V16.8253H154.754V15.0133H156.095V14.7545Z" fill="#424B84"/>
<path d="M156.095 27.6972H154.754V25.8852H154.544V27.6972H153.203V27.956H154.544V29.768H154.754V27.956H156.095V27.6972Z" fill="#424B84"/>
<path d="M156.095 40.6397H154.754V38.8277H154.544V40.6397H153.203V40.8985H154.544V42.7105H154.754V40.8985H156.095V40.6397Z" fill="#424B84"/>
<path d="M156.095 53.5822H154.754V51.7703H154.544V53.5822H153.203V53.8411H154.544V55.653H154.754V53.8411H156.095V53.5822Z" fill="#424B84"/>
<path d="M156.095 66.5249H154.754V64.7129H154.544V66.5249H153.203V66.7837H154.544V68.5957H154.754V66.7837H156.095V66.5249Z" fill="#424B84"/>
<path d="M156.095 79.4674H154.754V77.6555H154.544V79.4674H153.203V79.7263H154.544V81.5382H154.754V79.7263H156.095V79.4674Z" fill="#424B84"/>
<path d="M156.095 92.41H154.754V90.598H154.544V92.41H153.203V92.6688H154.544V94.4808H154.754V92.6688H156.095V92.41Z" fill="#424B84"/>
<path d="M156.095 105.353H154.754V103.541H154.544V105.353H153.203V105.611H154.544V107.423H154.754V105.611H156.095V105.353Z" fill="#424B84"/>
<path d="M156.095 118.295H154.754V116.483H154.544V118.295H153.203V118.554H154.544V120.366H154.754V118.554H156.095V118.295Z" fill="#424B84"/>
<path d="M156.095 131.238H154.754V129.426H154.544V131.238H153.203V131.497H154.544V133.309H154.754V131.497H156.095V131.238Z" fill="#424B84"/>
<path d="M156.095 144.18H154.754V142.368H154.544V144.18H153.203V144.439H154.544V146.251H154.754V144.439H156.095V144.18Z" fill="#424B84"/>
<path d="M146.523 1.81196H145.182V0H144.971V1.81196H143.631V2.07081H144.971V3.88277H145.182V2.07081H146.523V1.81196Z" fill="#424B84"/>
<path d="M146.523 14.7545H145.182V12.9425H144.971V14.7545H143.631V15.0133H144.971V16.8253H145.182V15.0133H146.523V14.7545Z" fill="#424B84"/>
<path d="M146.523 27.6972H145.182V25.8852H144.971V27.6972H143.631V27.956H144.971V29.768H145.182V27.956H146.523V27.6972Z" fill="#424B84"/>
<path d="M146.523 40.6397H145.182V38.8277H144.971V40.6397H143.631V40.8985H144.971V42.7105H145.182V40.8985H146.523V40.6397Z" fill="#424B84"/>
<path d="M146.523 53.5822H145.182V51.7702H144.971V53.5822H143.631V53.841H144.971V55.653H145.182V53.841H146.523V53.5822Z" fill="#424B84"/>
<path d="M146.523 66.525H145.182V64.713H144.971V66.525H143.631V66.7838H144.971V68.5958H145.182V66.7838H146.523V66.525Z" fill="#424B84"/>
<path d="M146.523 79.4675H145.182V77.6555H144.971V79.4675H143.631V79.7263H144.971V81.5383H145.182V79.7263H146.523V79.4675Z" fill="#424B84"/>
<path d="M146.523 92.41H145.182V90.598H144.971V92.41H143.631V92.6688H144.971V94.4808H145.182V92.6688H146.523V92.41Z" fill="#424B84"/>
<path d="M146.523 105.353H145.182V103.541H144.971V105.353H143.631V105.611H144.971V107.423H145.182V105.611H146.523V105.353Z" fill="#424B84"/>
<path d="M146.523 118.295H145.182V116.483H144.971V118.295H143.631V118.554H144.971V120.366H145.182V118.554H146.523V118.295Z" fill="#424B84"/>
<path d="M146.523 131.238H145.182V129.426H144.971V131.238H143.631V131.497H144.971V133.309H145.182V131.497H146.523V131.238Z" fill="#424B84"/>
<path d="M146.523 144.18H145.182V142.368H144.971V144.18H143.631V144.439H144.971V146.251H145.182V144.439H146.523V144.18Z" fill="#424B84"/>
<path d="M136.948 1.81196H135.608V0H135.397V1.81196H134.057V2.07081H135.397V3.88277H135.608V2.07081H136.948V1.81196Z" fill="#424B84"/>
<path d="M136.948 14.7545H135.608V12.9425H135.397V14.7545H134.057V15.0133H135.397V16.8253H135.608V15.0133H136.948V14.7545Z" fill="#424B84"/>
<path d="M136.948 27.697H135.608V25.885H135.397V27.697H134.057V27.9558H135.397V29.7678H135.608V27.9558H136.948V27.697Z" fill="#424B84"/>
<path d="M136.948 40.6397H135.608V38.8277H135.397V40.6397H134.057V40.8985H135.397V42.7105H135.608V40.8985H136.948V40.6397Z" fill="#424B84"/>
<path d="M136.948 53.5822H135.608V51.7702H135.397V53.5822H134.057V53.841H135.397V55.653H135.608V53.841H136.948V53.5822Z" fill="#424B84"/>
<path d="M136.948 66.5247H135.608V64.7127H135.397V66.5247H134.057V66.7835H135.397V68.5955H135.608V66.7835H136.948V66.5247Z" fill="#424B84"/>
<path d="M136.948 79.4675H135.608V77.6555H135.397V79.4675H134.057V79.7263H135.397V81.5383H135.608V79.7263H136.948V79.4675Z" fill="#424B84"/>
<path d="M136.948 92.41H135.608V90.598H135.397V92.41H134.057V92.6688H135.397V94.4808H135.608V92.6688H136.948V92.41Z" fill="#424B84"/>
<path d="M136.948 105.353H135.608V103.541H135.397V105.353H134.057V105.611H135.397V107.423H135.608V105.611H136.948V105.353Z" fill="#424B84"/>
<path d="M136.948 118.295H135.608V116.483H135.397V118.295H134.057V118.554H135.397V120.366H135.608V118.554H136.948V118.295Z" fill="#424B84"/>
<path d="M136.948 131.238H135.608V129.426H135.397V131.238H134.057V131.497H135.397V133.309H135.608V131.497H136.948V131.238Z" fill="#424B84"/>
<path d="M136.948 144.18H135.608V142.368H135.397V144.18H134.057V144.439H135.397V146.251H135.608V144.439H136.948V144.18Z" fill="#424B84"/>
<path d="M127.374 1.81196H126.034V0H125.823V1.81196H124.482V2.07081H125.823V3.88277H126.034V2.07081H127.374V1.81196Z" fill="#424B84"/>
<path d="M127.374 14.7545H126.034V12.9425H125.823V14.7545H124.482V15.0133H125.823V16.8253H126.034V15.0133H127.374V14.7545Z" fill="#424B84"/>
<path d="M127.374 27.6972H126.034V25.8852H125.823V27.6972H124.482V27.956H125.823V29.768H126.034V27.956H127.374V27.6972Z" fill="#424B84"/>
<path d="M127.374 40.6397H126.034V38.8277H125.823V40.6397H124.482V40.8985H125.823V42.7105H126.034V40.8985H127.374V40.6397Z" fill="#424B84"/>
<path d="M127.374 53.5822H126.034V51.7702H125.823V53.5822H124.482V53.841H125.823V55.653H126.034V53.841H127.374V53.5822Z" fill="#424B84"/>
<path d="M127.374 66.525H126.034V64.713H125.823V66.525H124.482V66.7838H125.823V68.5958H126.034V66.7838H127.374V66.525Z" fill="#424B84"/>
<path d="M127.374 79.4675H126.034V77.6555H125.823V79.4675H124.482V79.7263H125.823V81.5383H126.034V79.7263H127.374V79.4675Z" fill="#424B84"/>
<path d="M127.374 92.41H126.034V90.598H125.823V92.41H124.482V92.6688H125.823V94.4808H126.034V92.6688H127.374V92.41Z" fill="#424B84"/>
<path d="M127.374 105.353H126.034V103.541H125.823V105.353H124.482V105.611H125.823V107.423H126.034V105.611H127.374V105.353Z" fill="#424B84"/>
<path d="M127.374 118.295H126.034V116.483H125.823V118.295H124.482V118.554H125.823V120.366H126.034V118.554H127.374V118.295Z" fill="#424B84"/>
<path d="M127.374 131.238H126.034V129.426H125.823V131.238H124.482V131.497H125.823V133.309H126.034V131.497H127.374V131.238Z" fill="#424B84"/>
<path d="M127.374 144.18H126.034V142.368H125.823V144.18H124.482V144.439H125.823V146.251H126.034V144.439H127.374V144.18Z" fill="#424B84"/>
<path d="M117.794 1.81196H116.454V0H116.243V1.81196H114.902V2.07081H116.243V3.88277H116.454V2.07081H117.794V1.81196Z" fill="#424B84"/>
<path d="M117.794 14.7545H116.454V12.9425H116.243V14.7545H114.902V15.0133H116.243V16.8253H116.454V15.0133H117.794V14.7545Z" fill="#424B84"/>
<path d="M117.794 27.6972H116.454V25.8852H116.243V27.6972H114.902V27.956H116.243V29.768H116.454V27.956H117.794V27.6972Z" fill="#424B84"/>
<path d="M117.794 40.6397H116.454V38.8277H116.243V40.6397H114.902V40.8985H116.243V42.7105H116.454V40.8985H117.794V40.6397Z" fill="#424B84"/>
<path d="M117.794 53.5822H116.454V51.7702H116.243V53.5822H114.902V53.841H116.243V55.653H116.454V53.841H117.794V53.5822Z" fill="#424B84"/>
<path d="M117.794 66.525H116.454V64.713H116.243V66.525H114.902V66.7838H116.243V68.5958H116.454V66.7838H117.794V66.525Z" fill="#424B84"/>
<path d="M117.794 79.4675H116.454V77.6555H116.243V79.4675H114.902V79.7263H116.243V81.5383H116.454V79.7263H117.794V79.4675Z" fill="#424B84"/>
<path d="M117.794 92.41H116.454V90.598H116.243V92.41H114.902V92.6688H116.243V94.4808H116.454V92.6688H117.794V92.41Z" fill="#424B84"/>
<path d="M117.794 105.353H116.454V103.541H116.243V105.353H114.902V105.611H116.243V107.423H116.454V105.611H117.794V105.353Z" fill="#424B84"/>
<path d="M117.794 118.295H116.454V116.483H116.243V118.295H114.902V118.554H116.243V120.366H116.454V118.554H117.794V118.295Z" fill="#424B84"/>
<path d="M117.794 131.238H116.454V129.426H116.243V131.238H114.902V131.497H116.243V133.309H116.454V131.497H117.794V131.238Z" fill="#424B84"/>
<path d="M117.794 144.18H116.454V142.368H116.243V144.18H114.902V144.439H116.243V146.251H116.454V144.439H117.794V144.18Z" fill="#424B84"/>
<path d="M108.22 1.81196H106.879V0H106.669V1.81196H105.328V2.07081H106.669V3.88277H106.879V2.07081H108.22V1.81196Z" fill="#424B84"/>
<path d="M108.22 14.7545H106.879V12.9425H106.669V14.7545H105.328V15.0133H106.669V16.8253H106.879V15.0133H108.22V14.7545Z" fill="#424B84"/>
<path d="M108.22 27.6972H106.879V25.8852H106.669V27.6972H105.328V27.956H106.669V29.768H106.879V27.956H108.22V27.6972Z" fill="#424B84"/>
<path d="M108.22 40.6397H106.879V38.8277H106.669V40.6397H105.328V40.8985H106.669V42.7105H106.879V40.8985H108.22V40.6397Z" fill="#424B84"/>
<path d="M108.22 53.5822H106.879V51.7702H106.669V53.5822H105.328V53.841H106.669V55.653H106.879V53.841H108.22V53.5822Z" fill="#424B84"/>
<path d="M108.22 66.525H106.879V64.713H106.669V66.525H105.328V66.7838H106.669V68.5958H106.879V66.7838H108.22V66.525Z" fill="#424B84"/>
<path d="M108.22 79.4675H106.879V77.6555H106.669V79.4675H105.328V79.7263H106.669V81.5383H106.879V79.7263H108.22V79.4675Z" fill="#424B84"/>
<path d="M108.22 92.41H106.879V90.598H106.669V92.41H105.328V92.6688H106.669V94.4808H106.879V92.6688H108.22V92.41Z" fill="#424B84"/>
<path d="M108.22 105.353H106.879V103.541H106.669V105.353H105.328V105.611H106.669V107.423H106.879V105.611H108.22V105.353Z" fill="#424B84"/>
<path d="M108.22 118.295H106.879V116.483H106.669V118.295H105.328V118.554H106.669V120.366H106.879V118.554H108.22V118.295Z" fill="#424B84"/>
<path d="M108.22 131.238H106.879V129.426H106.669V131.238H105.328V131.497H106.669V133.309H106.879V131.497H108.22V131.238Z" fill="#424B84"/>
<path d="M108.22 144.18H106.879V142.368H106.669V144.18H105.328V144.439H106.669V146.251H106.879V144.439H108.22V144.18Z" fill="#424B84"/>
<path d="M98.6476 1.81196H97.3071V0H97.0964V1.81196H95.7559V2.07081H97.0964V3.88277H97.3071V2.07081H98.6476V1.81196Z" fill="#424B84"/>
<path d="M98.6476 14.7545H97.3071V12.9425H97.0964V14.7545H95.7559V15.0133H97.0964V16.8253H97.3071V15.0133H98.6476V14.7545Z" fill="#424B84"/>
<path d="M98.6476 27.6972H97.3071V25.8852H97.0964V27.6972H95.7559V27.956H97.0964V29.768H97.3071V27.956H98.6476V27.6972Z" fill="#424B84"/>
<path d="M98.6476 40.6397H97.3071V38.8277H97.0964V40.6397H95.7559V40.8985H97.0964V42.7105H97.3071V40.8985H98.6476V40.6397Z" fill="#424B84"/>
<path d="M98.6476 53.5822H97.3071V51.7702H97.0964V53.5822H95.7559V53.841H97.0964V55.653H97.3071V53.841H98.6476V53.5822Z" fill="#424B84"/>
<path d="M98.6476 66.525H97.3071V64.713H97.0964V66.525H95.7559V66.7838H97.0964V68.5958H97.3071V66.7838H98.6476V66.525Z" fill="#424B84"/>
<path d="M98.6476 79.4675H97.3071V77.6555H97.0964V79.4675H95.7559V79.7263H97.0964V81.5383H97.3071V79.7263H98.6476V79.4675Z" fill="#424B84"/>
<path d="M98.6476 92.41H97.3071V90.598H97.0964V92.41H95.7559V92.6688H97.0964V94.4808H97.3071V92.6688H98.6476V92.41Z" fill="#424B84"/>
<path d="M98.6476 105.353H97.3071V103.541H97.0964V105.353H95.7559V105.611H97.0964V107.423H97.3071V105.611H98.6476V105.353Z" fill="#424B84"/>
<path d="M98.6476 118.295H97.3071V116.483H97.0964V118.295H95.7559V118.554H97.0964V120.366H97.3071V118.554H98.6476V118.295Z" fill="#424B84"/>
<path d="M98.6476 131.238H97.3071V129.426H97.0964V131.238H95.7559V131.497H97.0964V133.309H97.3071V131.497H98.6476V131.238Z" fill="#424B84"/>
<path d="M98.6476 144.18H97.3071V142.368H97.0964V144.18H95.7559V144.439H97.0964V146.251H97.3071V144.439H98.6476V144.18Z" fill="#424B84"/>
<path d="M89.0715 1.81196H87.7309V0H87.5202V1.81196H86.1797V2.07081H87.5202V3.88277H87.7309V2.07081H89.0715V1.81196Z" fill="#424B84"/>
<path d="M89.0715 14.7545H87.7309V12.9425H87.5202V14.7545H86.1797V15.0133H87.5202V16.8253H87.7309V15.0133H89.0715V14.7545Z" fill="#424B84"/>
<path d="M89.0715 27.6972H87.7309V25.8852H87.5202V27.6972H86.1797V27.956H87.5202V29.768H87.7309V27.956H89.0715V27.6972Z" fill="#424B84"/>
<path d="M89.0715 40.6397H87.7309V38.8277H87.5202V40.6397H86.1797V40.8985H87.5202V42.7105H87.7309V40.8985H89.0715V40.6397Z" fill="#424B84"/>
<path d="M89.0715 53.5822H87.7309V51.7702H87.5202V53.5822H86.1797V53.841H87.5202V55.653H87.7309V53.841H89.0715V53.5822Z" fill="#424B84"/>
<path d="M89.0715 66.525H87.7309V64.713H87.5202V66.525H86.1797V66.7838H87.5202V68.5958H87.7309V66.7838H89.0715V66.525Z" fill="#424B84"/>
<path d="M89.0715 79.4675H87.7309V77.6555H87.5202V79.4675H86.1797V79.7263H87.5202V81.5383H87.7309V79.7263H89.0715V79.4675Z" fill="#424B84"/>
<path d="M89.0715 92.41H87.7309V90.598H87.5202V92.41H86.1797V92.6688H87.5202V94.4808H87.7309V92.6688H89.0715V92.41Z" fill="#424B84"/>
<path d="M89.0715 105.353H87.7309V103.541H87.5202V105.353H86.1797V105.611H87.5202V107.423H87.7309V105.611H89.0715V105.353Z" fill="#424B84"/>
<path d="M89.0715 118.295H87.7309V116.483H87.5202V118.295H86.1797V118.554H87.5202V120.366H87.7309V118.554H89.0715V118.295Z" fill="#424B84"/>
<path d="M89.0715 131.238H87.7309V129.426H87.5202V131.238H86.1797V131.497H87.5202V133.309H87.7309V131.497H89.0715V131.238Z" fill="#424B84"/>
<path d="M89.0715 144.18H87.7309V142.368H87.5202V144.18H86.1797V144.439H87.5202V146.251H87.7309V144.439H89.0715V144.18Z" fill="#424B84"/>
<path d="M79.4914 1.81196H78.1508V0H77.9402V1.81196H76.5996V2.07081H77.9402V3.88277H78.1508V2.07081H79.4914V1.81196Z" fill="#424B84"/>
<path d="M79.4914 14.7545H78.1508V12.9425H77.9402V14.7545H76.5996V15.0133H77.9402V16.8253H78.1508V15.0133H79.4914V14.7545Z" fill="#424B84"/>
<path d="M79.4914 27.6972H78.1508V25.8852H77.9402V27.6972H76.5996V27.956H77.9402V29.768H78.1508V27.956H79.4914V27.6972Z" fill="#424B84"/>
<path d="M79.4914 40.6397H78.1508V38.8277H77.9402V40.6397H76.5996V40.8985H77.9402V42.7105H78.1508V40.8985H79.4914V40.6397Z" fill="#424B84"/>
<path d="M79.4914 53.5822H78.1508V51.7702H77.9402V53.5822H76.5996V53.841H77.9402V55.653H78.1508V53.841H79.4914V53.5822Z" fill="#424B84"/>
<path d="M79.4914 66.525H78.1508V64.713H77.9402V66.525H76.5996V66.7838H77.9402V68.5958H78.1508V66.7838H79.4914V66.525Z" fill="#424B84"/>
<path d="M79.4914 79.4675H78.1508V77.6555H77.9402V79.4675H76.5996V79.7263H77.9402V81.5383H78.1508V79.7263H79.4914V79.4675Z" fill="#424B84"/>
<path d="M79.4914 92.41H78.1508V90.598H77.9402V92.41H76.5996V92.6688H77.9402V94.4808H78.1508V92.6688H79.4914V92.41Z" fill="#424B84"/>
<path d="M79.4914 105.353H78.1508V103.541H77.9402V105.353H76.5996V105.611H77.9402V107.423H78.1508V105.611H79.4914V105.353Z" fill="#424B84"/>
<path d="M79.4914 118.295H78.1508V116.483H77.9402V118.295H76.5996V118.554H77.9402V120.366H78.1508V118.554H79.4914V118.295Z" fill="#424B84"/>
<path d="M79.4914 131.238H78.1508V129.426H77.9402V131.238H76.5996V131.497H77.9402V133.309H78.1508V131.497H79.4914V131.238Z" fill="#424B84"/>
<path d="M79.4914 144.18H78.1508V142.368H77.9402V144.18H76.5996V144.439H77.9402V146.251H78.1508V144.439H79.4914V144.18Z" fill="#424B84"/>
<path d="M69.9172 1.81196H68.5766V0H68.3659V1.81196H67.0254V2.07081H68.3659V3.88277H68.5766V2.07081H69.9172V1.81196Z" fill="#424B84"/>
<path d="M69.9172 14.7545H68.5766V12.9425H68.3659V14.7545H67.0254V15.0133H68.3659V16.8253H68.5766V15.0133H69.9172V14.7545Z" fill="#424B84"/>
<path d="M69.9172 27.697H68.5766V25.885H68.3659V27.697H67.0254V27.9558H68.3659V29.7678H68.5766V27.9558H69.9172V27.697Z" fill="#424B84"/>
<path d="M69.9172 40.6397H68.5766V38.8277H68.3659V40.6397H67.0254V40.8985H68.3659V42.7105H68.5766V40.8985H69.9172V40.6397Z" fill="#424B84"/>
<path d="M69.9172 53.5822H68.5766V51.7702H68.3659V53.5822H67.0254V53.841H68.3659V55.653H68.5766V53.841H69.9172V53.5822Z" fill="#424B84"/>
<path d="M69.9172 66.5247H68.5766V64.7127H68.3659V66.5247H67.0254V66.7835H68.3659V68.5955H68.5766V66.7835H69.9172V66.5247Z" fill="#424B84"/>
<path d="M69.9172 79.4675H68.5766V77.6555H68.3659V79.4675H67.0254V79.7263H68.3659V81.5383H68.5766V79.7263H69.9172V79.4675Z" fill="#424B84"/>
<path d="M69.9172 92.41H68.5766V90.598H68.3659V92.41H67.0254V92.6688H68.3659V94.4808H68.5766V92.6688H69.9172V92.41Z" fill="#424B84"/>
<path d="M69.9172 105.353H68.5766V103.541H68.3659V105.353H67.0254V105.611H68.3659V107.423H68.5766V105.611H69.9172V105.353Z" fill="#424B84"/>
<path d="M69.9172 118.295H68.5766V116.483H68.3659V118.295H67.0254V118.554H68.3659V120.366H68.5766V118.554H69.9172V118.295Z" fill="#424B84"/>
<path d="M69.9172 131.238H68.5766V129.426H68.3659V131.238H67.0254V131.497H68.3659V133.309H68.5766V131.497H69.9172V131.238Z" fill="#424B84"/>
<path d="M69.9172 144.18H68.5766V142.368H68.3659V144.18H67.0254V144.439H68.3659V146.251H68.5766V144.439H69.9172V144.18Z" fill="#424B84"/>
<path d="M60.341 1.81196H59.0004V0H58.7898V1.81196H57.4492V2.07081H58.7898V3.88277H59.0004V2.07081H60.341V1.81196Z" fill="#424B84"/>
<path d="M60.341 14.7545H59.0004V12.9425H58.7898V14.7545H57.4492V15.0133H58.7898V16.8253H59.0004V15.0133H60.341V14.7545Z" fill="#424B84"/>
<path d="M60.341 27.6972H59.0004V25.8852H58.7898V27.6972H57.4492V27.956H58.7898V29.768H59.0004V27.956H60.341V27.6972Z" fill="#424B84"/>
<path d="M60.341 40.6397H59.0004V38.8277H58.7898V40.6397H57.4492V40.8985H58.7898V42.7105H59.0004V40.8985H60.341V40.6397Z" fill="#424B84"/>
<path d="M60.341 53.5822H59.0004V51.7702H58.7898V53.5822H57.4492V53.841H58.7898V55.653H59.0004V53.841H60.341V53.5822Z" fill="#424B84"/>
<path d="M60.341 66.525H59.0004V64.713H58.7898V66.525H57.4492V66.7838H58.7898V68.5958H59.0004V66.7838H60.341V66.525Z" fill="#424B84"/>
<path d="M60.341 79.4675H59.0004V77.6555H58.7898V79.4675H57.4492V79.7263H58.7898V81.5383H59.0004V79.7263H60.341V79.4675Z" fill="#424B84"/>
<path d="M60.341 92.41H59.0004V90.598H58.7898V92.41H57.4492V92.6688H58.7898V94.4808H59.0004V92.6688H60.341V92.41Z" fill="#424B84"/>
<path d="M60.341 105.353H59.0004V103.541H58.7898V105.353H57.4492V105.611H58.7898V107.423H59.0004V105.611H60.341V105.353Z" fill="#424B84"/>
<path d="M60.341 118.295H59.0004V116.483H58.7898V118.295H57.4492V118.554H58.7898V120.366H59.0004V118.554H60.341V118.295Z" fill="#424B84"/>
<path d="M60.341 131.238H59.0004V129.426H58.7898V131.238H57.4492V131.497H58.7898V133.309H59.0004V131.497H60.341V131.238Z" fill="#424B84"/>
<path d="M60.341 144.18H59.0004V142.368H58.7898V144.18H57.4492V144.439H58.7898V146.251H59.0004V144.439H60.341V144.18Z" fill="#424B84"/>
<path d="M50.7687 1.81196H49.4282V0H49.2175V1.81196H47.877V2.07081H49.2175V3.88277H49.4282V2.07081H50.7687V1.81196Z" fill="#424B84"/>
<path d="M50.7687 14.7545H49.4282V12.9425H49.2175V14.7545H47.877V15.0133H49.2175V16.8253H49.4282V15.0133H50.7687V14.7545Z" fill="#424B84"/>
<path d="M50.7687 27.6972H49.4282V25.8852H49.2175V27.6972H47.877V27.956H49.2175V29.768H49.4282V27.956H50.7687V27.6972Z" fill="#424B84"/>
<path d="M50.7687 40.6397H49.4282V38.8277H49.2175V40.6397H47.877V40.8985H49.2175V42.7105H49.4282V40.8985H50.7687V40.6397Z" fill="#424B84"/>
<path d="M50.7687 53.5822H49.4282V51.7703H49.2175V53.5822H47.877V53.8411H49.2175V55.653H49.4282V53.8411H50.7687V53.5822Z" fill="#424B84"/>
<path d="M50.7687 66.5249H49.4282V64.7129H49.2175V66.5249H47.877V66.7837H49.2175V68.5957H49.4282V66.7837H50.7687V66.5249Z" fill="#424B84"/>
<path d="M50.7687 79.4674H49.4282V77.6555H49.2175V79.4674H47.877V79.7263H49.2175V81.5382H49.4282V79.7263H50.7687V79.4674Z" fill="#424B84"/>
<path d="M50.7687 92.41H49.4282V90.598H49.2175V92.41H47.877V92.6688H49.2175V94.4808H49.4282V92.6688H50.7687V92.41Z" fill="#424B84"/>
<path d="M50.7687 105.353H49.4282V103.541H49.2175V105.353H47.877V105.611H49.2175V107.423H49.4282V105.611H50.7687V105.353Z" fill="#424B84"/>
<path d="M50.7687 118.295H49.4282V116.483H49.2175V118.295H47.877V118.554H49.2175V120.366H49.4282V118.554H50.7687V118.295Z" fill="#424B84"/>
<path d="M50.7687 131.238H49.4282V129.426H49.2175V131.238H47.877V131.497H49.2175V133.309H49.4282V131.497H50.7687V131.238Z" fill="#424B84"/>
<path d="M50.7687 144.18H49.4282V142.368H49.2175V144.18H47.877V144.439H49.2175V146.251H49.4282V144.439H50.7687V144.18Z" fill="#424B84"/>
<path d="M41.1925 1.81196H39.852V0H39.6413V1.81196H38.3008V2.07081H39.6413V3.88277H39.852V2.07081H41.1925V1.81196Z" fill="#424B84"/>
<path d="M41.1925 14.7545H39.852V12.9425H39.6413V14.7545H38.3008V15.0133H39.6413V16.8253H39.852V15.0133H41.1925V14.7545Z" fill="#424B84"/>
<path d="M41.1925 27.6972H39.852V25.8852H39.6413V27.6972H38.3008V27.956H39.6413V29.768H39.852V27.956H41.1925V27.6972Z" fill="#424B84"/>
<path d="M41.1925 40.6397H39.852V38.8277H39.6413V40.6397H38.3008V40.8985H39.6413V42.7105H39.852V40.8985H41.1925V40.6397Z" fill="#424B84"/>
<path d="M41.1925 53.5822H39.852V51.7703H39.6413V53.5822H38.3008V53.8411H39.6413V55.653H39.852V53.8411H41.1925V53.5822Z" fill="#424B84"/>
<path d="M41.1925 66.5249H39.852V64.7129H39.6413V66.5249H38.3008V66.7837H39.6413V68.5957H39.852V66.7837H41.1925V66.5249Z" fill="#424B84"/>
<path d="M41.1925 79.4674H39.852V77.6555H39.6413V79.4674H38.3008V79.7263H39.6413V81.5382H39.852V79.7263H41.1925V79.4674Z" fill="#424B84"/>
<path d="M41.1925 92.41H39.852V90.598H39.6413V92.41H38.3008V92.6688H39.6413V94.4808H39.852V92.6688H41.1925V92.41Z" fill="#424B84"/>
<path d="M41.1925 105.353H39.852V103.541H39.6413V105.353H38.3008V105.611H39.6413V107.423H39.852V105.611H41.1925V105.353Z" fill="#424B84"/>
<path d="M41.1925 118.295H39.852V116.483H39.6413V118.295H38.3008V118.554H39.6413V120.366H39.852V118.554H41.1925V118.295Z" fill="#424B84"/>
<path d="M41.1925 131.238H39.852V129.426H39.6413V131.238H38.3008V131.497H39.6413V133.309H39.852V131.497H41.1925V131.238Z" fill="#424B84"/>
<path d="M41.1925 144.18H39.852V142.368H39.6413V144.18H38.3008V144.439H39.6413V146.251H39.852V144.439H41.1925V144.18Z" fill="#424B84"/>
<path d="M31.6164 1.81196H30.2758V0H30.0652V1.81196H28.7246V2.07081H30.0652V3.88277H30.2758V2.07081H31.6164V1.81196Z" fill="#424B84"/>
<path d="M31.6164 14.7545H30.2758V12.9425H30.0652V14.7545H28.7246V15.0133H30.0652V16.8253H30.2758V15.0133H31.6164V14.7545Z" fill="#424B84"/>
<path d="M31.6164 27.6972H30.2758V25.8852H30.0652V27.6972H28.7246V27.956H30.0652V29.768H30.2758V27.956H31.6164V27.6972Z" fill="#424B84"/>
<path d="M31.6164 40.6397H30.2758V38.8277H30.0652V40.6397H28.7246V40.8985H30.0652V42.7105H30.2758V40.8985H31.6164V40.6397Z" fill="#424B84"/>
<path d="M31.6164 53.5822H30.2758V51.7702H30.0652V53.5822H28.7246V53.841H30.0652V55.653H30.2758V53.841H31.6164V53.5822Z" fill="#424B84"/>
<path d="M31.6164 66.525H30.2758V64.713H30.0652V66.525H28.7246V66.7838H30.0652V68.5958H30.2758V66.7838H31.6164V66.525Z" fill="#424B84"/>
<path d="M31.6164 79.4675H30.2758V77.6555H30.0652V79.4675H28.7246V79.7263H30.0652V81.5383H30.2758V79.7263H31.6164V79.4675Z" fill="#424B84"/>
<path d="M31.6164 92.41H30.2758V90.598H30.0652V92.41H28.7246V92.6688H30.0652V94.4808H30.2758V92.6688H31.6164V92.41Z" fill="#424B84"/>
<path d="M31.6164 105.353H30.2758V103.541H30.0652V105.353H28.7246V105.611H30.0652V107.423H30.2758V105.611H31.6164V105.353Z" fill="#424B84"/>
<path d="M31.6164 118.295H30.2758V116.483H30.0652V118.295H28.7246V118.554H30.0652V120.366H30.2758V118.554H31.6164V118.295Z" fill="#424B84"/>
<path d="M31.6164 131.238H30.2758V129.426H30.0652V131.238H28.7246V131.497H30.0652V133.309H30.2758V131.497H31.6164V131.238Z" fill="#424B84"/>
<path d="M31.6164 144.18H30.2758V142.368H30.0652V144.18H28.7246V144.439H30.0652V146.251H30.2758V144.439H31.6164V144.18Z" fill="#424B84"/>
<path d="M22.0382 1.81196H20.6977V0H20.487V1.81196H19.1465V2.07081H20.487V3.88277H20.6977V2.07081H22.0382V1.81196Z" fill="#424B84"/>
<path d="M22.0382 14.7545H20.6977V12.9425H20.487V14.7545H19.1465V15.0133H20.487V16.8253H20.6977V15.0133H22.0382V14.7545Z" fill="#424B84"/>
<path d="M22.0382 27.6972H20.6977V25.8852H20.487V27.6972H19.1465V27.956H20.487V29.768H20.6977V27.956H22.0382V27.6972Z" fill="#424B84"/>
<path d="M22.0382 40.6397H20.6977V38.8277H20.487V40.6397H19.1465V40.8985H20.487V42.7105H20.6977V40.8985H22.0382V40.6397Z" fill="#424B84"/>
<path d="M22.0382 53.5822H20.6977V51.7702H20.487V53.5822H19.1465V53.841H20.487V55.653H20.6977V53.841H22.0382V53.5822Z" fill="#424B84"/>
<path d="M22.0382 66.525H20.6977V64.713H20.487V66.525H19.1465V66.7838H20.487V68.5958H20.6977V66.7838H22.0382V66.525Z" fill="#424B84"/>
<path d="M22.0382 79.4675H20.6977V77.6555H20.487V79.4675H19.1465V79.7263H20.487V81.5383H20.6977V79.7263H22.0382V79.4675Z" fill="#424B84"/>
<path d="M22.0382 92.41H20.6977V90.598H20.487V92.41H19.1465V92.6688H20.487V94.4808H20.6977V92.6688H22.0382V92.41Z" fill="#424B84"/>
<path d="M22.0382 105.353H20.6977V103.541H20.487V105.353H19.1465V105.611H20.487V107.423H20.6977V105.611H22.0382V105.353Z" fill="#424B84"/>
<path d="M22.0382 118.295H20.6977V116.483H20.487V118.295H19.1465V118.554H20.487V120.366H20.6977V118.554H22.0382V118.295Z" fill="#424B84"/>
<path d="M22.0382 131.238H20.6977V129.426H20.487V131.238H19.1465V131.497H20.487V133.309H20.6977V131.497H22.0382V131.238Z" fill="#424B84"/>
<path d="M22.0382 144.18H20.6977V142.368H20.487V144.18H19.1465V144.439H20.487V146.251H20.6977V144.439H22.0382V144.18Z" fill="#424B84"/>
<path d="M12.466 1.81196H11.1254V0H10.9148V1.81196H9.57422V2.07081H10.9148V3.88277H11.1254V2.07081H12.466V1.81196Z" fill="#424B84"/>
<path d="M12.466 14.7545H11.1254V12.9425H10.9148V14.7545H9.57422V15.0133H10.9148V16.8253H11.1254V15.0133H12.466V14.7545Z" fill="#424B84"/>
<path d="M12.466 27.6972H11.1254V25.8852H10.9148V27.6972H9.57422V27.956H10.9148V29.768H11.1254V27.956H12.466V27.6972Z" fill="#424B84"/>
<path d="M12.466 40.6397H11.1254V38.8277H10.9148V40.6397H9.57422V40.8985H10.9148V42.7105H11.1254V40.8985H12.466V40.6397Z" fill="#424B84"/>
<path d="M12.466 53.5822H11.1254V51.7703H10.9148V53.5822H9.57422V53.8411H10.9148V55.653H11.1254V53.8411H12.466V53.5822Z" fill="#424B84"/>
<path d="M12.466 66.5249H11.1254V64.7129H10.9148V66.5249H9.57422V66.7837H10.9148V68.5957H11.1254V66.7837H12.466V66.5249Z" fill="#424B84"/>
<path d="M12.466 79.4674H11.1254V77.6555H10.9148V79.4674H9.57422V79.7263H10.9148V81.5382H11.1254V79.7263H12.466V79.4674Z" fill="#424B84"/>
<path d="M12.466 92.41H11.1254V90.598H10.9148V92.41H9.57422V92.6688H10.9148V94.4808H11.1254V92.6688H12.466V92.41Z" fill="#424B84"/>
<path d="M12.466 105.353H11.1254V103.541H10.9148V105.353H9.57422V105.611H10.9148V107.423H11.1254V105.611H12.466V105.353Z" fill="#424B84"/>
<path d="M12.466 118.295H11.1254V116.483H10.9148V118.295H9.57422V118.554H10.9148V120.366H11.1254V118.554H12.466V118.295Z" fill="#424B84"/>
<path d="M12.466 131.238H11.1254V129.426H10.9148V131.238H9.57422V131.497H10.9148V133.309H11.1254V131.497H12.466V131.238Z" fill="#424B84"/>
<path d="M12.466 144.18H11.1254V142.368H10.9148V144.18H9.57422V144.439H10.9148V146.251H11.1254V144.439H12.466V144.18Z" fill="#424B84"/>
<path d="M2.89176 1.81196H1.55122V0H1.34054V1.81196H0V2.07081H1.34054V3.88277H1.55122V2.07081H2.89176V1.81196Z" fill="#424B84"/>
<path d="M2.89176 14.7546H1.55122V12.9426H1.34054V14.7546H0V15.0134H1.34054V16.8254H1.55122V15.0134H2.89176V14.7546Z" fill="#424B84"/>
<path d="M2.89176 27.6971H1.55122V25.8851H1.34054V27.6971H0V27.9559H1.34054V29.7679H1.55122V27.9559H2.89176V27.6971Z" fill="#424B84"/>
<path d="M2.89176 40.6397H1.55122V38.8277H1.34054V40.6397H0V40.8985H1.34054V42.7105H1.55122V40.8985H2.89176V40.6397Z" fill="#424B84"/>
<path d="M2.89176 53.5823H1.55122V51.7703H1.34054V53.5823H0V53.8411H1.34054V55.6531H1.55122V53.8411H2.89176V53.5823Z" fill="#424B84"/>
<path d="M2.89176 66.5248H1.55122V64.7128H1.34054V66.5248H0V66.7836H1.34054V68.5956H1.55122V66.7836H2.89176V66.5248Z" fill="#424B84"/>
<path d="M2.89176 79.4674H1.55122V77.6555H1.34054V79.4674H0V79.7263H1.34054V81.5382H1.55122V79.7263H2.89176V79.4674Z" fill="#424B84"/>
<path d="M2.89176 92.41H1.55122V90.598H1.34054V92.41H0V92.6688H1.34054V94.4808H1.55122V92.6688H2.89176V92.41Z" fill="#424B84"/>
<path d="M2.89176 105.353H1.55122V103.541H1.34054V105.353H0V105.611H1.34054V107.423H1.55122V105.611H2.89176V105.353Z" fill="#424B84"/>
<path d="M2.89176 118.295H1.55122V116.483H1.34054V118.295H0V118.554H1.34054V120.366H1.55122V118.554H2.89176V118.295Z" fill="#424B84"/>
<path d="M2.89176 131.238H1.55122V129.426H1.34054V131.238H0V131.497H1.34054V133.309H1.55122V131.497H2.89176V131.238Z" fill="#424B84"/>
<path d="M2.89176 144.18H1.55122V142.368H1.34054V144.18H0V144.439H1.34054V146.251H1.55122V144.439H2.89176V144.18Z" fill="#424B84"/>
</svg>
