<svg width="80" height="64" viewBox="0 0 80 64" fill="none" xmlns="http://www.w3.org/2000/svg">
<g clip-path="url(#clip0_684_11692)">
<mask id="mask0_684_11692" style="mask-type:luminance" maskUnits="userSpaceOnUse" x="0" y="0" width="80" height="64">
<path d="M0 0H80V64H0V0Z" fill="white"/>
</mask>
<g mask="url(#mask0_684_11692)">
<path d="M43.4058 17.531H4.17578C3.6235 17.531 3.17578 17.9787 3.17578 18.531V27.776C3.17578 28.3283 3.6235 28.776 4.17578 28.776H43.4058C43.9581 28.776 44.4058 28.3283 44.4058 27.776V18.531C44.4058 17.9787 43.9581 17.531 43.4058 17.531Z" fill="#D5D4FF"/>
<path d="M43.4058 30.624H4.17578C3.6235 30.624 3.17578 31.0717 3.17578 31.624V40.869C3.17578 41.4213 3.6235 41.869 4.17578 41.869H43.4058C43.9581 41.869 44.4058 41.4213 44.4058 40.869V31.624C44.4058 31.0717 43.9581 30.624 43.4058 30.624Z" fill="#ECECED"/>
<path d="M43.4058 43.717H4.17578C3.6235 43.717 3.17578 44.1647 3.17578 44.717V53.962C3.17578 54.5143 3.6235 54.962 4.17578 54.962H43.4058C43.9581 54.962 44.4058 54.5143 44.4058 53.962V44.717C44.4058 44.1647 43.9581 43.717 43.4058 43.717Z" fill="#ECECED"/>
<path d="M39.9559 19.907H23.9189C23.3667 19.907 22.9189 20.3547 22.9189 20.907V25.4C22.9189 25.9523 23.3667 26.4 23.9189 26.4H39.9559C40.5082 26.4 40.9559 25.9523 40.9559 25.4V20.907C40.9559 20.3547 40.5082 19.907 39.9559 19.907Z" fill="#A9A6FF" stroke="#524EC5" stroke-linecap="round" stroke-dasharray="2 2"/>
<path d="M39.9559 33H23.9189C23.3667 33 22.9189 33.4477 22.9189 34V38.493C22.9189 39.0453 23.3667 39.493 23.9189 39.493H39.9559C40.5082 39.493 40.9559 39.0453 40.9559 38.493V34C40.9559 33.4477 40.5082 33 39.9559 33Z" fill="#C0C1C4"/>
<path d="M39.9559 46.093H23.9189C23.3667 46.093 22.9189 46.5407 22.9189 47.093V51.586C22.9189 52.1383 23.3667 52.586 23.9189 52.586H39.9559C40.5082 52.586 40.9559 52.1383 40.9559 51.586V47.093C40.9559 46.5407 40.5082 46.093 39.9559 46.093Z" fill="#C0C1C4"/>
<path d="M76.1934 17.531H52.8184C52.2661 17.531 51.8184 17.9787 51.8184 18.531V53.962C51.8184 54.5143 52.2661 54.962 52.8184 54.962H76.1934C76.7456 54.962 77.1934 54.5143 77.1934 53.962V18.531C77.1934 17.9787 76.7456 17.531 76.1934 17.531Z" fill="#D7D7D9"/>
<path d="M15.1918 21.329H7.49883C6.49091 21.329 5.67383 22.1461 5.67383 23.154C5.67383 24.1619 6.49091 24.979 7.49883 24.979H15.1918C16.1997 24.979 17.0168 24.1619 17.0168 23.154C17.0168 22.1461 16.1997 21.329 15.1918 21.329Z" fill="#827DF4"/>
<path d="M15.1918 34.422H7.49883C6.49091 34.422 5.67383 35.2391 5.67383 36.247C5.67383 37.2549 6.49091 38.072 7.49883 38.072H15.1918C16.1997 38.072 17.0168 37.2549 17.0168 36.247C17.0168 35.2391 16.1997 34.422 15.1918 34.422Z" fill="#A9ABAF"/>
<path d="M73.3306 28.703H55.6826C55.1303 28.703 54.6826 29.1507 54.6826 29.703V34.499C54.6826 35.0513 55.1303 35.499 55.6826 35.499H73.3306C73.8829 35.499 74.3306 35.0513 74.3306 34.499V29.703C74.3306 29.1507 73.8829 28.703 73.3306 28.703Z" fill="white"/>
<path d="M73.3306 19.907H55.6826C55.1303 19.907 54.6826 20.3547 54.6826 20.907V25.703C54.6826 26.2553 55.1303 26.703 55.6826 26.703H73.3306C73.8829 26.703 74.3306 26.2553 74.3306 25.703V20.907C74.3306 20.3547 73.8829 19.907 73.3306 19.907Z" fill="#A9ABAF"/>
<path d="M73.3306 37.494H55.6826C55.1303 37.494 54.6826 37.9417 54.6826 38.494V43.29C54.6826 43.8423 55.1303 44.29 55.6826 44.29H73.3306C73.8829 44.29 74.3306 43.8423 74.3306 43.29V38.494C74.3306 37.9417 73.8829 37.494 73.3306 37.494Z" fill="white"/>
<path d="M73.3306 46.093H55.6826C55.1303 46.093 54.6826 46.5407 54.6826 47.093V51.889C54.6826 52.4413 55.1303 52.889 55.6826 52.889H73.3306C73.8829 52.889 74.3306 52.4413 74.3306 51.889V47.093C74.3306 46.5407 73.8829 46.093 73.3306 46.093Z" fill="white"/>
<path d="M15.1918 47.515H7.49883C6.49091 47.515 5.67383 48.3321 5.67383 49.34C5.67383 50.3479 6.49091 51.165 7.49883 51.165H15.1918C16.1997 51.165 17.0168 50.3479 17.0168 49.34C17.0168 48.3321 16.1997 47.515 15.1918 47.515Z" fill="#A9ABAF"/>
<path d="M59.5836 37.4H31.2676C30.163 37.4 29.2676 36.5046 29.2676 35.4V27.457C29.2676 26.3524 30.163 25.457 31.2676 25.457H59.5836C60.6881 25.457 61.5836 26.3524 61.5836 27.457V35.4C61.5836 36.5046 60.6881 37.4 59.5836 37.4Z" fill="#524EC5"/>
<path fill-rule="evenodd" clip-rule="evenodd" d="M35.7542 42.201L35.9122 42.413V36.324C35.9122 34.978 36.9732 33.886 38.2812 33.886C39.5892 33.886 40.6492 34.978 40.6492 36.324V34.699C40.6492 33.352 41.7092 32.261 43.0172 32.261C44.3252 32.261 45.3862 33.352 45.3862 34.699L45.3242 38.379L45.3862 36.324C45.3862 34.978 46.4462 33.886 47.7542 33.886C49.0622 33.886 50.1222 34.977 50.1222 36.324V39.574C50.1222 38.228 51.1822 37.137 52.4902 37.137C53.7982 37.137 54.8582 38.228 54.8582 39.575V43.123C54.8584 46.1114 54.4623 49.0867 53.6802 51.971C53.342 53.2186 52.6025 54.3201 51.576 55.1056C50.5494 55.8911 49.2928 56.3168 48.0002 56.317H46.2892L42.0532 56.329C40.3527 56.3167 38.6953 55.7929 37.2967 54.8257C35.898 53.8585 34.8229 52.4927 34.2112 50.906L30.9442 42.438C30.5962 41.138 31.3382 39.808 32.6012 39.47" fill="white"/>
<path d="M45.3062 39.411L45.2942 40.221L45.3862 34.699C45.3862 33.352 44.3262 32.261 43.0172 32.261C41.7092 32.261 40.6492 33.352 40.6492 34.699V39.066V36.324C40.6492 34.978 39.5892 33.886 38.2812 33.886C36.9732 33.886 35.9132 34.978 35.9132 36.324V46.369M35.7532 42.201L35.5192 41.211C35.1712 39.911 33.8642 39.131 32.6012 39.47C31.3382 39.809 30.5962 41.137 30.9442 42.438L34.2112 50.906C34.8229 52.4927 35.898 53.8585 37.2967 54.8257C38.6953 55.7929 40.3527 56.3167 42.0532 56.329L46.2892 56.317H47.9992C49.292 56.317 50.5488 55.8914 51.5756 55.1059C52.6023 54.3204 53.342 53.2187 53.6802 51.971C54.4623 49.0867 54.8584 46.1114 54.8582 43.123V39.575C54.8582 38.228 53.7982 37.137 52.4902 37.137C51.1822 37.137 50.1222 38.228 50.1222 39.575V40.715V36.324C50.1222 34.978 49.0622 33.886 47.7542 33.886C46.4462 33.886 45.3862 34.978 45.3862 36.324L45.2942 39.408" stroke="#211C52" stroke-width="1.289" stroke-linecap="round" stroke-linejoin="round"/>
<path d="M37.002 6.75C37.002 6.55109 37.081 6.36032 37.2216 6.21967C37.3623 6.07902 37.553 6 37.752 6C37.9509 6 38.1416 6.07902 38.2823 6.21967C38.4229 6.36032 38.502 6.55109 38.502 6.75V11.001C40.865 8.193 44.344 6.428 47.426 6.428C49.724 6.428 51.756 6.948 53.403 8.058C55.056 9.171 56.263 10.838 56.964 13.025C57.0231 13.2139 57.0051 13.4185 56.914 13.5942C56.8229 13.7699 56.6661 13.9024 56.4777 13.963C56.2893 14.0236 56.0846 14.0072 55.9082 13.9175C55.7318 13.8277 55.598 13.6719 55.536 13.484C54.923 11.574 53.902 10.203 52.566 9.302C51.222 8.397 49.5 7.928 47.426 7.928C44.669 7.928 41.346 9.668 39.241 12.481H44.259C44.4579 12.481 44.6486 12.56 44.7893 12.7007C44.9299 12.8413 45.009 13.0321 45.009 13.231C45.009 13.4299 44.9299 13.6207 44.7893 13.7613C44.6486 13.902 44.4579 13.981 44.259 13.981H37.752C37.553 13.981 37.3623 13.902 37.2216 13.7613C37.081 13.6207 37.002 13.4299 37.002 13.231V6.75Z" fill="#6150E1"/>
</g>
</g>
<defs>
<clipPath id="clip0_684_11692">
<rect width="80" height="64" fill="white"/>
</clipPath>
</defs>
</svg>
