<svg width="41" height="28" viewBox="0 0 41 28" fill="none" xmlns="http://www.w3.org/2000/svg">
<path d="M25.0312 21.8994C25.176 21.5612 25.659 21.5612 25.8037 21.8994L26.0107 22.3848C26.3651 23.2127 27.0263 23.8737 27.8574 24.2314L28.4453 24.4844C28.7822 24.6294 28.7822 25.104 28.4453 25.249L27.8223 25.5176C27.0121 25.8664 26.3624 26.504 26.002 27.3047L25.7998 27.7539C25.6517 28.0823 25.1822 28.0824 25.0342 27.7539L24.832 27.3047C24.4715 26.5039 23.822 25.8664 23.0117 25.5176L22.3887 25.249C22.0517 25.104 22.0517 24.6294 22.3887 24.4844L22.9766 24.2314C23.8077 23.8737 24.4689 23.2126 24.8232 22.3848L25.0312 21.8994ZM24.8975 1.7373C26.3629 1.7373 27.6718 2.15022 28.8232 2.97559C29.9747 3.80095 30.775 4.87976 31.2236 6.21191L31.9795 8.93652C31.7744 9.33395 31.4927 10.3266 31.2236 10.7236C30.9545 11.1208 30.7492 11.7163 30.416 12.1631L29.9287 12.9082L27.8135 7.29785C27.5742 6.63186 27.2007 6.11784 26.6924 5.75586C26.1839 5.39386 25.5853 5.21289 24.8975 5.21289C24.2098 5.21297 23.6043 5.40097 23.0811 5.77734C22.5577 6.15379 22.1758 6.67484 21.9365 7.34082L18.0791 19.8086C17.81 20.6194 17.3238 21.2854 16.6211 21.8066C15.9183 22.3279 15.1179 22.5889 14.2207 22.5889C13.4132 22.5889 12.6654 22.3789 11.9775 21.959C11.2897 21.5391 10.7961 20.9522 10.4971 20.1992L9.28613 17.332L3.99219 27.8018H0L6.19043 15.8125C6.48948 15.2334 6.91554 14.7694 7.46875 14.4219C8.02205 14.0744 8.64317 13.9004 9.33105 13.9004C10.0487 13.9004 10.7066 14.0815 11.3047 14.4434C11.9027 14.8053 12.3363 15.3195 12.6055 15.9854L13.8174 18.8525C13.8772 19.0263 14.0114 19.1063 14.2207 19.0918C14.4301 19.0773 14.5652 18.9833 14.625 18.8096L18.4824 6.3418C18.9011 4.95182 19.7015 3.83687 20.8828 2.99707C22.064 2.15736 23.4023 1.73738 24.8975 1.7373ZM32.873 10.2217C33.1537 9.56694 34.0876 9.56685 34.3682 10.2217L35.124 11.9863C35.7768 13.5104 36.9939 14.727 38.5234 15.3848L40.5137 16.2412C41.1667 16.5222 41.1667 17.4428 40.5137 17.7236L38.459 18.6064C36.9678 19.2478 35.7726 20.4217 35.1084 21.8955L34.3623 23.5508C34.0754 24.1874 33.1658 24.1874 32.8789 23.5508L32.1328 21.8955C31.4686 20.4217 30.2725 19.2477 28.7812 18.6064L26.7275 17.7236C26.0744 17.4428 26.0744 16.5221 26.7275 16.2412L28.7178 15.3848C30.2472 14.7269 31.4644 13.5103 32.1172 11.9863L32.873 10.2217ZM8.70312 0C10.1983 8.15483e-05 11.4689 0.507034 12.5156 1.52051C13.5624 2.53411 14.0859 3.76489 14.0859 5.21289C14.0859 6.63184 13.5623 7.85576 12.5156 8.88379C11.469 9.91152 10.1982 10.4257 8.70312 10.4258C7.20787 10.4258 5.93637 9.91168 4.88965 8.88379C3.84293 7.85576 3.31939 6.63184 3.31934 5.21289C3.31934 3.76491 3.84291 2.5341 4.88965 1.52051C5.93642 0.506904 7.20773 0 8.70312 0ZM8.70312 3.47461C8.19469 3.47461 7.76777 3.64157 7.42383 3.97461C7.08001 4.30762 6.9082 4.72066 6.9082 5.21289C6.90826 5.70511 7.07994 6.11818 7.42383 6.45117C7.76776 6.78419 8.19471 6.9502 8.70312 6.9502C9.21132 6.95012 9.63762 6.78402 9.98145 6.45117C10.3253 6.11818 10.497 5.70511 10.4971 5.21289C10.4971 4.7206 10.3253 4.30764 9.98145 3.97461C9.63759 3.64165 9.2114 3.47469 8.70312 3.47461Z" fill="url(#paint0_radial_7874_26021)"/>
<defs>
<radialGradient id="paint0_radial_7874_26021" cx="0" cy="0" r="1" gradientTransform="matrix(31.9689 28.7863 -46.6151 37.3322 3.60616 0.976449)" gradientUnits="userSpaceOnUse">
<stop stop-color="#F49C46"/>
<stop offset="0.174628" stop-color="#D96570"/>
<stop offset="0.454476" stop-color="#9B72CB"/>
<stop offset="0.699779" stop-color="#5489D6"/>
<stop offset="0.9999" stop-color="#1BA1E3"/>
<stop offset="1" stop-color="#1BA1E3"/>
</radialGradient>
</defs>
</svg>
