<svg width="21" height="21" viewBox="0 0 21 21" fill="none" xmlns="http://www.w3.org/2000/svg">
<rect x="1.14372" y="1.20915" width="18.7292" height="18.7292" rx="9.36458" fill="white"/>
<rect x="1.14372" y="1.20915" width="18.7292" height="18.7292" rx="9.36458" stroke="#2A3241" stroke-width="1.27083"/>
<g clip-path="url(#clip0_5560_37947)">
<path d="M11.4509 6.88534C11.7897 6.51836 11.959 6.33486 12.139 6.22783C12.5732 5.96957 13.1079 5.96154 13.5494 6.20665C13.7324 6.30823 13.907 6.48656 14.2561 6.84321C14.6052 7.19987 14.7798 7.37819 14.8792 7.5651C15.1192 8.0161 15.1113 8.56232 14.8585 9.00591C14.7537 9.18976 14.5741 9.36276 14.2148 9.70878L9.94045 13.8257C9.25965 14.4814 8.91925 14.8093 8.49383 14.9755C8.0684 15.1416 7.60071 15.1294 6.66533 15.1049L6.53806 15.1016C6.2533 15.0942 6.11092 15.0904 6.02816 14.9965C5.94539 14.9026 5.95669 14.7576 5.97929 14.4675L5.99156 14.31C6.05517 13.4936 6.08697 13.0854 6.24639 12.7184C6.40582 12.3515 6.68082 12.0535 7.23081 11.4576L11.4509 6.88534Z" stroke="#141B34" stroke-width="1.27083" stroke-linejoin="round"/>
<path d="M10.9629 6.9375L14.1447 10.1193" stroke="#141B34" stroke-width="1.27083" stroke-linejoin="round"/>
<path d="M11.4175 15.1191L15.0538 15.1191" stroke="#141B34" stroke-width="1.27083" stroke-linecap="round" stroke-linejoin="round"/>
</g>
<defs>
<clipPath id="clip0_5560_37947">
<rect width="10.9091" height="10.9091" fill="white" transform="translate(5.05371 5.11914)"/>
</clipPath>
</defs>
</svg>
