<svg width="44" height="44" viewBox="0 0 44 44" fill="none" xmlns="http://www.w3.org/2000/svg">
<rect x="0.5" y="0.5" width="43" height="43" rx="21.5" fill="#3E50F7" fill-opacity="0.1"/>
<rect x="0.5" y="0.5" width="43" height="43" rx="21.5" stroke="#3E50F7"/>
<path d="M21 14.0002H14C13.4696 14.0002 12.9609 14.2109 12.5858 14.586C12.2107 14.9611 12 15.4698 12 16.0002V30.0002C12 30.5307 12.2107 31.0394 12.5858 31.4144C12.9609 31.7895 13.4696 32.0002 14 32.0002H28C28.5304 32.0002 29.0391 31.7895 29.4142 31.4144C29.7893 31.0394 30 30.5307 30 30.0002V23.0002M28.5 12.5002C28.8978 12.1024 29.4374 11.8789 30 11.8789C30.5626 11.8789 31.1022 12.1024 31.5 12.5002C31.8978 12.8981 32.1213 13.4376 32.1213 14.0002C32.1213 14.5628 31.8978 15.1024 31.5 15.5002L22 25.0002L18 26.0002L19 22.0002L28.5 12.5002Z" stroke="#3E50F7" stroke-width="2" stroke-linecap="round" stroke-linejoin="round"/>
</svg>
