<svg width="122" height="117" viewBox="0 0 122 117" fill="none" xmlns="http://www.w3.org/2000/svg">
<rect x="25" width="72" height="72" rx="36" fill="#EBF0FF"/>
<path d="M56.9281 36.5314C59.718 36.5314 62.5678 37.2307 64.775 38.7036H64.7765C66.7647 40.0263 67.9151 41.8902 67.9153 43.9057C67.9153 45.9207 66.766 47.7873 64.7796 49.117C62.5653 50.5986 59.7101 51.3031 56.9174 51.3031C54.1252 51.3031 51.2709 50.5981 49.0567 49.117V49.1186C47.0687 47.7958 45.918 45.932 45.918 43.9165C45.9182 41.902 47.0679 40.0363 49.0537 38.7067L49.0583 38.7036C51.2786 37.2314 54.1363 36.5314 56.9281 36.5314ZM56.9281 38.8877C54.4927 38.8877 52.1147 39.5043 50.3607 40.6673C48.8659 41.6695 48.2746 42.869 48.2743 43.9165C48.2743 44.9643 48.8661 46.161 50.3622 47.1565L50.3653 47.1595C52.1108 48.3273 54.4833 48.9468 56.9174 48.9468C59.3516 48.9467 61.724 48.3274 63.4695 47.1595C64.9676 46.1565 65.5589 44.9543 65.5589 43.9057C65.5587 42.858 64.9672 41.6611 63.471 40.6657H63.4695C61.7318 39.5051 59.3638 38.8878 56.9281 38.8877ZM69.0229 38.6208C69.1661 37.9862 69.7965 37.588 70.4312 37.731C71.5765 37.9891 72.7037 38.4502 73.6574 39.1761H73.6589C75.0372 40.2101 75.8142 41.6574 75.8143 43.1924C75.8143 44.7277 75.0375 46.1761 73.6589 47.2102L73.6574 47.2071C72.6927 47.9451 71.5497 48.4278 70.3698 48.6737C69.733 48.8064 69.1083 48.3976 68.9754 47.7609C68.8427 47.124 69.2514 46.4993 69.8881 46.3664C70.7777 46.1811 71.5878 45.8284 72.2338 45.3324L72.2445 45.3248C73.1121 44.6741 73.458 43.889 73.458 43.1924C73.4578 42.496 73.1117 41.7121 72.2445 41.0615L72.2368 41.0554C71.6084 40.5755 70.8087 40.231 69.9127 40.0291C69.2782 39.8858 68.8799 39.2554 69.0229 38.6208ZM71.2121 29.519C71.2121 27.3883 69.4899 25.6577 67.3492 25.6577C66.699 25.6574 66.1714 25.1298 66.171 24.4795C66.171 23.829 66.6988 23.3017 67.3492 23.3014C70.7957 23.3014 73.5684 26.0913 73.5684 29.519C73.5684 32.8775 70.9033 35.6123 67.5809 35.7367C67.5174 35.7391 67.4536 35.7354 67.3906 35.7275C67.3773 35.7259 67.341 35.7252 67.2925 35.7306C66.6459 35.8022 66.0634 35.3355 65.9915 34.6889C65.9198 34.0423 66.3865 33.4599 67.0332 33.388C67.1904 33.3706 67.3543 33.3691 67.518 33.3788C69.5693 33.2888 71.212 31.5952 71.2121 29.519ZM56.6796 20.4219C60.8582 20.422 64.2504 23.8155 64.2504 27.9941V27.9988C64.2332 32.0836 61.014 35.4143 56.9496 35.5511C56.8975 35.5528 56.845 35.5501 56.7931 35.5449C56.7306 35.5387 56.6326 35.5382 56.5415 35.5465C56.4929 35.5509 56.4431 35.5527 56.3943 35.5511C52.331 35.4142 49.1076 32.0834 49.1073 27.9941C49.1073 23.8172 52.4848 20.4219 56.6796 20.4219ZM51.4637 27.9941C51.464 30.8095 53.673 33.0891 56.4541 33.1932C56.5956 33.1851 56.7419 33.1853 56.8837 33.1932C59.6653 33.0925 61.881 30.8141 61.8955 27.9941H61.894C61.894 25.1169 59.5568 22.7784 56.6796 22.7782C53.7896 22.7782 51.4637 25.1151 51.4637 27.9941Z" fill="#3E50F7"/>
<rect x="16" y="88" width="90" height="6" rx="3" fill="#DEE2E6"/>
<rect y="99.1289" width="122" height="6" rx="3" fill="#DEE2E6"/>
<rect x="23" y="110.256" width="76" height="6" rx="3" fill="#DEE2E6"/>
</svg>
