<svg width="24" height="24" viewBox="0 0 24 24" fill="none" xmlns="http://www.w3.org/2000/svg">
<path d="M21.2699 9.18029C20.9799 8.72029 20.6699 8.29029 20.3499 7.89029C19.9799 7.42029 19.2799 7.38029 18.8599 7.80029L15.8599 10.8003C16.0799 11.4603 16.1199 12.2203 15.9199 13.0103C15.5699 14.4203 14.4299 15.5603 13.0199 15.9103C12.2299 16.1103 11.4699 16.0703 10.8099 15.8503C10.8099 15.8503 9.37995 17.2803 8.34995 18.3103C7.84995 18.8103 8.00995 19.6903 8.67995 19.9503C9.74995 20.3603 10.8599 20.5703 11.9999 20.5703C13.7799 20.5703 15.5099 20.0503 17.0899 19.0803C18.6999 18.0803 20.1499 16.6103 21.3199 14.7403C22.2699 13.2303 22.2199 10.6903 21.2699 9.18029Z" fill="#0062F1"/>
<path d="M14.0199 9.98062L9.97989 14.0206C9.46989 13.5006 9.13989 12.7806 9.13989 12.0006C9.13989 10.4306 10.4199 9.14062 11.9999 9.14062C12.7799 9.14062 13.4999 9.47062 14.0199 9.98062Z" fill="#0062F1"/>
<path d="M18.25 5.74969L14.86 9.13969C14.13 8.39969 13.12 7.95969 12 7.95969C9.76 7.95969 7.96 9.76969 7.96 11.9997C7.96 13.1197 8.41 14.1297 9.14 14.8597L5.76 18.2497H5.75C4.64 17.3497 3.62 16.1997 2.75 14.8397C1.75 13.2697 1.75 10.7197 2.75 9.14969C3.91 7.32969 5.33 5.89969 6.91 4.91969C8.49 3.95969 10.22 3.42969 12 3.42969C14.23 3.42969 16.39 4.24969 18.25 5.74969Z" fill="#0062F1"/>
<mask id="path-4-inside-1_893_7779" fill="white">
<path d="M14.8601 12.0001C14.8601 13.5701 13.5801 14.8601 12.0001 14.8601C11.9401 14.8601 11.8901 14.8601 11.8301 14.8401L14.8401 11.8301C14.8601 11.8901 14.8601 11.9401 14.8601 12.0001Z"/>
</mask>
<path d="M14.8601 12.0001C14.8601 13.5701 13.5801 14.8601 12.0001 14.8601C11.9401 14.8601 11.8901 14.8601 11.8301 14.8401L14.8401 11.8301C14.8601 11.8901 14.8601 11.9401 14.8601 12.0001Z" fill="#0062F1"/>
<path d="M11.8301 14.8401L11.123 14.133L9.97885 15.2771L11.5139 15.7888L11.8301 14.8401ZM14.8401 11.8301L15.7888 11.5139L15.2771 9.97885L14.133 11.123L14.8401 11.8301ZM13.8601 12.0001C13.8601 13.0201 13.0255 13.8601 12.0001 13.8601V15.8601C14.1346 15.8601 15.8601 14.1201 15.8601 12.0001H13.8601ZM12.0001 13.8601C11.9921 13.8601 11.9875 13.8601 11.9834 13.8601C11.9797 13.86 11.9785 13.86 11.9789 13.86C11.9795 13.86 11.9898 13.8602 12.0056 13.8617C12.0427 13.8651 12.0924 13.8734 12.1463 13.8914L11.5139 15.7888C11.7463 15.8662 11.9479 15.8601 12.0001 15.8601V13.8601ZM12.5372 15.5472L15.5472 12.5372L14.133 11.123L11.123 14.133L12.5372 15.5472ZM13.8914 12.1463C13.8734 12.0924 13.8651 12.0427 13.8617 12.0056C13.8602 11.9898 13.86 11.9795 13.86 11.9789C13.86 11.9785 13.86 11.9797 13.8601 11.9834C13.8601 11.9875 13.8601 11.9921 13.8601 12.0001H15.8601C15.8601 11.9479 15.8662 11.7463 15.7888 11.5139L13.8914 12.1463Z" fill="#0062F1" mask="url(#path-4-inside-1_893_7779)"/>
<path d="M21.4163 2.58441L21.4163 2.58446L21.4222 2.59016C21.5291 2.69366 21.5291 2.84806 21.4222 2.95156L21.4221 2.95151L21.4163 2.95731L2.95633 21.4173C2.89552 21.4781 2.83093 21.5009 2.76988 21.5009C2.70887 21.5009 2.64101 21.4778 2.57778 21.4215C2.47873 21.3162 2.48062 21.1472 2.58344 21.0444L2.58353 21.0443L21.0334 2.58441C21.0335 2.58439 21.0335 2.58437 21.0335 2.58435C21.1382 2.47968 21.3116 2.4797 21.4163 2.58441Z" fill="#0062F1" stroke="#0062F1"/>
</svg>
