<svg width="40" height="40" viewBox="0 0 40 40" fill="none" xmlns="http://www.w3.org/2000/svg">
<rect width="40" height="40" rx="20" fill="#83C413"/>
<path d="M28.5 18.19H25.61C23.24 18.19 21.31 16.26 21.31 13.89V11C21.31 10.45 20.86 10 20.31 10H16.07C12.99 10 10.5 12 10.5 15.57V24.43C10.5 28 12.99 30 16.07 30H23.93C27.01 30 29.5 28 29.5 24.43V19.19C29.5 18.64 29.05 18.19 28.5 18.19ZM19.53 21.53C19.38 21.68 19.19 21.75 19 21.75C18.81 21.75 18.62 21.68 18.47 21.53L17.75 20.81V25C17.75 25.41 17.41 25.75 17 25.75C16.59 25.75 16.25 25.41 16.25 25V20.81L15.53 21.53C15.24 21.82 14.76 21.82 14.47 21.53C14.18 21.24 14.18 20.76 14.47 20.47L16.47 18.47C16.54 18.41 16.61 18.36 16.69 18.32C16.71 18.31 16.74 18.3 16.76 18.29C16.82 18.27 16.88 18.26 16.95 18.25C16.98 18.25 17 18.25 17.03 18.25C17.11 18.25 17.19 18.27 17.27 18.3C17.28 18.3 17.28 18.3 17.29 18.3C17.37 18.33 17.45 18.39 17.51 18.45C17.52 18.46 17.53 18.46 17.53 18.47L19.53 20.47C19.82 20.76 19.82 21.24 19.53 21.53Z" fill="white"/>
<path d="M25.435 16.3105L25.435 16.3105H25.4297C24.1826 16.3105 23.1797 15.3113 23.1797 14.1405V10.6505C23.1797 10.6159 23.1892 10.5944 23.2009 10.5783C23.2145 10.5597 23.2373 10.5407 23.269 10.5283C23.3323 10.5034 23.3962 10.5141 23.4461 10.564C24.4446 11.5625 25.9435 13.075 27.2557 14.3992C27.8876 15.0369 28.4763 15.6309 28.9449 16.1028L28.9461 16.104C28.972 16.1299 28.9791 16.151 28.9815 16.1661C28.9845 16.1842 28.9825 16.2077 28.9712 16.2331C28.9492 16.2829 28.9027 16.3205 28.8297 16.3205C27.6987 16.3205 26.3817 16.3205 25.435 16.3105Z" fill="white" stroke="white"/>
</svg>
