<svg width="40" height="41" viewBox="0 0 40 41" fill="none" xmlns="http://www.w3.org/2000/svg">
<rect y="0.5" width="40" height="40" rx="8" fill="#0062F1" fill-opacity="0.1"/>
<path d="M18.5 22.9147C18.6624 22.972 18.8318 23 19 23C19.3782 23 19.7623 22.8584 20.0603 22.5603C20.6432 21.9774 20.6432 21.0226 20.0603 20.4397L18.1037 18.483C18.0652 18.437 18.0267 18.4019 17.9961 18.3772C17.8906 18.2799 17.7395 18.1675 17.5533 18.0978L17.426 18.05H17.3869C17.2839 18.0217 17.1632 18 17.03 18H17.0298H17.0296H17.0295H17.0293H17.0291H17.0289H17.0288H17.0286H17.0284H17.0283H17.0281H17.0279H17.0277H17.0276H17.0274H17.0272H17.027H17.0269H17.0267H17.0265H17.0264H17.0262H17.026H17.0258H17.0257H17.0255H17.0253H17.0252H17.025H17.0248H17.0247H17.0245H17.0243H17.0241H17.024H17.0238H17.0236H17.0235H17.0233H17.0231H17.023H17.0228H17.0226H17.0225H17.0223H17.0221H17.022H17.0218H17.0216H17.0215H17.0213H17.0211H17.021H17.0208H17.0207H17.0205H17.0203H17.0202H17.02H17.0198H17.0197H17.0195H17.0193H17.0192H17.019H17.0189H17.0187H17.0185H17.0184H17.0182H17.018H17.0179H17.0177H17.0176H17.0174H17.0172H17.0171H17.0169H17.0168H17.0166H17.0164H17.0163H17.0161H17.016H17.0158H17.0156H17.0155H17.0153H17.0152H17.015H17.0148H17.0147H17.0145H17.0144H17.0142H17.014H17.0139H17.0137H17.0136H17.0134H17.0133H17.0131H17.0129H17.0128H17.0126H17.0125H17.0123H17.0122H17.012H17.0119H17.0117H17.0115H17.0114H17.0112H17.0111H17.0109H17.0108H17.0106H17.0105H17.0103H17.0101H17.01H17.0098H17.0097H17.0095H17.0094H17.0092H17.0091H17.0089H17.0088H17.0086H17.0084H17.0083H17.0081H17.008H17.0078H17.0077H17.0075H17.0074H17.0072H17.0071H17.0069H17.0068H17.0066H17.0065H17.0063H17.0062H17.006H17.0059H17.0057H17.0056H17.0054H17.0053H17.0051H17.0049H17.0048H17.0046H17.0045H17.0043H17.0042H17.004H17.0039H17.0037H17.0036H17.0034H17.0033H17.0031H17.003H17.0028H17.0027H17.0025H17.0024H17.0022H17.0021H17.0019H17.0018H17.0016H17.0015H17.0013H17.0012H17.001H17.0009H17.0008H17.0006H17.0005H17.0003H17.0002H17H16.9999H16.9997H16.9996H16.9994H16.9993H16.9991H16.999H16.9988H16.9987H16.9985H16.9984H16.9982H16.9981H16.9979H16.9978H16.9976H16.9975H16.9973H16.9972H16.997H16.9969H16.9968H16.9966H16.9965H16.9963H16.9962H16.996H16.9959H16.9957H16.9956H16.9954H16.9953H16.9951H16.995H16.9948H16.9947H16.9945H16.9944H16.9943H16.9941H16.994H16.9938H16.9937H16.9935H16.9934H16.9932H16.9931H16.9929H16.9928H16.9926H16.9925H16.9923H16.9922H16.9921H16.9919H16.9918H16.9916H16.9915H16.9913H16.9912H16.991H16.9909H16.9907H16.9906H16.9904H16.9903H16.9901H16.99H16.9899H16.9897H16.9896H16.9894H16.9893H16.9891H16.989H16.9888H16.9887H16.9885H16.9884H16.9882H16.9881H16.9879H16.9878H16.9877H16.9875H16.9874H16.9872H16.9871H16.9869H16.9868H16.9866H16.9865H16.9863H16.9862H16.986H16.9859H16.9857H16.9856H16.9855H16.9853H16.9852H16.985H16.9849H16.9847H16.9846H16.9844H16.9843H16.9841H16.984H16.9838H16.9837H16.9835H16.9834H16.9832H16.9831H16.983H16.9828H16.9827H16.9825H16.9824H16.9822H16.9821H16.9819H16.9818H16.9816H16.9815H16.9813H16.9812H16.981H16.9809H16.9807H16.9806H16.9804H16.9803H16.9801H16.98H16.9798H16.9797H16.9795H16.9794H16.9792H16.9791H16.979H16.9788H16.9787H16.9785H16.9784H16.9782H16.9781H16.9779H16.9778H16.9776H16.9775H16.9773H16.9772H16.977H16.9769H16.9767H16.9766H16.9764H16.9763H16.9761H16.976H16.9758H16.9757H16.9755H16.9754H16.9752H16.9751H16.9749H16.9747H16.9746H16.9744H16.9743H16.9741H16.974H16.9738H16.9737H16.9735H16.9734H16.9732H16.9731H16.9729H16.9728H16.9726H16.9725H16.9723H16.9722H16.972H16.9719H16.9717H16.9716H16.9714H16.9712H16.9711H16.9709H16.9708H16.9706H16.9705H16.9703H16.9702H16.97H16.9699H16.9697H16.9695H16.9694H16.9692H16.9691H16.9689H16.9688H16.9686H16.9685H16.9683H16.9681H16.968H16.9678H16.9677H16.9675H16.9674H16.9672H16.9671H16.9669H16.9667H16.9666H16.9664H16.9663H16.9661H16.966H16.9658H16.9656H16.9655H16.9653H16.9652H16.965H16.9648H16.9647H16.9645H16.9644H16.9642H16.964H16.9639H16.9637H16.9636H16.9634H16.9632H16.9631H16.9629H16.9628H16.9626H16.9624H16.9623H16.9621H16.962H16.9618H16.9616H16.9615H16.9613H16.9611H16.961H16.9608H16.9607H16.9605H16.9603H16.9602H16.96H16.9598H16.9597H16.9595H16.9593H16.9592H16.959H16.9589H16.9587H16.9585H16.9584H16.9582H16.958H16.9579H16.9577H16.9575H16.9574H16.9572H16.957H16.9569H16.9567H16.9565H16.9564H16.9562H16.956H16.9559H16.9557H16.9555H16.9553H16.9552H16.955H16.9548H16.9547H16.9545H16.9543H16.9542H16.954H16.9538H16.9536H16.9535H16.9533H16.9531H16.953H16.9528H16.9526H16.9524H16.9523H16.9521H16.9519H16.9517H16.9516H16.9514H16.9512H16.9511H16.9509H16.9507H16.9505H16.9504H16.9502H16.95H16.8967L16.8439 18.0075C16.7701 18.0181 16.652 18.0354 16.5228 18.0785L16.4723 18.0953L16.4425 18.1102C16.4363 18.1127 16.4261 18.1168 16.4155 18.1213L18.5 22.9147ZM18.5 22.9147V25.5C18.5 26.3242 17.8242 27 17 27C16.1758 27 15.5 26.3242 15.5 25.5V22.9127C14.9722 23.0976 14.3595 22.9801 13.9397 22.5603C13.3568 21.9774 13.3568 21.0226 13.9397 20.4397L15.9397 18.4397L15.96 18.4193L15.9819 18.4006C16.084 18.313 16.205 18.224 16.3546 18.1492L18.5 22.9147ZM25.61 19.44H28.5C28.6358 19.44 28.75 19.5542 28.75 19.69V24.93C28.75 26.531 28.1971 27.7176 27.3565 28.5071C26.5086 29.3035 25.3093 29.75 23.93 29.75H16.07C14.6907 29.75 13.4914 29.3035 12.6435 28.5071C11.8029 27.7176 11.25 26.531 11.25 24.93V16.07C11.25 14.469 11.8029 13.2824 12.6435 12.4929C13.4914 11.6965 14.6907 11.25 16.07 11.25H20.31C20.4458 11.25 20.56 11.3642 20.56 11.5V14.39C20.56 17.1742 22.8258 19.44 25.61 19.44Z" fill="#0062F1" stroke="#0062F1" stroke-width="1.5"/>
<path d="M25.4376 16.5605L25.4376 16.5605H25.4297C24.314 16.5605 23.4297 15.6666 23.4297 14.6405V11.4013C24.4234 12.3962 25.8339 13.8197 27.0774 15.0745C27.6197 15.6217 28.1302 16.1369 28.5605 16.5705C27.4943 16.5704 26.3087 16.5697 25.4376 16.5605Z" fill="#0062F1" stroke="#0062F1" stroke-width="1.5"/>
</svg>
