<svg width="16" height="17" viewBox="0 0 16 17" fill="none" xmlns="http://www.w3.org/2000/svg">
<path d="M2.66699 5.1665L2.66699 14.4998" stroke="#141B34" stroke-linecap="round" stroke-linejoin="round"/>
<path d="M7.83871 3.10576C5.63523 1.98332 3.90116 2.64096 3.0365 3.3128C2.88064 3.4339 2.80271 3.49445 2.73485 3.63312C2.66699 3.77178 2.66699 3.90092 2.66699 4.1592V10.3213C3.31346 9.58948 5.25285 8.4552 7.83871 9.77243C10.1496 10.9496 12.1164 10.4616 13.0468 9.95302C13.1759 9.88245 13.2404 9.84717 13.287 9.76855C13.3337 9.68993 13.3337 9.60459 13.3337 9.43392V4.41593C13.3337 3.86359 13.3337 3.58742 13.2021 3.48737C13.0705 3.38732 12.7627 3.47267 12.1471 3.64336C11.0937 3.93546 9.56188 3.98355 7.83871 3.10576Z" stroke="#141B34" stroke-linecap="round" stroke-linejoin="round"/>
</svg>
