<svg width="240" height="230" viewBox="0 0 240 230" fill="none" xmlns="http://www.w3.org/2000/svg">
<g clip-path="url(#clip0_2636_8801)">
<mask id="mask0_2636_8801" style="mask-type:luminance" maskUnits="userSpaceOnUse" x="0" y="0" width="240" height="230">
<path d="M239.98 0H0V229.792H239.98V0Z" fill="white"/>
</mask>
<g mask="url(#mask0_2636_8801)">
<mask id="mask1_2636_8801" style="mask-type:luminance" maskUnits="userSpaceOnUse" x="16" y="0" width="207" height="230">
<path d="M222.985 0H16.9966V229.792H222.985V0Z" fill="white"/>
</mask>
<g mask="url(#mask1_2636_8801)">
<mask id="mask2_2636_8801" style="mask-type:luminance" maskUnits="userSpaceOnUse" x="16" y="0" width="207" height="230">
<path d="M222.985 0H16.9966V229.792H222.985V0Z" fill="white"/>
</mask>
<g mask="url(#mask2_2636_8801)">
<path d="M212.15 183.316L119.995 229.792L27.8408 183.316V0H212.15V183.316Z" fill="#F8F8F8"/>
<path d="M27.8408 0V183.316L212.15 0H27.8408Z" fill="white"/>
<path d="M210.397 1.72344V182.282L119.995 227.867L29.5939 182.282V1.72344H210.397ZM212.15 0H27.8408V183.316L119.995 229.792L212.15 183.316V0Z" fill="#DCDFDD"/>
<path d="M141.234 32.774L119.816 45.0104L98.75 32.774V0H141.234V32.774Z" fill="#FF3100"/>
<path d="M130.219 16.2308H126.216C126.333 15.5989 126.713 15.2829 127.501 14.8808L128.231 14.5074C129.546 13.8467 130.248 13.0999 130.248 11.8647C130.248 11.0892 129.955 10.486 129.342 10.0552C128.758 9.62432 128.028 9.39453 127.18 9.39453C126.508 9.39453 125.923 9.56687 125.369 9.91156C124.813 10.2563 124.404 10.6584 124.17 11.2041L125.339 12.3531C125.778 11.4626 126.449 11.0318 127.296 11.0318C128.028 11.0318 128.466 11.4052 128.466 11.8935C128.466 12.3243 128.261 12.669 127.414 13.0999L126.946 13.3297C125.923 13.8467 125.193 14.4212 124.784 15.0818C124.375 15.7425 124.17 16.5755 124.17 17.5808V17.8681H130.219V16.2308ZM129.693 19.7064H123.089L119.787 25.3363H126.39L129.693 30.9662L132.994 25.3363L129.693 19.7064Z" fill="white"/>
<path d="M120.343 29.096C116.135 29.096 112.716 25.7352 112.716 21.599C112.716 17.4627 116.135 14.0733 120.343 14.0733L122.972 8.70188C122.125 8.52953 121.247 8.44336 120.343 8.44336C112.979 8.44336 106.989 14.3318 106.989 21.5702C106.989 28.8088 112.979 34.6971 120.343 34.6971C123.293 34.6971 126.011 33.7493 128.202 32.1694L125.309 27.2863C123.965 28.4067 122.241 29.096 120.343 29.096Z" fill="white"/>
<path d="M216.264 144.079H23.5415L16.9966 127.994L23.5415 111.908H216.264L222.809 127.994L216.264 144.079Z" fill="#FF3100"/>
<path d="M57.2588 162.978C57.9601 163.323 58.3107 163.927 58.3107 164.759C58.3107 165.478 58.077 165.995 57.5802 166.368C57.0834 166.742 56.4405 166.914 55.6518 166.914H52.7882C52.7592 166.914 52.73 166.914 52.7007 166.885C52.6714 166.857 52.6714 166.827 52.6714 166.799V159.416C52.6714 159.388 52.6714 159.359 52.7007 159.331C52.73 159.302 52.7592 159.302 52.7882 159.302H55.5641C57.3172 159.302 58.1939 159.991 58.1939 161.399C58.1939 162.117 57.8723 162.634 57.2588 162.95C57.2295 162.921 57.2295 162.95 57.2588 162.978ZM54.22 160.623V162.318C54.22 162.346 54.2493 162.376 54.2786 162.376H55.5641C55.9147 162.376 56.1778 162.289 56.3822 162.146C56.5867 161.973 56.6743 161.772 56.6743 161.485C56.6743 161.197 56.5867 160.968 56.3822 160.825C56.1778 160.652 55.9147 160.565 55.5641 160.565H54.2786C54.2493 160.565 54.22 160.595 54.22 160.623ZM56.4698 165.305C56.6743 165.133 56.7621 164.903 56.7621 164.587C56.7621 164.3 56.6743 164.042 56.4698 163.897C56.2653 163.725 56.0024 163.639 55.6518 163.639H54.2786C54.2493 163.639 54.22 163.668 54.22 163.697V165.506C54.22 165.535 54.2493 165.563 54.2786 165.563H55.6809C56.0024 165.563 56.2653 165.478 56.4698 165.305ZM65.2354 160.537C65.2061 160.565 65.1768 160.565 65.1475 160.565H61.4955C61.4663 160.565 61.437 160.595 61.437 160.623V162.318C61.437 162.346 61.4663 162.376 61.4955 162.376H63.8913C63.9206 162.376 63.9498 162.376 63.9788 162.404C64.0081 162.433 64.0081 162.461 64.0081 162.491V163.553C64.0081 163.582 64.0081 163.61 63.9788 163.639C63.9498 163.668 63.9206 163.668 63.8913 163.668H61.4955C61.4663 163.668 61.437 163.697 61.437 163.725V165.506C61.437 165.535 61.4663 165.563 61.4955 165.563H65.1475C65.1768 165.563 65.2061 165.563 65.2354 165.593C65.2645 165.621 65.2645 165.65 65.2645 165.678V166.742C65.2645 166.77 65.2645 166.799 65.2354 166.827C65.2061 166.857 65.1768 166.857 65.1475 166.857H60.0052C59.976 166.857 59.9469 166.857 59.9177 166.827C59.8884 166.799 59.8884 166.77 59.8884 166.742V159.359C59.8884 159.331 59.8884 159.302 59.9177 159.273C59.9469 159.244 59.976 159.244 60.0052 159.244H65.1475C65.1768 159.244 65.2061 159.244 65.2354 159.273C65.2645 159.302 65.2645 159.331 65.2645 159.359V160.422C65.2645 160.48 65.2645 160.508 65.2354 160.537Z" fill="#252530"/>
<path d="M67.7496 166.713C67.3114 166.541 66.9608 166.254 66.7271 165.909C66.4933 165.564 66.3765 165.162 66.3765 164.703V164.473C66.3765 164.445 66.3765 164.415 66.4055 164.387C66.4347 164.358 66.464 164.358 66.4933 164.358H67.7496C67.7788 164.358 67.8081 164.358 67.8372 164.387C67.8665 164.415 67.8665 164.445 67.8665 164.473V164.645C67.8665 164.932 68.0126 165.191 68.2757 165.392C68.5384 165.594 68.9183 165.679 69.3858 165.679C69.7657 165.679 70.0577 165.594 70.2624 165.421C70.4669 165.249 70.5545 165.047 70.5545 164.817C70.5545 164.645 70.4962 164.502 70.3793 164.387C70.2624 164.272 70.087 164.157 69.8825 164.071C69.678 163.985 69.3565 163.841 68.9183 163.698C68.4216 163.525 68.0126 163.353 67.662 163.181C67.3114 163.008 67.0191 162.779 66.7853 162.462C66.5517 162.147 66.4347 161.802 66.4347 161.342C66.4347 160.911 66.5517 160.509 66.7853 160.193C67.0191 159.877 67.3407 159.619 67.7496 159.447C68.1587 159.274 68.6263 159.188 69.1521 159.188C69.7071 159.188 70.2039 159.274 70.6421 159.475C71.0805 159.676 71.4311 159.934 71.6649 160.308C71.8986 160.653 72.0448 161.083 72.0448 161.543V161.715C72.0448 161.744 72.0448 161.773 72.0155 161.802C71.9862 161.83 71.957 161.83 71.9279 161.83H70.6421C70.6131 161.83 70.5838 161.83 70.5545 161.802C70.5253 161.773 70.5253 161.744 70.5253 161.715V161.63C70.5253 161.313 70.4083 161.055 70.1456 160.853C69.8825 160.653 69.5319 160.538 69.0938 160.538C68.7431 160.538 68.4801 160.624 68.2757 160.768C68.071 160.911 67.9833 161.113 67.9833 161.371C67.9833 161.543 68.0419 161.715 68.1587 161.83C68.2757 161.945 68.4509 162.06 68.6553 162.175C68.889 162.262 69.2397 162.405 69.7071 162.577C70.2332 162.779 70.6421 162.922 70.9344 163.066C71.2266 163.209 71.5188 163.439 71.7525 163.726C71.9862 164.013 72.1031 164.387 72.1031 164.847C72.1031 165.536 71.8401 166.081 71.3436 166.455C70.8468 166.828 70.1456 167.058 69.269 167.058C68.7138 166.972 68.1878 166.886 67.7496 166.713Z" fill="#252530"/>
<path d="M79.001 159.305C79.0301 159.334 79.0301 159.363 79.0301 159.392V160.454C79.0301 160.483 79.0301 160.512 79.001 160.541C78.9717 160.569 78.9424 160.569 78.9133 160.569H76.9264C76.8971 160.569 76.8681 160.598 76.8681 160.626V166.745C76.8681 166.773 76.8681 166.803 76.8389 166.831C76.8096 166.86 76.7803 166.86 76.7512 166.86H75.4364C75.4071 166.86 75.3778 166.86 75.3487 166.831C75.3195 166.803 75.3195 166.773 75.3195 166.745V160.626C75.3195 160.598 75.2902 160.569 75.2609 160.569H73.3327C73.3034 160.569 73.2741 160.569 73.2449 160.541C73.2158 160.512 73.2158 160.483 73.2158 160.454V159.392C73.2158 159.363 73.2158 159.334 73.2449 159.305C73.2741 159.277 73.3034 159.277 73.3327 159.277H78.9424C78.9424 159.248 78.9717 159.277 79.001 159.305ZM84.0558 166.716C83.6173 166.544 83.2667 166.256 83.033 165.912C82.7993 165.567 82.6824 165.165 82.6824 164.705V164.475C82.6824 164.447 82.6824 164.418 82.7117 164.39C82.7409 164.361 82.7702 164.361 82.7993 164.361H84.0558C84.0849 164.361 84.1141 164.361 84.1434 164.39C84.1727 164.418 84.1727 164.447 84.1727 164.475V164.648C84.1727 164.935 84.3186 165.194 84.5816 165.395C84.8446 165.596 85.2245 165.682 85.692 165.682C86.0717 165.682 86.3639 165.596 86.5684 165.424C86.7731 165.252 86.8607 165.05 86.8607 164.82C86.8607 164.648 86.8022 164.505 86.6852 164.39C86.5684 164.275 86.3932 164.16 86.1885 164.073C85.9841 163.988 85.6627 163.844 85.2245 163.701C84.7278 163.528 84.3186 163.356 83.968 163.183C83.6173 163.011 83.3253 162.781 83.0915 162.465C82.8578 162.149 82.7409 161.805 82.7409 161.345C82.7409 160.914 82.8578 160.512 83.0915 160.196C83.3253 159.88 83.6466 159.622 84.0558 159.449C84.4647 159.277 84.9323 159.19 85.4583 159.19C86.0133 159.19 86.51 159.277 86.9483 159.478C87.3865 159.679 87.7371 159.937 87.9709 160.311C88.2047 160.656 88.3508 161.086 88.3508 161.546V161.718C88.3508 161.747 88.3508 161.775 88.3215 161.805C88.2924 161.833 88.2631 161.833 88.2339 161.833H86.9483C86.919 161.833 86.89 161.833 86.8607 161.805C86.8315 161.775 86.8315 161.747 86.8315 161.718V161.632C86.8315 161.316 86.7145 161.058 86.4516 160.856C86.1885 160.656 85.8379 160.541 85.3997 160.541C85.0491 160.541 84.7861 160.626 84.5816 160.771C84.3772 160.914 84.2895 161.115 84.2895 161.373C84.2895 161.546 84.3479 161.718 84.4647 161.833C84.5816 161.948 84.7571 162.063 84.9614 162.178C85.1952 162.264 85.5458 162.407 86.0133 162.58C86.5393 162.781 86.9483 162.924 87.2406 163.069C87.5327 163.212 87.825 163.441 88.0587 163.729C88.2924 164.016 88.4093 164.39 88.4093 164.849C88.4093 165.539 88.1463 166.084 87.6496 166.458C87.1528 166.831 86.4516 167.061 85.5751 167.061C85.0198 166.975 84.494 166.888 84.0558 166.716ZM91.0974 166.658C90.6591 166.429 90.3085 166.113 90.0746 165.682C89.8408 165.252 89.6949 164.792 89.6949 164.246V161.92C89.6949 161.373 89.8117 160.914 90.0746 160.483C90.3376 160.052 90.6591 159.737 91.0974 159.507C91.5355 159.277 92.0323 159.162 92.6167 159.162C93.201 159.162 93.7269 159.277 94.1653 159.507C94.6035 159.737 94.9541 160.052 95.1879 160.483C95.4216 160.914 95.5678 161.373 95.5678 161.92V164.246C95.5678 164.792 95.4508 165.28 95.1879 165.711C94.9249 166.141 94.6035 166.458 94.1653 166.688C93.7269 166.918 93.201 167.032 92.6167 167.032C92.0616 167.003 91.5648 166.888 91.0974 166.658ZM93.6393 165.309C93.9022 165.05 94.0192 164.705 94.0192 164.303V161.89C94.0192 161.46 93.9022 161.115 93.6393 160.856C93.4055 160.598 93.0549 160.483 92.646 160.483C92.2368 160.483 91.9155 160.598 91.6525 160.856C91.4187 161.115 91.2726 161.46 91.2726 161.89V164.303C91.2726 164.735 91.3894 165.05 91.6525 165.309C91.8862 165.567 92.2368 165.682 92.646 165.682C93.0549 165.682 93.3763 165.567 93.6393 165.309ZM102.434 160.541C102.405 160.569 102.376 160.569 102.346 160.569H98.7232C98.6941 160.569 98.665 160.598 98.665 160.626V162.322C98.665 162.35 98.6941 162.379 98.7232 162.379H101.119C101.148 162.379 101.178 162.379 101.207 162.407C101.236 162.437 101.236 162.465 101.236 162.494V163.556C101.236 163.586 101.236 163.614 101.207 163.643C101.178 163.671 101.148 163.671 101.119 163.671H98.7232C98.6941 163.671 98.665 163.7 98.665 163.729V166.745C98.665 166.773 98.6648 166.803 98.6357 166.831C98.6064 166.86 98.5771 166.86 98.548 166.86H97.2623C97.2332 166.86 97.2039 166.86 97.1746 166.831C97.1455 166.803 97.1455 166.773 97.1455 166.745V159.363C97.1455 159.334 97.1455 159.305 97.1746 159.277C97.2039 159.248 97.2332 159.248 97.2623 159.248H102.376C102.405 159.248 102.434 159.248 102.463 159.277C102.493 159.305 102.492 159.334 102.492 159.363V160.426C102.492 160.483 102.463 160.512 102.434 160.541ZM109.096 159.305C109.125 159.334 109.125 159.363 109.125 159.392V160.454C109.125 160.483 109.125 160.512 109.096 160.541C109.066 160.569 109.037 160.569 109.008 160.569H107.021C106.992 160.569 106.963 160.598 106.963 160.626V166.745C106.963 166.773 106.963 166.803 106.934 166.831C106.904 166.86 106.875 166.86 106.846 166.86H105.531C105.502 166.86 105.473 166.86 105.443 166.831C105.414 166.803 105.414 166.773 105.414 166.745V160.626C105.414 160.598 105.385 160.569 105.356 160.569H103.427C103.398 160.569 103.369 160.569 103.34 160.541C103.311 160.512 103.311 160.483 103.311 160.454V159.392C103.311 159.363 103.311 159.334 103.34 159.305C103.369 159.277 103.398 159.277 103.427 159.277H109.037C109.037 159.248 109.096 159.277 109.096 159.305Z" fill="#252530"/>
<path d="M112.248 166.77L110.29 159.388V159.331C110.29 159.273 110.319 159.244 110.407 159.244H111.78C111.868 159.244 111.897 159.273 111.927 159.359L112.979 163.812C112.979 163.84 113.007 163.869 113.007 163.869C113.007 163.869 113.036 163.84 113.036 163.812L114.059 159.388C114.088 159.302 114.118 159.273 114.206 159.273H115.55C115.638 159.273 115.695 159.302 115.695 159.388L116.806 163.84C116.806 163.869 116.835 163.869 116.835 163.869C116.865 163.869 116.865 163.869 116.865 163.84L117.886 159.416C117.916 159.331 117.945 159.302 118.033 159.302H119.348C119.465 159.302 119.494 159.359 119.465 159.446L117.653 166.827C117.624 166.914 117.565 166.942 117.507 166.942H116.192C116.104 166.942 116.075 166.914 116.047 166.827L114.906 162.088C114.906 162.059 114.877 162.031 114.877 162.031C114.848 162.031 114.848 162.059 114.848 162.088L113.797 166.799C113.767 166.885 113.738 166.914 113.65 166.914H112.423C112.335 166.885 112.277 166.857 112.248 166.77Z" fill="#252530"/>
<path d="M124.253 166.77L123.932 165.708C123.903 165.678 123.903 165.65 123.873 165.65H121.156C121.126 165.65 121.126 165.678 121.098 165.708L120.776 166.77C120.747 166.857 120.717 166.885 120.631 166.885H119.228C119.169 166.885 119.14 166.885 119.14 166.857C119.111 166.827 119.111 166.799 119.14 166.742L121.537 159.359C121.565 159.273 121.594 159.244 121.682 159.244H123.435C123.523 159.244 123.552 159.273 123.581 159.359L125.977 166.742V166.799C125.977 166.857 125.947 166.885 125.861 166.885H124.458C124.312 166.885 124.282 166.857 124.253 166.77ZM121.507 164.472H123.464C123.523 164.472 123.523 164.444 123.523 164.414L122.529 161.169C122.529 161.14 122.5 161.14 122.5 161.14C122.471 161.14 122.471 161.169 122.471 161.169L121.507 164.414C121.478 164.444 121.478 164.472 121.507 164.472ZM131.353 166.799L129.95 163.783C129.921 163.754 129.921 163.725 129.892 163.725H128.87C128.841 163.725 128.811 163.754 128.811 163.783V166.77C128.811 166.799 128.811 166.827 128.782 166.857C128.753 166.885 128.724 166.885 128.694 166.885H127.409C127.379 166.885 127.35 166.885 127.321 166.857C127.292 166.827 127.292 166.799 127.292 166.77V159.388C127.292 159.359 127.292 159.331 127.321 159.302C127.35 159.273 127.379 159.273 127.409 159.273H130.594C131.061 159.273 131.47 159.359 131.85 159.561C132.23 159.761 132.493 160.02 132.697 160.365C132.901 160.71 132.989 161.112 132.989 161.571C132.989 162.059 132.873 162.491 132.609 162.835C132.347 163.18 131.996 163.438 131.558 163.582C131.529 163.61 131.5 163.61 131.529 163.668L133.048 166.77C133.077 166.799 133.077 166.827 133.077 166.827C133.077 166.885 133.048 166.914 132.96 166.914H131.588C131.412 166.885 131.382 166.857 131.353 166.799ZM128.811 160.623V162.491C128.811 162.519 128.841 162.548 128.87 162.548H130.33C130.652 162.548 130.886 162.461 131.091 162.261C131.295 162.088 131.382 161.829 131.382 161.542C131.382 161.255 131.295 161.025 131.091 160.825C130.886 160.652 130.652 160.537 130.33 160.537H128.87C128.811 160.565 128.811 160.595 128.811 160.623ZM139.739 160.537C139.71 160.565 139.68 160.565 139.651 160.565H135.998C135.97 160.565 135.941 160.595 135.941 160.623V162.318C135.941 162.346 135.97 162.376 135.998 162.376H138.395C138.424 162.376 138.453 162.376 138.483 162.404C138.512 162.433 138.512 162.461 138.512 162.491V163.553C138.512 163.582 138.512 163.61 138.483 163.639C138.453 163.668 138.424 163.668 138.395 163.668H135.998C135.97 163.668 135.941 163.697 135.941 163.725V165.506C135.941 165.535 135.97 165.563 135.998 165.563H139.651C139.68 165.563 139.71 165.563 139.739 165.593C139.768 165.621 139.768 165.65 139.768 165.678V166.742C139.768 166.77 139.768 166.799 139.739 166.827C139.71 166.857 139.68 166.857 139.651 166.857H134.509C134.48 166.857 134.45 166.857 134.421 166.827C134.392 166.799 134.392 166.77 134.392 166.742V159.359C134.392 159.331 134.392 159.302 134.421 159.273C134.45 159.244 134.48 159.244 134.509 159.244H139.651C139.68 159.244 139.71 159.244 139.739 159.273C139.768 159.302 139.768 159.331 139.768 159.359V160.422C139.768 160.48 139.768 160.508 139.739 160.537Z" fill="#252530"/>
<path d="M148.829 166.77L148.508 165.708C148.479 165.678 148.479 165.65 148.449 165.65H145.732C145.703 165.65 145.703 165.678 145.673 165.708L145.352 166.77C145.323 166.857 145.294 166.885 145.206 166.885H143.803C143.744 166.885 143.716 166.885 143.716 166.857C143.687 166.827 143.687 166.799 143.716 166.742L146.112 159.359C146.141 159.273 146.17 159.244 146.258 159.244H148.011C148.098 159.244 148.127 159.273 148.156 159.359L150.553 166.742V166.799C150.553 166.857 150.524 166.885 150.436 166.885H149.033C148.888 166.885 148.858 166.857 148.829 166.77ZM146.082 164.472H148.04C148.098 164.472 148.098 164.444 148.098 164.414L147.105 161.169C147.105 161.14 147.076 161.14 147.076 161.14C147.047 161.14 147.047 161.169 147.047 161.169L146.082 164.414C146.053 164.444 146.053 164.472 146.082 164.472Z" fill="#252530"/>
<path d="M152.218 166.77L150.26 159.388V159.331C150.26 159.273 150.289 159.244 150.377 159.244H151.75C151.838 159.244 151.868 159.273 151.896 159.359L152.948 163.812C152.948 163.84 152.977 163.869 152.977 163.869C152.977 163.869 153.007 163.84 153.007 163.812L154.03 159.388C154.059 159.302 154.088 159.273 154.175 159.273H155.519C155.607 159.273 155.665 159.302 155.665 159.388L156.775 163.84C156.775 163.869 156.805 163.869 156.805 163.869C156.834 163.869 156.834 163.869 156.834 163.84L157.857 159.416C157.886 159.331 157.915 159.302 158.002 159.302H159.318C159.434 159.302 159.463 159.359 159.434 159.446L157.624 166.827C157.594 166.914 157.536 166.942 157.477 166.942H156.162C156.074 166.942 156.045 166.914 156.016 166.827L154.877 162.088C154.877 162.059 154.848 162.031 154.848 162.031C154.818 162.031 154.818 162.059 154.818 162.088L153.766 166.799C153.737 166.885 153.707 166.914 153.621 166.914H152.393C152.306 166.885 152.247 166.857 152.218 166.77Z" fill="#252530"/>
<path d="M164.224 166.771L163.903 165.708C163.873 165.679 163.873 165.651 163.844 165.651H161.126C161.097 165.651 161.097 165.679 161.068 165.708L160.747 166.771C160.717 166.857 160.688 166.886 160.6 166.886H159.198C159.14 166.886 159.111 166.886 159.111 166.857C159.082 166.828 159.082 166.8 159.111 166.742L161.506 159.36C161.535 159.274 161.565 159.245 161.653 159.245H163.406C163.494 159.245 163.523 159.274 163.551 159.36L165.947 166.742V166.8C165.947 166.857 165.918 166.886 165.83 166.886H164.429C164.282 166.886 164.253 166.857 164.224 166.771ZM161.477 164.473H163.435C163.494 164.473 163.494 164.445 163.494 164.415L162.5 161.17C162.5 161.141 162.471 161.141 162.471 161.141C162.441 161.141 162.441 161.17 162.441 161.17L161.477 164.415C161.448 164.445 161.448 164.473 161.477 164.473ZM171.324 166.8L169.921 163.783C169.892 163.755 169.892 163.726 169.863 163.726H168.84C168.811 163.726 168.782 163.755 168.782 163.783V166.771C168.782 166.8 168.782 166.828 168.753 166.857C168.724 166.886 168.694 166.886 168.665 166.886H167.379C167.35 166.886 167.321 166.886 167.292 166.857C167.262 166.828 167.262 166.8 167.262 166.771V159.389C167.262 159.36 167.262 159.332 167.292 159.302C167.321 159.274 167.35 159.274 167.379 159.274H170.565C171.031 159.274 171.44 159.36 171.821 159.561C172.171 159.762 172.463 160.021 172.639 160.366C172.843 160.71 172.93 161.113 172.93 161.572C172.93 162.06 172.813 162.491 172.551 162.836C172.288 163.181 171.937 163.439 171.499 163.583C171.469 163.611 171.44 163.611 171.469 163.668L172.989 166.771C173.018 166.8 173.018 166.828 173.018 166.828C173.018 166.886 172.989 166.915 172.901 166.915H171.528C171.382 166.886 171.353 166.857 171.324 166.8ZM168.782 160.624V162.491C168.782 162.519 168.811 162.549 168.84 162.549H170.301C170.622 162.549 170.856 162.462 171.06 162.262C171.265 162.089 171.353 161.83 171.353 161.543C171.353 161.256 171.265 161.026 171.06 160.825C170.856 160.653 170.622 160.538 170.301 160.538H168.84C168.782 160.566 168.782 160.596 168.782 160.624ZM174.392 166.857C174.362 166.828 174.362 166.8 174.362 166.771V159.389C174.362 159.36 174.362 159.332 174.392 159.302C174.421 159.274 174.45 159.274 174.48 159.274H177.255C177.81 159.274 178.307 159.36 178.716 159.561C179.125 159.762 179.446 160.021 179.68 160.366C179.914 160.71 180.031 161.113 180.031 161.572V164.588C180.031 165.047 179.914 165.449 179.68 165.794C179.446 166.139 179.125 166.426 178.716 166.598C178.307 166.8 177.81 166.886 177.255 166.886H174.48C174.45 166.886 174.421 166.886 174.392 166.857ZM175.969 165.564H177.313C177.664 165.564 177.927 165.449 178.131 165.22C178.336 164.99 178.453 164.702 178.453 164.3V161.802C178.453 161.428 178.336 161.113 178.131 160.883C177.927 160.653 177.634 160.538 177.284 160.538H175.94C175.911 160.538 175.881 160.566 175.881 160.596V165.479C175.911 165.564 175.94 165.564 175.969 165.564ZM182.66 166.713C182.222 166.541 181.872 166.254 181.637 165.909C181.404 165.564 181.287 165.162 181.287 164.703V164.473C181.287 164.445 181.287 164.415 181.316 164.387C181.346 164.358 181.375 164.358 181.404 164.358H182.66C182.69 164.358 182.719 164.358 182.748 164.387C182.778 164.415 182.778 164.445 182.778 164.473V164.645C182.778 164.932 182.923 165.191 183.187 165.392C183.449 165.594 183.829 165.679 184.296 165.679C184.676 165.679 184.969 165.594 185.173 165.421C185.378 165.249 185.465 165.047 185.465 164.817C185.465 164.645 185.407 164.502 185.29 164.387C185.173 164.272 184.998 164.157 184.793 164.071C184.589 163.985 184.267 163.841 183.829 163.698C183.332 163.525 182.923 163.353 182.572 163.181C182.222 163.008 181.93 162.779 181.696 162.462C181.463 162.147 181.346 161.802 181.346 161.342C181.346 160.911 181.463 160.509 181.696 160.193C181.93 159.877 182.251 159.619 182.66 159.447C183.069 159.274 183.537 159.188 184.063 159.188C184.617 159.188 185.114 159.274 185.553 159.475C185.991 159.676 186.342 159.934 186.576 160.308C186.81 160.653 186.955 161.083 186.955 161.543V161.715C186.955 161.744 186.955 161.773 186.926 161.802C186.897 161.83 186.867 161.83 186.838 161.83H185.582C185.553 161.83 185.523 161.83 185.494 161.802C185.465 161.773 185.465 161.744 185.465 161.715V161.63C185.465 161.313 185.349 161.055 185.085 160.853C184.822 160.653 184.472 160.538 184.034 160.538C183.683 160.538 183.42 160.624 183.216 160.768C183.011 160.911 182.923 161.113 182.923 161.371C182.923 161.543 182.981 161.715 183.099 161.83C183.216 161.945 183.39 162.06 183.596 162.175C183.829 162.262 184.179 162.405 184.647 162.577C185.173 162.779 185.582 162.922 185.875 163.066C186.167 163.209 186.458 163.439 186.693 163.726C186.926 164.013 187.043 164.387 187.043 164.847C187.043 165.536 186.781 166.081 186.284 166.455C185.787 166.828 185.085 167.058 184.208 167.058C183.625 166.972 183.099 166.886 182.66 166.713Z" fill="#252530"/>
<path d="M99.1548 190.754C99.1841 190.782 99.2134 190.812 99.2427 190.812H105.32C105.408 190.812 105.466 190.84 105.524 190.897C105.583 190.955 105.612 191.012 105.612 191.099V193.224C105.612 193.31 105.583 193.368 105.524 193.425C105.466 193.482 105.408 193.512 105.32 193.512H95.2398C95.1519 193.512 95.0936 193.482 95.0351 193.425C94.9767 193.368 94.9475 193.31 94.9475 193.224V191.214C94.9475 191.07 95.006 190.984 95.0937 190.897C95.8241 190.18 96.5837 189.433 97.3435 188.599C98.103 187.767 98.5705 187.25 98.7749 187.048C99.1841 186.561 99.6223 186.101 100.061 185.67C101.405 184.176 102.106 183.084 102.106 182.367C102.106 181.85 101.931 181.418 101.551 181.103C101.171 180.786 100.703 180.614 100.09 180.614C99.5055 180.614 99.0089 180.786 98.629 181.103C98.2491 181.418 98.0737 181.878 98.0737 182.424V182.969C98.0737 183.056 98.0447 183.114 97.9861 183.171C97.9278 183.229 97.8693 183.257 97.7816 183.257H95.1519C95.0644 183.257 95.006 183.229 94.9475 183.171C94.8892 183.114 94.8599 183.056 94.8599 182.969V181.935C94.9182 181.131 95.1519 180.442 95.6195 179.839C96.0869 179.235 96.7005 178.776 97.4603 178.431C98.2199 178.116 99.0966 177.943 100.031 177.943C101.083 177.943 102.018 178.144 102.807 178.518C103.596 178.92 104.181 179.437 104.619 180.097C105.057 180.758 105.261 181.505 105.261 182.309C105.261 182.912 105.115 183.544 104.794 184.205C104.473 184.837 104.005 185.555 103.392 186.301C102.924 186.876 102.427 187.45 101.901 187.997C101.375 188.542 100.557 189.346 99.5055 190.41L99.1841 190.725C99.1548 190.697 99.1548 190.725 99.1548 190.754ZM108.972 192.363C108.008 191.472 107.54 190.237 107.54 188.686V182.884C107.54 181.361 108.008 180.155 108.972 179.265C109.936 178.374 111.222 177.914 112.858 177.914C114.494 177.914 115.81 178.374 116.773 179.265C117.738 180.155 118.205 181.361 118.205 182.884V188.686C118.205 190.237 117.738 191.472 116.773 192.363C115.81 193.253 114.523 193.712 112.858 193.712C111.222 193.712 109.907 193.253 108.972 192.363ZM114.466 190.438C114.875 190.036 115.049 189.49 115.049 188.829V182.769C115.049 182.108 114.845 181.563 114.466 181.16C114.057 180.758 113.531 180.557 112.858 180.557C112.215 180.557 111.69 180.758 111.28 181.16C110.871 181.563 110.696 182.108 110.696 182.769V188.829C110.696 189.49 110.901 190.036 111.28 190.438C111.69 190.84 112.215 191.041 112.858 191.041C113.531 191.041 114.057 190.84 114.466 190.438ZM124.458 190.754C124.487 190.782 124.517 190.812 124.546 190.812H130.623C130.71 190.812 130.769 190.84 130.827 190.897C130.886 190.955 130.915 191.012 130.915 191.099V193.224C130.915 193.31 130.886 193.368 130.827 193.425C130.769 193.482 130.71 193.512 130.623 193.512H120.543C120.455 193.512 120.397 193.482 120.338 193.425C120.279 193.368 120.25 193.31 120.25 193.224V191.214C120.25 191.07 120.309 190.984 120.397 190.897C121.127 190.18 121.887 189.433 122.647 188.599C123.406 187.767 123.873 187.25 124.078 187.048C124.487 186.561 124.926 186.101 125.364 185.67C126.708 184.176 127.409 183.084 127.409 182.367C127.409 181.85 127.233 181.418 126.853 181.103C126.474 180.786 126.006 180.614 125.393 180.614C124.809 180.614 124.312 180.786 123.932 181.103C123.552 181.418 123.377 181.878 123.377 182.424V182.969C123.377 183.056 123.347 183.114 123.289 183.171C123.231 183.229 123.173 183.257 123.085 183.257H120.455C120.367 183.257 120.309 183.229 120.25 183.171C120.193 183.114 120.163 183.056 120.163 182.969V181.935C120.221 181.131 120.455 180.442 120.923 179.839C121.39 179.235 122.003 178.776 122.764 178.431C123.523 178.116 124.4 177.943 125.335 177.943C126.386 177.943 127.321 178.144 128.11 178.518C128.9 178.92 129.483 179.437 129.921 180.097C130.36 180.758 130.565 181.505 130.565 182.309C130.565 182.912 130.418 183.544 130.097 184.205C129.776 184.837 129.308 185.555 128.694 186.301C128.227 186.876 127.73 187.45 127.205 187.997C126.679 188.542 125.86 189.346 124.809 190.41L124.487 190.725C124.429 190.697 124.429 190.725 124.458 190.754ZM144.18 186.818C144.239 186.876 144.268 186.933 144.268 187.02V189.231C144.268 189.318 144.239 189.375 144.18 189.433C144.122 189.49 144.063 189.519 143.975 189.519H143.012C142.924 189.519 142.895 189.548 142.895 189.633V193.224C142.895 193.31 142.866 193.368 142.807 193.425C142.748 193.482 142.69 193.512 142.602 193.512H139.972C139.886 193.512 139.827 193.482 139.768 193.425C139.71 193.368 139.681 193.31 139.681 193.224V189.633C139.681 189.548 139.651 189.519 139.563 189.519H132.697C132.61 189.519 132.551 189.49 132.492 189.433C132.435 189.375 132.406 189.318 132.406 189.231V187.48C132.406 187.393 132.435 187.278 132.463 187.163L136.495 178.288C136.554 178.144 136.671 178.086 136.818 178.086H139.622C139.739 178.086 139.798 178.116 139.827 178.173C139.856 178.231 139.856 178.288 139.827 178.403L136.204 186.618C136.174 186.646 136.174 186.675 136.204 186.704C136.233 186.733 136.233 186.761 136.262 186.761H139.651C139.739 186.761 139.768 186.733 139.768 186.646V183.918C139.768 183.831 139.798 183.774 139.856 183.716C139.915 183.659 139.972 183.631 140.06 183.631H142.69C142.778 183.631 142.836 183.659 142.895 183.716C142.954 183.774 142.983 183.831 142.983 183.918V186.646C142.983 186.733 143.012 186.761 143.099 186.761H144.063C144.063 186.761 144.151 186.79 144.18 186.818Z" fill="#252530"/>
</g>
<path d="M42.3335 134.709V123.24H46.8593C47.7294 123.24 48.4707 123.406 49.0831 123.737C49.6955 124.066 50.1622 124.524 50.4835 125.111C50.8083 125.693 50.9707 126.364 50.9707 127.126C50.9707 127.887 50.8065 128.56 50.4778 129.142C50.1492 129.724 49.673 130.178 49.0494 130.503C48.4295 130.828 47.6791 130.991 46.7978 130.991H43.9131V129.047H46.4056C46.8724 129.047 47.257 128.966 47.5595 128.806C47.8658 128.642 48.0935 128.416 48.2429 128.128C48.396 127.838 48.4726 127.503 48.4726 127.126C48.4726 126.745 48.396 126.413 48.2429 126.129C48.0935 125.842 47.8658 125.62 47.5595 125.463C47.2533 125.302 46.8649 125.222 46.3944 125.222H44.7589V134.709H42.3335ZM54.7237 134.871C54.1746 134.871 53.6856 134.776 53.2561 134.585C52.8266 134.391 52.4868 134.106 52.2367 133.729C51.9901 133.348 51.8669 132.874 51.8669 132.306C51.8669 131.829 51.9547 131.426 52.1302 131.102C52.3057 130.778 52.5447 130.516 52.8472 130.318C53.1496 130.12 53.4932 129.971 53.8778 129.87C54.2661 129.769 54.6732 129.699 55.099 129.657C55.5993 129.605 56.0025 129.557 56.3088 129.512C56.615 129.463 56.8372 129.392 56.9753 129.299C57.1135 129.205 57.1826 129.068 57.1826 128.884V128.851C57.1826 128.497 57.0706 128.222 56.8465 128.028C56.6262 127.833 56.3125 127.736 55.9055 127.736C55.4761 127.736 55.1343 127.832 54.8805 128.022C54.6265 128.208 54.4585 128.444 54.3763 128.728L52.1694 128.548C52.2814 128.026 52.5018 127.574 52.8304 127.193C53.159 126.809 53.5828 126.514 54.1019 126.308C54.6246 126.1 55.2297 125.995 55.9167 125.995C56.3946 125.995 56.8522 126.051 57.289 126.163C57.7296 126.275 58.1199 126.449 58.4597 126.684C58.8032 126.918 59.0739 127.221 59.2719 127.591C59.4699 127.957 59.5688 128.395 59.5688 128.907V134.709H57.3059V133.516H57.2386C57.1005 133.785 56.9156 134.022 56.6841 134.227C56.4525 134.428 56.1744 134.587 55.8494 134.703C55.5246 134.815 55.1493 134.871 54.7237 134.871ZM55.407 133.224C55.7579 133.224 56.0679 133.156 56.3368 133.017C56.6056 132.875 56.8167 132.685 56.9698 132.446C57.1229 132.207 57.1994 131.937 57.1994 131.634V130.721C57.1247 130.77 57.0221 130.815 56.8914 130.855C56.7644 130.894 56.6206 130.929 56.46 130.962C56.2994 130.992 56.1389 131.02 55.9783 131.046C55.8178 131.068 55.6721 131.09 55.5414 131.108C55.2613 131.149 55.0167 131.215 54.8076 131.304C54.5985 131.394 54.436 131.514 54.3203 131.668C54.2046 131.817 54.1467 132.004 54.1467 132.227C54.1467 132.553 54.2643 132.801 54.4996 132.973C54.7385 133.141 55.041 133.224 55.407 133.224ZM61.42 134.709V126.106H63.7334V127.608H63.823C63.9798 127.074 64.2431 126.671 64.6128 126.398C64.9824 126.122 65.4082 125.984 65.8898 125.984C66.0094 125.984 66.1381 125.991 66.2764 126.006C66.4145 126.021 66.5359 126.041 66.6404 126.068V128.185C66.5284 128.151 66.3734 128.122 66.1756 128.094C65.9776 128.069 65.7965 128.056 65.6322 128.056C65.2812 128.056 64.9675 128.133 64.6912 128.285C64.4186 128.435 64.202 128.644 64.0414 128.912C63.8846 129.181 63.8062 129.491 63.8062 129.843V134.709H61.42ZM72.8817 126.106V127.898H67.7005V126.106H72.8817ZM68.8767 124.046H71.2629V132.065C71.2629 132.286 71.2966 132.457 71.3637 132.581C71.431 132.7 71.5243 132.784 71.6438 132.832C71.7671 132.881 71.9089 132.905 72.0695 132.905C72.1816 132.905 72.2936 132.896 72.4056 132.877C72.5177 132.855 72.6035 132.838 72.6632 132.827L73.0385 134.602C72.9191 134.64 72.751 134.683 72.5345 134.731C72.3178 134.783 72.0546 134.815 71.7447 134.826C71.1696 134.849 70.6654 134.772 70.2322 134.596C69.8029 134.422 69.4687 134.149 69.2296 133.78C68.9906 133.409 68.873 132.943 68.8767 132.379V124.046ZM76.8222 129.736V134.709H74.436V126.106H76.7102V127.625H76.8111C77.0015 127.125 77.3208 126.728 77.7688 126.438C78.217 126.142 78.7603 125.995 79.3989 125.995C79.9964 125.995 80.5172 126.125 80.9616 126.387C81.4059 126.648 81.7514 127.022 81.9979 127.506C82.2443 127.989 82.3675 128.563 82.3675 129.232V134.709H79.9814V129.657C79.9851 129.131 79.8507 128.721 79.578 128.426C79.3055 128.127 78.9302 127.977 78.4523 127.977C78.1311 127.977 77.8472 128.046 77.6008 128.185C77.3581 128.323 77.1676 128.525 77.0295 128.789C76.8951 129.051 76.8259 129.366 76.8222 129.736ZM88.1691 134.877C87.2841 134.877 86.5224 134.698 85.8838 134.339C85.249 133.977 84.7598 133.465 84.4163 132.805C84.0726 132.141 83.9009 131.354 83.9009 130.446C83.9009 129.562 84.0726 128.786 84.4163 128.117C84.7598 127.449 85.2434 126.929 85.867 126.555C86.4943 126.182 87.23 125.995 88.0739 125.995C88.6415 125.995 89.1699 126.086 89.6591 126.27C90.152 126.449 90.5814 126.719 90.9473 127.082C91.3171 127.443 91.6046 127.898 91.81 128.448C92.0154 128.993 92.1181 129.631 92.1181 130.363V131.019H84.8531V129.54H89.8719C89.8719 129.196 89.7972 128.892 89.6478 128.627C89.4984 128.361 89.2912 128.154 89.0261 128.005C88.7648 127.852 88.4603 127.776 88.1131 127.776C87.7509 127.776 87.4298 127.86 87.1497 128.028C86.8733 128.192 86.6568 128.414 86.4999 128.694C86.3431 128.971 86.2628 129.278 86.259 129.619V131.024C86.259 131.449 86.3375 131.817 86.4943 132.127C86.6549 132.437 86.8809 132.676 87.1721 132.843C87.4633 133.011 87.8088 133.096 88.2083 133.096C88.4734 133.096 88.7162 133.059 88.9365 132.984C89.1568 132.909 89.3454 132.797 89.5023 132.648C89.6591 132.499 89.7785 132.315 89.8607 132.099L92.0677 132.244C91.9556 132.775 91.726 133.238 91.3786 133.633C91.0351 134.025 90.5907 134.332 90.0456 134.552C89.5041 134.769 88.8787 134.877 88.1691 134.877ZM93.6752 134.709V126.106H95.9886V127.608H96.0782C96.235 127.074 96.4983 126.671 96.868 126.398C97.2376 126.122 97.6634 125.984 98.145 125.984C98.2646 125.984 98.3934 125.991 98.5316 126.006C98.6697 126.021 98.7911 126.041 98.8956 126.068V128.185C98.7836 128.151 98.6286 128.122 98.4308 128.094C98.2328 128.069 98.0518 128.056 97.8874 128.056C97.5364 128.056 97.2228 128.133 96.9464 128.285C96.6738 128.435 96.4572 128.644 96.2966 128.912C96.1398 129.181 96.0614 129.491 96.0614 129.843V134.709H93.6752ZM107.288 128.56L105.103 128.694C105.066 128.508 104.986 128.339 104.862 128.19C104.739 128.037 104.577 127.915 104.375 127.826C104.177 127.733 103.94 127.686 103.664 127.686C103.294 127.686 102.982 127.764 102.728 127.921C102.474 128.074 102.348 128.279 102.348 128.537C102.348 128.742 102.43 128.917 102.594 129.059C102.758 129.2 103.04 129.314 103.44 129.4L104.997 129.713C105.833 129.885 106.457 130.161 106.868 130.542C107.278 130.923 107.484 131.423 107.484 132.043C107.484 132.607 107.318 133.101 106.985 133.527C106.657 133.953 106.205 134.285 105.63 134.524C105.058 134.76 104.399 134.877 103.653 134.877C102.514 134.877 101.606 134.64 100.93 134.166C100.258 133.687 99.8642 133.038 99.7484 132.216L102.095 132.093C102.166 132.44 102.338 132.706 102.611 132.889C102.883 133.068 103.232 133.158 103.658 133.158C104.076 133.158 104.412 133.077 104.666 132.917C104.924 132.752 105.055 132.542 105.058 132.284C105.055 132.067 104.963 131.889 104.784 131.752C104.605 131.61 104.329 131.502 103.955 131.426L102.465 131.13C101.625 130.962 100.999 130.671 100.589 130.256C100.182 129.843 99.9781 129.314 99.9781 128.671C99.9781 128.119 100.128 127.643 100.426 127.244C100.729 126.844 101.153 126.537 101.698 126.319C102.247 126.103 102.889 125.995 103.625 125.995C104.711 125.995 105.566 126.225 106.19 126.684C106.817 127.143 107.183 127.768 107.288 128.56ZM111.373 129.736V134.709H108.986V123.24H111.305V127.625H111.406C111.6 127.117 111.914 126.719 112.347 126.432C112.78 126.14 113.324 125.995 113.978 125.995C114.575 125.995 115.095 126.125 115.54 126.387C115.988 126.645 116.336 127.016 116.581 127.501C116.832 127.983 116.956 128.56 116.951 129.232V134.709H114.566V129.657C114.569 129.127 114.435 128.715 114.163 128.42C113.893 128.125 113.516 127.977 113.03 127.977C112.706 127.977 112.418 128.046 112.168 128.185C111.922 128.323 111.727 128.525 111.585 128.789C111.447 129.051 111.376 129.366 111.373 129.736ZM118.829 134.709V126.106H121.215V134.709H118.829ZM120.028 124.998C119.673 124.998 119.369 124.881 119.115 124.645C118.865 124.407 118.74 124.12 118.74 123.788C118.74 123.46 118.865 123.178 119.115 122.943C119.369 122.703 119.673 122.584 120.028 122.584C120.383 122.584 120.685 122.703 120.935 122.943C121.19 123.178 121.317 123.46 121.317 123.788C121.317 124.12 121.19 124.407 120.935 124.645C120.685 124.881 120.383 124.998 120.028 124.998ZM123.127 137.934V126.106H125.48V127.552H125.586C125.691 127.321 125.842 127.085 126.04 126.846C126.242 126.603 126.503 126.401 126.824 126.241C127.148 126.077 127.552 125.995 128.034 125.995C128.662 125.995 129.24 126.159 129.77 126.488C130.301 126.813 130.725 127.304 131.041 127.96C131.359 128.614 131.518 129.434 131.518 130.419C131.518 131.378 131.363 132.189 131.052 132.849C130.747 133.507 130.328 134.005 129.798 134.345C129.271 134.681 128.682 134.849 128.028 134.849C127.565 134.849 127.171 134.772 126.847 134.619C126.525 134.466 126.262 134.274 126.057 134.042C125.851 133.807 125.694 133.57 125.586 133.331H125.514V137.934H123.127ZM125.463 130.408C125.463 130.92 125.534 131.366 125.676 131.746C125.818 132.127 126.023 132.423 126.292 132.636C126.56 132.846 126.887 132.951 127.272 132.951C127.66 132.951 127.989 132.844 128.258 132.631C128.526 132.414 128.73 132.116 128.869 131.735C129.01 131.351 129.081 130.908 129.081 130.408C129.081 129.911 129.012 129.474 128.873 129.097C128.736 128.721 128.532 128.426 128.264 128.213C127.995 128 127.664 127.893 127.272 127.893C126.884 127.893 126.555 127.996 126.287 128.201C126.021 128.407 125.818 128.698 125.676 129.074C125.534 129.452 125.463 129.897 125.463 130.408ZM143.027 126.538C142.983 126.086 142.79 125.736 142.45 125.486C142.111 125.236 141.649 125.111 141.066 125.111C140.671 125.111 140.336 125.166 140.063 125.278C139.792 125.387 139.582 125.537 139.437 125.731C139.295 125.926 139.224 126.146 139.224 126.392C139.216 126.597 139.259 126.777 139.353 126.93C139.449 127.083 139.582 127.216 139.75 127.327C139.918 127.436 140.113 127.531 140.333 127.613C140.554 127.691 140.788 127.759 141.039 127.815L142.069 128.062C142.569 128.173 143.029 128.323 143.447 128.509C143.866 128.696 144.228 128.926 144.534 129.198C144.841 129.471 145.077 129.792 145.245 130.161C145.417 130.531 145.505 130.954 145.509 131.432C145.505 132.135 145.325 132.743 144.971 133.258C144.62 133.769 144.112 134.167 143.447 134.451C142.787 134.731 141.989 134.871 141.055 134.871C140.129 134.871 139.323 134.729 138.636 134.445C137.952 134.161 137.418 133.741 137.034 133.186C136.653 132.625 136.452 131.933 136.434 131.108H138.781C138.807 131.492 138.918 131.814 139.111 132.071C139.31 132.325 139.573 132.517 139.901 132.648C140.234 132.775 140.609 132.838 141.028 132.838C141.438 132.838 141.795 132.778 142.097 132.659C142.404 132.539 142.64 132.374 142.809 132.161C142.977 131.948 143.06 131.704 143.06 131.426C143.06 131.17 142.984 130.953 142.831 130.778C142.682 130.602 142.461 130.452 142.17 130.329C141.883 130.207 141.529 130.094 141.111 129.994L139.862 129.679C138.895 129.445 138.131 129.077 137.571 128.577C137.011 128.076 136.733 127.403 136.736 126.555C136.733 125.861 136.918 125.254 137.292 124.734C137.668 124.216 138.185 123.811 138.843 123.52C139.5 123.228 140.247 123.083 141.083 123.083C141.935 123.083 142.678 123.228 143.313 123.52C143.952 123.811 144.448 124.216 144.802 124.734C145.157 125.254 145.341 125.855 145.352 126.538H143.027ZM150.982 134.877C150.112 134.877 149.36 134.692 148.725 134.323C148.094 133.949 147.606 133.43 147.263 132.766C146.919 132.097 146.748 131.323 146.748 130.441C146.748 129.553 146.919 128.776 147.263 128.111C147.606 127.443 148.094 126.924 148.725 126.555C149.36 126.182 150.112 125.995 150.982 125.995C151.853 125.995 152.603 126.182 153.234 126.555C153.868 126.924 154.359 127.443 154.701 128.111C155.045 128.776 155.217 129.553 155.217 130.441C155.217 131.323 155.045 132.097 154.701 132.766C154.359 133.43 153.868 133.949 153.234 134.323C152.603 134.692 151.853 134.877 150.982 134.877ZM150.993 133.028C151.39 133.028 151.72 132.917 151.985 132.693C152.251 132.465 152.45 132.155 152.584 131.763C152.723 131.371 152.791 130.925 152.791 130.425C152.791 129.924 152.723 129.478 152.584 129.086C152.45 128.694 152.251 128.384 151.985 128.156C151.72 127.929 151.39 127.815 150.993 127.815C150.594 127.815 150.258 127.929 149.985 128.156C149.717 128.384 149.513 128.694 149.374 129.086C149.24 129.478 149.174 129.924 149.174 130.425C149.174 130.925 149.24 131.371 149.374 131.763C149.513 132.155 149.717 132.465 149.985 132.693C150.258 132.917 150.594 133.028 150.993 133.028ZM159.155 123.24V134.709H156.769V123.24H159.155ZM166.583 131.046V126.106H168.969V134.709H166.679V133.147H166.589C166.395 133.65 166.071 134.056 165.62 134.362C165.172 134.667 164.625 134.82 163.979 134.82C163.403 134.82 162.898 134.69 162.46 134.428C162.024 134.167 161.682 133.795 161.436 133.314C161.193 132.832 161.07 132.256 161.066 131.584V126.106H163.452V131.158C163.456 131.666 163.593 132.067 163.861 132.363C164.13 132.658 164.491 132.805 164.942 132.805C165.23 132.805 165.499 132.74 165.749 132.608C165.999 132.474 166.201 132.277 166.354 132.016C166.511 131.754 166.587 131.431 166.583 131.046ZM175.454 126.106V127.898H170.274V126.106H175.454ZM171.45 124.046H173.835V132.065C173.835 132.286 173.869 132.457 173.937 132.581C174.004 132.7 174.097 132.784 174.217 132.832C174.34 132.881 174.482 132.905 174.642 132.905C174.755 132.905 174.866 132.896 174.979 132.877C175.09 132.855 175.176 132.838 175.236 132.827L175.611 134.602C175.491 134.64 175.324 134.683 175.107 134.731C174.891 134.783 174.627 134.815 174.317 134.826C173.743 134.849 173.238 134.772 172.805 134.596C172.376 134.422 172.042 134.149 171.803 133.78C171.564 133.409 171.446 132.943 171.45 132.379V124.046ZM177.009 134.709V126.106H179.395V134.709H177.009ZM178.208 124.998C177.853 124.998 177.549 124.881 177.294 124.645C177.044 124.407 176.919 124.12 176.919 123.788C176.919 123.46 177.044 123.178 177.294 122.943C177.549 122.703 177.853 122.584 178.208 122.584C178.563 122.584 178.865 122.703 179.115 122.943C179.369 123.178 179.496 123.46 179.496 123.788C179.496 124.12 179.369 124.407 179.115 124.645C178.865 124.881 178.563 124.998 178.208 124.998ZM185.194 134.877C184.323 134.877 183.571 134.692 182.936 134.323C182.306 133.949 181.818 133.43 181.474 132.766C181.132 132.097 180.959 131.323 180.959 130.441C180.959 129.553 181.132 128.776 181.474 128.111C181.818 127.443 182.306 126.924 182.936 126.555C183.571 126.182 184.323 125.995 185.194 125.995C186.064 125.995 186.814 126.182 187.445 126.555C188.081 126.924 188.57 127.443 188.913 128.111C189.257 128.776 189.428 129.553 189.428 130.441C189.428 131.323 189.257 132.097 188.913 132.766C188.57 133.43 188.081 133.949 187.445 134.323C186.814 134.692 186.064 134.877 185.194 134.877ZM185.206 133.028C185.601 133.028 185.931 132.917 186.196 132.693C186.462 132.465 186.661 132.155 186.795 131.763C186.934 131.371 187.003 130.925 187.003 130.425C187.003 129.924 186.934 129.478 186.795 129.086C186.661 128.694 186.462 128.384 186.196 128.156C185.931 127.929 185.601 127.815 185.206 127.815C184.806 127.815 184.47 127.929 184.197 128.156C183.928 128.384 183.724 128.694 183.587 129.086C183.451 129.478 183.385 129.924 183.385 130.425C183.385 130.925 183.451 131.371 183.587 131.763C183.724 132.155 183.928 132.465 184.197 132.693C184.47 132.917 184.806 133.028 185.206 133.028ZM193.366 129.736V134.709H190.98V126.106H193.254V127.625H193.355C193.545 127.125 193.865 126.728 194.312 126.438C194.761 126.142 195.304 125.995 195.943 125.995C196.54 125.995 197.061 126.125 197.505 126.387C197.95 126.648 198.295 127.022 198.542 127.506C198.789 127.989 198.911 128.563 198.911 129.232V134.709H196.525V129.657C196.529 129.131 196.394 128.721 196.122 128.426C195.849 128.127 195.474 127.977 194.996 127.977C194.675 127.977 194.391 128.046 194.145 128.185C193.902 128.323 193.712 128.525 193.573 128.789C193.439 129.051 193.369 129.366 193.366 129.736Z" fill="white"/>
<path d="M70.9463 76.2132V71.3746H90.1749V76.2132H83.5204V93.4936H77.6006V76.2132H70.9463ZM98.1093 93.7961C96.3089 93.7961 94.7677 93.4397 93.4858 92.7267C92.2039 92.0067 91.2209 91.0059 90.5368 89.7244C89.8525 88.4355 89.5105 86.9414 89.5105 85.2422C89.5105 83.543 89.8525 82.0525 90.5368 80.7709C91.2209 79.4821 92.2039 78.4812 93.4858 77.7684C94.7677 77.0484 96.3089 76.6884 98.1093 76.6884C99.9097 76.6884 101.451 77.0484 102.733 77.7684C104.015 78.4812 104.998 79.4821 105.682 80.7709C106.366 82.0525 106.708 83.543 106.708 85.2422C106.708 86.9414 106.366 88.4355 105.682 89.7244C104.998 91.0059 104.015 92.0067 102.733 92.7267C101.451 93.4397 99.9097 93.7961 98.1093 93.7961ZM98.1525 89.3895C98.6566 89.3895 99.0923 89.2203 99.4596 88.8819C99.8269 88.5435 100.111 88.0611 100.313 87.4347C100.515 86.8083 100.615 86.063 100.615 85.199C100.615 84.3277 100.515 83.5825 100.313 82.9633C100.111 82.3369 99.8269 81.8546 99.4596 81.5161C99.0923 81.1777 98.6566 81.0085 98.1525 81.0085C97.6195 81.0085 97.1622 81.1777 96.7806 81.5161C96.3989 81.8546 96.1072 82.3369 95.9056 82.9633C95.7039 83.5825 95.6032 84.3277 95.6032 85.199C95.6032 86.063 95.7039 86.8083 95.9056 87.4347C96.1072 88.0611 96.3989 88.5435 96.7806 88.8819C97.1622 89.2203 97.6195 89.3895 98.1525 89.3895ZM109.128 99.7145V76.9044H115.048V79.7988H115.178C115.393 79.2372 115.711 78.7224 116.127 78.2544C116.545 77.7792 117.064 77.4012 117.683 77.1204C118.303 76.8324 119.023 76.6884 119.844 76.6884C120.938 76.6884 121.979 76.9799 122.966 77.5632C123.96 78.1465 124.767 79.0644 125.385 80.3173C126.013 81.5701 126.326 83.1974 126.326 85.199C126.326 87.1142 126.026 88.7019 125.429 89.9619C124.839 91.2219 124.047 92.1616 123.052 92.7808C122.066 93.4 120.982 93.7097 119.8 93.7097C119.023 93.7097 118.328 93.5836 117.716 93.3316C117.111 93.0724 116.593 92.7233 116.16 92.2839C115.735 91.8375 115.407 91.3336 115.178 90.7719H115.091V99.7145H109.128ZM114.961 85.199C114.961 86.0054 115.066 86.7038 115.275 87.2942C115.491 87.8775 115.793 88.3311 116.181 88.655C116.578 88.9719 117.05 89.1303 117.597 89.1303C118.144 89.1303 118.609 88.9755 118.99 88.6659C119.379 88.3491 119.675 87.8991 119.877 87.3158C120.085 86.7255 120.19 86.0199 120.19 85.199C120.19 84.3782 120.085 83.6761 119.877 83.093C119.675 82.5025 119.379 82.0525 118.99 81.7429C118.609 81.4261 118.144 81.2677 117.597 81.2677C117.05 81.2677 116.578 81.4261 116.181 81.7429C115.793 82.0525 115.491 82.5025 115.275 83.093C115.066 83.6761 114.961 84.3782 114.961 85.199ZM145.687 71.3746V93.4936H139.68V76.9044H139.551L134.711 79.7988V74.7012L140.156 71.3746H145.687ZM159.865 94.0984C157.856 94.0912 156.12 93.6269 154.658 92.7052C153.196 91.7836 152.069 90.4552 151.277 88.7199C150.485 86.9847 150.092 84.9038 150.1 82.4774C150.107 80.0437 150.503 77.9772 151.287 76.2779C152.079 74.5787 153.204 73.2863 154.658 72.4007C156.12 71.5151 157.856 71.0723 159.865 71.0723C161.875 71.0723 163.61 71.5187 165.072 72.4115C166.533 73.2971 167.661 74.5895 168.453 76.2888C169.245 77.988 169.637 80.0509 169.631 82.4774C169.631 84.9182 169.234 87.0063 168.442 88.7414C167.65 90.4767 166.523 91.8052 165.061 92.7267C163.606 93.6412 161.875 94.0984 159.865 94.0984ZM159.865 89.2167C160.902 89.2167 161.752 88.6767 162.414 87.5966C163.083 86.5094 163.415 84.803 163.408 82.4774C163.408 80.958 163.257 79.716 162.954 78.7512C162.652 77.7865 162.234 77.0735 161.701 76.6127C161.168 76.1448 160.556 75.9107 159.865 75.9107C158.828 75.9107 157.982 76.4363 157.326 77.4876C156.671 78.5388 156.336 80.2021 156.321 82.4774C156.314 84.0254 156.462 85.2999 156.764 86.3006C157.067 87.2942 157.485 88.0286 158.018 88.5039C158.558 88.9791 159.174 89.2167 159.865 89.2167Z" fill="black"/>
<path d="M157.733 172.344H77.7397V203.884H157.733V172.344Z" fill="#F8F8F8"/>
<path d="M121.181 189.434V192.495C121.181 194.35 120.745 195.812 119.875 196.882C119.004 197.938 117.726 198.466 116.043 198.466C114.359 198.466 113.081 197.938 112.211 196.882C111.341 195.812 110.905 194.35 110.905 192.495V189.434C110.905 187.579 111.341 186.124 112.211 185.068C113.081 184.013 114.359 183.484 116.043 183.484C117.726 183.484 119.004 184.013 119.875 185.068C120.745 186.124 121.181 187.579 121.181 189.434ZM118.591 189.434C118.591 187.052 117.741 185.86 116.043 185.86C115.172 185.86 114.53 186.16 114.117 186.759C113.702 187.358 113.496 188.25 113.496 189.434V192.495C113.496 193.679 113.702 194.577 114.117 195.191C114.53 195.791 115.172 196.09 116.043 196.09C117.741 196.09 118.591 194.892 118.591 192.495V189.434Z" fill="black"/>
<path d="M108.798 195.667V198.251H99.0439C99.1495 197.275 99.4664 196.35 99.9945 195.479C100.523 194.602 101.566 193.441 103.124 191.994C104.378 190.826 105.147 190.034 105.431 189.619C105.814 189.044 106.005 188.476 106.005 187.915C106.005 187.295 105.837 186.82 105.5 186.49C105.17 186.154 104.711 185.985 104.124 185.985C103.543 185.985 103.081 186.16 102.737 186.51C102.394 186.86 102.196 187.44 102.143 188.252L99.3707 187.975C99.5357 186.444 100.054 185.345 100.925 184.678C101.797 184.011 102.886 183.678 104.193 183.678C105.626 183.678 106.751 184.064 107.57 184.837C108.388 185.608 108.798 186.569 108.798 187.717C108.798 188.372 108.679 188.994 108.441 189.589C108.21 190.176 107.84 190.793 107.332 191.44C106.995 191.869 106.388 192.486 105.51 193.292C104.632 194.097 104.074 194.631 103.837 194.896C103.606 195.159 103.417 195.416 103.272 195.667H108.798ZM131.374 195.667V198.251H121.621C121.727 197.275 122.043 196.35 122.572 195.479C123.1 194.602 124.144 193.441 125.701 191.994C126.956 190.826 127.724 190.034 128.008 189.619C128.391 189.044 128.583 188.476 128.583 187.915C128.583 187.295 128.415 186.82 128.078 186.49C127.748 186.154 127.289 185.985 126.701 185.985C126.12 185.985 125.658 186.16 125.315 186.51C124.972 186.86 124.773 187.44 124.72 188.252L121.948 187.975C122.113 186.444 122.632 185.345 123.502 184.678C124.375 184.011 125.463 183.678 126.771 183.678C128.203 183.678 129.328 184.064 130.148 184.837C130.966 185.608 131.374 186.569 131.374 187.717C131.374 188.372 131.256 188.994 131.018 189.589C130.787 190.176 130.418 190.793 129.91 191.44C129.573 191.869 128.966 192.486 128.088 193.292C127.209 194.097 126.652 194.631 126.414 194.896C126.183 195.159 125.995 195.416 125.849 195.667H131.374ZM133.306 194.52L136.078 194.232C136.158 194.859 136.393 195.358 136.781 195.727C137.171 196.09 137.62 196.271 138.129 196.271C138.709 196.271 139.201 196.037 139.604 195.568C140.007 195.093 140.208 194.38 140.208 193.43C140.208 192.539 140.007 191.873 139.604 191.43C139.208 190.982 138.69 190.757 138.049 190.757C137.25 190.757 136.535 191.11 135.9 191.816L133.642 191.49L135.069 183.936H142.426V186.54H137.178L136.742 189.005C137.363 188.695 137.996 188.539 138.644 188.539C139.877 188.539 140.924 188.988 141.783 189.885C142.64 190.783 143.069 191.948 143.069 193.381C143.069 194.575 142.723 195.642 142.029 196.579C141.086 197.858 139.776 198.499 138.098 198.499C136.759 198.499 135.666 198.139 134.821 197.42C133.976 196.7 133.471 195.734 133.306 194.52Z" fill="black"/>
</g>
</g>
</g>
<defs>
<clipPath id="clip0_2636_8801">
<rect width="239.98" height="229.792" fill="white"/>
</clipPath>
</defs>
</svg>
