<svg width="20" height="21" viewBox="0 0 20 21" fill="none" xmlns="http://www.w3.org/2000/svg">
<path d="M19.5 3V1.5C19.5 1.10218 19.342 0.720644 19.0607 0.43934C18.7794 0.158035 18.3978 0 18 0H1.5C1.10218 0 0.720644 0.158035 0.43934 0.43934C0.158035 0.720644 0 1.10218 0 1.5V3C0 3.39782 0.158035 3.77936 0.43934 4.06066C0.720644 4.34196 1.10218 4.5 1.5 4.5V13.5H0.75C0.551088 13.5 0.360322 13.579 0.21967 13.7197C0.0790176 13.8603 0 14.0511 0 14.25C0 14.4489 0.0790176 14.6397 0.21967 14.7803C0.360322 14.921 0.551088 15 0.75 15H9V16.6294C8.49959 16.8063 8.07783 17.1544 7.80928 17.6122C7.54072 18.07 7.44265 18.6081 7.5324 19.1312C7.62216 19.6543 7.89395 20.1288 8.29976 20.471C8.70556 20.8131 9.21923 21.0007 9.75 21.0007C10.2808 21.0007 10.7944 20.8131 11.2002 20.471C11.606 20.1288 11.8778 19.6543 11.9676 19.1312C12.0573 18.6081 11.9593 18.07 11.6907 17.6122C11.4222 17.1544 11.0004 16.8063 10.5 16.6294V15H18.75C18.9489 15 19.1397 14.921 19.2803 14.7803C19.421 14.6397 19.5 14.4489 19.5 14.25C19.5 14.0511 19.421 13.8603 19.2803 13.7197C19.1397 13.579 18.9489 13.5 18.75 13.5H18V4.5C18.3978 4.5 18.7794 4.34196 19.0607 4.06066C19.342 3.77936 19.5 3.39782 19.5 3ZM7.5 10.5C7.5 10.6989 7.42098 10.8897 7.28033 11.0303C7.13968 11.171 6.94891 11.25 6.75 11.25C6.55109 11.25 6.36032 11.171 6.21967 11.0303C6.07902 10.8897 6 10.6989 6 10.5V9C6 8.80109 6.07902 8.61032 6.21967 8.46967C6.36032 8.32902 6.55109 8.25 6.75 8.25C6.94891 8.25 7.13968 8.32902 7.28033 8.46967C7.42098 8.61032 7.5 8.80109 7.5 9V10.5ZM9.75 19.5C9.60166 19.5 9.45666 19.456 9.33332 19.3736C9.20998 19.2912 9.11386 19.1741 9.05709 19.037C9.00032 18.9 8.98547 18.7492 9.01441 18.6037C9.04335 18.4582 9.11478 18.3246 9.21967 18.2197C9.32456 18.1148 9.4582 18.0433 9.60368 18.0144C9.74917 17.9855 9.89997 18.0003 10.037 18.0571C10.1741 18.1139 10.2912 18.21 10.3736 18.3333C10.456 18.4567 10.5 18.6017 10.5 18.75C10.5 18.9489 10.421 19.1397 10.2803 19.2803C10.1397 19.421 9.94891 19.5 9.75 19.5ZM10.5 10.5C10.5 10.6989 10.421 10.8897 10.2803 11.0303C10.1397 11.171 9.94891 11.25 9.75 11.25C9.55109 11.25 9.36032 11.171 9.21967 11.0303C9.07902 10.8897 9 10.6989 9 10.5V8.25C9 8.05109 9.07902 7.86032 9.21967 7.71967C9.36032 7.57902 9.55109 7.5 9.75 7.5C9.94891 7.5 10.1397 7.57902 10.2803 7.71967C10.421 7.86032 10.5 8.05109 10.5 8.25V10.5ZM13.5 10.5C13.5 10.6989 13.421 10.8897 13.2803 11.0303C13.1397 11.171 12.9489 11.25 12.75 11.25C12.5511 11.25 12.3603 11.171 12.2197 11.0303C12.079 10.8897 12 10.6989 12 10.5V7.5C12 7.30109 12.079 7.11032 12.2197 6.96967C12.3603 6.82902 12.5511 6.75 12.75 6.75C12.9489 6.75 13.1397 6.82902 13.2803 6.96967C13.421 7.11032 13.5 7.30109 13.5 7.5V10.5ZM1.5 3V1.5H18V3H1.5Z" fill="#2563EB"/>
</svg>
