<svg width="32" height="32" viewBox="0 0 32 32" fill="none" xmlns="http://www.w3.org/2000/svg">
<path d="M28 11.6667C27.448 11.6667 27 11.2187 27 10.6667V6C27 5.21467 26.7853 5 26 5H21.3333C20.7813 5 20.3333 4.552 20.3333 4C20.3333 3.448 20.7813 3 21.3333 3H26C27.8787 3 29 4.12133 29 6V10.6667C29 11.2187 28.552 11.6667 28 11.6667ZM5 10.6667V6C5 5.21467 5.21467 5 6 5H10.6667C11.2187 5 11.6667 4.552 11.6667 4C11.6667 3.448 11.2187 3 10.6667 3H6C4.12133 3 3 4.12133 3 6V10.6667C3 11.2187 3.448 11.6667 4 11.6667C4.552 11.6667 5 11.2187 5 10.6667ZM11.6667 28C11.6667 27.448 11.2187 27 10.6667 27H6C5.21467 27 5 26.7853 5 26V21.3333C5 20.7813 4.552 20.3333 4 20.3333C3.448 20.3333 3 20.7813 3 21.3333V26C3 27.8787 4.12133 29 6 29H10.6667C11.2187 29 11.6667 28.552 11.6667 28ZM29 26V21.3333C29 20.7813 28.552 20.3333 28 20.3333C27.448 20.3333 27 20.7813 27 21.3333V26C27 26.7853 26.7853 27 26 27H21.3333C20.7813 27 20.3333 27.448 20.3333 28C20.3333 28.552 20.7813 29 21.3333 29H26C27.8787 29 29 27.8787 29 26ZM20.12 11.1107C20.12 8.84401 18.2746 7 16.008 7C13.7413 7 11.8973 8.84401 11.8973 11.1107C11.8973 13.3773 13.7413 15.2214 16.008 15.2214C18.2746 15.2214 20.12 13.3787 20.12 11.1107ZM18.12 11.1107C18.12 12.2747 17.172 13.2214 16.008 13.2214C14.844 13.2214 13.8973 12.2747 13.8973 11.1107C13.8973 9.94668 14.844 9 16.008 9C17.172 9 18.12 9.94668 18.12 11.1107ZM23.2227 21.3493C23.2227 18.8306 21.7973 15.888 17.7773 15.888H14.2227C10.2027 15.888 8.77734 18.8306 8.77734 21.3493C8.77734 23.6693 10.1146 25 12.4466 25H19.5534C21.8854 25 23.2227 23.6693 23.2227 21.3493ZM17.7773 17.8893C20.8867 17.8893 21.2227 20.3093 21.2227 21.3506C21.2227 22.5693 20.7867 23.0013 19.5534 23.0013H12.4466C11.2133 23.0013 10.7773 22.5693 10.7773 21.3506C10.7773 20.3106 11.1133 17.8893 14.2227 17.8893H17.7773Z" fill="white"/>
</svg>
