<svg xmlns="http://www.w3.org/2000/svg" width="40" height="40" viewBox="0 0 40 40" fill="none">
  <path d="M35 14.5833C34.31 14.5833 33.75 14.0233 33.75 13.3333V7.5C33.75 6.51833 33.4817 6.25 32.5 6.25H26.6667C25.9767 6.25 25.4167 5.69 25.4167 5C25.4167 4.31 25.9767 3.75 26.6667 3.75H32.5C34.8483 3.75 36.25 5.15167 36.25 7.5V13.3333C36.25 14.0233 35.69 14.5833 35 14.5833ZM6.25 13.3333V7.5C6.25 6.51833 6.51833 6.25 7.5 6.25H13.3333C14.0233 6.25 14.5833 5.69 14.5833 5C14.5833 4.31 14.0233 3.75 13.3333 3.75H7.5C5.15167 3.75 3.75 5.15167 3.75 7.5V13.3333C3.75 14.0233 4.31 14.5833 5 14.5833C5.69 14.5833 6.25 14.0233 6.25 13.3333ZM14.5833 35C14.5833 34.31 14.0233 33.75 13.3333 33.75H7.5C6.51833 33.75 6.25 33.4817 6.25 32.5V26.6667C6.25 25.9767 5.69 25.4167 5 25.4167C4.31 25.4167 3.75 25.9767 3.75 26.6667V32.5C3.75 34.8483 5.15167 36.25 7.5 36.25H13.3333C14.0233 36.25 14.5833 35.69 14.5833 35ZM36.25 32.5V26.6667C36.25 25.9767 35.69 25.4167 35 25.4167C34.31 25.4167 33.75 25.9767 33.75 26.6667V32.5C33.75 33.4817 33.4817 33.75 32.5 33.75H26.6667C25.9767 33.75 25.4167 34.31 25.4167 35C25.4167 35.69 25.9767 36.25 26.6667 36.25H32.5C34.8483 36.25 36.25 34.8483 36.25 32.5ZM25.1499 13.8883C25.1499 11.055 22.8433 8.75 20.01 8.75C17.1766 8.75 14.8716 11.055 14.8716 13.8883C14.8716 16.7217 17.1766 19.0267 20.01 19.0267C22.8433 19.0267 25.1499 16.7233 25.1499 13.8883ZM22.6499 13.8883C22.6499 15.3433 21.465 16.5267 20.01 16.5267C18.555 16.5267 17.3716 15.3433 17.3716 13.8883C17.3716 12.4333 18.555 11.25 20.01 11.25C21.465 11.25 22.6499 12.4333 22.6499 13.8883ZM29.0283 26.6866C29.0283 23.5383 27.2467 19.86 22.2217 19.86H17.7783C12.7533 19.86 10.9717 23.5383 10.9717 26.6866C10.9717 29.5866 12.6433 31.25 15.5583 31.25H24.4417C27.3567 31.25 29.0283 29.5866 29.0283 26.6866ZM22.2217 22.3617C26.1083 22.3617 26.5283 25.3866 26.5283 26.6882C26.5283 28.2116 25.9834 28.7516 24.4417 28.7516H15.5583C14.0166 28.7516 13.4717 28.2116 13.4717 26.6882C13.4717 25.3882 13.8917 22.3617 17.7783 22.3617H22.2217Z" fill="#736FE3"/>
</svg>