<svg xmlns="http://www.w3.org/2000/svg" width="12" height="10" viewBox="0 0 12 10" fill="none">
  <g clip-path="url(#clip0_1635_32558)">
    <path d="M6.78857 4.59169L7.95843 5.80848L9.53165 6.7232L9.80531 4.59937L9.53165 2.52344L7.92829 3.327L6.78857 4.59169Z" fill="#00832D"/>
    <path d="M0 6.52515V8.33496C0 8.74819 0.368625 9.08371 0.822844 9.08371H2.81175L3.22359 7.71626L2.81175 6.52515L1.44722 6.15039L0 6.52515Z" fill="#0066DA"/>
    <path d="M2.81175 0.0996094L0 2.65817L1.44731 3.03203L2.81175 2.65817L3.21609 1.48326L2.81175 0.0996094Z" fill="#E94235"/>
    <path d="M0 6.52675H2.8117V2.6582H0V6.52675Z" fill="#2684FC"/>
    <path d="M11.3279 1.18352L9.53174 2.52439V6.7241L11.3353 8.07018C11.6053 8.26263 12.0003 8.08724 12.0003 7.77493V1.4728C12.0003 1.15703 11.5959 0.982488 11.3279 1.18356" fill="#00AC47"/>
    <path d="M6.7883 4.5918V6.52565H2.81152V9.0842H8.70859C9.1628 9.0842 9.53138 8.74869 9.53138 8.33546V6.7233L6.7883 4.5918Z" fill="#00AC47"/>
    <path d="M8.70859 0.0996094H2.81152V2.65817H6.78831V4.59202L9.53143 2.52372V0.848401C9.53143 0.435083 9.16281 0.0996094 8.70859 0.0996094Z" fill="#FFBA00"/>
  </g>
  <defs>
    <clipPath id="clip0_1635_32558">
      <rect width="12" height="9" fill="white" transform="translate(0 0.0996094)"/>
    </clipPath>
  </defs>
</svg>