<svg width="89" height="89" viewBox="0 0 89 89" fill="none" xmlns="http://www.w3.org/2000/svg">
<rect width="89" height="89" rx="5.93333" fill="#22A565" fill-opacity="0.1"/>
<mask id="mask0_5547_38084" style="mask-type:alpha" maskUnits="userSpaceOnUse" x="23" y="15" width="43" height="59">
<path d="M49.434 15.6797H27.1656C25.0042 15.6797 23.2358 17.4481 23.2358 19.6094V69.3859C23.2358 71.5473 25.0042 73.3157 27.1656 73.3157H61.2232C63.3845 73.3157 65.1529 71.5473 65.1529 69.3859V31.3986L49.434 15.6797Z" fill="white"/>
</mask>
<g mask="url(#mask0_5547_38084)">
<path d="M49.434 15.6797H27.1656C25.0042 15.6797 23.2358 17.4481 23.2358 19.6094V69.3859C23.2358 71.5473 25.0042 73.3157 27.1656 73.3157H61.2232C63.3845 73.3157 65.1529 71.5473 65.1529 69.3859V31.3986L55.9835 24.849L49.434 15.6797Z" fill="#0F9D58"/>
</g>
<mask id="mask1_5547_38084" style="mask-type:alpha" maskUnits="userSpaceOnUse" x="23" y="15" width="43" height="59">
<path d="M49.434 15.6797H27.1656C25.0042 15.6797 23.2358 17.4481 23.2358 19.6094V69.3859C23.2358 71.5473 25.0042 73.3157 27.1656 73.3157H61.2232C63.3845 73.3157 65.1529 71.5473 65.1529 69.3859V31.3986L49.434 15.6797Z" fill="white"/>
</mask>
<g mask="url(#mask1_5547_38084)">
<path d="M33.7129 43.8438V62.8374H54.6714V43.8438H33.7129ZM42.8823 60.2176H36.3328V56.9428H42.8823V60.2176ZM42.8823 54.9779H36.3328V51.7032H42.8823V54.9779ZM42.8823 49.7383H36.3328V46.4636H42.8823V49.7383ZM52.0516 60.2176H45.5021V56.9428H52.0516V60.2176ZM52.0516 54.9779H45.5021V51.7032H52.0516V54.9779ZM52.0516 49.7383H45.5021V46.4636H52.0516V49.7383Z" fill="#F1F1F1"/>
</g>
<mask id="mask2_5547_38084" style="mask-type:alpha" maskUnits="userSpaceOnUse" x="23" y="15" width="43" height="59">
<path d="M49.434 15.6797H27.1656C25.0042 15.6797 23.2358 17.4481 23.2358 19.6094V69.3859C23.2358 71.5473 25.0042 73.3157 27.1656 73.3157H61.2232C63.3845 73.3157 65.1529 71.5473 65.1529 69.3859V31.3986L49.434 15.6797Z" fill="white"/>
</mask>
<g mask="url(#mask2_5547_38084)">
<path d="M50.5825 30.25L65.152 44.8162V31.3995L50.5825 30.25Z" fill="url(#paint0_linear_5547_38084)"/>
</g>
<mask id="mask3_5547_38084" style="mask-type:alpha" maskUnits="userSpaceOnUse" x="23" y="15" width="43" height="59">
<path d="M49.434 15.6797H27.1656C25.0042 15.6797 23.2358 17.4481 23.2358 19.6094V69.3859C23.2358 71.5473 25.0042 73.3157 27.1656 73.3157H61.2232C63.3845 73.3157 65.1529 71.5473 65.1529 69.3859V31.3986L49.434 15.6797Z" fill="white"/>
</mask>
<g mask="url(#mask3_5547_38084)">
<path d="M49.4346 15.6797V27.4689C49.4346 29.64 51.1931 31.3986 53.3643 31.3986H65.1535L49.4346 15.6797Z" fill="#87CEAC"/>
</g>
<mask id="mask4_5547_38084" style="mask-type:alpha" maskUnits="userSpaceOnUse" x="23" y="15" width="43" height="59">
<path d="M49.434 15.6797H27.1656C25.0042 15.6797 23.2358 17.4481 23.2358 19.6094V69.3859C23.2358 71.5473 25.0042 73.3157 27.1656 73.3157H61.2232C63.3845 73.3157 65.1529 71.5473 65.1529 69.3859V31.3986L49.434 15.6797Z" fill="white"/>
</mask>
<g mask="url(#mask4_5547_38084)">
<path d="M27.1656 15.6797C25.0042 15.6797 23.2358 17.4481 23.2358 19.6094V19.9369C23.2358 17.7755 25.0042 16.0072 27.1656 16.0072H49.434V15.6797H27.1656Z" fill="white" fill-opacity="0.2"/>
</g>
<mask id="mask5_5547_38084" style="mask-type:alpha" maskUnits="userSpaceOnUse" x="23" y="15" width="43" height="59">
<path d="M49.434 15.6797H27.1656C25.0042 15.6797 23.2358 17.4481 23.2358 19.6094V69.3859C23.2358 71.5473 25.0042 73.3157 27.1656 73.3157H61.2232C63.3845 73.3157 65.1529 71.5473 65.1529 69.3859V31.3986L49.434 15.6797Z" fill="white"/>
</mask>
<g mask="url(#mask5_5547_38084)">
<path d="M61.2232 72.9893H27.1656C25.0042 72.9893 23.2358 71.2209 23.2358 69.0596V69.387C23.2358 71.5484 25.0042 73.3168 27.1656 73.3168H61.2232C63.3845 73.3168 65.1529 71.5484 65.1529 69.387V69.0596C65.1529 71.2209 63.3845 72.9893 61.2232 72.9893Z" fill="#263238" fill-opacity="0.2"/>
</g>
<mask id="mask6_5547_38084" style="mask-type:alpha" maskUnits="userSpaceOnUse" x="23" y="15" width="43" height="59">
<path d="M49.434 15.6797H27.1656C25.0042 15.6797 23.2358 17.4481 23.2358 19.6094V69.3859C23.2358 71.5473 25.0042 73.3157 27.1656 73.3157H61.2232C63.3845 73.3157 65.1529 71.5473 65.1529 69.3859V31.3986L49.434 15.6797Z" fill="white"/>
</mask>
<g mask="url(#mask6_5547_38084)">
<path d="M53.3643 31.3994C51.1931 31.3994 49.4346 29.6409 49.4346 27.4697V27.7972C49.4346 29.9684 51.1931 31.7269 53.3643 31.7269H65.1535V31.3994H53.3643Z" fill="#263238" fill-opacity="0.1"/>
</g>
<path d="M49.4326 15.6816H27.1641C25.0028 15.6816 23.2344 17.45 23.2344 19.6114V69.3879C23.2344 71.5493 25.0028 73.3176 27.1641 73.3176H61.2217C63.3831 73.3176 65.1515 71.5493 65.1515 69.3879V31.4005L49.4326 15.6816Z" fill="url(#paint1_radial_5547_38084)"/>
<defs>
<linearGradient id="paint0_linear_5547_38084" x1="57.8681" y1="31.5007" x2="57.8681" y2="44.8182" gradientUnits="userSpaceOnUse">
<stop stop-color="#263238" stop-opacity="0.2"/>
<stop offset="1" stop-color="#263238" stop-opacity="0.02"/>
</linearGradient>
<radialGradient id="paint1_radial_5547_38084" cx="0" cy="0" r="1" gradientUnits="userSpaceOnUse" gradientTransform="translate(24.5623 16.8273) scale(67.5908 67.5907)">
<stop stop-color="white" stop-opacity="0.1"/>
<stop offset="1" stop-color="white" stop-opacity="0"/>
</radialGradient>
</defs>
</svg>
