<svg width="59" height="58" viewBox="0 0 59 58" fill="none" xmlns="http://www.w3.org/2000/svg">
<rect x="0.666992" width="58" height="58" rx="16" fill="#22A565" fill-opacity="0.1"/>
<g clip-path="url(#clip0_1220_33336)">
<path d="M19.167 11.6758L8.66699 22.1758L13.917 25.4256L19.167 22.1758L22.1317 16.9258L19.167 11.6758Z" fill="#FF2820"/>
<path d="M19.167 22.1758H8.66699V35.8258L13.917 38.7088L19.167 35.8258V22.1758Z" fill="#0084FF"/>
<path d="M8.66699 35.8242V42.8242C8.66699 44.7492 10.242 46.3242 12.167 46.3242H19.167L22.1317 40.7509L19.167 35.8242H8.66699Z" fill="#0066DD"/>
<path d="M48.4987 15.4053L42.0047 20.5496V20.6023L39.8867 28.6882L42.0047 36.871L48.4698 42.0744C49.3372 42.8022 50.6672 42.1908 50.6672 41.0554V16.4243C50.6672 15.2889 49.3661 14.6775 48.4987 15.4053Z" fill="#00AD3C"/>
<path d="M42.0045 20.548V15.1356C42.0045 13.2327 40.463 11.6758 38.5789 11.6758H31.7276H19.167V22.1758H32.0295V29.0008L38.9401 28.2309L42.0045 20.548Z" fill="#FFBA00"/>
<path d="M32.0295 35.825H19.167V46.325H31.7276H38.5789C40.463 46.325 42.0045 44.7703 42.0045 42.8702V36.875L38.5762 29.8317L32.0295 29V35.825Z" fill="#00AD3C"/>
<path d="M32.0293 28.9996L42.0043 36.8746V20.5469L32.0293 28.9996Z" fill="#00831E"/>
</g>
<defs>
<clipPath id="clip0_1220_33336">
<rect width="42" height="42" fill="white" transform="translate(8.66699 8)"/>
</clipPath>
</defs>
</svg>
