<svg width="16" height="16" viewBox="0 0 16 16" fill="none" xmlns="http://www.w3.org/2000/svg">
<path d="M2.56655 5.74693C2.46925 5.30862 2.48419 4.85283 2.60999 4.42183C2.73579 3.99083 2.96838 3.59857 3.2862 3.28142C3.60401 2.96427 3.99676 2.7325 4.42802 2.6076C4.85929 2.4827 5.31511 2.46871 5.75322 2.56694C5.99436 2.1898 6.32655 1.87944 6.71918 1.66446C7.11182 1.44948 7.55225 1.33679 7.99988 1.33679C8.44752 1.33679 8.88795 1.44948 9.28058 1.66446C9.67322 1.87944 10.0054 2.1898 10.2466 2.56694C10.6853 2.46828 11.1419 2.48221 11.5739 2.60741C12.0058 2.73261 12.3991 2.96503 12.7171 3.28304C13.0351 3.60105 13.2675 3.99432 13.3927 4.42627C13.5179 4.85822 13.5319 5.31482 13.4332 5.7536C13.8104 5.99474 14.1207 6.32694 14.3357 6.71957C14.5507 7.1122 14.6634 7.55263 14.6634 8.00027C14.6634 8.4479 14.5507 8.88834 14.3357 9.28097C14.1207 9.6736 13.8104 10.0058 13.4332 10.2469C13.5314 10.685 13.5175 11.1409 13.3926 11.5721C13.2677 12.0034 13.0359 12.3961 12.7187 12.714C12.4016 13.0318 12.0093 13.2644 11.5783 13.3902C11.1473 13.516 10.6915 13.5309 10.2532 13.4336C10.0124 13.8122 9.67994 14.1239 9.28663 14.3398C8.89333 14.5558 8.4519 14.669 8.00322 14.669C7.55453 14.669 7.1131 14.5558 6.7198 14.3398C6.3265 14.1239 5.99404 13.8122 5.75322 13.4336C5.31511 13.5318 4.85929 13.5178 4.42802 13.3929C3.99676 13.268 3.60401 13.0363 3.2862 12.7191C2.96838 12.402 2.73579 12.0097 2.60999 11.5787C2.48419 11.1477 2.46925 10.6919 2.56655 10.2536C2.18652 10.0131 1.87349 9.68038 1.65658 9.28641C1.43967 8.89244 1.32593 8.45001 1.32593 8.00027C1.32593 7.55053 1.43967 7.1081 1.65658 6.71413C1.87349 6.32015 2.18652 5.98744 2.56655 5.74693Z" fill="#2BA84A"/>
<path d="M5.99988 8.00027L7.33322 9.3336L9.99988 6.66693" fill="#2BA84A"/>
<path d="M5 7.71429L7.18182 10L11 6" stroke="white"/>
</svg>
