<svg width="32" height="32" viewBox="0 0 32 32" fill="none" xmlns="http://www.w3.org/2000/svg">
<path d="M16.6667 3H15.3333C13.4547 3 12.3333 4.12133 12.3333 6V26C12.3333 27.8787 13.4547 29 15.3333 29H16.6667C18.5453 29 19.6667 27.8787 19.6667 26V6C19.6667 4.12133 18.5453 3 16.6667 3ZM17.6667 26C17.6667 26.7853 17.452 27 16.6667 27H15.3333C14.548 27 14.3333 26.7853 14.3333 26V6C14.3333 5.21467 14.548 5 15.3333 5H16.6667C17.452 5 17.6667 5.21467 17.6667 6V26ZM26 9.66667H24.6667C22.788 9.66667 21.6667 10.788 21.6667 12.6667V26C21.6667 27.8787 22.788 29 24.6667 29H26C27.8787 29 29 27.8787 29 26V12.6667C29 10.788 27.8787 9.66667 26 9.66667ZM27 26C27 26.7853 26.7853 27 26 27H24.6667C23.8813 27 23.6667 26.7853 23.6667 26V12.6667C23.6667 11.8813 23.8813 11.6667 24.6667 11.6667H26C26.7853 11.6667 27 11.8813 27 12.6667V26ZM7.33333 15H6C4.12133 15 3 16.1213 3 18V26C3 27.8787 4.12133 29 6 29H7.33333C9.212 29 10.3333 27.8787 10.3333 26V18C10.3333 16.1213 9.212 15 7.33333 15ZM8.33333 26C8.33333 26.7853 8.11867 27 7.33333 27H6C5.21467 27 5 26.7853 5 26V18C5 17.2147 5.21467 17 6 17H7.33333C8.11867 17 8.33333 17.2147 8.33333 18V26Z" fill="white"/>
</svg>
