<svg xmlns="http://www.w3.org/2000/svg" width="40" height="40" viewBox="0 0 40 40" fill="none">
  <path d="M20.8333 3.75H19.1667C16.8183 3.75 15.4167 5.15167 15.4167 7.5V32.5C15.4167 34.8483 16.8183 36.25 19.1667 36.25H20.8333C23.1817 36.25 24.5833 34.8483 24.5833 32.5V7.5C24.5833 5.15167 23.1817 3.75 20.8333 3.75ZM22.0833 32.5C22.0833 33.4817 21.815 33.75 20.8333 33.75H19.1667C18.185 33.75 17.9167 33.4817 17.9167 32.5V7.5C17.9167 6.51833 18.185 6.25 19.1667 6.25H20.8333C21.815 6.25 22.0833 6.51833 22.0833 7.5V32.5ZM32.5 12.0833H30.8333C28.485 12.0833 27.0833 13.485 27.0833 15.8333V32.5C27.0833 34.8483 28.485 36.25 30.8333 36.25H32.5C34.8483 36.25 36.25 34.8483 36.25 32.5V15.8333C36.25 13.485 34.8483 12.0833 32.5 12.0833ZM33.75 32.5C33.75 33.4817 33.4817 33.75 32.5 33.75H30.8333C29.8517 33.75 29.5833 33.4817 29.5833 32.5V15.8333C29.5833 14.8517 29.8517 14.5833 30.8333 14.5833H32.5C33.4817 14.5833 33.75 14.8517 33.75 15.8333V32.5ZM9.16667 18.75H7.5C5.15167 18.75 3.75 20.1517 3.75 22.5V32.5C3.75 34.8483 5.15167 36.25 7.5 36.25H9.16667C11.515 36.25 12.9167 34.8483 12.9167 32.5V22.5C12.9167 20.1517 11.515 18.75 9.16667 18.75ZM10.4167 32.5C10.4167 33.4817 10.1483 33.75 9.16667 33.75H7.5C6.51833 33.75 6.25 33.4817 6.25 32.5V22.5C6.25 21.5183 6.51833 21.25 7.5 21.25H9.16667C10.1483 21.25 10.4167 21.5183 10.4167 22.5V32.5Z" fill="#736FE3"/>
</svg>