<svg width="58" height="58" viewBox="0 0 58 58" fill="none" xmlns="http://www.w3.org/2000/svg">
<path fill-rule="evenodd" clip-rule="evenodd" d="M16.5093 13.5886C14.683 13.8408 13.4181 15.554 13.7215 17.3644C13.8994 18.4261 14.5685 19.3124 15.5632 19.8042C16.0911 20.0652 16.1165 20.0702 16.9202 20.0702C17.6591 20.0702 17.7864 20.0505 18.2204 19.8694L18.7013 19.6685L19.8508 20.4762C20.4829 20.9203 22.7866 22.5382 24.97 24.0715C27.1533 25.6047 28.9686 26.8854 29.0041 26.9175C29.0408 26.9508 28.9193 27.1463 28.7205 27.3736C27.1537 29.1651 26.4034 31.2146 26.5154 33.3972C26.5945 34.9388 27.0312 36.2942 27.8482 37.5337L28.1451 37.984L26.5548 39.5743L24.9646 41.1645L24.5834 41.0828C23.4731 40.8446 22.2561 41.4694 21.7736 42.5253C21.6029 42.8988 21.5713 43.0607 21.5695 43.5712C21.5675 44.113 21.5913 44.224 21.7999 44.6477C22.0868 45.2305 22.5895 45.7019 23.1461 45.9102C23.6434 46.0963 24.4274 46.1138 24.9131 45.9497C26.0264 45.5735 26.7864 44.3144 26.5773 43.1922L26.4958 42.7545L28.0716 41.1773C28.9383 40.3097 29.672 39.6 29.702 39.6C29.732 39.6 29.9396 39.724 30.1633 39.8755C31.0355 40.4663 32.1571 40.9295 33.2064 41.1322C33.9729 41.2803 35.404 41.2973 36.1349 41.1671C41.5463 40.2029 44.5375 34.4315 42.1939 29.4762C41.1089 27.1822 39.0985 25.5609 36.6225 24.9835L35.9931 24.8367V22.8625V20.8883L36.2865 20.7386C36.7358 20.5094 37.2494 19.9502 37.5035 19.4138C37.7156 18.966 37.7298 18.887 37.729 18.1562C37.7283 17.4238 37.7144 17.3481 37.5011 16.9107C37.0722 16.0308 36.4044 15.4754 35.497 15.2438C33.7703 14.803 32.0409 16.1016 31.9016 17.9435C31.8152 19.0859 32.367 20.1448 33.3486 20.72L33.6538 20.8989V22.877C33.6538 24.7627 33.6476 24.8552 33.5211 24.8552C33.2439 24.8552 32.0116 25.2086 31.469 25.4437L30.9033 25.6889L30.1342 25.1171C29.7111 24.8026 27.8723 23.4501 26.048 22.1114C24.2235 20.7728 22.1492 19.2395 21.4382 18.7042C20.1784 17.7555 20.1468 17.7255 20.1923 17.5182C20.3409 16.8426 20.1996 15.9109 19.8518 15.2717C19.1998 14.0739 17.8645 13.4015 16.5093 13.5886ZM33.5982 28.7498C32.1077 29.1759 30.94 30.3365 30.4912 31.8377C30.3176 32.4179 30.3176 33.5968 30.4912 34.177C30.855 35.3938 31.7357 36.4512 32.8124 36.9637C33.5573 37.3184 33.992 37.4185 34.776 37.416C36.0126 37.4121 36.9617 37.0074 37.8755 36.0943C38.8227 35.1479 39.2373 34.0707 39.1592 32.7592C39.0895 31.5904 38.697 30.736 37.8365 29.8805C37.2452 29.2926 36.59 28.9157 35.8187 28.7197C35.2436 28.5735 34.1636 28.5881 33.5982 28.7498Z" fill="#FF7A59"/>
</svg>
