<svg width="116" height="64" viewBox="0 0 116 64" fill="none" xmlns="http://www.w3.org/2000/svg">
<rect x="0.5" width="64" height="64" rx="16" fill="#3E50F7"/>
<path d="M32.3299 35.9868C29.2146 33.5017 21.9884 30.8092 18.0058 39.9209C17.7672 33.3217 24.9665 14.516 28.6043 11.0856C29.382 10.2602 31.2887 9.11022 32.6944 11.1137C32.8351 11.3142 33.0334 11.5777 33.2802 11.9055C34.1509 13.0624 35.6248 15.0207 37.2972 17.8402C36.498 18.1887 35.7903 18.8038 35.3604 19.509C35.6486 19.3772 35.9333 19.2366 36.2174 19.0962C36.691 18.8622 37.1631 18.629 37.6474 18.4386C37.8701 18.8241 38.0957 19.2244 38.3233 19.6397C37.3504 20.1941 36.5032 20.9756 35.9669 21.8103C36.2948 21.6452 36.6213 21.4739 36.948 21.3025C37.5399 20.992 38.1329 20.681 38.736 20.4056C38.9537 20.8164 39.1727 21.2407 39.3923 21.6788C38.2916 22.4191 37.3307 23.3449 36.629 24.3348C36.9281 24.1691 37.2277 24.0007 37.5282 23.8319C38.2887 23.4044 39.0548 22.9737 39.8335 22.5766C42.9648 29.0744 46.1008 38.3606 47 50.7683C38.0203 54.9375 35.8814 55.6055 29.7501 49.583C34.6971 49.8633 42.8797 45.4838 36.0343 25.7227C29.8022 7.73164 26.2096 19.3645 23.3895 28.4962C23.112 29.3946 22.8421 30.2688 22.5778 31.0882C24.8494 30.5133 29.9801 30.6883 32.3299 35.9868Z" fill="white"/>
<rect x="52.5" y="1" width="62" height="62" rx="15" fill="#FF7A59"/>
<rect x="52.5" y="1" width="62" height="62" rx="15" stroke="white" stroke-width="2"/>
<path fill-rule="evenodd" clip-rule="evenodd" d="M66.5601 8.77026C63.9448 9.13146 62.1333 11.5848 62.5678 14.1773C62.8225 15.6977 63.7807 16.967 65.2052 17.6713C65.9612 18.0451 65.9977 18.0522 67.1486 18.0522C68.2068 18.0522 68.389 18.0241 69.0105 17.7646L69.6993 17.477L71.3453 18.6336C72.2506 19.2697 75.5495 21.5866 78.6763 23.7823C81.803 25.978 84.4026 27.812 84.4533 27.858C84.5059 27.9057 84.3319 28.1856 84.0473 28.5111C81.8035 31.0767 80.729 34.0116 80.8894 37.1373C81.0027 39.345 81.628 41.2859 82.7981 43.061L83.2232 43.7058L80.9459 45.9831L78.6686 48.2605L78.1227 48.1434C76.5326 47.8024 74.7899 48.6971 74.0989 50.2092C73.8544 50.7441 73.8093 50.9759 73.8066 51.707C73.8038 52.4828 73.8378 52.6418 74.1365 53.2486C74.5474 54.0831 75.2673 54.7583 76.0643 55.0566C76.7766 55.3231 77.8992 55.3481 78.5948 55.1131C80.1892 54.5744 81.2775 52.7712 80.9781 51.1642L80.8613 50.5375L83.118 48.2787C84.3591 47.0364 85.4098 46.02 85.4528 46.02C85.4957 46.02 85.7931 46.1975 86.1134 46.4146C87.3625 47.2606 88.9687 47.9239 90.4712 48.2143C91.5689 48.4263 93.6185 48.4507 94.6651 48.2642C102.415 46.8834 106.698 38.6184 103.342 31.5222C101.788 28.2371 98.9091 25.9153 95.3634 25.0884L94.4621 24.8782V22.0509V19.2238L94.8822 19.0094C95.5255 18.6812 96.2611 17.8804 96.6251 17.1123C96.9288 16.471 96.9491 16.3578 96.948 15.3113C96.9469 14.2625 96.927 14.154 96.6216 13.5277C96.0073 12.2676 95.051 11.4722 93.7516 11.1406C91.2789 10.5093 88.8023 12.369 88.6027 15.0067C88.479 16.6427 89.2693 18.159 90.675 18.9828L91.112 19.2389V22.0718C91.112 24.7722 91.1032 24.9046 90.922 24.9046C90.5249 24.9046 88.7603 25.4107 87.9833 25.7474L87.1732 26.0985L86.0717 25.2797C85.4659 24.8293 82.8326 22.8924 80.22 20.9754C77.6073 19.0583 74.6367 16.8626 73.6186 16.096C71.8145 14.7375 71.7692 14.6945 71.8345 14.3976C72.0471 13.4301 71.8449 12.0958 71.3468 11.1805C70.4131 9.46514 68.5009 8.50226 66.5601 8.77026ZM91.0323 30.4819C88.8979 31.0921 87.2257 32.7541 86.583 34.9039C86.3344 35.7349 86.3344 37.4231 86.583 38.254C87.1039 39.9965 88.3652 41.5107 89.907 42.2447C90.9739 42.7526 91.5963 42.8959 92.7191 42.8924C94.49 42.8868 95.8491 42.3072 97.1577 40.9997C98.5142 39.6444 99.108 38.1018 98.9961 36.2237C98.8963 34.5499 98.3341 33.3263 97.1019 32.1012C96.2551 31.2593 95.3168 30.7195 94.2123 30.4387C93.3886 30.2294 91.842 30.2503 91.0323 30.4819Z" fill="white"/>
</svg>
