<svg width="90" height="90" viewBox="0 0 90 90" fill="none" xmlns="http://www.w3.org/2000/svg">
<rect width="90" height="90" rx="6" fill="#FF7A59" fill-opacity="0.1"/>
<path fill-rule="evenodd" clip-rule="evenodd" d="M20.973 13.3681C17.3502 13.8685 14.8409 17.267 15.4427 20.8583C15.7956 22.9644 17.1229 24.7226 19.0962 25.6983C20.1434 26.2161 20.1939 26.2259 21.7882 26.2259C23.254 26.2259 23.5065 26.187 24.3674 25.8275L25.3215 25.4291L27.6017 27.0313C28.8557 27.9124 33.4256 31.1219 37.7568 34.1635C42.0881 37.2051 45.6892 39.7456 45.7595 39.8093C45.8324 39.8754 45.5913 40.2631 45.197 40.7141C42.0888 44.268 40.6004 48.3336 40.8226 52.6634C40.9795 55.7216 41.8458 58.4102 43.4666 60.8692L44.0554 61.7624L40.9008 64.9171L37.7463 68.0717L36.99 67.9096C34.7874 67.4372 32.3733 68.6765 31.4161 70.7711C31.0774 71.5121 31.0149 71.8333 31.0112 72.8461C31.0073 73.9207 31.0544 74.1409 31.4682 74.9814C32.0373 76.1375 33.0346 77.0728 34.1387 77.486C35.1253 77.8551 36.6805 77.8899 37.6441 77.5643C39.8526 76.818 41.3602 74.3202 40.9455 72.0941L40.7836 71.2259L43.9097 68.097C45.629 66.376 47.0845 64.9681 47.144 64.9681C47.2035 64.9681 47.6153 65.2141 48.0592 65.5147C49.7894 66.6867 52.0144 67.6055 54.0958 68.0077C55.6163 68.3015 58.4554 68.3352 59.9053 68.0769C70.6402 66.1641 76.5738 54.7151 71.9248 44.8852C69.7725 40.3344 65.7842 37.1182 60.8726 35.9728L59.624 35.6815V31.7651V27.8489L60.2061 27.5519C61.0972 27.0972 62.1162 25.988 62.6203 24.9239C63.0411 24.0355 63.0692 23.8787 63.0676 22.429C63.0661 20.9762 63.0385 20.8259 62.6155 19.9584C61.7646 18.2128 60.4398 17.111 58.6399 16.6516C55.2146 15.7772 51.7839 18.3533 51.5074 22.0072C51.336 24.2733 52.4308 26.3739 54.378 27.515L54.9834 27.8698V31.794C54.9834 35.5347 54.9712 35.7181 54.7201 35.7181C54.1702 35.7181 51.7257 36.4193 50.6493 36.8856L49.5271 37.372L48.0014 36.2377C47.1621 35.6139 43.5144 32.9308 39.8953 30.2752C36.2761 27.6196 32.1611 24.5781 30.7508 23.5161C28.2516 21.6342 28.1889 21.5746 28.2793 21.1634C28.5739 19.8231 28.2938 17.9749 27.6037 16.7069C26.3104 14.3307 23.6614 12.9969 20.973 13.3681ZM54.873 43.444C51.9164 44.2893 49.5998 46.5916 48.7095 49.5697C48.3653 50.7207 48.3653 53.0593 48.7095 54.2103C49.4312 56.6241 51.1784 58.7217 53.3142 59.7384C54.792 60.4419 55.6543 60.6405 57.2096 60.6356C59.6627 60.6279 61.5454 59.825 63.3582 58.0138C65.2372 56.1363 66.0597 53.9995 65.9048 51.3978C65.7665 49.0792 64.9877 47.3842 63.2808 45.6871C62.1079 44.5209 60.8081 43.7732 59.2781 43.3843C58.1371 43.0943 55.9946 43.1233 54.873 43.444Z" fill="#FF7A59"/>
</svg>
