<svg width="1200" height="630" viewBox="0 0 1200 630" fill="none" xmlns="http://www.w3.org/2000/svg">
<g filter="url(#filter0_f_4551_479919)">
<path fill-rule="evenodd" clip-rule="evenodd" d="M32.0214 43.3021C38.1423 54.0647 45.0942 64.7306 52.8769 75.2998C60.3813 85.7643 68.5772 96.0796 77.4651 106.246C86.0745 116.307 95.4206 126.101 105.503 135.625C115.496 145.388 125.903 154.898 136.722 164.154C147.82 173.515 159.331 182.622 171.256 191.475C182.902 200.223 195.056 208.889 207.717 217.474C220.378 226.058 233.269 234.456 246.388 242.667C259.598 250.639 272.992 258.544 286.57 266.382C300.147 274.22 313.815 281.818 327.573 289.178C341.699 296.403 355.686 303.576 369.534 310.697C383.75 317.684 398.011 324.55 412.317 331.298C426.345 337.94 440.462 344.344 454.67 350.508C468.787 356.912 483.04 362.957 497.427 368.643C511.725 374.569 525.834 380.15 539.754 385.388C553.953 390.731 568.103 395.782 582.203 400.542C596.393 405.062 610.49 409.411 624.491 413.588C638.862 417.631 653.043 421.33 667.037 424.685C681.03 428.04 694.835 431.051 708.451 433.718C722.436 436.252 736.372 438.493 750.258 440.444C763.955 442.05 777.604 443.365 791.203 444.389C804.802 445.413 818.303 445.853 831.705 445.711C845.296 445.913 858.649 445.48 871.764 444.411C885.158 443.447 898.313 441.848 911.232 439.614C924.338 437.723 937.301 435.369 950.121 432.552C962.662 429.63 975.199 426.297 987.732 422.553C999.986 418.705 1012.05 414.512 1023.93 409.976C1036.08 405.545 1047.82 400.545 1059.13 394.978C1070.63 389.754 1081.85 384.015 1092.78 377.759C1103.63 371.743 1114.33 365.264 1124.89 358.321C1135.08 351.512 1145.03 344.48 1154.76 337.223C1164.29 329.622 1173.59 321.797 1182.66 313.747C1191.73 305.698 1200.28 297.319 1208.33 288.612C1216.37 279.904 1224.14 271.092 1231.62 262.175C1238.92 252.914 1245.8 243.496 1252.26 233.921C1258.73 224.346 1264.77 214.614 1270.4 204.725C1276.12 194.596 1281.42 184.311 1286.3 173.868C1291.19 163.426 1295.7 152.706 1299.83 141.71C1303.88 130.953 1307.69 119.972 1311.27 108.767C1314.86 97.5612 1318.02 86.1986 1320.76 74.6789C1323.51 63.1591 1326.12 51.587 1328.58 39.9625C1330.86 27.9942 1332.82 16.0406 1334.45 4.10187C1336.17 -8.07597 1337.61 -20.3585 1338.78 -32.7459C1339.85 -44.8942 1340.69 -57.2668 1341.3 -69.8636C1342.19 -82.3557 1342.61 -94.8854 1342.57 -107.453C1342.9 -120.154 1342.95 -132.961 1342.73 -145.872C1342.41 -158.544 1341.95 -171.268 1341.36 -184.045C1340.48 -196.927 1339.43 -209.741 1338.18 -222.489C1336.66 -235.341 1334.96 -248.125 1333.07 -260.843C1330.9 -273.666 1328.51 -286.302 1325.88 -298.751C1323.07 -311.544 1319.98 -324.031 1316.61 -336.211C1313.06 -348.736 1309.1 -361.006 1304.72 -373.023C1300.34 -385.04 1295.46 -396.975 1290.07 -408.828C1284.58 -420.442 1278.73 -431.922 1272.51 -443.267C1266.29 -454.612 1259.52 -465.756 1252.2 -476.699C1244.78 -487.402 1236.95 -497.852 1228.71 -508.048C1220.19 -518.349 1211.12 -528.448 1201.5 -538.346C1192.06 -547.9 1182.07 -557.252 1171.53 -566.403C1160.9 -575.315 1150 -583.921 1138.82 -592.221C1127.36 -600.625 1115.63 -608.724 1103.62 -616.516C1091.53 -624.069 1078.97 -631.248 1065.96 -638.055C1053.31 -644.996 1040.35 -651.511 1027.07 -657.6C1014.06 -663.584 1000.74 -669.143 987.1 -674.276C973.458 -679.409 959.681 -684.184 945.769 -688.6C931.767 -692.777 917.769 -696.543 903.776 -699.898C889.783 -703.253 875.794 -706.197 861.809 -708.73C847.734 -711.024 833.664 -712.907 819.598 -714.379C805.81 -715.747 791.982 -716.584 778.113 -716.89C764.244 -717.197 750.518 -717.04 736.936 -716.42C723.444 -716.039 710.05 -715.075 696.755 -713.528C683.182 -712.086 669.752 -710.181 656.465 -707.812C643.547 -705.578 630.494 -702.985 617.306 -700.034C604.396 -696.978 591.536 -693.63 578.725 -689.991C566.004 -686.591 553.287 -682.78 540.575 -678.558C528.141 -674.231 515.661 -669.785 503.137 -665.219C490.892 -660.549 478.74 -655.707 466.683 -650.692C454.536 -645.439 442.528 -640.133 430.659 -634.775C418.791 -629.417 407.016 -623.887 395.336 -618.185C383.656 -612.483 372.209 -606.557 360.996 -600.407C349.594 -594.6 338.286 -588.622 327.073 -582.471C316.138 -576.216 305.342 -569.908 294.686 -563.549C283.939 -556.95 273.332 -550.298 262.864 -543.594C252.396 -536.891 242.161 -529.963 232.16 -522.81C222.159 -515.658 212.391 -508.282 202.857 -500.681C193.322 -493.08 184.066 -485.374 175.089 -477.564C166.021 -469.514 157.232 -461.36 148.722 -453.101C140.121 -444.603 131.754 -435.881 123.62 -426.935C115.576 -418.227 107.86 -409.123 100.472 -399.624C92.8051 -390.229 85.5109 -380.557 78.5894 -370.608C71.9462 -360.555 65.3973 -350.33 58.9427 -339.933C52.7665 -329.432 46.9628 -318.653 41.5318 -307.598C36.1009 -296.543 31.0875 -285.331 26.4918 -273.962C21.6176 -262.697 17.2553 -251.104 13.4049 -239.181C9.64446 -227.497 6.34643 -215.776 3.51107 -204.017C0.58589 -192.02 -1.73758 -179.932 -3.45923 -167.754C-5.09093 -155.815 -6.26016 -143.839 -6.96673 -131.825C-7.76326 -119.572 -7.86803 -107.468 -7.28102 -95.5127C-6.69411 -83.5578 -5.4603 -71.6324 -3.57979 -59.7365C-1.69928 -47.8406 0.872875 -36.0938 4.1368 -24.496C7.12242 -13.0029 11.078 -1.55425 16.0039 9.85021C20.6513 21.1499 25.9905 32.3006 32.0214 43.3021Z" fill="url(#paint0_linear_4551_479919)" fill-opacity="0.12"/>
</g>
<defs>
<filter id="filter0_f_4551_479919" x="-191.655" y="-901.043" width="1718.52" height="1530.8" filterUnits="userSpaceOnUse" color-interpolation-filters="sRGB">
<feFlood flood-opacity="0" result="BackgroundImageFix"/>
<feBlend mode="normal" in="SourceGraphic" in2="BackgroundImageFix" result="shape"/>
<feGaussianBlur stdDeviation="92" result="effect1_foregroundBlur_4551_479919"/>
</filter>
<linearGradient id="paint0_linear_4551_479919" x1="953.651" y1="344.717" x2="-770.133" y2="-620.515" gradientUnits="userSpaceOnUse">
<stop stop-color="#4AA4D9"/>
<stop offset="0.168929" stop-color="#1E55CA"/>
<stop offset="0.317672" stop-color="#5D44CD"/>
<stop offset="0.561218" stop-color="#5442C2" stop-opacity="0.4525"/>
<stop offset="0.999411" stop-color="#213781" stop-opacity="0"/>
</linearGradient>
</defs>
</svg>
