<svg width="24" height="25" viewBox="0 0 24 25" fill="none" xmlns="http://www.w3.org/2000/svg">
<path d="M2 5.49219L8.91302 9.41681C11.4387 10.8506 12.5613 10.8506 15.087 9.41681L22 5.49219" stroke="#141B34" stroke-width="1.5" stroke-linejoin="round"/>
<path d="M21.996 10.9946C21.9933 10.6279 21.9894 10.2624 21.9842 10.0187C21.9189 6.95224 21.8862 5.41901 20.7551 4.28324C19.6239 3.14747 18.0497 3.1079 14.9012 3.02877C12.9607 2.98 11.0393 2.97999 9.09882 3.02876C5.95033 3.10789 4.37608 3.14745 3.24495 4.28322C2.11382 5.41899 2.08114 6.95222 2.01576 10.0187C1.99474 11.0047 1.99475 11.9848 2.01577 12.9708C2.08114 16.0373 2.11383 17.5705 3.24496 18.7063C4.37608 19.842 5.95033 19.8816 9.09883 19.9607C9.7068 19.976 10.4957 19.9865 11 19.9922" stroke="#141B34" stroke-width="1.5" stroke-linecap="round" stroke-linejoin="round"/>
<path d="M15.5861 19.1404C14.9573 19.5089 13.3087 20.2615 14.3128 21.2032C14.8033 21.6632 15.3496 21.9922 16.0365 21.9922H19.9557C20.6425 21.9922 21.1888 21.6632 21.6794 21.2032C22.6835 20.2615 21.0348 19.5089 20.4061 19.1404C18.9316 18.2761 17.0606 18.2761 15.5861 19.1404Z" stroke="#141B34" stroke-width="1.5"/>
<path d="M19.9961 14.4922C19.9961 15.5968 19.1007 16.4922 17.9961 16.4922C16.8915 16.4922 15.9961 15.5968 15.9961 14.4922C15.9961 13.3876 16.8915 12.4922 17.9961 12.4922C19.1007 12.4922 19.9961 13.3876 19.9961 14.4922Z" stroke="#141B34" stroke-width="1.5"/>
</svg>
