<svg width="204" height="175" viewBox="0 0 204 175" fill="none" xmlns="http://www.w3.org/2000/svg">
<path d="M92.0436 142.002C128.153 142.002 157.42 112.735 157.42 76.5011C157.42 40.2669 128.016 11 92.0436 11C55.9459 11 26.6676 40.2669 26.6676 76.5011C26.6676 112.735 55.9459 142.002 92.0436 142.002Z" fill="#EAEEF9"/>
<g filter="url(#filter0_d_1055_40595)">
<path d="M140.121 120.92C128.175 133.889 111.058 142.004 92.0435 142.004C76.8701 142.004 62.9129 136.844 51.8199 128.16V21.2537C51.8199 17.7189 54.6614 14.832 58.2189 14.832H121.708L140.121 33.3015V120.92Z" fill="url(#paint0_linear_1055_40595)"/>
</g>
<path d="M121.708 15.6055V29.5286C121.708 32.0404 123.743 34.0749 126.255 34.0749H141.258" fill="#D5DDEA"/>
<path fill-rule="evenodd" clip-rule="evenodd" d="M128.108 41.4817C129.028 42.7206 128.767 44.4709 127.528 45.3916L106.876 60.7127C105.91 61.4401 104.581 61.4514 103.592 60.7468L96.4767 55.7003L83.6561 63.736C82.7696 64.2929 81.6216 64.3043 80.7237 63.7473L76.848 61.3946L67.619 66.9866C66.2892 67.7936 64.5729 67.3617 63.7773 66.0432C62.9703 64.7248 63.4022 63.0086 64.7207 62.2016L75.4045 55.7344C76.3024 55.1889 77.4163 55.2002 78.3142 55.7344L82.1558 58.0758L95.0901 49.972C96.0448 49.3696 97.2723 49.4037 98.193 50.0515L105.172 55.007L124.187 40.9021C125.425 39.9814 127.187 40.2429 128.108 41.4817Z" fill="#AAB2C5"/>
<path d="M127.824 84.185H101.5C101.057 84.185 100.671 83.8554 100.671 83.3894V81.2413C100.671 80.8207 101.012 80.457 101.5 80.457H127.824C128.267 80.457 128.653 80.7753 128.653 81.2413V83.3894C128.608 83.8554 128.267 84.185 127.824 84.185Z" fill="#D6DCE8"/>
<path d="M119.436 89.7765H101.489C101.057 89.7765 100.671 89.5378 100.671 89.1854V87.5715C100.671 87.2646 101.012 86.9805 101.489 86.9805H119.436C119.879 86.9805 120.265 87.2305 120.265 87.5715V89.1854C120.265 89.5037 119.879 89.7765 119.436 89.7765Z" fill="#D6DCE8"/>
<path d="M127.824 100.969H101.5C101.057 100.969 100.671 100.559 100.671 99.9797V97.2974C100.671 96.7746 101.012 96.3086 101.5 96.3086H127.824C128.267 96.3086 128.653 96.7064 128.653 97.2974V99.9797C128.653 100.559 128.267 100.969 127.824 100.969Z" fill="#D6DCE8"/>
<path d="M119.436 107.498H101.489C101.057 107.498 100.671 107.179 100.671 106.713V104.565C100.671 104.145 101.012 103.77 101.489 103.77H119.436C119.879 103.77 120.265 104.099 120.265 104.565V106.713C120.265 107.122 119.879 107.498 119.436 107.498Z" fill="#D6DCE8"/>
<path d="M127.824 116.826H101.5C101.057 116.826 100.671 116.496 100.671 116.03V113.882C100.671 113.461 101.012 113.098 101.5 113.098H127.824C128.267 113.098 128.653 113.416 128.653 113.882V116.03C128.653 116.496 128.267 116.826 127.824 116.826Z" fill="#D6DCE8"/>
<path d="M119.436 123.351H101.489C101.057 123.351 100.671 122.942 100.671 122.363V119.68C100.671 119.157 101.012 118.691 101.489 118.691H119.436C119.879 118.691 120.265 119.101 120.265 119.68V122.363C120.265 122.942 119.879 123.351 119.436 123.351Z" fill="#D6DCE8"/>
<path d="M91.1003 100.04H66.4138C64.7089 100.04 63.3678 98.6423 63.3678 96.9602V83.5258C63.3678 81.8096 64.7544 80.457 66.4138 80.457H91.1003C92.8052 80.457 94.1463 81.855 94.1463 83.5258V96.9602C94.1918 98.6423 92.8052 100.04 91.1003 100.04Z" fill="#D6DCE8"/>
<path d="M91.1003 123.353H66.4138C64.7089 123.353 63.3678 121.955 63.3678 120.273V106.85C63.3678 105.122 64.7544 103.77 66.4138 103.77H91.1003C92.8052 103.77 94.1463 105.168 94.1463 106.85V120.273C94.1918 122 92.8052 123.353 91.1003 123.353Z" fill="#D6DCE8"/>
<g filter="url(#filter1_d_1055_40595)">
<path d="M181.811 69.4532V132.272C181.811 135.454 179.208 138 176.026 138H127.914C124.732 138 122.129 135.398 122.129 132.272V69.4532C122.129 66.2707 124.732 63.668 127.914 63.668H176.083C179.208 63.668 181.811 66.2707 181.811 69.4532Z" fill="white"/>
</g>
<path d="M181.811 69.4532V85.1607C181.811 85.7858 181.299 86.2973 180.674 86.2973H123.266C122.629 86.2973 122.129 85.7858 122.129 85.1607V69.4532C122.129 66.2707 124.732 63.668 127.914 63.668H176.083C179.208 63.668 181.811 66.2707 181.811 69.4532Z" fill="#BFC8D6"/>
<path d="M135.268 97.4699H128.835C127.914 97.4699 127.164 96.7198 127.164 95.7992V92.9009C127.164 91.9689 127.914 91.2188 128.835 91.2188H135.268C136.188 91.2188 136.95 91.9689 136.95 92.9009V95.7992C136.95 96.7198 136.188 97.4699 135.268 97.4699Z" fill="#D6DCE8"/>
<path d="M148.577 97.4699H142.155C141.235 97.4699 140.473 96.7198 140.473 95.7992V92.9009C140.473 91.9689 141.235 91.2188 142.155 91.2188H148.577C149.509 91.2188 150.259 91.9689 150.259 92.9009V95.7992C150.259 96.7198 149.509 97.4699 148.577 97.4699Z" fill="#D6DCE8"/>
<path d="M161.955 97.4699H155.477C154.545 97.4699 153.795 96.7198 153.795 95.7992V92.9009C153.795 91.9689 154.545 91.2188 155.477 91.2188H161.898C162.819 91.2188 163.581 91.9689 163.581 92.9009V95.7992C163.581 96.7198 162.819 97.4699 161.955 97.4699Z" fill="#D6DCE8"/>
<path d="M175.276 97.4699H168.843C167.922 97.4699 167.161 96.7198 167.161 95.7992V92.9009C167.161 91.9689 167.922 91.2188 168.843 91.2188H175.276C176.196 91.2188 176.947 91.9689 176.947 92.9009V95.7992C176.89 96.7198 176.196 97.4699 175.276 97.4699Z" fill="#D6DCE8"/>
<path d="M135.268 107.95H128.835C127.914 107.95 127.164 107.2 127.164 106.28V103.381C127.164 102.449 127.914 101.699 128.835 101.699H135.268C136.188 101.699 136.95 102.449 136.95 103.381V106.28C136.95 107.2 136.188 107.95 135.268 107.95Z" fill="#D6DCE8"/>
<path d="M148.577 107.95H142.155C141.235 107.95 140.473 107.2 140.473 106.28V103.381C140.473 102.449 141.235 101.699 142.155 101.699H148.577C149.509 101.699 150.259 102.449 150.259 103.381V106.28C150.259 107.2 149.509 107.95 148.577 107.95Z" fill="#D6DCE8"/>
<path d="M161.955 107.95H155.477C154.545 107.95 153.795 107.2 153.795 106.28V103.381C153.795 102.449 154.545 101.699 155.477 101.699H161.898C162.819 101.699 163.581 102.449 163.581 103.381V106.28C163.581 107.2 162.819 107.95 161.955 107.95Z" fill="#D6DCE8"/>
<path d="M175.276 107.95H168.843C167.922 107.95 167.161 107.2 167.161 106.28V103.381C167.161 102.449 167.922 101.699 168.843 101.699H175.276C176.196 101.699 176.947 102.449 176.947 103.381V106.28C176.89 107.2 176.196 107.95 175.276 107.95Z" fill="#D6DCE8"/>
<path d="M135.268 118.372H128.835C127.914 118.372 127.164 117.622 127.164 116.69V113.803C127.164 112.871 127.914 112.121 128.835 112.121H135.268C136.188 112.121 136.95 112.871 136.95 113.803V116.69C136.95 117.679 136.188 118.372 135.268 118.372Z" fill="#D6DCE8"/>
<path d="M148.577 118.372H142.155C141.235 118.372 140.473 117.622 140.473 116.69V113.803C140.473 112.871 141.235 112.121 142.155 112.121H148.577C149.509 112.121 150.259 112.871 150.259 113.803V116.69C150.259 117.679 149.509 118.372 148.577 118.372Z" fill="#D6DCE8"/>
<path d="M161.955 118.372H155.477C154.545 118.372 153.795 117.622 153.795 116.69V113.803C153.795 112.871 154.545 112.121 155.477 112.121H161.898C162.819 112.121 163.581 112.871 163.581 113.803V116.69C163.581 117.679 162.819 118.372 161.955 118.372Z" fill="#D6DCE8"/>
<path d="M176.89 113.862V127.228C176.89 128.16 176.14 128.91 175.276 128.91H168.843C167.922 128.91 167.161 128.16 167.161 127.228V113.862C167.161 112.93 167.922 112.18 168.843 112.18H175.276C176.196 112.18 176.89 112.93 176.89 113.862Z" fill="#D6DCE8"/>
<path d="M135.268 128.853H128.835C127.914 128.853 127.164 128.103 127.164 127.171V124.284C127.164 123.352 127.914 122.602 128.835 122.602H135.268C136.188 122.602 136.95 123.352 136.95 124.284V127.171C136.95 128.159 136.188 128.853 135.268 128.853Z" fill="#D6DCE8"/>
<path d="M148.577 128.853H142.155C141.235 128.853 140.473 128.103 140.473 127.171V124.284C140.473 123.352 141.235 122.602 142.155 122.602H148.577C149.509 122.602 150.259 123.352 150.259 124.284V127.171C150.259 128.159 149.509 128.853 148.577 128.853Z" fill="#D6DCE8"/>
<path d="M161.955 128.853H155.477C154.545 128.853 153.795 128.103 153.795 127.171V124.284C153.795 123.352 154.545 122.602 155.477 122.602H161.898C162.819 122.602 163.581 123.352 163.581 124.284V127.171C163.581 128.159 162.819 128.853 161.955 128.853Z" fill="#D6DCE8"/>
<path d="M174.173 80.8549H129.937C128.437 80.8549 127.164 79.6388 127.164 78.0817V71.535C127.164 70.0347 128.38 68.7617 129.937 68.7617H174.173C175.673 68.7617 176.946 69.9779 176.946 71.535V78.0817C176.889 79.582 175.673 80.8549 174.173 80.8549Z" fill="white"/>
<path d="M155.238 76.1131H171.798C172.605 76.1131 173.242 75.4766 173.242 74.6583C173.242 73.8513 172.605 73.2148 171.798 73.2148H155.238C154.431 73.2148 153.795 73.8513 153.795 74.6583C153.852 75.4766 154.488 76.1131 155.238 76.1131Z" fill="#D6DCE8"/>
<path d="M25.1107 74.9691C25.4403 73.9007 24.656 72.7301 23.5649 72.5482C14.7564 70.616 6.06159 75.6397 4.43628 84.4368C3.10648 91.6655 7.24363 99.4397 14.37 102.747C23.7695 107.146 34.2942 102.974 37.1129 94.0068C37.2834 93.4727 37.4198 93.0294 37.4994 92.4611C37.7381 91.3586 36.9311 90.2902 35.715 90.1538L22.3147 88.4831C21.5986 88.4262 21.1099 87.6647 21.3372 86.9487L25.1107 74.9691Z" fill="#BFC8D6"/>
<path d="M27.3038 73.706C26.4855 73.3196 25.5308 73.6833 25.2807 74.4789C24.8375 75.8996 24.1669 78.0364 24.1669 78.0364L21.4163 86.7426C21.1663 87.5382 21.7573 88.3338 22.6552 88.4588L36.2487 90.1978C37.158 90.3115 37.874 89.6863 37.8172 88.868C37.6126 83.8671 35.1235 79.1389 31.0091 75.911C29.8043 75.0813 28.5995 74.263 27.3038 73.706Z" fill="#989FB0"/>
<g filter="url(#filter2_d_1055_40595)">
<path d="M70.7102 46.8839H26.6791C24.6219 46.8839 22.8716 45.1335 22.8716 43.065V15.2529C22.8716 13.1843 24.6219 11.4453 26.6791 11.4453H70.7102C72.7674 11.4453 74.5177 13.1843 74.5177 15.2529V43.2241C74.5177 45.2927 72.7674 46.8839 70.7102 46.8839Z" fill="url(#paint1_linear_1055_40595)"/>
</g>
<path d="M34.4765 39.8792H31.1349C30.3393 39.8792 29.862 39.2427 29.862 38.6176V35.7534C29.862 34.9578 30.4985 34.4805 31.1349 34.4805H34.4765C35.2607 34.4805 35.7381 35.117 35.7381 35.7534V38.6176C35.7381 39.2427 35.2607 39.8792 34.4765 39.8792Z" fill="#AAB2C5"/>
<path d="M45.115 39.8817H41.7848C40.9892 39.8817 40.5119 39.2452 40.5119 38.6201V31.937C40.5119 31.1414 41.1483 30.6641 41.7848 30.6641H45.115C45.9106 30.6641 46.388 31.3005 46.388 31.937V38.6201C46.388 39.2452 45.9106 39.8817 45.115 39.8817Z" fill="#AAB2C5"/>
<path d="M55.7638 39.8805H52.4336C51.638 39.8805 51.1606 39.2441 51.1606 38.6189V25.105C51.1606 24.3094 51.7971 23.832 52.4336 23.832H55.7638C56.5594 23.832 57.0367 24.4685 57.0367 25.105V38.4598C57.0367 39.2441 56.4003 39.8805 55.7638 39.8805Z" fill="#AAB2C5"/>
<path d="M66.4137 39.8819H63.0721C62.2765 39.8819 61.8105 39.2454 61.8105 38.6203V19.8667C61.8105 19.0711 62.4356 18.5938 63.0721 18.5938H66.4137C67.2093 18.5938 67.6866 19.2302 67.6866 19.8667V38.6203C67.6866 39.2454 67.0501 39.8819 66.4137 39.8819Z" fill="#AAB2C5"/>
<defs>
<filter id="filter0_d_1055_40595" x="29.8199" y="3.83203" width="132.301" height="171.172" filterUnits="userSpaceOnUse" color-interpolation-filters="sRGB">
<feFlood flood-opacity="0" result="BackgroundImageFix"/>
<feColorMatrix in="SourceAlpha" type="matrix" values="0 0 0 0 0 0 0 0 0 0 0 0 0 0 0 0 0 0 127 0" result="hardAlpha"/>
<feOffset dy="11"/>
<feGaussianBlur stdDeviation="11"/>
<feColorMatrix type="matrix" values="0 0 0 0 0.396078 0 0 0 0 0.478431 0 0 0 0 0.576471 0 0 0 0.27 0"/>
<feBlend mode="normal" in2="BackgroundImageFix" result="effect1_dropShadow_1055_40595"/>
<feBlend mode="normal" in="SourceGraphic" in2="effect1_dropShadow_1055_40595" result="shape"/>
</filter>
<filter id="filter1_d_1055_40595" x="100.129" y="52.668" width="103.682" height="118.332" filterUnits="userSpaceOnUse" color-interpolation-filters="sRGB">
<feFlood flood-opacity="0" result="BackgroundImageFix"/>
<feColorMatrix in="SourceAlpha" type="matrix" values="0 0 0 0 0 0 0 0 0 0 0 0 0 0 0 0 0 0 127 0" result="hardAlpha"/>
<feOffset dy="11"/>
<feGaussianBlur stdDeviation="11"/>
<feColorMatrix type="matrix" values="0 0 0 0 0.396078 0 0 0 0 0.478431 0 0 0 0 0.576471 0 0 0 0.27 0"/>
<feBlend mode="normal" in2="BackgroundImageFix" result="effect1_dropShadow_1055_40595"/>
<feBlend mode="normal" in="SourceGraphic" in2="effect1_dropShadow_1055_40595" result="shape"/>
</filter>
<filter id="filter2_d_1055_40595" x="0.871552" y="0.445312" width="95.6462" height="79.4375" filterUnits="userSpaceOnUse" color-interpolation-filters="sRGB">
<feFlood flood-opacity="0" result="BackgroundImageFix"/>
<feColorMatrix in="SourceAlpha" type="matrix" values="0 0 0 0 0 0 0 0 0 0 0 0 0 0 0 0 0 0 127 0" result="hardAlpha"/>
<feOffset dy="11"/>
<feGaussianBlur stdDeviation="11"/>
<feColorMatrix type="matrix" values="0 0 0 0 0.396078 0 0 0 0 0.478431 0 0 0 0 0.576471 0 0 0 0.27 0"/>
<feBlend mode="normal" in2="BackgroundImageFix" result="effect1_dropShadow_1055_40595"/>
<feBlend mode="normal" in="SourceGraphic" in2="effect1_dropShadow_1055_40595" result="shape"/>
</filter>
<linearGradient id="paint0_linear_1055_40595" x1="50.2912" y1="11.8865" x2="50.2912" y2="143.379" gradientUnits="userSpaceOnUse">
<stop stop-color="#FDFEFF"/>
<stop offset="0.9964" stop-color="#ECF0F5"/>
</linearGradient>
<linearGradient id="paint1_linear_1055_40595" x1="21.9774" y1="10.6245" x2="21.9774" y2="47.2669" gradientUnits="userSpaceOnUse">
<stop stop-color="#FDFEFF"/>
<stop offset="0.9964" stop-color="#ECF0F5"/>
</linearGradient>
</defs>
</svg>
