<svg width="25" height="24" viewBox="0 0 25 24" fill="none" xmlns="http://www.w3.org/2000/svg">
<mask id="mask0_14107_13493" style="mask-type:luminance" maskUnits="userSpaceOnUse" x="0" y="0" width="25" height="24">
<path d="M24.377 0H0.376953V24H24.377V0Z" fill="white"/>
</mask>
<g mask="url(#mask0_14107_13493)">
<path opacity="0.4" d="M12.377 22C17.8998 22 22.377 17.5228 22.377 12C22.377 6.47715 17.8998 2 12.377 2C6.8541 2 2.37695 6.47715 2.37695 12C2.37695 17.5228 6.8541 22 12.377 22Z" fill="#2563EB"/>
<path d="M8.31669 15.2602C8.22669 15.2602 8.14668 15.2502 8.05668 15.2102C7.24668 14.9102 6.56668 14.3202 6.13668 13.5502C5.13668 11.7502 5.75669 9.40017 7.50669 8.31017L9.84669 6.86015C10.7067 6.33015 11.7167 6.17018 12.6767 6.42018C13.6367 6.67018 14.4467 7.30016 14.9367 8.18016C15.9367 9.98016 15.3167 12.3302 13.5667 13.4202L13.3067 13.6102C12.9667 13.8502 12.4967 13.7702 12.2567 13.4402C12.0167 13.1002 12.0967 12.6302 12.4267 12.3902L12.7367 12.1702C13.8567 11.4702 14.2367 10.0202 13.6267 8.91017C13.3367 8.39017 12.8667 8.02016 12.3067 7.87016C11.7467 7.72016 11.1567 7.81017 10.6467 8.13017L8.30668 9.58016C7.22668 10.2502 6.84669 11.7002 7.45669 12.8202C7.7067 13.2702 8.10669 13.6202 8.58669 13.8002C8.97669 13.9402 9.17668 14.3702 9.02668 14.7602C8.91668 15.0702 8.62669 15.2602 8.31669 15.2602Z" fill="#2563EB"/>
<path d="M13.037 17.6491C12.737 17.6491 12.427 17.6091 12.127 17.5291C11.167 17.2791 10.3569 16.6491 9.87692 15.7691C8.87692 13.9691 9.49691 11.6191 11.247 10.5291L11.507 10.3391C11.847 10.0991 12.317 10.1791 12.557 10.5091C12.797 10.8491 12.717 11.3191 12.387 11.5591L12.077 11.7791C10.957 12.4791 10.577 13.9291 11.187 15.0391C11.477 15.5591 11.947 15.9291 12.507 16.0791C13.067 16.2291 13.657 16.1391 14.167 15.8191L16.507 14.3691C17.587 13.6991 17.967 12.2491 17.357 11.1291C17.107 10.6791 16.707 10.3291 16.227 10.1491C15.837 10.0091 15.637 9.57914 15.787 9.18914C15.927 8.79914 16.367 8.59914 16.747 8.74914C17.557 9.04914 18.237 9.63915 18.667 10.4091C19.667 12.2091 19.047 14.5591 17.297 15.6491L14.957 17.0991C14.367 17.4591 13.707 17.6491 13.037 17.6491Z" fill="#2563EB"/>
</g>
</svg>
