<svg width="39" height="57" viewBox="0 0 39 57" fill="none" xmlns="http://www.w3.org/2000/svg">
<path d="M11.1567 40.9365H5.20336V21.9365H11.1567V40.9365ZM8.24336 19.4032C7.48336 19.4032 6.82892 19.1921 6.28003 18.7699C5.73114 18.3476 5.33003 17.8199 5.0767 17.1865C4.82336 16.5532 4.76003 15.8987 4.8867 15.2232C5.01336 14.5476 5.30892 13.9776 5.77336 13.5132C6.23781 13.0487 6.80781 12.7321 7.48336 12.5632C8.15892 12.3943 8.81336 12.4576 9.4467 12.7532C10.08 13.0487 10.6078 13.471 11.03 14.0199C11.4523 14.5687 11.6634 15.2232 11.6634 15.9832C11.6634 16.9121 11.3256 17.7143 10.65 18.3899C9.97448 19.0654 9.17225 19.4032 8.24336 19.4032ZM33.1967 40.9365H27.37V31.6899C27.37 30.1699 27.2434 29.0721 26.99 28.3965C26.4834 27.2987 25.5545 26.7499 24.2034 26.7499C22.8523 26.7499 21.9234 27.2565 21.4167 28.2699C20.9945 28.9454 20.7834 30.0432 20.7834 31.5632V40.9365H14.83V21.9365H20.53V24.5965C21.0367 23.7521 21.7756 23.0343 22.7467 22.4432C23.7178 21.8521 24.8789 21.5565 26.23 21.5565C28.9323 21.5565 30.8323 22.401 31.93 24.0899C32.8589 25.441 33.3234 27.5943 33.3234 30.5499L33.1967 40.9365Z" fill="#6863FB"/>
</svg>
