<svg width="155" height="181" viewBox="0 0 155 181" fill="none" xmlns="http://www.w3.org/2000/svg">
<path d="M40.1089 65.5736C42.2106 62.4306 44.2558 59.153 47.1837 56.7021C48.1084 55.928 49.8131 54.5606 50.8062 55.7036C51.704 56.7369 51.2647 58.7431 50.9327 59.898C49.3582 65.3752 46.0022 70.1384 42.7032 74.7855C41.5192 76.4534 40.3239 78.1342 38.8263 79.5273C38.3758 79.9463 37.884 80.3464 37.299 80.5368C36.7139 80.7272 36.0143 80.6701 35.5615 80.2536C33.8717 78.6992 35.4309 74.4812 36.1059 72.7832C37.1239 70.2226 38.5819 67.857 40.1089 65.5736Z" fill="black"/>
<path d="M40.4701 65.7847C41.6587 64.006 42.8146 62.198 44.1384 60.515C45.3632 58.958 46.7524 57.3982 48.4064 56.284C48.9339 55.9286 49.832 55.3637 50.4195 55.8997C51.0157 56.4438 50.9681 57.4661 50.8804 58.1927C50.774 59.0742 50.5063 59.9388 50.2284 60.7788C49.8835 61.8214 49.4749 62.8418 49.0142 63.8386C47.1538 67.8635 44.5494 71.4918 41.9838 75.0878C41.3251 76.0111 40.6553 76.9279 39.9155 77.7887C39.232 78.5838 38.4594 79.5109 37.5138 80.0003C36.7371 80.4023 35.866 80.2549 35.4741 79.4356C35.1786 78.8176 35.1892 78.0745 35.2498 77.4083C35.3849 75.9227 35.8935 74.4656 36.4343 73.0845C37.2427 71.0201 38.3404 69.0846 39.531 67.2191C39.8384 66.7373 40.1527 66.2599 40.4701 65.7847C40.768 65.3387 40.0485 64.9222 39.7526 65.3653C38.3656 67.442 37.0384 69.5744 36.0425 71.8707C35.3756 73.4083 34.775 75.0233 34.5112 76.6843C34.2819 78.1285 34.2412 80.3347 35.9277 80.9392C37.0018 81.3242 38.0678 80.743 38.8644 80.055C39.7867 79.2585 40.587 78.317 41.3331 77.3573C42.807 75.4615 44.1743 73.4679 45.5207 71.4802C46.8689 69.4898 48.1505 67.4481 49.2302 65.298C50.224 63.3191 51.1444 61.1934 51.5824 59.0126C51.7627 58.115 51.8808 57.1079 51.5682 56.2251C51.2695 55.3815 50.5669 54.7569 49.6337 54.8684C48.7379 54.9754 47.9584 55.5516 47.2728 56.0977C46.4171 56.7791 45.624 57.5363 44.8872 58.3442C43.3157 60.067 41.9945 61.9985 40.7043 63.9352C40.3869 64.4118 40.0708 64.8892 39.7526 65.3653C39.4547 65.8111 40.1741 66.2276 40.4701 65.7847Z" fill="black"/>
<path d="M54.1523 83.8045C46.8584 81.2404 40.3562 76.4707 35.72 70.2835C35.3797 69.8294 35.0408 69.349 34.9286 68.7927C34.8079 68.1939 34.9637 67.5773 35.1276 66.9889C36.2164 63.0801 37.183 59.5475 39.9904 56.4973C40.1465 56.3277 40.3111 56.1523 40.5277 56.0734C41.0125 55.8969 41.5119 56.2609 41.9034 56.5969C50.0679 63.6039 59.7805 68.5286 70.062 71.5683" fill="white"/>
<path d="M54.261 83.401C50.0227 81.9042 46.0441 79.6611 42.5652 76.8146C40.8191 75.3859 39.1943 73.8089 37.7176 72.1031C36.9856 71.2574 36.1943 70.3792 35.6243 69.413C34.9654 68.296 35.5435 67.0218 35.8669 65.8805C36.4755 63.7327 37.1418 61.5812 38.2379 59.6244C38.7999 58.6211 39.4664 57.6811 40.2425 56.8319C40.3878 56.6729 40.5546 56.4463 40.7893 56.4415C41.0742 56.4357 41.3595 56.6802 41.565 56.8518C42.0361 57.2452 42.5013 57.645 42.9775 58.0323C46.6995 61.0593 50.731 63.6954 54.9773 65.9263C59.2232 68.1569 63.678 69.9906 68.2478 71.444C68.8133 71.6239 69.3807 71.7975 69.9496 71.9661C70.4634 72.1184 70.6829 71.3167 70.1705 71.1648C65.3732 69.743 60.6971 67.9169 56.2379 65.644C51.8015 63.3829 47.5764 60.6898 43.7037 57.557C43.2102 57.1578 42.7237 56.7505 42.2406 56.339C41.8189 55.9799 41.3227 55.5818 40.7341 55.6109C40.1337 55.6406 39.7445 56.132 39.3818 56.5513C38.9865 57.0083 38.6163 57.4888 38.275 57.9873C36.9721 59.8902 36.144 62.0614 35.476 64.2555C35.3063 64.8128 35.1459 65.3729 34.9881 65.9338C34.8125 66.558 34.603 67.1855 34.5114 67.8288C34.4211 68.4633 34.5047 69.0614 34.7969 69.6338C35.0681 70.1649 35.4638 70.6351 35.8282 71.1038C37.2584 72.9435 38.8538 74.6537 40.5876 76.2105C44.0707 79.3381 48.0882 81.8473 52.4307 83.5956C52.9626 83.8098 53.4993 84.0113 54.04 84.2022C54.5452 84.3806 54.7626 83.5782 54.261 83.401Z" fill="black"/>
<path d="M40.1448 32.8768C41.642 31.9344 43.8195 31.4132 45.0241 32.7088C45.6241 33.3541 45.798 34.2886 45.8077 35.1697C45.8589 39.827 42.6941 43.8257 43.7482 48.6317C43.8697 49.1855 44.0422 49.7602 43.8964 50.3082C43.8123 50.6244 43.6281 50.903 43.4467 51.1753C39.667 56.8513 35.8874 62.5272 32.1077 68.2032C30.9233 69.9818 29.9288 72.9802 27.4238 72.2429C25.0952 71.5576 22.454 70.3781 20.3347 69.2099C16.7021 67.2077 13.3622 64.0211 11.4885 60.2946C9.54863 56.4363 8.20237 52.4391 11.3181 48.7714C11.4554 48.6099 11.6051 48.4388 11.6291 48.2282C11.6496 48.0482 11.5735 47.8728 11.4991 47.7075C10.7426 46.026 10.081 43.8379 10.6125 42.0049C11.095 40.341 12.6671 38.9536 14.3985 39.0122C14.0317 37.5857 13.7708 36.0121 14.4177 34.6888C15.0645 33.3655 16.9833 32.6099 18.066 33.6085C17.951 31.8715 18.0891 29.9317 18.9725 28.4021C19.4045 27.654 19.9902 26.9685 20.7584 26.5733C22.2646 25.7984 24.1672 26.3109 25.5079 27.3461C26.8486 28.3812 27.7656 29.8539 28.7273 31.2482C30.492 33.8067 32.5559 36.6108 34.9277 38.6036C36.6397 36.4253 37.7454 34.3872 40.1448 32.8768Z" fill="#3E50F7"/>
<path d="M25.2503 72.7292C25.3499 72.8307 25.4834 72.9538 25.6627 73.1494C26.9108 74.5105 28.3487 75.7056 29.9167 76.6814C31.4992 77.6662 33.0784 78.6629 34.9329 79.0457C34.5969 74.3586 37.6045 69.3233 40.1114 65.5746C42.2132 62.4316 44.2583 59.154 47.1862 56.7031C48.0965 55.9411 49.0889 55.2399 50.2226 54.8876C49.0818 53.5297 47.5223 52.4636 46.225 51.2567C44.9883 50.1062 43.5926 49.2949 41.8706 49.7875C40.5601 50.1623 39.4523 51.0301 38.4223 51.9231C33.9376 55.8113 30.2229 60.578 27.5196 65.8607C26.8438 67.1813 26.231 68.5343 25.6853 69.9139C25.4835 70.4241 24.9418 71.3205 24.9604 71.8657C24.9784 72.3925 25.0353 72.5103 25.2503 72.7292Z" fill="#3E50F7"/>
<path d="M35.3482 79.0457C35.0995 75.282 36.8542 71.6594 38.7338 68.5114C39.6912 66.9078 40.7442 65.3614 41.7848 63.8111C42.8449 62.2317 43.9378 60.6679 45.198 59.2397C45.9043 58.4393 46.6612 57.6826 47.4799 56.997C48.3334 56.282 49.2644 55.6326 50.3329 55.2883C50.8399 55.1249 50.6231 54.3223 50.112 54.487C48.2228 55.0958 46.6425 56.5031 45.2913 57.9116C43.9114 59.35 42.7243 60.9621 41.6004 62.6043C39.4008 65.8183 37.1312 69.0805 35.6892 72.7204C34.8959 74.7228 34.3742 76.88 34.5173 79.0457C34.5524 79.5766 35.3836 79.5805 35.3482 79.0457Z" fill="black"/>
<path d="M44.0623 49.4069C41.8139 48.7353 39.7878 50.194 38.1709 51.5909C36.4908 53.0424 34.919 54.6194 33.4671 56.2991C30.5171 59.7118 28.0534 63.5452 26.1931 67.6553C25.9084 68.2843 25.6375 68.9196 25.3799 69.5601C25.1839 70.0473 24.9328 70.5095 24.7396 70.9979C24.5602 71.4513 24.4916 71.9139 24.5959 72.3962C24.6934 72.8467 25.0677 73.1224 25.3671 73.443C25.7329 73.8347 26.3196 73.2461 25.9547 72.8554C25.7563 72.643 25.4367 72.4447 25.3904 72.1401C25.3279 71.7289 25.4709 71.3621 25.6391 70.9936C26.053 70.0871 26.4229 69.1635 26.83 68.2538C27.7136 66.2794 28.7358 64.3671 29.885 62.5344C32.0801 59.0337 34.7427 55.8317 37.79 53.0405C39.371 51.5923 41.4913 49.5063 43.8414 50.2082C44.3549 50.3616 44.5743 49.5599 44.0623 49.4069Z" fill="black"/>
<path d="M77.0945 109.26C68.7689 121.582 62.2246 135.105 57.7278 149.28C56.4691 153.248 54.036 156.989 49.5956 157.716C48.1564 157.952 46.6827 157.838 45.2313 157.981C44.04 158.098 42.8195 158.411 41.9088 159.188C40.4472 160.434 40.6082 162.302 41.5643 163.8C42.032 164.533 42.7342 165.082 43.4442 165.584C45.7804 167.235 48.359 168.542 51.0715 169.451C51.5222 169.602 51.9831 169.743 52.4581 169.76C53.0864 169.783 53.7 169.589 54.2988 169.398C54.974 169.181 57.5475 167.905 58.1515 168.163C59.1124 168.574 57.4612 171.96 57.2543 172.544C60.3185 174.02 63.4228 175.414 66.5626 176.721C66.7655 176.806 67.0066 176.888 67.1943 176.774C67.3154 176.7 67.3797 176.563 67.4369 176.433C68.7198 173.526 69.4385 170.451 70.6945 167.541C73.7899 160.37 77.0693 153.278 80.5281 146.275C87.4457 132.268 95.0807 118.616 103.395 105.391" fill="black"/>
<path d="M76.7363 109.049C72.7802 114.909 69.2227 121.036 66.098 127.379C62.9866 133.695 60.299 140.222 58.0666 146.899C57.1555 149.625 56.3823 152.416 54.4024 154.597C53.5226 155.566 52.4478 156.368 51.2219 156.843C49.5969 157.473 47.8998 157.43 46.187 157.5C44.5804 157.567 42.8802 157.81 41.6156 158.892C40.5095 159.838 40.1844 161.314 40.5943 162.683C41.0653 164.256 42.2433 165.262 43.5504 166.16C44.9931 167.152 46.5249 168.014 48.1207 168.733C48.8928 169.081 49.679 169.399 50.4773 169.682C51.3351 169.987 52.1835 170.264 53.1041 170.131C54.2696 169.962 55.3175 169.407 56.4024 168.986C56.85 168.812 57.3413 168.598 57.8238 168.547C57.8771 168.542 57.9486 168.549 58.009 168.545C57.9903 168.546 57.9837 168.554 57.9834 168.538C57.9842 168.579 57.9957 168.538 58.0103 168.595C58.0328 168.684 58.0349 168.713 58.0348 168.825C58.0336 169.748 57.5647 170.722 57.2169 171.559C57.0961 171.849 56.9618 172.136 56.8542 172.432C56.7962 172.591 56.8904 172.826 57.0452 172.901C59.7951 174.225 62.5762 175.483 65.3869 176.673C65.7203 176.814 66.0533 176.956 66.3883 177.093C66.686 177.215 66.9967 177.303 67.3068 177.172C67.5965 177.05 67.7299 176.793 67.8502 176.518C67.999 176.179 68.1402 175.836 68.2765 175.491C68.808 174.148 69.2507 172.772 69.7084 171.402C70.6598 168.554 71.878 165.827 73.0974 163.086C74.3354 160.304 75.6011 157.534 76.8944 154.777C79.4548 149.319 82.1232 143.911 84.8973 138.558C87.6425 133.261 90.4916 128.018 93.442 122.832C96.3924 117.646 99.4444 112.518 102.596 107.452C102.981 106.833 103.367 106.215 103.755 105.598C104.04 105.144 103.322 104.727 103.037 105.179C99.9109 110.153 96.8792 115.187 93.9464 120.278C91.0363 125.33 88.2229 130.437 85.508 135.596C82.753 140.831 80.0995 146.12 77.5495 151.458C74.9832 156.83 72.4574 162.242 70.1638 167.737C69.0586 170.385 68.3592 173.182 67.2486 175.828C67.1865 175.976 67.1266 176.126 67.0563 176.27C66.9649 176.458 66.9124 176.41 66.7258 176.339C66.3504 176.198 65.9826 176.03 65.6133 175.873C64.927 175.582 64.2425 175.286 63.5598 174.987C62.1943 174.388 60.8359 173.773 59.4851 173.142C58.8098 172.826 58.1363 172.507 57.4646 172.183L57.6555 172.652C57.9307 171.895 58.3097 171.123 58.5658 170.324C58.7811 169.652 59.2065 168.367 58.4591 167.861C58.1153 167.629 57.6732 167.716 57.2963 167.81C56.7797 167.939 56.2797 168.141 55.7875 168.342C54.6763 168.794 53.4174 169.5 52.1836 169.318C51.33 169.192 50.4766 168.815 49.6791 168.498C48.8593 168.173 48.0557 167.807 47.27 167.406C45.7509 166.631 44.1915 165.746 42.8867 164.639C41.8272 163.74 40.9529 162.277 41.3239 160.838C41.727 159.274 43.44 158.637 44.8805 158.435C46.656 158.187 48.4647 158.41 50.2259 158.014C51.5366 157.719 52.7519 157.121 53.8055 156.291C55.9172 154.63 57.2248 152.134 58.0527 149.624C59.1433 146.319 60.2577 143.03 61.5263 139.787C62.813 136.499 64.2135 133.255 65.7228 130.062C68.735 123.69 72.1797 117.522 76.0281 111.617C76.4974 110.897 76.973 110.18 77.4539 109.468C77.7539 109.024 77.0342 108.607 76.7363 109.049Z" fill="black"/>
<path d="M86.4791 98.9297C71.3703 113.01 62.1042 133.738 55.6223 153.033C61.3627 157.034 67.4924 161.176 74.4757 161.614C82.854 143.903 93.0464 127.051 104.842 111.406" fill="white"/>
<path d="M86.1866 98.6347C83.2096 101.413 80.467 104.436 77.9438 107.631C75.4015 110.85 73.0744 114.235 70.9361 117.735C68.766 121.287 66.7873 124.955 64.9634 128.696C63.1512 132.413 61.4914 136.203 59.948 140.04C58.425 143.826 57.0184 147.658 55.6984 151.519C55.5387 151.986 55.3804 152.454 55.223 152.922C55.1611 153.106 55.2677 153.289 55.414 153.391C59.9168 156.528 64.5814 159.737 69.9261 161.241C71.4116 161.66 72.937 161.927 74.4771 162.028C74.611 162.037 74.7778 161.945 74.8359 161.822C78.1128 154.899 81.6637 148.106 85.4809 141.466C89.277 134.862 93.3348 128.409 97.6419 122.126C100.083 118.566 102.604 115.062 105.202 111.615C105.524 111.188 104.803 110.773 104.484 111.195C99.8745 117.312 95.5072 123.611 91.3985 130.076C87.3126 136.504 83.4815 143.095 79.9175 149.826C77.8979 153.641 75.965 157.501 74.1183 161.403L74.4771 161.197C69.0358 160.84 64.116 158.193 59.6392 155.265C58.3548 154.424 57.0926 153.551 55.8334 152.673L56.0243 153.143C57.3077 149.325 58.6706 145.533 60.1437 141.784C61.6485 137.954 63.269 134.169 65.0367 130.453C66.8092 126.726 68.7293 123.069 70.833 119.518C72.9183 115.999 75.1847 112.584 77.6668 109.332C80.1176 106.12 82.7888 103.071 85.6878 100.256C86.0464 99.9075 86.4088 99.5633 86.7742 99.2222C87.166 98.8565 86.5774 98.2699 86.1866 98.6347Z" fill="black"/>
<path d="M96.3805 114.634C94.3526 129.366 94.4534 144.389 96.679 159.092C97.3019 163.208 96.7712 167.639 93.1085 170.253C91.9213 171.1 90.5492 171.649 89.3099 172.418C88.2927 173.049 87.336 173.869 86.862 174.968C86.1013 176.732 87.0707 178.337 88.5901 179.258C89.3333 179.709 90.2057 179.892 91.0643 180.028C93.8894 180.478 96.7803 180.512 99.6152 180.129C100.086 180.066 100.562 179.989 100.996 179.795C101.57 179.538 102.035 179.093 102.487 178.656C102.998 178.164 104.743 175.882 105.399 175.847C106.442 175.791 106.456 179.558 106.528 180.174C109.93 180.145 113.33 180.024 116.725 179.811C116.944 179.797 117.197 179.764 117.315 179.579C117.391 179.46 117.388 179.308 117.382 179.166C117.249 175.992 116.536 172.915 116.378 169.75C115.988 161.949 115.798 154.138 115.808 146.327C115.829 130.705 116.649 115.085 118.269 99.5469" fill="black"/>
<path d="M95.9811 114.522C94.9835 121.797 94.4876 129.135 94.5183 136.478C94.5492 143.846 95.1059 151.21 96.1751 158.5C96.5717 161.204 96.7476 164.058 95.5802 166.614C95.0106 167.861 94.1512 168.957 93.0521 169.781C91.7095 170.788 90.1055 171.36 88.7238 172.303C87.5391 173.112 86.4246 174.258 86.2187 175.739C86.0312 177.088 86.7211 178.346 87.7561 179.174C89.037 180.199 90.6428 180.416 92.2247 180.603C94.0325 180.817 95.8601 180.862 97.6764 180.739C98.5468 180.68 99.4346 180.609 100.292 180.439C101.089 180.281 101.738 179.903 102.339 179.365C103.099 178.686 103.71 177.867 104.41 177.129C104.722 176.801 105.047 176.54 105.401 176.269C105.424 176.251 105.409 176.244 105.431 176.265C105.521 176.355 105.594 176.49 105.648 176.628C105.975 177.462 106.005 178.434 106.06 179.318C106.077 179.602 106.083 179.889 106.114 180.172C106.138 180.394 106.285 180.59 106.53 180.588C109.532 180.561 112.534 180.465 115.532 180.296C115.904 180.275 116.275 180.255 116.647 180.23C116.928 180.211 117.221 180.188 117.456 180.017C117.956 179.655 117.792 178.912 117.755 178.386C117.655 176.955 117.455 175.533 117.26 174.112C116.848 171.115 116.706 168.12 116.586 165.099C116.466 162.078 116.375 159.057 116.315 156.035C116.195 150 116.194 143.963 116.313 137.929C116.432 131.879 116.671 125.831 117.03 119.79C117.387 113.776 117.864 107.769 118.459 101.773C118.532 101.031 118.608 100.288 118.685 99.5455C118.741 99.0142 117.909 99.018 117.854 99.5455C117.242 105.432 116.742 111.33 116.358 117.236C115.976 123.115 115.707 129.001 115.552 134.891C115.396 140.814 115.355 146.74 115.43 152.665C115.467 155.634 115.533 158.603 115.628 161.57C115.723 164.527 115.788 167.497 116.007 170.448C116.219 173.313 116.829 176.137 116.961 179.009C116.964 179.086 117.007 179.29 116.949 179.357C116.882 179.434 116.585 179.403 116.487 179.409C116.116 179.432 115.745 179.454 115.373 179.474C114.63 179.515 113.887 179.552 113.144 179.585C111.684 179.649 110.223 179.695 108.762 179.725C108.018 179.74 107.274 179.75 106.53 179.757L106.945 180.172C106.863 179.411 106.86 178.644 106.762 177.883C106.669 177.162 106.57 176.007 105.883 175.57C105.124 175.089 104.326 176.015 103.855 176.508C103.157 177.238 102.551 178.053 101.802 178.733C101.135 179.338 100.439 179.599 99.5546 179.72C98.6481 179.844 97.7336 179.919 96.8194 179.954C94.9869 180.025 93.1432 179.928 91.3302 179.65C89.829 179.42 88.2969 178.976 87.4423 177.609C86.6323 176.313 87.1207 174.879 88.1322 173.855C89.2895 172.684 90.8649 172.071 92.273 171.27C93.5502 170.543 94.6697 169.614 95.5155 168.405C97.045 166.219 97.4476 163.446 97.2843 160.835C97.1822 159.204 96.867 157.588 96.6557 155.969C96.4177 154.145 96.2119 152.317 96.0389 150.486C95.6929 146.825 95.4766 143.15 95.3906 139.473C95.2185 132.119 95.5669 124.752 96.4362 117.447C96.5435 116.545 96.659 115.643 96.7825 114.743C96.8542 114.22 96.0536 113.994 95.9811 114.522Z" fill="black"/>
<path d="M100.241 101.223C92.9032 120.528 93.7444 143.218 96.4503 163.391C103.367 164.446 110.696 165.455 117.155 162.764C116.85 143.173 118.552 123.552 122.226 104.307" fill="white"/>
<path d="M99.8381 101.113C98.3994 104.907 97.2761 108.816 96.4245 112.783C95.5629 116.797 94.9748 120.868 94.6005 124.955C94.2222 129.086 94.0655 133.235 94.0789 137.383C94.0923 141.525 94.2756 145.666 94.5868 149.797C94.8924 153.852 95.3216 157.897 95.8409 161.93C95.9036 162.418 95.9678 162.905 96.033 163.392C96.0552 163.557 96.1451 163.763 96.3381 163.793C101.766 164.62 107.351 165.44 112.816 164.456C114.34 164.181 115.832 163.756 117.264 163.165C117.434 163.095 117.572 162.963 117.569 162.764C117.452 155.13 117.636 147.493 118.124 139.874C118.613 132.247 119.404 124.64 120.5 117.077C121.114 112.842 121.823 108.621 122.625 104.418C122.724 103.896 121.923 103.672 121.823 104.197C120.391 111.711 119.256 119.281 118.422 126.885C117.587 134.496 117.055 142.14 116.829 149.794C116.701 154.116 116.671 158.441 116.738 162.764L117.043 162.363C112.002 164.446 106.451 164.279 101.135 163.636C99.6054 163.451 98.0818 163.223 96.5591 162.991L96.8641 163.392C96.3291 159.396 95.877 155.389 95.5428 151.372C95.2016 147.27 94.9821 143.157 94.9243 139.041C94.8664 134.911 94.9711 130.778 95.288 126.66C95.6039 122.554 96.1326 118.463 96.9331 114.423C97.7186 110.458 98.7645 106.542 100.124 102.734C100.291 102.266 100.463 101.799 100.639 101.334C100.829 100.833 100.026 100.617 99.8381 101.113Z" fill="black"/>
<path d="M99.7824 7.08865C100.422 6.31136 101.109 5.5752 101.861 4.8995C104.842 2.21958 109.412 0.233881 113.17 2.61762C115.544 4.12414 116.463 7.07679 116.949 9.82019C118.827 20.4295 116.856 31.3326 114.096 41.7528C114.503 40.2151 116.812 38.7026 117.939 37.6673C119.488 36.2427 120.959 34.8827 122.764 33.7588C126.338 31.5335 130.388 30.1224 134.484 29.1693C139.337 28.0402 144.795 27.5939 148.988 30.2556C152.344 32.3866 154.316 36.289 154.582 40.2177C154.848 44.1463 153.549 48.07 151.473 51.4329C149.397 54.7958 146.574 57.65 143.597 60.2722C138.415 64.8353 132.685 68.7919 126.566 72.0326C134.972 74.4525 143.652 79.2323 147.198 87.5833C149.82 93.7597 149.448 101.094 146.234 106.992C145.187 108.913 143.821 110.719 141.978 111.925C140.021 113.206 137.648 113.733 135.306 113.9C130.196 114.265 125.073 113.024 120.356 111.05C115.64 109.075 111.274 106.382 106.931 103.701C106.541 106.692 105.936 109.653 104.929 112.506C103.621 116.211 101.67 119.731 98.9467 122.59C96.0691 125.611 92.2766 127.87 88.1273 128.527C83.978 129.184 79.489 128.125 76.37 125.346C72.5826 121.973 71.2497 116.64 71.1077 111.608C71.0377 109.129 71.2102 106.637 71.6886 104.2C72.1163 102.017 72.6937 100.194 73.3441 98.0984C71.7652 98.9273 70.1802 99.745 68.5895 100.551C63.7964 102.981 59.7125 105.194 54.0288 103.999C49.9048 103.133 46.1263 100.528 44.1441 96.8572C41.1883 91.3832 41.8506 84.764 45.275 79.6635C47.9134 75.7335 51.8709 72.8043 56.1367 70.68C60.4025 68.5558 65.0014 67.1761 69.574 65.8069C63.8732 62.8837 58.7045 57.6443 54.6922 52.6885C50.4808 47.5138 47.3322 41.3656 46.4495 34.7872C46.1632 32.6527 46.1255 30.426 46.8834 28.4068C47.6684 26.3158 49.2567 24.5971 51.0591 23.2514C56.1193 19.4734 63.1652 18.4501 69.1145 20.6292C72.4344 21.8452 75.3401 23.9502 78.054 26.1942C80.1304 27.9111 82.3135 29.7917 83.9659 31.9241C85.3806 33.7499 87.1142 35.6519 88.2247 37.6707C87.9964 28.5685 91.769 19.8106 96.4587 11.9684C97.4677 10.2811 98.534 8.60648 99.7824 7.08865Z" fill="white"/>
<path d="M100.077 7.38364C102.193 4.83629 105.019 2.51374 108.405 2.04077C110.049 1.81109 111.732 2.13462 113.113 3.07787C114.376 3.94035 115.197 5.30321 115.718 6.7144C116.27 8.20796 116.551 9.78803 116.778 11.3587C117.059 13.3005 117.209 15.2612 117.257 17.2221C117.352 21.1159 117.034 25.0137 116.448 28.8616C115.791 33.1737 114.81 37.4286 113.696 41.6435C113.559 42.1618 114.343 42.3761 114.497 41.8644C114.862 40.6504 116.074 39.7589 117.011 38.9881C118.053 38.1311 119.029 37.2074 120.048 36.3236C122.497 34.1997 125.312 32.6381 128.329 31.4698C131.254 30.3368 134.339 29.4937 137.441 29.014C140.317 28.5691 143.35 28.4905 146.149 29.3893C151.934 31.2462 154.771 37.3241 154.092 43.1006C153.33 49.5854 148.943 54.8524 144.29 59.0966C138.88 64.0301 132.82 68.2418 126.357 71.675C126.033 71.8468 126.124 72.3383 126.456 72.4344C131.423 73.8734 136.314 76.0219 140.333 79.3287C144.495 82.7533 147.37 87.3554 148.24 92.71C149.164 98.3955 147.861 104.943 144.111 109.434C139.986 114.376 132.61 114.084 126.884 112.754C119.698 111.085 113.348 107.175 107.142 103.343C106.845 103.16 106.555 103.408 106.517 103.702C105.839 108.82 104.462 113.881 101.723 118.301C99.2634 122.271 95.6703 125.641 91.2439 127.279C86.9876 128.853 82.0477 128.657 78.1624 126.182C74.3188 123.734 72.4681 119.36 71.8132 115.003C71.4078 112.305 71.4119 109.52 71.7083 106.813C72.0314 103.862 72.8684 101.035 73.7455 98.21C73.858 97.8477 73.4426 97.5794 73.1351 97.7408C70.6786 99.0294 68.2174 100.319 65.7207 101.528C63.5122 102.598 61.1946 103.556 58.7353 103.831C53.9206 104.369 48.8735 102.375 45.808 98.6046C42.6571 94.7291 41.9866 89.2664 43.4038 84.5676C44.8641 79.7259 48.4673 75.9057 52.6185 73.1744C57.7989 69.7661 63.7986 67.9716 69.6852 66.2086C70.0113 66.111 70.1128 65.6192 69.7844 65.4492C64.1464 62.5307 59.5172 57.887 55.5109 53.0367C51.5475 48.2384 48.4027 42.7063 47.1657 36.5551C46.525 33.3689 46.255 29.8628 48.0525 26.9899C49.6064 24.5065 52.1971 22.6961 54.8431 21.5321C60.5035 19.0421 66.9576 19.524 72.287 22.5823C75.4356 24.3892 78.3262 26.786 80.9578 29.2756C82.2606 30.5081 83.3717 31.8632 84.496 33.2544C85.6969 34.7402 86.9291 36.209 87.8667 37.8815C88.0668 38.2385 88.6498 38.0832 88.6409 37.6718C88.4559 29.0642 91.7929 20.8801 96.0206 13.538C97.246 11.41 98.5228 9.29105 100.077 7.38364C100.412 6.97247 99.8275 6.38102 99.4894 6.79597C96.7238 10.1904 94.5525 14.1771 92.6554 18.1094C90.7742 22.0088 89.2447 26.1086 88.436 30.3712C87.9795 32.7775 87.7573 35.2225 87.8099 37.6718L88.5842 37.4621C87.7233 35.9263 86.6148 34.5542 85.5088 33.191C84.4336 31.8656 83.403 30.5212 82.1913 29.3143C79.8272 26.9593 77.1674 24.7629 74.3906 22.9109C71.6629 21.0916 68.6573 19.7375 65.3925 19.2807C62.4423 18.8679 59.4009 19.1183 56.5574 20.0087C53.7168 20.8982 50.9948 22.4281 48.9131 24.5747C47.8216 25.7002 46.9235 27.0193 46.408 28.5071C45.8607 30.0867 45.7718 31.7988 45.8939 33.4542C46.3744 39.9725 49.2868 46.203 53.1549 51.3867C55.3501 54.3286 57.8241 57.1045 60.4853 59.6318C63.1541 62.1663 66.0875 64.4702 69.3651 66.1668L69.4643 65.4074C59.4375 68.4102 47.2686 72.2865 43.068 83.0025C41.2091 87.7447 41.4531 93.348 44.166 97.7237C46.7687 101.921 51.5765 104.499 56.4658 104.733C59.324 104.87 62.0607 104.08 64.6525 102.937C67.6862 101.6 70.6201 99.9977 73.5546 98.4583L72.9443 97.9891C72.1274 100.62 71.3456 103.249 70.9785 105.987C70.6259 108.616 70.5674 111.306 70.8477 113.945C71.3249 118.438 72.9031 123.102 76.5318 126.027C80.1901 128.975 85.2308 129.766 89.7276 128.622C94.4076 127.43 98.3997 124.341 101.238 120.497C104.856 115.598 106.558 109.668 107.348 103.702L106.722 104.061C112.534 107.648 118.453 111.286 125.083 113.149C128.32 114.059 131.71 114.541 135.074 114.332C138.014 114.15 140.968 113.421 143.26 111.482C145.517 109.571 147.018 106.796 148.005 104.047C149.029 101.193 149.473 98.1206 149.32 95.0934C149.033 89.3925 146.601 84.1077 142.502 80.149C138.14 75.9366 132.444 73.3042 126.677 71.6332L126.776 72.3926C132.849 69.1667 138.547 65.2493 143.72 60.7175C148.656 56.3937 153.401 51.1759 154.702 44.5269C155.829 38.7713 153.784 32.2129 148.32 29.394C145.647 28.0152 142.571 27.7129 139.609 27.9326C136.355 28.174 133.114 28.9601 130.023 29.9825C126.474 31.1566 123.03 32.7783 120.132 35.1671C118.865 36.211 117.691 37.3578 116.423 38.4005C115.355 39.279 114.111 40.2652 113.696 41.6435L114.497 41.8644C116.619 33.8356 118.292 25.5661 118.088 17.2221C118.039 15.1858 117.871 13.1537 117.579 11.1378C117.335 9.44685 117.028 7.74181 116.387 6.14996C115.832 4.77066 115.024 3.48123 113.826 2.5728C112.533 1.59154 110.912 1.10495 109.294 1.13833C105.346 1.21971 101.904 3.8889 99.4894 6.79597C99.15 7.20449 99.7347 7.79558 100.077 7.38364Z" fill="black"/>
<path d="M40.7861 100.15C40.5469 101.442 40.2713 102.726 39.9425 103.999C39.6075 105.297 39.1565 106.671 38.0825 107.472C37.3375 108.028 36.3404 108.23 35.4377 108.009C33.6576 107.573 32.4127 105.62 31.893 104C30.7299 100.375 30.6239 96.4296 31.52 92.7339C32.2855 89.5766 33.6589 85.4253 36.0158 83.0942C37.0729 82.0487 38.3827 81.3027 39.6759 80.569C39.9858 80.3932 40.3043 80.2143 40.6564 80.1593C43.9928 79.6376 42.1746 90.2356 41.998 91.6799C41.652 94.5104 41.3048 97.3475 40.7861 100.15Z" fill="black"/>
<path d="M40.3892 100.039C40.1231 101.469 39.8271 102.899 39.4354 104.3C39.1363 105.37 38.7096 106.566 37.7395 107.209C36.7285 107.879 35.4783 107.794 34.4977 107.123C33.6313 106.529 33.0164 105.591 32.588 104.648C32.0622 103.492 31.7922 102.18 31.5914 100.932C31.3725 99.5713 31.3034 98.1846 31.3632 96.8084C31.4714 94.3192 32.077 91.877 32.8833 89.5274C33.6127 87.4017 34.5726 85.2046 36.1452 83.5594C37.0412 82.622 38.1442 81.9309 39.2602 81.2869C39.5379 81.1266 39.8149 80.963 40.0976 80.8115C40.2406 80.7349 40.3849 80.6613 40.5406 80.6136C40.6589 80.5773 40.7403 80.5628 40.8016 80.5592C40.8532 80.5561 40.904 80.5563 40.9556 80.5578C41.0574 80.5609 40.9297 80.5444 41.0263 80.5654C41.0725 80.5755 41.1174 80.5874 41.1623 80.602C41.25 80.6303 41.1396 80.5794 41.2377 80.6362C41.3494 80.7009 41.4994 80.8376 41.564 80.9301C41.7008 81.126 41.7896 81.3212 41.8559 81.5093C42.0517 82.0649 42.1377 82.6558 42.1858 83.2407C42.3064 84.7056 42.2191 86.1878 42.0855 87.6487C41.9792 88.8107 41.8313 89.9343 41.6698 91.0698C41.3465 93.3438 41.1105 95.6283 40.754 97.8982C40.6417 98.6134 40.5203 99.3272 40.3892 100.039C40.293 100.562 41.0937 100.786 41.1905 100.26C41.4775 98.7017 41.7137 97.1349 41.9255 95.5647C42.0334 94.7647 42.1356 93.964 42.2351 93.163C42.2797 92.8035 42.3239 92.4439 42.3679 92.0843C42.3855 91.9402 42.4034 91.7961 42.4208 91.6519C42.4277 91.5947 42.4337 91.5547 42.4217 91.6426C42.5772 90.498 42.744 89.3558 42.8622 88.2064C43.0228 86.6444 43.1358 85.0607 43.035 83.4908C42.9641 82.3859 42.84 80.8659 41.9156 80.0996C41.4291 79.6963 40.7943 79.6401 40.2079 79.8502C39.5625 80.0815 38.9577 80.4946 38.3712 80.8444C37.7708 81.2025 37.1855 81.5838 36.633 82.0127C34.6502 83.5518 33.4349 85.7974 32.5282 88.0941C30.5094 93.2077 29.6953 99.0323 31.5674 104.322C32.2961 106.38 34.0352 108.738 36.4923 108.497C39.4984 108.202 40.184 104.952 40.7289 102.524C40.8975 101.772 41.0496 101.017 41.1905 100.26C41.2878 99.7374 40.4871 99.5133 40.3892 100.039Z" fill="black"/>
<path d="M109.613 82.6016C97.7565 88.221 84.5626 90.7754 71.4417 90.8257C58.3209 90.876 45.2612 88.4701 32.7392 84.5511C31.4165 89.0744 30.0938 93.5977 28.7711 98.121C28.6859 98.4124 28.6037 98.7396 28.7466 99.0075C28.8785 99.2549 29.1618 99.3736 29.4238 99.4734C38.7343 103.02 48.2536 106.093 58.1092 107.577C71.5462 109.601 85.0113 109.966 98.4574 108.005C104.526 107.12 110.457 105.301 115.979 102.631" fill="white"/>
<path d="M109.405 82.2393C100.342 86.5233 90.4877 89.0232 80.5218 89.9649C70.2863 90.9321 59.9403 90.2629 49.8427 88.3962C44.0975 87.3341 38.4276 85.8888 32.8517 84.1469C32.635 84.0792 32.402 84.2272 32.3406 84.4371C31.3405 87.8572 30.3404 91.2772 29.3403 94.6973C29.0903 95.5523 28.8403 96.4073 28.5903 97.2624C28.4051 97.8955 28.0298 98.6979 28.4552 99.3122C28.846 99.8767 29.7946 100.053 30.3965 100.28C31.1696 100.571 31.9439 100.858 32.7199 101.141C39.1498 103.486 45.698 105.549 52.4009 106.96C59.2629 108.405 66.3022 109.181 73.3016 109.534C80.4016 109.893 87.5312 109.716 94.5968 108.917C97.9663 108.536 101.318 108.033 104.609 107.202C107.799 106.397 110.918 105.328 113.936 104.02C114.695 103.691 115.446 103.346 116.19 102.987C116.672 102.755 116.251 102.038 115.771 102.269C109.916 105.09 103.666 106.883 97.2332 107.758C90.3612 108.694 83.4096 109.021 76.4786 108.828C69.5552 108.635 62.5998 107.983 55.7782 106.772C49.2524 105.613 42.8624 103.788 36.5994 101.636C35.0372 101.1 33.4821 100.542 31.9329 99.9693C31.1585 99.6828 30.3834 99.3969 29.6135 99.0986C29.486 99.0492 29.2895 98.9968 29.1886 98.8933C29.0367 98.7376 29.093 98.5444 29.1381 98.3548C29.241 97.9224 29.3878 97.4962 29.5126 97.0696C30.4804 93.7598 31.4482 90.4501 32.4161 87.1404L33.142 84.6581L32.6308 84.9483C42.6934 88.0919 53.0865 90.2659 63.6157 90.983C73.7328 91.672 83.967 90.9772 93.8334 88.5844C99.3363 87.2498 104.705 85.3771 109.825 82.9569C110.308 82.7285 109.887 82.0118 109.405 82.2393Z" fill="black"/>
<path d="M24.0169 63.486C25.0545 62.0532 26.8806 60.7574 28.4814 61.5103C29.2789 61.8852 29.7887 62.6874 30.1264 63.5014C31.9109 67.8034 30.466 72.694 33.2365 76.7601C33.5558 77.2287 33.9303 77.6975 33.9994 78.2603C34.0393 78.585 33.9723 78.9123 33.9056 79.2326C32.5157 85.9087 31.1258 92.5847 29.7359 99.2609C29.3003 101.353 29.496 104.506 26.8967 104.756C24.4805 104.989 21.59 104.879 19.1879 104.586C15.0707 104.083 10.7833 102.372 7.65483 99.6134C4.41588 96.7571 1.6759 93.5505 3.1988 88.9853C3.26586 88.7842 3.34103 88.5697 3.2847 88.3653C3.23654 88.1906 3.10054 88.0562 2.96992 87.9306C1.64081 86.6527 0.210849 84.8692 0.0203378 82.9702C-0.152601 81.2465 0.788558 79.3728 2.41692 78.7814C1.54453 77.5946 0.71554 76.2318 0.822106 74.7628C0.928699 73.2938 2.42724 71.8771 3.80424 72.3998C3.04972 70.8309 2.45436 68.9796 2.70343 67.2309C2.82525 66.3757 3.113 65.5212 3.67838 64.868C4.78686 63.5873 6.74333 63.3531 8.37335 63.8135C10.0034 64.274 11.4035 65.2983 12.8159 66.2333C15.4075 67.9491 18.3684 69.781 21.3122 70.7454C22.0882 68.0858 22.354 65.7823 24.0169 63.486Z" fill="#3E50F7"/>
<path d="M25.058 106.021C25.1882 106.078 25.358 106.142 25.5974 106.257C27.2631 107.054 29.0429 107.627 30.8617 107.947C32.6973 108.271 34.5344 108.607 36.3978 108.27C34.3379 104.047 35.2504 98.2529 36.1782 93.8397C36.956 90.1396 37.6311 86.3357 39.4335 82.9696C39.9939 81.9231 40.6532 80.9023 41.5737 80.1526C40.0087 79.3182 38.1641 78.9107 36.5102 78.2748C34.9337 77.6685 33.3361 77.4364 31.9221 78.5356C30.846 79.3723 30.1418 80.5905 29.5192 81.8033C26.8084 87.0836 25.1395 92.8919 24.6017 98.8016C24.4672 100.279 24.4033 101.763 24.4116 103.246C24.4147 103.795 24.2463 104.829 24.467 105.328C24.6802 105.81 24.7769 105.898 25.058 106.021Z" fill="#3E50F7"/>
<path d="M36.7576 108.058C35.1727 104.764 35.4191 100.819 35.958 97.3054C36.2369 95.4874 36.63 93.6887 37.0082 91.8893C37.4242 89.911 37.8739 87.9327 38.5494 86.0242C39.2553 84.0299 40.2047 81.8274 41.8685 80.444C42.2801 80.1017 41.6894 79.5167 41.2809 79.8564C39.7489 81.1302 38.8229 83.0645 38.0962 84.8787C37.313 86.8342 36.8059 88.8858 36.3619 90.9407C35.548 94.7068 34.6623 98.5448 34.7435 102.421C34.7871 104.503 35.1319 106.59 36.04 108.477C36.2718 108.959 36.9886 108.538 36.7576 108.058Z" fill="black"/>
<path d="M33.9157 77.3004C33.0421 77.1741 32.1503 77.86 31.5143 78.3955C30.8821 78.9277 30.3592 79.583 29.9128 80.2756C28.8575 81.9127 28.0764 83.7663 27.3544 85.5692C25.8323 89.3702 24.8256 93.365 24.3341 97.4288C24.1915 98.6085 24.0938 99.7938 24.0419 100.981C23.9877 102.222 23.8413 103.49 23.9209 104.73C23.9549 105.261 24.7862 105.265 24.7519 104.73C24.6835 103.664 24.8183 102.593 24.8523 101.527C24.8852 100.491 24.9531 99.4569 25.0554 98.4258C25.2456 96.5079 25.5602 94.603 25.9899 92.7243C26.8533 88.9494 28.1739 85.2522 29.9786 81.8228C30.3912 81.0388 30.8529 80.2698 31.451 79.6118C31.7325 79.3022 32.0402 79.0116 32.3793 78.7658C32.5623 78.633 32.7526 78.5105 32.9491 78.3987C33.1494 78.2848 33.4532 78.0668 33.6948 78.1017C33.9186 78.1341 34.1384 78.0464 34.2059 77.8115C34.2618 77.6168 34.1375 77.3324 33.9157 77.3004Z" fill="black"/>
<path d="M3.72704 72.8976C4.6106 74.1117 5.83694 75.0205 7.26205 75.4988C7.47477 75.5702 7.71604 75.4165 7.77317 75.2086C7.83549 74.9818 7.69648 74.7692 7.48296 74.6975C6.2823 74.2945 5.19292 73.5065 4.44456 72.4782C4.31272 72.297 4.08354 72.2078 3.87609 72.3291C3.69724 72.4337 3.59427 72.7152 3.72704 72.8976Z" fill="black"/>
<path d="M2.06845 79.1866C3.46086 80.8336 5.21629 82.1665 7.17753 83.0636C7.38145 83.1569 7.62485 83.1217 7.746 82.9146C7.85056 82.7358 7.80198 82.4399 7.59696 82.3461C5.69119 81.4743 4.00911 80.1994 2.65603 78.5991C2.3103 78.1901 1.72502 78.7804 2.06845 79.1866Z" fill="black"/>
<path d="M3.18359 89.072C4.35338 90.2751 5.73451 91.2701 7.24939 91.9922C7.45184 92.0887 7.69794 92.0482 7.81786 91.8432C7.92384 91.6619 7.87223 91.3717 7.66881 91.2747C6.21261 90.5806 4.89586 89.6411 3.7712 88.4844C3.39774 88.1004 2.8104 88.6883 3.18359 89.072Z" fill="black"/>
<path d="M21.5263 73.3848C21.4064 71.1363 21.6495 68.8563 22.3265 66.705C22.6564 65.6566 23.097 64.6442 23.6836 63.713C24.2822 62.7631 25.0704 61.82 26.1509 61.4128C27.1479 61.0371 28.2486 61.1617 29.0064 61.947C29.66 62.6244 29.963 63.5776 30.1614 64.4765C30.4092 65.5998 30.5106 66.7571 30.6521 67.8971C30.8067 69.1426 30.967 70.3892 31.208 71.6214C31.4767 72.9949 31.8464 74.3615 32.4213 75.6409C32.8588 76.6144 33.6383 77.6268 34.8066 77.6159C35.341 77.6109 35.3423 76.7799 34.8066 76.7849C33.723 76.795 33.199 75.4286 32.8854 74.5926C32.4235 73.3614 32.1212 72.0768 31.8953 70.7832C31.6701 69.4936 31.5213 68.1928 31.359 66.8943C31.2213 65.7925 31.1112 64.6704 30.7955 63.6017C30.5239 62.6825 30.0894 61.742 29.3349 61.12C28.4516 60.3919 27.294 60.2086 26.2015 60.5215C23.9328 61.1715 22.5994 63.582 21.818 65.6388C20.889 68.0845 20.5565 70.7799 20.6953 73.3847C20.7237 73.9167 21.5549 73.9201 21.5263 73.3848Z" fill="black"/>
<path d="M25.9071 28.4598C27.4855 30.3186 29.0664 32.2169 30.0069 34.4932C30.7282 36.2392 31.4204 38.8759 29.8309 40.3715C29.0823 41.076 27.9055 41.4032 26.9594 40.9101C26.5995 40.7225 26.174 41.107 26.3909 41.4785C27.122 42.7307 27.6173 44.2987 27.1046 45.7246C26.6997 46.8509 25.4963 47.8381 24.2512 47.619C23.9002 47.5573 23.5978 47.8928 23.782 48.2294C24.4523 49.4544 24.7957 50.9556 24.2906 52.3043C23.8821 53.3951 22.8524 54.3006 21.6618 54.3522C21.3866 54.3641 21.1966 54.6076 21.2612 54.8781C21.5568 56.1167 21.9345 57.5743 21.3394 58.7851C20.8726 59.7352 19.8948 60.3831 18.8443 59.93C17.9837 59.5589 17.3943 58.7715 16.7225 58.1495C16.0735 57.5486 15.4018 56.972 14.7364 56.3895C14.0871 55.8211 13.4149 55.2643 12.8153 54.6425C12.4434 54.2569 11.8561 54.8449 12.2277 55.2301C13.4923 56.5414 14.9745 57.6368 16.2968 58.8884C17.0972 59.6461 17.8434 60.575 18.968 60.8451C20.1867 61.1377 21.3216 60.4583 21.9374 59.4233C22.8058 57.9638 22.4328 56.2087 22.0625 54.6572L21.6618 55.1831C23.167 55.1179 24.4452 54.0775 25.0171 52.7124C25.6875 51.1122 25.306 49.2838 24.4995 47.8099L24.0303 48.4203C25.6299 48.7017 27.156 47.6801 27.7912 46.2309C28.535 44.5342 28.0004 42.5868 27.1085 41.0591L26.54 41.6276C27.5357 42.1465 28.7018 42.0501 29.6699 41.5103C30.6755 40.9496 31.3243 39.9535 31.5215 38.8285C31.943 36.4241 30.8277 33.8633 29.574 31.8681C28.6778 30.442 27.5826 29.1532 26.4947 27.8721C26.1481 27.4639 25.5627 28.0542 25.9071 28.4598Z" fill="black"/>
<path d="M34.6021 38.29C33.4765 39.9637 32.8091 41.891 32.6246 43.8972L33.0401 43.4817C31.7099 43.4065 30.4659 44.0244 29.6621 45.0713C29.5244 45.2506 29.6359 45.5348 29.8111 45.6398C30.0239 45.7672 30.2437 45.6678 30.3796 45.4907C31.0058 44.6752 32.0259 44.2554 33.04 44.3127C33.2789 44.3262 33.4359 44.1105 33.4555 43.8972C33.6266 42.0371 34.2785 40.2573 35.3197 38.7094C35.6189 38.2644 34.8994 37.848 34.6021 38.29Z" fill="black"/>
<path d="M20.0641 43.3256C21.2731 44.5649 22.4093 45.8759 23.4552 47.2558C23.5905 47.4343 23.8135 47.5277 24.0236 47.4048C24.1995 47.302 24.3091 47.0163 24.1727 46.8364C23.0834 45.3993 21.911 44.0289 20.6517 42.738C20.2776 42.3546 19.6902 42.9424 20.0641 43.3256Z" fill="black"/>
<path d="M23.2421 36.6514C24.0984 37.4582 24.8736 38.3453 25.5409 39.2919C25.67 39.4751 25.904 39.5611 26.1094 39.441C26.2905 39.335 26.3884 39.0568 26.2584 38.8725C25.5435 37.8584 24.7329 36.9148 23.8297 36.0638C23.6664 35.9099 23.4041 35.9018 23.2421 36.0638C23.0867 36.2192 23.0782 36.497 23.2421 36.6514Z" fill="black"/>
<path d="M16.9906 50.5316C17.6885 51.2987 18.2651 52.1561 18.7291 53.1121C18.827 53.3139 19.1145 53.3682 19.2975 53.2611C19.5037 53.1406 19.5449 52.8953 19.4466 52.6927C18.9608 51.6917 18.3268 50.7669 17.5782 49.9441C17.4272 49.778 17.144 49.7907 16.9906 49.9441C16.8254 50.1093 16.8392 50.3652 16.9906 50.5316Z" fill="black"/>
<path d="M83.907 63.9203C86.1171 62.6157 87.5453 59.9381 87.8473 57.4732C87.8626 57.348 87.8728 57.2102 87.8012 57.1064C87.7201 56.9889 87.564 56.9558 87.4232 56.9329C83.1624 56.2393 78.7812 56.2921 74.5383 57.0882C74.6432 59.4785 74.7062 61.9983 76.7518 63.6244C78.7386 65.2037 81.7213 65.2105 83.907 63.9203Z" fill="black"/>
<path d="M84.1152 64.2766C86.321 62.9504 87.7662 60.4774 88.1894 57.9719C88.2369 57.6906 88.3228 57.3583 88.2399 57.0769C88.142 56.7447 87.8494 56.5914 87.5322 56.5297C86.713 56.3706 85.8689 56.2863 85.0389 56.2059C83.3779 56.0448 81.706 55.9952 80.0383 56.0569C78.1552 56.1265 76.2788 56.3409 74.4264 56.685C74.2554 56.7168 74.114 56.9157 74.1214 57.0857C74.2062 59.0294 74.2575 61.1626 75.4261 62.814C76.6324 64.5187 78.7148 65.3517 80.7679 65.2572C81.9451 65.203 83.0956 64.8673 84.1152 64.2766C84.5777 64.0085 84.1599 63.2901 83.6958 63.559C82.1114 64.4771 80.1462 64.7067 78.4138 64.0813C76.6431 63.4421 75.5934 61.9413 75.2293 60.1438C75.0257 59.1387 74.9969 58.1072 74.9524 57.0857L74.6473 57.4863C77.5877 56.9401 80.5889 56.7528 83.5748 56.9239C84.3079 56.9659 85.0397 57.0297 85.769 57.115C86.1079 57.1546 86.4461 57.199 86.7835 57.2491C86.9592 57.2751 87.1368 57.2973 87.3112 57.331C87.5165 57.3707 87.4459 57.3558 87.419 57.5553C87.2687 58.6674 86.8834 59.7609 86.3364 60.7384C85.6985 61.8782 84.8213 62.8823 83.6958 63.559C83.238 63.8343 83.6552 64.5531 84.1152 64.2766Z" fill="black"/>
<path d="M79.9413 57.186C78.7497 58.9148 77.6432 60.7004 76.6255 62.537C76.3661 63.0052 77.0835 63.4248 77.343 62.9564C78.3607 61.1198 79.4672 59.3342 80.6588 57.6054C80.9631 57.164 80.2432 56.748 79.9413 57.186Z" fill="white"/>
<path d="M83.1 57.381C82.2945 58.5491 81.4889 59.7172 80.6834 60.8853C80.5559 61.0701 80.649 61.3465 80.8324 61.4538C81.0386 61.5744 81.2732 61.49 81.4009 61.3047C82.2065 60.1366 83.012 58.9685 83.8175 57.8005C83.945 57.6156 83.8519 57.3393 83.6685 57.232C83.4623 57.1114 83.2278 57.1958 83.1 57.381Z" fill="white"/>
<path d="M99.9736 63.9203C102.184 62.6157 103.612 59.9381 103.914 57.4732C103.929 57.348 103.939 57.2102 103.868 57.1064C103.787 56.9889 103.631 56.9558 103.49 56.9329C99.2291 56.2393 94.8478 56.2921 90.605 57.0882C90.7098 59.4785 90.7729 61.9983 92.8184 63.6244C94.8052 65.2037 97.788 65.2105 99.9736 63.9203Z" fill="black"/>
<path d="M100.182 64.2766C102.388 62.9504 103.833 60.4774 104.256 57.9719C104.304 57.6906 104.389 57.3583 104.307 57.0769C104.209 56.7447 103.916 56.5914 103.599 56.5297C102.78 56.3706 101.936 56.2863 101.106 56.2059C99.4445 56.0448 97.7727 55.9952 96.1049 56.0569C94.2219 56.1265 92.3455 56.3409 90.4931 56.685C90.3221 56.7168 90.1806 56.9157 90.188 57.0857C90.2729 59.0294 90.3241 61.1626 91.4927 62.814C92.699 64.5187 94.7814 65.3517 96.8345 65.2572C98.0118 65.203 99.1623 64.8673 100.182 64.2766C100.644 64.0085 100.227 63.2901 99.7624 63.559C98.178 64.4771 96.2129 64.7067 94.4804 64.0813C92.7098 63.4421 91.66 61.9413 91.2959 60.1438C91.0924 59.1387 91.0636 58.1072 91.019 57.0857L90.714 57.4863C93.6544 56.9401 96.6555 56.7528 99.6415 56.9239C100.375 56.9659 101.106 57.0297 101.836 57.115C102.175 57.1546 102.513 57.199 102.85 57.2491C103.026 57.2751 103.203 57.2973 103.378 57.331C103.583 57.3707 103.513 57.3558 103.486 57.5553C103.335 58.6674 102.95 59.7609 102.403 60.7384C101.765 61.8782 100.888 62.8823 99.7624 63.559C99.3046 63.8343 99.7219 64.5531 100.182 64.2766Z" fill="black"/>
<path d="M96.0082 57.186C94.8166 58.9148 93.7101 60.7004 92.6924 62.537C92.4329 63.0052 93.1504 63.4248 93.4099 62.9564C94.4276 61.1198 95.5341 59.3342 96.7257 57.6054C97.03 57.164 96.3101 56.748 96.0082 57.186Z" fill="white"/>
<path d="M99.1667 57.381C98.3611 58.5491 97.5556 59.7172 96.75 60.8853C96.6226 61.0701 96.7157 61.3465 96.8991 61.4538C97.1053 61.5744 97.3398 61.49 97.4676 61.3047C98.2731 60.1366 99.0786 58.9685 99.8842 57.8005C100.012 57.6156 99.9186 57.3393 99.7351 57.232C99.529 57.1114 99.2944 57.1958 99.1667 57.381Z" fill="white"/>
<path d="M88.7153 56.8719C90.035 56.8655 91.5843 56.7651 92.8781 56.9788C94.5034 57.2473 94.082 57.6389 93.9308 58.8549C93.9183 58.9553 93.894 59.0705 93.7775 59.1227C93.6991 59.1578 93.6007 59.1532 93.5093 59.1476C91.1581 59.0035 88.7949 58.9661 86.4375 59.0358C86.5032 58.6465 86.2683 57.2887 86.568 57.0231C86.8958 56.7326 88.2307 56.8754 88.7153 56.8719Z" fill="black"/>
<path d="M88.7142 57.2887C89.9854 57.2801 91.2734 57.1849 92.5389 57.3473C92.8699 57.3897 93.4195 57.4518 93.6447 57.6385C93.6826 57.67 93.6757 57.6813 93.677 57.7478C93.6795 57.8777 93.656 57.9832 93.6336 58.1094C93.6006 58.2948 93.5671 58.4796 93.5394 58.6659C93.5341 58.7185 93.5264 58.7707 93.5162 58.8226C93.6344 58.7454 93.6318 58.7156 93.5081 58.7334C93.4005 58.6701 93.0925 58.7089 92.9653 58.702C92.241 58.6627 91.5161 58.6335 90.7909 58.6145C89.3396 58.5763 87.8876 58.5799 86.4364 58.6216L86.8519 59.0371C86.8928 58.732 86.8464 58.4127 86.8339 58.1068C86.8264 57.9226 86.8204 57.7374 86.8312 57.5532C86.8342 57.5012 86.8444 57.4479 86.8475 57.3968C86.8505 57.3484 86.9189 57.2464 86.8434 57.327C86.7837 57.3906 86.877 57.3208 86.9166 57.3132C86.9726 57.3023 87.027 57.2876 87.0837 57.2797C87.2757 57.2529 87.4754 57.2555 87.669 57.2569C88.0176 57.2592 88.3656 57.2878 88.7142 57.2887C89.2489 57.2899 89.2497 56.4589 88.7142 56.4577C88.2932 56.4567 87.8734 56.4178 87.4521 56.4273C87.0648 56.436 86.5521 56.4475 86.2594 56.7451C85.985 57.0242 85.9905 57.5002 85.9955 57.8627C86.0008 58.2492 86.0724 58.6525 86.0209 59.0371C85.9916 59.256 86.235 59.4584 86.4364 59.4526C87.7742 59.4142 89.1127 59.408 90.4508 59.4374C91.1082 59.4518 91.7654 59.4744 92.4222 59.5055C92.7391 59.5205 93.0558 59.5383 93.3725 59.5562C93.6459 59.5717 93.9329 59.5781 94.1415 59.368C94.3906 59.1172 94.3816 58.6325 94.4403 58.3004C94.488 58.0311 94.5462 57.7426 94.4751 57.4715C94.2822 56.7362 93.3329 56.623 92.708 56.5384C91.3843 56.3593 90.0449 56.4487 88.7142 56.4577C88.1797 56.4613 88.1784 57.2923 88.7142 57.2887Z" fill="black"/>
<path d="M99.8713 120.727C99.4141 126.401 99.2519 132.098 99.39 137.789C99.5287 143.501 99.9677 149.207 100.705 154.874C101.118 158.044 101.622 161.202 102.218 164.343C102.317 164.868 103.118 164.646 103.019 164.122C101.961 158.544 101.194 152.912 100.726 147.253C100.26 141.603 100.088 135.928 100.212 130.26C100.282 127.078 100.447 123.899 100.702 120.727C100.745 120.194 99.914 120.197 99.8713 120.727Z" fill="black"/>
<path d="M108.744 164.249C108.425 156.498 108.107 148.747 107.951 140.991C107.796 133.265 107.802 125.533 108.132 117.812C108.318 113.464 108.608 109.12 109.026 104.788C109.078 104.256 108.246 104.26 108.195 104.788C107.451 112.5 107.117 120.247 107.04 127.993C106.963 135.726 107.139 143.459 107.405 151.187C107.555 155.542 107.734 159.896 107.913 164.249C107.935 164.782 108.766 164.785 108.744 164.249Z" fill="black"/>
<path d="M113.404 164.237C113.073 157.089 113.004 149.929 113.203 142.776C113.402 135.623 113.866 128.477 114.594 121.359C115.005 117.341 115.502 113.332 116.082 109.334C116.158 108.811 115.357 108.585 115.28 109.114C114.247 116.232 113.473 123.388 112.97 130.563C112.466 137.747 112.23 144.949 112.264 152.15C112.282 156.18 112.386 160.211 112.573 164.237C112.598 164.77 113.429 164.773 113.404 164.237Z" fill="black"/>
<path d="M69.8142 159.896C71.9508 155.76 74.0874 151.624 76.224 147.488C78.3501 143.373 80.4762 139.257 82.6023 135.142C83.8127 132.799 85.0231 130.456 86.2335 128.113C86.4785 127.638 85.7617 127.218 85.5159 127.693C83.3793 131.829 81.2428 135.965 79.1061 140.101C76.9801 144.217 74.854 148.332 72.7279 152.448C71.5175 154.791 70.3071 157.134 69.0967 159.477C68.8516 159.951 69.5684 160.372 69.8142 159.896Z" fill="black"/>
<path d="M64.0317 158.945C65.8305 154.761 67.6848 150.602 69.5825 146.463C71.5342 142.206 73.5319 137.97 75.5851 133.761C76.685 131.506 77.8014 129.26 78.9391 127.024C79.1811 126.548 78.4645 126.127 78.2216 126.605C76.1565 130.663 74.1602 134.756 72.2094 138.87C70.2029 143.102 68.2451 147.356 66.336 151.632C65.3133 153.923 64.3052 156.221 63.3142 158.525C63.1052 159.011 63.8208 159.435 64.0317 158.945Z" fill="black"/>
<path d="M59.3263 154.237C62.6189 146.184 66.3117 138.294 70.3849 130.606C71.53 128.444 72.7058 126.299 73.9101 124.169C74.1738 123.703 73.4562 123.284 73.1926 123.75C71.042 127.552 68.984 131.407 67.0239 135.31C65.054 139.234 63.1819 143.206 61.4102 147.223C60.4172 149.474 59.4561 151.739 58.525 154.016C58.3228 154.511 59.1264 154.726 59.3263 154.237Z" fill="black"/>
<path d="M38.7498 6.24609C38.245 7.16658 41.7664 12.6426 42.5766 13.3403C42.1584 14.1081 41.2891 14.4863 40.5795 14.9973C39.2147 15.9802 38.351 17.6251 38.3168 19.3066C37.9144 16.6822 36.381 14.2509 34.186 12.757C36.2328 11.4886 37.6212 8.30379 38.7498 6.24609Z" fill="#3E50F7"/>
<path d="M20.8587 0.638836C21.0337 1.49877 21.4435 2.31146 21.8466 3.1C22.6066 4.587 23.3667 6.074 24.1267 7.56097C24.1697 7.64511 24.2136 7.73228 24.2195 7.82657C24.2315 8.02019 24.0852 8.18292 23.9514 8.32334C22.2127 10.147 20.7729 12.3321 20.7205 14.9089C20.2787 12.0272 18.595 9.35751 16.1848 7.71719C16.7921 8.13051 18.4003 5.18761 18.6086 4.7555C19.3723 3.17079 20.2001 1.67439 20.776 0C20.7872 0.215971 20.816 0.428823 20.8587 0.638836Z" fill="#3E50F7"/>
<path d="M121.178 156.074C121.075 153.305 122.248 150.581 124.263 148.689C124.771 148.212 125.33 147.795 125.933 147.446C126.403 147.174 127.232 146.636 127.644 147.252C127.94 147.693 127.91 148.346 127.848 148.848C127.744 149.676 127.576 150.501 127.389 151.313C126.952 153.214 126.329 155.072 125.526 156.849C125.341 157.259 125.821 157.706 126.178 157.353C126.982 156.56 127.831 155.811 128.73 155.127C129.159 154.801 129.595 154.473 130.054 154.189C130.45 153.944 131.012 153.636 131.475 153.888C131.869 154.102 132.053 154.616 132.156 155.025C132.277 155.501 132.282 156.011 132.199 156.494C132.028 157.493 131.535 158.397 130.876 159.159C130.108 160.049 129.169 160.769 128.237 161.476L128.74 162.129C130.004 161.078 131.873 159.615 133.578 160.642C134.377 161.123 134.576 162.127 134.56 162.995C134.545 163.831 134.297 164.655 133.877 165.376C133.392 166.208 132.688 166.875 131.827 167.306C131.413 167.514 131.706 168.241 132.147 168.066C133.245 167.628 134.359 168.56 134.66 169.595C135.072 171.011 134.228 172.503 133.485 173.65L134.203 174.069C135.211 172.312 137.543 171.902 139.177 173.017C140.714 174.065 141.592 176.599 140.049 178.03C139.656 178.394 140.245 178.981 140.637 178.617C142.071 177.287 141.901 174.972 140.817 173.485C139.696 171.948 137.742 171.156 135.892 171.742C134.885 172.061 134.012 172.731 133.485 173.65C133.217 174.116 133.913 174.516 134.203 174.069C135.113 172.664 136.045 170.796 135.366 169.104C134.843 167.801 133.358 166.693 131.926 167.264L132.246 168.024C134.072 167.109 135.289 165.176 135.387 163.143C135.438 162.074 135.184 160.852 134.313 160.149C133.538 159.523 132.494 159.381 131.536 159.562C130.226 159.811 129.148 160.713 128.153 161.541C127.794 161.839 128.279 162.479 128.656 162.194C130.536 160.768 132.606 159.141 133.01 156.66C133.184 155.592 133.061 154.261 132.258 153.452C131.287 152.476 129.996 153.2 129.08 153.846C127.839 154.722 126.672 155.699 125.591 156.765L126.243 157.269C127.041 155.501 127.681 153.667 128.133 151.781C128.357 150.841 128.544 149.889 128.668 148.931C128.752 148.279 128.735 147.566 128.436 146.967C127.597 145.283 125.553 146.61 124.538 147.378C123.286 148.325 122.251 149.551 121.528 150.945C120.709 152.523 120.281 154.294 120.347 156.074C120.367 156.607 121.198 156.61 121.178 156.074Z" fill="black"/>
<path d="M123.441 173.855C123.448 173.844 123.456 173.834 123.462 173.823C123.496 173.768 123.431 173.862 123.432 173.86C123.439 173.841 123.468 173.817 123.482 173.802C123.5 173.784 123.518 173.766 123.537 173.749C123.547 173.741 123.558 173.733 123.567 173.724C123.489 173.803 123.511 173.766 123.544 173.743C123.586 173.714 123.63 173.688 123.676 173.666C123.685 173.662 123.704 173.65 123.711 173.65C123.714 173.65 123.604 173.69 123.666 173.67C123.693 173.661 123.721 173.651 123.748 173.642C123.773 173.635 123.798 173.629 123.824 173.623C123.841 173.62 123.94 173.604 123.855 173.616C123.769 173.627 123.875 173.615 123.896 173.614C123.925 173.613 123.954 173.612 123.983 173.613C124.009 173.614 124.035 173.616 124.061 173.618C124.152 173.624 123.956 173.597 124.046 173.616C124.099 173.628 124.152 173.64 124.204 173.659C124.298 173.692 124.134 173.623 124.193 173.653C124.216 173.665 124.239 173.676 124.261 173.689C124.283 173.702 124.304 173.716 124.325 173.73C124.38 173.765 124.285 173.699 124.287 173.7C124.298 173.703 124.323 173.73 124.331 173.738C124.35 173.755 124.369 173.774 124.386 173.793C124.391 173.799 124.411 173.817 124.411 173.823C124.412 173.825 124.346 173.731 124.382 173.784C124.412 173.83 124.439 173.876 124.464 173.925C124.504 174.005 124.431 173.829 124.458 173.914C124.466 173.939 124.474 173.963 124.481 173.987C124.488 174.012 124.494 174.037 124.498 174.062C124.501 174.075 124.503 174.088 124.505 174.1C124.515 174.15 124.494 173.989 124.499 174.057C124.502 174.109 124.504 174.16 124.502 174.212C124.501 174.233 124.489 174.339 124.501 174.254C124.512 174.17 124.496 174.274 124.491 174.294C124.484 174.326 124.476 174.357 124.467 174.388C124.461 174.407 124.423 174.503 124.455 174.429C124.486 174.355 124.444 174.449 124.435 174.467C124.42 174.495 124.404 174.523 124.387 174.55C124.38 174.56 124.372 174.571 124.365 174.581C124.329 174.636 124.422 174.515 124.389 174.551C124.37 174.572 124.352 174.594 124.332 174.615C124.317 174.63 124.282 174.675 124.261 174.679C124.258 174.68 124.353 174.614 124.299 174.649C124.282 174.66 124.266 174.671 124.25 174.681C124.065 174.796 123.977 175.057 124.101 175.25C124.22 175.434 124.472 175.522 124.669 175.399C125.224 175.053 125.482 174.302 125.256 173.684C125.14 173.367 124.924 173.083 124.612 172.936C124.295 172.786 123.956 172.749 123.612 172.82C123.247 172.896 122.924 173.123 122.723 173.436C122.606 173.619 122.68 173.903 122.872 174.004C123.078 174.113 123.316 174.051 123.441 173.855Z" fill="black"/>
<path d="M19.2794 174.893C18.1623 173.266 17.5268 171.339 17.5036 169.361C17.4993 168.996 17.395 168.319 17.9189 168.349C18.2704 168.369 18.615 168.51 18.9071 168.701C19.4914 169.082 19.8747 169.717 20.1548 170.34C20.509 171.129 20.7085 171.987 20.864 172.834L21.6653 172.613C21.2596 170.739 21.656 168.599 22.8584 167.077C23.1056 166.764 23.4515 166.41 23.8701 166.363C24.2863 166.317 24.6094 166.629 24.8151 166.954C25.3293 167.766 25.5178 168.854 25.5945 169.797C25.6946 171.028 25.5467 172.253 25.1655 173.427C25.0365 173.824 25.5783 174.125 25.8599 173.831C26.7413 172.913 28.2284 172.614 29.3703 173.223C30.5056 173.828 31.1302 175.209 30.8564 176.462C30.7424 176.983 31.5433 177.206 31.6577 176.683C32.0083 175.079 31.2627 173.288 29.7897 172.505C28.3226 171.726 26.4182 172.049 25.2723 173.244L25.9668 173.648C26.3619 172.431 26.526 171.136 26.4305 169.859C26.3453 168.718 26.13 167.367 25.4503 166.413C24.796 165.495 23.7115 165.26 22.7963 165.97C21.9138 166.656 21.3601 167.815 21.0326 168.858C20.6289 170.145 20.5792 171.519 20.864 172.834C20.9779 173.36 21.7608 173.133 21.6653 172.613C21.3577 170.937 20.8137 168.891 19.258 167.94C18.515 167.486 17.1739 167.183 16.787 168.231C16.6004 168.737 16.659 169.362 16.6929 169.89C16.7317 170.494 16.8198 171.097 16.9574 171.686C17.26 172.98 17.8098 174.217 18.5619 175.313C18.8627 175.751 19.5832 175.336 19.2794 174.893Z" fill="black"/>
<path d="M74.7344 52.7412C76.8142 50.843 79.5772 49.7908 82.391 49.8078C82.9258 49.811 82.9264 48.98 82.391 48.9768C79.3552 48.9584 76.3877 50.1083 74.1468 52.1536C73.751 52.5149 74.3399 53.1013 74.7344 52.7412Z" fill="black"/>
<path d="M105.125 51.2182C102.224 48.4965 97.9102 47.474 94.0991 48.629C93.5887 48.7836 93.8062 49.586 94.32 49.4302C97.8465 48.3615 101.847 49.282 104.538 51.8058C104.927 52.1714 105.516 51.585 105.125 51.2182Z" fill="black"/>
<path d="M87.4474 53.5923C87.2878 58.1773 87.2513 62.7659 87.338 67.3529C87.3481 67.8869 88.1791 67.8887 88.169 67.3529C88.0823 62.7659 88.1188 58.1773 88.2783 53.5923C88.297 53.0574 87.466 53.0581 87.4474 53.5923Z" fill="black"/>
<path d="M87.9395 69.7162C86.8092 69.6316 85.6726 69.0976 84.5337 69.2164C83.2862 69.3465 82.3664 70.1631 82.2425 71.4349C82.0068 73.8542 83.828 76.0739 85.9644 76.9542C88.3203 77.925 91.4231 77.6193 93.4716 76.0683C94.4233 75.3476 95.1444 74.3795 95.5872 73.2726C96.0133 72.2074 96.2462 70.8242 95.7817 69.7355C95.2389 68.4634 93.7607 68.1459 92.5226 68.4434C91.0496 68.7974 89.6378 70.0863 88.0499 69.7311C87.529 69.6145 87.3066 70.4155 87.829 70.5324C89.0445 70.8043 90.1688 70.3242 91.2513 69.8191C92.1806 69.3855 93.3345 68.8568 94.3474 69.3564C95.33 69.8411 95.2787 71.1366 95.0876 72.056C94.8791 73.0587 94.3973 74.0006 93.6993 74.751C90.7748 77.8949 84.0461 77.1796 83.1278 72.5054C83.0181 71.947 82.9838 71.2641 83.2897 70.7601C83.558 70.318 84.0853 70.0951 84.5822 70.0429C85.0819 69.9905 85.5697 70.1184 86.0519 70.2317C86.6756 70.3781 87.2996 70.4993 87.9395 70.5472C88.473 70.5871 88.4704 69.756 87.9395 69.7162Z" fill="black"/>
<path d="M82.8841 73.8503C84.9065 74.525 87.2355 74.7262 89.3502 74.48C89.8775 74.4185 90.4076 74.3279 90.8813 74.0747C91.0902 73.9632 91.2728 73.815 91.438 73.6469C91.4788 73.5993 91.5218 73.5538 91.5671 73.5105C91.3719 73.4478 91.3183 73.4681 91.4061 73.5713C91.4331 73.6633 91.5409 73.7782 91.6084 73.8417C92.0592 74.2658 92.7689 73.8619 93.2496 73.6971C93.9444 73.4587 94.6393 73.2204 95.334 72.9821C95.837 72.8096 95.6209 72.0066 95.1131 72.1808C94.4618 72.4042 93.8104 72.6277 93.159 72.8511C92.8664 72.9515 92.552 73.1085 92.2471 73.1639C92.0913 73.1922 92.1888 73.2436 92.0831 73.0847C92.0152 72.9826 91.9449 72.8906 91.8431 72.8204C91.3682 72.4934 91.043 72.9211 90.7068 73.1997C90.3272 73.5143 89.7782 73.6005 89.3033 73.6544C87.2675 73.8855 85.0515 73.6984 83.1049 73.049C82.5965 72.8794 82.3785 73.6816 82.8841 73.8503Z" fill="black"/>
</svg>
