<svg width="257" height="251" viewBox="0 0 257 251" fill="none" xmlns="http://www.w3.org/2000/svg">
<path d="M162.331 12.3493C166.61 9.10423 172.556 8.19499 177.609 10.013C181.529 11.4234 185.179 14.3871 189.317 13.9C192.089 13.5737 194.404 11.7401 196.838 10.3722C199.271 9.00437 202.417 8.10389 204.758 9.62463C206.565 10.7985 207.331 13.2235 206.847 15.3232C206.363 17.4228 204.795 19.1669 202.91 20.2108C205.218 20.0627 207.219 22.4491 206.981 24.7495C206.742 27.0499 204.627 28.9003 202.333 29.1903C203.479 30.0577 203.872 31.6834 203.543 33.0825C203.213 34.4817 202.272 35.6688 201.178 36.6014C197.499 39.7386 192.035 40.2495 187.477 38.6355C182.919 37.0216 179.209 33.5437 176.472 29.5581C176.171 29.1197 175.875 28.6647 175.734 28.1519" fill="#323232"/>
<path d="M162.678 12.9409C165.648 10.714 169.333 9.61122 173.038 9.79445C174.878 9.88547 176.676 10.323 178.371 11.0423C180.168 11.8051 181.867 12.7771 183.668 13.5319C185.343 14.234 187.149 14.7546 188.984 14.6171C190.939 14.4706 192.708 13.6317 194.374 12.65C196.009 11.6869 197.578 10.5718 199.395 9.9703C201.063 9.41803 203.027 9.21699 204.535 10.2982C206.011 11.3557 206.581 13.4184 206.188 15.1415C205.74 17.1062 204.281 18.6506 202.566 19.6201C201.987 19.9472 202.227 20.9244 202.912 20.8959C204.902 20.8131 206.524 22.818 206.297 24.7499C206.055 26.818 204.099 28.2559 202.152 28.5304C201.662 28.5995 201.471 29.3723 201.85 29.6748C202.734 30.3798 203.097 31.4984 202.942 32.6085C202.775 33.8026 202.031 34.847 201.188 35.6693C199.498 37.3178 197.253 38.2863 194.944 38.6704C190.151 39.4678 185.395 37.5889 181.777 34.5023C180.728 33.6074 179.759 32.6209 178.865 31.5712C178.402 31.027 177.96 30.4655 177.54 29.8871C177.108 29.292 176.616 28.6792 176.396 27.9702C176.134 27.1315 174.812 27.4894 175.075 28.3342C175.489 29.6623 176.51 30.8311 177.369 31.9007C178.25 32.9979 179.21 34.0335 180.252 34.9798C182.287 36.8279 184.626 38.3363 187.219 39.2681C192.151 41.04 198.291 40.4069 202.156 36.6375C203.277 35.5438 204.152 34.1505 204.316 32.568C204.463 31.1469 203.954 29.6117 202.818 28.7064L202.516 29.8508C205.126 29.4827 207.513 27.3148 207.679 24.6059C207.838 21.9982 205.577 19.4156 202.912 19.5265L203.257 20.8023C206.547 18.9429 208.757 15.0702 207.092 11.373C206.317 9.65136 204.729 8.48102 202.863 8.21926C200.865 7.939 198.846 8.57424 197.079 9.46904C195.244 10.3977 193.599 11.6664 191.717 12.5076C189.84 13.3466 187.89 13.4556 185.919 12.891C183.949 12.3268 182.152 11.3074 180.313 10.4296C178.487 9.55797 176.622 8.85737 174.609 8.57743C170.193 7.9634 165.565 9.07542 161.987 11.7584C161.29 12.2808 161.972 13.4703 162.678 12.9409Z" fill="#323232"/>
<path d="M199.191 236.404C191.438 236.369 183.684 236.342 175.931 236.317C157.692 236.257 139.453 236.208 121.215 236.152C113.012 236.127 104.808 236.101 96.6052 236.07C93.1889 236.057 89.4833 236.429 86.1239 235.899C82.3817 235.308 78.3603 234.02 75.1589 231.947C72.7685 230.4 69.5252 229.187 67.7033 226.955C65.3476 224.068 65.4914 219.545 67.7755 216.601C70.0597 213.658 74.1552 212.375 77.7994 213.151C83.799 214.427 88.497 219.389 94.8595 219.537C112.559 219.947 130.303 219.659 148.007 219.713C165.068 219.765 182.13 219.811 199.191 219.89C204.988 219.916 211.251 220.525 216.979 219.611C222.322 218.758 226.401 217.119 231.065 214.325C234.293 212.392 237.923 210.468 241.777 210.407C245.154 210.353 247.996 213.46 249.03 216.52C251.702 224.429 243.665 230.127 237.353 232.804C225.557 237.808 211.709 236.462 199.191 236.404Z" fill="white"/>
<path d="M199.191 235.718C185.156 235.653 171.122 235.614 157.088 235.572C143.019 235.53 128.95 235.491 114.881 235.446C107.899 235.424 100.893 235.233 93.913 235.428C90.6371 235.52 87.4332 235.556 84.2159 234.839C81.1977 234.165 78.2546 233.088 75.6313 231.435C73.3823 230.018 70.7422 229.017 68.8127 227.145C66.8951 225.286 66.2898 222.477 66.9289 219.921C67.6007 217.235 69.6291 215.172 72.2081 214.227C74.7979 213.279 77.4284 213.562 79.9714 214.502C84.9515 216.342 89.2072 220 94.7171 220.214C101.742 220.487 108.795 220.434 115.825 220.443C129.856 220.46 143.887 220.383 157.919 220.425C171.894 220.467 185.874 220.418 199.849 220.578C206.316 220.652 212.798 221.242 219.184 219.896C222 219.302 224.723 218.364 227.321 217.127C230.074 215.815 232.586 214.064 235.348 212.772C237.925 211.567 241.459 210.288 244.198 211.666C246.609 212.88 248.233 215.465 248.73 218.066C249.663 222.952 245.93 226.949 242.175 229.449C232.263 236.049 219.598 236.086 208.138 235.871C205.156 235.816 202.174 235.734 199.191 235.718C198.309 235.713 198.308 237.082 199.19 237.087C211.792 237.155 225.138 238.54 237.098 233.644C241.401 231.883 245.818 229.28 248.432 225.318C251.218 221.095 250.62 215.536 246.962 211.995C244.859 209.959 242.357 209.446 239.53 209.95C236.409 210.507 233.55 212.048 230.854 213.651C228.178 215.243 225.411 216.655 222.441 217.616C219.337 218.62 216.105 219.172 212.85 219.344C209.407 219.527 205.958 219.365 202.515 219.266C199.005 219.165 195.492 219.186 191.981 219.172C184.652 219.141 177.323 219.116 169.994 219.093C155.433 219.047 140.874 219.018 126.314 219.06C118.961 219.082 111.607 219.089 104.254 219.008C102.447 218.988 100.64 218.963 98.833 218.931C97.1446 218.901 95.416 218.966 93.7367 218.774C90.8946 218.448 88.3011 217.107 85.8086 215.79C83.3896 214.512 80.9364 213.168 78.2487 212.548C75.6729 211.953 72.9508 212.26 70.5852 213.449C65.93 215.787 63.762 221.851 66.5189 226.453C67.9365 228.819 70.4987 230.105 72.8347 231.384C74.0834 232.068 75.262 232.871 76.5225 233.531C77.9073 234.257 79.3644 234.852 80.8498 235.338C83.8614 236.322 86.976 236.843 90.1435 236.866C93.6832 236.893 97.2251 236.755 100.767 236.768C115.434 236.821 130.101 236.862 144.768 236.905C159.39 236.948 174.012 236.989 188.634 237.043C192.153 237.056 195.672 237.071 199.19 237.087C200.072 237.091 200.073 235.722 199.191 235.718Z" fill="#323232"/>
<path d="M141.135 111.446C154.141 139.108 160.881 198.968 162.954 222.472C163.486 228.507 166.612 229.991 172.224 230.695C180.522 231.736 188.91 231.366 197.227 230.771C200.246 230.555 203.264 230.427 205.169 227.656C207.011 224.979 205.509 221.325 203.468 219.231C201.299 217.008 198.408 215.625 196.116 213.53C188.524 206.587 188.28 195.407 187.761 185.903C186.713 166.728 183.549 147.415 179.629 128.671C177.152 116.824 174.216 104.834 167.93 94.4922" fill="white"/>
<path d="M140.542 111.791C143.882 118.911 146.209 126.503 148.233 134.086C150.619 143.025 152.515 152.092 154.172 161.192C155.856 170.433 157.282 179.721 158.532 189.031C159.598 196.973 160.536 204.932 161.352 212.904C161.665 215.95 161.959 218.999 162.23 222.05C162.4 223.957 162.704 225.929 163.803 227.55C164.779 228.987 166.22 229.907 167.841 230.472C170.078 231.253 172.531 231.453 174.873 231.665C178.145 231.962 181.432 232.06 184.716 232.031C188.048 232.001 191.377 231.842 194.702 231.627C197.215 231.465 200.026 231.542 202.411 230.622C204.694 229.742 206.499 227.772 206.672 225.264C206.838 222.861 205.582 220.434 203.95 218.747C201.99 216.721 199.446 215.419 197.285 213.639C195.341 212.039 193.762 210.05 192.565 207.839C190.195 203.458 189.358 198.41 188.922 193.503C188.415 187.795 188.263 182.061 187.754 176.351C186.586 163.254 184.561 150.244 182.069 137.338C179.754 125.345 177.444 113.094 172.507 101.853C171.342 99.2016 170.019 96.6238 168.52 94.1462C168.064 93.3932 166.88 94.0807 167.337 94.8374C173.504 105.03 176.413 116.713 178.843 128.26C181.526 141.011 183.829 153.855 185.382 166.796C186.152 173.209 186.735 179.644 187.085 186.094C187.347 190.934 187.544 195.81 188.56 200.565C189.563 205.263 191.479 209.835 194.89 213.3C196.823 215.263 199.223 216.596 201.374 218.286C203.319 219.814 205.123 221.903 205.302 224.487C205.484 227.12 203.478 228.999 201.071 229.61C199.942 229.896 198.777 229.975 197.619 230.058C196.071 230.168 194.522 230.274 192.973 230.364C186.505 230.74 179.998 230.859 173.547 230.164C169.939 229.776 165.566 229.235 164.206 225.293C163.652 223.684 163.594 221.968 163.44 220.288C163.304 218.807 163.163 217.326 163.017 215.845C162.275 208.307 161.42 200.779 160.457 193.266C159.302 184.266 157.994 175.285 156.466 166.341C154.907 157.22 153.129 148.13 150.935 139.14C149.003 131.22 146.783 123.32 143.739 115.748C143.109 114.181 142.442 112.629 141.725 111.1C141.351 110.302 140.17 110.997 140.542 111.791Z" fill="#323232"/>
<path d="M162.955 222.472C163.487 228.508 166.612 229.991 172.224 230.695C180.522 231.736 188.911 231.366 197.228 230.771C200.247 230.555 203.264 230.427 205.17 227.657C207.012 224.979 205.51 221.325 203.468 219.231C201.3 217.008 198.409 215.625 196.117 213.53C194.757 212.286 193.595 210.909 192.838 209.221C192.087 207.548 191.822 205.573 190.493 204.212C188.611 202.286 185.178 202.621 183.194 204.443C181.968 205.568 181.225 207.113 180.863 208.72C180.683 209.522 180.597 210.343 180.584 211.165C180.575 211.711 180.681 212.926 180.24 213.324C180.114 213.438 179.946 213.493 179.782 213.539C178.435 213.92 177.018 213.96 175.618 213.98C171.854 214.033 168.112 214.258 164.392 214.431C161.844 214.55 162.801 220.726 162.955 222.472Z" fill="white"/>
<path d="M162.27 222.471C162.423 224.126 162.75 225.814 163.619 227.256C164.33 228.437 165.384 229.363 166.62 229.965C168.02 230.649 169.553 230.99 171.085 231.222C173.543 231.596 176.032 231.795 178.513 231.916C183.837 232.176 189.171 231.98 194.487 231.641C198.435 231.389 203.427 231.651 205.849 227.869C206.959 226.136 206.858 223.942 206.117 222.09C205.307 220.065 203.879 218.509 202.176 217.186C200.349 215.765 198.316 214.609 196.601 213.045C194.951 211.54 193.714 209.823 192.989 207.703C192.341 205.809 191.644 203.765 189.721 202.811C188.006 201.96 185.969 202.101 184.266 202.905C182.344 203.812 181.076 205.685 180.441 207.662C180.081 208.784 179.911 209.986 179.899 211.164C179.895 211.542 179.922 211.922 179.888 212.299C179.877 212.432 179.885 212.69 179.791 212.795C179.667 212.935 179.218 212.978 179.045 213.016C177.82 213.28 176.558 213.278 175.31 213.299C173.978 213.321 172.647 213.364 171.316 213.418C169.956 213.473 168.596 213.54 167.237 213.607C166.627 213.637 166.017 213.668 165.407 213.697C164.92 213.721 164.387 213.683 163.912 213.815C162.634 214.171 162.219 215.572 162.066 216.739C161.88 218.156 161.98 219.597 162.119 221.014C162.167 221.5 162.226 221.985 162.27 222.471C162.349 223.341 163.719 223.35 163.639 222.471C163.538 221.354 163.395 220.243 163.352 219.122C163.309 218.012 163.238 216.577 163.777 215.599C163.857 215.454 164 215.284 164.057 215.24C164.232 215.103 164.381 215.116 164.696 215.101C165.951 215.042 167.205 214.977 168.459 214.916C170.972 214.794 173.485 214.706 176 214.657C177.141 214.635 178.291 214.578 179.409 214.336C179.892 214.232 180.441 214.118 180.789 213.738C181.076 213.424 181.176 212.997 181.228 212.588C181.342 211.677 181.241 210.755 181.356 209.84C181.488 208.799 181.776 207.753 182.258 206.818C183.118 205.15 184.582 203.901 186.478 203.642C188.262 203.399 189.869 204.122 190.742 205.713C191.227 206.595 191.486 207.577 191.826 208.52C192.168 209.465 192.598 210.37 193.162 211.203C194.363 212.977 195.966 214.408 197.688 215.66C200.778 217.905 205.017 220.185 205.305 224.497C205.433 226.411 204.377 228.076 202.715 228.988C201.169 229.837 199.326 229.936 197.605 230.059C192.672 230.409 187.732 230.699 182.785 230.663C180.275 230.645 177.765 230.545 175.264 230.33C173.322 230.163 171.352 229.982 169.454 229.517C168.236 229.218 166.995 228.784 166.016 227.974C165.03 227.16 164.413 226.046 164.062 224.828C163.84 224.058 163.713 223.268 163.639 222.471C163.559 221.601 162.189 221.592 162.27 222.471Z" fill="#323232"/>
<path d="M165.048 224.826C164.611 224.799 163.978 224.696 163.297 224.619C164.349 228.88 167.347 230.082 172.222 230.694C180.52 231.735 188.909 231.365 197.226 230.769C200.244 230.553 203.262 230.426 205.168 227.655C207.01 224.978 205.508 221.324 203.466 219.23C201.91 217.635 199.983 216.472 198.171 215.168C197.35 216.06 196.789 217.217 196.373 218.372C195.98 219.467 195.682 220.596 195.484 221.743C195.331 222.63 195.231 223.548 194.816 224.346C194.165 225.597 192.824 225.902 191.528 225.985C182.792 226.545 173.765 225.371 165.048 224.826Z" fill="#323232"/>
<path d="M165.049 224.14C164.463 224.096 163.882 224.002 163.298 223.933C162.84 223.88 162.54 224.412 162.638 224.8C163.019 226.3 163.71 227.741 164.875 228.79C166.016 229.817 167.456 230.417 168.928 230.795C170.989 231.323 173.148 231.516 175.263 231.697C177.832 231.918 180.41 232.018 182.987 232.032C188.041 232.059 193.094 231.768 198.131 231.388C199.977 231.249 201.896 231.044 203.529 230.099C205.243 229.107 206.481 227.379 206.663 225.391C206.867 223.178 205.824 220.957 204.441 219.289C202.826 217.342 200.55 216.031 198.518 214.575C198.285 214.409 197.876 214.472 197.688 214.683C196.022 216.544 195.247 219.144 194.825 221.559C194.639 222.625 194.58 224.025 193.618 224.716C192.803 225.301 191.691 225.295 190.734 225.345C185.237 225.632 179.73 225.27 174.25 224.839C171.184 224.598 168.119 224.334 165.049 224.14C164.169 224.084 164.172 225.454 165.049 225.509C170.673 225.864 176.281 226.458 181.913 226.705C184.719 226.828 187.53 226.865 190.336 226.734C191.482 226.681 192.674 226.665 193.743 226.2C194.798 225.741 195.445 224.865 195.775 223.78C195.978 223.113 196.055 222.416 196.18 221.733C196.319 220.97 196.503 220.215 196.729 219.473C197.147 218.107 197.692 216.729 198.657 215.651L197.827 215.758C200.863 217.933 204.822 220.137 205.284 224.27C205.486 226.072 204.654 227.731 203.143 228.727C201.73 229.66 200.006 229.871 198.357 230.001C193.72 230.368 189.064 230.632 184.413 230.662C179.883 230.691 175.242 230.579 170.771 229.789C169.212 229.514 167.616 229.113 166.303 228.19C165.031 227.297 164.332 225.909 163.959 224.436L163.298 225.303C163.882 225.371 164.463 225.465 165.049 225.509C165.928 225.576 165.923 224.206 165.049 224.14Z" fill="#323232"/>
<path d="M121.914 153.504C121.162 162.521 120.323 171.838 115.989 179.781C112.099 186.912 106.051 193.389 101.166 199.893C97.0181 205.416 92.8022 210.889 88.4991 216.291C84.7243 221.031 85.966 224.26 89.5464 228.638C94.8403 235.113 101.173 240.627 107.609 245.928C109.945 247.853 112.219 249.84 115.509 249.147C118.689 248.477 120.12 244.794 120.084 241.87C120.045 238.765 118.904 235.77 118.688 232.672C117.973 222.408 125.503 214.141 131.678 206.898C138.215 199.23 146.357 191.467 149.537 181.596C151.31 176.092 151.459 170.183 150.948 164.424" fill="white"/>
<path d="M121.227 153.504C120.611 160.894 119.962 168.433 117.262 175.409C114.548 182.422 109.522 188.307 104.858 194.093C99.8102 200.355 95.0735 206.863 90.0946 213.18C88.0244 215.807 85.205 218.636 85.5385 222.268C85.8483 225.642 88.4109 228.426 90.5292 230.866C95.5829 236.686 101.439 241.726 107.373 246.619C108.627 247.653 109.9 248.722 111.406 249.369C112.891 250.007 114.589 250.181 116.147 249.686C118.858 248.825 120.301 246.017 120.664 243.361C121.175 239.629 119.545 236.033 119.351 232.34C119.18 229.093 119.876 225.872 121.161 222.897C123.767 216.864 128.298 211.874 132.533 206.947C137.032 201.714 141.896 196.744 145.69 190.95C147.56 188.095 149.147 185.034 150.195 181.778C151.395 178.054 151.862 174.115 151.886 170.213C151.898 168.28 151.799 166.349 151.63 164.424C151.554 163.553 150.184 163.545 150.261 164.424C150.597 168.264 150.668 172.163 150.115 175.987C149.6 179.553 148.521 182.986 146.882 186.194C143.786 192.257 139.183 197.364 134.694 202.416C132.54 204.841 130.415 207.293 128.329 209.776C126.242 212.26 124.209 214.807 122.473 217.552C120.758 220.263 119.325 223.204 118.565 226.333C118.186 227.893 117.973 229.501 117.956 231.107C117.936 232.963 118.236 234.781 118.611 236.593C119.248 239.664 120.014 242.956 118.472 245.892C117.891 246.997 117 247.977 115.783 248.366C114.283 248.845 112.702 248.56 111.341 247.821C109.911 247.043 108.681 245.934 107.433 244.902C105.971 243.692 104.518 242.472 103.083 241.231C100.213 238.749 97.4129 236.182 94.7706 233.457C93.4499 232.096 92.1691 230.695 90.9409 229.249C89.8014 227.908 88.6601 226.536 87.819 224.981C87.1675 223.777 86.753 222.439 86.9178 221.059C87.1127 219.426 88.0459 217.958 89.0446 216.697C91.5608 213.518 94.064 210.33 96.5336 207.115C98.932 203.993 101.258 200.813 103.698 197.723C108.246 191.962 113.227 186.395 116.708 179.887C120.166 173.424 121.382 166.093 122.113 158.883C122.295 157.092 122.447 155.298 122.597 153.504C122.67 152.626 121.3 152.631 121.227 153.504Z" fill="#323232"/>
<path d="M88.4991 216.294C84.7243 221.033 85.966 224.262 89.5464 228.641C94.8403 235.115 101.173 240.629 107.609 245.931C109.945 247.855 112.219 249.842 115.509 249.149C118.689 248.479 120.12 244.796 120.084 241.872C120.045 238.767 118.904 235.772 118.688 232.674C118.56 230.835 118.668 229.037 119.282 227.292C119.892 225.562 121.062 223.949 121.036 222.047C121 219.354 118.282 217.231 115.59 217.183C113.926 217.153 112.322 217.76 110.953 218.675C110.269 219.132 109.641 219.668 109.065 220.254C108.682 220.643 107.921 221.596 107.327 221.581C107.157 221.577 106.998 221.501 106.848 221.421C105.609 220.769 104.555 219.821 103.527 218.87C100.764 216.315 97.8972 213.898 95.0828 211.459C93.1552 209.789 89.5908 214.923 88.4991 216.294Z" fill="white"/>
<path d="M88.0123 215.807C86.7306 217.435 85.6312 219.277 85.5199 221.397C85.4255 223.196 86.1355 224.919 87.0719 226.419C88.2966 228.38 89.8675 230.144 91.4073 231.861C92.9903 233.625 94.6476 235.323 96.355 236.967C99.7728 240.258 103.389 243.335 107.049 246.352C108.57 247.606 110.103 248.944 111.995 249.601C113.777 250.219 115.947 250.103 117.531 249.019C118.917 248.071 119.811 246.584 120.305 245.004C120.901 243.097 120.817 241.136 120.508 239.185C120.127 236.787 119.424 234.447 119.335 232.008C119.292 230.851 119.355 229.691 119.621 228.562C119.879 227.469 120.357 226.484 120.815 225.466C121.651 223.609 122.126 221.638 121.104 219.748C120.238 218.147 118.543 216.994 116.775 216.633C114.627 216.194 112.394 216.886 110.605 218.082C109.765 218.643 109.004 219.31 108.315 220.048C108.093 220.285 107.773 220.742 107.447 220.84C107.098 220.945 106.55 220.462 106.256 220.262C105.281 219.598 104.431 218.769 103.564 217.974C102.624 217.114 101.672 216.266 100.713 215.426C99.7833 214.611 98.8469 213.803 97.9099 212.996C97.4554 212.604 97.0006 212.213 96.5462 211.821C96.14 211.471 95.7461 211.06 95.2963 210.765C94.1499 210.014 92.8208 210.725 91.8793 211.464C90.7538 212.347 89.8279 213.472 88.9504 214.593C88.6338 214.998 88.2659 215.487 88.0123 215.807C87.4706 216.491 88.4333 217.466 88.9806 216.775C89.6966 215.872 90.3768 214.943 91.1433 214.081C91.8799 213.252 92.8041 212.16 93.9181 211.854C94.0982 211.805 94.2338 211.797 94.3546 211.827C94.5988 211.889 94.7956 212.114 95.0488 212.333C95.9569 213.118 96.8675 213.899 97.776 214.684C99.5515 216.217 101.316 217.762 103.041 219.352C103.844 220.093 104.66 220.828 105.565 221.445C106.319 221.959 107.178 222.54 108.085 222.054C108.818 221.66 109.328 220.927 109.924 220.366C110.675 219.659 111.516 219.056 112.443 218.602C114.152 217.765 116.169 217.56 117.885 218.478C119.337 219.255 120.446 220.681 120.341 222.388C120.281 223.363 119.86 224.287 119.456 225.161C119.026 226.091 118.598 227.019 118.345 228.015C117.793 230.194 117.886 232.481 118.247 234.683C118.852 238.377 120.353 242.387 118.44 245.95C117.707 247.315 116.543 248.327 114.976 248.551C113.104 248.818 111.44 248.01 109.964 246.938C108.274 245.711 106.697 244.302 105.103 242.956C103.386 241.507 101.689 240.036 100.026 238.525C96.7517 235.549 93.6098 232.417 90.7561 229.031C89.4819 227.52 88.1355 225.926 87.3812 224.074C86.7609 222.552 86.7317 220.968 87.3535 219.44C87.7453 218.477 88.3404 217.589 88.9806 216.775C89.5199 216.09 88.5573 215.115 88.0123 215.807Z" fill="#323232"/>
<path d="M88.3919 219.442C88.0944 219.122 87.7065 218.611 87.2661 218.086C85.0913 221.898 86.4345 224.835 89.5447 228.639C94.8387 235.113 101.171 240.627 107.607 245.928C109.943 247.853 112.217 249.84 115.508 249.147C118.688 248.477 120.118 244.794 120.082 241.87C120.055 239.642 119.46 237.471 119.046 235.277C117.837 235.357 116.632 235.809 115.535 236.36C114.495 236.882 113.501 237.494 112.568 238.189C111.845 238.726 111.14 239.322 110.289 239.614C108.955 240.072 107.774 239.368 106.777 238.535C100.063 232.919 94.3317 225.846 88.3919 219.442Z" fill="#323232"/>
<path d="M88.8773 218.96C88.4834 218.524 88.1271 218.055 87.7515 217.604C87.4688 217.264 86.8765 217.384 86.6762 217.742C85.7211 219.449 85.2612 221.331 85.6953 223.268C86.1493 225.294 87.4165 227.055 88.6824 228.654C91.6128 232.352 94.9613 235.727 98.4301 238.919C100.153 240.504 101.916 242.044 103.702 243.558C105.39 244.99 107.073 246.443 108.83 247.789C110.364 248.964 112.096 249.935 114.077 249.973C115.881 250.007 117.589 249.31 118.755 247.919C119.966 246.476 120.579 244.615 120.736 242.755C120.952 240.18 120.186 237.602 119.708 235.097C119.656 234.824 119.327 234.572 119.048 234.595C116.493 234.802 114.101 236.191 112.088 237.701C111.2 238.366 110.176 239.294 108.978 239.021C107.812 238.755 106.855 237.721 105.989 236.96C101.997 233.453 98.3992 229.528 94.8548 225.578C92.8694 223.366 90.8979 221.141 88.8773 218.96C88.277 218.312 87.3105 219.282 87.9091 219.928C91.6228 223.936 95.1695 228.097 98.9456 232.047C100.808 233.995 102.725 235.892 104.74 237.681C105.671 238.507 106.626 239.477 107.76 240.021C108.927 240.58 110.108 240.543 111.249 239.936C112.489 239.278 113.536 238.278 114.752 237.566C116.067 236.797 117.507 236.089 119.048 235.964L118.387 235.461C119.064 239.004 120.275 242.89 118.28 246.238C117.497 247.552 116.279 248.437 114.735 248.58C112.916 248.748 111.33 247.94 109.902 246.893C108.264 245.692 106.729 244.328 105.177 243.019C103.533 241.632 101.906 240.225 100.31 238.782C97.1212 235.899 94.0545 232.873 91.2508 229.612C89.7961 227.919 88.2015 226.13 87.3655 224.029C86.5981 222.101 86.8574 220.223 87.8586 218.433L86.7833 218.572C87.1588 219.023 87.5152 219.492 87.9091 219.928C88.5011 220.583 89.4671 219.613 88.8773 218.96Z" fill="#323232"/>
<path d="M167.363 91.4163C171.444 100.93 176.645 109.962 182.824 118.267C188.334 125.673 195.143 132.829 204.07 135.176C212.406 137.367 221.608 134.849 228.334 129.459C235.272 123.9 239.253 115.993 241.225 107.512C243.499 97.7299 245.871 88.079 247.757 78.1795C248.019 76.8052 248.296 75.3905 249.066 74.2226C249.721 73.2306 250.682 72.4905 251.53 71.6582C254.945 68.3067 257.738 61.6133 254.505 57.2972C252.797 55.0188 249.93 53.9589 247.17 53.2632C245.073 52.7348 242.922 52.3467 240.761 52.4138C239.633 52.4489 238.491 52.6133 237.464 53.0813C236.128 53.69 235.754 54.7092 234.864 55.6882C233.983 54.9446 232.791 54.5944 231.649 54.7638C230.504 54.9336 229.447 55.6224 228.828 56.6008C228.333 57.3847 228.123 58.3131 227.986 59.2299C227.64 61.5348 227.703 63.8712 227.692 66.1942C227.683 68.2141 227.877 70.6787 226.873 72.4806C225.974 74.0934 225.385 75.9427 224.703 77.6565C223.275 81.2428 221.911 84.8541 220.548 88.4654C219.184 92.0777 217.822 95.691 216.398 99.2802C215.686 101.077 214.958 102.868 214.207 104.649C213.816 105.576 213.42 106.501 213.015 107.423C212.87 107.755 211.839 109.483 211.972 109.758C210.04 105.753 208.103 101.739 205.789 97.9413C201.639 91.1309 196.185 84.7941 194.544 76.9897" fill="white"/>
<path d="M166.77 91.7615C169.438 97.9673 172.572 103.969 176.149 109.699C179.511 115.084 183.201 120.379 187.512 125.054C191.454 129.329 196.111 133.102 201.622 135.124C207.227 137.18 213.426 137.068 219.073 135.223C224.744 133.37 229.761 129.857 233.558 125.267C237.27 120.78 239.788 115.432 241.337 109.841C242.257 106.524 242.952 103.134 243.737 99.7836C244.555 96.2976 245.366 92.81 246.142 89.3143C246.927 85.7735 247.676 82.2243 248.358 78.6621C248.653 77.1205 248.907 75.4678 249.919 74.2072C250.817 73.0878 252.013 72.2459 252.933 71.1396C256.149 67.27 258.359 60.9112 254.789 56.56C252.936 54.3012 249.999 53.2645 247.255 52.5788C245.577 52.1596 243.863 51.8341 242.133 51.7445C240.449 51.6573 238.665 51.7643 237.117 52.4898C235.865 53.0764 235.257 54.2133 234.378 55.2037H235.346C233.791 53.9438 231.666 53.6505 229.896 54.6648C228.029 55.735 227.483 57.7238 227.232 59.724C226.944 62.0203 226.994 64.3576 227.007 66.6674C227.018 68.5846 227.123 70.5567 226.192 72.2968C225.152 74.2398 224.474 76.373 223.667 78.4185C222.797 80.6232 221.948 82.8365 221.108 85.0526C219.402 89.549 217.727 94.0573 215.961 98.531C215.002 100.962 214.017 103.384 212.984 105.785C212.648 106.565 212.295 107.313 211.902 108.064C211.633 108.577 211.131 109.329 211.311 109.94L212.562 109.413C210.3 104.724 208.003 100.061 205.176 95.6818C202.689 91.83 199.956 88.1188 197.856 84.031C196.679 81.7378 195.743 79.3323 195.203 76.8074C195.019 75.9462 193.698 76.3107 193.882 77.1715C194.857 81.7244 197.113 85.8475 199.606 89.733C202.237 93.8348 205.054 97.7902 207.367 102.09C208.783 104.721 210.082 107.413 211.38 110.104C211.719 110.808 212.847 110.312 212.631 109.576C212.679 109.739 212.6 109.797 212.674 109.623C212.712 109.534 212.744 109.444 212.784 109.355C212.922 109.051 213.082 108.755 213.24 108.46C213.571 107.843 213.849 107.212 214.127 106.568C214.995 104.552 215.834 102.522 216.65 100.483C218.323 96.3072 219.904 92.0953 221.493 87.8868C223.059 83.7405 224.664 79.6097 226.263 75.4762C226.635 74.5142 227.072 73.6044 227.538 72.6859C227.965 71.8427 228.173 70.9381 228.284 70.0044C228.51 68.0928 228.371 66.1217 228.378 64.2005C228.383 62.9716 228.404 61.7412 228.516 60.5167C228.615 59.4299 228.731 58.2286 229.245 57.2464C230.231 55.3652 232.716 54.826 234.378 56.1719C234.652 56.3938 235.08 56.4714 235.346 56.1719C236.246 55.1577 236.813 54.0096 238.167 53.5316C239.703 52.9893 241.413 53.023 243.013 53.1806C244.647 53.3416 246.269 53.7074 247.848 54.1524C249.172 54.5257 250.475 54.9935 251.661 55.7005C253.962 57.0725 255.29 59.3104 255.248 62.0005C255.208 64.54 254.172 67.0267 252.762 69.1045C252.049 70.1554 251.193 71.0486 250.262 71.9071C249.1 72.9785 248.173 74.0884 247.664 75.6078C247.158 77.1187 246.956 78.7413 246.647 80.3004C246.304 82.0297 245.946 83.7562 245.577 85.4803C244.121 92.2906 242.494 99.0624 240.91 105.844C240.24 108.709 239.499 111.535 238.415 114.277C237.395 116.857 236.111 119.339 234.565 121.644C231.399 126.363 227.051 130.245 221.889 132.651C216.745 135.048 210.801 135.962 205.223 134.749C199.655 133.537 194.81 130.309 190.75 126.408C186.438 122.263 182.852 117.387 179.54 112.428C175.929 107.021 172.717 101.349 169.937 95.472C169.249 94.017 168.588 92.549 167.953 91.0703C167.606 90.263 166.426 90.9598 166.77 91.7615Z" fill="#323232"/>
<path d="M195.784 96.0238C197.227 93.9798 199.147 92.0198 200.505 89.8616C197.883 85.8191 195.528 81.6675 194.544 76.9883L167.363 91.4148C171.444 100.928 176.645 109.96 182.824 118.266C184.309 120.262 185.89 122.239 187.58 124.109C187.634 124.04 187.684 123.967 187.724 123.886C188.11 123.127 187.689 122.233 187.384 121.439C186.106 118.107 186.953 114.357 188.115 110.984C189.947 105.668 192.54 100.616 195.784 96.0238Z" fill="#323232"/>
<path d="M146.39 114.32C159.554 111.934 175.144 107.635 185.723 99.1833C195.719 91.1978 203.032 79.7017 205.295 67.0474C205.861 63.8846 206.096 60.6648 206.014 57.4533C204.979 16.5431 158.726 1.89889 124.37 5.6343C110.049 7.19144 95.7834 11.5058 81.4896 9.71239C72.7194 8.61203 64.4133 5.25422 55.8527 3.05329C47.2922 0.852357 37.9327 -0.126728 29.8336 3.41316C23.4979 6.1823 16.058 14.5507 22.2178 21.1727C19.2091 20.4297 16.1462 19.7477 13.048 19.8239C9.94977 19.9 6.77285 20.8057 4.48032 22.891C1.29148 25.7917 0.325501 30.6652 1.54033 34.8012C2.75516 38.9372 5.88593 42.3308 9.59069 44.5347C7.00494 43.465 3.88541 44.9977 2.42994 47.3877C0.974479 49.7776 0.869061 52.7591 1.24416 55.5321C1.85791 60.0697 3.76903 64.3789 6.55288 67.9995C8.64783 70.7241 12.4118 76.4346 15.8104 77.3232C12.041 76.9336 8.97014 81.0104 9.14922 84.7957C9.32831 88.581 11.797 91.8652 14.509 94.5121C21.5689 101.403 30.7922 105.658 40.1632 108.741C57.0869 114.309 75.2336 115.85 92.9565 115.997C110.945 116.148 128.389 117.581 146.39 114.32Z" fill="white"/>
<path d="M146.572 114.981C157.844 112.929 169.275 109.949 179.321 104.287C189.088 98.782 197.065 90.1001 201.846 79.9652C206.607 69.8747 207.944 58.4257 205.494 47.5271C203.684 39.4785 199.671 32.0906 194.034 26.0821C188.393 20.0707 181.328 15.5073 173.816 12.1895C165.947 8.71404 157.554 6.51153 149.039 5.35419C140.544 4.19933 131.913 4.06358 123.394 5.06143C109.742 6.66061 96.1189 10.6468 82.2699 9.12085C69.0487 7.6641 56.9601 0.943694 43.5679 0.422835C37.8652 0.201045 31.687 1.08626 26.8308 4.27773C23.1119 6.72174 19.3969 10.7302 19.233 15.4229C19.1501 17.796 20.1701 19.9254 21.7343 21.6582L22.4005 20.5138C16.3121 19.0174 8.78006 17.7666 3.77797 22.6137C-0.395067 26.6575 -0.501857 33.327 2.23829 38.1717C3.88454 41.0824 6.40331 43.4074 9.24581 45.1272L9.7734 43.8758C7.08351 42.8625 4.07712 44.1288 2.35994 46.3078C0.327747 48.8866 0.150366 52.4051 0.560207 55.5333C1.00225 58.9077 2.14458 62.1725 3.82466 65.1287C5.25664 67.6483 7.12099 69.98 8.91125 72.2559C10.6623 74.4819 12.7869 77.1649 15.6292 77.9846L15.8112 76.6398C11.7585 76.3356 8.76151 80.2126 8.47721 83.9632C8.12303 88.6358 11.5803 92.7383 14.7722 95.709C22.1423 102.568 31.5792 106.737 41.0716 109.755C51.6428 113.116 62.6539 114.93 73.6904 115.856C84.9796 116.804 96.3295 116.715 107.648 116.973C120.661 117.269 133.717 117.286 146.572 114.981C147.438 114.826 147.072 113.506 146.209 113.661C135.305 115.616 124.22 115.877 113.171 115.711C107.762 115.63 102.355 115.459 96.9463 115.366C91.5471 115.274 86.152 115.242 80.7577 114.963C70.2515 114.42 59.7532 113.186 49.5199 110.695C39.9774 108.372 30.3461 105.091 22.0821 99.6782C17.8552 96.9094 13.2381 93.3594 10.9241 88.7446C9.80751 86.5176 9.40862 83.9285 10.4697 81.6057C11.4376 79.4869 13.39 77.8274 15.8112 78.0091C16.5977 78.0682 16.7168 76.8729 15.9933 76.6643C13.8483 76.0457 12.1805 74.0694 10.7981 72.4209C9.2566 70.5829 7.79499 68.6281 6.41722 66.6639C4.6677 64.1697 3.32679 61.3947 2.53213 58.4507C1.7657 55.6112 1.33394 52.4058 2.21555 49.5416C3.13247 46.5627 6.18737 43.9825 9.40945 45.1963C10.1532 45.4765 10.5814 44.3348 9.93704 43.9449C4.24666 40.502 -0.0740866 33.8955 2.45083 27.1322C3.71135 23.7558 6.63644 21.6358 10.0879 20.864C14.0692 19.9738 18.1566 20.8807 22.0366 21.8343C22.716 22.0013 23.1588 21.1952 22.7028 20.69C21.0111 18.8161 20.2134 16.4593 20.8055 13.9633C21.3587 11.6318 22.8156 9.59124 24.4914 7.92353C28.4281 4.00601 33.8297 2.25302 39.2804 1.85622C52.2443 0.912486 64.1731 6.97578 76.5835 9.57373C89.6533 12.3097 102.63 9.65499 115.576 7.55321C124.822 6.05227 134.02 5.34099 143.371 6.10439C151.671 6.78192 159.92 8.44934 167.77 11.2462C175.394 13.9628 182.723 17.8113 188.899 23.0828C194.892 28.1977 199.705 34.6567 202.453 42.071C205.984 51.6024 206.276 62.3222 203.409 72.0574C200.278 82.6922 193.558 92.247 184.816 99.0334C175.954 105.913 164.818 109.553 154.02 112.056C151.43 112.657 148.824 113.185 146.209 113.661C145.343 113.818 145.709 115.138 146.572 114.981Z" fill="#323232"/>
<path d="M189.497 24.045C189.797 23.8674 190.08 23.6657 190.355 23.4539C173.621 8.46275 146.524 3.22553 124.37 5.63426C110.049 7.1914 95.7831 11.5057 81.4893 9.71236C72.7192 8.61199 64.413 5.25418 55.8525 3.05329C47.2919 0.852357 37.9325 -0.126728 29.8334 3.41316C23.4977 6.1823 16.0579 14.5507 22.2176 21.1727C19.2088 20.4298 16.1459 19.7477 13.0477 19.8239C9.94954 19.9 6.77262 20.8057 4.48008 22.891C4.09601 23.2404 3.74589 23.6197 3.42628 24.0215C3.05976 25.3863 2.73073 26.7588 2.44291 28.1302C2.02427 30.125 1.67315 32.1309 1.37064 34.1443C1.42231 34.3647 1.47651 34.5844 1.54018 34.8012C2.75501 38.9372 5.88578 42.3308 9.59054 44.5347C7.00474 43.465 3.88526 44.9977 2.42979 47.3876C0.974367 49.7776 0.868907 52.759 1.24401 55.532C1.85776 60.0697 3.76888 64.3789 6.55273 67.9995C8.64767 70.724 12.4116 76.4345 15.8103 77.3231C12.0409 76.9335 8.97003 81.0104 9.14907 84.7957C9.32816 88.5809 11.7969 91.8652 14.5088 94.512C21.5687 101.403 30.792 105.658 40.1631 108.741C44.8699 110.29 49.6736 111.517 54.5342 112.5C59.1861 108.801 63.7041 104.942 67.6992 100.554C75.3111 92.1917 80.8351 82.1414 88.0961 73.4731C98.2672 61.3308 111.845 52.0733 126.864 47.0412L125.441 47.939C131.473 45.1171 140.381 42.4161 146.995 41.6275C144.531 40.2186 144.194 36.4005 146.013 34.2232C147.833 32.0459 151.15 31.5266 153.814 32.5045C156.478 33.4824 158.528 35.705 159.922 38.177C164.354 36.2533 167.222 31.2344 166.629 26.4394C169.023 28.6799 172.2 30.6376 175.405 29.9436C178.61 29.2495 180.632 24.5542 178.038 22.5475C180.947 25.5075 185.924 26.158 189.497 24.045Z" fill="#323232"/>
<path d="M189.844 24.6373C190.141 24.4507 190.421 24.2564 190.702 24.0462C191.031 23.7999 191.202 23.2929 190.84 22.9709C182.324 15.38 171.682 10.5105 160.712 7.64809C149.495 4.72145 137.683 3.74356 126.138 4.7759C111.789 6.05887 97.631 10.5721 83.1123 9.20619C69.0673 7.88487 56.2658 0.404589 42.0084 0.390644C36.065 0.384834 29.9097 1.71363 25.182 5.47975C21.4904 8.42054 17.916 13.4284 19.6842 18.3651C20.1288 19.6064 20.8545 20.6847 21.7349 21.6579L22.401 20.5135C16.6238 19.0931 9.79163 17.8884 4.68694 21.8353C4.12196 22.2721 3.60052 22.754 3.13905 23.3001C2.64143 23.889 2.55323 24.6417 2.37137 25.3788C1.95978 27.0468 1.60921 28.7289 1.29997 30.4188C1.02219 31.9368 0.46767 33.6155 0.923248 35.1215C1.3118 36.4058 1.88869 37.6425 2.60013 38.779C4.2478 41.411 6.6016 43.5292 9.24637 45.1269L9.77395 43.8755C7.10797 42.8622 4.12117 44.1149 2.39847 46.2564C0.3276 48.8307 0.148725 52.391 0.560724 55.5331C1.0051 58.9219 2.15514 62.197 3.84539 65.164C5.27508 67.6737 7.13503 69.9985 8.91966 72.266C10.6656 74.4844 12.7926 77.1717 15.6297 77.9844L15.8117 76.6395C11.3627 76.2944 8.15936 81.004 8.48533 85.1026C8.91181 90.4649 13.2839 94.657 17.2314 97.8357C26.0497 104.937 37.1222 108.978 47.9882 111.719C49.5116 112.103 51.042 112.46 52.578 112.79C53.1488 112.913 53.9543 113.244 54.5357 113.185C55.1313 113.125 55.6629 112.473 56.1117 112.111C58.4683 110.214 60.7853 108.266 63.0109 106.216C67.3353 102.234 71.135 97.8085 74.6224 93.0826C78.1154 88.3493 81.3373 83.4222 84.8503 78.7033C88.1757 74.2365 91.8274 70.0411 95.9084 66.2473C103.839 58.8753 113.181 52.989 123.276 49.0664C124.522 48.5821 125.78 48.1296 127.048 47.7025L126.52 46.4511L125.097 47.3489C124.34 47.8261 124.998 48.8983 125.788 48.5312C132.403 45.4581 139.746 43.2016 146.996 42.3133C147.638 42.2346 147.968 41.421 147.342 41.0375C145.871 40.1371 145.32 38.3237 145.623 36.6769C145.972 34.7858 147.459 33.4722 149.265 32.9654C153.608 31.7463 157.312 35.0099 159.332 38.5237C159.53 38.8687 159.933 38.9204 160.269 38.7693C164.925 36.6747 167.874 31.516 167.315 26.4406L166.146 26.9247C168.903 29.4676 173.624 32.3954 177.299 29.8459C179.689 28.1877 181.109 24.2041 178.523 22.0645C177.856 21.5126 176.915 22.4026 177.555 23.0328C180.775 26.2044 185.918 26.8748 189.844 24.6373C190.609 24.201 189.92 23.0174 189.153 23.4549C185.759 25.3889 181.306 24.8052 178.523 22.0645L177.555 23.0328C179.556 24.6887 178.167 27.7992 176.247 28.8925C173.15 30.6563 169.322 27.9922 167.114 25.9564C166.722 25.5944 165.876 25.811 165.946 26.4406C166.458 31.0916 163.846 35.667 159.578 37.5869L160.515 37.8325C158.035 33.5203 153.138 29.7864 147.989 31.9689C145.898 32.8554 144.44 34.6731 144.21 36.9512C144.001 39.0211 144.848 41.1159 146.65 42.2198L146.996 40.9439C139.487 41.864 131.951 44.1648 125.097 47.3489L125.788 48.5312L127.211 47.6334C127.842 47.2357 127.448 46.1243 126.684 46.382C115.059 50.3005 104.31 56.6598 95.2799 64.9647C90.6012 69.2677 86.5138 74.1005 82.7711 79.2293C78.779 84.6996 75.1136 90.4112 70.901 95.7193C66.0021 101.892 60.2014 107.121 54.0516 112.016L54.7178 111.84C45.7822 110.023 36.8664 107.439 28.6609 103.406C24.8265 101.521 21.1352 99.2859 17.8311 96.5678C14.6765 93.9726 11.2417 90.7902 10.1445 86.7084C9.59338 84.658 9.80163 82.586 10.9236 80.7645C11.9846 79.042 13.7424 77.8483 15.8118 78.0088C16.5977 78.0698 16.7179 76.8714 15.9939 76.664C13.8214 76.0417 12.1315 74.0181 10.7386 72.3492C9.17938 70.4811 7.68416 68.4986 6.30099 66.4959C4.58227 64.0073 3.27157 61.2466 2.49841 58.32C1.73563 55.4327 1.30271 52.1255 2.31169 49.2428C3.30813 46.396 6.3239 44.0228 9.41005 45.196C10.1528 45.4783 10.5821 44.3339 9.93764 43.9446C7.82008 42.6653 5.89235 41.0387 4.42444 39.0348C3.70195 38.0486 3.07945 36.9733 2.62313 35.8379C2.41221 35.3132 2.13717 34.7003 2.09944 34.1326C2.05088 33.4025 2.30774 32.5658 2.43209 31.8443C2.68521 30.3755 2.96669 28.9111 3.29008 27.4561C3.45563 26.7113 3.6324 25.9691 3.82024 25.2296C4.01738 24.4535 4.2688 24.0327 4.85258 23.4828C6.76707 21.6792 9.41483 20.7915 11.9983 20.5683C15.3963 20.2746 18.7585 21.0279 22.0372 21.834C22.7161 22.0009 23.1601 21.1946 22.7033 20.6896C20.9186 18.7166 20.1728 16.2401 20.8871 13.6439C21.5722 11.1537 23.259 9.01656 25.1428 7.30524C29.5766 3.27736 35.649 1.83145 41.5122 1.76293C55.2011 1.60289 67.5817 8.5292 80.9584 10.3284C95.0203 12.2198 108.886 8.20477 122.747 6.50814C133.928 5.1395 145.351 5.64542 156.364 8.02046C167.221 10.3617 177.913 14.5474 186.768 21.3592C187.835 22.1799 188.868 23.0436 189.872 23.9392L190.011 22.8638C189.73 23.074 189.45 23.2683 189.153 23.4549C188.408 23.9223 189.095 25.1076 189.844 24.6373Z" fill="#323232"/>
<path d="M151.333 83.1994C159.001 83.8417 167.463 84.9671 174.721 87.5789C176.742 88.3063 178.962 89.2083 179.868 91.1568C180.58 92.6908 180.279 94.483 179.944 96.1408C177.495 108.236 174.692 120.094 172.201 132.181C169.621 144.703 166.484 157.001 161.896 168.949C161.347 170.379 160.745 171.85 159.626 172.896C158.394 174.047 156.696 174.534 155.052 174.91C144.728 177.273 133.985 176.731 123.417 176.032C107.39 174.97 91.3735 173.571 75.467 171.31C67.3982 170.162 59.3366 168.835 51.3642 167.136C46.9774 166.2 38.0894 164.956 36.204 160.335C35.2091 157.896 36.01 155.136 36.7924 152.621C43.3341 131.592 48.1708 110.033 51.2395 88.2245C51.613 85.5699 51.9719 82.8699 53.0581 80.4191C56.509 72.633 64.6564 74.908 71.584 75.3238C80.5698 75.8632 89.5449 76.5807 98.5023 77.4756C111.513 78.7754 124.629 81.5953 137.634 82.3522C142.211 82.6186 146.788 82.8186 151.333 83.1994Z" fill="#3E50F7"/>
<path d="M57.0042 84.6445C59.5346 87.2143 60.7959 89.6371 62.6742 92.5727C65.1214 96.3975 68.665 99.7951 71.6234 103.235C77.8294 110.452 84.1283 117.592 90.6729 124.505C93.6823 127.683 96.9228 130.927 101.097 132.243C106.801 134.041 112.935 131.874 118.428 129.507C138.621 120.806 158.57 109.014 175.197 94.679" fill="#6E7CFF"/>
<path d="M125.442 47.9414C105.893 55.7418 88.5187 69.5928 78.0161 87.833C67.5134 106.073 64.3162 128.74 70.9607 148.712C71.7836 151.185 72.7555 153.637 73.0818 156.223C73.4081 158.81 73.0057 161.617 71.3418 163.624C70.4182 164.738 69.1268 165.087 68.2892 166.198C67.7472 166.918 67.1881 167.676 67.0487 168.566C66.9093 169.456 67.3479 170.506 68.2192 170.733C69.3397 171.026 70.4019 169.88 71.5546 169.991C71.0822 170.931 70.6934 171.965 70.8118 173.01C70.9301 174.054 71.6945 175.088 72.7397 175.201C73.9392 175.33 74.9137 174.3 75.6745 173.364C75.1115 174.52 74.5991 176.05 75.5053 176.963C76.0902 177.552 77.0752 177.578 77.8269 177.225C78.5785 176.873 79.1406 176.218 79.6349 175.551C79.6113 176.614 79.1249 177.898 80.3606 178.557C81.2139 179.012 82.3096 178.762 83.08 178.178C83.8504 177.593 84.3565 176.732 84.7981 175.872C85.359 174.779 85.849 173.65 86.2638 172.494C86.4345 173.613 87.1223 174.641 88.0905 175.226C88.7702 175.637 89.6672 175.819 90.3495 175.413C91.2231 174.893 91.3642 173.708 91.4095 172.693C91.5724 169.046 91.3572 165.198 91.8175 161.614C92.3401 157.545 92.7588 153.466 93.0284 149.372C93.4969 142.259 93.5829 135.105 93.2152 127.985C92.983 123.49 92.5044 116.269 95.0772 112.428C95.7572 111.412 96.6727 110.581 97.5881 109.771C112.053 96.9806 124.509 89.6802 141.136 79.861" fill="white"/>
<path d="M125.259 47.2821C116.021 50.9788 107.325 55.9511 99.5238 62.1333C91.7834 68.2672 84.9728 75.6016 79.6108 83.9051C73.877 92.7843 69.9024 102.792 68.0372 113.199C66.1704 123.614 66.3848 134.423 69.0527 144.683C69.7518 147.371 70.7248 149.959 71.5461 152.608C72.3506 155.203 72.8994 157.984 72.1225 160.656C71.7646 161.888 71.1189 163.081 70.0868 163.871C69.1116 164.618 68.1837 165.175 67.4472 166.189C66.7606 167.134 66.1799 168.227 66.3889 169.431C66.5667 170.455 67.3235 171.352 68.3947 171.454C69.5423 171.562 70.4388 170.631 71.5536 170.677L70.9624 169.647C70.0763 171.446 69.5168 173.864 71.3381 175.316C73.116 176.733 74.9928 175.267 76.1575 173.849L75.0822 173.019C74.3693 174.514 73.6979 176.786 75.5077 177.816C77.3763 178.88 79.1622 177.31 80.225 175.898L78.9491 175.552C78.9086 176.539 78.624 177.584 79.2345 178.465C79.9254 179.461 81.3163 179.667 82.4031 179.298C83.5958 178.892 84.4277 177.92 85.0414 176.859C85.8047 175.539 86.4024 174.108 86.9229 172.677H85.6025C85.9209 174.442 87.3559 176.137 89.2179 176.311C91.2751 176.504 91.9829 174.567 92.0839 172.875C92.2202 170.592 92.1508 168.298 92.2055 166.013C92.2614 163.678 92.5423 161.387 92.8138 159.071C93.9368 149.487 94.3704 139.819 93.9975 130.175C93.8586 126.582 93.5359 122.982 93.8179 119.388C93.9501 117.703 94.2161 115.998 94.8239 114.412C95.5278 112.577 96.895 111.292 98.341 110.018C104.536 104.561 111.087 99.5364 117.939 94.9333C124.671 90.4114 131.645 86.2657 138.624 82.1405C139.576 81.5778 140.528 81.0156 141.48 80.4532C142.238 80.0054 141.55 78.8213 140.789 79.2708C133.848 83.3702 126.888 87.4484 120.129 91.8464C113.557 96.1233 107.213 100.74 101.195 105.769C99.5526 107.142 97.9021 108.52 96.336 109.98C95.0389 111.189 94.0535 112.538 93.4445 114.207C92.2804 117.396 92.2672 120.987 92.3645 124.337C92.4824 128.391 92.7467 132.432 92.7573 136.49C92.7697 141.214 92.5995 145.94 92.2536 150.652C92.0847 152.952 91.8702 155.249 91.618 157.542C91.3666 159.829 91.0086 162.108 90.8937 164.407C90.7803 166.678 90.8213 168.953 90.7712 171.225C90.7509 172.147 90.8116 173.167 90.5277 174.057C90.1937 175.104 89.1772 175.117 88.351 174.582C87.5529 174.066 87.0888 173.233 86.9229 172.314C86.7922 171.589 85.8105 171.742 85.6025 172.314C85.2025 173.413 84.7422 174.487 84.2058 175.527C83.7972 176.32 83.3342 177.188 82.5751 177.7C81.9857 178.098 80.7971 178.412 80.3314 177.647C79.9921 177.09 80.2935 176.161 80.3185 175.553C80.3491 174.806 79.4147 174.713 79.0426 175.207C78.4483 175.997 77.3177 177.252 76.1989 176.634C75.1796 176.07 75.9054 174.464 76.2645 173.71C76.5738 173.062 75.7178 172.237 75.1892 172.881C74.5246 173.69 73.3062 175.16 72.172 174.234C70.9629 173.248 71.5766 171.492 72.1447 170.338C72.3769 169.867 72.0944 169.33 71.5535 169.308C70.9849 169.285 70.4717 169.444 69.9525 169.659C69.5044 169.845 68.9029 170.213 68.4002 170.074C67.1451 169.728 67.8946 167.969 68.329 167.31C68.6552 166.815 69.0096 166.344 69.4727 165.969C69.9372 165.593 70.4632 165.296 70.9375 164.932C71.8802 164.208 72.5625 163.23 73.0329 162.145C75.2387 157.055 72.5652 151.733 71.087 146.855C68.088 136.956 67.4593 126.393 68.9357 116.171C70.4149 105.93 73.9317 96.0069 79.2277 87.1186C84.159 78.8425 90.549 71.4873 97.8781 65.2486C105.207 59.0099 113.489 53.8953 122.288 50.0044C123.391 49.5167 124.503 49.0507 125.623 48.6026C126.431 48.2792 126.078 46.9542 125.259 47.2821Z" fill="#323232"/>
<path d="M129.059 125.691C136.279 135.611 142.865 145.988 148.758 156.749C150.401 159.75 151.99 162.782 153.526 165.84C153.922 166.627 155.104 165.935 154.709 165.149C149.202 154.186 142.998 143.575 136.135 133.405C134.221 130.569 132.255 127.767 130.242 125C129.728 124.294 128.54 124.977 129.059 125.691Z" fill="#323232"/>
<path d="M44.0569 155.914C50.0078 149.869 56.3805 144.206 62.9585 138.853C64.6796 137.452 66.4216 136.077 68.1961 134.745C68.8924 134.222 68.2107 133.033 67.505 133.563C60.6742 138.691 54.1881 144.314 47.9767 150.173C46.3201 151.736 44.6864 153.323 43.0887 154.946C42.4699 155.575 43.4375 156.544 44.0569 155.914Z" fill="#323232"/>
<path d="M102.615 113.314C105.803 111.981 109.946 113.953 111.264 117.044C112.047 118.882 112.165 121.155 110.978 122.762C110.614 123.256 110.143 123.665 109.631 124.003C108.052 125.043 106.037 125.397 104.199 124.957C98.9685 123.705 97.0617 115.636 102.615 113.314Z" fill="#323232"/>
<path d="M102.798 113.974C105.112 113.042 107.793 113.877 109.493 115.625C111.264 117.446 111.988 120.913 109.998 122.842C108.074 124.709 104.799 125.002 102.589 123.497C101.104 122.486 100.114 120.693 99.967 118.91C99.7819 116.67 100.893 114.794 102.962 113.905C103.304 113.758 103.374 113.261 103.207 112.968C103.006 112.615 102.608 112.578 102.27 112.723C100.011 113.693 98.6101 115.831 98.5759 118.284C98.544 120.566 99.6224 122.892 101.41 124.316C103.9 126.299 107.604 126.298 110.184 124.452C111.629 123.418 112.453 121.925 112.54 120.147C112.616 118.595 112.154 116.916 111.266 115.638C109.386 112.935 105.59 111.382 102.434 112.654C102.088 112.793 101.854 113.109 101.956 113.496C102.042 113.823 102.456 114.112 102.798 113.974Z" fill="#323232"/>
<path d="M212.897 245.353C213.924 243.147 213.53 240.788 212.016 240.083C210.503 239.378 208.443 240.594 207.416 242.799C206.388 245.005 206.782 247.365 208.296 248.07C209.81 248.775 211.87 247.558 212.897 245.353Z" fill="#323232"/>
<path d="M212.305 245.008C211.768 246.132 210.801 247.38 209.484 247.571C208.346 247.736 207.649 246.738 207.546 245.667C207.4 244.162 208.059 242.568 209.132 241.521C209.861 240.808 211.082 240.169 211.994 240.862C213.202 241.781 212.836 243.837 212.305 245.008C212.153 245.345 212.209 245.745 212.551 245.945C212.844 246.117 213.334 246.038 213.487 245.699C214.263 243.988 214.566 241.698 213.235 240.163C212.099 238.852 210.196 239.025 208.884 239.957C207.244 241.122 206.204 243.141 206.16 245.149C206.122 246.869 207.01 248.701 208.875 248.93C210.927 249.182 212.677 247.397 213.487 245.699C213.647 245.366 213.58 244.96 213.242 244.763C212.943 244.588 212.465 244.673 212.305 245.008Z" fill="#323232"/>
<path d="M195.618 245.353C196.645 243.147 196.251 240.788 194.738 240.083C193.224 239.378 191.164 240.594 190.137 242.799C189.109 245.005 189.504 247.365 191.017 248.07C192.531 248.775 194.591 247.558 195.618 245.353Z" fill="#323232"/>
<path d="M195.029 245.008C194.493 246.132 193.526 247.38 192.209 247.571C191.07 247.736 190.374 246.738 190.27 245.667C190.124 244.162 190.784 242.568 191.856 241.521C192.585 240.808 193.806 240.169 194.718 240.862C195.927 241.781 195.56 243.837 195.029 245.008C194.877 245.345 194.933 245.745 195.275 245.945C195.569 246.117 196.058 246.038 196.212 245.699C196.987 243.988 197.29 241.698 195.959 240.163C194.823 238.852 192.921 239.025 191.608 239.957C189.969 241.122 188.928 243.141 188.884 245.149C188.846 246.869 189.735 248.701 191.599 248.93C193.651 249.182 195.401 247.397 196.212 245.699C196.371 245.366 196.304 244.96 195.966 244.763C195.667 244.588 195.19 244.673 195.029 245.008Z" fill="#323232"/>
<path d="M96.6725 245.353C97.6998 243.147 97.3056 240.788 95.7919 240.083C94.2783 239.378 92.2185 240.594 91.1912 242.799C90.1639 245.005 90.5581 247.365 92.0717 248.07C93.5853 248.775 95.6451 247.558 96.6725 245.353Z" fill="#323232"/>
<path d="M96.0807 245.008C95.544 246.132 94.577 247.38 93.2599 247.571C92.1212 247.736 91.4249 246.738 91.3212 245.667C91.1755 244.162 91.8348 242.568 92.9072 241.521C93.6365 240.808 94.8577 240.169 95.7693 240.862C96.978 241.781 96.6113 243.837 96.0807 245.008C95.9282 245.345 95.9841 245.745 96.3263 245.945C96.6199 246.117 97.1097 246.038 97.2631 245.699C98.0387 243.988 98.3413 241.698 97.0107 240.163C95.8744 238.852 93.972 239.025 92.6595 239.957C91.0201 241.122 89.9797 243.141 89.9353 245.149C89.8972 246.869 90.7861 248.701 92.6506 248.93C94.7025 249.182 96.4522 247.397 97.2631 245.699C97.4224 245.366 97.3552 244.96 97.0175 244.763C96.7186 244.588 96.2408 244.673 96.0807 245.008Z" fill="#323232"/>
<path d="M184.454 215.914C188.286 219.313 192.933 221.722 197.931 222.858C198.789 223.053 199.155 221.733 198.295 221.538C193.528 220.454 189.081 218.191 185.422 214.946C184.765 214.363 183.793 215.328 184.454 215.914Z" fill="#323232"/>
<path d="M190.511 210.652C190.678 210.551 190.85 210.463 191.03 210.386L190.866 210.455C191.179 210.326 191.505 210.237 191.84 210.189L191.658 210.214C191.903 210.181 192.149 210.171 192.396 210.184C192.754 210.202 193.097 209.855 193.081 209.499C193.064 209.112 192.78 208.834 192.396 208.814C191.501 208.768 190.585 209.005 189.82 209.47C189.514 209.656 189.371 210.092 189.574 210.407C189.772 210.714 190.183 210.851 190.511 210.652Z" fill="#323232"/>
<path d="M192.563 213.613C192.594 213.569 192.625 213.525 192.658 213.483L192.551 213.621C192.697 213.435 192.864 213.269 193.05 213.123L192.912 213.23C193.108 213.08 193.321 212.955 193.548 212.857L193.384 212.926C193.612 212.83 193.849 212.763 194.094 212.728L193.912 212.752C193.965 212.745 194.018 212.739 194.072 212.735C194.256 212.719 194.421 212.669 194.556 212.534C194.675 212.415 194.764 212.22 194.757 212.05C194.741 211.705 194.454 211.333 194.072 211.365C193.53 211.411 193.013 211.559 192.54 211.833C192.073 212.104 191.687 212.479 191.381 212.922C191.284 213.061 191.268 213.291 191.312 213.449C191.356 213.608 191.478 213.78 191.626 213.858C191.975 214.043 192.345 213.928 192.563 213.613Z" fill="#323232"/>
<path d="M102.132 199.026C103.18 200.353 104.535 201.417 105.817 202.507C107.162 203.652 108.522 204.78 109.896 205.891C112.638 208.109 115.435 210.259 118.283 212.338C119.922 213.534 121.578 214.706 123.249 215.855C123.977 216.356 124.663 215.169 123.94 214.673C118.191 210.72 112.637 206.488 107.309 201.983C105.856 200.755 104.285 199.559 103.101 198.057C102.555 197.366 101.592 198.341 102.132 199.026Z" fill="#323232"/>
<path d="M160.952 201.925C168.233 201.74 175.531 201.314 182.651 199.681C184.724 199.206 186.773 198.634 188.796 197.978C189.631 197.708 189.274 196.385 188.432 196.658C181.557 198.885 174.457 199.931 167.256 200.32C165.156 200.433 163.054 200.502 160.952 200.556C160.073 200.578 160.069 201.947 160.952 201.925Z" fill="#323232"/>
<path d="M115.739 205.719C121.03 199.975 125.53 193.503 129.043 186.527C130.043 184.541 130.958 182.516 131.802 180.459C131.943 180.114 131.648 179.71 131.323 179.617C130.932 179.505 130.621 179.755 130.481 180.095C127.587 187.151 123.7 193.824 118.981 199.815C117.642 201.515 116.236 203.16 114.77 204.751C114.174 205.398 115.14 206.369 115.739 205.719Z" fill="#323232"/>
<path d="M167.531 147.176C171.295 159.846 173.808 172.884 174.988 186.05C175.32 189.753 175.547 193.465 175.672 197.18C175.702 198.059 177.071 198.063 177.042 197.18C176.817 190.545 176.265 183.922 175.383 177.342C174.499 170.734 173.292 164.17 171.754 157.682C170.889 154.032 169.92 150.408 168.851 146.812C168.601 145.969 167.279 146.328 167.531 147.176Z" fill="#323232"/>
<path d="M109.262 223.621C109.783 229.59 111.828 235.369 115.227 240.308C115.723 241.029 116.911 240.345 116.409 239.617C113.151 234.883 111.132 229.35 110.631 223.621C110.555 222.75 109.185 222.742 109.262 223.621Z" fill="#323232"/>
<path d="M115.452 226.696C115.523 226.679 115.606 226.676 115.674 226.652C115.643 226.663 115.532 226.667 115.627 226.659C115.664 226.656 115.702 226.652 115.739 226.65C115.874 226.641 116.01 226.642 116.145 226.653C116.156 226.653 116.252 226.671 116.258 226.663C116.248 226.677 116.085 226.636 116.232 226.661C116.299 226.672 116.366 226.686 116.432 226.701C116.572 226.735 116.705 226.784 116.842 226.829C116.929 226.858 116.722 226.774 116.804 226.812C116.838 226.828 116.873 226.843 116.907 226.86C116.968 226.889 117.028 226.921 117.087 226.954C117.146 226.988 117.204 227.023 117.261 227.06C117.293 227.081 117.324 227.102 117.354 227.124C117.437 227.183 117.385 227.162 117.342 227.112C117.428 227.212 117.55 227.289 117.642 227.386C117.689 227.436 117.736 227.516 117.79 227.556C117.763 227.536 117.713 227.451 117.766 227.525C117.792 227.563 117.818 227.599 117.843 227.637C118.041 227.935 118.456 228.091 118.779 227.883C119.076 227.691 119.237 227.265 119.025 226.946C118.175 225.667 116.588 225.027 115.088 225.375C114.739 225.457 114.5 225.876 114.61 226.218C114.728 226.582 115.078 226.783 115.452 226.696Z" fill="#323232"/>
<path d="M116.442 231.629C116.531 231.605 116.62 231.588 116.71 231.575L116.528 231.599C116.72 231.575 116.912 231.576 117.104 231.602L116.922 231.577C117.113 231.605 117.299 231.656 117.478 231.73L117.314 231.661C117.482 231.733 117.64 231.824 117.785 231.935L117.647 231.828C117.678 231.854 117.71 231.879 117.74 231.906C117.879 232.026 118.036 232.106 118.225 232.106C118.392 232.106 118.593 232.032 118.709 231.906C118.945 231.649 118.998 231.188 118.709 230.938C117.987 230.313 117.008 230.062 116.078 230.309C115.732 230.401 115.487 230.801 115.6 231.151C115.715 231.506 116.071 231.728 116.442 231.629Z" fill="#323232"/>
<path d="M192.309 128.318C193.148 125.01 195.608 122.486 197.853 120.048C200.192 117.509 202.572 114.982 205.283 112.833C206.798 111.631 208.43 110.577 210.164 109.721C210.954 109.331 210.261 108.149 209.473 108.539C206.251 110.129 203.441 112.418 200.88 114.914C199.608 116.154 198.39 117.449 197.185 118.754C195.984 120.055 194.769 121.348 193.687 122.751C192.482 124.314 191.477 126.029 190.989 127.954C190.772 128.809 192.092 129.173 192.309 128.318Z" fill="#323232"/>
<path d="M84.5383 81.5832C91.7584 84.5311 98.0899 89.6524 102.543 96.049C103.82 97.8834 104.942 99.821 105.903 101.839C106.282 102.634 107.463 101.94 107.085 101.148C103.601 93.8315 97.936 87.5997 91.0373 83.3579C89.0814 82.1552 87.0275 81.1304 84.9024 80.2627C84.5573 80.1218 84.1535 80.4158 84.0601 80.7409C83.948 81.1316 84.1978 81.4442 84.5383 81.5832Z" fill="#323232"/>
<path d="M236.979 56.9859C236.417 58.3485 235.855 59.7111 235.292 61.0736C234.821 62.2157 234.058 63.5392 234.577 64.7905C235.766 67.6563 239.337 64.557 240.485 63.2286L239.34 62.5625C239.12 63.897 238.862 66.6463 240.608 67.1242C242.273 67.5801 243.663 65.6267 244.278 64.3677L243.027 63.8402C242.532 65.0792 242.279 66.8769 243.801 67.5099C245.388 68.1699 246.666 66.825 247.436 65.6123L246.16 65.2667C246.025 66.3406 246.873 67.3358 247.884 67.5958C249.042 67.8936 250.195 67.3499 251.074 66.6287C252.765 65.2427 253.512 63.0532 254.168 61.0456C254.443 60.2061 253.121 59.8463 252.848 60.6816C252.37 62.1441 251.872 63.7 250.871 64.9018C250.377 65.4956 249.719 66.0851 248.946 66.2609C248.255 66.4181 247.426 66.0873 247.53 65.2668C247.621 64.5461 246.583 64.4027 246.254 64.9212C245.894 65.4876 245.172 66.6194 244.331 66.2516C243.61 65.936 244.151 64.6942 244.347 64.2042C244.634 63.4873 243.435 62.9823 243.096 63.6766C242.856 64.1673 242.574 64.6338 242.212 65.0447C241.953 65.338 241.503 65.85 241.062 65.8128C240.663 65.7793 240.642 65.0957 240.609 64.7965C240.542 64.1757 240.559 63.5422 240.661 62.9265C240.76 62.3224 240.011 61.6883 239.516 62.2603C238.897 62.9769 238.194 63.601 237.385 64.096C237.076 64.2851 236.445 64.7655 236.065 64.5636C235.716 64.3781 235.747 63.8305 235.815 63.5199C236.038 62.4917 236.596 61.4775 236.996 60.5086C237.431 59.4557 237.865 58.4028 238.3 57.3499C238.442 57.0054 238.146 56.6008 237.821 56.5077C237.43 56.3952 237.12 56.6459 236.979 56.9859Z" fill="#323232"/>
<path d="M234.098 56.1664C234.172 56.2147 234.244 56.268 234.318 56.3169C234.383 56.36 234.245 56.2548 234.343 56.3362C234.373 56.3614 234.404 56.3863 234.434 56.412C234.576 56.5341 234.709 56.6656 234.834 56.805C234.894 56.8711 234.951 56.9391 235.006 57.0084C234.945 56.9328 234.992 56.9901 235.024 57.035C235.047 57.067 235.07 57.0993 235.092 57.1319C235.197 57.2868 235.294 57.4483 235.379 57.615C235.42 57.6942 235.456 57.7752 235.494 57.8555C235.46 57.7578 235.539 57.9491 235.494 57.8555C235.511 57.902 235.53 57.9477 235.546 57.9942C235.606 58.1612 235.657 58.3318 235.697 58.5048C235.719 58.6009 235.737 58.6977 235.753 58.7949C235.765 58.8669 235.759 58.8515 235.753 58.7885C235.758 58.8375 235.764 58.8864 235.768 58.9355C235.783 59.1226 235.785 59.3097 235.776 59.4971C235.76 59.8554 236.103 60.1978 236.461 60.1818C236.846 60.1646 237.128 59.881 237.146 59.4971C237.229 57.7023 236.289 55.9545 234.789 54.984C234.488 54.7891 234.02 54.9128 233.852 55.2296C233.672 55.5702 233.776 55.9584 234.098 56.1664Z" fill="#323232"/>
<path d="M231.255 61.2869C232.517 62.1742 234.151 62.9894 235.705 62.3462C236.035 62.2098 236.307 61.886 236.183 61.504C236.081 61.1868 235.695 60.8791 235.341 61.0258C234.974 61.1778 234.794 61.2046 234.462 61.1988C234.37 61.1972 234.279 61.1909 234.188 61.1819C234.307 61.1937 234.121 61.1709 234.098 61.1666C233.93 61.1351 233.764 61.091 233.601 61.0365C233.526 61.0112 233.451 60.9836 233.377 60.9545C233.483 60.9962 233.251 60.8973 233.229 60.8869C233.085 60.8182 232.945 60.7433 232.807 60.6639C232.51 60.4931 232.226 60.3013 231.946 60.1045C231.652 59.898 231.172 60.0419 231.009 60.3502C230.824 60.7012 230.941 61.0664 231.255 61.2869Z" fill="#323232"/>
<path d="M243.679 67.3384C243.718 67.3634 243.756 67.3886 243.793 67.4148C243.806 67.4234 243.904 67.4917 243.835 67.4424C243.758 67.3876 243.88 67.4792 243.894 67.4912C243.922 67.5147 243.95 67.5387 243.977 67.563C244.107 67.6787 244.227 67.8042 244.338 67.9375C244.359 67.9621 244.436 68.0683 244.351 67.9494C244.372 67.9791 244.394 68.0082 244.415 68.0381C244.463 68.1054 244.508 68.1744 244.551 68.2447C244.642 68.3937 244.719 68.5489 244.792 68.7072C244.768 68.6554 244.76 68.6252 244.786 68.6961C244.802 68.7391 244.818 68.7818 244.833 68.8251C244.86 68.903 244.885 68.9817 244.907 69.0611C244.929 69.1405 244.948 69.2207 244.965 69.3013C244.977 69.359 245.007 69.5771 244.99 69.4169C245.009 69.5898 245.02 69.7624 245.016 69.9365C245.015 70.0189 245.008 70.1006 245.003 70.1828C244.997 70.2643 245 70.2191 245.008 70.1642C245 70.2187 244.99 70.2727 244.98 70.3269C244.915 70.6779 245.077 71.0822 245.459 71.1691C245.795 71.2456 246.231 71.0675 246.301 70.6909C246.625 68.9394 245.87 67.1305 244.37 66.1561C244.069 65.9605 243.601 66.0854 243.434 66.4017C243.253 66.7428 243.358 67.1297 243.679 67.3384Z" fill="#323232"/>
<path d="M20.1902 146.674C22.5089 147.08 24.8276 147.487 27.1463 147.893C27.5101 147.957 27.884 147.796 27.9885 147.415C28.0793 147.085 27.8765 146.637 27.5103 146.573C25.1916 146.166 22.8729 145.76 20.5542 145.353C20.1904 145.29 19.8165 145.451 19.712 145.832C19.6212 146.162 19.824 146.61 20.1902 146.674Z" fill="#323232"/>
<path d="M21.7672 168.251C23.1789 166.839 24.5906 165.427 26.0023 164.015C26.2559 163.762 26.2748 163.297 26.0023 163.047C25.729 162.796 25.3047 162.777 25.0341 163.047C23.6224 164.459 22.2106 165.871 20.7989 167.282C20.5453 167.536 20.5264 168 20.7989 168.251C21.0722 168.501 21.4965 168.521 21.7672 168.251Z" fill="#323232"/>
<path d="M36.4975 176.236C36.4726 175.927 36.4639 175.617 36.4749 175.307C36.4804 175.152 36.4905 174.998 36.5052 174.843C36.5115 174.777 36.5191 174.711 36.5266 174.645C36.537 174.563 36.5376 174.557 36.5286 174.63C36.5334 174.597 36.5384 174.564 36.5437 174.531C36.6399 173.929 36.8076 173.341 37.0386 172.777C37.1746 172.445 36.8913 172.01 36.5604 171.935C36.1624 171.844 35.8638 172.057 35.7182 172.413C35.2266 173.614 35.0241 174.943 35.1282 176.236C35.1568 176.593 35.4225 176.939 35.8128 176.921C36.1592 176.906 36.5283 176.619 36.4975 176.236Z" fill="#323232"/>
<path d="M29.8004 135.419C30.3933 136.302 31.1054 137.102 31.9327 137.771C32.0786 137.889 32.2219 137.972 32.4168 137.972C32.5848 137.972 32.7854 137.897 32.901 137.771C33.1301 137.521 33.1983 137.043 32.901 136.803C32.2998 136.317 31.757 135.763 31.282 135.153L31.3891 135.291C31.2474 135.108 31.1119 134.92 30.9827 134.728C30.7834 134.431 30.3702 134.273 30.046 134.482C29.7502 134.673 29.5868 135.101 29.8004 135.419Z" fill="#323232"/>
<path d="M18.2378 250.475C47.295 250.475 76.3522 250.475 105.409 250.475C134.318 250.475 163.227 250.475 192.136 250.475C208.444 250.475 224.751 250.475 241.059 250.475C241.94 250.475 241.942 249.105 241.059 249.105C212.002 249.105 182.945 249.105 153.887 249.105C124.978 249.105 96.0695 249.105 67.1606 249.105H18.2378C17.3567 249.105 17.3552 250.475 18.2378 250.475Z" fill="#323232"/>
<path d="M38.2373 249.242C37.2107 249.205 36.2927 248.127 36.5622 247.099C36.8129 246.141 37.9266 245.607 38.8405 245.887C39.4782 246.082 40.022 245.199 39.5067 244.742C37.6227 243.072 38.4434 240.183 40.4734 239.011C42.6281 237.768 45.5486 238.211 47.598 239.44C48.8416 240.186 49.8278 241.256 50.4459 242.568L51.6283 241.877C50.4151 239.507 51.573 236.561 53.5609 234.999C55.9006 233.16 59.1324 233.688 61.3044 235.534C62.6126 236.646 63.5384 238.123 63.9036 239.804L65.0479 239.138C64.4571 238.46 64.6434 237.434 65.1121 236.744C65.7018 235.875 66.7379 235.627 67.722 235.895C70.4998 236.649 70.9487 239.893 70.4891 242.307C70.3242 243.173 71.5117 243.504 71.8096 242.671C72.1988 241.582 73.5052 241.265 74.5421 241.353C75.9207 241.468 77.018 242.413 77.9458 243.361C79.0388 244.478 79.9992 245.709 81.2803 246.627C82.6062 247.577 84.2436 248.13 85.86 247.684C86.7083 247.45 86.3481 246.128 85.496 246.364C83.7701 246.84 82.1099 245.714 80.9362 244.553C79.7688 243.398 78.778 242.077 77.4432 241.1C76.2792 240.247 74.9065 239.823 73.4653 240.028C72.1124 240.221 70.9584 240.994 70.4891 242.307L71.8096 242.671C72.1586 240.838 72.1488 238.895 71.2814 237.199C70.5438 235.757 69.0979 234.671 67.4827 234.46C65.9847 234.264 64.5437 234.93 63.8019 236.263C63.1135 237.499 63.1301 239.017 64.0796 240.106C64.558 240.655 65.3587 240.06 65.2239 239.44C64.4722 235.98 61.4708 233.036 57.934 232.543C54.5117 232.067 51.4335 234.189 50.2204 237.35C49.5688 239.048 49.6142 240.944 50.4459 242.568C50.8509 243.359 51.9994 242.665 51.6283 241.877C50.3005 239.057 47.3782 237.265 44.3256 236.963C41.3118 236.664 38.0951 238.034 37.2291 241.144C36.7642 242.813 37.2354 244.555 38.5384 245.71L39.2045 244.566C37.548 244.059 35.5706 245.135 35.211 246.865C34.8212 248.741 36.3663 250.543 38.2373 250.611C39.1186 250.643 39.1173 249.274 38.2373 249.242Z" fill="#323232"/>
<path d="M185.586 244.898C183.199 243.014 180.329 241.607 177.305 241.133C175.961 240.922 174.357 240.967 173.456 242.149C172.76 243.061 172.634 244.537 173.608 245.312L174.438 244.237C173.191 243.424 171.776 242.941 170.296 242.801C169.045 242.684 167.621 242.82 166.559 243.552C165.56 244.24 164.99 245.394 165.412 246.587C165.786 247.642 166.814 248.46 167.965 248.116C168.807 247.864 168.448 246.541 167.6 246.795C167.02 246.969 166.629 246.232 166.634 245.735C166.642 244.973 167.485 244.512 168.122 244.323C170.001 243.767 172.153 244.38 173.747 245.419C174.386 245.836 175.19 244.832 174.576 244.344C173.98 243.87 174.343 242.967 174.931 242.648C175.928 242.106 177.272 242.478 178.298 242.743C180.59 243.333 182.759 244.399 184.618 245.866C185.303 246.406 186.278 245.444 185.586 244.898Z" fill="#323232"/>
<path d="M175.219 43.6425C177.13 47.9984 182.27 50.1292 186.711 48.4292C187.526 48.1174 187.172 46.793 186.347 47.1088C184.365 47.8674 182.105 47.8659 180.178 46.9263C178.473 46.0945 177.161 44.6833 176.401 42.9514C176.048 42.1462 174.868 42.8424 175.219 43.6425Z" fill="#323232"/>
<path d="M196.739 48.6652C197.706 50.2982 199.68 51.1643 201.529 50.6759C202.434 50.4368 203.259 49.8975 203.835 49.1603C204.488 48.3244 204.759 47.2996 204.948 46.2741C205.015 45.9109 204.848 45.5358 204.47 45.4319C204.137 45.3404 203.695 45.5446 203.628 45.9101C203.48 46.7135 203.311 47.5506 202.831 48.2306C202.459 48.7581 201.882 49.1456 201.266 49.3272C199.979 49.7072 198.6 49.1203 197.921 47.9741C197.473 47.2163 196.289 47.9043 196.739 48.6652Z" fill="#323232"/>
<path d="M194.632 39.1512C194.996 45.1663 194.867 51.2027 194.247 57.1968C194.156 58.0725 195.526 58.0661 195.616 57.1968C196.236 51.2027 196.365 45.1663 196.002 39.1512C195.949 38.2755 194.579 38.2695 194.632 39.1512Z" fill="#323232"/>
<path d="M188.06 60.1818C186.923 58.5971 185.746 56.8472 184.11 55.732C183.381 55.2353 182.453 54.9619 181.592 55.2611C180.774 55.5448 180.178 56.2204 179.769 56.9599C178.823 58.6697 178.43 60.7892 178.306 62.7189C178.183 64.6401 178.285 66.846 179.632 68.3561C180.944 69.8281 183.433 70.0343 184.561 68.2282C185.03 67.4788 183.846 66.7906 183.379 67.5371C182.656 68.6935 181.112 68.0999 180.458 67.2121C179.543 65.9693 179.582 64.1877 179.675 62.7189C179.775 61.1623 180.104 59.5485 180.724 58.1121C180.95 57.5901 181.258 57.0163 181.746 56.6964C182.334 56.3113 182.973 56.59 183.487 56.9611C184.875 57.9612 185.894 59.5024 186.877 60.873C187.386 61.5827 188.575 60.8997 188.06 60.1818Z" fill="#323232"/>
<path d="M179.592 58.8789C180.76 61.3108 182.567 63.4324 184.782 64.9723C184.951 65.0897 185.137 65.2264 185.169 65.4295C185.185 65.5267 185.161 65.6256 185.135 65.7205C184.935 66.444 184.541 67.1308 183.942 67.5834C183.343 68.036 182.526 68.2264 181.816 67.982C180.731 67.6087 180.193 66.4053 179.892 65.2981C179.508 63.8804 179.309 62.412 179.305 60.943C179.304 60.7036 179.474 60.364 179.675 60.4942" fill="#323232"/>
<path d="M179 59.2208C180.138 61.5631 181.828 63.5965 183.9 65.1702C184.017 65.2592 184.135 65.3467 184.255 65.4324C184.365 65.5112 184.482 65.6697 184.474 65.5348C184.489 65.7737 184.249 66.1464 184.132 66.3437C183.826 66.8578 183.343 67.2797 182.737 67.3801C181.573 67.5733 180.96 66.4189 180.661 65.4838C180.416 64.7188 180.25 63.9169 180.139 63.122C180.084 62.7352 180.047 62.3455 180.022 61.9557C180.008 61.7301 179.998 61.5042 179.993 61.2783C179.991 61.217 180.014 61.079 179.989 61.0241C179.913 60.8553 180.17 61.0253 179.772 61.122H179.408L179.492 61.1507C180.327 61.4369 180.686 60.1147 179.856 59.8303C179.454 59.6929 179.041 59.879 178.823 60.2336C178.595 60.6065 178.614 61.0262 178.628 61.4478C178.661 62.4112 178.774 63.3756 178.961 64.3214C179.251 65.7909 179.712 67.6218 181.127 68.4156C182.682 69.2874 184.523 68.4257 185.35 66.9744C185.766 66.2439 186.158 65.2504 185.416 64.5976C184.798 64.054 184.099 63.6176 183.495 63.0499C182.117 61.7568 181.008 60.2278 180.182 58.5297C179.797 57.7373 178.616 58.4306 179 59.2208Z" fill="#323232"/>
<path d="M177.547 36.7098C181.366 34.8999 185.615 34.1497 189.824 34.4818C190.703 34.5512 190.699 33.1815 189.824 33.1125C185.368 32.7609 180.891 33.6153 176.856 35.5274C176.06 35.9045 176.754 37.0855 177.547 36.7098Z" fill="#323232"/>
<path d="M195.427 39.4685C196.597 39.4096 197.767 39.3508 198.936 39.292C199.294 39.274 199.638 38.9899 199.621 38.6073C199.605 38.2518 199.32 37.9034 198.936 37.9226C197.767 37.9815 196.597 38.0403 195.427 38.0992C195.07 38.1171 194.725 38.4012 194.743 38.7838C194.758 39.1394 195.044 39.4877 195.427 39.4685Z" fill="#323232"/>
</svg>
