<svg width="22" height="21" viewBox="0 0 22 21" fill="none" xmlns="http://www.w3.org/2000/svg">
<path d="M8.75 13.25C8.75 13.4489 8.67098 13.6397 8.53033 13.7803C8.38968 13.921 8.19891 14 8 14H4.25C4.05109 14 3.86032 13.921 3.71967 13.7803C3.57902 13.6397 3.5 13.4489 3.5 13.25C3.5 13.0511 3.57902 12.8603 3.71967 12.7197C3.86032 12.579 4.05109 12.5 4.25 12.5H8C8.19891 12.5 8.38968 12.579 8.53033 12.7197C8.67098 12.8603 8.75 13.0511 8.75 13.25ZM14.75 2H17C17.1989 2 17.3897 1.92098 17.5303 1.78033C17.671 1.63968 17.75 1.44891 17.75 1.25C17.75 1.05109 17.671 0.860322 17.5303 0.71967C17.3897 0.579018 17.1989 0.5 17 0.5H14C13.8011 0.5 13.6103 0.579018 13.4697 0.71967C13.329 0.860322 13.25 1.05109 13.25 1.25V4.25H14.75V2ZM21.5 9.875V15.5C21.5 15.8978 21.342 16.2794 21.0607 16.5607C20.7794 16.842 20.3978 17 20 17H11.75V20C11.75 20.1989 11.671 20.3897 11.5303 20.5303C11.3897 20.671 11.1989 20.75 11 20.75C10.8011 20.75 10.6103 20.671 10.4697 20.5303C10.329 20.3897 10.25 20.1989 10.25 20V17H2C1.60218 17 1.22064 16.842 0.93934 16.5607C0.658035 16.2794 0.5 15.8978 0.5 15.5V9.875C0.501737 8.38369 1.09493 6.95396 2.14944 5.89944C3.20396 4.84493 4.63369 4.25174 6.125 4.25H13.25V12.5C13.25 12.6989 13.329 12.8897 13.4697 13.0303C13.6103 13.171 13.8011 13.25 14 13.25C14.1989 13.25 14.3897 13.171 14.5303 13.0303C14.671 12.8897 14.75 12.6989 14.75 12.5V4.25H15.875C17.3663 4.25174 18.796 4.84493 19.8506 5.89944C20.9051 6.95396 21.4983 8.38369 21.5 9.875ZM10.25 9.875C10.25 8.78098 9.8154 7.73177 9.04182 6.95818C8.26823 6.1846 7.21902 5.75 6.125 5.75C5.03098 5.75 3.98177 6.1846 3.20818 6.95818C2.4346 7.73177 2 8.78098 2 9.875V15.5H10.25V9.875Z" fill="#2563EB"/>
</svg>
