<svg width="30" height="25" viewBox="0 0 30 25" fill="none" xmlns="http://www.w3.org/2000/svg">
<g clip-path="url(#clip0_4701_112937)">
<path d="M17.0703 12.0545L19.9136 15.3045L23.737 17.7478L24.4036 12.0745L23.737 6.52783L19.8403 8.6745L17.0703 12.0545Z" fill="#00832D"/>
<path d="M0.570312 17.2212V22.0545C0.570312 23.1595 1.46531 24.0545 2.57031 24.0545H7.40365L8.40365 20.4012L7.40365 17.2212L4.08698 16.2212L0.570312 17.2212Z" fill="#0066DA"/>
<path d="M7.40365 0.0546875L0.570312 6.88802L4.08698 7.88802L7.40365 6.88802L8.38698 3.75135L7.40365 0.0546875Z" fill="#E94235"/>
<path d="M7.40365 6.88818H0.570312V17.2215H7.40365V6.88818Z" fill="#2684FC"/>
<path d="M28.1063 2.9479L23.7396 6.5279V17.7479L28.1263 21.3446C28.7829 21.8579 29.7429 21.3896 29.7429 20.5546V3.72124C29.7429 2.87624 28.7612 2.4129 28.1063 2.9479ZM17.0729 12.0546V17.2212H7.40625V24.0546H21.7396C22.8446 24.0546 23.7396 23.1596 23.7396 22.0546V17.7479L17.0729 12.0546Z" fill="#00AC47"/>
<path d="M21.7396 0.0546875H7.40625V6.88802H17.0729V12.0547L23.7396 6.53135V2.05469C23.7396 0.949687 22.8446 0.0546875 21.7396 0.0546875Z" fill="#FFBA00"/>
</g>
<defs>
<clipPath id="clip0_4701_112937">
<rect width="29.1667" height="24" fill="white" transform="translate(0.570312 0.0546875)"/>
</clipPath>
</defs>
</svg>
