<svg width="24" height="25" viewBox="0 0 24 25" fill="none" xmlns="http://www.w3.org/2000/svg">
<path d="M3.58984 18.6691C3.44055 18.5663 3.30166 18.4507 3.17157 18.3206C2 17.149 2 15.2634 2 11.4922C2 7.72095 2 5.83533 3.17157 4.66376C4.34315 3.49219 6.22876 3.49219 10 3.49219H14C17.7712 3.49219 19.6569 3.49219 20.8284 4.66376C22 5.83533 22 7.72095 22 11.4922C22 15.2634 22 17.149 20.8284 18.3206C20.6983 18.4507 20.5595 18.5663 20.4102 18.6691" stroke="#141B34" stroke-width="1.5" stroke-linecap="round"/>
<path d="M8.6863 17.4182C7.82171 17.9447 5.55483 19.0198 6.93552 20.365C7.60997 21.0222 8.36113 21.4922 9.30553 21.4922H14.6945C15.6389 21.4922 16.39 21.0222 17.0645 20.365C18.4452 19.0198 16.1783 17.9447 15.3137 17.4182C13.2863 16.1835 10.7137 16.1835 8.6863 17.4182Z" stroke="#141B34" stroke-width="1.5" stroke-linecap="round" stroke-linejoin="round"/>
<path d="M14.5 11.4922C14.5 12.8729 13.3807 13.9922 12 13.9922C10.6193 13.9922 9.5 12.8729 9.5 11.4922C9.5 10.1115 10.6193 8.99219 12 8.99219C13.3807 8.99219 14.5 10.1115 14.5 11.4922Z" stroke="#141B34" stroke-width="1.5"/>
</svg>
