<svg width="201" height="178" viewBox="0 0 201 178" fill="none" xmlns="http://www.w3.org/2000/svg">
<path d="M100.506 140.075C101.429 140.075 102.176 139.327 102.176 138.405C102.176 137.482 101.429 136.734 100.506 136.734C99.5836 136.734 98.8359 137.482 98.8359 138.405C98.8359 139.327 99.5836 140.075 100.506 140.075Z" fill="#CFCFCF"/>
<path d="M51.9844 14.3281V21.6568" stroke="#BABABA" stroke-width="5.3156" stroke-linecap="round" stroke-linejoin="round"/>
<path d="M48.3027 17.9922H55.6484" stroke="#BABABA" stroke-width="5.3156" stroke-linecap="round" stroke-linejoin="round"/>
<path d="M135.411 60.5494C121.146 60.5494 106.625 59.97 93.0414 56.1862C79.7134 52.4878 67.4766 45.3127 56.5687 37.0125C49.4276 31.6099 42.9342 27.2977 33.6625 27.9454C24.5922 28.4363 15.9185 31.8231 8.91565 37.6089C-2.87842 47.937 -1.10565 67.0768 3.61531 80.4727C10.7054 100.703 32.2822 114.798 50.6207 123.916C71.8054 134.5 95.0867 140.652 118.419 144.18C138.871 147.299 165.151 149.549 182.877 136.204C199.153 123.916 203.618 95.8966 199.63 76.9788C198.662 71.3902 195.686 66.3473 191.262 62.7989C179.826 54.4308 162.766 60.021 149.915 60.2935C145.143 60.3961 140.286 60.5154 135.411 60.5494Z" fill="#F2F2F2"/>
<path d="M112.334 4.34033C113.257 4.34033 114.004 3.59262 114.004 2.67016C114.004 1.74771 113.257 1 112.334 1C111.412 1 110.664 1.74771 110.664 2.67016C110.664 3.59262 111.412 4.34033 112.334 4.34033Z" fill="#CFCFCF"/>
<path d="M25.5508 134.398V141.727" stroke="#BABABA" stroke-width="5.3156" stroke-linecap="round" stroke-linejoin="round"/>
<path d="M21.8857 138.061H29.2144" stroke="#BABABA" stroke-width="5.3156" stroke-linecap="round" stroke-linejoin="round"/>
<path d="M101.189 177.345C135.742 177.345 163.755 175.598 163.755 173.442C163.755 171.286 135.743 169.539 101.189 169.539C66.6346 169.539 38.623 171.286 38.623 173.442C38.623 175.598 66.6346 177.345 101.189 177.345Z" fill="#F2F2F2"/>
<path d="M151.482 131.637H43.411C42.688 131.637 41.9733 131.478 41.317 131.175C40.6607 130.872 40.0781 130.428 39.6096 129.878C39.1412 129.326 38.7981 128.68 38.6042 127.983C38.4102 127.286 38.3695 126.556 38.4855 125.842L52.3076 42.0232C52.4945 40.8568 53.0915 39.7949 53.9912 39.0295C54.8912 38.2638 56.0346 37.8448 57.2161 37.8477H165.287C166.01 37.8477 166.724 38.0051 167.381 38.3091C168.035 38.613 168.618 39.0561 169.085 39.6076C169.552 40.1591 169.893 40.8055 170.085 41.5022C170.276 42.1993 170.316 42.9293 170.196 43.6421L156.443 127.461C156.252 128.635 155.647 129.701 154.736 130.468C153.826 131.233 152.672 131.648 151.482 131.637Z" fill="#D2D2D2"/>
<path d="M152.813 35.6558L88.665 7.01419C86.7739 6.16997 84.5568 7.01835 83.7126 8.90943L63.3814 54.4454C62.5372 56.3364 63.3855 58.5536 65.2763 59.3978L129.425 88.0391C131.316 88.8833 133.534 88.0349 134.377 86.1442L154.708 40.6082C155.554 38.7172 154.705 36.5 152.813 35.6558Z" fill="white" stroke="#BABABA" stroke-width="5.3156" stroke-linecap="round" stroke-linejoin="round"/>
<path d="M98.0684 44.4779C99.7568 42.1084 102.213 40.3959 105.019 39.6303C107.826 38.8646 110.811 39.0926 113.469 40.276C116.127 41.4594 118.294 43.5256 119.603 46.124C120.912 48.7224 121.282 51.6933 120.651 54.5335" stroke="#BABABA" stroke-width="3.6146" stroke-linecap="round" stroke-linejoin="round"/>
<path d="M128.748 41.9035C129.718 41.9035 130.503 41.1173 130.503 40.148C130.503 39.1784 129.717 38.3926 128.748 38.3926C127.778 38.3926 126.992 39.1784 126.992 40.148C126.992 41.1176 127.778 41.9035 128.748 41.9035Z" fill="#BABABA"/>
<path d="M103.318 30.5539C104.287 30.5539 105.073 29.768 105.073 28.7984C105.073 27.8292 104.287 27.043 103.318 27.043C102.348 27.043 101.562 27.8292 101.562 28.7984C101.563 29.768 102.348 30.5539 103.318 30.5539Z" fill="#BABABA"/>
<path d="M151.006 131.602H42.4066C41.0853 131.597 39.8194 131.069 38.8867 130.133C37.9537 129.198 37.4301 127.93 37.4301 126.609V50.033C37.4144 49.3687 37.5311 48.7078 37.7738 48.0894C38.0166 47.4705 38.3805 46.9069 38.8441 46.4304C39.3074 45.9543 39.8614 45.5753 40.4732 45.3159C41.085 45.0565 41.7423 44.9218 42.4069 44.9199H81.9644C82.8824 44.9234 83.7814 45.1796 84.5634 45.6606C85.3451 46.1418 85.9793 46.829 86.3958 47.6469L92.037 58.691C92.4522 59.5102 93.0858 60.1986 93.8681 60.6795C94.6501 61.1608 95.5501 61.4164 96.4684 61.418H151.006C152.325 61.418 153.592 61.9422 154.526 62.8755C155.458 63.8089 155.983 65.0748 155.983 66.3948V126.609C155.983 127.93 155.46 129.197 154.526 130.133C153.594 131.069 152.327 131.597 151.006 131.602Z" fill="white" stroke="#BABABA" stroke-width="5.3156" stroke-linecap="round" stroke-linejoin="round"/>
<path d="M134.286 64.0273C128.012 64.0238 121.878 65.8812 116.66 69.3646C111.442 72.8476 107.374 77.8 104.971 83.5954C102.568 89.3908 101.937 95.7685 103.159 101.922C104.381 108.076 107.4 113.729 111.835 118.167C116.271 122.604 121.922 125.627 128.076 126.853C134.228 128.078 140.606 127.451 146.402 125.05C152.2 122.65 157.155 118.585 160.64 113.369C164.125 108.153 165.987 102.019 165.987 95.7454C165.987 87.3362 162.648 79.2714 156.703 73.3237C150.759 67.3754 142.695 64.0318 134.286 64.0273Z" fill="white" stroke="#BABABA" stroke-width="5.3156" stroke-linecap="round" stroke-linejoin="round"/>
<path d="M156.852 118.752L165.305 127.205" stroke="#BABABA" stroke-width="5.3156" stroke-linecap="round" stroke-linejoin="round"/>
<path d="M164.349 123.098L161.724 125.845C160.547 127.077 160.591 129.029 161.822 130.206L184.614 151.995C185.844 153.172 187.797 153.128 188.975 151.896L191.601 149.148C192.779 147.918 192.735 145.965 191.502 144.787L168.712 123C167.48 121.822 165.527 121.866 164.349 123.098Z" fill="#D2D2D2"/>
<path d="M181.224 2.66992V10.0156" stroke="#BABABA" stroke-width="5.3156" stroke-linecap="round" stroke-linejoin="round"/>
<path d="M177.542 6.35156H184.888" stroke="#BABABA" stroke-width="5.3156" stroke-linecap="round" stroke-linejoin="round"/>
</svg>
