<svg width="150" height="155" viewBox="0 0 150 155" fill="none" xmlns="http://www.w3.org/2000/svg">
<path d="M131.785 56.8787C134.458 56.8787 136.626 54.7092 136.626 52.0331C136.626 49.3569 134.458 47.1875 131.785 47.1875C129.111 47.1875 126.943 49.3569 126.943 52.0331C126.943 54.7092 129.111 56.8787 131.785 56.8787Z" fill="#EAEEF9"/>
<path d="M3.18528 83.0828C4.94432 83.0828 6.37031 81.6555 6.37031 79.8949C6.37031 78.1343 4.94432 76.707 3.18528 76.707C1.42623 76.707 0.000244141 78.1343 0.000244141 79.8949C0.000244141 81.6555 1.42623 83.0828 3.18528 83.0828Z" fill="#EAEEF9"/>
<path d="M17.8263 140.395C19.5853 140.395 21.0113 138.968 21.0113 137.207C21.0113 135.447 19.5853 134.02 17.8263 134.02C16.0672 134.02 14.6412 135.447 14.6412 137.207C14.6412 138.968 16.0672 140.395 17.8263 140.395Z" fill="#EAEEF9"/>
<path d="M34.8524 140.393L79.5474 126.389V68.9688L34.8524 82.8659V140.393Z" fill="#B7BFCD"/>
<path opacity="0.4" d="M124.242 140.393L79.5469 126.389V68.9688L124.242 82.8659V140.393Z" fill="#6D7C9A"/>
<g opacity="0.13">
<path d="M34.8524 140.393L79.5474 126.389V68.9688L34.8524 82.8659V140.393Z" fill="url(#paint0_linear_1055_40099)"/>
<path d="M124.242 140.393L79.5474 126.389V68.9688L124.242 82.8659V140.393Z" fill="url(#paint1_linear_1055_40099)"/>
</g>
<path d="M79.5474 154.503L34.8524 140.498V83.0781L79.5474 97.083V154.503Z" fill="#EDF1F9"/>
<path d="M79.5469 154.503L124.242 140.498V83.0781L79.5469 97.083V154.503Z" fill="#DAE1ED"/>
<path opacity="0.09" d="M69.4208 144.376L34.8524 140.498V83.0781L79.5474 97.083L69.4208 144.376Z" fill="url(#paint2_linear_1055_40099)"/>
<path opacity="0.2" d="M89.6735 134.25L124.242 140.498V83.0781L79.5469 97.083L89.6735 134.25Z" fill="url(#paint3_linear_1055_40099)"/>
<path d="M79.5469 68.9668L58.5328 53.2383L13.0912 68.5359L34.852 82.8639L79.5469 68.9668Z" fill="#DAE1ED"/>
<path d="M79.5469 68.9668L100.561 53.2383L146.003 68.5359L124.242 82.8639L79.5469 68.9668Z" fill="#DAE1ED"/>
<path d="M34.852 83.0781L79.5469 97.083L57.2528 111.303L13.0912 96.6521L34.852 83.0781Z" fill="#EFF4FD"/>
<path d="M124.242 83.0781L79.5469 97.083L101.841 111.303L146.003 96.6521L124.242 83.0781Z" fill="#EDF1F9"/>
<path d="M92.0171 13.8448C98.2786 30.8378 100.145 34.6135 100.758 51.3577C100.522 55.1798 100.376 59.336 98.5739 62.6827C96.1675 67.8023 90.2813 71.3478 84.7201 71.4052C78.9911 71.5076 73.3745 67.9998 70.8465 62.5908C69.0679 59.3081 69.1245 54.8179 71.5642 51.8375C74.2165 48.9791 78.8826 48.2664 82.2392 50.0524C85.9315 51.7485 88.1353 55.2753 88.9515 58.9948C89.7678 62.7142 89.4092 66.7483 88.4128 70.4162C86.3289 79.3371 84.603 79.7686 79.4925 94.8721" stroke="#ABB5CC" stroke-width="2" stroke-miterlimit="10" stroke-dasharray="4 4"/>
<path d="M99.6366 4.84859C99.6221 7.34729 97.2968 8.87729 94.348 8.07945C91.2432 7.55019 89.0458 7.00472 88.9044 4.7746C88.9756 2.48751 91.4709 1.59239 94.3916 0.583339C97.8936 -0.808207 99.4385 2.40684 99.6366 4.84859Z" fill="#DAE2EB"/>
<path d="M79.5749 12.489C81.1484 14.1088 84.4658 14.5811 86.0823 12.1069C87.8549 9.36415 89.3722 7.37018 87.742 5.53877C86.1686 3.91898 84.6373 5.00951 81.1353 6.40105C78.328 7.83334 77.7321 10.7145 79.5749 12.489Z" fill="#DAE2EB"/>
<path d="M86.8358 2.15359C88.2678 1.54326 89.9832 1.99102 90.7486 3.14683C91.0747 3.51311 91.4574 4.09102 91.5707 4.51426C92.7896 7.36303 92.4064 10.1873 90.7617 10.8546C88.961 11.7904 86.4802 10.1869 85.5308 7.49275C85.304 6.64627 85.1907 6.22303 85.0206 5.58816C84.8366 4.04986 85.4038 2.76392 86.8358 2.15359C87.0485 2.09663 86.8358 2.15359 86.8358 2.15359Z" fill="#989FB0"/>
<path d="M21.0118 48.0105H18.2396V45.2383H15.8634V48.0105H13.0912V50.4659H15.8634V53.2381H18.2396V50.4659H21.0118V48.0105Z" fill="url(#paint4_linear_1055_40099)"/>
<path d="M27.101 117.569H24.3288V114.797H21.9526V117.569H19.1804V120.024H21.9526V122.797H24.3288V120.024H27.101V117.569Z" fill="url(#paint5_linear_1055_40099)"/>
<path d="M148.287 117.726L144.895 116.014L146.608 112.622L143.701 111.154L141.988 114.546L138.596 112.833L137.08 115.837L140.471 117.55L138.759 120.942L141.666 122.41L143.379 119.018L146.771 120.73L148.287 117.726Z" fill="url(#paint6_linear_1055_40099)"/>
<defs>
<linearGradient id="paint0_linear_1055_40099" x1="65.4382" y1="73.1274" x2="59.3419" y2="98.5069" gradientUnits="userSpaceOnUse">
<stop offset="0.00289017" stop-color="#606673" stop-opacity="0"/>
<stop offset="1" stop-color="#373C47"/>
</linearGradient>
<linearGradient id="paint1_linear_1055_40099" x1="65.4382" y1="73.1274" x2="59.3419" y2="98.5069" gradientUnits="userSpaceOnUse">
<stop offset="0.00289017" stop-color="#606673" stop-opacity="0"/>
<stop offset="1" stop-color="#373C47"/>
</linearGradient>
<linearGradient id="paint2_linear_1055_40099" x1="44.8728" y1="122.376" x2="55.6102" y2="92.0492" gradientUnits="userSpaceOnUse">
<stop offset="0.00289017" stop-color="#6C80AA" stop-opacity="0"/>
<stop offset="1" stop-color="#5D6A86"/>
</linearGradient>
<linearGradient id="paint3_linear_1055_40099" x1="103.668" y1="130.66" x2="104.513" y2="92.1758" gradientUnits="userSpaceOnUse">
<stop offset="0.00289017" stop-color="#314F91" stop-opacity="0"/>
<stop offset="1" stop-color="#324264"/>
</linearGradient>
<linearGradient id="paint4_linear_1055_40099" x1="17.0521" y1="45.5162" x2="17.0521" y2="50.0064" gradientUnits="userSpaceOnUse">
<stop stop-color="#B0BACC"/>
<stop offset="1" stop-color="#969EAE"/>
</linearGradient>
<linearGradient id="paint5_linear_1055_40099" x1="23.1413" y1="115.075" x2="23.1413" y2="119.565" gradientUnits="userSpaceOnUse">
<stop stop-color="#B0BACC"/>
<stop offset="1" stop-color="#969EAE"/>
</linearGradient>
<linearGradient id="paint6_linear_1055_40099" x1="144.983" y1="112.228" x2="142.21" y2="117.722" gradientUnits="userSpaceOnUse">
<stop stop-color="#B0BACC"/>
<stop offset="1" stop-color="#969EAE"/>
</linearGradient>
</defs>
</svg>
