<svg width="24" height="25" viewBox="0 0 24 25" fill="none" xmlns="http://www.w3.org/2000/svg">
<path d="M14.7892 9.92074C15.8544 9.92074 16.7178 10.7842 16.7178 11.8493V17.2056C16.7178 19.8097 14.6067 21.9207 12.0026 21.9207C9.3985 21.9207 7.28744 19.8097 7.28744 17.2056V11.8493C7.28744 10.7842 8.15089 9.92074 9.21601 9.92074H14.7892ZM14.7892 11.2065H9.21601C8.86097 11.2065 8.57315 11.4943 8.57315 11.8493V17.2056C8.57315 19.0996 10.1086 20.635 12.0026 20.635C13.8967 20.635 15.4321 19.0996 15.4321 17.2056V11.8493C15.4321 11.4943 15.1443 11.2065 14.7892 11.2065ZM3.64293 9.92074L7.2056 9.92097C6.86731 10.2736 6.62087 10.715 6.50477 11.2068L3.64293 11.2065C3.28789 11.2065 3.00007 11.4943 3.00007 11.8493V16.3483C3.00007 17.769 4.15181 18.9207 5.57256 18.9207C5.95045 18.9207 6.30931 18.8393 6.63252 18.6929C6.7469 19.1124 6.91063 19.5121 7.11595 19.8857C6.64366 20.0918 6.1215 20.2065 5.57256 20.2065C3.44173 20.2065 1.71436 18.4791 1.71436 16.3483V11.8493C1.71436 10.7842 2.57781 9.92074 3.64293 9.92074ZM20.3572 9.92074C21.4223 9.92074 22.2858 10.7842 22.2858 11.8493V16.3493C22.2858 18.4796 20.5589 20.2065 18.4286 20.2065C17.8809 20.2065 17.3598 20.0923 16.8878 19.8864L16.9356 19.7996C17.1191 19.4514 17.2668 19.0815 17.3738 18.6946C17.6947 18.8399 18.0522 18.9207 18.4286 18.9207C19.8488 18.9207 21.0001 17.7695 21.0001 16.3493V11.8493C21.0001 11.4943 20.7123 11.2065 20.3572 11.2065L17.5005 11.2068C17.3844 10.715 17.1379 10.2736 16.7996 9.92097L20.3572 9.92074ZM12.0001 3.0636C13.6569 3.0636 15.0001 4.40674 15.0001 6.0636C15.0001 7.72045 13.6569 9.0636 12.0001 9.0636C10.3432 9.0636 9.00007 7.72045 9.00007 6.0636C9.00007 4.40674 10.3432 3.0636 12.0001 3.0636ZM18.8598 3.92074C20.2799 3.92074 21.4312 5.07201 21.4312 6.49217C21.4312 7.91233 20.2799 9.0636 18.8598 9.0636C17.4396 9.0636 16.2883 7.91233 16.2883 6.49217C16.2883 5.07201 17.4396 3.92074 18.8598 3.92074ZM5.14037 3.92074C6.56053 3.92074 7.7118 5.07201 7.7118 6.49217C7.7118 7.91233 6.56053 9.0636 5.14037 9.0636C3.72021 9.0636 2.56894 7.91233 2.56894 6.49217C2.56894 5.07201 3.72021 3.92074 5.14037 3.92074ZM12.0001 4.34931C11.0533 4.34931 10.2858 5.11683 10.2858 6.0636C10.2858 7.01037 11.0533 7.77788 12.0001 7.77788C12.9468 7.77788 13.7144 7.01037 13.7144 6.0636C13.7144 5.11683 12.9468 4.34931 12.0001 4.34931ZM18.8598 5.20646C18.1497 5.20646 17.5741 5.78209 17.5741 6.49217C17.5741 7.20225 18.1497 7.77788 18.8598 7.77788C19.5699 7.77788 20.1455 7.20225 20.1455 6.49217C20.1455 5.78209 19.5699 5.20646 18.8598 5.20646ZM5.14037 5.20646C4.43029 5.20646 3.85466 5.78209 3.85466 6.49217C3.85466 7.20225 4.43029 7.77788 5.14037 7.77788C5.85045 7.77788 6.42608 7.20225 6.42608 6.49217C6.42608 5.78209 5.85045 5.20646 5.14037 5.20646Z" fill="#2A3241"/>
</svg>
