<svg width="170" height="301" viewBox="0 0 170 301" fill="none" xmlns="http://www.w3.org/2000/svg">
<path opacity="0.0526316" d="M44.4426 193.597C56.5118 209.654 95.0863 236.524 152.83 215.546C225.011 189.323 252.927 119.813 317.349 83.771C364.897 57.1694 492.661 17.239 566.128 61.3626" stroke="#C8CFDC"/>
<path opacity="0.105263" d="M32.538 159.935C42.8626 177.166 78.4171 207.92 138.038 193.093C212.564 174.558 247.593 108.347 315.429 79.2369C365.498 57.7512 496.736 31.3945 565.187 82.9557" stroke="#C8CFDC"/>
<path opacity="0.157895" d="M23.5444 125.819C32.0114 144.035 64.1565 178.337 125 169.823C201.055 159.18 242.814 96.9935 313.321 75.1334C365.361 58.999 498.635 46.5048 561.322 104.939" stroke="#C8CFDC"/>
<path opacity="0.210526" d="M17.4922 91.5558C24.0088 110.557 52.3921 148.031 113.793 145.923C190.544 143.289 238.573 85.8077 310.98 71.4374C364.421 60.831 498.271 62.3362 554.507 127.003" stroke="#C8CFDC"/>
<path opacity="0.263158" d="M14.3833 57.4532C18.8781 77.0311 43.1887 117.267 104.473 121.589C181.079 126.992 234.854 74.8458 308.366 68.1228C362.623 63.1607 495.583 78.6487 544.751 148.839" stroke="#C8CFDC"/>
<path opacity="0.315789" d="M14.1827 23.8185C16.6064 43.7589 36.5781 86.3158 97.0753 97.0201C172.697 110.401 231.628 64.1613 305.44 65.1592C359.918 65.8957 490.531 95.1969 532.092 170.142" stroke="#C8CFDC"/>
<path opacity="0.368421" d="M16.8269 -9.04763C17.153 11.0369 32.5669 55.4483 91.6137 72.4176C165.422 93.6293 228.864 53.8034 302.167 62.5112C356.27 68.9383 483.104 111.732 516.604 190.611" stroke="#C8CFDC"/>
<path opacity="0.421053" d="M22.2183 -40.8507C20.4432 -20.8422 31.1304 24.9371 88.08 47.9856C159.267 76.7962 226.524 43.8198 298.515 60.1423C351.651 72.1894 473.316 128.006 498.388 209.955" stroke="#C8CFDC"/>
<path opacity="0.473684" d="M30.2324 -71.3105C26.3755 -51.5971 32.2189 -4.95147 86.4473 23.9236C154.233 60.0174 224.568 34.252 294.459 58.0102C346.044 75.5455 461.209 143.774 477.577 227.895" stroke="#C8CFDC"/>
<path opacity="0.526316" d="M40.7137 -100.16C34.8174 -80.9576 35.753 -33.9567 86.666 0.428614C150.307 43.4102 222.951 25.138 289.975 56.0716C339.445 78.903 446.847 158.796 454.333 244.166" stroke="#C8CFDC"/>
<path opacity="0.578947" d="M53.4791 -127.151C45.6079 -108.67 41.6254 -61.8286 88.6653 -22.3098C147.465 27.0887 221.621 16.5099 285.045 54.28C331.856 82.1572 430.319 172.839 428.84 258.524" stroke="#C8CFDC"/>
<path opacity="0.631579" d="M68.3239 -152.052C58.564 -134.496 49.7071 -88.3273 92.3585 -44.108C145.673 11.1661 220.528 8.39662 279.656 52.5895C323.298 85.2071 411.742 185.684 401.315 270.746" stroke="#C8CFDC"/>
<path opacity="0.684211" d="M85.0182 -174.66C73.4767 -158.22 59.8424 -113.23 97.6379 -64.7946C144.882 -4.25045 219.617 0.819684 273.802 50.9511C313.795 87.9518 391.252 197.123 371.99 280.629" stroke="#C8CFDC"/>
<path opacity="0.736842" d="M103.31 -194.794C90.1132 -179.65 71.8509 -136.332 104.377 -84.2113C145.034 -19.0604 218.829 -6.20613 267.477 49.3145C303.383 90.2929 369.004 206.963 341.12 287.998" stroke="#C8CFDC"/>
<path opacity="0.789474" d="M122.935 -212.298C108.227 -198.617 85.537 -157.445 112.436 -102.21C146.061 -33.1663 218.108 -12.6688 260.686 47.6329C292.112 92.14 345.179 215.03 308.976 292.706" stroke="#C8CFDC"/>
<path opacity="0.842105" d="M143.608 -227.051C127.551 -214.982 100.682 -176.407 121.66 -118.663C147.883 -46.4829 217.393 -18.5667 253.435 45.8553C280.036 93.4035 319.967 221.168 275.843 294.634" stroke="#C8CFDC"/>
<path opacity="0.894737" d="M165.036 -238.956C147.806 -228.631 117.051 -193.077 131.879 -133.456C150.413 -58.9299 216.624 -23.9009 245.735 43.9356C267.22 94.0039 293.577 225.242 242.016 293.694" stroke="#C8CFDC"/>
<path opacity="0.947368" d="M186.92 -247.949C168.705 -239.482 134.402 -207.337 142.917 -146.493C153.559 -70.4382 215.746 -28.6801 237.606 41.8276C253.741 93.8676 266.235 227.142 207.801 289.829" stroke="#C8CFDC"/>
<path d="M208.951 -254C189.95 -247.483 152.476 -219.1 154.583 -157.699C157.218 -80.9486 214.699 -32.9189 229.069 39.4875C239.676 92.9289 238.171 226.779 173.504 283.015" stroke="#C8CFDC"/>
</svg>
