<svg width="500" height="452" viewBox="0 0 500 452" fill="none" xmlns="http://www.w3.org/2000/svg">
<path opacity="0.0526316" d="M280.712 680.77C300.654 678.361 343.226 658.421 353.976 597.932C367.413 522.321 321.218 463.355 322.271 389.544C323.048 335.066 352.447 204.476 427.424 162.97" stroke="#C8CFDC"/>
<path opacity="0.105263" d="M245.613 674.222C265.698 673.911 310.121 658.531 327.135 599.496C348.402 525.704 308.623 462.232 317.386 388.936C323.854 334.837 366.742 208.036 445.646 174.594" stroke="#C8CFDC"/>
<path opacity="0.157895" d="M211.578 664.928C231.585 666.718 277.372 656.065 300.464 599.132C329.328 527.967 296.402 460.685 312.778 388.706C324.865 335.58 380.773 213.956 462.74 188.946" stroke="#C8CFDC"/>
<path opacity="0.210526" d="M178.888 653.011C198.599 656.883 245.249 651.075 274.164 596.868C310.309 529.109 284.596 458.755 308.407 388.881C325.981 337.31 394.295 222.196 478.428 205.891" stroke="#C8CFDC"/>
<path opacity="0.263158" d="M147.81 638.63C167.008 644.54 214.01 643.64 248.433 592.753C291.463 529.144 273.245 456.486 304.229 389.485C327.097 340.033 407.07 232.69 492.446 225.269" stroke="#C8CFDC"/>
<path opacity="0.315789" d="M118.594 621.964C137.069 629.849 183.907 633.866 223.461 586.856C272.904 528.093 262.38 453.93 300.198 390.534C328.11 343.743 418.866 245.348 504.55 246.892" stroke="#C8CFDC"/>
<path opacity="0.368421" d="M91.4672 603.221C109.017 612.994 155.178 621.886 199.43 579.267C254.744 525.995 252.03 451.138 296.267 392.042C328.918 348.425 429.461 260.056 514.515 270.547" stroke="#C8CFDC"/>
<path opacity="0.421053" d="M66.6357 582.631C83.0675 594.185 128.047 607.853 176.51 570.094C237.09 522.895 242.216 448.164 292.388 394.017C329.419 354.052 438.648 276.676 522.14 296" stroke="#C8CFDC"/>
<path opacity="0.473684" d="M44.2815 560.445C59.4155 573.653 102.72 591.947 154.865 559.461C220.046 518.853 232.956 445.067 288.513 396.461C329.518 360.585 446.237 295.051 527.251 322.997" stroke="#C8CFDC"/>
<path opacity="0.526316" d="M24.5553 536.928C38.2257 551.646 79.3805 574.367 134.636 547.509C203.705 513.936 224.256 441.905 284.59 399.372C329.12 367.979 452.05 315.004 529.699 351.265" stroke="#C8CFDC"/>
<path opacity="0.578947" d="M7.58105 512.364C19.6382 528.43 58.1925 555.329 115.952 534.394C188.152 508.225 216.121 438.736 280.57 402.742C328.138 376.176 455.932 336.342 529.365 380.52" stroke="#C8CFDC"/>
<path opacity="0.631579" d="M-6.54127 487.047C3.77047 504.285 39.3019 535.066 98.9337 520.283C173.473 501.805 208.552 435.62 276.41 406.56C326.495 385.112 457.753 358.854 526.166 410.466" stroke="#C8CFDC"/>
<path opacity="0.684211" d="M-17.7548 461.277C-9.30148 479.499 22.8178 513.826 83.6682 505.357C159.731 494.771 201.536 432.616 272.06 410.808C324.112 394.713 457.395 382.319 520.039 440.799" stroke="#C8CFDC"/>
<path opacity="0.736842" d="M-26.0256 435.363C-19.5233 454.368 8.83198 491.864 70.2342 489.803C146.987 487.225 195.06 429.78 267.477 415.464C320.926 404.898 454.775 406.503 510.962 471.212" stroke="#C8CFDC"/>
<path opacity="0.789474" d="M-31.3535 409.611C-26.8734 429.193 -2.59285 469.447 58.6885 473.815C135.29 479.275 189.104 427.169 262.621 420.501C316.882 415.58 449.83 431.167 498.945 501.394" stroke="#C8CFDC"/>
<path opacity="0.842105" d="M-33.7735 384.33C-31.3647 404.272 -11.4249 446.844 49.0642 457.593C124.676 471.03 183.641 424.835 257.452 425.889C311.931 426.666 442.521 456.065 484.027 531.041" stroke="#C8CFDC"/>
<path opacity="0.894737" d="M-33.3511 359.819C-33.0401 379.904 -17.6595 424.327 41.3746 441.341C115.167 462.608 178.639 422.829 251.935 431.592C306.034 438.06 432.836 480.948 466.277 559.852" stroke="#C8CFDC"/>
<path opacity="0.947368" d="M-30.18 336.373C-31.97 356.381 -21.3172 402.168 35.6151 425.259C106.78 454.123 174.062 421.197 246.041 437.573C299.167 449.66 420.792 505.568 445.802 587.536" stroke="#C8CFDC"/>
<path d="M-24.3886 314.273C-28.2602 333.983 -22.4517 380.633 31.755 409.549C99.5134 445.694 169.868 419.981 239.741 443.791C291.313 461.365 406.427 529.68 422.732 613.813" stroke="#C8CFDC"/>
</svg>
