<svg width="119" height="121" viewBox="0 0 119 121" fill="none" xmlns="http://www.w3.org/2000/svg">
<rect width="119" height="121" rx="28" fill="#6863FB"/>
<path fill-rule="evenodd" clip-rule="evenodd" d="M59.2134 66.8423C53.9333 62.5453 41.6885 57.8884 34.9395 73.6494C34.5348 62.2345 46.7349 29.7045 52.8987 23.7679C54.2163 22.3411 57.4492 20.3514 59.8329 23.8171C60.0688 24.164 60.4053 24.6189 60.8235 25.1883C62.2984 27.1879 64.7985 30.575 67.632 35.4545C66.2766 36.0566 65.0784 37.1203 64.3488 38.341C64.8394 38.1119 65.3205 37.8697 65.8017 37.6275C66.6036 37.2217 67.4055 36.8193 68.2263 36.4887C68.6037 37.1564 68.9842 37.8469 69.371 38.5669C67.7231 39.5258 66.286 40.8773 65.3771 42.3205C65.9338 42.0358 66.4872 41.738 67.0407 41.4434C68.0439 40.9067 69.0471 40.3667 70.0691 39.8922C70.4402 40.6024 70.8113 41.3356 71.1824 42.0948C69.3175 43.3744 67.6886 44.9747 66.4998 46.6896C67.0061 46.4016 67.5124 46.1103 68.0219 45.8191C69.3112 45.0795 70.61 44.3333 71.9308 43.646C77.2361 54.8875 82.5507 70.9495 84.0728 92.4148C68.8584 99.6244 65.2325 100.78 54.8422 90.3628C63.2261 90.8471 77.0914 83.271 65.4904 49.0883C54.9302 17.9688 48.8419 38.089 44.0631 53.886C43.5924 55.4405 43.1351 56.9524 42.6873 58.3695C46.5368 57.3746 55.2321 57.6789 59.2134 66.8423Z" fill="white"/>
</svg>
