<svg width="16" height="16" viewBox="0 0 16 16" fill="none" xmlns="http://www.w3.org/2000/svg">
<path d="M7.33331 11.3337L8.66665 12.667C8.79797 12.7983 8.95387 12.9025 9.12545 12.9736C9.29703 13.0446 9.48093 13.0812 9.66665 13.0812C9.85236 13.0812 10.0363 13.0446 10.2078 12.9736C10.3794 12.9025 10.5353 12.7983 10.6666 12.667C10.798 12.5357 10.9021 12.3798 10.9732 12.2082C11.0443 12.0366 11.0809 11.8527 11.0809 11.667C11.0809 11.4813 11.0443 11.2974 10.9732 11.1258C10.9021 10.9542 10.798 10.7983 10.6666 10.667M9.33331 9.33367L11 11.0003C11.2652 11.2656 11.6249 11.4145 12 11.4145C12.3751 11.4145 12.7348 11.2656 13 11.0003C13.2652 10.7351 13.4142 10.3754 13.4142 10.0003C13.4142 9.62526 13.2652 9.26555 13 9.00034L10.4133 6.41367C10.0383 6.03913 9.52998 5.82876 8.99998 5.82876C8.46998 5.82876 7.96165 6.03913 7.58665 6.41367L6.99998 7.00034C6.73476 7.26555 6.37505 7.41455 5.99998 7.41455C5.62491 7.41455 5.2652 7.26555 4.99998 7.00034C4.73476 6.73512 4.58577 6.37541 4.58577 6.00034C4.58577 5.62526 4.73476 5.26555 4.99998 5.00034L6.87331 3.127C7.48147 2.52043 8.27458 2.13404 9.12707 2.02898C9.97957 1.92393 10.8428 2.10622 11.58 2.547L11.8933 2.73367C12.1772 2.90499 12.5147 2.96441 12.84 2.90034L14 2.667M14 2.00034L14.6666 9.33367H13.3333M1.99998 2.00034L1.33331 9.33367L5.66665 13.667C5.93186 13.9322 6.29157 14.0812 6.66665 14.0812C7.04172 14.0812 7.40143 13.9322 7.66665 13.667C7.93186 13.4018 8.08086 13.0421 8.08086 12.667C8.08086 12.2919 7.93186 11.9322 7.66665 11.667M1.99998 2.667H7.33331" stroke="#F2B500" stroke-width="1.33333" stroke-linecap="round" stroke-linejoin="round"/>
</svg>
