<svg width="174" height="174" viewBox="0 0 174 174" fill="none" xmlns="http://www.w3.org/2000/svg">
<path d="M89.2779 138.131C122.827 138.131 150.023 110.772 150.023 77.0125C150.023 43.2535 122.827 15.8828 89.2779 15.8828C55.7293 15.8828 28.5326 43.2535 28.5326 77.0125C28.5326 110.772 55.7293 138.131 89.2779 138.131Z" fill="#EAEEF9"/>
<path d="M164.585 82.9073C166.479 81.167 166.611 78.2151 164.88 76.3097C163.15 74.4042 160.212 74.272 158.319 76.0123C156.426 77.7525 156.294 80.7044 158.024 82.6099C159.754 84.5154 162.692 84.6475 164.585 82.9073Z" fill="#EAEEF9"/>
<path d="M40.6005 30.5675C42.2053 30.0388 43.0832 28.3095 42.5622 26.6904C42.0401 25.0823 40.3164 24.1901 38.7116 24.7188C37.1068 25.2475 36.2289 26.9768 36.7499 28.5959C37.272 30.204 38.9957 31.0961 40.6005 30.5675Z" fill="#EAEEF9"/>
<path d="M21.7939 43.8383C22.8854 43.4858 23.4824 42.3073 23.1277 41.2059C22.7731 40.1154 21.6012 39.5097 20.5096 39.8621C19.4181 40.2256 18.8211 41.4041 19.1758 42.5056C19.5305 43.596 20.7024 44.2018 21.7939 43.8383Z" fill="#EAEEF9"/>
<path d="M160.294 40.1077C161.092 39.3808 161.148 38.1362 160.419 37.3321C159.691 36.5281 158.454 36.473 157.656 37.211C156.859 37.9379 156.803 39.1825 157.532 39.9866C158.26 40.7906 159.497 40.8457 160.294 40.1077Z" fill="#EAEEF9"/>
<path d="M110.958 11.3476C111.507 10.852 111.545 9.99284 111.044 9.44212C110.543 8.8914 109.692 8.84735 109.143 9.35401C108.596 9.86067 108.557 10.7088 109.058 11.2705C109.559 11.8212 110.41 11.8543 110.958 11.3476Z" fill="#EAEEF9"/>
<g filter="url(#filter0_d_1055_40832)">
<path d="M126.254 130.172C126.254 136.208 121.286 140.999 115.431 140.999H62.9176C56.8862 140.999 51.9187 136.032 51.9187 130.172V25.5029C51.9187 19.467 56.8862 14.6758 62.9176 14.6758H115.431C121.463 14.6758 126.254 19.6433 126.254 25.5029V130.172Z" fill="url(#paint0_linear_1055_40832)"/>
</g>
<path d="M120.575 114.387C120.575 117.757 117.914 120.235 114.721 120.235H63.9813C60.6109 120.235 58.1272 117.581 58.1272 114.387V27.4502C58.1272 24.0798 60.7883 21.6016 63.9813 21.6016H114.721C118.092 21.6016 120.575 24.256 120.575 27.4502V114.387Z" fill="#D5DDEA" stroke="#D6DCE8" stroke-width="1.9781"/>
<path d="M89.1738 136.027C92.2115 136.027 94.6744 133.56 94.6744 130.52C94.6744 127.491 92.2115 125.023 89.1738 125.023C86.1371 125.023 83.6743 127.491 83.6743 130.52C83.6743 133.56 86.1371 136.027 89.1738 136.027Z" fill="#C4CFDD"/>
<g filter="url(#filter1_d_1055_40832)">
<path d="M107.979 79.9684V98.2412C107.979 100.896 105.673 103.032 103.189 103.032H27.2582C24.4198 103.032 22.2908 100.719 22.2908 97.8887V79.7921C22.2908 76.9504 24.5972 74.6484 27.2582 74.6484H102.834C105.495 74.8247 107.979 76.9504 107.979 79.9684Z" fill="url(#paint1_linear_1055_40832)"/>
</g>
<path d="M97.3351 85.4632C97.3351 85.8157 97.1578 86.1792 96.6247 86.1792H57.5953C57.2406 86.1792 56.886 85.8157 56.886 85.4632V83.1612C56.886 82.8088 57.2406 82.4453 57.5953 82.4453H96.8031C97.1578 82.4453 97.5125 82.8088 97.5125 83.1612V85.4632H97.3351Z" fill="#D6DCE8"/>
<path d="M81.5449 95.7537H57.5953C57.2406 95.7537 56.886 95.4012 56.886 95.0487V92.923C56.886 92.5595 57.2406 92.207 57.5953 92.207H81.5449C81.9007 92.207 82.2554 92.5595 82.2554 92.923V95.225C82.4327 95.5774 82.078 95.7537 81.5449 95.7537Z" fill="#D6DCE8"/>
<g filter="url(#filter2_d_1055_40832)">
<path d="M151.267 55.3048C151.267 57.7831 149.315 59.7436 146.654 59.7436H77.2866C74.6255 59.7436 72.4965 57.6068 72.4965 54.9524V39.334C72.4965 36.8558 74.4482 34.9062 77.1093 34.9062H146.831C149.315 34.9062 151.444 36.8558 151.444 39.334L151.267 55.3048Z" fill="url(#paint2_linear_1055_40832)"/>
</g>
<path d="M116.14 45.0184H81.545C81.1904 45.0184 80.8357 44.8422 80.8357 44.4787V42.3529C80.8357 42.1767 81.1904 41.8242 81.545 41.8242H116.14C116.317 41.8242 116.85 42.0004 116.85 42.3529V44.4787C116.85 44.8422 116.495 45.0184 116.14 45.0184Z" fill="#D6DCE8"/>
<path d="M102.835 53.534H81.545C81.1904 53.534 80.8357 53.3578 80.8357 53.0053V50.8685C80.8357 50.6923 81.1904 50.3398 81.545 50.3398H102.835C103.012 50.3398 103.544 50.5161 103.544 50.8685V53.0053C103.367 53.1815 103.189 53.534 102.835 53.534Z" fill="#D6DCE8"/>
<path d="M155.703 46.6167C155.703 51.0445 153.751 54.9546 151.09 58.1487C150.913 58.325 150.558 58.6774 150.381 58.8537C147.364 61.6954 143.284 63.2924 139.026 63.2924C135.655 63.2924 132.284 62.2241 129.446 60.4507C128.736 59.9221 128.027 59.2061 127.139 58.6774C124.123 55.8357 121.994 51.5842 121.994 46.7929C121.994 37.5629 129.446 30.1172 138.671 30.1172C148.074 30.1172 155.703 37.5629 155.703 46.6167Z" fill="#E9F0F8"/>
<path d="M155.703 46.6163C155.703 51.5837 153.574 55.8353 150.203 59.0294C147.186 61.8711 143.107 63.4682 138.849 63.4682C135.478 63.4682 132.107 62.3998 129.268 60.6265C124.833 57.7848 121.994 52.6411 121.994 46.9687C121.994 37.7387 129.446 30.293 138.671 30.293C148.074 30.293 155.703 37.5624 155.703 46.6163Z" fill="#F1F3F9"/>
<path d="M151.267 58.3231C151.09 58.4993 150.735 58.8518 150.558 59.028C147.542 61.8697 143.461 63.4668 139.204 63.4668C135.833 63.4668 132.462 62.3984 129.624 60.6251C128.914 60.0964 128.204 59.3805 127.318 58.8518C127.672 58.3231 128.382 57.9706 129.624 57.4309L130.156 57.2547C131.22 56.9022 132.64 56.3736 134.414 55.4814C134.592 55.3052 134.946 55.3052 135.124 54.9527C135.301 54.7765 135.301 54.7765 135.301 54.5892C135.478 54.413 135.478 54.0605 135.478 53.8843V50.5139C135.301 50.3377 135.301 50.3377 135.301 50.3377C135.124 49.9852 134.769 49.4455 134.769 48.9168L134.592 48.7406C133.704 48.9168 133.881 48.0357 133.526 46.2514C133.349 45.5464 133.526 45.3702 133.881 45.3702L134.06 45.0178C133.349 43.5969 133.172 42.3523 133.172 41.2839C133.172 39.5106 133.881 38.4532 134.946 37.9135C134.237 36.6799 134.237 36.3164 134.237 36.3164C134.237 36.3164 137.607 36.8561 138.849 36.6799C140.268 36.5037 142.752 36.8561 143.639 38.8057C145.058 39.3343 145.59 40.2265 145.945 41.2839C146.122 42.881 145.236 44.6543 145.058 45.3702V45.5464C145.236 45.7227 145.236 45.7227 145.236 46.4386C145.058 48.2119 145.058 49.0931 144.172 48.9168L143.284 50.3377C143.284 50.5139 143.284 50.5139 143.107 50.5139C143.107 50.6901 143.107 51.4061 143.107 54.0605C143.107 54.2368 143.284 54.7765 143.284 54.9527C143.461 55.1289 143.461 55.1289 143.461 55.1289C143.639 55.3052 143.816 55.4814 144.172 55.4814C146.122 56.3736 147.542 56.9022 148.784 57.2547C150.026 57.7834 150.735 57.9706 151.267 58.3231Z" fill="white"/>
<path d="M151.267 58.3235C151.09 58.4997 150.735 58.8522 150.558 59.0284C147.542 61.8701 143.461 63.4672 139.204 63.4672C135.833 63.4672 132.462 62.3988 129.624 60.6255C128.914 60.0968 128.204 59.3809 127.318 58.8522C127.672 58.3235 128.382 57.9711 129.624 57.4314L130.156 57.2551C131.22 56.9027 132.64 56.374 134.414 55.4818C134.592 55.3056 134.946 55.3056 135.124 54.9531C136.187 56.374 137.785 57.2551 139.736 57.2551C141.688 57.2551 143.107 56.374 144.172 55.1294C144.349 55.3056 144.526 55.4818 144.881 55.4818C146.833 56.374 148.252 56.9027 149.494 57.2551C150.735 57.6076 150.913 57.9711 151.267 58.3235Z" fill="#D6DCE8"/>
<path d="M144.881 45.0178C145.058 44.6543 144.704 44.1256 144.704 43.5969C144.704 43.4207 144.525 43.4207 144.525 43.4207C143.816 41.9998 142.22 41.6474 140.978 41.4711C137.253 41.2839 136.897 41.9998 135.833 40.9314C136.187 41.4711 136.187 42.3523 135.655 43.4207C135.301 44.1256 134.591 44.478 133.704 44.8415C131.929 41.1077 132.994 38.6294 134.413 37.9135C133.704 36.6799 133.704 36.3164 133.704 36.3164C133.704 36.3164 137.075 36.8561 138.317 36.6799C139.736 36.5037 142.22 36.8561 143.107 38.8057C144.525 39.3343 145.058 40.2265 145.413 41.2839C145.945 42.7047 145.236 44.478 144.881 45.0178Z" fill="#AAB2C5"/>
<path d="M49.0789 89.7255C49.0789 94.5167 47.1283 98.7683 43.7568 101.786C42.8701 102.678 41.8051 103.207 40.7411 103.912C38.4347 105.333 35.4189 106.049 32.4032 106.049C29.3864 106.049 26.548 105.333 24.0642 104.088C23.5322 103.912 23.3549 103.56 23.0002 103.383C18.7421 100.542 15.9037 95.3979 15.9037 89.9017C15.9037 80.6717 23.3549 73.5784 32.4032 73.5784C41.8051 73.226 49.0789 80.6717 49.0789 89.7255Z" fill="#F1F3F9"/>
<path fill-rule="evenodd" clip-rule="evenodd" d="M40.2093 97.698C41.8064 98.5901 42.5157 99.6585 43.225 101.079C43.3137 101.167 43.225 101.256 43.1142 101.366C43.0034 101.476 42.8704 101.608 42.8704 101.784C42.5804 102.015 42.3474 102.228 42.1277 102.428C41.6758 102.841 41.2808 103.202 40.564 103.558L24.5976 103.91C24.4202 103.822 24.2426 103.69 24.065 103.558C23.8874 103.425 23.7098 103.293 23.5325 103.205V103.029C23.8871 101.432 24.7749 99.6585 26.1935 98.5901C26.1935 98.4139 26.5482 98.2377 26.904 98.2377C26.0147 98.1115 25.3078 97.7992 24.7826 97.5672C24.574 97.4751 24.3941 97.3956 24.2429 97.3455C22.8231 95.5722 23.8871 92.7305 27.2586 91.8493L27.968 91.6731C27.968 91.4969 28.1453 91.4969 28.1453 91.4969C27.9059 91.3147 27.6665 91.194 27.4407 91.0802C26.9974 90.8568 26.6066 90.6598 26.3709 90.076C26.1935 89.3601 26.1935 88.8314 26.5482 88.6552C26.5482 88.6552 26.7266 88.6552 26.7266 88.4789C26.7831 88.4789 26.8036 88.4789 26.8053 88.4733C26.809 88.4611 26.7266 88.4228 26.7266 88.3027V88.1265V87.9503C26.5482 86.7056 26.5482 85.6372 26.904 84.5799C27.436 83.5115 28.1453 82.6193 28.8546 81.7382L29.0319 81.5619C29.0319 81.4531 29.1 81.4115 29.1937 81.3541C29.2518 81.3185 29.3199 81.2769 29.3877 81.2095C30.097 80.4935 30.9837 80.1411 31.5157 80.1411C31.6757 80.1411 31.8714 80.1054 32.0868 80.0662C32.3501 80.0182 32.6428 79.9648 32.9354 79.9648C35.5965 79.9648 37.7256 81.5619 38.9669 83.6877C39.3173 84.382 39.4946 85.087 39.6693 85.7816L39.6773 85.8135V86.1769V86.5294V87.0581C39.6773 87.2343 39.766 87.4574 39.8547 87.6804C39.9433 87.9034 40.032 88.1265 40.032 88.3027C40.032 89.3601 39.5 90.076 38.6122 90.2523C38.4349 91.3207 38.0802 92.2018 37.5482 92.7305C37.3887 92.8924 37.2131 93.0849 37.0263 93.2898C36.5902 93.768 36.0931 94.3132 35.5965 94.691V96.993C35.5965 96.993 35.7738 96.993 36.8389 97.1693H37.1936H37.9029C38.5231 97.1693 39.0571 97.3417 39.5648 97.5057C39.7829 97.5761 39.9962 97.645 40.2093 97.698ZM29.3875 93.621C29.2986 93.4887 29.2096 93.3563 29.0315 93.2681L28.3222 93.973C28.3222 94.5128 28.8542 95.0414 29.5646 95.5701C29.6533 95.5701 29.6976 95.6142 29.742 95.6582C29.7863 95.7023 29.8306 95.7464 29.9193 95.7464C30.0955 95.8339 30.1842 95.878 30.2723 95.9231C30.3615 95.9688 30.4502 96.0156 30.6286 96.1098C30.6286 96.1098 30.806 96.1098 30.9833 96.2861L31.1606 96.4623V95.0414L30.9833 94.8652C30.9833 94.689 30.806 94.689 30.806 94.689C30.806 94.689 30.6286 94.689 30.4513 94.5128C30.2526 94.3091 30.1652 94.2196 30.0645 94.1492C29.9853 94.094 29.8979 94.0506 29.742 93.973C29.5648 93.885 29.4762 93.7531 29.3875 93.621Z" fill="white"/>
<path d="M43.7572 101.784C42.8705 102.676 41.8054 103.205 40.7414 103.91C38.435 105.331 35.4193 106.047 32.4036 106.047C29.3867 106.047 26.5483 105.155 24.0646 103.91C23.5326 103.734 23.3553 103.558 23.0006 103.205C23.0006 103.029 23.0006 103.029 23.0006 103.029C23.3553 101.432 24.0646 99.6586 25.6617 98.5902C25.839 98.2377 26.1937 98.2377 26.371 98.0615C25.1297 97.8852 24.4193 97.3455 23.7099 96.6406H27.6134C28.6774 98.0615 30.6292 99.1189 32.5809 99.1189C34.3542 99.1189 35.9513 98.4139 37.0153 97.3455C37.1937 97.3455 37.371 97.3455 37.371 97.3455C37.7257 97.3455 37.7257 97.3455 38.0804 97.3455C38.7897 97.3455 39.6775 97.5218 40.3868 97.8852C41.8054 98.5902 42.6932 99.6586 43.5798 101.256C43.7572 101.432 43.7572 101.432 43.7572 101.784Z" fill="#D6DCE8"/>
<path d="M40.2085 85.9908C38.9661 86.3543 37.5475 86.5305 36.305 86.5305C34.176 86.3543 32.0469 85.6383 30.4509 84.0412C29.9178 85.4621 28.4992 86.7067 27.0794 87.4116C26.7248 87.5879 26.7248 87.5879 26.3701 87.5879C26.3701 87.5879 26.3701 87.5879 26.3701 87.4116C26.1928 86.3543 26.1928 85.2859 26.7248 84.0412C27.0794 82.9839 27.7898 82.0917 28.6765 81.2106L28.8538 81.0233C29.0312 80.8471 29.2085 80.8471 29.2085 80.6709C29.9178 80.1422 30.8056 79.7897 31.8696 79.4262C32.4016 79.25 32.9347 79.25 33.2893 79.25C35.9504 79.25 38.2568 80.6709 39.3208 82.9839C39.6754 83.865 40.0312 84.581 40.0312 85.1096C40.2085 85.4621 40.2085 85.8146 40.2085 85.9908Z" fill="#AAB2C5"/>
<path d="M32.0488 100.896C31.3384 101.612 30.4517 101.612 29.3877 101.612C30.2744 100.72 29.7424 97.713 26.3709 98.0655C21.7592 97.1733 22.2912 92.5583 26.7267 91.3247L27.436 91.1484H27.6133C27.968 92.0296 28.3227 92.9217 29.0331 93.4504C27.0813 94.8713 29.7424 95.2238 30.9837 96.6446C32.0488 97.1733 32.9355 99.6625 32.0488 100.896Z" fill="#AAB2C5"/>
<defs>
<filter id="filter0_d_1055_40832" x="29.9187" y="3.67578" width="118.335" height="170.324" filterUnits="userSpaceOnUse" color-interpolation-filters="sRGB">
<feFlood flood-opacity="0" result="BackgroundImageFix"/>
<feColorMatrix in="SourceAlpha" type="matrix" values="0 0 0 0 0 0 0 0 0 0 0 0 0 0 0 0 0 0 127 0" result="hardAlpha"/>
<feOffset dy="11"/>
<feGaussianBlur stdDeviation="11"/>
<feColorMatrix type="matrix" values="0 0 0 0 0.396078 0 0 0 0 0.478431 0 0 0 0 0.576471 0 0 0 0.27 0"/>
<feBlend mode="normal" in2="BackgroundImageFix" result="effect1_dropShadow_1055_40832"/>
<feBlend mode="normal" in="SourceGraphic" in2="effect1_dropShadow_1055_40832" result="shape"/>
</filter>
<filter id="filter1_d_1055_40832" x="0.290771" y="63.6484" width="129.688" height="72.3828" filterUnits="userSpaceOnUse" color-interpolation-filters="sRGB">
<feFlood flood-opacity="0" result="BackgroundImageFix"/>
<feColorMatrix in="SourceAlpha" type="matrix" values="0 0 0 0 0 0 0 0 0 0 0 0 0 0 0 0 0 0 127 0" result="hardAlpha"/>
<feOffset dy="11"/>
<feGaussianBlur stdDeviation="11"/>
<feColorMatrix type="matrix" values="0 0 0 0 0.396078 0 0 0 0 0.478431 0 0 0 0 0.576471 0 0 0 0.27 0"/>
<feBlend mode="normal" in2="BackgroundImageFix" result="effect1_dropShadow_1055_40832"/>
<feBlend mode="normal" in="SourceGraphic" in2="effect1_dropShadow_1055_40832" result="shape"/>
</filter>
<filter id="filter2_d_1055_40832" x="50.4965" y="23.9062" width="122.948" height="68.8359" filterUnits="userSpaceOnUse" color-interpolation-filters="sRGB">
<feFlood flood-opacity="0" result="BackgroundImageFix"/>
<feColorMatrix in="SourceAlpha" type="matrix" values="0 0 0 0 0 0 0 0 0 0 0 0 0 0 0 0 0 0 127 0" result="hardAlpha"/>
<feOffset dy="11"/>
<feGaussianBlur stdDeviation="11"/>
<feColorMatrix type="matrix" values="0 0 0 0 0.396078 0 0 0 0 0.478431 0 0 0 0 0.576471 0 0 0 0.27 0"/>
<feBlend mode="normal" in2="BackgroundImageFix" result="effect1_dropShadow_1055_40832"/>
<feBlend mode="normal" in="SourceGraphic" in2="effect1_dropShadow_1055_40832" result="shape"/>
</filter>
<linearGradient id="paint0_linear_1055_40832" x1="50.6318" y1="11.7499" x2="50.6318" y2="142.365" gradientUnits="userSpaceOnUse">
<stop stop-color="#FDFEFF"/>
<stop offset="0.9964" stop-color="#ECF0F5"/>
</linearGradient>
<linearGradient id="paint1_linear_1055_40832" x1="20.8073" y1="73.991" x2="20.8073" y2="103.339" gradientUnits="userSpaceOnUse">
<stop stop-color="#FDFEFF"/>
<stop offset="0.9964" stop-color="#ECF0F5"/>
</linearGradient>
<linearGradient id="paint2_linear_1055_40832" x1="71.1297" y1="34.331" x2="71.1297" y2="60.0121" gradientUnits="userSpaceOnUse">
<stop stop-color="#FDFEFF"/>
<stop offset="0.9964" stop-color="#ECF0F5"/>
</linearGradient>
</defs>
</svg>
