<svg width="249" height="181" viewBox="0 0 249 181" fill="none" xmlns="http://www.w3.org/2000/svg">
<circle opacity="0.5" cx="60" cy="86" r="60" fill="#0062F1"/>
<circle opacity="0.5" cx="165.729" cy="50.7293" r="50.7293" fill="#0CB0F7"/>
<circle opacity="0.5" cx="131.82" cy="146.82" r="33.8195" fill="#83C413"/>
<circle opacity="0.5" cx="207" cy="135" r="42" fill="#10366F"/>
<path d="M16.804 84.8189C16.7756 84.5324 16.6536 84.3099 16.4382 84.1513C16.2228 83.9927 15.9304 83.9134 15.5611 83.9134C15.3101 83.9134 15.0982 83.9489 14.9254 84.0199C14.7526 84.0885 14.62 84.1844 14.5277 84.3075C14.4377 84.4306 14.3928 84.5703 14.3928 84.7266C14.388 84.8568 14.4152 84.9704 14.4744 85.0675C14.536 85.1645 14.62 85.2486 14.7266 85.3196C14.8331 85.3883 14.9562 85.4486 15.0959 85.5007C15.2356 85.5504 15.3847 85.593 15.5433 85.6286L16.1967 85.7848C16.514 85.8558 16.8052 85.9505 17.0703 86.0689C17.3355 86.1873 17.5651 86.3329 17.7592 86.5057C17.9534 86.6785 18.1037 86.8821 18.2102 87.1165C18.3191 87.3509 18.3748 87.6196 18.3771 87.9226C18.3748 88.3677 18.2611 88.7536 18.0362 89.0803C17.8137 89.4046 17.4917 89.6567 17.0703 89.8366C16.6513 90.0142 16.1458 90.103 15.554 90.103C14.9669 90.103 14.4555 90.013 14.0199 89.8331C13.5866 89.6532 13.2481 89.3868 13.0043 89.0341C12.7628 88.679 12.6361 88.2398 12.6243 87.7166H14.1122C14.1288 87.9605 14.1986 88.1641 14.3217 88.3274C14.4472 88.4884 14.6141 88.6103 14.8224 88.6932C15.0331 88.7737 15.2711 88.8139 15.5362 88.8139C15.7966 88.8139 16.0227 88.776 16.2145 88.7003C16.4086 88.6245 16.5589 88.5192 16.6655 88.3842C16.772 88.2493 16.8253 88.0942 16.8253 87.919C16.8253 87.7557 16.7768 87.6184 16.6797 87.5071C16.585 87.3958 16.4453 87.3011 16.2607 87.223C16.0784 87.1449 15.8546 87.0739 15.5895 87.0099L14.7976 86.8111C14.1844 86.6619 13.7003 86.4287 13.3452 86.1115C12.9901 85.7943 12.8137 85.367 12.8161 84.8295C12.8137 84.3892 12.9309 84.0045 13.1676 83.6754C13.4067 83.3464 13.7346 83.0895 14.1513 82.9048C14.5679 82.7202 15.0414 82.6278 15.5717 82.6278C16.1115 82.6278 16.5826 82.7202 16.9851 82.9048C17.3899 83.0895 17.7048 83.3464 17.9297 83.6754C18.1546 84.0045 18.2706 84.3857 18.2777 84.8189H16.804ZM21.8688 90.1065C21.3077 90.1065 20.8248 89.9929 20.4199 89.7656C20.0175 89.536 19.7073 89.2116 19.4895 88.7926C19.2717 88.3712 19.1628 87.8729 19.1628 87.2976C19.1628 86.7365 19.2717 86.2441 19.4895 85.8203C19.7073 85.3965 20.0139 85.0663 20.4093 84.8295C20.807 84.5928 21.2734 84.4744 21.8084 84.4744C22.1683 84.4744 22.5033 84.5324 22.8134 84.6484C23.1259 84.7621 23.3981 84.9337 23.6301 85.1634C23.8645 85.393 24.0468 85.6818 24.177 86.0298C24.3072 86.3755 24.3723 86.7803 24.3723 87.2443V87.6598H19.7665V86.7223H22.9483C22.9483 86.5045 22.901 86.3116 22.8063 86.1435C22.7116 85.9754 22.5802 85.844 22.4121 85.7493C22.2464 85.6522 22.0534 85.6037 21.8333 85.6037C21.6036 85.6037 21.4 85.657 21.2225 85.7635C21.0473 85.8677 20.91 86.0085 20.8105 86.1861C20.7111 86.3613 20.6602 86.5566 20.6578 86.772V87.6634C20.6578 87.9332 20.7076 88.1664 20.807 88.3629C20.9088 88.5594 21.052 88.7109 21.2367 88.8175C21.4213 88.924 21.6403 88.9773 21.8936 88.9773C22.0617 88.9773 22.2156 88.9536 22.3553 88.9062C22.495 88.8589 22.6145 88.7879 22.714 88.6932C22.8134 88.5985 22.8891 88.4825 22.9412 88.3452L24.3404 88.4375C24.2694 88.7737 24.1238 89.0672 23.9036 89.3182C23.6858 89.5668 23.4041 89.7609 23.0584 89.9006C22.7151 90.0379 22.3186 90.1065 21.8688 90.1065ZM27.824 90.1065C27.2653 90.1065 26.7847 89.9882 26.3823 89.7514C25.9822 89.5123 25.6744 89.1809 25.459 88.7571C25.2459 88.3333 25.1394 87.8456 25.1394 87.294C25.1394 86.7353 25.2471 86.2453 25.4625 85.8239C25.6803 85.4001 25.9893 85.0698 26.3894 84.8331C26.7895 84.594 27.2653 84.4744 27.8169 84.4744C28.2928 84.4744 28.7095 84.5608 29.0669 84.7337C29.4244 84.9065 29.7073 85.1491 29.9157 85.4616C30.124 85.7741 30.2388 86.1411 30.2601 86.5625H28.8326C28.7923 86.2902 28.6858 86.0713 28.513 85.9055C28.3425 85.7375 28.1188 85.6534 27.8418 85.6534C27.6074 85.6534 27.4026 85.7173 27.2275 85.8452C27.0546 85.9706 26.9197 86.1541 26.8226 86.3956C26.7256 86.6371 26.677 86.9295 26.677 87.2727C26.677 87.6207 26.7244 87.9167 26.8191 88.1605C26.9161 88.4044 27.0523 88.5902 27.2275 88.718C27.4026 88.8459 27.6074 88.9098 27.8418 88.9098C28.0146 88.9098 28.1697 88.8743 28.307 88.8033C28.4467 88.7322 28.5615 88.6293 28.6515 88.4943C28.7438 88.357 28.8042 88.1925 28.8326 88.0007H30.2601C30.2364 88.4174 30.1228 88.7843 29.9192 89.1016C29.718 89.4164 29.4398 89.6626 29.0847 89.8402C28.7296 90.0178 28.3094 90.1065 27.824 90.1065ZM34.13 84.5455V85.6818H30.8452V84.5455H34.13ZM31.5909 83.2386H33.1037V88.3239C33.1037 88.4635 33.125 88.5724 33.1676 88.6506C33.2102 88.7263 33.2694 88.7796 33.3452 88.8104C33.4233 88.8411 33.5133 88.8565 33.6151 88.8565C33.6861 88.8565 33.7571 88.8506 33.8281 88.8388C33.8991 88.8246 33.9536 88.8139 33.9915 88.8068L34.2294 89.9325C34.1536 89.9562 34.0471 89.9834 33.9098 90.0142C33.7725 90.0473 33.6056 90.0675 33.4091 90.0746C33.0445 90.0888 32.7249 90.0402 32.4503 89.929C32.178 89.8177 31.9661 89.6449 31.8146 89.4105C31.6631 89.1761 31.5885 88.8802 31.5909 88.5227V83.2386ZM37.5213 90.1065C36.9697 90.1065 36.4927 89.9893 36.0902 89.755C35.6901 89.5182 35.3812 89.1892 35.1634 88.7678C34.9455 88.344 34.8366 87.8527 34.8366 87.294C34.8366 86.7306 34.9455 86.2382 35.1634 85.8168C35.3812 85.393 35.6901 85.0639 36.0902 84.8295C36.4927 84.5928 36.9697 84.4744 37.5213 84.4744C38.0729 84.4744 38.5488 84.5928 38.9489 84.8295C39.3513 85.0639 39.6615 85.393 39.8793 85.8168C40.0971 86.2382 40.206 86.7306 40.206 87.294C40.206 87.8527 40.0971 88.344 39.8793 88.7678C39.6615 89.1892 39.3513 89.5182 38.9489 89.755C38.5488 89.9893 38.0729 90.1065 37.5213 90.1065ZM37.5284 88.9347C37.7794 88.9347 37.9889 88.8636 38.157 88.7216C38.325 88.5772 38.4517 88.3807 38.5369 88.1321C38.6245 87.8835 38.6683 87.6006 38.6683 87.2834C38.6683 86.9661 38.6245 86.6832 38.5369 86.4347C38.4517 86.1861 38.325 85.9896 38.157 85.8452C37.9889 85.7008 37.7794 85.6286 37.5284 85.6286C37.2751 85.6286 37.062 85.7008 36.8892 85.8452C36.7188 85.9896 36.5897 86.1861 36.5021 86.4347C36.4169 86.6832 36.3743 86.9661 36.3743 87.2834C36.3743 87.6006 36.4169 87.8835 36.5021 88.1321C36.5897 88.3807 36.7188 88.5772 36.8892 88.7216C37.062 88.8636 37.2751 88.9347 37.5284 88.9347ZM41.1896 90V84.5455H42.6562V85.4972H42.7131C42.8125 85.1586 42.9794 84.9029 43.2138 84.7301C43.4482 84.5549 43.718 84.4673 44.0234 84.4673C44.0992 84.4673 44.1809 84.4721 44.2685 84.4815C44.3561 84.491 44.433 84.504 44.4993 84.5206V85.8629C44.4283 85.8416 44.33 85.8227 44.2045 85.8061C44.0791 85.7895 43.9643 85.7812 43.8601 85.7812C43.6375 85.7812 43.4387 85.8298 43.2635 85.9268C43.0907 86.0215 42.9534 86.1541 42.8516 86.3246C42.7521 86.495 42.7024 86.6915 42.7024 86.9141V90H41.1896ZM54.3075 86.3636C54.3075 87.1567 54.1572 87.8314 53.8565 88.3878C53.5582 88.9441 53.151 89.3691 52.6349 89.6626C52.1212 89.9538 51.5436 90.0994 50.902 90.0994C50.2557 90.0994 49.6757 89.9527 49.1619 89.6591C48.6482 89.3655 48.2422 88.9406 47.9439 88.3842C47.6456 87.8279 47.4964 87.1544 47.4964 86.3636C47.4964 85.5705 47.6456 84.8958 47.9439 84.3395C48.2422 83.7831 48.6482 83.3594 49.1619 83.0682C49.6757 82.7746 50.2557 82.6278 50.902 82.6278C51.5436 82.6278 52.1212 82.7746 52.6349 83.0682C53.151 83.3594 53.5582 83.7831 53.8565 84.3395C54.1572 84.8958 54.3075 85.5705 54.3075 86.3636ZM52.7486 86.3636C52.7486 85.8499 52.6716 85.4167 52.5178 85.0639C52.3662 84.7112 52.152 84.4437 51.875 84.2614C51.598 84.0791 51.2737 83.9879 50.902 83.9879C50.5303 83.9879 50.206 84.0791 49.929 84.2614C49.652 84.4437 49.4366 84.7112 49.2827 85.0639C49.1312 85.4167 49.0554 85.8499 49.0554 86.3636C49.0554 86.8774 49.1312 87.3106 49.2827 87.6634C49.4366 88.0161 49.652 88.2836 49.929 88.4659C50.206 88.6482 50.5303 88.7393 50.902 88.7393C51.2737 88.7393 51.598 88.6482 51.875 88.4659C52.152 88.2836 52.3662 88.0161 52.5178 87.6634C52.6716 87.3106 52.7486 86.8774 52.7486 86.3636ZM58.3514 84.5455V85.6818H54.9849V84.5455H58.3514ZM55.7555 90V84.1513C55.7555 83.7559 55.8324 83.428 55.9863 83.1676C56.1426 82.9072 56.3556 82.7119 56.6255 82.5817C56.8954 82.4515 57.202 82.3864 57.5453 82.3864C57.7773 82.3864 57.9892 82.4041 58.1809 82.4396C58.3751 82.4751 58.5195 82.5071 58.6142 82.5355L58.3443 83.6719C58.2851 83.6529 58.2117 83.6352 58.1241 83.6186C58.0389 83.602 57.9513 83.5938 57.8613 83.5938C57.6388 83.5938 57.4837 83.6458 57.3961 83.75C57.3085 83.8518 57.2647 83.995 57.2647 84.1797V90H55.7555ZM68.0353 85.2734H66.4799C66.4515 85.0722 66.3935 84.8935 66.3059 84.7372C66.2183 84.5786 66.1059 84.4437 65.9686 84.3324C65.8313 84.2211 65.6726 84.1359 65.4927 84.0767C65.3152 84.0175 65.1222 83.9879 64.9139 83.9879C64.5375 83.9879 64.2096 84.0814 63.9302 84.2685C63.6509 84.4531 63.4342 84.723 63.2804 85.0781C63.1265 85.4309 63.0495 85.8594 63.0495 86.3636C63.0495 86.8821 63.1265 87.3177 63.2804 87.6705C63.4366 88.0232 63.6544 88.2895 63.9338 88.4695C64.2131 88.6494 64.5363 88.7393 64.9032 88.7393C65.1092 88.7393 65.2998 88.7121 65.475 88.6577C65.6525 88.6032 65.81 88.5239 65.9473 88.4197C66.0846 88.3132 66.1982 88.1842 66.2882 88.0327C66.3805 87.8812 66.4444 87.7083 66.4799 87.5142L68.0353 87.5213C67.9951 87.8551 67.8945 88.1771 67.7335 88.4872C67.5749 88.795 67.3606 89.0708 67.0907 89.3146C66.8232 89.5561 66.5036 89.7479 66.1319 89.8899C65.7626 90.0296 65.3448 90.0994 64.8784 90.0994C64.2297 90.0994 63.6497 89.9527 63.1383 89.6591C62.6293 89.3655 62.2269 88.9406 61.9309 88.3842C61.6374 87.8279 61.4906 87.1544 61.4906 86.3636C61.4906 85.5705 61.6397 84.8958 61.938 84.3395C62.2363 83.7831 62.6412 83.3594 63.1525 83.0682C63.6639 82.7746 64.2392 82.6278 64.8784 82.6278C65.2998 82.6278 65.6904 82.687 66.0502 82.8054C66.4125 82.9238 66.7333 83.0966 67.0126 83.3239C67.292 83.5488 67.5192 83.8246 67.6944 84.1513C67.872 84.478 67.9856 84.852 68.0353 85.2734ZM71.574 90.1065C71.0224 90.1065 70.5454 89.9893 70.1429 89.755C69.7428 89.5182 69.4339 89.1892 69.2161 88.7678C68.9983 88.344 68.8894 87.8527 68.8894 87.294C68.8894 86.7306 68.9983 86.2382 69.2161 85.8168C69.4339 85.393 69.7428 85.0639 70.1429 84.8295C70.5454 84.5928 71.0224 84.4744 71.574 84.4744C72.1257 84.4744 72.6015 84.5928 73.0016 84.8295C73.4041 85.0639 73.7142 85.393 73.932 85.8168C74.1498 86.2382 74.2587 86.7306 74.2587 87.294C74.2587 87.8527 74.1498 88.344 73.932 88.7678C73.7142 89.1892 73.4041 89.5182 73.0016 89.755C72.6015 89.9893 72.1257 90.1065 71.574 90.1065ZM71.5811 88.9347C71.8321 88.9347 72.0416 88.8636 72.2097 88.7216C72.3778 88.5772 72.5044 88.3807 72.5897 88.1321C72.6773 87.8835 72.7211 87.6006 72.7211 87.2834C72.7211 86.9661 72.6773 86.6832 72.5897 86.4347C72.5044 86.1861 72.3778 85.9896 72.2097 85.8452C72.0416 85.7008 71.8321 85.6286 71.5811 85.6286C71.3278 85.6286 71.1148 85.7008 70.9419 85.8452C70.7715 85.9896 70.6425 86.1861 70.5549 86.4347C70.4696 86.6832 70.427 86.9661 70.427 87.2834C70.427 87.6006 70.4696 87.8835 70.5549 88.1321C70.6425 88.3807 70.7715 88.5772 70.9419 88.7216C71.1148 88.8636 71.3278 88.9347 71.5811 88.9347ZM75.2424 90V84.5455H76.6841V85.5078H76.748C76.8617 85.1882 77.0511 84.9361 77.3162 84.7514C77.5814 84.5668 77.8986 84.4744 78.2679 84.4744C78.642 84.4744 78.9604 84.5679 79.2232 84.755C79.486 84.9396 79.6612 85.1906 79.7488 85.5078H79.8056C79.9168 85.1953 80.1181 84.9455 80.4093 84.7585C80.7028 84.5691 81.0497 84.4744 81.4498 84.4744C81.9587 84.4744 82.3719 84.6366 82.6891 84.9609C83.0087 85.2829 83.1685 85.7398 83.1685 86.3317V90H81.6593V86.63C81.6593 86.3269 81.5788 86.0997 81.4178 85.9482C81.2568 85.7966 81.0556 85.7209 80.8141 85.7209C80.5395 85.7209 80.3252 85.8085 80.1713 85.9837C80.0175 86.1565 79.9405 86.3849 79.9405 86.669V90H78.4739V86.598C78.4739 86.3305 78.397 86.1174 78.2431 85.9588C78.0916 85.8002 77.8915 85.7209 77.6429 85.7209C77.4748 85.7209 77.3233 85.7635 77.1884 85.8487C77.0558 85.9316 76.9505 86.0488 76.8723 86.2003C76.7942 86.3494 76.7551 86.5246 76.7551 86.7259V90H75.2424ZM84.3635 92.0455V84.5455H85.8549V85.4616H85.9224C85.9887 85.3149 86.0846 85.1657 86.21 85.0142C86.3379 84.8603 86.5036 84.7325 86.7072 84.6307C86.9132 84.5265 87.1689 84.4744 87.4743 84.4744C87.872 84.4744 88.2389 84.5786 88.5751 84.7869C88.9113 84.9929 89.18 85.3042 89.3812 85.7209C89.5824 86.1352 89.6831 86.6548 89.6831 87.2798C89.6831 87.8883 89.5848 88.402 89.3883 88.821C89.1942 89.2377 88.929 89.5537 88.5929 89.7692C88.2591 89.9822 87.885 90.0888 87.4707 90.0888C87.1771 90.0888 86.9274 90.0402 86.7214 89.9432C86.5178 89.8461 86.3509 89.7242 86.2207 89.5774C86.0905 89.4283 85.9911 89.2779 85.9224 89.1264H85.8762V92.0455H84.3635ZM85.8443 87.2727C85.8443 87.5971 85.8893 87.88 85.9792 88.1214C86.0692 88.3629 86.1994 88.5511 86.3699 88.6861C86.5403 88.8187 86.7475 88.8849 86.9913 88.8849C87.2375 88.8849 87.4458 88.8175 87.6163 88.6825C87.7868 88.5452 87.9158 88.3558 88.0034 88.1143C88.0933 87.8705 88.1383 87.59 88.1383 87.2727C88.1383 86.9579 88.0945 86.6809 88.0069 86.4418C87.9193 86.2027 87.7903 86.0156 87.6199 85.8807C87.4494 85.7457 87.2399 85.6783 86.9913 85.6783C86.7451 85.6783 86.5368 85.7434 86.3663 85.8736C86.1982 86.0038 86.0692 86.1884 85.9792 86.4276C85.8893 86.6667 85.8443 86.9484 85.8443 87.2727ZM92.247 90.103C91.899 90.103 91.5888 90.0426 91.3166 89.9219C91.0443 89.7988 90.8289 89.6177 90.6703 89.3786C90.514 89.1371 90.4359 88.8364 90.4359 88.4766C90.4359 88.1735 90.4915 87.919 90.6028 87.7131C90.7141 87.5071 90.8656 87.3414 91.0574 87.2159C91.2491 87.0904 91.4669 86.9957 91.7108 86.9318C91.957 86.8679 92.215 86.8229 92.4849 86.7969C92.8021 86.7637 93.0578 86.733 93.252 86.7045C93.4461 86.6738 93.5869 86.6288 93.6745 86.5696C93.7621 86.5104 93.8059 86.4228 93.8059 86.3068V86.2855C93.8059 86.0606 93.7349 85.8866 93.5929 85.7635C93.4532 85.6404 93.2543 85.5788 92.9963 85.5788C92.724 85.5788 92.5074 85.6392 92.3464 85.7599C92.1854 85.8783 92.0789 86.0275 92.0268 86.2074L90.6277 86.0938C90.6987 85.7623 90.8384 85.4759 91.0467 85.2344C91.255 84.9905 91.5237 84.8035 91.8528 84.6733C92.1842 84.5407 92.5678 84.4744 93.0034 84.4744C93.3064 84.4744 93.5964 84.5099 93.8734 84.581C94.1528 84.652 94.4002 84.7621 94.6156 84.9112C94.8334 85.0604 95.005 85.2521 95.1305 85.4865C95.256 85.7185 95.3187 85.9967 95.3187 86.321V90H93.8841V89.2436H93.8414C93.7538 89.4141 93.6367 89.5644 93.4899 89.6946C93.3431 89.8224 93.1667 89.9231 92.9608 89.9964C92.7548 90.0675 92.5169 90.103 92.247 90.103ZM92.6802 89.0589C92.9028 89.0589 93.0993 89.0152 93.2697 88.9276C93.4402 88.8376 93.5739 88.7169 93.671 88.5653C93.7681 88.4138 93.8166 88.2422 93.8166 88.0504V87.4716C93.7692 87.5024 93.7041 87.5308 93.6213 87.5568C93.5408 87.5805 93.4496 87.603 93.3478 87.6243C93.246 87.6432 93.1442 87.661 93.0424 87.6776C92.9406 87.6918 92.8483 87.7048 92.7654 87.7166C92.5879 87.7427 92.4328 87.7841 92.3002 87.8409C92.1677 87.8977 92.0647 87.9747 91.9913 88.0717C91.9179 88.1664 91.8812 88.2848 91.8812 88.4268C91.8812 88.6328 91.9558 88.7902 92.1049 88.8991C92.2565 89.0057 92.4482 89.0589 92.6802 89.0589ZM98.0051 86.8466V90H96.4924V84.5455H97.9341V85.5078H97.998C98.1188 85.1906 98.3212 84.9396 98.6053 84.755C98.8894 84.5679 99.2338 84.4744 99.6387 84.4744C100.017 84.4744 100.348 84.5573 100.629 84.723C100.911 84.8887 101.13 85.1255 101.286 85.4332C101.443 85.7386 101.521 86.1032 101.521 86.527V90H100.008V86.7969C100.01 86.4631 99.9251 86.2027 99.7523 86.0156C99.5795 85.8262 99.3416 85.7315 99.0385 85.7315C98.8349 85.7315 98.655 85.7753 98.4988 85.8629C98.3449 85.9505 98.2241 86.0784 98.1365 86.2464C98.0513 86.4122 98.0075 86.6122 98.0051 86.8466ZM103.452 92.0455C103.26 92.0455 103.08 92.0301 102.912 91.9993C102.746 91.9709 102.609 91.9342 102.5 91.8892L102.841 90.7599C103.018 90.8144 103.178 90.844 103.32 90.8487C103.465 90.8535 103.589 90.8203 103.693 90.7493C103.8 90.6783 103.886 90.5575 103.952 90.3871L104.041 90.1562L102.085 84.5455H103.675L104.805 88.5511H104.862L106.001 84.5455H107.603L105.483 90.5895C105.381 90.883 105.243 91.1387 105.067 91.3565C104.895 91.5767 104.676 91.746 104.411 91.8643C104.145 91.9851 103.826 92.0455 103.452 92.0455Z" fill="#2A3241"/>
<path d="M144.194 49H142.547L145.057 41.7273H147.039L149.546 49H147.898L146.076 43.3892H146.02L144.194 49ZM144.091 46.1413H147.983V47.3416H144.091V46.1413ZM152.603 49.1065C152.045 49.1065 151.564 48.9882 151.162 48.7514C150.761 48.5123 150.454 48.1809 150.238 47.7571C150.025 47.3333 149.919 46.8456 149.919 46.294C149.919 45.7353 150.026 45.2453 150.242 44.8239C150.46 44.4001 150.769 44.0698 151.169 43.8331C151.569 43.594 152.045 43.4744 152.596 43.4744C153.072 43.4744 153.489 43.5608 153.846 43.7337C154.204 43.9065 154.487 44.1491 154.695 44.4616C154.903 44.7741 155.018 45.1411 155.039 45.5625H153.612C153.572 45.2902 153.465 45.0713 153.292 44.9055C153.122 44.7375 152.898 44.6534 152.621 44.6534C152.387 44.6534 152.182 44.7173 152.007 44.8452C151.834 44.9706 151.699 45.1541 151.602 45.3956C151.505 45.6371 151.456 45.9295 151.456 46.2727C151.456 46.6207 151.504 46.9167 151.598 47.1605C151.695 47.4044 151.832 47.5902 152.007 47.718C152.182 47.8459 152.387 47.9098 152.621 47.9098C152.794 47.9098 152.949 47.8743 153.086 47.8033C153.226 47.7322 153.341 47.6293 153.431 47.4943C153.523 47.357 153.583 47.1925 153.612 47.0007H155.039C155.016 47.4174 154.902 47.7843 154.699 48.1016C154.497 48.4164 154.219 48.6626 153.864 48.8402C153.509 49.0178 153.089 49.1065 152.603 49.1065ZM158.909 43.5455V44.6818H155.624V43.5455H158.909ZM156.37 42.2386H157.883V47.3239C157.883 47.4635 157.904 47.5724 157.947 47.6506C157.99 47.7263 158.049 47.7796 158.124 47.8104C158.203 47.8411 158.293 47.8565 158.394 47.8565C158.465 47.8565 158.536 47.8506 158.607 47.8388C158.678 47.8246 158.733 47.8139 158.771 47.8068L159.009 48.9325C158.933 48.9562 158.826 48.9834 158.689 49.0142C158.552 49.0473 158.385 49.0675 158.188 49.0746C157.824 49.0888 157.504 49.0402 157.23 48.929C156.957 48.8177 156.745 48.6449 156.594 48.4105C156.442 48.1761 156.368 47.8802 156.37 47.5227V42.2386ZM159.895 49V43.5455H161.407V49H159.895ZM160.655 42.8423C160.43 42.8423 160.237 42.7678 160.076 42.6186C159.917 42.4671 159.838 42.286 159.838 42.0753C159.838 41.867 159.917 41.6882 160.076 41.5391C160.237 41.3875 160.43 41.3118 160.655 41.3118C160.88 41.3118 161.071 41.3875 161.23 41.5391C161.391 41.6882 161.471 41.867 161.471 42.0753C161.471 42.286 161.391 42.4671 161.23 42.6186C161.071 42.7678 160.88 42.8423 160.655 42.8423ZM167.705 43.5455L165.798 49H164.093L162.186 43.5455H163.784L164.917 47.4482H164.974L166.103 43.5455H167.705ZM169.888 49.103C169.54 49.103 169.229 49.0426 168.957 48.9219C168.685 48.7988 168.47 48.6177 168.311 48.3786C168.155 48.1371 168.077 47.8364 168.077 47.4766C168.077 47.1735 168.132 46.919 168.243 46.7131C168.355 46.5071 168.506 46.3414 168.698 46.2159C168.89 46.0904 169.108 45.9957 169.351 45.9318C169.598 45.8679 169.856 45.8229 170.126 45.7969C170.443 45.7637 170.698 45.733 170.893 45.7045C171.087 45.6738 171.228 45.6288 171.315 45.5696C171.403 45.5104 171.447 45.4228 171.447 45.3068V45.2855C171.447 45.0606 171.376 44.8866 171.233 44.7635C171.094 44.6404 170.895 44.5788 170.637 44.5788C170.365 44.5788 170.148 44.6392 169.987 44.7599C169.826 44.8783 169.72 45.0275 169.667 45.2074L168.268 45.0938C168.339 44.7623 168.479 44.4759 168.687 44.2344C168.896 43.9905 169.164 43.8035 169.493 43.6733C169.825 43.5407 170.208 43.4744 170.644 43.4744C170.947 43.4744 171.237 43.5099 171.514 43.581C171.793 43.652 172.041 43.7621 172.256 43.9112C172.474 44.0604 172.646 44.2521 172.771 44.4865C172.897 44.7185 172.959 44.9967 172.959 45.321V49H171.525V48.2436H171.482C171.394 48.4141 171.277 48.5644 171.131 48.6946C170.984 48.8224 170.807 48.9231 170.601 48.9964C170.395 49.0675 170.157 49.103 169.888 49.103ZM170.321 48.0589C170.543 48.0589 170.74 48.0152 170.91 47.9276C171.081 47.8376 171.215 47.7169 171.312 47.5653C171.409 47.4138 171.457 47.2422 171.457 47.0504V46.4716C171.41 46.5024 171.345 46.5308 171.262 46.5568C171.181 46.5805 171.09 46.603 170.988 46.6243C170.887 46.6432 170.785 46.661 170.683 46.6776C170.581 46.6918 170.489 46.7048 170.406 46.7166C170.229 46.7427 170.073 46.7841 169.941 46.8409C169.808 46.8977 169.705 46.9747 169.632 47.0717C169.559 47.1664 169.522 47.2848 169.522 47.4268C169.522 47.6328 169.596 47.7902 169.746 47.8991C169.897 48.0057 170.089 48.0589 170.321 48.0589ZM177.034 43.5455V44.6818H173.749V43.5455H177.034ZM174.495 42.2386H176.008V47.3239C176.008 47.4635 176.029 47.5724 176.072 47.6506C176.115 47.7263 176.174 47.7796 176.249 47.8104C176.328 47.8411 176.418 47.8565 176.519 47.8565C176.59 47.8565 176.661 47.8506 176.732 47.8388C176.803 47.8246 176.858 47.8139 176.896 47.8068L177.134 48.9325C177.058 48.9562 176.951 48.9834 176.814 49.0142C176.677 49.0473 176.51 49.0675 176.313 49.0746C175.949 49.0888 175.629 49.0402 175.355 48.929C175.082 48.8177 174.87 48.6449 174.719 48.4105C174.567 48.1761 174.493 47.8802 174.495 47.5227V42.2386ZM180.447 49.1065C179.886 49.1065 179.403 48.9929 178.998 48.7656C178.596 48.536 178.285 48.2116 178.068 47.7926C177.85 47.3712 177.741 46.8729 177.741 46.2976C177.741 45.7365 177.85 45.2441 178.068 44.8203C178.285 44.3965 178.592 44.0663 178.987 43.8295C179.385 43.5928 179.852 43.4744 180.387 43.4744C180.746 43.4744 181.081 43.5324 181.392 43.6484C181.704 43.7621 181.976 43.9337 182.208 44.1634C182.443 44.393 182.625 44.6818 182.755 45.0298C182.885 45.3755 182.95 45.7803 182.95 46.2443V46.6598H178.345V45.7223H181.526C181.526 45.5045 181.479 45.3116 181.384 45.1435C181.29 44.9754 181.158 44.844 180.99 44.7493C180.825 44.6522 180.632 44.6037 180.411 44.6037C180.182 44.6037 179.978 44.657 179.801 44.7635C179.625 44.8677 179.488 45.0085 179.389 45.1861C179.289 45.3613 179.238 45.5566 179.236 45.772V46.6634C179.236 46.9332 179.286 47.1664 179.385 47.3629C179.487 47.5594 179.63 47.7109 179.815 47.8175C179.999 47.924 180.218 47.9773 180.472 47.9773C180.64 47.9773 180.794 47.9536 180.933 47.9062C181.073 47.8589 181.193 47.7879 181.292 47.6932C181.392 47.5985 181.467 47.4825 181.519 47.3452L182.919 47.4375C182.847 47.7737 182.702 48.0672 182.482 48.3182C182.264 48.5668 181.982 48.7609 181.637 48.9006C181.293 49.0379 180.897 49.1065 180.447 49.1065ZM185.948 49.0888C185.533 49.0888 185.158 48.9822 184.822 48.7692C184.488 48.5537 184.223 48.2377 184.026 47.821C183.832 47.402 183.735 46.8883 183.735 46.2798C183.735 45.6548 183.836 45.1352 184.037 44.7209C184.238 44.3042 184.506 43.9929 184.84 43.7869C185.176 43.5786 185.544 43.4744 185.944 43.4744C186.249 43.4744 186.504 43.5265 186.708 43.6307C186.914 43.7325 187.079 43.8603 187.205 44.0142C187.333 44.1657 187.43 44.3149 187.496 44.4616H187.542V41.7273H189.051V49H187.56V48.1264H187.496C187.425 48.2779 187.324 48.4283 187.194 48.5774C187.066 48.7242 186.899 48.8461 186.693 48.9432C186.49 49.0402 186.241 49.0888 185.948 49.0888ZM186.427 47.8849C186.671 47.8849 186.877 47.8187 187.045 47.6861C187.215 47.5511 187.346 47.3629 187.436 47.1214C187.528 46.88 187.574 46.5971 187.574 46.2727C187.574 45.9484 187.529 45.6667 187.439 45.4276C187.349 45.1884 187.219 45.0038 187.048 44.8736C186.878 44.7434 186.671 44.6783 186.427 44.6783C186.178 44.6783 185.969 44.7457 185.798 44.8807C185.628 45.0156 185.499 45.2027 185.411 45.4418C185.324 45.6809 185.28 45.9579 185.28 46.2727C185.28 46.59 185.324 46.8705 185.411 47.1143C185.501 47.3558 185.63 47.5452 185.798 47.6825C185.969 47.8175 186.178 47.8849 186.427 47.8849ZM137.815 63.0455V55.5455H139.306V56.4616H139.374C139.44 56.3149 139.536 56.1657 139.661 56.0142C139.789 55.8603 139.955 55.7325 140.158 55.6307C140.364 55.5265 140.62 55.4744 140.925 55.4744C141.323 55.4744 141.69 55.5786 142.026 55.7869C142.362 55.9929 142.631 56.3042 142.832 56.7209C143.034 57.1352 143.134 57.6548 143.134 58.2798C143.134 58.8883 143.036 59.402 142.839 59.821C142.645 60.2377 142.38 60.5537 142.044 60.7692C141.71 60.9822 141.336 61.0888 140.922 61.0888C140.628 61.0888 140.379 61.0402 140.173 60.9432C139.969 60.8461 139.802 60.7242 139.672 60.5774C139.542 60.4283 139.442 60.2779 139.374 60.1264H139.327V63.0455H137.815ZM139.295 58.2727C139.295 58.5971 139.34 58.88 139.43 59.1214C139.52 59.3629 139.651 59.5511 139.821 59.6861C139.991 59.8187 140.199 59.8849 140.442 59.8849C140.689 59.8849 140.897 59.8175 141.067 59.6825C141.238 59.5452 141.367 59.3558 141.455 59.1143C141.545 58.8705 141.589 58.59 141.589 58.2727C141.589 57.9579 141.546 57.6809 141.458 57.4418C141.371 57.2027 141.241 57.0156 141.071 56.8807C140.901 56.7457 140.691 56.6783 140.442 56.6783C140.196 56.6783 139.988 56.7434 139.817 56.8736C139.649 57.0038 139.52 57.1884 139.43 57.4276C139.34 57.6667 139.295 57.9484 139.295 58.2727ZM145.698 61.103C145.35 61.103 145.04 61.0426 144.768 60.9219C144.496 60.7988 144.28 60.6177 144.121 60.3786C143.965 60.1371 143.887 59.8364 143.887 59.4766C143.887 59.1735 143.943 58.919 144.054 58.7131C144.165 58.5071 144.317 58.3414 144.509 58.2159C144.7 58.0904 144.918 57.9957 145.162 57.9318C145.408 57.8679 145.666 57.8229 145.936 57.7969C146.253 57.7637 146.509 57.733 146.703 57.7045C146.897 57.6738 147.038 57.6288 147.126 57.5696C147.213 57.5104 147.257 57.4228 147.257 57.3068V57.2855C147.257 57.0606 147.186 56.8866 147.044 56.7635C146.904 56.6404 146.705 56.5788 146.447 56.5788C146.175 56.5788 145.959 56.6392 145.798 56.7599C145.637 56.8783 145.53 57.0275 145.478 57.2074L144.079 57.0938C144.15 56.7623 144.29 56.4759 144.498 56.2344C144.706 55.9905 144.975 55.8035 145.304 55.6733C145.635 55.5407 146.019 55.4744 146.455 55.4744C146.758 55.4744 147.048 55.5099 147.325 55.581C147.604 55.652 147.851 55.7621 148.067 55.9112C148.285 56.0604 148.456 56.2521 148.582 56.4865C148.707 56.7185 148.77 56.9967 148.77 57.321V61H147.335V60.2436H147.293C147.205 60.4141 147.088 60.5644 146.941 60.6946C146.794 60.8224 146.618 60.9231 146.412 60.9964C146.206 61.0675 145.968 61.103 145.698 61.103ZM146.131 60.0589C146.354 60.0589 146.55 60.0152 146.721 59.9276C146.891 59.8376 147.025 59.7169 147.122 59.5653C147.219 59.4138 147.268 59.2422 147.268 59.0504V58.4716C147.22 58.5024 147.155 58.5308 147.072 58.5568C146.992 58.5805 146.901 58.603 146.799 58.6243C146.697 58.6432 146.595 58.661 146.494 58.6776C146.392 58.6918 146.299 58.7048 146.217 58.7166C146.039 58.7427 145.884 58.7841 145.751 58.8409C145.619 58.8977 145.516 58.9747 145.442 59.0717C145.369 59.1664 145.332 59.2848 145.332 59.4268C145.332 59.6328 145.407 59.7902 145.556 59.8991C145.708 60.0057 145.899 60.0589 146.131 60.0589ZM149.944 61V55.5455H151.41V56.4972H151.467C151.566 56.1586 151.733 55.9029 151.968 55.7301C152.202 55.5549 152.472 55.4673 152.777 55.4673C152.853 55.4673 152.935 55.4721 153.022 55.4815C153.11 55.491 153.187 55.504 153.253 55.5206V56.8629C153.182 56.8416 153.084 56.8227 152.958 56.8061C152.833 56.7895 152.718 56.7812 152.614 56.7812C152.391 56.7812 152.193 56.8298 152.017 56.9268C151.845 57.0215 151.707 57.1541 151.605 57.3246C151.506 57.495 151.456 57.6915 151.456 57.9141V61H149.944ZM157.21 55.5455V56.6818H153.925V55.5455H157.21ZM154.671 54.2386H156.184V59.3239C156.184 59.4635 156.205 59.5724 156.248 59.6506C156.29 59.7263 156.349 59.7796 156.425 59.8104C156.503 59.8411 156.593 59.8565 156.695 59.8565C156.766 59.8565 156.837 59.8506 156.908 59.8388C156.979 59.8246 157.034 59.8139 157.072 59.8068L157.309 60.9325C157.234 60.9562 157.127 60.9834 156.99 61.0142C156.853 61.0473 156.686 61.0675 156.489 61.0746C156.125 61.0888 155.805 61.0402 155.53 60.929C155.258 60.8177 155.046 60.6449 154.895 60.4105C154.743 60.1761 154.669 59.8802 154.671 59.5227V54.2386ZM159.708 57.8466V61H158.195V55.5455H159.637V56.5078H159.701C159.822 56.1906 160.024 55.9396 160.308 55.755C160.593 55.5679 160.937 55.4744 161.342 55.4744C161.721 55.4744 162.051 55.5573 162.333 55.723C162.614 55.8887 162.833 56.1255 162.99 56.4332C163.146 56.7386 163.224 57.1032 163.224 57.527V61H161.711V57.7969C161.713 57.4631 161.628 57.2027 161.455 57.0156C161.283 56.8262 161.045 56.7315 160.742 56.7315C160.538 56.7315 160.358 56.7753 160.202 56.8629C160.048 56.9505 159.927 57.0784 159.84 57.2464C159.754 57.4122 159.711 57.6122 159.708 57.8466ZM166.902 61.1065C166.341 61.1065 165.858 60.9929 165.453 60.7656C165.051 60.536 164.741 60.2116 164.523 59.7926C164.305 59.3712 164.196 58.8729 164.196 58.2976C164.196 57.7365 164.305 57.2441 164.523 56.8203C164.741 56.3965 165.047 56.0663 165.442 55.8295C165.84 55.5928 166.307 55.4744 166.842 55.4744C167.201 55.4744 167.536 55.5324 167.847 55.6484C168.159 55.7621 168.431 55.9337 168.663 56.1634C168.898 56.393 169.08 56.6818 169.21 57.0298C169.34 57.3755 169.406 57.7803 169.406 58.2443V58.6598H164.8V57.7223H167.982C167.982 57.5045 167.934 57.3116 167.839 57.1435C167.745 56.9754 167.613 56.844 167.445 56.7493C167.28 56.6522 167.087 56.6037 166.866 56.6037C166.637 56.6037 166.433 56.657 166.256 56.7635C166.08 56.8677 165.943 57.0085 165.844 57.1861C165.744 57.3613 165.693 57.5566 165.691 57.772V58.6634C165.691 58.9332 165.741 59.1664 165.84 59.3629C165.942 59.5594 166.085 59.7109 166.27 59.8175C166.455 59.924 166.674 59.9773 166.927 59.9773C167.095 59.9773 167.249 59.9536 167.388 59.9062C167.528 59.8589 167.648 59.7879 167.747 59.6932C167.847 59.5985 167.922 59.4825 167.974 59.3452L169.374 59.4375C169.303 59.7737 169.157 60.0672 168.937 60.3182C168.719 60.5668 168.437 60.7609 168.092 60.9006C167.748 61.0379 167.352 61.1065 166.902 61.1065ZM170.393 61V55.5455H171.859V56.4972H171.916C172.016 56.1586 172.183 55.9029 172.417 55.7301C172.651 55.5549 172.921 55.4673 173.227 55.4673C173.302 55.4673 173.384 55.4721 173.472 55.4815C173.559 55.491 173.636 55.504 173.702 55.5206V56.8629C173.631 56.8416 173.533 56.8227 173.408 56.8061C173.282 56.7895 173.167 56.7812 173.063 56.7812C172.841 56.7812 172.642 56.8298 172.467 56.9268C172.294 57.0215 172.156 57.1541 172.055 57.3246C171.955 57.495 171.906 57.6915 171.906 57.9141V61H170.393ZM179.023 57.1009L177.638 57.1861C177.614 57.0677 177.563 56.9612 177.485 56.8665C177.407 56.7694 177.304 56.6925 177.176 56.6357C177.051 56.5765 176.901 56.5469 176.725 56.5469C176.491 56.5469 176.293 56.5966 176.132 56.696C175.971 56.7931 175.891 56.9233 175.891 57.0866C175.891 57.2169 175.943 57.3269 176.047 57.4169C176.151 57.5069 176.33 57.5791 176.583 57.6335L177.57 57.8324C178.101 57.9413 178.496 58.1165 178.757 58.358C179.017 58.5994 179.147 58.9167 179.147 59.3097C179.147 59.6671 179.042 59.9808 178.831 60.2507C178.623 60.5206 178.336 60.7313 177.972 60.8828C177.61 61.032 177.192 61.1065 176.718 61.1065C175.996 61.1065 175.421 60.9562 174.992 60.6555C174.566 60.3525 174.316 59.9406 174.243 59.4197L175.731 59.3416C175.776 59.5618 175.885 59.7299 176.058 59.8459C176.231 59.9595 176.452 60.0163 176.722 60.0163C176.987 60.0163 177.2 59.9654 177.361 59.8636C177.524 59.7595 177.607 59.6257 177.61 59.4624C177.607 59.325 177.549 59.2126 177.436 59.125C177.322 59.035 177.147 58.9664 176.91 58.919L175.965 58.7308C175.433 58.6243 175.036 58.4396 174.776 58.1768C174.518 57.9141 174.389 57.5791 174.389 57.1719C174.389 56.8215 174.483 56.5196 174.673 56.2663C174.865 56.013 175.133 55.8177 175.479 55.6804C175.827 55.5431 176.234 55.4744 176.7 55.4744C177.389 55.4744 177.932 55.62 178.327 55.9112C178.725 56.2024 178.957 56.599 179.023 57.1009ZM181.613 57.8466V61H180.1V53.7273H181.57V56.5078H181.634C181.757 56.1858 181.956 55.9337 182.23 55.7514C182.505 55.5668 182.85 55.4744 183.264 55.4744C183.643 55.4744 183.973 55.5573 184.255 55.723C184.539 55.8864 184.759 56.1219 184.915 56.4297C185.074 56.7351 185.152 57.1009 185.15 57.527V61H183.637V57.7969C183.639 57.4607 183.554 57.1991 183.381 57.0121C183.211 56.825 182.971 56.7315 182.664 56.7315C182.458 56.7315 182.275 56.7753 182.117 56.8629C181.961 56.9505 181.837 57.0784 181.748 57.2464C181.66 57.4122 181.615 57.6122 181.613 57.8466ZM186.34 61V55.5455H187.853V61H186.34ZM187.1 54.8423C186.875 54.8423 186.682 54.7678 186.521 54.6186C186.363 54.4671 186.283 54.286 186.283 54.0753C186.283 53.867 186.363 53.6882 186.521 53.5391C186.682 53.3875 186.875 53.3118 187.1 53.3118C187.325 53.3118 187.517 53.3875 187.675 53.5391C187.836 53.6882 187.917 53.867 187.917 54.0753C187.917 54.286 187.836 54.4671 187.675 54.6186C187.517 54.7678 187.325 54.8423 187.1 54.8423ZM189.065 63.0455V55.5455H190.556V56.4616H190.624C190.69 56.3149 190.786 56.1657 190.911 56.0142C191.039 55.8603 191.205 55.7325 191.408 55.6307C191.614 55.5265 191.87 55.4744 192.175 55.4744C192.573 55.4744 192.94 55.5786 193.276 55.7869C193.612 55.9929 193.881 56.3042 194.082 56.7209C194.284 57.1352 194.384 57.6548 194.384 58.2798C194.384 58.8883 194.286 59.402 194.089 59.821C193.895 60.2377 193.63 60.5537 193.294 60.7692C192.96 60.9822 192.586 61.0888 192.172 61.0888C191.878 61.0888 191.629 61.0402 191.423 60.9432C191.219 60.8461 191.052 60.7242 190.922 60.5774C190.792 60.4283 190.692 60.2779 190.624 60.1264H190.577V63.0455H189.065ZM190.545 58.2727C190.545 58.5971 190.59 58.88 190.68 59.1214C190.77 59.3629 190.901 59.5511 191.071 59.6861C191.241 59.8187 191.449 59.8849 191.692 59.8849C191.939 59.8849 192.147 59.8175 192.317 59.6825C192.488 59.5452 192.617 59.3558 192.705 59.1143C192.795 58.8705 192.839 58.59 192.839 58.2727C192.839 57.9579 192.796 57.6809 192.708 57.4418C192.621 57.2027 192.491 57.0156 192.321 56.8807C192.151 56.7457 191.941 56.6783 191.692 56.6783C191.446 56.6783 191.238 56.7434 191.067 56.8736C190.899 57.0038 190.77 57.1884 190.68 57.4276C190.59 57.6667 190.545 57.9484 190.545 58.2727Z" fill="#2A3241"/>
<path d="M190.381 125.727H192.277L194.28 130.614H194.366L196.368 125.727H198.265V133H196.773V128.266H196.713L194.831 132.964H193.815L191.933 128.249H191.873V133H190.381V125.727ZM201.059 133.103C200.71 133.103 200.4 133.043 200.128 132.922C199.856 132.799 199.64 132.618 199.482 132.379C199.326 132.137 199.247 131.836 199.247 131.477C199.247 131.174 199.303 130.919 199.414 130.713C199.526 130.507 199.677 130.341 199.869 130.216C200.061 130.09 200.278 129.996 200.522 129.932C200.768 129.868 201.027 129.823 201.296 129.797C201.614 129.764 201.869 129.733 202.063 129.705C202.258 129.674 202.398 129.629 202.486 129.57C202.574 129.51 202.617 129.423 202.617 129.307V129.286C202.617 129.061 202.546 128.887 202.404 128.763C202.265 128.64 202.066 128.579 201.808 128.579C201.536 128.579 201.319 128.639 201.158 128.76C200.997 128.878 200.89 129.027 200.838 129.207L199.439 129.094C199.51 128.762 199.65 128.476 199.858 128.234C200.067 127.991 200.335 127.804 200.664 127.673C200.996 127.541 201.379 127.474 201.815 127.474C202.118 127.474 202.408 127.51 202.685 127.581C202.964 127.652 203.212 127.762 203.427 127.911C203.645 128.06 203.817 128.252 203.942 128.487C204.068 128.719 204.13 128.997 204.13 129.321V133H202.696V132.244H202.653C202.565 132.414 202.448 132.564 202.301 132.695C202.155 132.822 201.978 132.923 201.772 132.996C201.566 133.067 201.328 133.103 201.059 133.103ZM201.492 132.059C201.714 132.059 201.911 132.015 202.081 131.928C202.252 131.838 202.385 131.717 202.483 131.565C202.58 131.414 202.628 131.242 202.628 131.05V130.472C202.581 130.502 202.516 130.531 202.433 130.557C202.352 130.58 202.261 130.603 202.159 130.624C202.058 130.643 201.956 130.661 201.854 130.678C201.752 130.692 201.66 130.705 201.577 130.717C201.399 130.743 201.244 130.784 201.112 130.841C200.979 130.898 200.876 130.975 200.803 131.072C200.729 131.166 200.693 131.285 200.693 131.427C200.693 131.633 200.767 131.79 200.916 131.899C201.068 132.006 201.26 132.059 201.492 132.059ZM205.304 133V127.545H206.771V128.497H206.827C206.927 128.159 207.094 127.903 207.328 127.73C207.562 127.555 207.832 127.467 208.138 127.467C208.213 127.467 208.295 127.472 208.383 127.482C208.47 127.491 208.547 127.504 208.614 127.521V128.863C208.543 128.842 208.444 128.823 208.319 128.806C208.193 128.79 208.079 128.781 207.974 128.781C207.752 128.781 207.553 128.83 207.378 128.927C207.205 129.022 207.068 129.154 206.966 129.325C206.866 129.495 206.817 129.692 206.817 129.914V133H205.304ZM210.766 131.43L210.77 129.616H210.99L212.737 127.545H214.474L212.127 130.287H211.768L210.766 131.43ZM209.396 133V125.727H210.908V133H209.396ZM212.805 133L211.2 130.624L212.208 129.555L214.577 133H212.805ZM217.477 133.107C216.916 133.107 216.433 132.993 216.028 132.766C215.626 132.536 215.316 132.212 215.098 131.793C214.88 131.371 214.771 130.873 214.771 130.298C214.771 129.737 214.88 129.244 215.098 128.82C215.316 128.397 215.622 128.066 216.018 127.83C216.415 127.593 216.882 127.474 217.417 127.474C217.777 127.474 218.112 127.532 218.422 127.648C218.734 127.762 219.007 127.934 219.239 128.163C219.473 128.393 219.655 128.682 219.785 129.03C219.916 129.375 219.981 129.78 219.981 130.244V130.66H215.375V129.722H218.557C218.557 129.504 218.509 129.312 218.415 129.143C218.32 128.975 218.189 128.844 218.021 128.749C217.855 128.652 217.662 128.604 217.442 128.604C217.212 128.604 217.008 128.657 216.831 128.763C216.656 128.868 216.518 129.009 216.419 129.186C216.32 129.361 216.269 129.557 216.266 129.772V130.663C216.266 130.933 216.316 131.166 216.415 131.363C216.517 131.559 216.66 131.711 216.845 131.817C217.03 131.924 217.249 131.977 217.502 131.977C217.67 131.977 217.824 131.954 217.964 131.906C218.103 131.859 218.223 131.788 218.322 131.693C218.422 131.598 218.498 131.482 218.55 131.345L219.949 131.438C219.878 131.774 219.732 132.067 219.512 132.318C219.294 132.567 219.012 132.761 218.667 132.901C218.324 133.038 217.927 133.107 217.477 133.107ZM223.869 127.545V128.682H220.584V127.545H223.869ZM221.33 126.239H222.843V131.324C222.843 131.464 222.864 131.572 222.907 131.651C222.949 131.726 223.009 131.78 223.084 131.81C223.163 131.841 223.253 131.857 223.354 131.857C223.425 131.857 223.496 131.851 223.567 131.839C223.638 131.825 223.693 131.814 223.731 131.807L223.969 132.933C223.893 132.956 223.786 132.983 223.649 133.014C223.512 133.047 223.345 133.067 223.148 133.075C222.784 133.089 222.464 133.04 222.19 132.929C221.917 132.818 221.705 132.645 221.554 132.411C221.402 132.176 221.328 131.88 221.33 131.523V126.239ZM189.546 139.819C189.518 139.532 189.396 139.31 189.18 139.151C188.965 138.993 188.673 138.913 188.303 138.913C188.052 138.913 187.84 138.949 187.668 139.02C187.495 139.089 187.362 139.184 187.27 139.308C187.18 139.431 187.135 139.57 187.135 139.727C187.13 139.857 187.157 139.97 187.217 140.067C187.278 140.165 187.362 140.249 187.469 140.32C187.575 140.388 187.698 140.449 187.838 140.501C187.978 140.55 188.127 140.593 188.286 140.629L188.939 140.785C189.256 140.856 189.547 140.951 189.812 141.069C190.078 141.187 190.307 141.333 190.501 141.506C190.696 141.679 190.846 141.882 190.952 142.116C191.061 142.351 191.117 142.62 191.119 142.923C191.117 143.368 191.003 143.754 190.778 144.08C190.556 144.405 190.234 144.657 189.812 144.837C189.393 145.014 188.888 145.103 188.296 145.103C187.709 145.103 187.198 145.013 186.762 144.833C186.329 144.653 185.99 144.387 185.746 144.034C185.505 143.679 185.378 143.24 185.366 142.717H186.854C186.871 142.96 186.941 143.164 187.064 143.327C187.189 143.488 187.356 143.61 187.565 143.693C187.775 143.774 188.013 143.814 188.278 143.814C188.539 143.814 188.765 143.776 188.957 143.7C189.151 143.625 189.301 143.519 189.408 143.384C189.514 143.249 189.567 143.094 189.567 142.919C189.567 142.756 189.519 142.618 189.422 142.507C189.327 142.396 189.188 142.301 189.003 142.223C188.821 142.145 188.597 142.074 188.332 142.01L187.54 141.811C186.927 141.662 186.442 141.429 186.087 141.112C185.732 140.794 185.556 140.367 185.558 139.83C185.556 139.389 185.673 139.004 185.91 138.675C186.149 138.346 186.477 138.089 186.893 137.905C187.31 137.72 187.784 137.628 188.314 137.628C188.854 137.628 189.325 137.72 189.727 137.905C190.132 138.089 190.447 138.346 190.672 138.675C190.897 139.004 191.013 139.386 191.02 139.819H189.546ZM194.611 145.107C194.05 145.107 193.567 144.993 193.162 144.766C192.76 144.536 192.45 144.212 192.232 143.793C192.014 143.371 191.905 142.873 191.905 142.298C191.905 141.737 192.014 141.244 192.232 140.82C192.45 140.397 192.756 140.066 193.151 139.83C193.549 139.593 194.016 139.474 194.551 139.474C194.91 139.474 195.245 139.532 195.556 139.648C195.868 139.762 196.14 139.934 196.372 140.163C196.607 140.393 196.789 140.682 196.919 141.03C197.049 141.375 197.115 141.78 197.115 142.244V142.66H192.509V141.722H195.691C195.691 141.504 195.643 141.312 195.548 141.143C195.454 140.975 195.322 140.844 195.154 140.749C194.989 140.652 194.796 140.604 194.575 140.604C194.346 140.604 194.142 140.657 193.965 140.763C193.789 140.868 193.652 141.009 193.553 141.186C193.453 141.361 193.402 141.557 193.4 141.772V142.663C193.4 142.933 193.45 143.166 193.549 143.363C193.651 143.559 193.794 143.711 193.979 143.817C194.164 143.924 194.383 143.977 194.636 143.977C194.804 143.977 194.958 143.954 195.097 143.906C195.237 143.859 195.357 143.788 195.456 143.693C195.556 143.598 195.631 143.482 195.683 143.345L197.083 143.438C197.012 143.774 196.866 144.067 196.646 144.318C196.428 144.567 196.146 144.761 195.801 144.901C195.457 145.038 195.061 145.107 194.611 145.107ZM200.559 147.159C200.069 147.159 199.649 147.092 199.298 146.957C198.95 146.824 198.673 146.643 198.468 146.413C198.262 146.184 198.128 145.926 198.066 145.639L199.465 145.451C199.508 145.56 199.575 145.662 199.668 145.756C199.76 145.851 199.882 145.927 200.034 145.984C200.187 146.043 200.374 146.072 200.595 146.072C200.924 146.072 201.195 145.992 201.408 145.831C201.623 145.672 201.731 145.406 201.731 145.032V144.034H201.667C201.601 144.186 201.501 144.329 201.369 144.464C201.236 144.599 201.066 144.709 200.857 144.794C200.649 144.879 200.401 144.922 200.112 144.922C199.702 144.922 199.329 144.827 198.993 144.638C198.659 144.446 198.393 144.154 198.194 143.761C197.998 143.365 197.899 142.866 197.899 142.262C197.899 141.644 198 141.128 198.201 140.714C198.402 140.299 198.67 139.989 199.004 139.783C199.34 139.577 199.708 139.474 200.108 139.474C200.414 139.474 200.669 139.527 200.875 139.631C201.081 139.732 201.247 139.86 201.372 140.014C201.5 140.166 201.598 140.315 201.667 140.462H201.724V139.545H203.226V145.053C203.226 145.517 203.112 145.906 202.885 146.218C202.658 146.531 202.343 146.765 201.941 146.921C201.54 147.08 201.08 147.159 200.559 147.159ZM200.591 143.786C200.835 143.786 201.041 143.725 201.209 143.604C201.379 143.481 201.51 143.306 201.6 143.079C201.692 142.849 201.738 142.575 201.738 142.255C201.738 141.935 201.693 141.658 201.603 141.424C201.513 141.187 201.383 141.004 201.213 140.874C201.042 140.743 200.835 140.678 200.591 140.678C200.343 140.678 200.133 140.746 199.963 140.881C199.792 141.013 199.663 141.198 199.575 141.435C199.488 141.671 199.444 141.945 199.444 142.255C199.444 142.57 199.488 142.842 199.575 143.072C199.665 143.299 199.794 143.475 199.963 143.601C200.133 143.724 200.343 143.786 200.591 143.786ZM204.43 145V139.545H205.872V140.508H205.936C206.049 140.188 206.239 139.936 206.504 139.751C206.769 139.567 207.086 139.474 207.455 139.474C207.829 139.474 208.148 139.568 208.411 139.755C208.673 139.94 208.849 140.191 208.936 140.508H208.993C209.104 140.195 209.306 139.946 209.597 139.759C209.89 139.569 210.237 139.474 210.637 139.474C211.146 139.474 211.559 139.637 211.877 139.961C212.196 140.283 212.356 140.74 212.356 141.332V145H210.847V141.63C210.847 141.327 210.766 141.1 210.605 140.948C210.444 140.797 210.243 140.721 210.002 140.721C209.727 140.721 209.513 140.808 209.359 140.984C209.205 141.156 209.128 141.385 209.128 141.669V145H207.661V141.598C207.661 141.33 207.584 141.117 207.431 140.959C207.279 140.8 207.079 140.721 206.83 140.721C206.662 140.721 206.511 140.763 206.376 140.849C206.243 140.932 206.138 141.049 206.06 141.2C205.982 141.349 205.943 141.525 205.943 141.726V145H204.43ZM216.037 145.107C215.476 145.107 214.993 144.993 214.588 144.766C214.185 144.536 213.875 144.212 213.657 143.793C213.44 143.371 213.331 142.873 213.331 142.298C213.331 141.737 213.44 141.244 213.657 140.82C213.875 140.397 214.182 140.066 214.577 139.83C214.975 139.593 215.441 139.474 215.976 139.474C216.336 139.474 216.671 139.532 216.981 139.648C217.294 139.762 217.566 139.934 217.798 140.163C218.032 140.393 218.215 140.682 218.345 141.03C218.475 141.375 218.54 141.78 218.54 142.244V142.66H213.934V141.722H217.116C217.116 141.504 217.069 141.312 216.974 141.143C216.88 140.975 216.748 140.844 216.58 140.749C216.414 140.652 216.221 140.604 216.001 140.604C215.772 140.604 215.568 140.657 215.39 140.763C215.215 140.868 215.078 141.009 214.979 141.186C214.879 141.361 214.828 141.557 214.826 141.772V142.663C214.826 142.933 214.876 143.166 214.975 143.363C215.077 143.559 215.22 143.711 215.405 143.817C215.589 143.924 215.808 143.977 216.062 143.977C216.23 143.977 216.384 143.954 216.523 143.906C216.663 143.859 216.782 143.788 216.882 143.693C216.981 143.598 217.057 143.482 217.109 143.345L218.508 143.438C218.437 143.774 218.292 144.067 218.072 144.318C217.854 144.567 217.572 144.761 217.226 144.901C216.883 145.038 216.487 145.107 216.037 145.107ZM221.04 141.847V145H219.528V139.545H220.969V140.508H221.033C221.154 140.191 221.356 139.94 221.64 139.755C221.925 139.568 222.269 139.474 222.674 139.474C223.053 139.474 223.383 139.557 223.665 139.723C223.946 139.889 224.165 140.125 224.322 140.433C224.478 140.739 224.556 141.103 224.556 141.527V145H223.043V141.797C223.046 141.463 222.96 141.203 222.787 141.016C222.615 140.826 222.377 140.732 222.074 140.732C221.87 140.732 221.69 140.775 221.534 140.863C221.38 140.951 221.259 141.078 221.172 141.246C221.086 141.412 221.043 141.612 221.04 141.847ZM228.65 139.545V140.682H225.365V139.545H228.65ZM226.11 138.239H227.623V143.324C227.623 143.464 227.645 143.572 227.687 143.651C227.73 143.726 227.789 143.78 227.865 143.81C227.943 143.841 228.033 143.857 228.135 143.857C228.206 143.857 228.277 143.851 228.348 143.839C228.419 143.825 228.473 143.814 228.511 143.807L228.749 144.933C228.673 144.956 228.567 144.983 228.429 145.014C228.292 145.047 228.125 145.067 227.929 145.075C227.564 145.089 227.244 145.04 226.97 144.929C226.698 144.818 226.486 144.645 226.334 144.411C226.183 144.176 226.108 143.88 226.11 143.523V138.239Z" fill="#2A3241"/>
<path d="M115.655 140.273H114.1C114.072 140.072 114.014 139.893 113.926 139.737C113.838 139.579 113.726 139.444 113.589 139.332C113.451 139.221 113.293 139.136 113.113 139.077C112.935 139.018 112.742 138.988 112.534 138.988C112.158 138.988 111.83 139.081 111.55 139.268C111.271 139.453 111.054 139.723 110.9 140.078C110.747 140.431 110.67 140.859 110.67 141.364C110.67 141.882 110.747 142.318 110.9 142.67C111.057 143.023 111.275 143.29 111.554 143.469C111.833 143.649 112.156 143.739 112.523 143.739C112.729 143.739 112.92 143.712 113.095 143.658C113.273 143.603 113.43 143.524 113.567 143.42C113.705 143.313 113.818 143.184 113.908 143.033C114.001 142.881 114.065 142.708 114.1 142.514L115.655 142.521C115.615 142.855 115.515 143.177 115.354 143.487C115.195 143.795 114.981 144.071 114.711 144.315C114.443 144.556 114.124 144.748 113.752 144.89C113.383 145.03 112.965 145.099 112.498 145.099C111.85 145.099 111.27 144.953 110.758 144.659C110.249 144.366 109.847 143.941 109.551 143.384C109.257 142.828 109.111 142.154 109.111 141.364C109.111 140.571 109.26 139.896 109.558 139.339C109.856 138.783 110.261 138.359 110.773 138.068C111.284 137.775 111.859 137.628 112.498 137.628C112.92 137.628 113.311 137.687 113.67 137.805C114.033 137.924 114.353 138.097 114.633 138.324C114.912 138.549 115.139 138.825 115.315 139.151C115.492 139.478 115.606 139.852 115.655 140.273ZM119.194 145.107C118.643 145.107 118.166 144.989 117.763 144.755C117.363 144.518 117.054 144.189 116.836 143.768C116.618 143.344 116.509 142.853 116.509 142.294C116.509 141.731 116.618 141.238 116.836 140.817C117.054 140.393 117.363 140.064 117.763 139.83C118.166 139.593 118.643 139.474 119.194 139.474C119.746 139.474 120.222 139.593 120.622 139.83C121.024 140.064 121.334 140.393 121.552 140.817C121.77 141.238 121.879 141.731 121.879 142.294C121.879 142.853 121.77 143.344 121.552 143.768C121.334 144.189 121.024 144.518 120.622 144.755C120.222 144.989 119.746 145.107 119.194 145.107ZM119.201 143.935C119.452 143.935 119.662 143.864 119.83 143.722C119.998 143.577 120.125 143.381 120.21 143.132C120.297 142.884 120.341 142.601 120.341 142.283C120.341 141.966 120.297 141.683 120.21 141.435C120.125 141.186 119.998 140.99 119.83 140.845C119.662 140.701 119.452 140.629 119.201 140.629C118.948 140.629 118.735 140.701 118.562 140.845C118.392 140.99 118.263 141.186 118.175 141.435C118.09 141.683 118.047 141.966 118.047 142.283C118.047 142.601 118.09 142.884 118.175 143.132C118.263 143.381 118.392 143.577 118.562 143.722C118.735 143.864 118.948 143.935 119.201 143.935ZM122.862 145V139.545H124.304V140.508H124.368C124.482 140.188 124.671 139.936 124.936 139.751C125.201 139.567 125.519 139.474 125.888 139.474C126.262 139.474 126.581 139.568 126.843 139.755C127.106 139.94 127.281 140.191 127.369 140.508H127.426C127.537 140.195 127.738 139.946 128.029 139.759C128.323 139.569 128.67 139.474 129.07 139.474C129.579 139.474 129.992 139.637 130.309 139.961C130.629 140.283 130.789 140.74 130.789 141.332V145H129.279V141.63C129.279 141.327 129.199 141.1 129.038 140.948C128.877 140.797 128.676 140.721 128.434 140.721C128.16 140.721 127.945 140.808 127.791 140.984C127.638 141.156 127.561 141.385 127.561 141.669V145H126.094V141.598C126.094 141.33 126.017 141.117 125.863 140.959C125.712 140.8 125.512 140.721 125.263 140.721C125.095 140.721 124.943 140.763 124.809 140.849C124.676 140.932 124.571 141.049 124.492 141.2C124.414 141.349 124.375 141.525 124.375 141.726V145H122.862ZM131.984 147.045V139.545H133.475V140.462H133.543C133.609 140.315 133.705 140.166 133.83 140.014C133.958 139.86 134.124 139.732 134.327 139.631C134.533 139.527 134.789 139.474 135.094 139.474C135.492 139.474 135.859 139.579 136.195 139.787C136.531 139.993 136.8 140.304 137.001 140.721C137.203 141.135 137.303 141.655 137.303 142.28C137.303 142.888 137.205 143.402 137.008 143.821C136.814 144.238 136.549 144.554 136.213 144.769C135.879 144.982 135.505 145.089 135.091 145.089C134.797 145.089 134.547 145.04 134.342 144.943C134.138 144.846 133.971 144.724 133.841 144.577C133.711 144.428 133.611 144.278 133.543 144.126H133.496V147.045H131.984ZM133.464 142.273C133.464 142.597 133.509 142.88 133.599 143.121C133.689 143.363 133.82 143.551 133.99 143.686C134.16 143.819 134.368 143.885 134.611 143.885C134.858 143.885 135.066 143.817 135.236 143.683C135.407 143.545 135.536 143.356 135.623 143.114C135.713 142.871 135.758 142.59 135.758 142.273C135.758 141.958 135.715 141.681 135.627 141.442C135.539 141.203 135.41 141.016 135.24 140.881C135.07 140.746 134.86 140.678 134.611 140.678C134.365 140.678 134.157 140.743 133.986 140.874C133.818 141.004 133.689 141.188 133.599 141.428C133.509 141.667 133.464 141.948 133.464 142.273ZM139.867 145.103C139.519 145.103 139.209 145.043 138.937 144.922C138.664 144.799 138.449 144.618 138.29 144.379C138.134 144.137 138.056 143.836 138.056 143.477C138.056 143.174 138.112 142.919 138.223 142.713C138.334 142.507 138.486 142.341 138.677 142.216C138.869 142.09 139.087 141.996 139.331 141.932C139.577 141.868 139.835 141.823 140.105 141.797C140.422 141.764 140.678 141.733 140.872 141.705C141.066 141.674 141.207 141.629 141.295 141.57C141.382 141.51 141.426 141.423 141.426 141.307V141.286C141.426 141.061 141.355 140.887 141.213 140.763C141.073 140.64 140.874 140.579 140.616 140.579C140.344 140.579 140.128 140.639 139.967 140.76C139.806 140.878 139.699 141.027 139.647 141.207L138.248 141.094C138.319 140.762 138.458 140.476 138.667 140.234C138.875 139.991 139.144 139.804 139.473 139.673C139.804 139.541 140.188 139.474 140.623 139.474C140.927 139.474 141.217 139.51 141.494 139.581C141.773 139.652 142.02 139.762 142.236 139.911C142.454 140.06 142.625 140.252 142.751 140.487C142.876 140.719 142.939 140.997 142.939 141.321V145H141.504V144.244H141.462C141.374 144.414 141.257 144.564 141.11 144.695C140.963 144.822 140.787 144.923 140.581 144.996C140.375 145.067 140.137 145.103 139.867 145.103ZM140.3 144.059C140.523 144.059 140.719 144.015 140.89 143.928C141.06 143.838 141.194 143.717 141.291 143.565C141.388 143.414 141.437 143.242 141.437 143.05V142.472C141.389 142.502 141.324 142.531 141.241 142.557C141.161 142.58 141.07 142.603 140.968 142.624C140.866 142.643 140.764 142.661 140.663 142.678C140.561 142.692 140.468 142.705 140.386 142.717C140.208 142.743 140.053 142.784 139.92 142.841C139.788 142.898 139.685 142.975 139.611 143.072C139.538 143.166 139.501 143.285 139.501 143.427C139.501 143.633 139.576 143.79 139.725 143.899C139.877 144.006 140.068 144.059 140.3 144.059ZM145.625 141.847V145H144.112V139.545H145.554V140.508H145.618C145.739 140.191 145.941 139.94 146.225 139.755C146.509 139.568 146.854 139.474 147.259 139.474C147.638 139.474 147.968 139.557 148.25 139.723C148.531 139.889 148.75 140.125 148.907 140.433C149.063 140.739 149.141 141.103 149.141 141.527V145H147.628V141.797C147.63 141.463 147.545 141.203 147.372 141.016C147.2 140.826 146.962 140.732 146.659 140.732C146.455 140.732 146.275 140.775 146.119 140.863C145.965 140.951 145.844 141.078 145.757 141.246C145.671 141.412 145.628 141.612 145.625 141.847ZM151.072 147.045C150.88 147.045 150.7 147.03 150.532 146.999C150.366 146.971 150.229 146.934 150.12 146.889L150.461 145.76C150.639 145.814 150.798 145.844 150.94 145.849C151.085 145.853 151.209 145.82 151.313 145.749C151.42 145.678 151.506 145.558 151.573 145.387L151.661 145.156L149.705 139.545H151.296L152.425 143.551H152.482L153.622 139.545H155.223L153.103 145.589C153.001 145.883 152.863 146.139 152.688 146.357C152.515 146.577 152.296 146.746 152.031 146.864C151.765 146.985 151.446 147.045 151.072 147.045ZM126.172 151.819C126.144 151.532 126.022 151.31 125.806 151.151C125.591 150.993 125.299 150.913 124.929 150.913C124.678 150.913 124.466 150.949 124.294 151.02C124.121 151.089 123.988 151.184 123.896 151.308C123.806 151.431 123.761 151.57 123.761 151.727C123.756 151.857 123.783 151.97 123.843 152.067C123.904 152.165 123.988 152.249 124.095 152.32C124.201 152.388 124.324 152.449 124.464 152.501C124.604 152.55 124.753 152.593 124.911 152.629L125.565 152.785C125.882 152.856 126.173 152.951 126.438 153.069C126.704 153.187 126.933 153.333 127.127 153.506C127.322 153.679 127.472 153.882 127.578 154.116C127.687 154.351 127.743 154.62 127.745 154.923C127.743 155.368 127.629 155.754 127.404 156.08C127.182 156.405 126.86 156.657 126.438 156.837C126.019 157.014 125.514 157.103 124.922 157.103C124.335 157.103 123.824 157.013 123.388 156.833C122.955 156.653 122.616 156.387 122.372 156.034C122.131 155.679 122.004 155.24 121.992 154.717H123.48C123.497 154.96 123.567 155.164 123.69 155.327C123.815 155.488 123.982 155.61 124.191 155.693C124.401 155.774 124.639 155.814 124.904 155.814C125.165 155.814 125.391 155.776 125.583 155.7C125.777 155.625 125.927 155.519 126.034 155.384C126.14 155.249 126.193 155.094 126.193 154.919C126.193 154.756 126.145 154.618 126.048 154.507C125.953 154.396 125.813 154.301 125.629 154.223C125.447 154.145 125.223 154.074 124.958 154.01L124.166 153.811C123.553 153.662 123.068 153.429 122.713 153.112C122.358 152.794 122.182 152.367 122.184 151.83C122.182 151.389 122.299 151.004 122.536 150.675C122.775 150.346 123.103 150.089 123.519 149.905C123.936 149.72 124.41 149.628 124.94 149.628C125.48 149.628 125.951 149.72 126.353 149.905C126.758 150.089 127.073 150.346 127.298 150.675C127.523 151.004 127.639 151.386 127.646 151.819H126.172ZM128.751 157V151.545H130.264V157H128.751ZM129.511 150.842C129.286 150.842 129.093 150.768 128.932 150.619C128.774 150.467 128.694 150.286 128.694 150.075C128.694 149.867 128.774 149.688 128.932 149.539C129.093 149.388 129.286 149.312 129.511 149.312C129.736 149.312 129.928 149.388 130.086 149.539C130.247 149.688 130.328 149.867 130.328 150.075C130.328 150.286 130.247 150.467 130.086 150.619C129.928 150.768 129.736 150.842 129.511 150.842ZM131.447 157V156.098L134.118 152.792V152.753H131.54V151.545H135.94V152.529L133.432 155.754V155.793H136.032V157H131.447ZM139.518 157.107C138.957 157.107 138.474 156.993 138.069 156.766C137.667 156.536 137.357 156.212 137.139 155.793C136.921 155.371 136.812 154.873 136.812 154.298C136.812 153.737 136.921 153.244 137.139 152.82C137.357 152.397 137.663 152.066 138.059 151.83C138.456 151.593 138.923 151.474 139.458 151.474C139.818 151.474 140.153 151.532 140.463 151.648C140.775 151.762 141.048 151.934 141.28 152.163C141.514 152.393 141.696 152.682 141.826 153.03C141.957 153.375 142.022 153.78 142.022 154.244V154.66H137.416V153.722H140.598C140.598 153.504 140.55 153.312 140.456 153.143C140.361 152.975 140.23 152.844 140.062 152.749C139.896 152.652 139.703 152.604 139.483 152.604C139.253 152.604 139.049 152.657 138.872 152.763C138.697 152.868 138.559 153.009 138.46 153.186C138.361 153.361 138.31 153.557 138.307 153.772V154.663C138.307 154.933 138.357 155.166 138.456 155.363C138.558 155.559 138.701 155.711 138.886 155.817C139.071 155.924 139.29 155.977 139.543 155.977C139.711 155.977 139.865 155.954 140.005 155.906C140.144 155.859 140.264 155.788 140.363 155.693C140.463 155.598 140.539 155.482 140.591 155.345L141.99 155.438C141.919 155.774 141.773 156.067 141.553 156.318C141.335 156.567 141.053 156.761 140.708 156.901C140.365 157.038 139.968 157.107 139.518 157.107Z" fill="#2A3241"/>
</svg>
