<svg width="200" height="142" viewBox="0 0 200 142" fill="none" xmlns="http://www.w3.org/2000/svg">
<g clip-path="url(#clip0_6867_6660)">
<circle cx="138" cy="59" r="59" fill="#0D99FF" fill-opacity="0.7"/>
<circle cx="62" cy="59" r="59" fill="#14AE5C" fill-opacity="0.5"/>
<path d="M101.327 100.568C101.841 96.6722 102.528 93.0001 103.159 90.0663L103.599 88.0161L104.011 86.2639C104.252 85.1779 104.495 84.2871 104.67 83.5278L104.909 82.4618C104.982 82.8386 105.054 83.2154 105.138 83.5729C105.299 84.2733 105.502 84.9714 105.745 85.6631C106.144 86.8306 106.66 87.9756 107.286 89.0785C108.363 90.9417 109.321 91.8995 109.493 91.7902C109.9 91.545 107.046 87.2228 106.387 81.1903C106.315 80.6799 106.109 80.1717 105.79 79.7187C105.576 79.442 105.298 79.2178 104.988 79.0726C104.686 78.9384 104.368 78.8757 104.065 78.8901C103.608 78.9218 103.18 79.0447 102.803 79.2521C102.481 79.412 102.211 79.5566 101.925 79.7078C100.813 80.3158 99.8334 80.8999 99.0576 81.4509C97.4835 82.5303 96.6287 83.3581 96.7647 83.546C96.9006 83.7338 97.996 83.2949 99.723 82.4943L102.734 81.1023C103.007 80.9823 103.305 80.8364 103.579 80.7246C103.357 81.2436 103.117 81.9153 102.848 82.832C102.619 83.5821 102.336 84.4771 102.063 85.5682L101.612 87.3411L101.151 89.4217C100.516 92.4039 99.8775 96.1537 99.4433 100.122C99.0172 104.081 98.8078 108.1 98.816 112.162C98.8121 115.399 98.9792 118.666 99.3166 121.95C99.5898 124.447 99.8681 125.986 99.9985 125.99C100.316 125.996 99.9059 119.886 100.28 112.344C100.453 108.574 100.812 104.456 101.338 100.557" fill="#2E2E2E"/>
<path d="M62.137 132.088C61.793 132.088 61.561 132.04 61.441 131.944C61.329 131.848 61.273 131.756 61.273 131.668C61.273 131.54 61.337 131.424 61.465 131.32C61.601 131.216 61.765 131.144 61.957 131.104C62.189 131.056 62.469 131.008 62.797 130.96C63.133 130.904 63.481 130.856 63.841 130.816C64.201 130.768 64.553 130.732 64.897 130.708C65.241 130.684 65.541 130.672 65.797 130.672C66.133 130.672 66.389 130.736 66.565 130.864C66.749 130.984 66.841 131.096 66.841 131.2C66.841 131.208 66.841 131.224 66.841 131.248C66.841 131.312 66.829 131.368 66.805 131.416C66.781 131.464 66.701 131.512 66.565 131.56C66.437 131.6 66.217 131.644 65.905 131.692C65.601 131.732 65.169 131.776 64.609 131.824C64.497 131.832 64.373 131.844 64.237 131.86C64.205 132.076 64.157 132.36 64.093 132.712C64.029 133.064 63.957 133.456 63.877 133.888C63.797 134.32 63.713 134.764 63.625 135.22C63.537 135.668 63.449 136.096 63.361 136.504C63.281 136.912 63.209 137.272 63.145 137.584C63.089 137.896 63.045 138.132 63.013 138.292C63.429 138.236 63.797 138.2 64.117 138.184C64.445 138.16 64.665 138.148 64.777 138.148C65.073 138.148 65.221 138.26 65.221 138.484C65.221 138.548 65.085 138.64 64.813 138.76C64.541 138.88 64.193 139.004 63.769 139.132C63.345 139.26 62.905 139.38 62.449 139.492C62.073 139.58 61.701 139.648 61.333 139.696C60.973 139.744 60.713 139.768 60.553 139.768C60.377 139.768 60.253 139.736 60.181 139.672C60.109 139.616 60.073 139.532 60.073 139.42C60.073 139.308 60.105 139.196 60.169 139.084C60.241 138.972 60.337 138.892 60.457 138.844C60.673 138.764 60.913 138.692 61.177 138.628C61.441 138.556 61.709 138.492 61.981 138.436C61.981 138.396 61.981 138.348 61.981 138.292C61.981 138.18 62.001 137.968 62.041 137.656C62.089 137.344 62.149 136.972 62.221 136.54C62.293 136.1 62.373 135.644 62.461 135.172C62.549 134.692 62.633 134.236 62.713 133.804C62.793 133.364 62.865 132.984 62.929 132.664C62.993 132.336 63.041 132.116 63.073 132.004C62.873 132.028 62.693 132.048 62.533 132.064C62.373 132.08 62.241 132.088 62.137 132.088ZM72.0955 132.964C72.3115 132.444 72.5155 131.908 72.7075 131.356C72.9075 130.804 73.0875 130.24 73.2475 129.664C73.2955 129.504 73.3675 129.376 73.4635 129.28C73.5675 129.176 73.6875 129.124 73.8235 129.124C73.9195 129.124 73.9995 129.16 74.0635 129.232C74.1355 129.304 74.1715 129.4 74.1715 129.52C74.1715 129.672 74.1115 129.936 73.9915 130.312C73.8795 130.688 73.7355 131.164 73.5595 131.74C73.3915 132.316 73.2195 132.98 73.0435 133.732C72.8755 134.476 72.7315 135.3 72.6115 136.204C72.4995 137.108 72.4435 138.072 72.4435 139.096C72.4435 139.32 72.3955 139.504 72.2995 139.648C72.2035 139.8 72.0875 139.876 71.9515 139.876C71.8715 139.876 71.7955 139.856 71.7235 139.816C71.6515 139.776 71.5875 139.68 71.5315 139.528C71.4835 139.384 71.4435 139.156 71.4115 138.844C71.3795 138.524 71.3635 138.092 71.3635 137.548C71.3635 137.132 71.3875 136.68 71.4355 136.192C71.0675 136.856 70.6675 137.436 70.2355 137.932C69.8115 138.42 69.3995 138.796 68.9995 139.06C68.6075 139.324 68.2715 139.456 67.9915 139.456C67.6475 139.456 67.3675 139.34 67.1515 139.108C66.9435 138.884 66.8395 138.548 66.8395 138.1C66.8395 137.708 66.9315 137.304 67.1155 136.888C67.2995 136.472 67.5435 136.064 67.8475 135.664C68.1515 135.256 68.4875 134.872 68.8555 134.512C69.2235 134.152 69.5915 133.836 69.9595 133.564C70.3355 133.284 70.6835 133.068 71.0035 132.916C71.3235 132.756 71.5835 132.676 71.7835 132.676C71.8635 132.676 71.9355 132.704 71.9995 132.76C72.0635 132.816 72.0955 132.884 72.0955 132.964ZM71.9395 133.336C71.8835 133.392 71.8155 133.448 71.7355 133.504C71.6555 133.56 71.5675 133.62 71.4715 133.684C71.1195 133.932 70.7315 134.22 70.3075 134.548C69.8915 134.868 69.4915 135.22 69.1075 135.604C68.7315 135.98 68.4235 136.376 68.1835 136.792C67.9435 137.208 67.8235 137.636 67.8235 138.076C67.8235 138.268 67.9195 138.364 68.1115 138.364C68.3755 138.364 68.6635 138.24 68.9755 137.992C69.2955 137.736 69.6235 137.384 69.9595 136.936C70.2955 136.48 70.6315 135.948 70.9675 135.34C71.3035 134.724 71.6275 134.056 71.9395 133.336ZM79.258 133.828C79.258 134.084 79.178 134.336 79.018 134.584C78.858 134.824 78.646 135.056 78.382 135.28C78.118 135.496 77.826 135.7 77.506 135.892C77.186 136.084 76.866 136.252 76.546 136.396C76.226 136.54 75.934 136.656 75.67 136.744C75.606 137.056 75.574 137.332 75.574 137.572C75.574 137.724 75.61 137.832 75.682 137.896C75.754 137.96 75.866 137.992 76.018 137.992C76.354 137.992 76.71 137.932 77.086 137.812C77.462 137.692 77.846 137.536 78.238 137.344C78.63 137.152 79.006 136.948 79.366 136.732C79.726 136.516 80.054 136.312 80.35 136.12C80.654 135.928 80.906 135.772 81.106 135.652C81.306 135.532 81.438 135.472 81.502 135.472C81.598 135.472 81.67 135.504 81.718 135.568C81.774 135.624 81.802 135.692 81.802 135.772C81.802 135.836 81.702 135.96 81.502 136.144C81.31 136.328 81.05 136.544 80.722 136.792C80.394 137.032 80.026 137.28 79.618 137.536C79.21 137.792 78.786 138.032 78.346 138.256C77.914 138.48 77.494 138.66 77.086 138.796C76.686 138.932 76.326 139 76.006 139C75.59 139 75.266 138.844 75.034 138.532C74.802 138.22 74.686 137.736 74.686 137.08C74.686 136.64 74.742 136.196 74.854 135.748C74.974 135.3 75.134 134.872 75.334 134.464C75.542 134.048 75.77 133.68 76.018 133.36C76.274 133.032 76.542 132.776 76.822 132.592C77.102 132.4 77.374 132.304 77.638 132.304C78.142 132.304 78.538 132.444 78.826 132.724C79.114 133.004 79.258 133.372 79.258 133.828ZM75.922 135.82C76.17 135.668 76.426 135.508 76.69 135.34C76.954 135.172 77.198 135 77.422 134.824C77.646 134.648 77.826 134.464 77.962 134.272C78.106 134.072 78.178 133.868 78.178 133.66C78.178 133.364 78.018 133.216 77.698 133.216C77.498 133.216 77.286 133.344 77.062 133.6C76.846 133.848 76.638 134.172 76.438 134.572C76.238 134.972 76.066 135.388 75.922 135.82ZM81.4834 139.312C81.1794 139.312 80.9274 139.172 80.7274 138.892C80.5354 138.604 80.4394 138.232 80.4394 137.776C80.4394 137.352 80.5434 136.932 80.7514 136.516C80.9674 136.1 81.2514 135.7 81.6034 135.316C81.9554 134.932 82.3394 134.58 82.7554 134.26C83.1714 133.932 83.5874 133.648 84.0034 133.408C84.4274 133.168 84.8154 132.98 85.1674 132.844C85.5194 132.708 85.7994 132.64 86.0074 132.64C86.1194 132.64 86.2114 132.664 86.2834 132.712C86.3554 132.752 86.3914 132.828 86.3914 132.94C86.3914 133.012 86.3634 133.08 86.3074 133.144C86.3154 133.144 86.3234 133.144 86.3314 133.144C86.5074 133.144 86.5954 133.248 86.5954 133.456C86.5954 133.528 86.5674 133.676 86.5114 133.9C86.4554 134.116 86.3914 134.388 86.3194 134.716C86.2474 135.044 86.1834 135.408 86.1274 135.808C86.0714 136.2 86.0434 136.6 86.0434 137.008C86.0434 137.352 86.1754 137.524 86.4394 137.524C86.7354 137.524 87.0354 137.456 87.3394 137.32C87.6434 137.184 87.9394 137.02 88.2274 136.828C88.5154 136.628 88.7794 136.432 89.0194 136.24C89.2594 136.04 89.4634 135.872 89.6314 135.736C89.7994 135.6 89.9194 135.532 89.9914 135.532C90.0554 135.532 90.1114 135.552 90.1594 135.592C90.2074 135.632 90.2314 135.696 90.2314 135.784C90.2314 135.864 90.1514 136.008 89.9914 136.216C89.8314 136.424 89.6194 136.66 89.3554 136.924C89.0914 137.188 88.7954 137.444 88.4674 137.692C88.1394 137.94 87.8034 138.144 87.4594 138.304C87.1154 138.464 86.7874 138.544 86.4754 138.544C86.2354 138.544 86.0154 138.472 85.8154 138.328C85.6234 138.176 85.4674 137.92 85.3474 137.56C85.2354 137.2 85.1794 136.704 85.1794 136.072V135.772C84.7874 136.42 84.3754 137.012 83.9434 137.548C83.5194 138.084 83.0954 138.512 82.6714 138.832C82.2554 139.152 81.8594 139.312 81.4834 139.312ZM85.7794 133.504C85.7394 133.52 85.6834 133.544 85.6114 133.576C85.2434 133.744 84.8594 133.952 84.4594 134.2C84.0674 134.448 83.6834 134.724 83.3074 135.028C82.9394 135.332 82.6074 135.648 82.3114 135.976C82.0154 136.304 81.7794 136.636 81.6034 136.972C81.4274 137.308 81.3394 137.636 81.3394 137.956C81.3394 138.06 81.3594 138.14 81.3994 138.196C81.4474 138.252 81.5274 138.28 81.6394 138.28C81.7994 138.28 82.0074 138.18 82.2634 137.98C82.5194 137.772 82.7994 137.5 83.1034 137.164C83.4154 136.828 83.7274 136.456 84.0394 136.048C84.3514 135.64 84.6474 135.228 84.9274 134.812C85.2154 134.396 85.4634 134.012 85.6714 133.66C85.7034 133.604 85.7394 133.552 85.7794 133.504ZM91.4125 139.48C90.7965 139.48 90.3125 139.28 89.9605 138.88C89.6165 138.472 89.4445 137.904 89.4445 137.176C89.4445 136.728 89.5045 136.204 89.6245 135.604C89.7525 134.996 89.9125 134.356 90.1045 133.684C90.3045 133.004 90.5205 132.332 90.7525 131.668C90.9845 131.004 91.2085 130.388 91.4245 129.82C91.6485 129.244 91.8445 128.764 92.0125 128.38C92.1085 128.164 92.2445 128.056 92.4205 128.056C92.6605 128.056 92.7805 128.204 92.7805 128.5C92.7805 128.596 92.7365 128.792 92.6485 129.088C92.5605 129.384 92.4445 129.752 92.3005 130.192C92.1565 130.624 92.0005 131.104 91.8325 131.632C91.6645 132.16 91.4925 132.704 91.3165 133.264C91.1485 133.816 90.9925 134.364 90.8485 134.908C90.7045 135.444 90.5885 135.948 90.5005 136.42C90.4125 136.892 90.3685 137.296 90.3685 137.632C90.3685 137.848 90.4245 138.02 90.5365 138.148C90.6565 138.268 90.8165 138.328 91.0165 138.328C91.3845 138.328 91.7525 138.256 92.1205 138.112C92.4965 137.96 92.8565 137.776 93.2005 137.56C93.5445 137.336 93.8565 137.116 94.1365 136.9C94.4245 136.676 94.6685 136.492 94.8685 136.348C95.0685 136.196 95.2085 136.12 95.2885 136.12C95.4645 136.12 95.5525 136.216 95.5525 136.408C95.5525 136.472 95.4885 136.592 95.3605 136.768C95.2325 136.936 95.0605 137.136 94.8445 137.368C94.6285 137.6 94.3765 137.84 94.0885 138.088C93.8085 138.328 93.5125 138.556 93.2005 138.772C92.8965 138.98 92.5885 139.148 92.2765 139.276C91.9725 139.412 91.6845 139.48 91.4125 139.48ZM109.478 138.64C109.47 138.768 109.418 138.872 109.322 138.952C109.226 139.032 109.114 139.072 108.986 139.072C108.842 139.072 108.722 139.024 108.626 138.928C108.53 138.832 108.482 138.684 108.482 138.484C108.482 137.964 108.506 137.4 108.554 136.792C108.602 136.176 108.662 135.568 108.734 134.968C108.806 134.36 108.878 133.8 108.95 133.288C108.686 133.664 108.398 134.08 108.086 134.536C107.782 134.992 107.47 135.444 107.15 135.892C106.83 136.34 106.518 136.752 106.214 137.128C105.91 137.496 105.634 137.796 105.386 138.028C105.138 138.252 104.934 138.364 104.774 138.364C104.478 138.364 104.222 138.248 104.006 138.016C103.79 137.776 103.682 137.476 103.682 137.116C103.682 136.972 103.698 136.776 103.73 136.528C103.762 136.272 103.798 136.004 103.838 135.724C103.878 135.444 103.914 135.184 103.946 134.944C103.978 134.696 103.994 134.512 103.994 134.392C103.994 134.28 103.982 134.184 103.958 134.104C103.942 134.016 103.902 133.972 103.838 133.972C103.742 133.972 103.61 134.08 103.442 134.296C103.274 134.504 103.086 134.772 102.878 135.1C102.678 135.428 102.47 135.776 102.254 136.144C102.046 136.512 101.85 136.86 101.666 137.188C101.482 137.508 101.326 137.76 101.198 137.944C101.094 138.12 100.998 138.248 100.91 138.328C100.822 138.408 100.714 138.448 100.586 138.448C100.434 138.448 100.294 138.368 100.166 138.208C100.046 138.048 99.9862 137.852 99.9862 137.62C99.9862 137.484 100.01 137.272 100.058 136.984C100.106 136.688 100.166 136.364 100.238 136.012C100.318 135.66 100.394 135.316 100.466 134.98C100.546 134.636 100.614 134.344 100.67 134.104C100.734 133.832 100.814 133.648 100.91 133.552C101.006 133.456 101.11 133.408 101.222 133.408C101.374 133.408 101.494 133.464 101.582 133.576C101.678 133.68 101.726 133.844 101.726 134.068C101.726 134.108 101.702 134.216 101.654 134.392C101.606 134.56 101.546 134.768 101.474 135.016C101.41 135.256 101.338 135.508 101.258 135.772C101.186 136.036 101.126 136.28 101.078 136.504C101.254 136.208 101.438 135.888 101.63 135.544C101.83 135.2 102.03 134.86 102.23 134.524C102.43 134.18 102.63 133.868 102.83 133.588C103.03 133.3 103.226 133.072 103.418 132.904C103.61 132.736 103.794 132.652 103.97 132.652C104.178 132.652 104.37 132.716 104.546 132.844C104.73 132.972 104.878 133.144 104.99 133.36C105.102 133.576 105.158 133.816 105.158 134.08C105.158 134.264 105.126 134.524 105.062 134.86C104.998 135.188 104.93 135.544 104.858 135.928C104.794 136.312 104.754 136.676 104.738 137.02C104.738 137.1 104.762 137.14 104.81 137.14C104.85 137.14 104.898 137.112 104.954 137.056C105.186 136.8 105.442 136.492 105.722 136.132C106.002 135.764 106.286 135.376 106.574 134.968C106.87 134.56 107.162 134.16 107.45 133.768C107.738 133.368 108.006 133.008 108.254 132.688C108.51 132.36 108.734 132.1 108.926 131.908C109.126 131.716 109.282 131.62 109.394 131.62C109.634 131.62 109.818 131.688 109.946 131.824C110.074 131.96 110.138 132.188 110.138 132.508C110.138 132.764 110.118 133.096 110.078 133.504C110.046 133.912 110.002 134.356 109.946 134.836C109.898 135.316 109.842 135.8 109.778 136.288C109.722 136.768 109.666 137.216 109.61 137.632C109.554 138.04 109.51 138.376 109.478 138.64ZM112.138 139.312C111.834 139.312 111.582 139.172 111.382 138.892C111.19 138.604 111.094 138.232 111.094 137.776C111.094 137.352 111.198 136.932 111.406 136.516C111.622 136.1 111.906 135.7 112.258 135.316C112.61 134.932 112.994 134.58 113.41 134.26C113.826 133.932 114.242 133.648 114.658 133.408C115.082 133.168 115.47 132.98 115.822 132.844C116.174 132.708 116.454 132.64 116.662 132.64C116.774 132.64 116.866 132.664 116.938 132.712C117.01 132.752 117.046 132.828 117.046 132.94C117.046 133.012 117.018 133.08 116.962 133.144C116.97 133.144 116.978 133.144 116.986 133.144C117.162 133.144 117.25 133.248 117.25 133.456C117.25 133.528 117.222 133.676 117.166 133.9C117.11 134.116 117.046 134.388 116.974 134.716C116.902 135.044 116.838 135.408 116.782 135.808C116.726 136.2 116.698 136.6 116.698 137.008C116.698 137.352 116.83 137.524 117.094 137.524C117.39 137.524 117.69 137.456 117.994 137.32C118.298 137.184 118.594 137.02 118.882 136.828C119.17 136.628 119.434 136.432 119.674 136.24C119.914 136.04 120.118 135.872 120.286 135.736C120.454 135.6 120.574 135.532 120.646 135.532C120.71 135.532 120.766 135.552 120.814 135.592C120.862 135.632 120.886 135.696 120.886 135.784C120.886 135.864 120.806 136.008 120.646 136.216C120.486 136.424 120.274 136.66 120.01 136.924C119.746 137.188 119.45 137.444 119.122 137.692C118.794 137.94 118.458 138.144 118.114 138.304C117.77 138.464 117.442 138.544 117.13 138.544C116.89 138.544 116.67 138.472 116.47 138.328C116.278 138.176 116.122 137.92 116.002 137.56C115.89 137.2 115.834 136.704 115.834 136.072V135.772C115.442 136.42 115.03 137.012 114.598 137.548C114.174 138.084 113.75 138.512 113.326 138.832C112.91 139.152 112.514 139.312 112.138 139.312ZM116.434 133.504C116.394 133.52 116.338 133.544 116.266 133.576C115.898 133.744 115.514 133.952 115.114 134.2C114.722 134.448 114.338 134.724 113.962 135.028C113.594 135.332 113.262 135.648 112.966 135.976C112.67 136.304 112.434 136.636 112.258 136.972C112.082 137.308 111.994 137.636 111.994 137.956C111.994 138.06 112.014 138.14 112.054 138.196C112.102 138.252 112.182 138.28 112.294 138.28C112.454 138.28 112.662 138.18 112.918 137.98C113.174 137.772 113.454 137.5 113.758 137.164C114.07 136.828 114.382 136.456 114.694 136.048C115.006 135.64 115.302 135.228 115.582 134.812C115.87 134.396 116.118 134.012 116.326 133.66C116.358 133.604 116.394 133.552 116.434 133.504ZM118.955 135.16C118.739 135.144 118.639 135.004 118.655 134.74C118.663 134.676 118.707 134.6 118.787 134.512C118.867 134.416 118.959 134.364 119.063 134.356C119.311 134.332 119.615 134.296 119.975 134.248C120.343 134.192 120.747 134.128 121.187 134.056C121.267 133.664 121.363 133.252 121.475 132.82C121.587 132.388 121.711 131.968 121.847 131.56C121.983 131.144 122.127 130.768 122.279 130.432C122.431 130.096 122.591 129.832 122.759 129.64C122.847 129.552 122.927 129.492 122.999 129.46C123.071 129.42 123.135 129.4 123.191 129.4C123.303 129.4 123.391 129.448 123.455 129.544C123.527 129.64 123.563 129.748 123.563 129.868C123.563 129.932 123.551 129.996 123.527 130.06C123.367 130.508 123.195 131.06 123.011 131.716C122.827 132.372 122.631 133.088 122.423 133.864C123.159 133.744 123.895 133.616 124.631 133.48C125.367 133.344 125.999 133.22 126.527 133.108C126.679 133.044 126.795 133.056 126.875 133.144C126.963 133.232 127.007 133.32 127.007 133.408C127.007 133.52 126.975 133.604 126.911 133.66C126.855 133.716 126.795 133.764 126.731 133.804L126.719 133.816C126.559 133.88 126.319 133.956 125.999 134.044C125.679 134.124 125.311 134.212 124.895 134.308C124.479 134.396 124.035 134.484 123.563 134.572C123.099 134.66 122.639 134.74 122.183 134.812C121.999 135.516 121.811 136.24 121.619 136.984C121.435 137.72 121.251 138.444 121.067 139.156C120.987 139.444 120.895 139.624 120.791 139.696C120.695 139.776 120.591 139.816 120.479 139.816C120.351 139.816 120.239 139.768 120.143 139.672C120.055 139.576 120.043 139.38 120.107 139.084L120.983 134.992C120.503 135.064 120.079 135.116 119.711 135.148C119.351 135.18 119.099 135.184 118.955 135.16ZM127.396 139.168C127.004 139.168 126.664 139.08 126.376 138.904C126.096 138.72 125.88 138.484 125.728 138.196C125.576 137.908 125.5 137.612 125.5 137.308C125.5 136.668 125.612 136.084 125.836 135.556C126.06 135.02 126.34 134.548 126.676 134.14C127.02 133.724 127.372 133.372 127.732 133.084C128.1 132.796 128.432 132.58 128.728 132.436C129.032 132.284 129.248 132.208 129.376 132.208C129.632 132.208 129.76 132.336 129.76 132.592C129.76 132.712 129.68 132.852 129.52 133.012C129.36 133.164 129.156 133.344 128.908 133.552C128.66 133.76 128.396 133.996 128.116 134.26C127.836 134.516 127.572 134.808 127.324 135.136C127.076 135.456 126.872 135.816 126.712 136.216C126.552 136.608 126.472 137.04 126.472 137.512C126.472 137.992 126.668 138.232 127.06 138.232C127.42 138.232 127.788 138.164 128.164 138.028C128.548 137.892 128.924 137.716 129.292 137.5C129.668 137.276 130.028 137.044 130.372 136.804C130.716 136.564 131.028 136.336 131.308 136.12C131.588 135.896 131.824 135.716 132.016 135.58C132.208 135.444 132.344 135.376 132.424 135.376C132.584 135.376 132.664 135.464 132.664 135.64C132.664 135.776 132.572 135.956 132.388 136.18C132.204 136.404 131.956 136.648 131.644 136.912C131.332 137.176 130.984 137.444 130.6 137.716C130.216 137.98 129.828 138.224 129.436 138.448C129.044 138.664 128.668 138.84 128.308 138.976C127.956 139.104 127.652 139.168 127.396 139.168ZM132.346 139.54C132.17 139.54 132.034 139.488 131.938 139.384C131.842 139.288 131.794 139.044 131.794 138.652C131.794 138.292 131.858 137.824 131.986 137.248C132.114 136.664 132.286 136.016 132.502 135.304C132.718 134.592 132.962 133.856 133.234 133.096C133.506 132.328 133.79 131.576 134.086 130.84C134.39 130.096 134.682 129.416 134.962 128.8C135.066 128.576 135.174 128.42 135.286 128.332C135.398 128.244 135.53 128.2 135.682 128.2C135.786 128.2 135.874 128.232 135.946 128.296C136.026 128.352 136.066 128.448 136.066 128.584C136.066 128.632 136.014 128.788 135.91 129.052C135.814 129.316 135.678 129.664 135.502 130.096C135.334 130.528 135.146 131.012 134.938 131.548C134.73 132.084 134.518 132.648 134.302 133.24C134.086 133.832 133.882 134.428 133.69 135.028C133.498 135.62 133.334 136.188 133.198 136.732C133.062 137.276 132.97 137.764 132.922 138.196C133.114 137.964 133.334 137.668 133.582 137.308C133.83 136.948 134.094 136.56 134.374 136.144C134.654 135.728 134.938 135.316 135.226 134.908C135.514 134.5 135.798 134.128 136.078 133.792C136.358 133.456 136.618 133.188 136.858 132.988C137.106 132.78 137.322 132.676 137.506 132.676C137.81 132.676 138.054 132.772 138.238 132.964C138.43 133.148 138.526 133.452 138.526 133.876C138.526 134.116 138.478 134.404 138.382 134.74C138.294 135.076 138.19 135.428 138.07 135.796C137.95 136.164 137.842 136.516 137.746 136.852C137.658 137.188 137.614 137.476 137.614 137.716C137.614 138.044 137.738 138.208 137.986 138.208C138.37 138.208 138.754 138.124 139.138 137.956C139.53 137.788 139.902 137.58 140.254 137.332C140.606 137.076 140.93 136.82 141.226 136.564C141.522 136.3 141.774 136.076 141.982 135.892C142.206 135.692 142.394 135.592 142.546 135.592C142.738 135.592 142.834 135.692 142.834 135.892C142.834 135.948 142.822 136.012 142.798 136.084C142.774 136.156 142.71 136.248 142.606 136.36C142.478 136.504 142.294 136.692 142.054 136.924C141.822 137.156 141.55 137.404 141.238 137.668C140.934 137.932 140.602 138.18 140.242 138.412C139.89 138.644 139.526 138.836 139.15 138.988C138.782 139.132 138.422 139.204 138.07 139.204C137.59 139.204 137.218 139.068 136.954 138.796C136.698 138.516 136.57 138.132 136.57 137.644C136.57 137.34 136.618 136.972 136.714 136.54C136.81 136.108 136.93 135.652 137.074 135.172C137.226 134.684 137.378 134.208 137.53 133.744C137.274 133.92 136.994 134.184 136.69 134.536C136.394 134.88 136.082 135.272 135.754 135.712C135.426 136.144 135.098 136.584 134.77 137.032C134.45 137.48 134.138 137.896 133.834 138.28C133.538 138.656 133.262 138.96 133.006 139.192C132.75 139.424 132.53 139.54 132.346 139.54Z" fill="#2E2E2E"/>
</g>
<defs>
<clipPath id="clip0_6867_6660">
<rect width="200" height="142" fill="white"/>
</clipPath>
</defs>
</svg>
