<svg width="58" height="58" viewBox="0 0 58 58" fill="none" xmlns="http://www.w3.org/2000/svg">
<rect x="0.666016" width="57.334" height="57.334" rx="6.64742" fill="#FF6C37"/>
<path d="M39.4119 20.9657L29.427 30.9506L26.6113 28.135C36.4306 18.3157 37.4007 19.1675 39.4119 20.9657Z" fill="white"/>
<path d="M29.4255 31.1884C29.3546 31.1884 29.3072 31.1647 29.2599 31.1174L26.4206 28.3018C26.3259 28.2071 26.3259 28.0651 26.4206 27.9705C36.4055 17.9856 37.4466 18.932 39.5524 20.8249C39.5997 20.8722 39.6234 20.9195 39.6234 20.9905C39.6234 21.0615 39.5997 21.1088 39.5524 21.1561L29.5675 31.1174C29.5438 31.1647 29.4729 31.1884 29.4255 31.1884ZM26.9411 28.1361L29.4255 30.6205L39.0555 20.9905C37.3046 19.4289 36.1216 18.9557 26.9411 28.1361Z" fill="#FF6C37"/>
<path d="M32.2913 33.8114L29.5703 31.0904L39.5552 21.1055C42.2289 23.8028 38.2302 28.1801 32.2913 33.8114Z" fill="white"/>
<path d="M32.2914 34.0483C32.2204 34.0483 32.1731 34.0246 32.1258 33.9773L29.4047 31.2563C29.3574 31.209 29.3574 31.1617 29.3574 31.0907C29.3574 31.0197 29.3811 30.9724 29.4284 30.925L39.4133 20.9401C39.508 20.8455 39.6499 20.8455 39.7446 20.9401C40.3598 21.508 40.691 22.3125 40.6674 23.1406C40.62 25.767 37.6388 29.1032 32.4807 33.9773C32.4097 34.0246 32.3387 34.0483 32.2914 34.0483ZM29.9016 31.0907C31.4159 32.6286 32.0548 33.2438 32.2914 33.4804C36.2664 29.6947 40.1232 25.8143 40.1468 23.1406C40.1705 22.5254 39.9339 21.9102 39.5316 21.437L29.9016 31.0907Z" fill="#FF6C37"/>
<path d="M26.6562 28.2055L28.6674 30.2167C28.7147 30.264 28.7147 30.3113 28.6674 30.3586C28.6437 30.3823 28.6437 30.3823 28.62 30.3823L24.4557 31.2814C24.2428 31.3051 24.0535 31.1631 24.0062 30.9502C23.9825 30.8318 24.0298 30.7135 24.1008 30.6426L26.5142 28.2291C26.5615 28.1818 26.6325 28.1582 26.6562 28.2055Z" fill="white"/>
<path d="M24.3886 31.5183C24.0337 31.5183 23.7734 31.2344 23.7734 30.8794C23.7734 30.7138 23.8444 30.5482 23.9627 30.4299L26.3761 28.0165C26.5181 27.8982 26.7074 27.8982 26.8494 28.0165L28.8605 30.0276C29.0025 30.1459 29.0025 30.3589 28.8605 30.5009C28.8132 30.5482 28.7659 30.5718 28.6949 30.5955L24.5306 31.4946C24.4833 31.4946 24.4359 31.5183 24.3886 31.5183ZM26.5891 28.466L24.2703 30.7848C24.223 30.8321 24.1993 30.9031 24.2467 30.9741C24.2703 31.0451 24.3413 31.0687 24.4123 31.0451L28.3163 30.1933L26.5891 28.466Z" fill="#FF6C37"/>
<path d="M44.69 15.4279C43.1757 13.961 40.7387 14.0083 39.2717 15.5462C37.8047 17.0842 37.852 19.4976 39.39 20.9646C40.644 22.1713 42.5369 22.3843 44.0275 21.4851L41.3302 18.7878L44.69 15.4279Z" fill="white"/>
<path d="M42.0365 22.2663C39.7887 22.2663 37.9668 20.4444 37.9668 18.1966C37.9668 15.9488 39.7887 14.127 42.0365 14.127C43.0776 14.127 44.095 14.5292 44.8521 15.2627C44.8995 15.31 44.9231 15.3573 44.9231 15.4283C44.9231 15.4993 44.8995 15.5466 44.8521 15.5939L41.6579 18.7882L44.166 21.2962C44.2606 21.3909 44.2606 21.5328 44.166 21.6275C44.1423 21.6511 44.1423 21.6511 44.1186 21.6748C43.5035 22.0534 42.77 22.2663 42.0365 22.2663ZM42.0365 14.6238C40.049 14.6238 38.44 16.2328 38.4637 18.2203C38.4637 20.2078 40.0726 21.8168 42.0601 21.7931C42.6043 21.7931 43.1485 21.6748 43.6454 21.4145L41.161 18.9538C41.1137 18.9065 41.09 18.8591 41.09 18.7882C41.09 18.7172 41.1137 18.6699 41.161 18.6225L44.3316 15.452C43.6927 14.9078 42.8883 14.6238 42.0365 14.6238Z" fill="#FF6C37"/>
<path d="M44.759 15.4985L44.7116 15.4512L41.3281 18.7874L44.0018 21.4611C44.2621 21.2954 44.5224 21.1061 44.7353 20.8932C46.2496 19.4026 46.2496 16.9891 44.759 15.4985Z" fill="white"/>
<path d="M44.0238 21.7199C43.9528 21.7199 43.9055 21.6962 43.8582 21.6489L41.1608 18.9515C41.1135 18.9042 41.0898 18.8569 41.0898 18.7859C41.0898 18.7149 41.1135 18.6676 41.1608 18.6203L44.5207 15.2604C44.6153 15.1658 44.7573 15.1658 44.8519 15.2604L44.9229 15.3078C46.5082 16.893 46.5082 19.4484 44.9466 21.0574C44.71 21.294 44.4497 21.5069 44.1658 21.6726C44.0948 21.6962 44.0475 21.7199 44.0238 21.7199ZM41.6577 18.7859L44.0475 21.1757C44.2368 21.0574 44.426 20.8917 44.568 20.7498C45.9167 19.4011 45.9877 17.2006 44.6863 15.781L41.6577 18.7859Z" fill="#FF6C37"/>
<path d="M39.8127 21.3927C39.2448 20.8248 38.322 20.8248 37.7542 21.3927L28.834 30.3129L30.3246 31.8035L39.7653 23.5222C40.3805 23.0016 40.4279 22.0789 39.9073 21.4637C39.86 21.44 39.8363 21.4164 39.8127 21.3927Z" fill="white"/>
<path d="M30.3034 32.0385C30.2324 32.0385 30.1851 32.0148 30.1378 31.9675L28.6472 30.4768C28.5525 30.3822 28.5525 30.2402 28.6472 30.1456L37.5673 21.2254C38.2298 20.5629 39.2946 20.5629 39.9571 21.2254C40.6196 21.8879 40.6196 22.9526 39.9571 23.6152C39.9334 23.6388 39.9098 23.6625 39.8861 23.6861L30.4454 31.9675C30.4217 32.0148 30.3744 32.0385 30.3034 32.0385ZM29.1677 30.3112L30.3271 31.4706L39.6022 23.3312C40.1227 22.9053 40.17 22.1245 39.7441 21.604C39.3182 21.0834 38.5374 21.0361 38.0169 21.462C37.9932 21.4857 37.9696 21.5093 37.9223 21.533L29.1677 30.3112Z" fill="#FF6C37"/>
<path d="M21.9985 40.4609C21.9038 40.5082 21.8565 40.6029 21.8802 40.6975L22.2824 42.4011C22.377 42.6377 22.2351 42.9217 21.9748 42.9926C21.7855 43.0636 21.5726 42.9926 21.4543 42.8507L18.8516 40.2716L27.3458 31.7773L30.2798 31.8247L32.2673 33.8122C31.7941 34.2144 28.9311 36.9828 21.9985 40.4609Z" fill="white"/>
<path d="M21.8071 43.2315C21.6178 43.2315 21.4285 43.1605 21.3102 43.0185L18.7311 40.4395C18.6838 40.3922 18.6602 40.3448 18.6602 40.2739C18.6602 40.2029 18.6838 40.1556 18.7311 40.1082L27.2254 31.614C27.2727 31.5666 27.3437 31.543 27.391 31.543L30.325 31.5903C30.396 31.5903 30.4433 31.614 30.4906 31.6613L32.4782 33.6488C32.5255 33.6961 32.5491 33.7671 32.5491 33.8381C32.5491 33.9091 32.5255 33.9564 32.4545 34.0037L32.2889 34.1457C29.7808 36.3461 26.3736 38.5466 22.1383 40.6524L22.5406 42.3324C22.6115 42.64 22.4696 42.9712 22.1856 43.1368C22.0437 43.2078 21.9254 43.2315 21.8071 43.2315ZM19.2044 40.2739L21.6414 42.6873C21.7124 42.8056 21.8544 42.8529 21.9727 42.7819C22.091 42.7109 22.1383 42.569 22.0673 42.4507L21.6651 40.7471C21.6178 40.5341 21.7124 40.3448 21.9017 40.2502C26.0897 38.1444 29.4732 35.9676 31.9576 33.8144L30.2067 32.0635L27.4857 32.0162L19.2044 40.2739Z" fill="#FF6C37"/>
<path d="M16.8414 42.3083L18.8762 40.2734L21.9048 43.302L17.078 42.9708C16.865 42.9471 16.7231 42.7578 16.7467 42.5449C16.7467 42.4502 16.7704 42.3556 16.8414 42.3083Z" fill="white"/>
<path d="M21.9024 43.5135L17.0519 43.1823C16.697 43.1586 16.4604 42.851 16.484 42.4961C16.5077 42.3542 16.555 42.2122 16.6733 42.1175L18.7082 40.0827C18.8028 39.9881 18.9448 39.9881 19.0394 40.0827L22.068 43.1113C22.139 43.1823 22.1627 43.2769 22.1154 43.3716C22.068 43.4662 21.9971 43.5135 21.9024 43.5135ZM18.8738 40.6032L17.0046 42.4725C16.9336 42.5198 16.9336 42.6381 17.0046 42.6854C17.0283 42.7091 17.0519 42.7327 17.0992 42.7327L21.2872 43.0167L18.8738 40.6032Z" fill="#FF6C37"/>
<path d="M26.5179 32.8679C26.3759 32.8679 26.2812 32.7496 26.2812 32.6313C26.2812 32.5603 26.3049 32.513 26.3522 32.4657L28.6473 30.1706C28.742 30.0759 28.884 30.0759 28.9786 30.1706L30.4692 31.6612C30.5402 31.7322 30.5639 31.8032 30.5402 31.8978C30.5166 31.9688 30.4456 32.0398 30.3509 32.0635L26.5652 32.8679C26.5415 32.8679 26.5179 32.8679 26.5179 32.8679ZM28.813 30.6675L27.2513 32.2291L29.8067 31.6849L28.813 30.6675Z" fill="#FF6C37"/>
<path d="M30.2774 31.8264L27.6747 32.3942C27.4854 32.4415 27.2961 32.3232 27.2488 32.1339C27.2251 32.0156 27.2488 31.8973 27.3434 31.8027L28.7867 30.3594L30.2774 31.8264Z" fill="white"/>
<path d="M27.6267 32.6313C27.2954 32.6313 27.0352 32.3711 27.0352 32.0398C27.0352 31.8742 27.1061 31.7322 27.2008 31.6139L28.6441 30.1706C28.7387 30.0759 28.8807 30.0759 28.9754 30.1706L30.466 31.6612C30.537 31.7322 30.5606 31.8032 30.537 31.8978C30.5133 31.9688 30.4423 32.0398 30.3477 32.0635L27.745 32.6313C27.6977 32.6313 27.6503 32.6313 27.6267 32.6313ZM28.8097 30.6675L27.532 31.9452C27.4847 31.9925 27.4847 32.0398 27.5084 32.0871C27.532 32.1345 27.5794 32.1581 27.6503 32.1581L29.8271 31.6849L28.8097 30.6675Z" fill="#FF6C37"/>
<path d="M44.7826 17.772C44.7353 17.6301 44.5697 17.5591 44.4277 17.6064C44.2858 17.6537 44.2148 17.8193 44.2621 17.9613C44.2621 17.985 44.2858 18.0086 44.2858 18.0323C44.4277 18.3162 44.3804 18.6711 44.1911 18.9314C44.0965 19.0497 44.1201 19.2153 44.2148 19.31C44.3331 19.4046 44.4987 19.381 44.5933 19.2627C44.9483 18.8131 45.0192 18.2452 44.7826 17.772Z" fill="#FF6C37"/>
</svg>
