<svg width="48" height="48" viewBox="0 0 48 48" fill="none" xmlns="http://www.w3.org/2000/svg">
<path d="M24 23.35L20.87 25.796C20.6953 25.912 20.5273 25.914 20.366 25.802C20.2047 25.69 20.1573 25.5433 20.224 25.362L21.408 21.392L18.292 19.132C18.1253 19.016 18.082 18.8627 18.162 18.672C18.242 18.4813 18.3727 18.3853 18.554 18.384H22.432L23.616 14.438C23.6827 14.2567 23.8107 14.166 24 14.166C24.1893 14.166 24.3173 14.2567 24.384 14.438L25.57 18.384H29.434C29.6167 18.384 29.75 18.4793 29.834 18.67C29.918 18.8607 29.876 19.014 29.708 19.13L26.582 21.392L27.766 25.362C27.8327 25.5433 27.7853 25.69 27.624 25.802C27.4627 25.914 27.2947 25.912 27.12 25.796L24 23.35ZM24 39.924L16.074 42.292C15.5607 42.4747 15.0867 42.398 14.652 42.062C14.2173 41.726 14 41.2887 14 40.75V29.742C12.7333 28.4967 11.75 27.038 11.05 25.366C10.35 23.694 10 21.9053 10 20C10 16.0973 11.3573 12.7887 14.072 10.074C16.7867 7.35933 20.096 6.00133 24 6C27.904 5.99867 31.2133 7.356 33.928 10.072C36.6427 12.788 38 16.0973 38 20C38 21.9053 37.65 23.694 36.95 25.366C36.25 27.038 35.2667 28.496 34 29.74V40.748C34 41.2867 33.7827 41.724 33.348 42.06C32.9133 42.396 32.44 42.4727 31.928 42.29L24 39.924ZM24 32C27.3333 32 30.1667 30.8333 32.5 28.5C34.8333 26.1667 36 23.3333 36 20C36 16.6667 34.8333 13.8333 32.5 11.5C30.1667 9.16667 27.3333 8 24 8C20.6667 8 17.8333 9.16667 15.5 11.5C13.1667 13.8333 12 16.6667 12 20C12 23.3333 13.1667 26.1667 15.5 28.5C17.8333 30.8333 20.6667 32 24 32Z" fill="#635EF6"/>
</svg>
