<svg width="96" height="96" viewBox="0 0 96 96" fill="none" xmlns="http://www.w3.org/2000/svg">
<path opacity="0.4" d="M84 8V56.4C84 64 80 68 72.4 68H23.6C16 68 12 64 12 56.4V8H84Z" fill="#0062F1"/>
<path d="M88 11H8C6.36 11 5 9.64 5 8C5 6.36 6.36 5 8 5H88C89.64 5 91 6.36 91 8C91 9.64 89.64 11 88 11Z" fill="#0062F1"/>
<path d="M66.6733 89.36C66.1533 90.4 65.0733 91 63.9933 91C63.5533 91 63.0733 90.8801 62.6733 90.6801L47.9932 83.36L33.3132 90.6801C32.9132 90.8801 32.4333 91 31.9933 91C30.9133 91 29.8332 90.4 29.3132 89.36C28.5532 87.84 29.1533 86.0399 30.6733 85.3199L44.9932 78.16V68H50.9932V78.16L65.3132 85.3199C66.8332 86.0399 67.4333 87.84 66.6733 89.36Z" fill="#0062F1"/>
<path d="M30.0036 47.0036C29.1636 47.0036 28.2837 46.6437 27.6837 45.9237C26.6037 44.6437 26.8036 42.7637 28.0836 41.6837L40.6837 31.1636C41.8437 30.2036 43.3236 29.8036 44.7236 30.0436C46.1636 30.2836 47.4036 31.1636 48.1636 32.4436L52.3636 39.4436L64.0836 29.6837C65.3636 28.6037 67.2436 28.8036 68.3236 30.0836C69.4036 31.3636 69.2037 33.2436 67.9237 34.3236L55.3236 44.8436C54.1636 45.8036 52.6836 46.2036 51.2836 45.9636C49.8436 45.7236 48.6036 44.8437 47.8436 43.5637L43.6436 36.5637L31.9237 46.3236C31.3637 46.7636 30.6836 47.0036 30.0036 47.0036Z" fill="#0062F1"/>
</svg>
