<svg width="24" height="25" viewBox="0 0 24 25" fill="none" xmlns="http://www.w3.org/2000/svg">
<path d="M11 6.99219L11 19.9922" stroke="#141B34" stroke-width="1.5" stroke-linecap="round"/>
<path d="M11 19.9922C10.7777 19.9922 10.3235 19.7501 9.41526 19.266C8.4921 18.774 7.2167 18.2843 5.5825 17.977C3.74929 17.6323 2.83268 17.4599 2.41634 16.951C2 16.4421 2 15.6269 2 13.9966V7.58874C2 5.80572 2 4.91421 2.6487 4.3652C3.29741 3.8162 4.05911 3.95944 5.5825 4.24591C8.58958 4.81139 10.3818 5.99424 11 6.67333C11.6182 5.99424 13.4104 4.81139 16.4175 4.24591C17.9409 3.95944 18.7026 3.8162 19.3513 4.3652C20 4.91421 20 5.80572 20 7.58874V10.4922" stroke="#141B34" stroke-width="1.5" stroke-linecap="round" stroke-linejoin="round"/>
<path d="M15.3477 20.8479L15.1909 20.1145L15.3477 20.8479ZM14.1443 19.6445L14.8777 19.8013L14.1443 19.6445ZM15.0207 17.1039L14.4903 16.5736H14.4903L15.0207 17.1039ZM21.7963 14.4695L22.4458 14.0945L21.7963 14.4695ZM21.7963 15.9903L22.4458 16.3653L21.7963 15.9903ZM20.5227 13.1959L20.8977 12.5464L20.5227 13.1959ZM18.3285 13.7961L18.8588 14.3264L18.3285 13.7961ZM19.0019 13.1959L18.6269 12.5464L18.6269 12.5464L19.0019 13.1959ZM20.6658 16.1333L17.358 19.4412L18.4186 20.5018L21.7265 17.194L20.6658 16.1333ZM15.551 17.6342L18.8588 14.3264L17.7982 13.2657L14.4903 16.5736L15.551 17.6342ZM15.1909 20.1145C15.0155 20.152 14.8753 20.1819 14.7548 20.2043C14.6333 20.2269 14.5536 20.2376 14.4996 20.241C14.4441 20.2446 14.4479 20.238 14.4825 20.2469C14.5296 20.259 14.5936 20.2894 14.6482 20.344L13.5876 21.4046C13.9113 21.7284 14.3158 21.7557 14.5948 21.738C14.8603 21.7211 15.1839 21.6499 15.5045 21.5813L15.1909 20.1145ZM13.4109 19.4876C13.3423 19.8083 13.2711 20.1319 13.2542 20.3974C13.2364 20.6764 13.2638 21.0808 13.5876 21.4046L14.6482 20.344C14.7028 20.3986 14.7331 20.4626 14.7453 20.5097C14.7542 20.5443 14.7476 20.5481 14.7512 20.4926C14.7546 20.4386 14.7653 20.3589 14.7879 20.2374C14.8103 20.1169 14.8402 19.9767 14.8777 19.8013L13.4109 19.4876ZM20.6658 14.3264C21.0333 14.6939 21.1084 14.7782 21.1467 14.8445L22.4458 14.0945C22.2839 13.814 22.0257 13.5649 21.7265 13.2657L20.6658 14.3264ZM21.7265 17.194C22.0257 16.8948 22.2839 16.6457 22.4458 16.3653L21.1467 15.6153C21.1084 15.6816 21.0333 15.7659 20.6658 16.1333L21.7265 17.194ZM21.1467 14.8445C21.2844 15.083 21.2844 15.3768 21.1467 15.6153L22.4458 16.3653C22.8514 15.6627 22.8514 14.7971 22.4458 14.0945L21.1467 14.8445ZM21.7265 13.2657C21.4272 12.9665 21.1782 12.7083 20.8977 12.5464L20.1477 13.8455C20.214 13.8837 20.2983 13.9589 20.6658 14.3264L21.7265 13.2657ZM18.8588 14.3264C19.2263 13.9589 19.3106 13.8837 19.3769 13.8455L18.6269 12.5464C18.3465 12.7083 18.0974 12.9665 17.7982 13.2657L18.8588 14.3264ZM20.8977 12.5464C20.1951 12.1408 19.3295 12.1408 18.6269 12.5464L19.3769 13.8455C19.6154 13.7078 19.9092 13.7078 20.1477 13.8455L20.8977 12.5464ZM17.358 19.4412C17.1624 19.6367 16.8952 19.7631 16.5155 19.8601C16.3253 19.9087 16.1224 19.9462 15.8963 19.9853C15.679 20.0228 15.4303 20.0633 15.1909 20.1145L15.5045 21.5813C15.7063 21.5382 15.9131 21.5046 16.1517 21.4634C16.3814 21.4237 16.6346 21.3778 16.8866 21.3135C17.3914 21.1846 17.9533 20.9672 18.4186 20.5018L17.358 19.4412ZM14.8777 19.8013C14.9289 19.5619 14.9694 19.3132 15.0069 19.0959C15.046 18.8698 15.0835 18.6669 15.1321 18.4767C15.229 18.097 15.3555 17.8298 15.551 17.6342L14.4903 16.5736C14.025 17.0389 13.8076 17.6008 13.6787 18.1056C13.6144 18.3576 13.5685 18.6108 13.5288 18.8405C13.4876 19.0791 13.454 19.2858 13.4109 19.4876L14.8777 19.8013Z" fill="#141B34"/>
</svg>
