<svg width="242" height="132" viewBox="0 0 242 132" fill="none" xmlns="http://www.w3.org/2000/svg">
<g clip-path="url(#clip0_599_10837)">
<rect x="1" y="1" width="240" height="130" rx="12" fill="#F1F5FF"/>
<rect x="1" y="1" width="240" height="130" rx="12" fill="#F5F5F5"/>
<path d="M31.2756 16.2727V25H29.9588V16.2727H31.2756ZM34.3651 21.1136V25H33.0909V18.4545H34.3139V19.5199H34.3949C34.5455 19.1733 34.7813 18.8949 35.1023 18.6847C35.4261 18.4744 35.8338 18.3693 36.3253 18.3693C36.7713 18.3693 37.1619 18.4631 37.4972 18.6506C37.8324 18.8352 38.0923 19.1108 38.277 19.4773C38.4616 19.8437 38.554 20.2969 38.554 20.8366V25H37.2798V20.9901C37.2798 20.5156 37.1563 20.1449 36.9091 19.8778C36.6619 19.608 36.3224 19.473 35.8906 19.473C35.5952 19.473 35.3324 19.5369 35.1023 19.6648C34.875 19.7926 34.6946 19.9801 34.5611 20.2273C34.4304 20.4716 34.3651 20.767 34.3651 21.1136ZM43.5408 25V16.2727H44.8576V23.8665H48.8121V25H43.5408ZM50.212 25V18.4545H51.4862V25H50.212ZM50.8555 17.4446C50.6339 17.4446 50.4435 17.3707 50.2844 17.223C50.1282 17.0724 50.0501 16.8935 50.0501 16.6861C50.0501 16.4759 50.1282 16.2969 50.2844 16.1491C50.4435 15.9986 50.6339 15.9233 50.8555 15.9233C51.0771 15.9233 51.266 15.9986 51.4222 16.1491C51.5813 16.2969 51.6609 16.4759 51.6609 16.6861C51.6609 16.8935 51.5813 17.0724 51.4222 17.223C51.266 17.3707 51.0771 17.4446 50.8555 17.4446ZM54.4744 21.1136V25H53.2003V18.4545H54.4233V19.5199H54.5043C54.6548 19.1733 54.8906 18.8949 55.2116 18.6847C55.5355 18.4744 55.9432 18.3693 56.4347 18.3693C56.8807 18.3693 57.2713 18.4631 57.6065 18.6506C57.9418 18.8352 58.2017 19.1108 58.3864 19.4773C58.571 19.8437 58.6634 20.2969 58.6634 20.8366V25H57.3892V20.9901C57.3892 20.5156 57.2656 20.1449 57.0185 19.8778C56.7713 19.608 56.4318 19.473 56 19.473C55.7045 19.473 55.4418 19.5369 55.2116 19.6648C54.9844 19.7926 54.804 19.9801 54.6705 20.2273C54.5398 20.4716 54.4744 20.767 54.4744 21.1136ZM63.1932 25.1321C62.5483 25.1321 61.9929 24.9943 61.527 24.7188C61.0639 24.4403 60.706 24.0497 60.4531 23.5469C60.2031 23.0412 60.0781 22.4489 60.0781 21.7699C60.0781 21.0994 60.2031 20.5085 60.4531 19.9972C60.706 19.4858 61.0582 19.0866 61.5099 18.7997C61.9645 18.5128 62.4957 18.3693 63.1037 18.3693C63.473 18.3693 63.831 18.4304 64.1776 18.5526C64.5241 18.6747 64.8352 18.8665 65.1108 19.1278C65.3864 19.3892 65.6037 19.7287 65.7628 20.1463C65.9219 20.5611 66.0014 21.0653 66.0014 21.6591V22.1108H60.7983V21.1562H64.7528C64.7528 20.821 64.6847 20.5241 64.5483 20.2656C64.4119 20.0043 64.2202 19.7983 63.973 19.6477C63.7287 19.4972 63.4418 19.4219 63.1122 19.4219C62.7543 19.4219 62.4418 19.5099 62.1747 19.6861C61.9105 19.8594 61.706 20.0866 61.5611 20.3679C61.419 20.6463 61.348 20.9489 61.348 21.2756V22.0213C61.348 22.4588 61.4247 22.831 61.5781 23.1378C61.7344 23.4446 61.9517 23.679 62.2301 23.8409C62.5085 24 62.8338 24.0795 63.206 24.0795C63.4474 24.0795 63.6676 24.0455 63.8665 23.9773C64.0653 23.9062 64.2372 23.8011 64.3821 23.6619C64.527 23.5227 64.6378 23.3509 64.7145 23.1463L65.9205 23.3636C65.8239 23.7187 65.6506 24.0298 65.4006 24.2969C65.1534 24.5611 64.8423 24.767 64.4673 24.9148C64.0952 25.0597 63.6705 25.1321 63.1932 25.1321ZM70.6932 25V16.2727H73.804C74.483 16.2727 75.0455 16.3963 75.4915 16.6435C75.9375 16.8906 76.2713 17.2287 76.4929 17.6577C76.7145 18.0838 76.8253 18.5639 76.8253 19.098C76.8253 19.6349 76.7131 20.1179 76.4886 20.5469C76.267 20.973 75.9318 21.3111 75.483 21.5611C75.0369 21.8082 74.4759 21.9318 73.7997 21.9318H71.6605V20.8153H73.6804C74.1094 20.8153 74.4574 20.7415 74.7244 20.5938C74.9915 20.4432 75.1875 20.2386 75.3125 19.9801C75.4375 19.7216 75.5 19.4276 75.5 19.098C75.5 18.7685 75.4375 18.4759 75.3125 18.2202C75.1875 17.9645 74.9901 17.7642 74.7202 17.6193C74.4531 17.4744 74.1009 17.402 73.6634 17.402H72.0099V25H70.6932ZM80.1129 25.1449C79.6982 25.1449 79.3232 25.0682 78.9879 24.9148C78.6527 24.7585 78.3871 24.5327 78.1911 24.2372C77.9979 23.9418 77.9013 23.5795 77.9013 23.1506C77.9013 22.7812 77.9723 22.4773 78.1143 22.2386C78.2564 22 78.4482 21.8111 78.6896 21.6719C78.9311 21.5327 79.201 21.4276 79.4993 21.3565C79.7976 21.2855 80.1016 21.2315 80.4112 21.1946C80.8033 21.1491 81.1214 21.1122 81.3658 21.0838C81.6101 21.0526 81.7876 21.0028 81.8984 20.9347C82.0092 20.8665 82.0646 20.7557 82.0646 20.6023V20.5724C82.0646 20.2003 81.9595 19.9119 81.7493 19.7074C81.5419 19.5028 81.2322 19.4006 80.8203 19.4006C80.3913 19.4006 80.0533 19.4957 79.8061 19.6861C79.5618 19.8736 79.3928 20.0824 79.299 20.3125L78.1016 20.0398C78.2436 19.642 78.451 19.321 78.7237 19.0767C78.9993 18.8295 79.3161 18.6506 79.674 18.5398C80.032 18.4261 80.4084 18.3693 80.8033 18.3693C81.0646 18.3693 81.3416 18.4006 81.6342 18.4631C81.9297 18.5227 82.2053 18.6335 82.4609 18.7955C82.7195 18.9574 82.9311 19.1889 83.0959 19.4901C83.2607 19.7884 83.343 20.1761 83.343 20.6534V25H82.0987V24.1051H82.0476C81.9652 24.2699 81.8416 24.4318 81.6768 24.5909C81.5121 24.75 81.3004 24.8821 81.0419 24.9872C80.7834 25.0923 80.4737 25.1449 80.1129 25.1449ZM80.3899 24.1222C80.7422 24.1222 81.0433 24.0526 81.2933 23.9134C81.5462 23.7741 81.7379 23.5923 81.8686 23.3679C82.0021 23.1406 82.0689 22.8977 82.0689 22.6392V21.7955C82.0234 21.8409 81.9354 21.8835 81.8047 21.9233C81.6768 21.9602 81.5305 21.9929 81.3658 22.0213C81.201 22.0469 81.0405 22.071 80.8842 22.0938C80.728 22.1136 80.5973 22.1307 80.4922 22.1449C80.245 22.1761 80.0192 22.2287 79.8146 22.3026C79.6129 22.3764 79.451 22.483 79.3288 22.6222C79.2095 22.7585 79.1499 22.9403 79.1499 23.1676C79.1499 23.483 79.2663 23.7216 79.4993 23.8835C79.7322 24.0426 80.0291 24.1222 80.3899 24.1222ZM85.0401 25V18.4545H86.2717V19.4943H86.3398C86.4592 19.142 86.6694 18.8651 86.9705 18.6634C87.2745 18.4588 87.6183 18.3565 88.0018 18.3565C88.0813 18.3565 88.1751 18.3594 88.283 18.3651C88.3938 18.3707 88.4805 18.3778 88.543 18.3864V19.6051C88.4918 19.5909 88.4009 19.5753 88.2702 19.5582C88.1396 19.5384 88.0089 19.5284 87.8782 19.5284C87.5771 19.5284 87.3086 19.5923 87.0728 19.7202C86.8398 19.8452 86.6552 20.0199 86.5188 20.2443C86.3825 20.4659 86.3143 20.7187 86.3143 21.0028V25H85.0401ZM93.0877 18.4545V19.4773H89.5124V18.4545H93.0877ZM90.4712 16.8864H91.7454V23.0781C91.7454 23.3253 91.7823 23.5114 91.8562 23.6364C91.93 23.7585 92.0252 23.8423 92.1417 23.8878C92.261 23.9304 92.3903 23.9517 92.5295 23.9517C92.6317 23.9517 92.7212 23.9446 92.7979 23.9304C92.8746 23.9162 92.9343 23.9048 92.9769 23.8963L93.207 24.9489C93.1332 24.9773 93.0281 25.0057 92.8917 25.0341C92.7553 25.0653 92.5849 25.0824 92.3803 25.0852C92.0451 25.0909 91.7326 25.0312 91.4428 24.9062C91.1531 24.7812 90.9187 24.5881 90.7397 24.3267C90.5607 24.0653 90.4712 23.7372 90.4712 23.3423V16.8864ZM95.7713 21.1136V25H94.4972V18.4545H95.7202V19.5199H95.8011C95.9517 19.1733 96.1875 18.8949 96.5085 18.6847C96.8324 18.4744 97.2401 18.3693 97.7315 18.3693C98.1776 18.3693 98.5682 18.4631 98.9034 18.6506C99.2386 18.8352 99.4986 19.1108 99.6832 19.4773C99.8679 19.8437 99.9602 20.2969 99.9602 20.8366V25H98.6861V20.9901C98.6861 20.5156 98.5625 20.1449 98.3153 19.8778C98.0682 19.608 97.7287 19.473 97.2969 19.473C97.0014 19.473 96.7386 19.5369 96.5085 19.6648C96.2813 19.7926 96.1009 19.9801 95.9673 20.2273C95.8366 20.4716 95.7713 20.767 95.7713 21.1136ZM104.49 25.1321C103.845 25.1321 103.29 24.9943 102.824 24.7188C102.361 24.4403 102.003 24.0497 101.75 23.5469C101.5 23.0412 101.375 22.4489 101.375 21.7699C101.375 21.0994 101.5 20.5085 101.75 19.9972C102.003 19.4858 102.355 19.0866 102.807 18.7997C103.261 18.5128 103.793 18.3693 104.401 18.3693C104.77 18.3693 105.128 18.4304 105.474 18.5526C105.821 18.6747 106.132 18.8665 106.408 19.1278C106.683 19.3892 106.901 19.7287 107.06 20.1463C107.219 20.5611 107.298 21.0653 107.298 21.6591V22.1108H102.095V21.1562H106.05C106.05 20.821 105.982 20.5241 105.845 20.2656C105.709 20.0043 105.517 19.7983 105.27 19.6477C105.026 19.4972 104.739 19.4219 104.409 19.4219C104.051 19.4219 103.739 19.5099 103.472 19.6861C103.207 19.8594 103.003 20.0866 102.858 20.3679C102.716 20.6463 102.645 20.9489 102.645 21.2756V22.0213C102.645 22.4588 102.722 22.831 102.875 23.1378C103.031 23.4446 103.249 23.679 103.527 23.8409C103.805 24 104.131 24.0795 104.503 24.0795C104.744 24.0795 104.964 24.0455 105.163 23.9773C105.362 23.9062 105.534 23.8011 105.679 23.6619C105.824 23.5227 105.935 23.3509 106.011 23.1463L107.217 23.3636C107.121 23.7187 106.947 24.0298 106.697 24.2969C106.45 24.5611 106.139 24.767 105.764 24.9148C105.392 25.0597 104.967 25.1321 104.49 25.1321ZM108.712 25V18.4545H109.944V19.4943H110.012C110.131 19.142 110.341 18.8651 110.642 18.6634C110.946 18.4588 111.29 18.3565 111.674 18.3565C111.753 18.3565 111.847 18.3594 111.955 18.3651C112.066 18.3707 112.152 18.3778 112.215 18.3864V19.6051C112.164 19.5909 112.073 19.5753 111.942 19.5582C111.811 19.5384 111.681 19.5284 111.55 19.5284C111.249 19.5284 110.98 19.5923 110.745 19.7202C110.512 19.8452 110.327 20.0199 110.191 20.2443C110.054 20.4659 109.986 20.7187 109.986 21.0028V25H108.712ZM118.222 20.0526L117.067 20.2571C117.019 20.1094 116.942 19.9687 116.837 19.8352C116.735 19.7017 116.596 19.5923 116.42 19.5071C116.244 19.4219 116.023 19.3793 115.759 19.3793C115.398 19.3793 115.097 19.4602 114.856 19.6222C114.614 19.7812 114.494 19.9872 114.494 20.2401C114.494 20.4588 114.575 20.6349 114.737 20.7685C114.898 20.902 115.16 21.0114 115.521 21.0966L116.56 21.3352C117.163 21.4744 117.612 21.6889 117.907 21.9787C118.202 22.2685 118.35 22.6449 118.35 23.108C118.35 23.5 118.237 23.8494 118.009 24.1562C117.785 24.4602 117.471 24.6989 117.067 24.8722C116.667 25.0455 116.202 25.1321 115.674 25.1321C114.941 25.1321 114.343 24.9759 113.88 24.6634C113.417 24.348 113.133 23.9006 113.028 23.321L114.259 23.1335C114.336 23.4545 114.494 23.6974 114.732 23.8622C114.971 24.0241 115.282 24.1051 115.665 24.1051C116.083 24.1051 116.417 24.0185 116.667 23.8452C116.917 23.669 117.042 23.4545 117.042 23.2017C117.042 22.9972 116.965 22.8253 116.812 22.6861C116.661 22.5469 116.43 22.4418 116.117 22.3707L115.009 22.1278C114.398 21.9886 113.947 21.767 113.654 21.4631C113.364 21.1591 113.219 20.7741 113.219 20.3082C113.219 19.9219 113.327 19.5838 113.543 19.294C113.759 19.0043 114.058 18.7784 114.438 18.6165C114.819 18.4517 115.255 18.3693 115.746 18.3693C116.454 18.3693 117.011 18.5227 117.417 18.8295C117.823 19.1335 118.092 19.5412 118.222 20.0526ZM121.025 21.1136V25H119.751V16.2727H121.008V19.5199H121.089C121.243 19.1676 121.477 18.8878 121.792 18.6804C122.108 18.473 122.52 18.3693 123.028 18.3693C123.477 18.3693 123.869 18.4616 124.204 18.6463C124.542 18.831 124.804 19.1065 124.988 19.473C125.176 19.8366 125.27 20.2912 125.27 20.8366V25H123.995V20.9901C123.995 20.5099 123.872 20.1378 123.625 19.8736C123.377 19.6065 123.034 19.473 122.593 19.473C122.292 19.473 122.022 19.5369 121.784 19.6648C121.548 19.7926 121.362 19.9801 121.225 20.2273C121.092 20.4716 121.025 20.767 121.025 21.1136ZM126.97 25V18.4545H128.244V25H126.97ZM127.613 17.4446C127.392 17.4446 127.201 17.3707 127.042 17.223C126.886 17.0724 126.808 16.8935 126.808 16.6861C126.808 16.4759 126.886 16.2969 127.042 16.1491C127.201 15.9986 127.392 15.9233 127.613 15.9233C127.835 15.9233 128.024 15.9986 128.18 16.1491C128.339 16.2969 128.419 16.4759 128.419 16.6861C128.419 16.8935 128.339 17.0724 128.18 17.223C128.024 17.3707 127.835 17.4446 127.613 17.4446ZM129.958 27.4545V18.4545H131.202V19.5156H131.309C131.383 19.3793 131.489 19.2216 131.629 19.0426C131.768 18.8636 131.961 18.7074 132.208 18.5739C132.455 18.4375 132.782 18.3693 133.188 18.3693C133.717 18.3693 134.188 18.5028 134.603 18.7699C135.018 19.0369 135.343 19.4219 135.579 19.9247C135.817 20.4276 135.937 21.0327 135.937 21.7401C135.937 22.4474 135.819 23.054 135.583 23.5597C135.347 24.0625 135.023 24.4503 134.612 24.723C134.2 24.9929 133.729 25.1278 133.201 25.1278C132.803 25.1278 132.478 25.0611 132.225 24.9276C131.975 24.794 131.779 24.6378 131.637 24.4588C131.495 24.2798 131.386 24.1207 131.309 23.9815H131.232V27.4545H129.958ZM131.207 21.7273C131.207 22.1875 131.273 22.5909 131.407 22.9375C131.54 23.2841 131.734 23.5554 131.987 23.7514C132.239 23.9446 132.549 24.0412 132.915 24.0412C133.296 24.0412 133.614 23.9403 133.87 23.7386C134.126 23.5341 134.319 23.2571 134.45 22.9077C134.583 22.5582 134.65 22.1648 134.65 21.7273C134.65 21.2955 134.585 20.9077 134.454 20.5639C134.326 20.2202 134.133 19.9489 133.874 19.75C133.619 19.5511 133.299 19.4517 132.915 19.4517C132.546 19.4517 132.234 19.5469 131.978 19.7372C131.725 19.9276 131.533 20.1932 131.403 20.5341C131.272 20.875 131.207 21.2727 131.207 21.7273ZM142.269 20.0526L141.114 20.2571C141.066 20.1094 140.989 19.9687 140.884 19.8352C140.782 19.7017 140.643 19.5923 140.467 19.5071C140.29 19.4219 140.07 19.3793 139.806 19.3793C139.445 19.3793 139.144 19.4602 138.903 19.6222C138.661 19.7812 138.54 19.9872 138.54 20.2401C138.54 20.4588 138.621 20.6349 138.783 20.7685C138.945 20.902 139.207 21.0114 139.567 21.0966L140.607 21.3352C141.21 21.4744 141.658 21.6889 141.954 21.9787C142.249 22.2685 142.397 22.6449 142.397 23.108C142.397 23.5 142.283 23.8494 142.056 24.1562C141.832 24.4602 141.518 24.6989 141.114 24.8722C140.714 25.0455 140.249 25.1321 139.721 25.1321C138.988 25.1321 138.39 24.9759 137.927 24.6634C137.464 24.348 137.18 23.9006 137.075 23.321L138.306 23.1335C138.383 23.4545 138.54 23.6974 138.779 23.8622C139.018 24.0241 139.329 24.1051 139.712 24.1051C140.13 24.1051 140.464 24.0185 140.714 23.8452C140.964 23.669 141.089 23.4545 141.089 23.2017C141.089 22.9972 141.012 22.8253 140.859 22.6861C140.708 22.5469 140.477 22.4418 140.164 22.3707L139.056 22.1278C138.445 21.9886 137.994 21.767 137.701 21.4631C137.411 21.1591 137.266 20.7741 137.266 20.3082C137.266 19.9219 137.374 19.5838 137.59 19.294C137.806 19.0043 138.104 18.7784 138.485 18.6165C138.866 18.4517 139.302 18.3693 139.793 18.3693C140.501 18.3693 141.058 18.5227 141.464 18.8295C141.87 19.1335 142.138 19.5412 142.269 20.0526Z" fill="#7688A8"/>
<path d="M33.4197 47.1392C32.7071 47.1392 32.0774 47.0166 31.5305 46.7713C30.987 46.526 30.5611 46.188 30.2528 45.7571C29.9446 45.3262 29.7921 44.8357 29.7955 44.2855C29.7921 43.8546 29.88 43.4586 30.0589 43.0973C30.2412 42.7327 30.4882 42.4295 30.7997 42.1875C31.1113 41.9422 31.4593 41.7865 31.8438 41.7202V41.6605C31.3366 41.5379 30.9306 41.2661 30.6257 40.8452C30.3208 40.4242 30.17 39.9403 30.1733 39.3935C30.17 38.8731 30.3075 38.4091 30.5859 38.0014C30.8677 37.5904 31.2538 37.2673 31.7443 37.032C32.2348 36.7966 32.7933 36.679 33.4197 36.679C34.0395 36.679 34.593 36.7983 35.0803 37.0369C35.5708 37.2723 35.9569 37.5954 36.2386 38.0064C36.5204 38.4141 36.6629 38.8764 36.6662 39.3935C36.6629 39.9403 36.5071 40.4242 36.1989 40.8452C35.8906 41.2661 35.4896 41.5379 34.9957 41.6605V41.7202C35.3769 41.7865 35.7199 41.9422 36.0249 42.1875C36.3331 42.4295 36.5784 42.7327 36.7607 43.0973C36.9463 43.4586 37.0407 43.8546 37.044 44.2855C37.0407 44.8357 36.8849 45.3262 36.5767 45.7571C36.2685 46.188 35.8409 46.526 35.294 46.7713C34.7505 47.0166 34.1257 47.1392 33.4197 47.1392ZM33.4197 45.8814C33.8407 45.8814 34.2053 45.8118 34.5135 45.6726C34.8217 45.5301 35.0604 45.3329 35.2294 45.081C35.3984 44.8258 35.4846 44.5275 35.4879 44.1861C35.4846 43.8314 35.3918 43.5182 35.2095 43.2464C35.0305 42.9747 34.7869 42.7609 34.4787 42.6051C34.1705 42.4493 33.8175 42.3714 33.4197 42.3714C33.0187 42.3714 32.6624 42.4493 32.3509 42.6051C32.0393 42.7609 31.794 42.9747 31.6151 43.2464C31.4361 43.5182 31.3482 43.8314 31.3516 44.1861C31.3482 44.5275 31.4295 44.8258 31.5952 45.081C31.7642 45.3329 32.0045 45.5301 32.3161 45.6726C32.6276 45.8118 32.9955 45.8814 33.4197 45.8814ZM33.4197 41.1435C33.7578 41.1435 34.0578 41.0755 34.3196 40.9396C34.5814 40.8037 34.7869 40.6148 34.9361 40.3729C35.0885 40.1309 35.1664 39.8475 35.1697 39.5227C35.1664 39.2045 35.0902 38.9261 34.9411 38.6875C34.7952 38.4489 34.5914 38.2649 34.3295 38.1357C34.0677 38.0031 33.7644 37.9368 33.4197 37.9368C33.0684 37.9368 32.7602 38.0031 32.495 38.1357C32.2332 38.2649 32.0294 38.4489 31.8835 38.6875C31.7377 38.9261 31.6664 39.2045 31.6697 39.5227C31.6664 39.8475 31.7393 40.1309 31.8885 40.3729C32.0376 40.6148 32.2431 40.8037 32.505 40.9396C32.7701 41.0755 33.075 41.1435 33.4197 41.1435Z" fill="#2A3241"/>
<path d="M29.9588 76V67.2727H33.0696C33.7486 67.2727 34.3111 67.3963 34.7571 67.6435C35.2031 67.8906 35.5369 68.2287 35.7585 68.6577C35.9801 69.0838 36.0909 69.5639 36.0909 70.098C36.0909 70.6349 35.9787 71.1179 35.7543 71.5469C35.5327 71.973 35.1974 72.3111 34.7486 72.5611C34.3026 72.8082 33.7415 72.9318 33.0653 72.9318H30.9261V71.8153H32.946C33.375 71.8153 33.723 71.7415 33.9901 71.5938C34.2571 71.4432 34.4531 71.2386 34.5781 70.9801C34.7031 70.7216 34.7656 70.4276 34.7656 70.098C34.7656 69.7685 34.7031 69.4759 34.5781 69.2202C34.4531 68.9645 34.2557 68.7642 33.9858 68.6193C33.7188 68.4744 33.3665 68.402 32.929 68.402H31.2756V76H29.9588ZM39.3786 76.1449C38.9638 76.1449 38.5888 76.0682 38.2536 75.9148C37.9183 75.7585 37.6527 75.5327 37.4567 75.2372C37.2635 74.9418 37.1669 74.5795 37.1669 74.1506C37.1669 73.7812 37.2379 73.4773 37.38 73.2386C37.522 73 37.7138 72.8111 37.9553 72.6719C38.1967 72.5327 38.4666 72.4276 38.7649 72.3565C39.0632 72.2855 39.3672 72.2315 39.6768 72.1946C40.0689 72.1491 40.3871 72.1122 40.6314 72.0838C40.8757 72.0526 41.0533 72.0028 41.1641 71.9347C41.2749 71.8665 41.3303 71.7557 41.3303 71.6023V71.5724C41.3303 71.2003 41.2251 70.9119 41.0149 70.7074C40.8075 70.5028 40.4979 70.4006 40.0859 70.4006C39.657 70.4006 39.3189 70.4957 39.0717 70.6861C38.8274 70.8736 38.6584 71.0824 38.5646 71.3125L37.3672 71.0398C37.5092 70.642 37.7166 70.321 37.9893 70.0767C38.2649 69.8295 38.5817 69.6506 38.9396 69.5398C39.2976 69.4261 39.674 69.3693 40.0689 69.3693C40.3303 69.3693 40.6072 69.4006 40.8999 69.4631C41.1953 69.5227 41.4709 69.6335 41.7266 69.7955C41.9851 69.9574 42.1967 70.1889 42.3615 70.4901C42.5263 70.7884 42.6087 71.1761 42.6087 71.6534V76H41.3643V75.1051H41.3132C41.2308 75.2699 41.1072 75.4318 40.9425 75.5909C40.7777 75.75 40.5661 75.8821 40.3075 75.9872C40.049 76.0923 39.7393 76.1449 39.3786 76.1449ZM39.6555 75.1222C40.0078 75.1222 40.3089 75.0526 40.5589 74.9134C40.8118 74.7741 41.0036 74.5923 41.1342 74.3679C41.2678 74.1406 41.3345 73.8977 41.3345 73.6392V72.7955C41.2891 72.8409 41.201 72.8835 41.0703 72.9233C40.9425 72.9602 40.7962 72.9929 40.6314 73.0213C40.4666 73.0469 40.3061 73.071 40.1499 73.0938C39.9936 73.1136 39.8629 73.1307 39.7578 73.1449C39.5107 73.1761 39.2848 73.2287 39.0803 73.3026C38.8786 73.3764 38.7166 73.483 38.5945 73.6222C38.4751 73.7585 38.4155 73.9403 38.4155 74.1676C38.4155 74.483 38.532 74.7216 38.7649 74.8835C38.9979 75.0426 39.2947 75.1222 39.6555 75.1222ZM44.3058 76V69.4545H45.5373V70.4943H45.6055C45.7248 70.142 45.935 69.8651 46.2362 69.6634C46.5401 69.4588 46.8839 69.3565 47.2674 69.3565C47.3469 69.3565 47.4407 69.3594 47.5487 69.3651C47.6594 69.3707 47.7461 69.3778 47.8086 69.3864V70.6051C47.7575 70.5909 47.6665 70.5753 47.5359 70.5582C47.4052 70.5384 47.2745 70.5284 47.1438 70.5284C46.8427 70.5284 46.5742 70.5923 46.3384 70.7202C46.1055 70.8452 45.9208 71.0199 45.7844 71.2443C45.6481 71.4659 45.5799 71.7187 45.5799 72.0028V76H44.3058ZM52.3533 69.4545V70.4773H48.7781V69.4545H52.3533ZM49.7369 67.8864H51.011V74.0781C51.011 74.3253 51.0479 74.5114 51.1218 74.6364C51.1957 74.7585 51.2908 74.8423 51.4073 74.8878C51.5266 74.9304 51.6559 74.9517 51.7951 74.9517C51.8974 74.9517 51.9869 74.9446 52.0636 74.9304C52.1403 74.9162 52.1999 74.9048 52.2425 74.8963L52.4727 75.9489C52.3988 75.9773 52.2937 76.0057 52.1573 76.0341C52.021 76.0653 51.8505 76.0824 51.646 76.0852C51.3107 76.0909 50.9982 76.0312 50.7085 75.9062C50.4187 75.7812 50.1843 75.5881 50.0053 75.3267C49.8263 75.0653 49.7369 74.7372 49.7369 74.3423V67.8864ZM55.0369 72.1136V76H53.7628V69.4545H54.9858V70.5199H55.0668C55.2173 70.1733 55.4531 69.8949 55.7741 69.6847C56.098 69.4744 56.5057 69.3693 56.9972 69.3693C57.4432 69.3693 57.8338 69.4631 58.169 69.6506C58.5043 69.8352 58.7642 70.1108 58.9489 70.4773C59.1335 70.8437 59.2259 71.2969 59.2259 71.8366V76H57.9517V71.9901C57.9517 71.5156 57.8281 71.1449 57.581 70.8778C57.3338 70.608 56.9943 70.473 56.5625 70.473C56.267 70.473 56.0043 70.5369 55.7741 70.6648C55.5469 70.7926 55.3665 70.9801 55.233 71.2273C55.1023 71.4716 55.0369 71.767 55.0369 72.1136ZM63.7557 76.1321C63.1108 76.1321 62.5554 75.9943 62.0895 75.7188C61.6264 75.4403 61.2685 75.0497 61.0156 74.5469C60.7656 74.0412 60.6406 73.4489 60.6406 72.7699C60.6406 72.0994 60.7656 71.5085 61.0156 70.9972C61.2685 70.4858 61.6207 70.0866 62.0724 69.7997C62.527 69.5128 63.0582 69.3693 63.6662 69.3693C64.0355 69.3693 64.3935 69.4304 64.7401 69.5526C65.0866 69.6747 65.3977 69.8665 65.6733 70.1278C65.9489 70.3892 66.1662 70.7287 66.3253 71.1463C66.4844 71.5611 66.5639 72.0653 66.5639 72.6591V73.1108H61.3608V72.1562H65.3153C65.3153 71.821 65.2472 71.5241 65.1108 71.2656C64.9744 71.0043 64.7827 70.7983 64.5355 70.6477C64.2912 70.4972 64.0043 70.4219 63.6747 70.4219C63.3168 70.4219 63.0043 70.5099 62.7372 70.6861C62.473 70.8594 62.2685 71.0866 62.1236 71.3679C61.9815 71.6463 61.9105 71.9489 61.9105 72.2756V73.0213C61.9105 73.4588 61.9872 73.831 62.1406 74.1378C62.2969 74.4446 62.5142 74.679 62.7926 74.8409C63.071 75 63.3963 75.0795 63.7685 75.0795C64.0099 75.0795 64.2301 75.0455 64.429 74.9773C64.6278 74.9062 64.7997 74.8011 64.9446 74.6619C65.0895 74.5227 65.2003 74.3509 65.277 74.1463L66.483 74.3636C66.3864 74.7187 66.2131 75.0298 65.9631 75.2969C65.7159 75.5611 65.4048 75.767 65.0298 75.9148C64.6577 76.0597 64.233 76.1321 63.7557 76.1321ZM67.9776 76V69.4545H69.2092V70.4943H69.2773C69.3967 70.142 69.6069 69.8651 69.908 69.6634C70.212 69.4588 70.5558 69.3565 70.9393 69.3565C71.0188 69.3565 71.1126 69.3594 71.2205 69.3651C71.3313 69.3707 71.418 69.3778 71.4805 69.3864V70.6051C71.4293 70.5909 71.3384 70.5753 71.2077 70.5582C71.0771 70.5384 70.9464 70.5284 70.8157 70.5284C70.5146 70.5284 70.2461 70.5923 70.0103 70.7202C69.7773 70.8452 69.5927 71.0199 69.4563 71.2443C69.32 71.4659 69.2518 71.7187 69.2518 72.0028V76H67.9776ZM77.4879 71.0526L76.3331 71.2571C76.2848 71.1094 76.2081 70.9687 76.103 70.8352C76.0007 70.7017 75.8615 70.5923 75.6854 70.5071C75.5092 70.4219 75.2891 70.3793 75.0249 70.3793C74.6641 70.3793 74.3629 70.4602 74.1214 70.6222C73.88 70.7812 73.7592 70.9872 73.7592 71.2401C73.7592 71.4588 73.8402 71.6349 74.0021 71.7685C74.1641 71.902 74.4254 72.0114 74.7862 72.0966L75.826 72.3352C76.4283 72.4744 76.8771 72.6889 77.1726 72.9787C77.468 73.2685 77.6158 73.6449 77.6158 74.108C77.6158 74.5 77.5021 74.8494 77.2749 75.1562C77.0504 75.4602 76.7365 75.6989 76.3331 75.8722C75.9325 76.0455 75.468 76.1321 74.9396 76.1321C74.2067 76.1321 73.6087 75.9759 73.1456 75.6634C72.6825 75.348 72.3984 74.9006 72.2933 74.321L73.5249 74.1335C73.6016 74.4545 73.7592 74.6974 73.9979 74.8622C74.2365 75.0241 74.5476 75.1051 74.9311 75.1051C75.3487 75.1051 75.6825 75.0185 75.9325 74.8452C76.1825 74.669 76.3075 74.4545 76.3075 74.2017C76.3075 73.9972 76.2308 73.8253 76.0774 73.6861C75.9268 73.5469 75.6953 73.4418 75.3828 73.3707L74.2749 73.1278C73.6641 72.9886 73.2124 72.767 72.9197 72.4631C72.63 72.1591 72.4851 71.7741 72.4851 71.3082C72.4851 70.9219 72.593 70.5838 72.8089 70.294C73.0249 70.0043 73.3232 69.7784 73.7038 69.6165C74.0845 69.4517 74.5206 69.3693 75.0121 69.3693C75.7195 69.3693 76.2763 69.5227 76.6825 69.8295C77.0888 70.1335 77.3572 70.5412 77.4879 71.0526ZM80.2908 72.1136V76H79.0167V67.2727H80.2738V70.5199H80.3548C80.5082 70.1676 80.7425 69.8878 81.0579 69.6804C81.3732 69.473 81.7852 69.3693 82.2937 69.3693C82.7425 69.3693 83.1346 69.4616 83.4698 69.6463C83.8079 69.831 84.0692 70.1065 84.2539 70.473C84.4414 70.8366 84.5352 71.2912 84.5352 71.8366V76H83.261V71.9901C83.261 71.5099 83.1374 71.1378 82.8903 70.8736C82.6431 70.6065 82.2994 70.473 81.859 70.473C81.5579 70.473 81.288 70.5369 81.0494 70.6648C80.8136 70.7926 80.6275 70.9801 80.4911 71.2273C80.3576 71.4716 80.2908 71.767 80.2908 72.1136ZM86.2354 76V69.4545H87.5096V76H86.2354ZM86.8789 68.4446C86.6573 68.4446 86.467 68.3707 86.3079 68.223C86.1516 68.0724 86.0735 67.8935 86.0735 67.6861C86.0735 67.4759 86.1516 67.2969 86.3079 67.1491C86.467 66.9986 86.6573 66.9233 86.8789 66.9233C87.1005 66.9233 87.2894 66.9986 87.4457 67.1491C87.6048 67.2969 87.6843 67.4759 87.6843 67.6861C87.6843 67.8935 87.6048 68.0724 87.4457 68.223C87.2894 68.3707 87.1005 68.4446 86.8789 68.4446ZM89.2237 78.4545V69.4545H90.468V70.5156H90.5746C90.6484 70.3793 90.755 70.2216 90.8942 70.0426C91.0334 69.8636 91.2266 69.7074 91.4737 69.5739C91.7209 69.4375 92.0476 69.3693 92.4538 69.3693C92.9822 69.3693 93.4538 69.5028 93.8686 69.7699C94.2834 70.0369 94.6087 70.4219 94.8445 70.9247C95.0831 71.4276 95.2024 72.0327 95.2024 72.7401C95.2024 73.4474 95.0845 74.054 94.8487 74.5597C94.6129 75.0625 94.2891 75.4503 93.8771 75.723C93.4652 75.9929 92.995 76.1278 92.4666 76.1278C92.0689 76.1278 91.7436 76.0611 91.4908 75.9276C91.2408 75.794 91.0447 75.6378 90.9027 75.4588C90.7607 75.2798 90.6513 75.1207 90.5746 74.9815H90.4979V78.4545H89.2237ZM90.4723 72.7273C90.4723 73.1875 90.5391 73.5909 90.6726 73.9375C90.8061 74.2841 90.9993 74.5554 91.2521 74.7514C91.505 74.9446 91.8146 75.0412 92.1811 75.0412C92.5618 75.0412 92.88 74.9403 93.1357 74.7386C93.3913 74.5341 93.5845 74.2571 93.7152 73.9077C93.8487 73.5582 93.9155 73.1648 93.9155 72.7273C93.9155 72.2955 93.8501 71.9077 93.7195 71.5639C93.5916 71.2202 93.3984 70.9489 93.1399 70.75C92.8842 70.5511 92.5646 70.4517 92.1811 70.4517C91.8118 70.4517 91.4993 70.5469 91.2436 70.7372C90.9908 70.9276 90.799 71.1932 90.6683 71.5341C90.5376 71.875 90.4723 72.2727 90.4723 72.7273ZM101.535 71.0526L100.38 71.2571C100.332 71.1094 100.255 70.9687 100.15 70.8352C100.048 70.7017 99.9084 70.5923 99.7322 70.5071C99.5561 70.4219 99.3359 70.3793 99.0717 70.3793C98.7109 70.3793 98.4098 70.4602 98.1683 70.6222C97.9268 70.7812 97.8061 70.9872 97.8061 71.2401C97.8061 71.4588 97.8871 71.6349 98.049 71.7685C98.2109 71.902 98.4723 72.0114 98.8331 72.0966L99.8729 72.3352C100.475 72.4744 100.924 72.6889 101.219 72.9787C101.515 73.2685 101.663 73.6449 101.663 74.108C101.663 74.5 101.549 74.8494 101.322 75.1562C101.097 75.4602 100.783 75.6989 100.38 75.8722C99.9794 76.0455 99.5149 76.1321 98.9865 76.1321C98.2536 76.1321 97.6555 75.9759 97.1925 75.6634C96.7294 75.348 96.4453 74.9006 96.3402 74.321L97.5717 74.1335C97.6484 74.4545 97.8061 74.6974 98.0447 74.8622C98.2834 75.0241 98.5945 75.1051 98.978 75.1051C99.3956 75.1051 99.7294 75.0185 99.9794 74.8452C100.229 74.669 100.354 74.4545 100.354 74.2017C100.354 73.9972 100.278 73.8253 100.124 73.6861C99.9737 73.5469 99.7422 73.4418 99.4297 73.3707L98.3217 73.1278C97.7109 72.9886 97.2592 72.767 96.9666 72.4631C96.6768 72.1591 96.532 71.7741 96.532 71.3082C96.532 70.9219 96.6399 70.5838 96.8558 70.294C97.0717 70.0043 97.37 69.7784 97.7507 69.6165C98.1314 69.4517 98.5675 69.3693 99.0589 69.3693C99.7663 69.3693 100.323 69.5227 100.729 69.8295C101.136 70.1335 101.404 70.5412 101.535 71.0526ZM106.239 76V69.4545H107.513V76H106.239ZM106.883 68.4446C106.661 68.4446 106.471 68.3707 106.312 68.223C106.156 68.0724 106.077 67.8935 106.077 67.6861C106.077 67.4759 106.156 67.2969 106.312 67.1491C106.471 66.9986 106.661 66.9233 106.883 66.9233C107.104 66.9233 107.293 66.9986 107.45 67.1491C107.609 67.2969 107.688 67.4759 107.688 67.6861C107.688 67.8935 107.609 68.0724 107.45 68.223C107.293 68.3707 107.104 68.4446 106.883 68.4446ZM110.502 72.1136V76H109.228V69.4545H110.451V70.5199H110.532C110.682 70.1733 110.918 69.8949 111.239 69.6847C111.563 69.4744 111.971 69.3693 112.462 69.3693C112.908 69.3693 113.299 69.4631 113.634 69.6506C113.969 69.8352 114.229 70.1108 114.414 70.4773C114.598 70.8437 114.691 71.2969 114.691 71.8366V76H113.417V71.9901C113.417 71.5156 113.293 71.1449 113.046 70.8778C112.799 70.608 112.459 70.473 112.027 70.473C111.732 70.473 111.469 70.5369 111.239 70.6648C111.012 70.7926 110.831 70.9801 110.698 71.2273C110.567 71.4716 110.502 71.767 110.502 72.1136ZM119.678 76V67.2727H120.994V74.8665H124.949V76H119.678ZM128.254 76.1449C127.839 76.1449 127.464 76.0682 127.129 75.9148C126.793 75.7585 126.528 75.5327 126.332 75.2372C126.138 74.9418 126.042 74.5795 126.042 74.1506C126.042 73.7812 126.113 73.4773 126.255 73.2386C126.397 73 126.589 72.8111 126.83 72.6719C127.072 72.5327 127.342 72.4276 127.64 72.3565C127.938 72.2855 128.242 72.2315 128.552 72.1946C128.944 72.1491 129.262 72.1122 129.506 72.0838C129.751 72.0526 129.928 72.0028 130.039 71.9347C130.15 71.8665 130.205 71.7557 130.205 71.6023V71.5724C130.205 71.2003 130.1 70.9119 129.89 70.7074C129.683 70.5028 129.373 70.4006 128.961 70.4006C128.532 70.4006 128.194 70.4957 127.947 70.6861C127.702 70.8736 127.533 71.0824 127.44 71.3125L126.242 71.0398C126.384 70.642 126.592 70.321 126.864 70.0767C127.14 69.8295 127.457 69.6506 127.815 69.5398C128.173 69.4261 128.549 69.3693 128.944 69.3693C129.205 69.3693 129.482 69.4006 129.775 69.4631C130.07 69.5227 130.346 69.6335 130.602 69.7955C130.86 69.9574 131.072 70.1889 131.237 70.4901C131.401 70.7884 131.484 71.1761 131.484 71.6534V76H130.239V75.1051H130.188C130.106 75.2699 129.982 75.4318 129.817 75.5909C129.653 75.75 129.441 75.8821 129.183 75.9872C128.924 76.0923 128.614 76.1449 128.254 76.1449ZM128.531 75.1222C128.883 75.1222 129.184 75.0526 129.434 74.9134C129.687 74.7741 129.879 74.5923 130.009 74.3679C130.143 74.1406 130.21 73.8977 130.21 73.6392V72.7955C130.164 72.8409 130.076 72.8835 129.945 72.9233C129.817 72.9602 129.671 72.9929 129.506 73.0213C129.342 73.0469 129.181 73.071 129.025 73.0938C128.869 73.1136 128.738 73.1307 128.633 73.1449C128.386 73.1761 128.16 73.2287 127.955 73.3026C127.754 73.3764 127.592 73.483 127.469 73.6222C127.35 73.7585 127.29 73.9403 127.29 74.1676C127.29 74.483 127.407 74.7216 127.64 74.8835C127.873 75.0426 128.17 75.1222 128.531 75.1222ZM138.086 71.0526L136.931 71.2571C136.882 71.1094 136.806 70.9687 136.701 70.8352C136.598 70.7017 136.459 70.5923 136.283 70.5071C136.107 70.4219 135.887 70.3793 135.623 70.3793C135.262 70.3793 134.961 70.4602 134.719 70.6222C134.478 70.7812 134.357 70.9872 134.357 71.2401C134.357 71.4588 134.438 71.6349 134.6 71.7685C134.762 71.902 135.023 72.0114 135.384 72.0966L136.424 72.3352C137.026 72.4744 137.475 72.6889 137.77 72.9787C138.066 73.2685 138.213 73.6449 138.213 74.108C138.213 74.5 138.1 74.8494 137.873 75.1562C137.648 75.4602 137.334 75.6989 136.931 75.8722C136.53 76.0455 136.066 76.1321 135.537 76.1321C134.804 76.1321 134.206 75.9759 133.743 75.6634C133.28 75.348 132.996 74.9006 132.891 74.321L134.123 74.1335C134.199 74.4545 134.357 74.6974 134.596 74.8622C134.834 75.0241 135.145 75.1051 135.529 75.1051C135.946 75.1051 136.28 75.0185 136.53 74.8452C136.78 74.669 136.905 74.4545 136.905 74.2017C136.905 73.9972 136.828 73.8253 136.675 73.6861C136.525 73.5469 136.293 73.4418 135.98 73.3707L134.873 73.1278C134.262 72.9886 133.81 72.767 133.517 72.4631C133.228 72.1591 133.083 71.7741 133.083 71.3082C133.083 70.9219 133.191 70.5838 133.407 70.294C133.623 70.0043 133.921 69.7784 134.301 69.6165C134.682 69.4517 135.118 69.3693 135.61 69.3693C136.317 69.3693 136.874 69.5227 137.28 69.8295C137.686 70.1335 137.955 70.5412 138.086 71.0526ZM142.67 69.4545V70.4773H139.094V69.4545H142.67ZM140.053 67.8864H141.327V74.0781C141.327 74.3253 141.364 74.5114 141.438 74.6364C141.512 74.7585 141.607 74.8423 141.724 74.8878C141.843 74.9304 141.972 74.9517 142.112 74.9517C142.214 74.9517 142.303 74.9446 142.38 74.9304C142.457 74.9162 142.516 74.9048 142.559 74.8963L142.789 75.9489C142.715 75.9773 142.61 76.0057 142.474 76.0341C142.337 76.0653 142.167 76.0824 141.962 76.0852C141.627 76.0909 141.315 76.0312 141.025 75.9062C140.735 75.7812 140.501 75.5881 140.322 75.3267C140.143 75.0653 140.053 74.7372 140.053 74.3423V67.8864ZM150.549 67.2727V76H149.228V68.5938H149.177L147.089 69.9574V68.696L149.266 67.2727H150.549ZM152.91 76V75.0455L155.863 71.9858C156.178 71.6534 156.438 71.3622 156.643 71.1122C156.85 70.8594 157.005 70.6193 157.107 70.392C157.21 70.1648 157.261 69.9233 157.261 69.6676C157.261 69.3778 157.192 69.1278 157.056 68.9176C156.92 68.7045 156.734 68.5412 156.498 68.4276C156.262 68.3111 155.996 68.2528 155.701 68.2528C155.388 68.2528 155.116 68.3168 154.883 68.4446C154.65 68.5724 154.471 68.7528 154.346 68.9858C154.221 69.2187 154.158 69.4915 154.158 69.804H152.901C152.901 69.2727 153.023 68.8082 153.268 68.4105C153.512 68.0128 153.847 67.7045 154.273 67.4858C154.7 67.2642 155.184 67.1534 155.727 67.1534C156.275 67.1534 156.758 67.2628 157.175 67.4815C157.596 67.6974 157.924 67.9929 158.16 68.3679C158.396 68.7401 158.513 69.1605 158.513 69.6293C158.513 69.9531 158.452 70.2699 158.33 70.5795C158.211 70.8892 158.002 71.2344 157.704 71.6151C157.406 71.9929 156.991 72.4517 156.46 72.9915L154.725 74.8068V74.8707H158.654V76H152.91ZM163.462 76V69.4545H164.685V70.5199H164.766C164.902 70.1591 165.125 69.8778 165.435 69.6761C165.745 69.4716 166.115 69.3693 166.547 69.3693C166.985 69.3693 167.351 69.4716 167.647 69.6761C167.945 69.8807 168.165 70.1619 168.307 70.5199H168.375C168.532 70.1705 168.78 69.892 169.121 69.6847C169.462 69.4744 169.868 69.3693 170.34 69.3693C170.934 69.3693 171.418 69.5554 171.793 69.9276C172.171 70.2997 172.36 70.8608 172.36 71.6108V76H171.086V71.7301C171.086 71.2869 170.965 70.9659 170.723 70.767C170.482 70.5682 170.194 70.4688 169.858 70.4688C169.444 70.4688 169.121 70.5966 168.891 70.8523C168.661 71.1051 168.546 71.4304 168.546 71.8281V76H167.276V71.6491C167.276 71.294 167.165 71.0085 166.944 70.7926C166.722 70.5767 166.434 70.4688 166.078 70.4688C165.837 70.4688 165.614 70.5327 165.409 70.6605C165.208 70.7855 165.044 70.9602 164.919 71.1847C164.797 71.4091 164.736 71.669 164.736 71.9645V76H163.462ZM176.825 76.1321C176.211 76.1321 175.675 75.9915 175.218 75.7102C174.761 75.429 174.406 75.0355 174.153 74.5298C173.9 74.0241 173.773 73.4332 173.773 72.7571C173.773 72.0781 173.9 71.4844 174.153 70.9759C174.406 70.4673 174.761 70.0724 175.218 69.7912C175.675 69.5099 176.211 69.3693 176.825 69.3693C177.438 69.3693 177.974 69.5099 178.431 69.7912C178.888 70.0724 179.244 70.4673 179.496 70.9759C179.749 71.4844 179.876 72.0781 179.876 72.7571C179.876 73.4332 179.749 74.0241 179.496 74.5298C179.244 75.0355 178.888 75.429 178.431 75.7102C177.974 75.9915 177.438 76.1321 176.825 76.1321ZM176.829 75.0625C177.227 75.0625 177.556 74.9574 177.817 74.7472C178.079 74.5369 178.272 74.2571 178.397 73.9077C178.525 73.5582 178.589 73.1733 178.589 72.7528C178.589 72.3352 178.525 71.9517 178.397 71.6023C178.272 71.25 178.079 70.9673 177.817 70.7543C177.556 70.5412 177.227 70.4347 176.829 70.4347C176.428 70.4347 176.096 70.5412 175.832 70.7543C175.57 70.9673 175.376 71.25 175.248 71.6023C175.123 71.9517 175.06 72.3352 175.06 72.7528C175.06 73.1733 175.123 73.5582 175.248 73.9077C175.376 74.2571 175.57 74.5369 175.832 74.7472C176.096 74.9574 176.428 75.0625 176.829 75.0625ZM182.572 72.1136V76H181.298V69.4545H182.521V70.5199H182.602C182.752 70.1733 182.988 69.8949 183.309 69.6847C183.633 69.4744 184.041 69.3693 184.532 69.3693C184.978 69.3693 185.369 69.4631 185.704 69.6506C186.039 69.8352 186.299 70.1108 186.484 70.4773C186.669 70.8437 186.761 71.2969 186.761 71.8366V76H185.487V71.9901C185.487 71.5156 185.363 71.1449 185.116 70.8778C184.869 70.608 184.529 70.473 184.098 70.473C183.802 70.473 183.539 70.5369 183.309 70.6648C183.082 70.7926 182.902 70.9801 182.768 71.2273C182.637 71.4716 182.572 71.767 182.572 72.1136ZM191.525 69.4545V70.4773H187.95V69.4545H191.525ZM188.909 67.8864H190.183V74.0781C190.183 74.3253 190.22 74.5114 190.294 74.6364C190.368 74.7585 190.463 74.8423 190.579 74.8878C190.699 74.9304 190.828 74.9517 190.967 74.9517C191.069 74.9517 191.159 74.9446 191.235 74.9304C191.312 74.9162 191.372 74.9048 191.414 74.8963L191.645 75.9489C191.571 75.9773 191.466 76.0057 191.329 76.0341C191.193 76.0653 191.022 76.0824 190.818 76.0852C190.483 76.0909 190.17 76.0312 189.88 75.9062C189.591 75.7812 189.356 75.5881 189.177 75.3267C188.998 75.0653 188.909 74.7372 188.909 74.3423V67.8864ZM194.349 72.1136V76H193.075V67.2727H194.332V70.5199H194.413C194.567 70.1676 194.801 69.8878 195.116 69.6804C195.432 69.473 195.844 69.3693 196.352 69.3693C196.801 69.3693 197.193 69.4616 197.528 69.6463C197.866 69.831 198.128 70.1065 198.312 70.473C198.5 70.8366 198.594 71.2912 198.594 71.8366V76H197.32V71.9901C197.32 71.5099 197.196 71.1378 196.949 70.8736C196.702 70.6065 196.358 70.473 195.918 70.473C195.616 70.473 195.347 70.5369 195.108 70.6648C194.872 70.7926 194.686 70.9801 194.55 71.2273C194.416 71.4716 194.349 71.767 194.349 72.1136ZM205.199 71.0526L204.044 71.2571C203.996 71.1094 203.919 70.9687 203.814 70.8352C203.712 70.7017 203.572 70.5923 203.396 70.5071C203.22 70.4219 203 70.3793 202.736 70.3793C202.375 70.3793 202.074 70.4602 201.832 70.6222C201.591 70.7812 201.47 70.9872 201.47 71.2401C201.47 71.4588 201.551 71.6349 201.713 71.7685C201.875 71.902 202.136 72.0114 202.497 72.0966L203.537 72.3352C204.139 72.4744 204.588 72.6889 204.884 72.9787C205.179 73.2685 205.327 73.6449 205.327 74.108C205.327 74.5 205.213 74.8494 204.986 75.1562C204.761 75.4602 204.447 75.6989 204.044 75.8722C203.643 76.0455 203.179 76.1321 202.651 76.1321C201.918 76.1321 201.32 75.9759 200.857 75.6634C200.393 75.348 200.109 74.9006 200.004 74.321L201.236 74.1335C201.313 74.4545 201.47 74.6974 201.709 74.8622C201.947 75.0241 202.259 75.1051 202.642 75.1051C203.06 75.1051 203.393 75.0185 203.643 74.8452C203.893 74.669 204.018 74.4545 204.018 74.2017C204.018 73.9972 203.942 73.8253 203.788 73.6861C203.638 73.5469 203.406 73.4418 203.094 73.3707L201.986 73.1278C201.375 72.9886 200.923 72.767 200.631 72.4631C200.341 72.1591 200.196 71.7741 200.196 71.3082C200.196 70.9219 200.304 70.5838 200.52 70.294C200.736 70.0043 201.034 69.7784 201.415 69.6165C201.795 69.4517 202.232 69.3693 202.723 69.3693C203.43 69.3693 203.987 69.5227 204.393 69.8295C204.8 70.1335 205.068 70.5412 205.199 71.0526Z" fill="#7688A8"/>
<path d="M33.4197 98.1392C32.7071 98.1392 32.0774 98.0166 31.5305 97.7713C30.987 97.526 30.5611 97.188 30.2528 96.7571C29.9446 96.3262 29.7921 95.8357 29.7955 95.2855C29.7921 94.8546 29.88 94.4586 30.0589 94.0973C30.2412 93.7327 30.4882 93.4295 30.7997 93.1875C31.1113 92.9422 31.4593 92.7865 31.8438 92.7202V92.6605C31.3366 92.5379 30.9306 92.2661 30.6257 91.8452C30.3208 91.4242 30.17 90.9403 30.1733 90.3935C30.17 89.8731 30.3075 89.4091 30.5859 89.0014C30.8677 88.5904 31.2538 88.2673 31.7443 88.032C32.2348 87.7966 32.7933 87.679 33.4197 87.679C34.0395 87.679 34.593 87.7983 35.0803 88.0369C35.5708 88.2723 35.9569 88.5954 36.2386 89.0064C36.5204 89.4141 36.6629 89.8764 36.6662 90.3935C36.6629 90.9403 36.5071 91.4242 36.1989 91.8452C35.8906 92.2661 35.4896 92.5379 34.9957 92.6605V92.7202C35.3769 92.7865 35.7199 92.9422 36.0249 93.1875C36.3331 93.4295 36.5784 93.7327 36.7607 94.0973C36.9463 94.4586 37.0407 94.8546 37.044 95.2855C37.0407 95.8357 36.8849 96.3262 36.5767 96.7571C36.2685 97.188 35.8409 97.526 35.294 97.7713C34.7505 98.0166 34.1257 98.1392 33.4197 98.1392ZM33.4197 96.8814C33.8407 96.8814 34.2053 96.8118 34.5135 96.6726C34.8217 96.5301 35.0604 96.3329 35.2294 96.081C35.3984 95.8258 35.4846 95.5275 35.4879 95.1861C35.4846 94.8314 35.3918 94.5182 35.2095 94.2464C35.0305 93.9747 34.7869 93.7609 34.4787 93.6051C34.1705 93.4493 33.8175 93.3714 33.4197 93.3714C33.0187 93.3714 32.6624 93.4493 32.3509 93.6051C32.0393 93.7609 31.794 93.9747 31.6151 94.2464C31.4361 94.5182 31.3482 94.8314 31.3516 95.1861C31.3482 95.5275 31.4295 95.8258 31.5952 96.081C31.7642 96.3329 32.0045 96.5301 32.3161 96.6726C32.6276 96.8118 32.9955 96.8814 33.4197 96.8814ZM33.4197 92.1435C33.7578 92.1435 34.0578 92.0755 34.3196 91.9396C34.5814 91.8037 34.7869 91.6148 34.9361 91.3729C35.0885 91.1309 35.1664 90.8475 35.1697 90.5227C35.1664 90.2045 35.0902 89.9261 34.9411 89.6875C34.7952 89.4489 34.5914 89.2649 34.3295 89.1357C34.0677 89.0031 33.7644 88.9368 33.4197 88.9368C33.0684 88.9368 32.7602 89.0031 32.495 89.1357C32.2332 89.2649 32.0294 89.4489 31.8835 89.6875C31.7377 89.9261 31.6664 90.2045 31.6697 90.5227C31.6664 90.8475 31.7393 91.1309 31.8885 91.3729C32.0376 91.6148 32.2431 91.8037 32.505 91.9396C32.7701 92.0755 33.075 92.1435 33.4197 92.1435Z" fill="#2A3241"/>
<foreignObject x="-3" y="-3" width="248" height="138"><div xmlns="http://www.w3.org/1999/xhtml" style="backdrop-filter:blur(2px);clip-path:url(#bgblur_1_599_10837_clip_path);height:100%;width:100%"></div></foreignObject><rect data-figma-bg-blur-radius="4" x="1" y="1" width="240" height="130" rx="8" fill="#2563EB" fill-opacity="0.08"/>
</g>
<rect x="1" y="1" width="240" height="130" rx="12" stroke="#E4E7EE"/>
<defs>
<clipPath id="bgblur_1_599_10837_clip_path" transform="translate(3 3)"><rect x="1" y="1" width="240" height="130" rx="8"/>
</clipPath><clipPath id="clip0_599_10837">
<rect x="1" y="1" width="240" height="130" rx="12" fill="white"/>
</clipPath>
</defs>
</svg>
