<svg width="322" height="322" viewBox="0 0 322 322" fill="none" xmlns="http://www.w3.org/2000/svg">
<path fill-rule="evenodd" clip-rule="evenodd" d="M56.6262 49.1639C52.7817 49.8248 49.7572 52.9759 49.138 56.9653C48.9976 57.8697 48.9363 67.2389 48.979 81.2234C49.0438 102.376 49.0786 104.084 49.465 105.065C50.5039 107.705 52.7965 109.953 55.3859 110.873C56.4812 111.262 58.1537 111.29 80.1671 111.29C102.181 111.29 103.853 111.262 104.948 110.873C107.609 109.928 109.929 107.608 110.873 104.948C111.262 103.853 111.29 102.185 111.29 80.2839C111.29 53.7861 111.398 55.4066 109.455 52.7706C108.318 51.2288 107.142 50.3263 105.272 49.5604L104.009 49.0431L80.8718 49.0081C68.1465 48.9891 57.236 49.0591 56.6262 49.1639ZM122.554 49.2442C121.582 49.6834 120.62 50.8776 120.433 51.8769C120.171 53.274 120.435 55.4463 120.951 56.1373C121.96 57.4894 122.55 57.7341 124.797 57.7341C127.051 57.7341 127.633 57.4906 128.658 56.116C129.062 55.5745 129.142 55.1207 129.142 53.3875C129.142 51.1344 128.899 50.5532 127.526 49.5284C126.707 48.9167 123.662 48.7427 122.554 49.2442ZM140.417 49.2454C138.84 49.9731 138.186 51.2335 138.186 53.5446C138.186 55.3479 137.732 56.4664 136.704 57.1984C136.14 57.6003 135.514 57.7414 133.794 57.8546C132.129 57.9641 131.452 58.1114 130.974 58.4682C129.693 59.4254 129.416 60.0549 129.262 62.3705C129.033 65.8182 128.3 66.5504 124.853 66.7799C122.529 66.9347 121.909 67.209 120.936 68.5122C120.463 69.1457 120.451 69.4172 120.451 80.1664C120.451 90.9156 120.463 91.1871 120.936 91.8206C121.961 93.1945 122.542 93.4379 124.797 93.4379C126.531 93.4379 126.984 93.3573 127.525 92.9535C128.828 91.9806 129.103 91.36 129.257 89.0364C129.413 86.7023 129.728 85.9438 130.861 85.1741C131.422 84.7938 132.217 84.7339 138.11 84.6294C144.33 84.519 144.769 84.4826 145.378 84.0276C147.004 82.8125 146.982 82.9151 147.112 75.6283C147.277 66.3204 146.654 66.9427 155.962 66.7775C163.25 66.6483 163.147 66.6692 164.362 65.0426C164.824 64.4237 164.846 64.0927 164.846 57.8511C164.846 51.6096 164.824 51.2788 164.362 50.6601C163.336 49.2865 162.755 49.0431 160.5 49.0431C158.766 49.0431 158.313 49.1237 157.772 49.5275C156.466 50.5025 156.195 51.1193 156.041 53.46C155.816 56.8648 154.813 57.8516 151.575 57.8516C148.339 57.8516 147.356 56.8834 147.095 53.4427C146.916 51.0778 146.655 50.4816 145.378 49.5284C144.558 48.916 141.508 48.742 140.417 49.2454ZM193.973 49.2454C193.103 49.6466 192.323 50.4753 191.992 51.3486C191.838 51.7542 191.741 54.3294 191.741 58.0076C191.741 64.64 191.651 65.1335 190.259 66.1243C189.695 66.5262 189.069 66.6674 187.35 66.7806C185.009 66.9347 184.392 67.2062 183.417 68.5122C183.013 69.0532 182.933 69.5065 182.933 71.2405C182.933 73.495 183.176 74.0759 184.55 75.1017C185.169 75.5637 185.5 75.586 191.741 75.586C197.983 75.586 198.313 75.5637 198.932 75.1017C199.289 74.8353 199.799 74.3256 200.065 73.9688C200.538 73.335 200.55 73.0635 200.55 62.3143C200.55 51.5652 200.538 51.2939 200.065 50.6604C199.1 49.3675 198.422 49.0499 196.482 48.9825C195.317 48.9423 194.427 49.0354 193.973 49.2454ZM217.293 49.1639C213.448 49.8248 210.424 52.9759 209.805 56.9653C209.664 57.8697 209.603 67.2389 209.646 81.2234C209.71 102.376 209.745 104.084 210.132 105.065C211.171 107.705 213.463 109.953 216.053 110.873C217.148 111.262 218.82 111.29 240.834 111.29C262.847 111.29 264.52 111.262 265.615 110.873C268.275 109.928 270.595 107.608 271.54 104.948C271.929 103.853 271.957 102.185 271.957 80.2839C271.957 53.7861 272.065 55.4066 270.122 52.7706C268.984 51.2288 267.809 50.3263 265.939 49.5604L264.675 49.0431L241.538 49.0081C228.813 48.9891 217.903 49.0591 217.293 49.1639ZM61.6526 58.5722C60.8594 58.9687 59.8442 59.7209 59.3965 60.244C57.8063 62.1017 57.8523 61.5093 57.8523 80.1222C57.8523 91.9169 57.9312 97.1701 58.1177 97.7923C58.5857 99.3546 59.9323 100.878 61.5883 101.718L63.0928 102.481H80.1671H97.2415L98.746 101.718C100.402 100.878 101.749 99.3546 102.217 97.7923C102.403 97.1701 102.482 91.9169 102.482 80.1222C102.482 61.5093 102.528 62.1017 100.938 60.244C100.49 59.7209 99.4748 58.9687 98.6816 58.5722L97.2394 57.8516H80.1671H63.0949L61.6526 58.5722ZM222.319 58.5722C221.526 58.9687 220.511 59.7209 220.063 60.244C218.473 62.1017 218.519 61.5093 218.519 80.1222C218.519 91.9169 218.598 97.1701 218.784 97.7923C219.252 99.3546 220.599 100.878 222.255 101.718L223.759 102.481H240.834H257.908L259.413 101.718C261.069 100.878 262.415 99.3546 262.883 97.7923C263.07 97.1701 263.149 91.9169 263.149 80.1222C263.149 61.5093 263.195 62.1017 261.604 60.244C261.157 59.7209 260.141 58.9687 259.348 58.5722L257.906 57.8516H240.834H223.762L222.319 58.5722ZM69.4795 67.0599C68.4509 67.4176 67.353 68.5543 67.046 69.5789C66.8637 70.1877 66.7799 73.6106 66.7834 80.3111C66.7881 89.3538 66.8233 90.2252 67.2201 91.0889C67.7333 92.2065 68.2571 92.7073 69.4217 93.194C70.1544 93.5001 71.8038 93.5546 80.2183 93.5501C89.3519 93.5454 90.2255 93.5102 91.0896 93.1135C92.2073 92.6002 92.7081 92.0764 93.1948 90.9118C93.5008 90.1792 93.5553 88.5298 93.5508 80.1152C93.5462 70.9617 93.5116 70.1099 93.1121 69.2439C92.5892 68.111 91.8333 67.4042 90.761 67.0451C89.7075 66.6923 70.4975 66.7056 69.4795 67.0599ZM167.195 67.0972C165.618 67.8249 164.963 69.0853 164.963 71.3965C164.963 73.1997 164.51 74.3183 163.482 75.0502C162.918 75.4521 162.291 75.5933 160.572 75.7065C158.907 75.816 158.23 75.9632 157.752 76.32C156.47 77.2772 156.194 77.9067 156.04 80.2223C155.81 83.6701 155.078 84.4022 151.63 84.6317C149.982 84.7414 149.303 84.8903 148.826 85.246C147.544 86.2032 147.268 86.8327 147.114 89.1482C146.884 92.596 146.152 93.3282 142.705 93.5576C140.381 93.7124 139.761 93.9868 138.787 95.2897C138.309 95.9301 138.302 96.1971 138.186 115.946L138.068 135.953L137.544 136.688C136.778 137.762 135.698 138.185 133.723 138.185C131.747 138.185 130.667 137.762 129.901 136.688C129.396 135.98 129.373 135.709 129.26 129.334C129.149 123.115 129.113 122.676 128.658 122.067C127.631 120.694 127.051 120.451 124.797 120.451C123.063 120.451 122.609 120.531 122.068 120.935C120.765 121.908 120.491 122.528 120.336 124.852C120.107 128.3 119.374 129.032 115.927 129.261C113.603 129.416 112.983 129.69 112.01 130.994C111.606 131.535 111.525 131.988 111.525 133.722C111.525 135.456 111.606 135.909 112.01 136.45C112.993 137.768 113.617 138.043 115.936 138.18C119.357 138.382 120.106 139.133 120.336 142.592C120.491 144.911 120.766 145.537 122.058 146.501C122.551 146.869 123.188 147.006 124.862 147.103C127.323 147.245 128.217 147.685 128.878 149.079C129.389 150.156 129.389 152.991 128.878 154.068C128.231 155.431 127.305 155.908 125.116 156.001C121.637 156.15 120.587 155.193 120.318 151.628C120.139 149.262 119.877 148.667 118.599 147.713C118.058 147.309 117.605 147.228 115.871 147.228C114.137 147.228 113.684 147.309 113.143 147.713C111.839 148.686 111.565 149.306 111.41 151.63C111.181 155.077 110.449 155.81 107.001 156.039C104.677 156.194 104.057 156.468 103.084 157.771C102.68 158.312 102.599 158.766 102.599 160.5C102.599 162.754 102.843 163.334 104.216 164.361C104.825 164.816 105.264 164.852 111.483 164.963C117.376 165.067 118.171 165.127 118.732 165.507C119.866 166.277 120.181 167.036 120.336 169.37C120.491 171.689 120.766 172.314 122.058 173.279C122.55 173.646 123.191 173.784 124.862 173.883C128.283 174.085 129.032 174.837 129.262 178.296C129.417 180.619 129.691 181.239 130.994 182.213C131.603 182.668 132.042 182.704 138.261 182.815C144.154 182.919 144.949 182.979 145.51 183.359C146.644 184.129 146.959 184.887 147.114 187.222C147.269 189.545 147.543 190.166 148.846 191.139C149.387 191.542 149.841 191.623 151.575 191.623C153.829 191.623 154.409 191.38 155.436 190.007C155.891 189.398 155.927 188.959 156.037 182.739C156.168 175.408 156.177 175.361 157.793 174.363C158.513 173.918 158.951 173.889 164.963 173.889C170.976 173.889 171.414 173.918 172.134 174.363C173.403 175.146 173.731 175.881 173.892 178.296C174.046 180.619 174.321 181.24 175.624 182.213C176.165 182.617 176.618 182.697 178.352 182.697C180.086 182.697 180.54 182.617 181.081 182.213C182.384 181.24 182.658 180.619 182.813 178.296C182.974 175.881 183.302 175.146 184.57 174.363C185.67 173.683 188.887 173.683 189.986 174.363C191.255 175.146 191.583 175.881 191.744 178.296C191.898 180.615 192.173 181.24 193.465 182.205C193.958 182.573 194.595 182.71 196.269 182.807C198.003 182.907 198.582 183.037 199.17 183.456C200.244 184.222 200.667 185.302 200.667 187.278C200.667 190.452 199.619 191.573 196.523 191.705C193.044 191.854 191.995 190.897 191.725 187.332C191.546 184.966 191.285 184.37 190.007 183.416C189.466 183.013 189.012 182.932 187.278 182.932C185.024 182.932 184.443 183.175 183.417 184.549C182.955 185.168 182.933 185.499 182.933 191.74C182.933 197.982 182.955 198.313 183.417 198.932C184.402 200.251 185.023 200.524 187.344 200.658C189.804 200.801 190.698 201.241 191.36 202.635C191.927 203.829 191.927 215.356 191.36 216.55C190.705 217.929 189.834 218.358 187.35 218.521C185.009 218.675 184.392 218.947 183.417 220.253C183.013 220.794 182.933 221.247 182.933 222.981C182.933 224.715 183.013 225.169 183.417 225.71C184.401 227.027 185.024 227.302 187.344 227.439C189.671 227.576 190.407 227.883 191.196 229.046C191.577 229.607 191.637 230.401 191.741 236.295C191.852 242.514 191.888 242.953 192.343 243.562C193.369 244.935 193.95 245.179 196.204 245.179C197.938 245.179 198.391 245.098 198.932 244.694C200.236 243.721 200.51 243.101 200.665 240.777C200.825 238.362 201.154 237.628 202.422 236.844C203.032 236.467 203.593 236.37 205.162 236.37C206.866 236.37 207.25 236.448 207.978 236.943C209.156 237.743 209.593 238.796 209.593 240.833C209.593 244.072 208.606 245.075 205.201 245.299C202.861 245.453 202.244 245.725 201.269 247.031C200.807 247.65 200.785 247.98 200.785 254.222C200.785 260.464 200.807 260.794 201.269 261.413C201.535 261.77 202.045 262.28 202.402 262.546C203.021 263.008 203.351 263.03 209.593 263.03C215.835 263.03 216.165 263.008 216.784 262.546C217.141 262.28 217.651 261.77 217.917 261.414C218.386 260.786 218.405 260.414 218.519 249.683C218.628 239.393 218.667 238.556 219.072 237.96C219.892 236.751 220.836 236.37 223.014 236.37C224.718 236.37 225.102 236.448 225.83 236.943C227.463 238.052 227.445 237.911 227.445 249.759C227.445 261.476 227.449 261.436 225.963 262.495C225.399 262.897 224.773 263.038 223.053 263.151C220.713 263.305 220.096 263.577 219.121 264.883C218.717 265.424 218.636 265.877 218.636 267.611C218.636 269.865 218.88 270.446 220.254 271.472C220.899 271.954 221.025 271.956 245.297 271.956C269.568 271.956 269.694 271.954 270.34 271.472C271.713 270.447 271.957 269.864 271.957 267.61C271.957 265.356 271.714 264.776 270.341 263.75C269.732 263.295 269.293 263.258 263.073 263.148C256.698 263.035 256.427 263.011 255.72 262.507C254.646 261.741 254.223 260.66 254.223 258.685C254.223 256.71 254.646 255.629 255.72 254.863C256.307 254.444 256.887 254.314 258.62 254.214C260.295 254.117 260.931 253.98 261.424 253.612C262.716 252.648 262.992 252.022 263.146 249.703C263.376 246.244 264.126 245.493 267.546 245.291C269.866 245.154 270.489 244.879 271.473 243.561C271.935 242.942 271.957 242.611 271.957 236.37C271.957 230.128 271.935 229.797 271.473 229.179C270.447 227.805 269.866 227.562 267.612 227.562C265.878 227.562 265.424 227.642 264.883 228.046C263.577 229.021 263.306 229.638 263.152 231.979C262.988 234.463 262.559 235.334 261.18 235.989C259.986 236.555 248.459 236.555 247.265 235.989C245.895 235.339 245.471 234.477 245.281 231.961C245.102 229.604 244.839 228.999 243.582 228.061C243.104 227.704 242.428 227.557 240.762 227.447C239.043 227.334 238.417 227.193 237.853 226.791C236.366 225.733 236.371 225.772 236.371 214.055C236.371 202.208 236.353 202.349 237.986 201.239C238.714 200.744 239.097 200.666 240.802 200.666C242.371 200.666 242.932 200.763 243.542 201.14C245.157 202.138 245.167 202.186 245.297 209.517C245.426 216.804 245.405 216.702 247.031 217.916C247.665 218.39 247.936 218.401 258.686 218.401C269.435 218.401 269.706 218.39 270.34 217.916C270.697 217.65 271.206 217.14 271.473 216.784C271.951 216.144 271.957 215.923 271.957 200.666C271.957 185.41 271.951 185.189 271.473 184.549C270.447 183.175 269.866 182.932 267.612 182.932C265.878 182.932 265.424 183.013 264.883 183.416C263.577 184.391 263.306 185.008 263.152 187.349C263.038 189.068 262.897 189.695 262.495 190.259C261.437 191.745 261.476 191.74 249.76 191.74C238.027 191.74 238.085 191.747 237.012 190.244L236.488 189.509L236.371 173.964C236.256 158.724 236.244 158.407 235.769 157.771C234.554 156.145 234.657 156.166 227.37 156.037C221.476 155.932 220.681 155.872 220.121 155.492C219 154.731 218.679 153.962 218.501 151.606C218.324 149.265 218.06 148.666 216.785 147.713C216.176 147.258 215.737 147.221 209.518 147.111C203.143 146.998 202.872 146.974 202.164 146.47C201.09 145.704 200.667 144.623 200.667 142.648C200.667 140.673 201.09 139.592 202.164 138.826C202.752 138.407 203.332 138.277 205.065 138.177C207.385 138.043 208.007 137.769 208.991 136.45C209.453 135.831 209.476 135.5 209.476 129.259C209.476 123.017 209.453 122.686 208.991 122.068C207.965 120.694 207.384 120.451 205.13 120.451C203.396 120.451 202.943 120.531 202.402 120.935C201.099 121.908 200.824 122.528 200.669 124.852C200.44 128.3 199.708 129.032 196.26 129.261C193.936 129.416 193.316 129.69 192.343 130.994C191.87 131.627 191.859 131.899 191.859 142.648C191.859 153.397 191.87 153.669 192.343 154.302C193.327 155.62 193.95 155.894 196.269 156.031C199.69 156.233 200.439 156.985 200.669 160.444C200.824 162.763 201.099 163.388 202.391 164.353C202.883 164.721 203.524 164.858 205.195 164.957C208.616 165.159 209.365 165.911 209.595 169.37C209.75 171.693 210.024 172.313 211.327 173.287C211.936 173.742 212.375 173.778 218.594 173.889C224.969 174.002 225.24 174.025 225.948 174.53C227.022 175.296 227.445 176.376 227.445 178.352C227.445 181.59 226.458 182.594 223.053 182.818C221.388 182.927 220.711 183.074 220.234 183.431C218.949 184.39 218.676 185.016 218.522 187.349C218.298 190.754 217.294 191.74 214.056 191.74C212.081 191.74 211 191.317 210.234 190.244C209.73 189.536 209.706 189.265 209.593 182.89C209.483 176.671 209.446 176.232 208.991 175.623C208.018 174.32 207.398 174.046 205.074 173.891C201.631 173.662 200.913 172.942 200.649 169.458C200.473 167.124 200.206 166.516 198.952 165.579C198.476 165.224 197.797 165.075 196.148 164.965C192.705 164.736 191.987 164.016 191.723 160.532C191.546 158.19 191.282 157.591 190.007 156.639C189.466 156.235 189.012 156.154 187.278 156.154C185.544 156.154 185.091 156.235 184.55 156.639C183.244 157.614 182.972 158.23 182.818 160.571C182.586 164.101 181.515 165.076 178.033 164.927C174.938 164.795 173.889 163.675 173.889 160.5C173.889 158.525 174.313 157.444 175.386 156.678C175.974 156.259 176.554 156.129 178.287 156.029C180.608 155.894 181.23 155.621 182.213 154.301C182.617 153.76 182.698 153.306 182.698 151.573C182.698 149.319 182.455 148.738 181.081 147.713C180.462 147.251 180.131 147.228 173.889 147.228C167.648 147.228 167.317 147.251 166.698 147.713C165.395 148.686 165.121 149.306 164.966 151.63C164.736 155.077 164.004 155.81 160.556 156.039C158.908 156.149 158.229 156.298 157.752 156.653C156.47 157.611 156.194 158.24 156.04 160.556C155.81 164.003 155.078 164.736 151.63 164.965C149.315 165.119 148.685 165.396 147.728 166.677C147.371 167.155 147.224 167.832 147.115 169.497C146.882 173.027 145.811 174.002 142.33 173.853C140.14 173.759 139.214 173.283 138.567 171.92C138.056 170.843 138.056 168.008 138.567 166.931C139.229 165.537 140.123 165.097 142.583 164.955C144.903 164.82 145.524 164.547 146.51 163.229C146.965 162.62 147.001 162.181 147.112 155.962C147.277 146.654 146.654 147.276 155.962 147.111C162.182 147 162.621 146.964 163.229 146.509C164.532 145.535 164.806 144.915 164.961 142.592C165.191 139.133 165.941 138.382 169.361 138.18C171.681 138.042 172.305 137.768 173.288 136.449C173.691 135.908 173.772 135.454 173.772 133.721C173.772 131.987 173.691 131.534 173.288 130.993C172.314 129.69 171.694 129.416 169.37 129.261C167.036 129.106 166.278 128.791 165.508 127.657C165.114 127.077 165.072 126.159 164.963 115.946C164.85 105.215 164.831 104.843 164.362 104.215C163.335 102.842 162.755 102.599 160.5 102.599C158.246 102.599 157.666 102.842 156.639 104.215C156.184 104.824 156.148 105.263 156.037 111.482C155.924 117.857 155.901 118.129 155.396 118.836C154.558 120.012 153.479 120.393 151.256 120.297C149.066 120.204 148.14 119.728 147.493 118.364C146.926 117.17 146.926 105.644 147.493 104.45C148.154 103.056 149.049 102.616 151.509 102.473C153.184 102.376 153.82 102.24 154.313 101.871C155.605 100.907 155.881 100.282 156.035 97.9624C156.196 95.5474 156.524 94.8132 157.793 94.0293C158.513 93.5842 158.951 93.5553 164.963 93.5553C170.976 93.5553 171.414 93.5842 172.134 94.0293C173.749 95.0274 173.759 95.0748 173.889 102.406C174 108.625 174.036 109.064 174.491 109.673C175.518 111.047 176.098 111.29 178.352 111.29C180.606 111.29 181.187 111.047 182.213 109.673C182.668 109.064 182.705 108.625 182.815 102.406C182.945 95.0748 182.955 95.0274 184.57 94.0293C185.177 93.654 185.741 93.5553 187.278 93.5553C188.815 93.5553 189.379 93.654 189.986 94.0293C191.601 95.0274 191.611 95.0748 191.741 102.406C191.852 108.625 191.888 109.064 192.343 109.673C193.369 111.047 193.95 111.29 196.204 111.29C198.459 111.29 199.04 111.046 200.065 109.672C200.538 109.039 200.55 108.767 200.55 98.018C200.55 83.539 201.388 84.8018 191.666 84.6294C185.773 84.5248 184.978 84.465 184.417 84.0847C183.296 83.3234 182.975 82.555 182.797 80.1986C182.621 77.8649 182.355 77.2563 181.101 76.32C180.624 75.9644 179.945 75.8155 178.296 75.7058C174.853 75.4765 174.135 74.7568 173.871 71.2727C173.694 68.9313 173.43 68.3313 172.156 67.3803C171.336 66.7679 168.286 66.5938 167.195 67.0972ZM230.146 67.0599C229.118 67.4176 228.02 68.5543 227.713 69.5789C227.53 70.1877 227.447 73.6106 227.45 80.3111C227.455 89.3538 227.49 90.2252 227.887 91.0889C228.4 92.2065 228.924 92.7073 230.088 93.194C230.821 93.5001 232.47 93.5546 240.885 93.5501C250.019 93.5454 250.892 93.5102 251.756 93.1135C252.874 92.6002 253.375 92.0764 253.861 90.9118C254.167 90.1792 254.222 88.5298 254.218 80.1152C254.213 70.9617 254.178 70.1099 253.779 69.2439C253.256 68.111 252.5 67.4042 251.428 67.0451C250.374 66.6923 231.164 66.7056 230.146 67.0599ZM122.554 102.8C121.582 103.239 120.62 104.433 120.433 105.432C120.171 106.83 120.435 109.002 120.951 109.693C121.96 111.045 122.55 111.29 124.797 111.29C127.051 111.29 127.633 111.046 128.658 109.672C129.062 109.13 129.142 108.676 129.142 106.943C129.142 104.69 128.899 104.109 127.526 103.084C126.707 102.472 123.662 102.298 122.554 102.8ZM185.035 111.726C184.064 112.165 183.102 113.359 182.914 114.358C182.652 115.755 182.916 117.928 183.432 118.619C184.442 119.971 185.031 120.216 187.278 120.216C189.533 120.216 190.115 119.972 191.139 118.597C191.543 118.056 191.624 117.602 191.624 115.869C191.624 113.616 191.38 113.035 190.008 112.01C189.189 111.398 186.144 111.224 185.035 111.726ZM51.1461 120.661C50.2023 121.076 49.2146 122.274 49.0398 123.217C48.9626 123.634 48.932 126.635 48.9717 129.888C49.0394 135.434 49.0741 135.843 49.5282 136.451C50.5547 137.824 51.1353 138.067 53.3894 138.067C55.1233 138.067 55.5767 137.987 56.1176 137.583C57.4208 136.61 57.6952 135.99 57.85 133.666C58.0106 131.251 58.3388 130.517 59.6074 129.733C60.3276 129.288 60.7655 129.259 66.8102 129.259C73.2453 129.259 73.2462 129.259 74.0893 129.832C75.6259 130.876 75.7042 131.28 75.7042 138.185C75.7042 144.988 75.6191 145.463 74.2225 146.458C73.6583 146.86 73.032 147.001 71.3126 147.114C68.9721 147.268 68.3558 147.539 67.38 148.845C66.925 149.454 66.8886 149.893 66.7782 156.112C66.6737 162.005 66.6138 162.8 66.2335 163.361C65.4638 164.495 64.7053 164.81 62.3712 164.965C60.0476 165.12 59.427 165.394 58.4541 166.697C57.9921 167.316 57.9698 167.647 57.9698 173.889C57.9698 180.13 57.9921 180.461 58.4541 181.08C59.4378 182.398 60.0612 182.672 62.3806 182.809C65.8011 183.011 66.5504 183.763 66.7806 187.222C66.9354 189.545 67.2095 190.165 68.5122 191.139C69.1211 191.594 69.5601 191.63 75.7793 191.74C81.6728 191.845 82.4677 191.905 83.0284 192.285C84.1622 193.055 84.4772 193.813 84.6324 196.148C84.7872 198.471 85.0616 199.092 86.3648 200.065C86.9057 200.468 87.3591 200.549 89.0931 200.549C90.827 200.549 91.2804 200.468 91.8213 200.065C93.1245 199.092 93.3989 198.471 93.5537 196.148C93.7839 192.689 94.5332 191.937 97.9537 191.735C99.6252 191.636 100.266 191.498 100.758 191.131C102.05 190.166 102.325 189.541 102.48 187.222C102.635 184.887 102.95 184.129 104.084 183.359C104.644 182.979 105.439 182.919 111.333 182.815C117.552 182.704 117.991 182.668 118.6 182.213C119.973 181.187 120.216 180.604 120.216 178.35C120.216 176.097 119.973 175.516 118.599 174.49C117.959 174.012 117.692 174.005 97.9431 173.889L77.9356 173.771L77.2011 173.247C76.1274 172.481 75.7042 171.401 75.7042 169.426C75.7042 167.45 76.1274 166.37 77.2011 165.604C77.9086 165.099 78.1799 165.076 84.5549 164.963C90.7742 164.852 91.2132 164.816 91.822 164.361C93.448 163.146 93.4268 163.248 93.556 155.962C93.7211 146.654 93.0989 147.276 102.407 147.111C108.626 147 109.065 146.964 109.674 146.509C111.047 145.483 111.29 144.901 111.29 142.647C111.29 140.393 111.047 139.813 109.674 138.787C109.046 138.318 108.674 138.299 97.9433 138.185C87.7297 138.077 86.8122 138.034 86.2318 137.64C84.7755 136.652 84.7583 136.563 84.6301 129.334C84.5009 122.047 84.5218 122.149 82.8954 120.935C82.2579 120.459 81.9911 120.45 67.0547 120.398C54.7832 120.356 51.7249 120.407 51.1461 120.661ZM104.702 120.652C103.73 121.091 102.769 122.285 102.581 123.284C102.319 124.681 102.583 126.854 103.099 127.545C104.108 128.897 104.698 129.142 106.945 129.142C109.2 129.142 109.781 128.898 110.806 127.523C111.21 126.982 111.29 126.528 111.29 124.795C111.29 122.542 111.047 121.961 109.675 120.936C108.855 120.324 105.81 120.15 104.702 120.652ZM176.109 120.652C175.138 121.091 174.176 122.285 173.988 123.284C173.726 124.681 173.99 126.854 174.506 127.545C175.516 128.897 176.105 129.142 178.352 129.142C180.607 129.142 181.189 128.898 182.213 127.523C182.617 126.982 182.698 126.528 182.698 124.795C182.698 122.542 182.454 121.961 181.082 120.936C180.263 120.324 177.218 120.15 176.109 120.652ZM229.665 120.66C228.698 121.086 227.732 122.281 227.544 123.284C227.459 123.737 227.435 124.739 227.491 125.512C227.599 127.005 228.022 127.793 229.18 128.657C229.813 129.13 230.085 129.142 240.834 129.142C251.583 129.142 251.854 129.13 252.488 128.657C253.861 127.632 254.105 127.049 254.105 124.795C254.105 122.541 253.862 121.961 252.488 120.935C251.858 120.464 251.538 120.449 241.11 120.397C232.549 120.355 230.236 120.408 229.665 120.66ZM265.368 120.652C264.397 121.091 263.435 122.285 263.248 123.284C262.986 124.681 263.25 126.854 263.766 127.545C264.775 128.897 265.365 129.142 267.612 129.142C269.866 129.142 270.448 128.898 271.473 127.523C271.877 126.982 271.957 126.528 271.957 124.795C271.957 122.542 271.714 121.961 270.341 120.936C269.522 120.324 266.477 120.15 265.368 120.652ZM148.726 129.832C147.446 130.702 147.05 131.758 147.147 134.041C147.285 137.261 148.48 138.295 151.894 138.149C154.989 138.017 156.037 136.897 156.037 133.722C156.037 131.685 155.601 130.632 154.423 129.832C153.692 129.335 153.313 129.259 151.575 129.259C149.836 129.259 149.457 129.335 148.726 129.832ZM220.739 129.578C219.79 130.007 218.806 131.205 218.632 132.143C218.555 132.559 218.525 135.561 218.564 138.814C218.632 144.36 218.667 144.769 219.121 145.377C220.147 146.75 220.728 146.993 222.982 146.993C225.236 146.993 225.818 146.75 226.843 145.376C227.305 144.757 227.327 144.426 227.327 138.184C227.327 131.943 227.305 131.612 226.843 130.993C225.878 129.701 225.199 129.383 223.26 129.316C222.103 129.276 221.198 129.37 220.739 129.578ZM256.442 129.578C255.471 130.017 254.509 131.211 254.322 132.21C254.06 133.607 254.324 135.78 254.84 136.471C255.849 137.823 256.439 138.067 258.686 138.067C260.94 138.067 261.522 137.824 262.547 136.449C262.951 135.908 263.031 135.454 263.031 133.721C263.031 131.468 262.788 130.887 261.415 129.862C260.596 129.25 257.551 129.076 256.442 129.578ZM60.0721 138.503C59.1008 138.943 58.1389 140.137 57.9514 141.136C57.6893 142.533 57.9533 144.706 58.4694 145.397C59.4787 146.749 60.0683 146.993 62.3153 146.993C64.57 146.993 65.1516 146.75 66.1764 145.375C66.5802 144.834 66.6608 144.38 66.6608 142.647C66.6608 140.394 66.4174 139.812 65.045 138.788C64.2257 138.176 61.1807 138.002 60.0721 138.503ZM51.1461 147.429C50.1748 147.869 49.213 149.063 49.0255 150.062C48.7634 151.459 49.0274 153.631 49.5435 154.323C50.5528 155.675 51.1424 155.919 53.3894 155.919C55.6441 155.919 56.2257 155.676 57.2505 154.301C57.6543 153.76 57.7349 153.306 57.7349 151.573C57.7349 149.32 57.4915 148.738 56.119 147.714C55.2997 147.102 52.2548 146.928 51.1461 147.429ZM238.591 147.435C237.623 147.865 236.658 149.06 236.47 150.062C236.208 151.459 236.472 153.631 236.988 154.323C237.955 155.618 238.588 155.895 240.899 156.031C244.32 156.233 245.069 156.985 245.299 160.444C245.454 162.767 245.728 163.387 247.031 164.361C247.64 164.816 248.079 164.852 254.298 164.963C260.191 165.067 260.986 165.127 261.547 165.507C262.681 166.277 262.996 167.036 263.151 169.37C263.306 171.693 263.58 172.314 264.883 173.287C265.424 173.691 265.878 173.771 267.612 173.771C269.866 173.771 270.447 173.528 271.473 172.154C271.935 171.535 271.957 171.204 271.957 164.962C271.957 158.721 271.935 158.39 271.473 157.771C270.258 156.145 270.361 156.166 263.073 156.037C257.18 155.932 256.385 155.872 255.824 155.492C254.703 154.731 254.383 153.962 254.205 151.606C254.028 149.264 253.764 148.665 252.488 147.713C251.877 147.255 251.49 147.225 245.574 147.173C240.72 147.13 239.145 147.19 238.591 147.435ZM247.516 174.213C246.549 174.643 245.584 175.837 245.396 176.84C245.311 177.292 245.287 178.295 245.343 179.068C245.451 180.561 245.874 181.348 247.031 182.213C247.65 182.675 247.981 182.697 254.223 182.697C260.464 182.697 260.795 182.675 261.414 182.213C262.787 181.188 263.031 180.604 263.031 178.35C263.031 176.097 262.788 175.517 261.414 174.49C260.802 174.033 260.416 174.003 254.5 173.951C249.646 173.908 248.071 173.967 247.516 174.213ZM51.1461 183.133C50.1748 183.572 49.213 184.767 49.0255 185.766C48.7634 187.163 49.0274 189.335 49.5435 190.026C50.5528 191.378 51.1424 191.623 53.3894 191.623C55.6441 191.623 56.2257 191.379 57.2505 190.005C57.6543 189.463 57.7349 189.01 57.7349 187.276C57.7349 185.023 57.4915 184.442 56.119 183.417C55.2997 182.806 52.2548 182.632 51.1461 183.133ZM104.702 192.059C103.73 192.498 102.769 193.692 102.581 194.692C102.319 196.089 102.583 198.261 103.099 198.952C104.108 200.304 104.698 200.549 106.945 200.549C109.2 200.549 109.781 200.305 110.806 198.931C111.21 198.389 111.29 197.936 111.29 196.202C111.29 193.949 111.047 193.368 109.675 192.343C108.855 191.732 105.81 191.558 104.702 192.059ZM140.405 192.059C139.434 192.498 138.472 193.692 138.285 194.692C138.023 196.089 138.287 198.261 138.803 198.952C139.812 200.304 140.402 200.549 142.649 200.549C144.903 200.549 145.485 200.305 146.51 198.931C146.914 198.389 146.994 197.936 146.994 196.202C146.994 193.949 146.751 193.368 145.378 192.343C144.559 191.732 141.514 191.558 140.405 192.059ZM167.183 192.059C166.233 192.489 165.25 193.688 165.079 194.625C165.003 195.041 164.973 200.051 165.011 205.758C165.079 215.816 165.096 216.155 165.565 216.784C166.591 218.157 167.172 218.401 169.426 218.401C171.681 218.401 172.262 218.157 173.288 216.784C173.761 216.15 173.772 215.878 173.772 205.129C173.772 194.38 173.761 194.109 173.288 193.475C172.322 192.182 171.644 191.865 169.704 191.797C168.547 191.757 167.643 191.851 167.183 192.059ZM122.554 200.985C121.582 201.424 120.62 202.618 120.433 203.618C120.171 205.015 120.435 207.187 120.951 207.878C121.96 209.23 122.55 209.475 124.797 209.475C127.051 209.475 127.633 209.231 128.658 207.857C129.062 207.315 129.142 206.861 129.142 205.128C129.142 202.875 128.899 202.294 127.526 201.269C126.707 200.657 123.662 200.483 122.554 200.985ZM202.282 201.239C200.649 202.349 200.667 202.208 200.667 214.055C200.667 225.788 200.66 225.73 202.164 226.803L202.899 227.327H214.056H225.213L225.948 226.803C227.452 225.73 227.445 225.788 227.445 214.055C227.445 202.208 227.463 202.349 225.83 201.239L224.987 200.666H214.056H203.125L202.282 201.239ZM255.838 201.239C254.557 202.11 254.161 203.166 254.258 205.448C254.396 208.668 255.591 209.703 259.005 209.557C262.1 209.424 263.149 208.304 263.149 205.129C263.149 203.092 262.712 202.04 261.534 201.239C260.803 200.743 260.424 200.666 258.686 200.666C256.947 200.666 256.569 200.743 255.838 201.239ZM56.6262 209.831C52.7817 210.492 49.7572 213.643 49.138 217.632C48.9976 218.536 48.9363 227.906 48.979 241.89C49.0438 263.042 49.0786 264.75 49.465 265.732C50.5039 268.371 52.7965 270.62 55.3859 271.539C56.4812 271.928 58.1537 271.956 80.1671 271.956C102.181 271.956 103.853 271.928 104.948 271.539C107.609 270.595 109.929 268.275 110.873 265.614C111.262 264.519 111.29 262.852 111.29 240.951C111.29 214.453 111.398 216.073 109.455 213.437C108.318 211.895 107.142 210.993 105.272 210.227L104.009 209.71L80.8718 209.675C68.1465 209.656 57.236 209.726 56.6262 209.831ZM131.479 209.917C130.534 210.336 129.548 211.535 129.373 212.477C129.296 212.893 129.265 215.895 129.305 219.148C129.373 224.693 129.407 225.102 129.862 225.71C130.888 227.084 131.469 227.327 133.723 227.327C135.457 227.327 135.91 227.246 136.451 226.842C137.754 225.869 138.029 225.249 138.183 222.925C138.413 219.466 139.163 218.715 142.583 218.513C144.903 218.376 145.527 218.101 146.51 216.783C146.914 216.241 146.994 215.787 146.994 214.054C146.994 211.801 146.751 211.221 145.377 210.194C144.765 209.737 144.379 209.707 138.463 209.655C133.609 209.612 132.034 209.671 131.479 209.917ZM211.813 209.911C210.842 210.35 209.88 211.544 209.692 212.544C209.43 213.941 209.694 216.113 210.21 216.804C211.219 218.156 211.809 218.401 214.056 218.401C216.311 218.401 216.892 218.157 217.917 216.783C218.321 216.241 218.402 215.787 218.402 214.054C218.402 211.801 218.158 211.22 216.786 210.195C215.966 209.583 212.921 209.409 211.813 209.911ZM61.6526 219.239C60.8594 219.635 59.8442 220.388 59.3965 220.911C57.8063 222.768 57.8523 222.176 57.8523 240.789C57.8523 252.584 57.9312 257.837 58.1177 258.459C58.5857 260.021 59.9323 261.544 61.5883 262.384L63.0928 263.148H80.1671H97.2415L98.746 262.384C100.402 261.544 101.749 260.021 102.217 258.459C102.403 257.837 102.482 252.584 102.482 240.789C102.482 222.176 102.528 222.768 100.938 220.911C100.49 220.388 99.4748 219.635 98.6816 219.239L97.2394 218.518H80.1671H63.0949L61.6526 219.239ZM158.257 218.837C157.286 219.276 156.324 220.47 156.137 221.469C155.874 222.867 156.139 225.039 156.655 225.73C157.664 227.082 158.253 227.327 160.5 227.327C162.755 227.327 163.337 227.083 164.362 225.709C164.765 225.167 164.846 224.713 164.846 222.98C164.846 220.727 164.603 220.146 163.23 219.121C162.411 218.509 159.366 218.335 158.257 218.837ZM69.4795 227.727C68.4509 228.084 67.353 229.221 67.046 230.246C66.8637 230.854 66.7799 234.277 66.7834 240.978C66.7881 250.02 66.8233 250.892 67.2201 251.756C67.7333 252.873 68.2571 253.374 69.4217 253.861C70.1544 254.167 71.8038 254.221 80.2183 254.217C89.3519 254.212 90.2255 254.177 91.0896 253.78C92.2073 253.267 92.7081 252.743 93.1948 251.578C93.5008 250.846 93.5553 249.196 93.5508 240.782C93.5462 231.628 93.5116 230.777 93.1121 229.911C92.5892 228.778 91.8333 228.071 90.761 227.712C89.7075 227.359 70.4975 227.372 69.4795 227.727ZM149.343 227.764C147.766 228.492 147.112 229.752 147.112 232.063C147.112 233.874 146.658 234.984 145.615 235.729C144.886 236.249 144.794 236.254 133.798 236.37C123.067 236.484 122.696 236.503 122.068 236.972C121.712 237.238 121.202 237.748 120.936 238.105C120.458 238.745 120.451 238.965 120.451 254.222C120.451 269.479 120.458 269.699 120.936 270.339C121.961 271.713 122.542 271.956 124.797 271.956C127.051 271.956 127.632 271.713 128.658 270.34C129.127 269.712 129.146 269.34 129.26 258.609C129.39 246.29 129.318 246.819 131.015 245.77C131.735 245.325 132.173 245.296 138.186 245.296C144.198 245.296 144.637 245.325 145.356 245.77C146.625 246.554 146.953 247.288 147.114 249.703C147.268 252.022 147.544 252.648 148.836 253.612C149.329 253.98 149.965 254.117 151.64 254.214C153.373 254.314 153.953 254.444 154.541 254.863C155.614 255.629 156.037 256.71 156.037 258.685C156.037 260.66 155.614 261.741 154.541 262.507C153.833 263.011 153.562 263.035 147.187 263.148C140.967 263.258 140.528 263.295 139.92 263.75C138.546 264.776 138.303 265.357 138.303 267.611C138.303 269.865 138.546 270.446 139.92 271.472C140.563 271.952 140.736 271.956 160.5 271.956C180.265 271.956 180.437 271.952 181.081 271.472C182.384 270.499 182.658 269.879 182.813 267.555C183.043 264.096 183.792 263.344 187.213 263.142C189.533 263.005 190.156 262.73 191.139 261.412C191.543 260.871 191.624 260.417 191.624 258.684C191.624 256.43 191.381 255.85 190.007 254.824C189.398 254.369 188.959 254.332 182.74 254.222C173.432 254.057 174.054 254.679 173.889 245.371C173.779 239.152 173.743 238.713 173.288 238.104C172.072 236.478 172.175 236.499 164.888 236.37C158.995 236.266 158.2 236.206 157.639 235.825C156.518 235.064 156.198 234.296 156.02 231.939C155.843 229.598 155.578 228.998 154.304 228.047C153.484 227.435 150.434 227.26 149.343 227.764ZM176.109 227.763C175.138 228.202 174.176 229.396 173.988 230.395C173.726 231.793 173.99 233.965 174.506 234.656C175.516 236.008 176.105 236.253 178.352 236.253C180.607 236.253 181.189 236.009 182.213 234.634C182.617 234.093 182.698 233.639 182.698 231.906C182.698 229.653 182.454 229.072 181.082 228.047C180.263 227.435 177.218 227.261 176.109 227.763ZM237.986 245.869C236.449 246.913 236.371 247.318 236.371 254.222C236.371 261.037 236.454 261.498 237.868 262.507C238.504 262.96 238.902 263.03 240.834 263.03C242.766 263.03 243.164 262.96 243.8 262.507C245.214 261.498 245.297 261.037 245.297 254.222C245.297 247.318 245.219 246.913 243.682 245.869C242.951 245.372 242.572 245.296 240.834 245.296C239.096 245.296 238.717 245.372 237.986 245.869Z" fill="#7688A8"/>
<path d="M316.183 262C313.453 262 311.179 264.275 311.179 267.004V287.931C311.179 300.896 300.716 311.359 287.75 311.359H265.004C262.275 311.359 260 313.634 260 316.363C260 319.093 262.275 321.367 265.004 321.367H287.75C306.175 321.367 321.187 306.355 321.187 287.931V267.004C321.187 264.275 318.912 262 316.183 262Z" fill="#0062F1"/>
<path d="M287.75 0H265.004C262.275 0 260 2.27461 260 5.00415C260 7.73368 262.275 10.0083 265.004 10.0083H287.75C300.716 10.0083 311.179 20.4715 311.179 33.4368V57.7751C311.179 60.5047 313.453 62.7793 316.183 62.7793C318.912 62.7793 321.187 60.5047 321.187 57.7751V33.4368C321.187 15.0124 306.175 0 287.75 0Z" fill="#0062F1"/>
<path d="M5.00415 62.7793C7.73368 62.7793 10.0083 60.5047 10.0083 57.7751V33.4368C10.0083 20.4715 20.4715 10.0083 33.4368 10.0083H56.1829C58.9124 10.0083 61.1871 7.73368 61.1871 5.00415C61.1871 2.27461 58.9124 0 56.1829 0H33.4368C15.0124 0 0 15.0124 0 33.4368V57.7751C0 60.5047 2.27461 62.7793 5.00415 62.7793Z" fill="#0062F1"/>
<path d="M56.1829 311.359H33.4368C20.4715 311.359 10.0083 300.896 10.0083 287.931V267.004C10.0083 264.275 7.73368 262 5.00415 262C2.27461 262 0 264.275 0 267.004V287.931C0 306.355 15.0124 321.367 33.4368 321.367H56.1829C59.1399 321.367 61.1871 319.093 61.1871 316.363C61.1871 313.634 58.9125 311.359 56.1829 311.359Z" fill="#0062F1"/>
</svg>
