<svg width="48" height="49" viewBox="0 0 48 49" fill="none" xmlns="http://www.w3.org/2000/svg">
<rect y="0.492188" width="48" height="48" rx="8" fill="#FBDD72"/>
<path d="M21 34.4922C21.3598 34.4922 22.6908 33.8848 24.0494 32.6699M24.0494 32.6699C25.2078 31.6341 26.3863 30.1565 27 28.2373C28.3333 24.0675 20.3333 28.2373 23 31.7123C23.3281 32.1398 23.6815 32.4523 24.0494 32.6699ZM24.0494 32.6699C25.6521 33.6181 27.5311 32.7662 28.8041 31.7866C29.1932 31.4872 29.3877 31.3375 29.5038 31.3841C29.62 31.4307 29.6878 31.6986 29.8236 32.2344C30.2581 33.9491 31.5415 35.3332 33 33.1027" stroke="#141B34" stroke-width="1.5" stroke-linecap="round" stroke-linejoin="round"/>
<path d="M32 25.4922L32 20.3829C32 18.6686 32 17.8114 31.732 17.1268C31.3013 16.0262 30.3902 15.158 29.2352 14.7475C28.5168 14.4922 27.6173 14.4922 25.8182 14.4922C22.6698 14.4922 21.0956 14.4922 19.8384 14.939C17.8171 15.6574 16.2228 17.1767 15.4689 19.1027C15 20.3008 15 21.8008 15 24.8009L15 27.3781C15 30.4858 15 32.0396 15.8477 33.1187C16.0906 33.4278 16.3786 33.7023 16.7031 33.9337C17.0702 34.1956 17.4896 34.3726 18 34.4922" stroke="#141B34" stroke-width="1.5" stroke-linecap="round" stroke-linejoin="round"/>
<path d="M15 24.4922C15 22.6512 16.4924 21.1589 18.3333 21.1589C18.9991 21.1589 19.784 21.2755 20.4314 21.1021C21.0065 20.948 21.4558 20.4987 21.6099 19.9236C21.7833 19.2762 21.6667 18.4913 21.6667 17.8255C21.6667 15.9846 23.1591 14.4922 25 14.4922" stroke="#141B34" stroke-width="1.5" stroke-linecap="round" stroke-linejoin="round"/>
</svg>
