<svg width="16" height="18" viewBox="0 0 16 18" fill="none" xmlns="http://www.w3.org/2000/svg">
<path d="M14.806 17.3836H3.55599C2.4054 17.3836 1.47266 16.4508 1.47266 15.3002M1.47266 15.3002V7.95325C1.47266 5.46607 1.47266 4.22248 2.10317 3.34894C2.31197 3.05966 2.56585 2.80579 2.85512 2.59699C3.72866 1.96647 4.97225 1.96647 7.45943 1.96647C8.27308 1.96647 9.264 2.00935 10.0858 2.02046C10.8352 2.0306 11.2099 2.03567 11.9078 1.91233C12.6057 1.78899 12.6803 1.76063 12.8295 1.70391C13.4711 1.45993 14.0786 1.08047 14.806 0.716797V8.63357C14.806 10.1867 14.806 10.9633 14.5523 11.5759C14.2139 12.3926 13.565 13.0415 12.7483 13.3798C12.1357 13.6336 11.3591 13.6336 9.80599 13.6336H3.13932C2.21885 13.6336 1.47266 14.3798 1.47266 15.3002Z" stroke="#4D5C78" stroke-width="1.25" stroke-linecap="round" stroke-linejoin="round"/>
<path d="M13.1387 13.2168L13.1387 17.3835" stroke="#4D5C78" stroke-width="1.25" stroke-linejoin="round"/>
<path d="M4.80664 2.38281L4.80664 5.71615" stroke="#4D5C78" stroke-width="1.25" stroke-linecap="round" stroke-linejoin="round"/>
</svg>
