<svg width="134" height="95" viewBox="0 0 134 95" fill="none" xmlns="http://www.w3.org/2000/svg">
<mask id="mask0_2831_26952" style="mask-type:alpha" maskUnits="userSpaceOnUse" x="0" y="0" width="134" height="95">
<path d="M0.5 0.875H133.331V94.7099H0.5V0.875Z" fill="white"/>
</mask>
<g mask="url(#mask0_2831_26952)">
<path fill-rule="evenodd" clip-rule="evenodd" d="M55.7576 11.1124C60.0426 6.60689 66.0081 3.8112 72.6055 3.8112C81.3756 3.8112 89.0277 8.74732 93.1017 16.0761C96.7461 14.4321 100.695 13.5848 104.687 13.5898C120.506 13.5898 133.329 26.6466 133.329 42.7538C133.329 58.861 120.506 71.9183 104.687 71.9183C102.756 71.9183 100.869 71.7221 99.0448 71.3506C95.4571 77.8102 88.6175 82.1752 80.7702 82.1752C77.5955 82.1791 74.4629 81.4516 71.6095 80.0464C67.9729 88.6838 59.4967 94.7392 49.6202 94.7392C39.3335 94.7392 30.5663 88.1701 27.2032 78.9576C25.7042 79.2769 24.1759 79.4371 22.6448 79.4361C10.3972 79.4361 0.469238 69.3108 0.469238 56.8206C0.469238 48.4491 4.92901 41.1406 11.5573 37.2308C10.1534 33.9666 9.43067 30.4452 9.43477 26.8865C9.43477 12.5211 20.9886 0.875 35.2399 0.875C43.6067 0.875 51.043 4.88977 55.7576 11.1124Z" fill="#00A1E0"/>
<path fill-rule="evenodd" clip-rule="evenodd" d="M19.7151 49.548C19.6311 49.7678 19.7443 49.8136 19.7717 49.8524C20.0207 50.0348 20.2746 50.1669 20.5304 50.3151C21.8849 51.039 23.1651 51.2513 24.5029 51.2513C27.2284 51.2513 28.9217 49.789 28.9217 47.4337V47.3874C28.9217 45.2095 27.0097 44.4182 25.2187 43.8471L24.9853 43.7708C23.6348 43.3283 22.4688 42.9454 22.4688 42.0472V42.0014C22.4688 41.2322 23.1505 40.6671 24.2061 40.6671C25.3798 40.6671 26.7714 41.0607 27.6688 41.5609C27.6688 41.5609 27.9335 41.7334 28.0292 41.4757C28.0819 41.3362 28.535 40.1035 28.5838 39.9699C28.6356 39.8255 28.5448 39.7167 28.451 39.6604C27.4266 39.0303 26.0117 38.6016 24.5459 38.6016L24.2744 38.6025C21.7794 38.6025 20.0383 40.1251 20.0383 42.3039V42.3507C20.0383 44.6468 21.9591 45.3934 23.7598 45.9122L24.0488 46.0028C25.3593 46.4088 26.4911 46.7596 26.4911 47.6904V47.7367C26.4911 48.5891 25.7558 49.2223 24.5703 49.2223C24.1113 49.2223 22.6446 49.2144 21.0607 48.2028C20.8683 48.09 20.759 48.0087 20.6115 47.9176C20.5334 47.8697 20.3381 47.7835 20.2531 48.0417L19.7151 49.548ZM59.6128 49.548C59.5288 49.7678 59.6421 49.8136 59.6704 49.8524C59.9184 50.0348 60.1723 50.1669 60.4282 50.3151C61.7826 51.039 63.0638 51.2513 64.4006 51.2513C67.1261 51.2513 68.8194 49.789 68.8194 47.4337V47.3874C68.8194 45.2095 66.9084 44.4182 65.1174 43.8471L64.883 43.7708C63.5325 43.3283 62.3666 42.9454 62.3666 42.0472V42.0014C62.3666 41.2322 63.0482 40.6671 64.1048 40.6671C65.2785 40.6671 66.6691 41.0607 67.5665 41.5609C67.5665 41.5609 67.8312 41.7334 67.9278 41.4757C67.9796 41.3362 68.4327 40.1035 68.4805 39.9699C68.5333 39.8255 68.4415 39.7167 68.3487 39.6604C67.3243 39.0303 65.9094 38.6016 64.4446 38.6016L64.1721 38.6025C61.6781 38.6025 59.936 40.1251 59.936 42.3039V42.3507C59.936 44.6468 61.8568 45.3934 63.6575 45.9122L63.9456 46.0028C65.257 46.4088 66.3888 46.7596 66.3888 47.6904V47.7367C66.3888 48.5891 65.6535 49.2223 64.469 49.2223C64.0091 49.2223 62.5423 49.2144 60.9584 48.2028C60.767 48.09 60.6547 48.0122 60.5092 47.9176C60.4594 47.886 60.2299 47.7954 60.1508 48.0417L59.6128 49.548ZM86.8499 44.9341C86.8499 46.2644 86.6038 47.315 86.1204 48.0556C85.64 48.7897 84.9154 49.1469 83.9037 49.1469C82.893 49.1469 82.1723 48.7902 81.6997 48.0565C81.2222 47.3154 80.98 46.2644 80.98 44.9341C80.98 43.6048 81.2222 42.5576 81.6997 41.8245C82.1723 41.0977 82.893 40.7449 83.9037 40.7449C84.9154 40.7449 85.64 41.0982 86.1204 41.825C86.6048 42.5576 86.8499 43.6048 86.8499 44.9341ZM89.1252 42.467C88.9015 41.7038 88.5529 41.0322 88.0901 40.472C87.6252 39.9103 87.0384 39.4585 86.3421 39.1312C85.6468 38.8036 84.8275 38.6376 83.9037 38.6376C82.9809 38.6376 82.1606 38.8036 81.4644 39.1312C80.7691 39.4585 80.1822 39.9103 79.7174 40.473C79.2545 41.0342 78.9059 41.7048 78.6823 42.467C78.4606 43.2243 78.3473 44.0546 78.3473 44.9341C78.3473 45.8141 78.4606 46.6449 78.6823 47.4012C78.9059 48.163 79.2535 48.834 79.7183 49.3962C80.1822 49.9589 80.771 50.4068 81.4653 50.7261C82.1616 51.0454 82.9819 51.208 83.9037 51.208C84.8265 51.208 85.6458 51.0454 86.3411 50.7261C87.0364 50.4068 87.6243 49.9589 88.0901 49.3962C88.5529 48.836 88.9015 48.164 89.1252 47.4012C89.3468 46.6434 89.4601 45.8132 89.4601 44.9341C89.4601 44.0555 89.3468 43.2248 89.1252 42.467ZM107.806 48.7907C107.731 48.5674 107.515 48.6517 107.515 48.6517C107.185 48.7793 106.833 48.8976 106.457 48.9567C106.079 49.0168 105.66 49.0469 105.21 49.0469C104.111 49.0469 103.235 48.7163 102.609 48.0629C101.981 47.4091 101.629 46.3527 101.632 44.9238C101.635 43.6249 101.947 42.6464 102.505 41.9003C103.059 41.1594 103.905 40.7789 105.029 40.7789C105.967 40.7789 106.684 40.8888 107.434 41.1264C107.434 41.1264 107.612 41.2047 107.698 40.9677C107.897 40.4094 108.044 40.0122 108.257 39.3988C108.318 39.2239 108.169 39.15 108.116 39.1288C107.821 39.0125 107.124 38.8219 106.598 38.7415C106.107 38.6656 105.532 38.6262 104.891 38.6262C103.936 38.6262 103.084 38.7913 102.355 39.1184C101.629 39.4451 101.012 39.8964 100.523 40.4576C100.035 41.0199 99.6628 41.6915 99.4167 42.4533C99.1706 43.211 99.0456 44.0427 99.0456 44.9247C99.0456 46.8291 99.5554 48.3679 100.559 49.4952C101.567 50.6265 103.078 51.2011 105.05 51.2011C106.216 51.2011 107.411 50.9631 108.273 50.6212C108.273 50.6212 108.437 50.5413 108.366 50.3481L107.806 48.7907ZM111.786 43.6585C111.896 42.9189 112.096 42.3044 112.408 41.8245C112.881 41.0977 113.6 40.6972 114.61 40.6972C115.622 40.6972 116.288 41.0982 116.769 41.825C117.086 42.3054 117.225 42.9454 117.278 43.6595L111.786 43.6585ZM119.445 42.0339C119.252 41.2977 118.774 40.5542 118.46 40.2143C117.965 39.6752 117.479 39.2978 116.997 39.0893C116.3 38.7902 115.55 38.6365 114.792 38.6376C113.831 38.6376 112.958 38.8017 112.249 39.1367C111.54 39.4727 110.945 39.932 110.477 40.5026C110.009 41.0726 109.657 41.7511 109.434 42.5207C109.209 43.2859 109.096 44.1201 109.096 45.0011C109.096 45.8969 109.214 46.7321 109.446 47.4829C109.679 48.2403 110.054 48.9049 110.561 49.4583C111.068 50.0136 111.719 50.4492 112.497 50.7527C113.273 51.0557 114.214 51.2129 115.293 51.2094C117.518 51.2021 118.688 50.7014 119.172 50.4319C119.257 50.3837 119.337 50.3004 119.237 50.0605L118.733 48.6375C118.656 48.4251 118.443 48.5019 118.443 48.5019C117.891 48.7098 117.109 49.0809 115.281 49.0769C114.088 49.0749 113.203 48.7187 112.647 48.1625C112.078 47.5934 111.799 46.7577 111.752 45.5771L119.451 45.583C119.451 45.583 119.654 45.5811 119.675 45.381C119.683 45.2983 119.939 43.7845 119.445 42.0339ZM50.1122 43.6585C50.2216 42.9189 50.4227 42.3044 50.7352 41.8245C51.2069 41.0977 51.9246 40.6972 52.9373 40.6972C53.948 40.6972 54.6149 41.0982 55.0954 41.825C55.4118 42.3054 55.5504 42.9454 55.6051 43.6595L50.1122 43.6585ZM57.771 42.0339C57.5777 41.2977 57.1002 40.5542 56.7867 40.2143C56.2906 39.6752 55.8063 39.2978 55.3239 39.0893C54.6266 38.7904 53.8767 38.6367 53.1189 38.6376C52.158 38.6376 51.284 38.8017 50.576 39.1367C49.8671 39.4727 49.2704 39.932 48.8027 40.5026C48.3359 41.0726 47.9843 41.7511 47.7597 42.5207C47.5351 43.2859 47.4228 44.1201 47.4228 45.0011C47.4228 45.8969 47.5391 46.7321 47.7724 47.4829C48.0058 48.2403 48.3818 48.9049 48.8867 49.4583C49.3935 50.0136 50.0448 50.4492 50.8241 50.7527C51.5985 51.0557 52.5388 51.2129 53.6189 51.2094C55.8444 51.2021 57.0142 50.7014 57.4976 50.4319C57.5826 50.3837 57.6636 50.3004 57.563 50.0605L57.0592 48.6375C56.982 48.4251 56.7691 48.5019 56.7691 48.5019C56.2174 48.7098 55.4362 49.0809 53.6072 49.0769C52.4138 49.0749 51.5291 48.7187 50.9735 48.1625C50.4051 47.5934 50.1249 46.7577 50.078 45.5771L57.7779 45.583C57.7779 45.583 57.981 45.5811 58.0015 45.381C58.0103 45.2983 58.2661 43.7845 57.771 42.0339ZM33.4674 48.7483C33.1656 48.5048 33.1237 48.4453 33.0231 48.2871C32.8707 48.0491 32.7926 47.7102 32.7926 47.276C32.7926 46.5936 33.0172 46.1018 33.4801 45.7718C33.4752 45.7727 34.1431 45.1894 35.7134 45.2101C36.4136 45.2226 37.1118 45.2826 37.8041 45.3899V48.9227C37.8041 48.9227 36.8256 49.1351 35.7241 49.2021C34.1578 49.2972 33.4625 48.7468 33.4674 48.7483ZM36.5317 43.2859C36.2192 43.2628 35.8149 43.2515 35.3296 43.2515C34.6695 43.2515 34.0318 43.3342 33.4332 43.4969C32.8317 43.6604 32.2907 43.9136 31.8249 44.2492C31.3601 44.5844 30.9782 45.0231 30.7077 45.5312C30.4353 46.0442 30.2957 46.6468 30.2957 47.3224C30.2957 48.0117 30.4148 48.6089 30.6492 49.0966C30.8777 49.5803 31.2233 49.9986 31.653 50.3137C32.0807 50.628 32.609 50.8587 33.2223 50.9996C33.8268 51.139 34.5123 51.2094 35.2613 51.2094C36.0522 51.2094 36.8383 51.1424 37.6 51.0128C38.2494 50.9 38.8959 50.7731 39.5394 50.6325C39.7962 50.5728 40.0794 50.4945 40.0794 50.4945C40.2698 50.4457 40.2552 50.2402 40.2552 50.2402L40.2513 43.1322C40.2513 41.5732 39.8392 40.4183 39.0267 39.7008C38.2191 38.9869 37.0297 38.6262 35.4907 38.6262C34.9126 38.6262 33.984 38.7051 33.4264 38.8179C33.4264 38.8179 31.7448 39.147 31.0534 39.6945C31.0534 39.6945 30.9011 39.789 30.9841 40.0034L31.529 41.4815C31.5964 41.6732 31.7819 41.6077 31.7819 41.6077C31.7819 41.6077 31.8395 41.5845 31.9079 41.5436C33.3893 40.7307 35.2632 40.7548 35.2632 40.7548C36.0952 40.7548 36.7358 40.9248 37.1665 41.2574C37.5873 41.5831 37.8002 42.0733 37.8002 43.1096V43.4382C37.1401 43.3416 36.5317 43.2859 36.5317 43.2859ZM98.6433 39.2815C98.6541 39.2555 98.6599 39.2276 98.6599 39.1993C98.6599 39.171 98.655 39.1429 98.6443 39.1169C98.6336 39.0907 98.617 39.0671 98.5974 39.0472C98.5769 39.0275 98.5535 39.012 98.5271 39.0016C98.3963 38.9514 97.741 38.812 97.2371 38.7805C96.2684 38.7193 95.7323 38.8839 95.2509 39.1027C94.7734 39.32 94.2451 39.6712 93.9502 40.0719L93.9492 39.1239C93.9492 38.9938 93.8574 38.8889 93.7275 38.8889H91.754C91.626 38.8889 91.5333 38.9938 91.5333 39.1239V50.7187C91.5333 50.7812 91.5577 50.8412 91.6016 50.8854C91.6456 50.9296 91.7051 50.9546 91.7667 50.9548H93.79C93.8525 50.9546 93.9111 50.9296 93.955 50.8854C93.999 50.8412 94.0234 50.7812 94.0234 50.7187V44.9267C94.0234 44.1487 94.1084 43.3736 94.2783 42.8863C94.4453 42.4039 94.6718 42.0196 94.953 41.7432C95.2196 41.4764 95.5458 41.2783 95.9042 41.1657C96.2401 41.0685 96.5877 41.019 96.9373 41.0189C97.3397 41.0189 97.783 41.1233 97.783 41.1233C97.9314 41.1401 98.0135 41.0484 98.0642 40.9135C98.1961 40.5582 98.5711 39.4934 98.6433 39.2815Z" fill="#FFFFFE"/>
<path fill-rule="evenodd" clip-rule="evenodd" d="M79.6522 33.9129C79.4022 33.8367 79.1483 33.7757 78.8915 33.7305C78.5458 33.6723 78.1953 33.6449 77.8447 33.6488C76.4522 33.6488 75.3546 34.0459 74.5831 34.8303C73.8175 35.6088 73.297 36.7949 73.0363 38.3552L72.9416 38.882H71.1936C71.1936 38.882 70.9798 38.8731 70.9348 39.1081L70.6487 40.7243C70.6282 40.8791 70.6946 40.9756 70.8987 40.9746H72.6008L70.8743 50.7025C70.7395 51.4859 70.5843 52.1304 70.4134 52.6187C70.2444 53.1006 70.0794 53.4617 69.8763 53.7239C69.679 53.9776 69.4925 54.1644 69.1712 54.2733C68.9056 54.3634 68.6 54.4049 68.265 54.4049C68.0785 54.4049 67.8305 54.3733 67.6479 54.3364C67.4643 54.2999 67.3696 54.2585 67.2319 54.2004C67.2319 54.2004 67.0327 54.1235 66.9536 54.3256C66.8901 54.4906 66.436 55.7495 66.3823 55.9052C66.3276 56.0589 66.4048 56.1802 66.5014 56.2151C66.728 56.2969 66.8959 56.3491 67.2045 56.4225C67.6332 56.5246 67.9945 56.5309 68.3334 56.5309C69.0414 56.5309 69.6878 56.4304 70.223 56.2353C70.762 56.0388 71.2307 55.6963 71.6457 55.2326C72.0949 54.7325 72.3772 54.2088 72.6467 53.4942C72.9142 52.7863 73.1418 51.9072 73.3234 50.8828L75.0587 40.9746H77.5947C77.5947 40.9746 77.8086 40.9825 77.8535 40.7484L78.1406 39.1323C78.1601 38.9776 78.0947 38.881 77.8886 38.882H75.4268C75.4395 38.8258 75.5508 37.9517 75.8331 37.1289C75.9541 36.7776 76.1807 36.4943 76.3731 36.2997C76.5528 36.1142 76.7744 35.9754 77.0186 35.8946C77.2861 35.8111 77.5644 35.7706 77.8447 35.7744C78.0771 35.7744 78.3037 35.8024 78.4775 35.8389C78.7158 35.8902 78.8085 35.9173 78.871 35.936C79.122 36.0134 79.1562 35.9385 79.205 35.8158L79.7938 34.1838C79.8544 34.0085 79.7069 33.9345 79.6522 33.9129ZM45.2494 50.7232C45.2494 50.8532 45.1576 50.9592 45.0287 50.9592H42.9868C42.8579 50.9592 42.7661 50.8532 42.7661 50.7232V34.1341C42.7661 34.0045 42.8579 33.8996 42.9868 33.8996H45.0287C45.1576 33.8996 45.2494 34.0045 45.2494 34.1341V50.7232Z" fill="#FFFFFE"/>
</g>
</svg>
