<svg width="40" height="40" viewBox="0 0 40 40" fill="none" xmlns="http://www.w3.org/2000/svg">
<path d="M36.6693 20.8334C36.6693 20.0144 36.6605 18.362 36.643 17.5406C36.534 12.4314 36.4796 9.87674 34.5944 7.98436C32.7091 6.09197 30.0854 6.02605 24.8379 5.8942C21.6038 5.81294 18.4015 5.81294 15.1673 5.89419C9.91982 6.02602 7.29608 6.09194 5.41086 7.98433C3.52564 9.87672 3.47117 12.4313 3.36221 17.5405C3.32718 19.1834 3.32718 20.8165 3.36221 22.4593C3.47117 27.5685 3.52565 30.1231 5.41087 32.0155C7.29608 33.9079 9.91983 33.9738 15.1673 34.1057C16.5052 34.1393 17.8377 34.159 19.1693 34.1648" stroke="#141B34" stroke-width="2.5" stroke-linecap="round" stroke-linejoin="round"/>
<path d="M11.668 14.1667L16.5713 17.0657C19.43 18.7559 20.5726 18.7559 23.4313 17.0657L28.3346 14.1667" stroke="#141B34" stroke-width="2.5" stroke-linecap="round" stroke-linejoin="round"/>
<path d="M36.6693 29.1667L23.3359 29.1667M36.6693 29.1667C36.6693 27.9996 33.3454 25.8192 32.5026 25M36.6693 29.1667C36.6693 30.3337 33.3454 32.5141 32.5026 33.3333" stroke="#141B34" stroke-width="2.5" stroke-linecap="round" stroke-linejoin="round"/>
</svg>
