<svg width="107" height="90" viewBox="0 0 107 90" fill="none" xmlns="http://www.w3.org/2000/svg">
<path d="M57.5069 31.0591C61.1425 29.697 64.5613 27.758 67.596 25.3367C68.9981 24.2179 70.3479 22.9592 71.1541 21.3569C72.646 18.3919 71.9941 14.7103 70.3198 11.8444C69.2458 10.0059 67.7956 8.42578 66.2511 6.97374C64.7182 5.53258 63.0835 4.52362 62.1006 2.63616C61.6096 1.69327 60.9952 0.693857 59.9855 0.360956C59.6046 0.235384 59.1955 0.217608 58.7957 0.24898C57.5782 0.344502 56.4028 0.902534 55.5592 1.78541C54.9962 1.18713 54.2205 0.817698 53.4757 0.482337C53.1871 0.352405 52.8849 0.231318 52.5685 0.226678C52.2521 0.222038 51.9155 0.357159 51.7613 0.633531C51.6259 0.876337 51.6547 1.1844 51.7709 1.43697C51.8871 1.68953 52.0803 1.89752 52.2743 2.09665C52.926 2.76548 53.6297 3.25167 54.391 3.77032C53.85 4.78283 54.0178 6.14029 54.5059 7.15778C56.1115 10.5039 59.8642 12.3603 61.6774 15.5986C61.7634 15.7523 61.8474 15.9231 61.8189 16.0969C61.7917 16.2628 61.6682 16.3939 61.55 16.5135C57.4688 20.6407 52.7785 24.107 48.1094 27.5552" fill="white"/>
<path d="M57.5722 31.2748C60.6819 30.1068 63.6343 28.5313 66.3265 26.5846C67.6232 25.647 68.9165 24.6464 69.9822 23.4458C71.0162 22.2809 71.7712 20.9133 72.0613 19.374C72.6444 16.2805 71.5572 13.1038 69.7827 10.5853C68.8329 9.2373 67.7016 8.02896 66.5056 6.89779C65.4155 5.86693 64.1684 4.99084 63.193 3.84264C62.9494 3.55587 62.7275 3.2515 62.5315 2.93023C62.3393 2.61534 62.181 2.28158 61.9942 1.96353C61.6424 1.36441 61.2106 0.780364 60.6137 0.405939C59.9335 -0.0207684 59.1221 -0.0468809 58.3496 0.0771728C57.6097 0.195995 56.89 0.48394 56.2684 0.902013C55.9562 1.11198 55.6667 1.35431 55.4053 1.62474H55.7237C55.2939 1.17614 54.7616 0.848044 54.2084 0.573627C53.6732 0.308195 53.0415 -0.060071 52.4232 0.00831184C51.8327 0.0736292 51.385 0.529937 51.4625 1.14344C51.5415 1.7686 52.0831 2.24628 52.5269 2.64374C53.0733 3.13304 53.6777 3.55094 54.2827 3.96328L54.2019 3.6552C53.227 5.52839 54.3143 7.62157 55.4924 9.10728C56.6756 10.5994 58.1715 11.7983 59.4965 13.1561C60.1504 13.8262 60.7667 14.5375 61.2643 15.333C61.3813 15.5201 61.5965 15.7833 61.6033 16.0103C61.6104 16.2435 61.2683 16.4822 61.1201 16.63C60.6971 17.0519 60.2676 17.4671 59.8324 17.8763C58.0991 19.5059 56.2764 21.038 54.4114 22.5141C52.5411 23.9944 50.6273 25.4184 48.7094 26.836C48.4733 27.0105 48.2372 27.1849 48.0011 27.3592C47.7704 27.5296 47.9948 27.9206 48.2284 27.7481C50.1602 26.3214 52.0917 24.8937 53.9858 23.417C55.8706 21.9475 57.7181 20.4281 59.4821 18.8148C59.9228 18.4118 60.3582 18.003 60.7875 17.5878C61.0061 17.3764 61.2232 17.1633 61.4385 16.9485C61.6239 16.7635 61.8553 16.5769 61.9753 16.3395C62.2171 15.8609 61.8096 15.3423 61.5562 14.9537C61.2925 14.5493 60.9989 14.1642 60.6882 13.7949C59.4555 12.3297 57.9464 11.1333 56.6379 9.74054C55.3825 8.4042 53.9535 6.5619 54.3424 4.60135C54.3921 4.35044 54.4727 4.10947 54.5908 3.88249C54.65 3.76886 54.6148 3.64582 54.51 3.57441C54.0628 3.26964 53.6145 2.96428 53.1943 2.62264C52.7917 2.29536 52.3308 1.92448 52.0553 1.47841C51.9327 1.2799 51.8464 1.02095 51.9382 0.792232C52.0204 0.587548 52.246 0.480749 52.4533 0.455789C52.9629 0.394409 53.5136 0.732048 53.9545 0.949303C54.4844 1.2104 54.9938 1.51376 55.4052 1.94315C55.4884 2.0299 55.6404 2.02931 55.7237 1.94315C56.2324 1.41693 56.8552 1.0035 57.5441 0.752677C58.2355 0.500913 59.0536 0.348623 59.7792 0.532707C61.2175 0.897654 61.6614 2.5144 62.4263 3.58669C63.2657 4.7634 64.4132 5.64315 65.4919 6.58506C66.6712 7.61471 67.7836 8.74566 68.7609 9.96948C70.6479 12.3324 71.9725 15.2794 71.7431 18.3595C71.6324 19.8466 71.1067 21.2423 70.2227 22.4416C69.3074 23.6832 68.0924 24.6892 66.874 25.6198C64.3252 27.5664 61.5196 29.1861 58.5537 30.4075C58.1889 30.5577 57.8217 30.7018 57.4524 30.8405C57.1835 30.9415 57.3 31.377 57.5722 31.2748Z" fill="black"/>
<path d="M56.1649 2.50935C55.9011 3.13505 56.2947 3.94181 56.9531 4.11541C57.6583 4.30134 58.3602 3.75023 58.4425 3.05317L58.0581 3.21239C58.3961 3.51372 58.8692 3.84901 59.3383 3.63529C59.7477 3.44876 59.7709 2.98651 60.0585 2.69574H59.74C60.0239 2.99615 60.4159 3.11107 60.8193 3.05071C60.9405 3.03257 61.0049 2.88108 60.9766 2.77372C60.9425 2.64457 60.8193 2.59853 60.6996 2.61645C60.4567 2.6528 60.2234 2.55181 60.0584 2.3773C59.9752 2.28924 59.8238 2.29258 59.74 2.3773C59.5192 2.60053 59.4653 2.9305 59.2537 3.1516C58.99 3.42711 58.5828 3.07782 58.3765 2.89396C58.2206 2.75497 58.0149 2.86029 57.9921 3.05318C57.9419 3.47862 57.4368 3.80781 57.0295 3.66846C56.6129 3.52587 56.4358 3.01655 56.5992 2.62909C56.6468 2.51613 56.5479 2.38253 56.4419 2.3521C56.3124 2.31491 56.2119 2.39787 56.1649 2.50935Z" fill="black"/>
<path d="M54.5217 3.95004C54.6144 3.76203 54.8396 3.50612 55.0808 3.54548C55.312 3.58321 55.4749 3.96219 55.5505 4.14914C55.7564 4.6583 55.7781 5.21967 55.7874 5.76157L56.2298 5.70171L56.2206 5.67204L56.1979 5.84555C56.2534 5.71408 56.5452 5.6034 56.6687 5.55081C56.856 5.47108 57.0536 5.4152 57.2502 5.36411C57.6736 5.25411 58.113 5.16366 58.5348 5.32537C58.8056 5.4292 58.9228 4.99398 58.6545 4.89111C58.1083 4.68173 57.5039 4.82035 56.9619 4.97557C56.7031 5.04969 56.4434 5.14217 56.2098 5.27766C56.021 5.38707 55.7145 5.55946 55.7955 5.82143C55.8688 6.05861 56.2423 6.02268 56.2378 5.76157C56.2253 5.0346 56.1785 4.25719 55.786 3.62181C55.595 3.31264 55.3217 3.04312 54.9297 3.10715C54.584 3.16364 54.2856 3.41289 54.1329 3.72274C54.0051 3.98179 54.3934 4.21027 54.5217 3.95004Z" fill="black"/>
<path d="M33.5359 82.2542C33.5023 84.5938 33.4785 86.9948 34.283 89.1919C34.3465 89.3653 34.4235 89.5476 34.5774 89.6494C34.7238 89.7462 34.9104 89.7507 35.0859 89.752C36.122 89.7598 37.1582 89.7676 38.1944 89.7753C38.2175 89.5773 38.2734 89.383 38.3591 89.2029C40.5477 89.6378 42.8038 89.7318 45.021 89.4806C45.679 89.406 46.3637 89.2889 46.8914 88.8889C47.8022 88.1984 47.9179 86.6842 47.1225 85.8633C46.4802 85.2005 45.4905 85.0563 44.6323 84.7168C43.1207 84.1187 41.9155 82.7951 41.4614 81.2344" fill="white"/>
<path d="M33.3091 82.2534C33.2875 83.7578 33.2714 85.2683 33.4727 86.7628C33.5725 87.5033 33.7245 88.2371 33.9587 88.9473C34.0587 89.2505 34.1527 89.6136 34.422 89.8133C34.7049 90.0229 35.0978 89.9764 35.4296 89.9789C36.3506 89.9858 37.2717 89.9927 38.1927 89.9996C38.3263 90.0006 38.4018 89.8946 38.4179 89.7744C38.439 89.6169 38.4861 89.4601 38.5519 89.3157L38.2975 89.4192C39.8545 89.726 41.4429 89.8702 43.0297 89.8376C43.8114 89.8215 44.5961 89.7691 45.3706 89.6604C46.0201 89.5692 46.6945 89.3911 47.1862 88.9315C47.965 88.2035 48.105 86.8745 47.512 85.992C46.7742 84.894 45.3008 84.8541 44.2215 84.2796C43.0034 83.6311 42.0694 82.497 41.6769 81.1736C41.5947 80.8964 41.1599 81.0144 41.2426 81.2933C41.5807 82.4334 42.2834 83.4432 43.2243 84.1685C43.695 84.5313 44.2157 84.8095 44.7749 85.0096C45.3533 85.2165 45.9685 85.3514 46.5024 85.6658C46.9607 85.9357 47.2787 86.3353 47.3883 86.8596C47.4888 87.3395 47.3991 87.864 47.1408 88.2809C46.8228 88.7941 46.256 89.0303 45.6869 89.151C44.9855 89.2998 44.2514 89.3395 43.5366 89.3709C41.8217 89.4461 40.1014 89.3168 38.4173 88.9849C38.3272 88.9671 38.2057 88.9947 38.163 89.0884C38.0614 89.3114 38 89.5318 37.9675 89.7744L38.1927 89.5493C37.4329 89.5436 36.673 89.5379 35.9131 89.5322C35.7289 89.5308 35.5447 89.5294 35.3605 89.5281C35.194 89.5268 35.0146 89.5437 34.8501 89.5136C34.5366 89.4563 34.4669 89.0542 34.383 88.7971C33.9462 87.4577 33.801 86.0488 33.7606 84.6467C33.7377 83.8491 33.7481 83.0511 33.7595 82.2534C33.7636 81.9635 33.3133 81.9634 33.3091 82.2534Z" fill="black"/>
<path d="M48.998 80.2441C49.8193 82.435 50.6723 84.6796 52.2222 86.4324C52.3445 86.5707 52.4826 86.7125 52.6631 86.7512C52.8346 86.788 53.0101 86.7242 53.1739 86.6615C54.1417 86.2911 55.1094 85.9208 56.0772 85.5504C56.0265 85.3575 56.0078 85.1563 56.0219 84.9574C58.2186 84.5648 60.3537 83.8302 62.3269 82.7883C62.9125 82.4791 63.5075 82.1205 63.8531 81.5557C64.4496 80.5808 64.0055 79.1285 62.9656 78.654C62.1259 78.2708 61.1517 78.4972 60.2287 78.4937C58.6032 78.4876 56.9985 77.6942 56.0068 76.4062" fill="white"/>
<path d="M48.7986 80.3073C49.3084 81.667 49.823 83.0332 50.5143 84.3134C50.8592 84.9519 51.2502 85.5638 51.6981 86.1351C51.9033 86.3968 52.1222 86.7195 52.4154 86.8892C52.7781 87.099 53.1571 86.9181 53.5096 86.7832C54.3913 86.4457 55.273 86.1083 56.1547 85.7709C56.2711 85.7264 56.3431 85.622 56.312 85.4939C56.2688 85.3162 56.2552 85.1432 56.2648 84.9607L56.0995 85.1778C57.5781 84.9113 59.0281 84.4949 60.4208 83.9309C61.115 83.6498 61.7962 83.3362 62.4583 82.986C63.0265 82.6856 63.5917 82.3398 63.9738 81.8097C64.6101 80.9269 64.4293 79.6348 63.6791 78.876C62.6591 77.8441 61.1357 78.3572 59.8636 78.256C58.4221 78.1413 57.0689 77.3871 56.1837 76.2503C56.0058 76.0219 55.6892 76.3427 55.8653 76.5688C56.6182 77.5358 57.7026 78.235 58.8877 78.5432C59.5073 78.7044 60.1366 78.7414 60.7737 78.7052C61.4465 78.667 62.1671 78.5706 62.8107 78.8269C63.7144 79.1868 64.1615 80.3662 63.7795 81.2498C63.5438 81.7949 63.0221 82.1546 62.5233 82.4377C61.9146 82.7832 61.2769 83.0839 60.6335 83.3586C59.1419 83.9954 57.5754 84.4559 55.9798 84.7436C55.8798 84.7616 55.8193 84.868 55.8144 84.9607C55.8028 85.1815 55.8255 85.3988 55.8777 85.6136L56.035 85.3366C55.3038 85.6164 54.5726 85.8962 53.8414 86.1761C53.6694 86.2419 53.4973 86.3077 53.3253 86.3736C53.1552 86.4387 52.9284 86.5691 52.7406 86.5373C52.5979 86.5132 52.4899 86.3783 52.3991 86.2765C52.2796 86.1426 52.1649 86.0042 52.0535 85.8635C51.2163 84.8069 50.6015 83.5856 50.0781 82.3492C49.7764 81.6367 49.5045 80.9119 49.2329 80.1875C49.1321 79.9186 48.6966 80.0351 48.7986 80.3073Z" fill="black"/>
<path d="M38.0898 58.6471C40.5847 66.5769 43.6658 74.3223 47.2999 81.799C49.0508 81.3649 50.763 80.7752 52.4105 80.0405C53.2343 79.6733 54.0419 79.2697 54.8301 78.8313C55.5392 78.4369 56.2099 78.0432 56.6976 77.3744C56.7387 77.3181 56.7797 77.2564 56.7827 77.1868C56.7854 77.1221 56.7547 77.0612 56.7249 77.0038C56.0988 75.7979 55.3504 74.603 54.8334 73.3564C53.5215 70.1937 52.2389 67.0182 51.087 63.7932C49.8004 60.191 48.6747 56.5343 47.6163 52.8594" fill="white"/>
<path d="M37.8729 58.7065C38.85 61.8102 39.9157 64.886 41.0699 67.9284C42.2231 70.968 43.4639 73.9745 44.7894 76.9431C45.5345 78.6119 46.307 80.2684 47.1056 81.9122C47.1494 82.0025 47.2685 82.0385 47.3599 82.0157C49.6873 81.4359 51.9467 80.5865 54.0792 79.4882C55.0175 79.005 56.0698 78.5081 56.7497 77.6724C56.91 77.4753 57.0716 77.27 56.972 77.0054C56.8745 76.7465 56.7147 76.501 56.5823 76.2587C56.294 75.7311 55.9966 75.2084 55.7154 74.6769C55.1424 73.594 54.6995 72.4527 54.2366 71.32C53.7671 70.1714 53.3043 69.02 52.8529 67.8641C51.9429 65.5339 51.0868 63.1837 50.2975 60.8098C49.5134 58.4519 48.7867 56.0754 48.0916 53.6899C48.0051 53.3931 47.9191 53.0961 47.8335 52.7991C47.7534 52.5211 47.3187 52.6393 47.3993 52.9188C48.0746 55.2623 48.7766 57.5984 49.5306 59.9179C50.2823 62.2303 51.0909 64.523 51.959 66.7943C52.8297 69.0727 53.7293 71.3456 54.689 73.5881C55.1435 74.6503 55.7382 75.6436 56.2869 76.658C56.3539 76.7819 56.4203 76.9061 56.4857 77.0309C56.5036 77.0651 56.5616 77.1394 56.5569 77.1772C56.5509 77.2251 56.4784 77.2943 56.4497 77.3308C56.2913 77.5316 56.1067 77.7122 55.9094 77.8745C55.519 78.196 55.0691 78.4421 54.6278 78.6856C52.5551 79.8295 50.3508 80.7291 48.0699 81.3633C47.7943 81.4399 47.5177 81.5123 47.2401 81.5815L47.4944 81.6849C46.0811 78.7756 44.7495 75.8265 43.506 72.8407C42.2635 69.8574 41.1066 66.8385 40.0372 63.789C39.4324 62.0644 38.856 60.3299 38.3072 58.5868C38.2204 58.3113 37.7855 58.4289 37.8729 58.7065Z" fill="black"/>
<path d="M31.2288 58.1605C30.6621 66.4541 30.7086 74.7896 31.3678 83.0765C33.1565 83.3102 34.9659 83.3849 36.7679 83.3012C37.6689 83.2594 38.568 83.1779 39.4618 83.0568C40.2658 82.9479 41.0339 82.8257 41.7318 82.3806C41.7906 82.3431 41.8513 82.3007 41.8794 82.2369C41.9055 82.1776 41.8992 82.1098 41.8924 82.0455C41.7488 80.6944 41.4874 79.3089 41.4602 77.9596C41.3912 74.5363 41.354 71.1119 41.4567 67.6889C41.5714 63.8656 41.8558 60.0502 42.2094 56.2422" fill="white"/>
<path d="M31.0023 58.1574C30.7815 61.3983 30.653 64.6453 30.6188 67.8935C30.5847 71.1301 30.6435 74.3676 30.7952 77.6007C30.8809 79.4267 30.9967 81.2511 31.1412 83.0734C31.1518 83.207 31.2369 83.2818 31.3664 83.2985C33.7984 83.6135 36.2652 83.6403 38.7029 83.3719C39.7536 83.2562 40.9368 83.1722 41.8441 82.572C42.0726 82.4208 42.1374 82.2415 42.109 81.9759C42.0768 81.6747 42.0381 81.3743 41.9985 81.074C41.9204 80.4807 41.8361 79.8881 41.7739 79.2928C41.6475 78.0847 41.661 76.8643 41.6435 75.6509C41.6258 74.4165 41.6153 73.1821 41.6172 71.9476C41.621 69.4771 41.6818 67.0076 41.8112 64.5403C41.9407 62.0718 42.1295 59.6067 42.3505 57.1448C42.3776 56.8428 42.4053 56.541 42.4333 56.2391C42.46 55.9506 42.0095 55.9525 41.9829 56.2391C41.76 58.6423 41.5641 61.0483 41.4213 63.4577C41.2786 65.8662 41.1945 68.2773 41.1732 70.6899C41.1519 73.112 41.1792 75.535 41.2336 77.9565C41.2597 79.1153 41.4466 80.261 41.5915 81.4089C41.6097 81.5534 41.6273 81.698 41.6438 81.8428C41.655 81.9413 41.7066 82.097 41.6367 82.1697C41.5552 82.2544 41.4018 82.3113 41.2981 82.3626C41.1822 82.42 41.0631 82.4694 40.9413 82.5125C40.4529 82.6855 39.9377 82.7639 39.4262 82.8331C37.0547 83.1537 34.6433 83.1916 32.2624 82.9518C31.9632 82.9217 31.6646 82.8868 31.3664 82.8482L31.5916 83.0734C31.3347 79.8351 31.17 76.5897 31.0995 73.3421C31.0293 70.1061 31.052 66.8682 31.1677 63.6335C31.2331 61.8067 31.3284 59.9811 31.4526 58.1574C31.4724 57.8681 31.0219 57.8693 31.0023 58.1574Z" fill="black"/>
<path d="M20.0674 24.9418C18.5372 18.0232 17.541 12.4469 16.5933 5.42474L33.2781 19.5377L47.4646 1.82422L48.2152 23.3656L66.3048 25.5422L54.5203 35.2996L67.2055 55.49L48.4403 51.2117L48.1401 69.5256L34.1037 55.7151L23.7454 71.6272L21.4185 51.587L1.82765 50.5362L15.4887 37.7015L0.476562 24.4914L20.0674 24.9418Z" fill="white"/>
<path d="M20.2836 24.8811C19.18 19.8859 18.2148 14.8636 17.4453 9.80578C17.2203 8.32709 17.0099 6.84625 16.8096 5.36404L16.4332 5.58312C18.323 7.1816 20.2127 8.78006 22.1025 10.3785C25.0901 12.9056 28.0777 15.4327 31.0652 17.9597C31.7495 18.5385 32.4337 19.1173 33.1179 19.696C33.2028 19.7679 33.3554 19.7972 33.4364 19.696C35.0425 17.6906 36.6487 15.6851 38.2549 13.6796C40.7952 10.5077 43.3355 7.33583 45.8759 4.16393C46.4582 3.43681 47.0405 2.70971 47.6229 1.98259L47.2384 1.82337C47.323 4.24882 47.4075 6.67428 47.492 9.09973C47.6267 12.9663 47.7615 16.8329 47.8962 20.6995C47.9271 21.5879 47.9581 22.4763 47.9891 23.3647C47.9937 23.4974 48.0894 23.5749 48.2142 23.5899C50.2529 23.8352 52.2916 24.0805 54.3303 24.3258C57.5782 24.7166 60.826 25.1074 64.0739 25.4982C64.8172 25.5877 65.5605 25.6771 66.3039 25.7666L66.1446 25.3822C64.815 26.4831 63.4854 27.584 62.1557 28.6849C60.0454 30.4323 57.9351 32.1796 55.8247 33.9269C55.3365 34.3311 54.8483 34.7354 54.3601 35.1396C54.2862 35.2008 54.2756 35.3339 54.3249 35.4125C54.7443 36.0799 55.1636 36.7475 55.583 37.4149C56.5906 39.0186 57.5982 40.6223 58.6057 42.226C59.8317 44.1773 61.0576 46.1285 62.2835 48.0797C63.3382 49.7584 64.3929 51.437 65.4475 53.1157C65.7954 53.6693 66.1433 54.223 66.4911 54.7767C66.6388 55.0118 66.784 55.3752 66.9879 55.5673C66.997 55.576 67.0033 55.5919 67.0101 55.6028L67.2644 55.272C65.1407 54.7878 63.0169 54.3036 60.8932 53.8194C57.5357 53.054 54.1781 52.2885 50.8206 51.523C50.0468 51.3466 49.273 51.1702 48.4993 50.9938C48.3557 50.961 48.2167 51.0598 48.2142 51.2109C48.1803 53.2797 48.1464 55.3485 48.1125 57.4174C48.0586 60.6996 48.0048 63.9819 47.951 67.2642C47.9387 68.0177 47.9263 68.7713 47.914 69.5248L48.2984 69.3656C46.7084 67.8012 45.1185 66.2369 43.5286 64.6725C41.0163 62.2007 38.5039 59.7288 35.9916 57.2569C35.4151 56.6896 34.8386 56.1224 34.262 55.5551C34.1548 55.4496 33.9873 55.4793 33.9083 55.6007C32.7439 57.3894 31.5795 59.1782 30.4151 60.9669C28.5523 63.8285 26.6895 66.69 24.8267 69.5516C24.4011 70.2053 23.9755 70.859 23.55 71.5128L23.9696 71.6264C23.7071 69.3655 23.4446 67.1046 23.1821 64.8438C22.7642 61.2447 22.3463 57.6456 21.9284 54.0465C21.8332 53.2264 21.7379 52.4063 21.6427 51.5862C21.6281 51.46 21.5512 51.3682 21.4175 51.361C19.2032 51.2423 16.9889 51.1235 14.7746 51.0047C11.2703 50.8167 7.76602 50.6288 4.26173 50.4408C3.45004 50.3973 2.63836 50.3538 1.82669 50.3102L1.98592 50.6946C3.52886 49.245 5.07179 47.7954 6.61473 46.3458C9.06311 44.0455 11.5115 41.7452 13.9599 39.4449C14.5222 38.9166 15.0846 38.3882 15.647 37.8599C15.7316 37.7804 15.7364 37.6201 15.647 37.5414C13.9523 36.0502 12.2576 34.559 10.563 33.0677C7.86644 30.6949 5.1699 28.3221 2.47336 25.9492C1.8605 25.4099 1.24766 24.8707 0.63481 24.3314L0.475581 24.7158C2.68989 24.7667 4.9042 24.8176 7.11852 24.8685L17.6314 25.1101C18.4431 25.1288 19.2548 25.1475 20.0664 25.1661C20.3563 25.1728 20.3562 24.7225 20.0664 24.7158C17.8521 24.6649 15.6378 24.614 13.4235 24.5631L2.91061 24.3214C2.09893 24.3028 1.28725 24.2841 0.475581 24.2654C0.287918 24.2611 0.168571 24.5198 0.316352 24.6498C2.01101 26.1411 3.70567 27.6323 5.40034 29.1235C8.09688 31.4964 10.7934 33.8692 13.49 36.242C14.1028 36.7813 14.7157 37.3206 15.3285 37.8599V37.5414C13.7856 38.991 12.2426 40.4406 10.6997 41.8903C8.25132 44.1905 5.80295 46.4908 3.35457 48.7911C2.79221 49.3195 2.22984 49.8478 1.66747 50.3762C1.51787 50.5167 1.64042 50.7506 1.82669 50.7606C4.041 50.8793 6.25531 50.9981 8.46963 51.1169C11.9739 51.3048 15.4782 51.4928 18.9825 51.6808C19.7942 51.7243 20.6059 51.7678 21.4175 51.8114L21.1924 51.5862C21.4549 53.8471 21.7174 56.108 21.9799 58.3688C22.3978 61.9679 22.8157 65.567 23.2336 69.1661C23.3288 69.9862 23.424 70.8063 23.5192 71.6264C23.5444 71.8432 23.8092 71.9393 23.9389 71.7401C25.1033 69.9513 26.2677 68.1626 27.4321 66.3738C29.2949 63.5123 31.1577 60.6507 33.0205 57.7892C33.4461 57.1354 33.8717 56.4817 34.2972 55.828L33.9436 55.8735C35.5335 57.4379 37.1234 59.0022 38.7134 60.5666C41.2257 63.0385 43.738 65.5103 46.2503 67.9822C46.8268 68.5495 47.4034 69.1168 47.9799 69.684C48.1203 69.8221 48.3611 69.7198 48.3643 69.5248C48.3983 67.456 48.4322 65.3872 48.4661 63.3183C48.5199 60.0361 48.5737 56.7538 48.6275 53.4715C48.6399 52.718 48.6522 51.9644 48.6646 51.2109L48.3795 51.428C50.5033 51.9122 52.627 52.3964 54.7508 52.8806C58.1083 53.6461 61.4658 54.4115 64.8234 55.177C65.5972 55.3534 66.3709 55.5298 67.1447 55.7063C67.328 55.748 67.5082 55.5493 67.399 55.3755C66.9796 54.708 66.5603 54.0405 66.1409 53.373C65.1333 51.7693 64.1257 50.1656 63.1182 48.5619C61.8922 46.6107 60.6663 44.6595 59.4404 42.7082C58.3857 41.0296 57.3311 39.3509 56.2764 37.6723C55.9285 37.1186 55.5806 36.5649 55.2328 36.0112L54.9072 35.4931C54.858 35.4147 54.8063 35.2821 54.736 35.2206C54.7268 35.2126 54.7204 35.1958 54.7138 35.1852L54.6786 35.458C56.0082 34.3571 57.3378 33.2562 58.6675 32.1553C60.7778 30.4079 62.8881 28.6606 64.9985 26.9133C65.4867 26.5091 65.9749 26.1048 66.4631 25.7006C66.6318 25.5609 66.4745 25.3368 66.3039 25.3162C64.2652 25.0709 62.2265 24.8256 60.1878 24.5803C56.9399 24.1895 53.6921 23.7987 50.4442 23.4079C49.7009 23.3185 48.9576 23.229 48.2142 23.1396L48.4394 23.3647C48.3549 20.9393 48.2704 18.5138 48.1859 16.0884C48.0511 12.2218 47.9164 8.3552 47.7817 4.48861C47.7507 3.60019 47.7198 2.71179 47.6888 1.82337C47.6827 1.64714 47.4342 1.50211 47.3044 1.66415C45.6982 3.66962 44.0921 5.6751 42.4859 7.68056C39.9456 10.8525 37.4053 14.0244 34.8649 17.1963C34.2826 17.9234 33.7003 18.6505 33.1179 19.3776H33.4364C31.5466 17.7791 29.6569 16.1807 27.7671 14.5822C24.7795 12.0551 21.7919 9.52805 18.8044 7.00098C18.1201 6.42221 17.4359 5.84344 16.7517 5.26468C16.5696 5.11068 16.3453 5.2618 16.3753 5.48376C17.0606 10.5533 17.8913 15.5996 18.9143 20.6122C19.2134 22.0777 19.5266 23.5403 19.8493 25.0008C19.9118 25.2837 20.3461 25.1639 20.2836 24.8811Z" fill="black"/>
<path d="M62.8811 35.3281C62.8955 36.0801 62.91 36.8322 62.9245 37.5842C62.9285 37.7927 62.9376 38.0169 63.0639 38.1829C63.1715 38.3242 63.3496 38.4017 63.4472 38.5502C63.5835 38.7575 63.5201 39.0421 63.3852 39.2503C63.2503 39.4585 63.0546 39.6198 62.9031 39.8162C61.4074 41.7547 65.8488 45.5325 67.1696 46.6214C67.395 46.8073 67.6295 46.9935 67.7803 47.2437C67.9056 47.4515 67.966 47.6933 67.9888 47.935C68.0708 48.802 67.6518 49.6988 66.9342 50.1923C66.2166 50.6857 65.2293 50.7561 64.4489 50.3694C64.1057 50.1993 63.8072 49.9516 63.5262 49.6913C62.3005 48.5559 61.2122 47.1076 60.1505 45.8158C58.9262 44.326 56.5142 40.506 55.7129 38.752" fill="black"/>
<path d="M62.6524 35.3307C62.6603 35.7409 62.6682 36.1511 62.6761 36.5613C62.6837 36.959 62.6716 37.3628 62.7025 37.7594C62.7158 37.9306 62.7459 38.1025 62.8344 38.2525C62.921 38.3992 63.0576 38.4814 63.179 38.5939C63.4575 38.8521 63.1609 39.1944 62.9681 39.402C62.6654 39.728 62.4415 40.0592 62.3857 40.5085C62.3401 40.8759 62.4083 41.2517 62.5296 41.5989C62.8355 42.4746 63.4185 43.2414 64.0177 43.9371C64.6395 44.6589 65.3267 45.3238 66.0385 45.9562C66.3057 46.1936 66.5771 46.4262 66.8519 46.6549C67.0382 46.81 67.2338 46.9573 67.4024 47.1319C67.6572 47.3959 67.7601 47.732 67.7696 48.0939C67.7857 48.7149 67.533 49.3327 67.0922 49.7696C66.6292 50.2284 65.976 50.4372 65.3313 50.3872C64.607 50.3311 64.0528 49.8897 63.5463 49.4073C62.9943 48.8816 62.4856 48.312 61.9947 47.7295C61.1977 46.7839 60.3953 45.828 59.6712 44.8248C59.0088 43.9071 58.3895 42.9576 57.7918 41.9968C57.2201 41.0776 56.6619 40.1458 56.1678 39.1821C56.0762 39.0035 55.9876 38.8235 55.9039 38.641C55.7831 38.3779 55.3948 38.6065 55.515 38.8683C55.9398 39.7944 56.4634 40.678 56.9893 41.5492C57.6079 42.5739 58.2544 43.5831 58.938 44.5657C59.6112 45.5334 60.3593 46.44 61.1029 47.354C61.6015 47.9668 62.1087 48.5737 62.6523 49.1473C63.157 49.6798 63.7056 50.2752 64.3808 50.59C65.631 51.1728 67.17 50.7088 67.8563 49.5054C68.1834 48.9319 68.3144 48.2239 68.1524 47.578C68.004 46.986 67.5379 46.6442 67.0942 46.2729C66.4335 45.72 65.7913 45.1436 65.1844 44.5318C64.4878 43.8295 63.8122 43.0772 63.3143 42.2176C62.9684 41.6204 62.6147 40.8011 62.9547 40.1497C63.2226 39.6363 63.9317 39.2666 63.7074 38.586C63.5993 38.2578 63.2082 38.1676 63.158 37.8169C63.1312 37.6302 63.1432 37.4331 63.1396 37.245C63.1352 37.0171 63.1308 36.7892 63.1265 36.5613C63.1186 36.1511 63.1107 35.7409 63.1028 35.3307C63.0972 35.0413 62.6468 35.0403 62.6524 35.3307Z" fill="black"/>
<path d="M73.5761 12.3823C74.3871 11.3064 75.1784 10.074 76.4541 9.64045C77.6089 9.24795 78.8974 9.62637 79.9471 10.2475C81.7926 11.3394 83.1244 13.1179 84.2452 14.9459C87.1343 19.6584 88.9678 25.202 88.3729 30.6974C88.1939 32.3513 87.6181 34.209 86.0903 34.8674C85.5155 35.115 84.8754 35.1551 84.2499 35.1767C81.0249 35.2878 77.788 34.996 74.5733 35.276C69.6243 35.707 64.9028 37.474 60.2571 39.2332C58.8352 39.7716 57.4001 40.3145 55.8962 40.5382C53.6277 40.8756 51.331 40.5273 49.7611 38.7678C48.3911 37.2323 47.7072 35.0416 48.165 33.0128C48.5724 31.2074 49.7485 29.6493 51.1616 28.454C52.9193 26.9673 55.0556 25.8464 56.9597 24.583C58.9167 23.2846 60.9547 22.1151 62.9694 20.91C66.8692 18.5772 70.8031 16.0611 73.5761 12.3823Z" fill="#3E50F7"/>
<path d="M36.9395 47.0091C40.8749 49.7707 45.0051 52.2549 49.2891 54.437C49.454 54.521 49.647 54.6059 49.8167 54.5321C49.9313 54.4822 50.005 54.3709 50.0723 54.2655C51.2382 52.4416 52.489 50.6719 53.8191 48.964C54.8773 47.6052 56.2628 45.9299 56.5639 44.1976C56.6828 43.5136 56.6686 42.7805 57.0141 42.1783C57.3595 41.5761 58.2748 41.2283 58.7483 41.736C59.0978 42.1107 59.0845 42.8081 59.5602 42.9985C59.8577 43.1175 60.195 42.9557 60.4382 42.7471C60.8856 42.3631 62.1689 39.5726 62.9137 40.5252C63.0768 40.7337 63.1066 41.0136 63.1303 41.2773C63.4482 40.9688 63.9753 40.9033 64.359 41.1246C64.7428 41.3459 64.9501 41.8349 64.8424 42.2645C65.1911 42.0552 65.6702 42.0912 65.9837 42.3502C66.2972 42.6092 66.4228 43.0729 66.283 43.4548C66.7636 43.3929 67.1229 43.923 67.173 44.4049C67.3568 46.1756 65.8006 48.0194 64.4634 49.011C63.9952 49.3582 63.4821 49.6559 63.0883 50.0856C62.7055 50.5033 62.4564 51.0229 62.2066 51.5314C60.6199 54.7613 58.6751 58.4552 55.717 60.625C52.8478 62.7297 49.146 63.5072 45.5971 63.2473C42.0482 62.9874 38.6305 61.7555 35.4512 60.1573C33.0553 58.9529 30.7419 57.515 28.875 55.5901" fill="white"/>
<path d="M36.8331 47.2021C39.323 48.948 41.8892 50.5845 44.524 52.1031C45.8361 52.8593 47.1649 53.5865 48.5093 54.2838C48.8156 54.4427 49.1349 54.6563 49.4685 54.7512C49.8052 54.847 50.0588 54.6972 50.2447 54.423C50.6709 53.7942 51.0728 53.149 51.5023 52.522C52.3641 51.264 53.2691 50.037 54.2087 48.8362C55.0418 47.7715 55.8978 46.6888 56.4279 45.4339C56.6915 44.8099 56.8062 44.1821 56.8878 43.5134C56.9601 42.9206 57.0648 42.2236 57.6187 41.8847C57.8198 41.7617 58.0696 41.6784 58.3064 41.7287C58.5442 41.7792 58.6732 41.9685 58.7684 42.1769C58.9716 42.6217 59.1059 43.1825 59.6807 43.2542C60.5629 43.3641 61.0172 42.3476 61.4152 41.7486C61.6337 41.4198 61.8596 41.0861 62.1438 40.8095C62.2363 40.7194 62.3589 40.6152 62.4666 40.5734C62.5538 40.5395 62.6111 40.5406 62.6698 40.5864C62.8601 40.7345 62.8906 41.0401 62.9123 41.2758C62.9302 41.4697 63.1455 41.5732 63.2967 41.435C63.5571 41.1971 63.9712 41.1408 64.2752 41.3315C64.5626 41.5118 64.7049 41.8748 64.6325 42.2032C64.5905 42.3937 64.7866 42.5563 64.9633 42.4575C65.6001 42.1014 66.2977 42.7163 66.0731 43.3934C66.0297 43.5241 66.1478 43.691 66.2902 43.6785C66.6225 43.6494 66.8329 43.9485 66.9179 44.2379C67.0159 44.5715 66.9771 44.9607 66.9058 45.2959C66.7482 46.0374 66.3589 46.7178 65.8958 47.3105C65.4279 47.9093 64.8688 48.4474 64.2523 48.8915C63.9211 49.1301 63.5767 49.351 63.2638 49.6141C62.9488 49.879 62.6904 50.1957 62.4769 50.5468C62.0627 51.2279 61.7477 51.9756 61.3859 52.6855C61.0351 53.3739 60.6727 54.0566 60.2891 54.7272C59.5061 56.0959 58.6348 57.4254 57.5837 58.6049C56.5275 59.7901 55.2926 60.7726 53.8764 61.4949C52.415 62.2402 50.8124 62.703 49.1889 62.9213C45.7197 63.3876 42.2138 62.6976 38.969 61.4674C37.3138 60.8398 35.7055 60.0758 34.159 59.2152C32.6666 58.3848 31.2304 57.4384 29.9525 56.3011C29.6384 56.0216 29.3348 55.7306 29.0415 55.4294C28.8389 55.2214 28.5206 55.54 28.723 55.7478C31.2178 58.3099 34.4766 60.0837 37.7455 61.4596C41.0842 62.8649 44.7171 63.7613 48.3593 63.4605C51.7164 63.1832 54.974 61.9133 57.3659 59.4951C59.6658 57.17 61.1154 54.2071 62.5681 51.3205C62.7643 50.9307 62.9766 50.5404 63.2769 50.2197C63.5751 49.9014 63.9384 49.6597 64.294 49.4115C64.9393 48.961 65.5316 48.4445 66.0403 47.8424C66.55 47.2388 66.9889 46.5597 67.2351 45.8044C67.4507 45.1431 67.5682 44.2727 67.1378 43.6703C66.9406 43.3942 66.6398 43.1975 66.2902 43.2281L66.5074 43.5132C66.6639 43.0413 66.5185 42.4881 66.1283 42.1726C65.7329 41.8529 65.1754 41.8229 64.736 42.0686L65.0668 42.3229C65.1828 41.7966 64.9687 41.2294 64.5025 40.9426C64.0205 40.6461 63.3868 40.7433 62.9783 41.1166L63.3627 41.2758C63.3224 40.8386 63.2125 40.2332 62.7028 40.1167C62.3765 40.0422 62.0729 40.2561 61.849 40.4683C61.2789 41.0084 60.9181 41.7331 60.4692 42.3676C60.399 42.4667 60.3469 42.543 60.2364 42.6268C60.017 42.7931 59.6916 42.9142 59.4876 42.663C59.3389 42.4798 59.2781 42.2273 59.1859 42.0142C59.0843 41.7793 58.946 41.5609 58.7264 41.4201C58.2748 41.1306 57.6725 41.2803 57.2677 41.5803C56.7417 41.97 56.5626 42.6044 56.4749 43.2254C56.3786 43.9074 56.3029 44.5581 56.0404 45.2019C55.7818 45.8361 55.419 46.4277 55.0323 46.9907C54.215 48.1807 53.2757 49.2857 52.4218 50.4495C51.9614 51.0771 51.5114 51.7123 51.0722 52.3549C50.8526 52.6762 50.6357 52.9993 50.4215 53.3242C50.3211 53.4765 50.2213 53.6292 50.1221 53.7823C50.0223 53.9363 49.9329 54.1244 49.8086 54.2597C49.6899 54.3889 49.5457 54.308 49.41 54.2412C49.2268 54.151 49.0461 54.0551 48.8646 53.9613C48.523 53.7847 48.1823 53.6061 47.8426 53.4257C47.1633 53.0648 46.4881 52.6962 45.8171 52.3201C43.1435 50.8214 40.5371 49.2029 38.0086 47.4707C37.6913 47.2533 37.3753 47.0341 37.0604 46.8133C36.8226 46.6465 36.5973 47.0368 36.8331 47.2021Z" fill="black"/>
<path d="M76.8739 13.0731C76.4005 16.0015 76.6028 19.0263 77.4776 21.8622C78.2765 24.4522 79.6374 26.853 81.4288 28.8854C82.4229 30.0132 83.55 31.0188 84.7781 31.8855C85.0154 32.0529 85.2407 31.6626 85.0054 31.4966C82.8919 30.0051 81.098 28.0701 79.7598 25.8571C78.3258 23.4857 77.4349 20.7985 77.1635 18.0404C77.0047 16.4273 77.0495 14.7933 77.3082 13.1929C77.3541 12.9093 76.9201 12.7873 76.8739 13.0731Z" fill="black"/>
<path d="M82.1311 29.3324C82.1461 29.348 85.7254 26.4688 85.9706 26.2829C86.9048 25.5745 87.8492 24.8703 88.8402 24.2426C89.1644 24.0373 89.8682 23.82 90.1081 23.5546C90.5856 23.0263 90.2598 21.9335 90.1 21.3123C89.7502 19.9526 89.2494 18.6318 88.6097 17.382C88.285 16.7477 87.8594 15.9082 87.0941 15.9181C86.6087 15.9243 85.9187 16.3165 85.4417 16.4516C84.1905 16.8062 82.9183 17.0873 81.644 17.345C80.0834 17.6607 78.5132 17.9429 76.9375 18.1737C77.1316 20.0146 77.5919 21.8274 78.3093 23.5339C79.2114 25.6802 80.5181 27.6538 82.1311 29.3324Z" fill="white"/>
<path d="M82.1304 29.5541C82.2588 29.5576 82.3901 29.4152 82.4808 29.3444C82.6711 29.196 82.86 29.0457 83.049 28.8956C83.596 28.4609 84.1415 28.0244 84.6872 27.588C85.1187 27.2429 85.5495 26.8968 85.9826 26.5537C86.0091 26.5327 86.0356 26.5118 86.0621 26.4909C86.0839 26.4737 86.1488 26.4246 86.0774 26.4786C86.3223 26.2931 86.5675 26.1078 86.8139 25.9242C87.3574 25.5196 87.907 25.1229 88.4709 24.7472C88.7086 24.5888 88.9442 24.4239 89.2027 24.3009C89.4202 24.1975 89.6442 24.1078 89.8578 23.9963C90.2833 23.7741 90.5177 23.4457 90.5702 22.9648C90.6225 22.4846 90.5074 21.9914 90.3892 21.5287C90.2396 20.9432 90.0754 20.3625 89.8785 19.791C89.6681 19.1805 89.4265 18.5805 89.157 17.9936C88.9301 17.4993 88.6971 16.9881 88.393 16.5351C88.1408 16.1595 87.7989 15.7959 87.3341 15.7115C86.8185 15.6177 86.3112 15.8725 85.8467 16.0614C85.2615 16.2995 84.6365 16.438 84.0239 16.5874C83.3587 16.7496 82.6898 16.8964 82.0193 17.0352C80.6532 17.3181 79.2813 17.5745 77.9038 17.7955C77.5619 17.8503 77.2196 17.9028 76.877 17.9531C76.7888 17.9661 76.7021 18.0816 76.7117 18.1702C77.0675 21.4911 78.2655 24.6842 80.2246 27.3931C80.758 28.1307 81.3416 28.8309 81.9712 29.4882C82.1721 29.6979 82.4903 29.3792 82.2897 29.1697C80.0904 26.8735 78.485 24.0445 77.6764 20.9673C77.4352 20.0493 77.2632 19.114 77.162 18.1702L76.9967 18.3874C79.6279 18.0006 82.2671 17.5211 84.8406 16.8454C85.1201 16.772 85.405 16.7052 85.6774 16.608C85.9308 16.5175 86.1757 16.4053 86.4273 16.3101C86.8413 16.1535 87.2589 16.0365 87.635 16.3404C87.9797 16.6188 88.1863 17.0473 88.3844 17.4334C88.6667 17.9835 88.9251 18.5454 89.1522 19.1206C89.3822 19.7032 89.5836 20.2972 89.7551 20.8996C89.8883 21.3676 90.0285 21.846 90.1001 22.3281C90.1533 22.6866 90.1964 23.2113 89.8719 23.4631C89.5339 23.7254 89.0886 23.8225 88.7259 24.0447C87.3319 24.8985 86.0453 25.9289 84.77 26.9487C84.236 27.3756 83.7022 27.8029 83.1676 28.2291C82.9425 28.4086 82.7174 28.5879 82.4917 28.7666C82.4057 28.8346 82.3198 28.9026 82.2336 28.9702C82.2013 28.9955 82.1689 29.0207 82.1366 29.046C82.1281 29.0526 82.0846 29.0862 82.1133 29.0641C82.1428 29.0414 82.0999 29.0745 82.0923 29.0802C82.0771 29.0916 82.0563 29.1031 82.0434 29.117C82.0042 29.1591 81.9526 29.099 82.1304 29.1038C81.8405 29.0961 81.8407 29.5464 82.1304 29.5541Z" fill="black"/>
<path d="M88.4552 23.3664C88.8138 23.6138 89.3987 23.9591 89.8391 23.7584C90.0529 23.661 90.2202 23.4881 90.3544 23.3009C90.727 22.7814 90.8747 22.1407 90.916 21.5112C91.0214 19.9037 90.4575 18.2646 89.3753 17.0337C89.0067 16.6144 88.5667 16.233 88.0307 16.0425C87.7815 15.9539 87.5094 15.9087 87.2486 15.9574C86.9188 16.019 86.6296 16.2308 86.4503 16.5037C86.189 16.9015 86.109 17.504 86.1022 17.9673C86.0942 18.5213 86.1586 19.0755 86.2849 19.6158C86.5327 20.6764 87.0167 21.6851 87.6769 22.567C87.8996 22.8645 88.1453 23.1526 88.4552 23.3664Z" fill="black"/>
<path d="M82.7355 10.4877C82.2013 11.3667 81.8463 12.3063 81.3483 13.2103C81.0742 13.7079 80.8109 14.2113 80.5584 14.7202C80.3621 15.1159 79.9138 15.7323 79.875 16.171C80.1556 13.0014 80.8167 9.86558 81.8395 6.85239C81.8764 6.74375 81.9163 6.63104 81.9984 6.55085C82.5636 5.99835 83.496 7.39091 83.7914 7.7063C83.984 7.91188 85.7725 9.59215 85.7024 9.74669C86.8874 7.12941 88.1821 4.45926 90.3401 2.5625C90.2157 3.4767 89.9605 4.36732 89.7061 5.25418C89.2072 6.99326 88.7083 8.73234 88.2094 10.4714C87.9698 11.3066 87.7296 12.1437 87.3993 12.9473C87.348 13.0719 87.2689 13.2148 87.1344 13.2226C87.0587 13.2269 86.9891 13.1848 86.9251 13.1442C85.5286 12.2587 84.132 11.3732 82.7355 10.4877Z" fill="white"/>
<path d="M82.5349 10.3751C82.233 10.8762 81.9811 11.4036 81.7306 11.9317C81.4806 12.4589 81.2118 12.9729 80.9361 13.4869C80.6798 13.9648 80.4528 14.46 80.1801 14.9286C79.9539 15.317 79.6961 15.7163 79.6437 16.1721H80.094C80.3359 13.4654 80.8558 10.7856 81.6426 8.1845C81.7425 7.85437 81.8466 7.52553 81.955 7.1981C82.0115 7.02742 82.0592 6.68667 82.266 6.6499C82.5182 6.60508 82.8552 6.97688 83.0247 7.15867C83.2391 7.38855 83.4196 7.64842 83.6354 7.87633C83.8001 8.0503 83.9778 8.21301 84.149 8.38046C84.448 8.67289 84.7463 8.96645 85.0347 9.26942C85.1514 9.392 85.2675 9.51573 85.3759 9.64578C85.4278 9.70813 85.4157 9.69163 85.4582 9.75305C85.5217 9.84489 85.4538 9.76911 85.4791 9.68783C85.405 9.92639 85.784 10.097 85.8907 9.86134C86.8033 7.8467 87.7636 5.80297 89.1803 4.08528C89.5823 3.59788 90.0197 3.14115 90.4932 2.72272L90.1168 2.50363C89.9729 3.53411 89.6731 4.53206 89.3868 5.52976C89.0926 6.55537 88.7984 7.58099 88.5042 8.60659C88.2149 9.61513 87.941 10.6298 87.6251 11.6305C87.5514 11.8641 87.4742 12.0966 87.3914 12.3272C87.3537 12.4319 87.315 12.5363 87.2749 12.6402C87.2406 12.729 87.2091 12.8918 87.1371 12.9597C87.0804 13.0131 87.1512 12.9841 87.0817 12.9807C87.0387 12.9786 86.9506 12.8987 86.9146 12.8759C86.8162 12.8135 86.7179 12.7512 86.6195 12.6888C86.3835 12.5392 86.1475 12.3895 85.9115 12.2398C84.8887 11.5913 83.8659 10.9428 82.8431 10.2943C82.5976 10.1386 82.3714 10.5282 82.6157 10.6831C83.5795 11.2943 84.5433 11.9054 85.5071 12.5165C85.7432 12.6661 85.9792 12.8158 86.2152 12.9655C86.4399 13.1079 86.6642 13.2836 86.9056 13.3956C87.4267 13.6376 87.6203 12.9988 87.7567 12.635C88.1447 11.5997 88.4228 10.5238 88.7274 9.46206C89.0344 8.39185 89.3415 7.32165 89.6485 6.25144C89.9915 5.05551 90.3786 3.859 90.5511 2.62333C90.5816 2.40518 90.355 2.24495 90.1747 2.40424C88.4829 3.89948 87.3082 5.86391 86.325 7.8727C86.0401 8.45482 85.7692 9.04367 85.5018 9.63401L85.9134 9.80751C85.9843 9.57953 85.6929 9.32078 85.561 9.17444C85.3004 8.88516 85.0236 8.61022 84.7468 8.33649C84.5123 8.1046 84.2744 7.87622 84.04 7.64431C83.8429 7.44936 83.6801 7.22408 83.4992 7.01455C83.2333 6.70665 82.916 6.35734 82.515 6.23332C82.3376 6.17849 82.1385 6.18791 81.976 6.28278C81.7086 6.43901 81.6333 6.74015 81.5418 7.01496C81.0779 8.40842 80.6912 9.82751 80.3834 11.2635C80.0365 12.8825 79.791 14.523 79.6437 16.1721C79.6176 16.4631 80.0615 16.455 80.094 16.1721C80.141 15.7635 80.4454 15.3764 80.6425 15.0285C80.9077 14.56 81.1335 14.0679 81.3897 13.5942C81.9224 12.6091 82.3456 11.5619 82.9239 10.6023C83.0738 10.3535 82.6845 10.1269 82.5349 10.3751Z" fill="black"/>
<path d="M92.5188 29.2435C91.5156 29.0164 90.5118 28.9784 89.4964 28.7936C88.9375 28.6919 88.3764 28.6022 87.8137 28.5246C87.376 28.4643 86.6491 28.2352 86.2207 28.3378C89.3154 27.5964 92.4989 27.2265 95.6811 27.2386C95.7959 27.239 95.9154 27.2411 96.0176 27.2934C96.7211 27.6536 95.697 28.9802 95.4918 29.3605C95.3581 29.6084 94.3333 31.8381 94.1645 31.8208C97.0228 32.1124 99.9662 32.4912 102.451 33.9344C101.544 34.107 100.619 34.1481 99.6968 34.1888C97.8892 34.2685 96.0817 34.3483 94.2741 34.428C93.406 34.4663 92.5359 34.5046 91.6689 34.4468C91.5345 34.4379 91.3738 34.4083 91.3237 34.2832C91.2956 34.2128 91.3134 34.1334 91.3315 34.0598C91.7273 32.4544 92.1231 30.849 92.5188 29.2435Z" fill="white"/>
<path d="M92.5714 29.025C91.9995 28.8979 91.4183 28.8257 90.8371 28.756C90.236 28.6838 89.6422 28.5875 89.0454 28.4868C88.5246 28.399 87.9975 28.3419 87.4804 28.2344C87.051 28.1452 86.5919 28.0264 86.1536 28.1193L86.2733 28.5536C88.9524 27.9142 91.6931 27.5511 94.4465 27.4766C94.7874 27.4674 95.1283 27.4626 95.4693 27.4621C95.6402 27.4619 95.9406 27.4115 96.0158 27.6065C96.1128 27.8581 95.8686 28.2741 95.7417 28.5021C95.5969 28.7623 95.4178 29.0035 95.279 29.2666C95.1636 29.4856 95.0621 29.7125 94.9542 29.9352C94.7768 30.3014 94.5979 30.6672 94.4076 31.0269C94.3285 31.1765 94.248 31.3259 94.1592 31.47C94.1284 31.5198 94.0975 31.5706 94.0615 31.6169C94.099 31.5686 94.0569 31.6286 94.0507 31.6269C94.0459 31.6256 94.0402 31.6419 94.035 31.6419C94.0663 31.6421 94.1137 31.5952 94.1572 31.5942C93.862 31.6008 93.8738 32.0156 94.1572 32.0446C96.349 32.2686 98.5707 32.5378 100.643 33.3265C101.226 33.5483 101.79 33.8157 102.33 34.1274L102.383 33.7158C101.358 33.9074 100.312 33.9347 99.2724 33.9806C98.2296 34.0266 97.1868 34.0726 96.1439 34.1186C95.1073 34.1643 94.0699 34.2257 93.0324 34.2456C92.781 34.2505 92.5295 34.2515 92.2781 34.2464C92.141 34.2436 92.004 34.239 91.8671 34.2322C91.7849 34.2281 91.605 34.2513 91.5388 34.1976C91.5081 34.1727 91.5185 34.1798 91.5414 34.1183C91.5613 34.065 91.5696 34.004 91.5832 33.9487C91.6139 33.8243 91.6445 33.7 91.6752 33.5756C91.7421 33.3043 91.809 33.0329 91.8759 32.7616C92.1602 31.6084 92.4445 30.4552 92.7287 29.302C92.7981 29.0206 92.3639 28.9005 92.2945 29.1822C92.0213 30.2902 91.7482 31.3982 91.475 32.5062C91.4081 32.7775 91.3413 33.0489 91.2744 33.3202C91.2103 33.5799 91.1198 33.8461 91.0859 34.1115C91.0117 34.6915 91.6745 34.6774 92.0726 34.6912C93.1971 34.7299 94.3256 34.6492 95.4487 34.5996C96.5611 34.5505 97.6734 34.5015 98.7858 34.4524C100.027 34.3977 101.279 34.3789 102.503 34.1501C102.699 34.1136 102.716 33.83 102.557 33.7385C100.581 32.5984 98.3325 32.1123 96.0933 31.8154C95.4493 31.7301 94.8034 31.6603 94.1572 31.5942V32.0446C94.4032 32.0391 94.5483 31.7036 94.6506 31.5223C94.839 31.1886 95.0092 30.8444 95.1782 30.5006C95.325 30.202 95.4675 29.9013 95.6139 29.6025C95.7318 29.3619 95.8863 29.1431 96.0238 28.9137C96.2336 28.5637 96.463 28.162 96.4783 27.7439C96.485 27.563 96.4341 27.3778 96.3109 27.2418C96.1168 27.0275 95.8432 27.0121 95.5716 27.0117C94.0828 27.0099 92.5938 27.0916 91.1141 27.256C89.4446 27.4414 87.7875 27.7293 86.1536 28.1193C85.8706 28.1868 85.991 28.6134 86.2733 28.5536C86.6635 28.4708 87.102 28.6176 87.4827 28.6937C88.004 28.7979 88.536 28.8537 89.0601 28.944C89.6179 29.04 90.1743 29.1267 90.7364 29.1942C91.3114 29.2632 91.8858 29.3334 92.4517 29.4592C92.7341 29.522 92.8547 29.0879 92.5714 29.025Z" fill="black"/>
<path d="M96.5993 12.1802C96.7263 12.0425 96.867 11.8972 97.0514 11.8646C97.2568 11.8283 97.4565 11.9419 97.629 12.059C98.3647 12.5585 98.9982 13.2075 99.4796 13.955C100.486 13.0951 101.675 12.4446 102.78 11.6971C104.036 10.8473 105.327 10.0462 106.676 9.35156C106.343 9.52275 105.999 10.1402 105.769 10.4338C104.688 11.8095 103.754 13.292 102.757 14.7277C102.261 15.4431 101.748 16.1482 101.194 16.8206C100.692 17.429 100.135 18.2022 99.4685 18.6292C98.7645 17.7299 98.0737 16.8202 97.3966 15.9005C95.1779 16.5837 92.9799 17.3343 90.8066 18.1508C91.776 17.1398 92.7652 16.1477 93.7734 15.1755C94.7632 14.221 95.6654 13.192 96.5993 12.1802Z" fill="white"/>
<path d="M96.7558 12.3388C96.8403 12.2479 96.9349 12.129 97.0593 12.0927C97.185 12.0561 97.3118 12.1274 97.416 12.1902C97.6678 12.3421 97.9022 12.5317 98.1225 12.7257C98.569 13.1189 98.9582 13.5696 99.2825 14.0681C99.3662 14.1969 99.5225 14.2102 99.6361 14.1137C100.462 13.4124 101.397 12.859 102.306 12.2753C103.243 11.6738 104.157 11.0419 105.115 10.4734C105.663 10.1481 106.22 9.83795 106.787 9.54542L106.559 9.15655C106.298 9.30194 106.113 9.55665 105.942 9.79457C105.752 10.0592 105.566 10.3233 105.368 10.582C104.87 11.2323 104.401 11.9042 103.941 12.5812C102.996 13.9699 102.081 15.3809 101.015 16.6816C100.509 17.2988 100.029 17.9909 99.3522 18.4342L99.6251 18.4694C98.9331 17.585 98.2544 16.6904 97.5884 15.7863C97.5299 15.7069 97.4361 15.6513 97.3341 15.6828C95.1154 16.3667 92.9177 17.1171 90.7441 17.9331L90.9632 18.3094C91.933 17.2986 92.9232 16.3082 93.9299 15.3341C94.9171 14.379 95.8252 13.348 96.7558 12.3388C96.952 12.126 96.6343 11.8067 96.4373 12.0203C95.5067 13.0295 94.5986 14.0605 93.6115 15.0157C92.6048 15.9897 91.6145 16.9801 90.6447 17.991C90.4995 18.1423 90.6426 18.4503 90.8638 18.3673C93.0374 17.5514 95.2351 16.8009 97.4538 16.1171L97.1995 16.0136C97.8883 16.9486 98.591 17.8732 99.3066 18.7878C99.3647 18.8621 99.5036 18.8727 99.5795 18.8231C100.192 18.4221 100.653 17.8447 101.106 17.2801C101.606 16.6589 102.1 16.0372 102.563 15.3887C103.537 14.0277 104.426 12.6082 105.418 11.2608C105.658 10.9346 105.916 10.6214 106.146 10.2877C106.323 10.0306 106.506 9.70186 106.787 9.54542C107.041 9.40376 106.816 9.024 106.559 9.15655C105.544 9.68119 104.559 10.264 103.599 10.8837C102.669 11.4832 101.741 12.0864 100.816 12.6932C100.298 13.0337 99.7911 13.3933 99.3177 13.7952L99.6713 13.8408C99.2727 13.228 98.7844 12.675 98.2143 12.2164C97.9539 12.007 97.6592 11.747 97.3293 11.6597C96.9613 11.5623 96.6766 11.7631 96.4373 12.0203C96.2401 12.2324 96.5579 12.5516 96.7558 12.3388Z" fill="black"/>
<path d="M54.8632 26.2131C53.9755 28.3722 54.2575 30.8077 54.9561 32.9774C55.1013 33.4283 55.2555 33.8807 55.4659 34.306C55.6504 34.6787 55.8692 35.0341 56.103 35.3776C56.6394 36.1655 57.2557 36.9026 57.92 37.5856C58.5775 38.2616 59.2959 38.9233 60.1152 39.3996C60.3663 39.5455 60.5933 39.1565 60.3425 39.0107C59.6564 38.6118 59.0527 38.0747 58.4895 37.5199C57.8344 36.8745 57.2247 36.1766 56.6875 35.4296C56.2025 34.7553 55.8043 34.0552 55.5293 33.2707C55.1586 32.2133 54.8812 31.1127 54.789 29.9938C54.6863 28.7478 54.8198 27.4946 55.2974 26.3328C55.344 26.2194 55.2469 26.0865 55.1401 26.0558C55.0114 26.0189 54.9092 26.1012 54.8632 26.2131Z" fill="black"/>
<path d="M33.8261 59.2917C33.8028 62.4157 33.8313 65.5401 33.9203 68.6629C34.0082 71.7453 34.1548 74.8259 34.36 77.9027C34.4776 79.6657 34.6145 81.4274 34.7689 83.1875C34.794 83.474 35.2446 83.4767 35.2193 83.1875C34.9462 80.0755 34.7291 76.9586 34.5734 73.8384C34.4197 70.7586 34.3258 67.6759 34.288 64.5925C34.2664 62.8256 34.2633 61.0586 34.2765 59.2917C34.2787 59.0019 33.8283 59.0016 33.8261 59.2917Z" fill="black"/>
<path d="M37.3618 61.0378C37.3398 63.907 37.4031 66.7765 37.5118 69.6435C37.6229 72.5743 37.783 75.5031 37.9715 78.4298C38.0737 80.0164 38.1847 81.6025 38.3015 83.188C38.3227 83.4753 38.7733 83.4776 38.7519 83.188C38.5409 80.3257 38.3495 77.4617 38.1931 74.5958C38.0335 71.6678 37.9092 68.7375 37.8477 65.8057C37.8144 64.2167 37.8 62.6272 37.8121 61.0378C37.8144 60.748 37.364 60.7477 37.3618 61.0378Z" fill="black"/>
<path d="M43.3092 65.149C44.1747 67.1925 45.0748 69.2212 45.984 71.2456C46.9273 73.3457 47.8819 75.4406 48.8306 77.5382C49.3371 78.6583 49.842 79.7792 50.3413 80.9026C50.4587 81.1669 50.8469 80.938 50.7301 80.6753C49.8287 78.6471 48.9099 76.6268 47.9935 74.6054C47.043 72.5088 46.0935 70.4116 45.1641 68.3054C44.6679 67.1808 44.1775 66.0536 43.6981 64.9217C43.6503 64.8088 43.486 64.7863 43.39 64.8409C43.2733 64.9073 43.2621 65.0377 43.3092 65.149Z" fill="black"/>
<path d="M48.1503 63.7605C49.1976 67.937 50.6581 72.0076 52.5028 75.8982C53.0221 76.9935 53.5725 78.0739 54.1518 79.1387C54.2904 79.3933 54.6794 79.1663 54.5407 78.9114C52.5012 75.1628 50.8319 71.2172 49.5657 67.1418C49.2061 65.9842 48.8794 64.8166 48.5846 63.6408C48.5141 63.3599 48.0797 63.4789 48.1503 63.7605Z" fill="black"/>
<path d="M46.1336 79.3011C48.7546 78.4609 51.2938 77.3639 53.6993 76.0258C54.3831 75.6455 55.0556 75.2453 55.717 74.8272C55.9614 74.6727 55.7356 74.2828 55.4897 74.4383C53.1868 75.8942 50.7428 77.1263 48.198 78.1003C47.4773 78.3762 46.7488 78.6313 46.0139 78.8669C45.7389 78.955 45.8565 79.39 46.1336 79.3011Z" fill="black"/>
<path d="M44.271 75.4643C46.8856 74.7403 49.4091 73.6847 51.7583 72.3272C52.4209 71.9444 53.069 71.537 53.7024 71.1077C53.941 70.9459 53.7159 70.5556 53.4751 70.7188C51.2521 72.2256 48.8417 73.4522 46.3103 74.3502C45.599 74.6025 44.8786 74.8286 44.1513 75.0301C43.8723 75.1073 43.9908 75.5419 44.271 75.4643Z" fill="black"/>
<path d="M42.7932 71.8413C43.9503 71.2005 45.223 70.8312 46.4713 70.4148C47.0956 70.2065 47.7156 69.9839 48.3163 69.714C48.9608 69.4244 49.5786 69.0801 50.1979 68.7411C50.9248 68.3432 51.6517 67.9453 52.3786 67.5474C52.633 67.4083 52.4059 67.0192 52.1513 67.1586C50.8959 67.8457 49.6551 68.5822 48.3628 69.1983C47.1621 69.7707 45.8737 70.1141 44.6234 70.5563C43.9175 70.806 43.2217 71.0893 42.5659 71.4524C42.3123 71.5929 42.5392 71.982 42.7932 71.8413Z" fill="black"/>
<path d="M48.485 65.4472C49.4734 65.0289 50.4617 64.6106 51.4501 64.1922C51.563 64.1445 51.5855 63.9801 51.5309 63.8841C51.4645 63.7675 51.3342 63.7562 51.2228 63.8034C50.2344 64.2217 49.246 64.64 48.2577 65.0583C48.1448 65.1061 48.1223 65.2705 48.1769 65.3664C48.2433 65.4831 48.3736 65.4943 48.485 65.4472Z" fill="black"/>
<path d="M41.7664 67.102C41.9238 66.9415 42.1326 66.8662 42.3407 66.7938C42.5811 66.7101 42.8187 66.6206 43.0532 66.5213C43.5365 66.3165 44.0018 66.074 44.4467 65.7955C44.6918 65.642 44.466 65.2522 44.2194 65.4066C43.7649 65.6911 43.2881 65.9429 42.7917 66.1463C42.3435 66.3299 41.7983 66.4264 41.448 66.7835C41.2449 66.9906 41.5631 67.3093 41.7664 67.102Z" fill="black"/>
<path d="M31.0981 79.7C33.7595 79.7868 36.4327 79.7729 39.073 79.3909C39.8176 79.2832 40.5572 79.1446 41.2896 78.9724C41.5716 78.9061 41.4522 78.4717 41.1698 78.5381C38.6018 79.142 35.9585 79.3047 33.3272 79.2939C32.584 79.2908 31.841 79.2739 31.0982 79.2497C30.8083 79.2402 30.8086 79.6906 31.0981 79.7Z" fill="black"/>
<path d="M31.196 75.5837C33.8701 75.609 36.5446 75.4452 39.1954 75.0914C39.9465 74.9911 40.6955 74.8764 41.4421 74.7468C41.7271 74.6973 41.6063 74.2632 41.3224 74.3125C38.7188 74.7644 36.0845 75.0315 33.4431 75.1109C32.6943 75.1334 31.9451 75.1405 31.196 75.1334C30.9061 75.1306 30.9059 75.5809 31.196 75.5837Z" fill="black"/>
<path d="M30.9604 70.9826C33.6943 70.5405 36.4799 70.7867 39.2249 70.4663C39.9947 70.3765 40.7585 70.2441 41.5077 70.0445C41.7875 69.9699 41.6688 69.5353 41.388 69.6102C38.7046 70.3254 35.9068 70.1402 33.1614 70.3023C32.3843 70.3482 31.6093 70.4241 30.8407 70.5484C30.5553 70.5945 30.6764 71.0286 30.9604 70.9826Z" fill="black"/>
<path d="M30.9964 65.6794C33.7332 65.795 36.4753 65.9106 39.2137 65.7759C39.9866 65.7379 40.7584 65.6791 41.5279 65.5964C41.813 65.5657 41.8162 65.1151 41.5279 65.1461C38.8019 65.4392 36.056 65.4168 33.3196 65.3214C32.5451 65.2944 31.7708 65.2618 30.9964 65.2291C30.7066 65.2168 30.7072 65.6672 30.9964 65.6794Z" fill="black"/>
<path d="M31.0564 61.9873C33.5911 62.2837 36.1292 62.5804 38.6808 62.6815C39.3991 62.71 40.1179 62.7223 40.8368 62.7159C41.1265 62.7134 41.1272 62.263 40.8368 62.2656C38.2833 62.2882 35.7368 62.064 33.2011 61.7832C32.4859 61.7041 31.7711 61.6205 31.0564 61.5369C30.7691 61.5034 30.7715 61.954 31.0564 61.9873Z" fill="black"/>
<path d="M41.5137 68.4397C42.0578 69.7671 42.6019 71.0946 43.146 72.4221C43.1354 70.2844 43.3933 68.1455 43.9116 66.0715C43.9588 65.8827 44.0077 65.6806 43.9414 65.4977C43.8894 65.3543 43.774 65.2448 43.6624 65.1409C43.0385 64.5601 42.4147 63.9793 41.7909 63.3984C41.7319 65.1054 41.8305 66.7919 41.5339 68.474" fill="black"/>
<path d="M41.2989 68.5063C41.843 69.8338 42.3871 71.1613 42.9312 72.4888C43.0215 72.7091 43.3746 72.703 43.3736 72.4289C43.3687 71.0846 43.4645 69.7396 43.6713 68.411C43.7763 67.7369 43.9081 67.0669 44.0664 66.4033C44.1337 66.1215 44.2427 65.8208 44.1827 65.5282C44.1203 65.2243 43.8622 65.0241 43.647 64.8237C43.0822 64.2978 42.5173 63.7719 41.9525 63.2461C41.808 63.1116 41.5746 63.2078 41.5681 63.4053C41.5123 65.0774 41.6059 66.7649 41.3191 68.4209C41.27 68.7044 41.7039 68.8261 41.7534 68.5407C42.0475 66.8425 41.9613 65.1198 42.0184 63.4053L41.634 63.5645C42.1145 64.0119 42.5951 64.4593 43.0756 64.9066C43.1936 65.0165 43.3117 65.1264 43.4297 65.2363C43.528 65.3278 43.6514 65.4195 43.7133 65.5412C43.7759 65.6646 43.7474 65.8037 43.7177 65.9327C43.6805 66.0943 43.6384 66.2549 43.6008 66.4164C43.31 67.6651 43.1126 68.9362 43.0082 70.2139C42.948 70.9507 42.9205 71.6897 42.9232 72.4289L43.3655 72.3691C42.8214 71.0416 42.2773 69.7141 41.7332 68.3866C41.6867 68.2733 41.584 68.1957 41.4562 68.2294C41.3493 68.2575 41.2529 68.3939 41.2989 68.5063Z" fill="black"/>
<path d="M71.0967 80.5723C70.5616 80.1882 70.8484 79.262 71.3803 79.0255C72.2092 78.6571 73.0914 79.3749 73.3535 80.1286C73.5379 80.6589 73.5399 81.2368 73.4548 81.7867C73.4114 82.0666 73.8287 82.195 73.8891 81.9065C73.9979 81.3861 74.2005 80.8887 74.4967 80.4465C74.7637 80.0479 75.1349 79.6609 75.6031 79.511C76.69 79.1631 77.4576 80.2674 77.4844 81.2379C77.5062 82.0311 77.203 82.7885 76.9176 83.514C76.8191 83.7642 77.1943 83.8858 77.3292 83.6875C77.9932 82.7116 79.3369 82.349 80.4401 82.6879C81.6355 83.0552 82.2582 84.2551 82.157 85.458C82.1008 86.1256 81.8068 86.7614 81.3055 87.2093C81.0889 87.4028 81.4084 87.7204 81.624 87.5277C82.6744 86.5894 82.8872 84.9517 82.2816 83.7112C81.6524 82.4222 80.1637 81.8917 78.8099 82.2055C78.0549 82.3805 77.3777 82.8174 76.9403 83.4602L77.3519 83.6337C77.6415 82.8977 77.9326 82.137 77.936 81.3345C77.9387 80.7068 77.7322 80.0697 77.3106 79.5978C76.9152 79.1552 76.3232 78.9288 75.7347 79.019C75.1774 79.1044 74.6982 79.4685 74.3485 79.8956C73.9034 80.4393 73.5985 81.0998 73.4548 81.7867L73.8891 81.9065C74.0686 80.7469 73.8887 79.3662 72.7613 78.7409C72.2957 78.4826 71.7255 78.3964 71.2251 78.6056C70.8041 78.7815 70.5074 79.1761 70.4087 79.6176C70.295 80.1268 70.4363 80.6502 70.8695 80.9612C71.1053 81.1305 71.3304 80.74 71.0967 80.5723Z" fill="black"/>
<path d="M70.2822 86.8415C70.3121 86.8035 70.3439 86.7674 70.3791 86.734C70.395 86.7189 70.4115 86.7043 70.4284 86.6903C70.4405 86.6805 70.4397 86.681 70.426 86.6919C70.4347 86.6854 70.4437 86.6791 70.4527 86.673C70.4925 86.6473 70.5323 86.6226 70.5749 86.6015C70.5822 86.5979 70.6388 86.5732 70.6008 86.5887C70.6211 86.5805 70.6417 86.5731 70.6625 86.5662C70.7042 86.5524 70.7468 86.541 70.7898 86.5319C70.8114 86.5273 70.8332 86.5233 70.855 86.5199C70.8109 86.5267 70.8808 86.5177 70.8833 86.5174C70.966 86.5104 71.086 86.5133 71.1429 86.5209C71.199 86.5285 71.317 86.5577 71.3943 86.586C71.4017 86.5887 71.4593 86.6129 71.4227 86.5967C71.443 86.6056 71.4629 86.6153 71.4825 86.6254C71.5216 86.6455 71.5597 86.6677 71.5963 86.6921C71.7215 86.7753 71.8193 86.8914 71.8904 87.0591C71.9379 87.1711 72.1031 87.1957 72.1985 87.1399C72.3145 87.0721 72.327 86.9442 72.2793 86.8318C71.9123 85.9662 70.545 85.7859 69.9637 86.5231C69.8885 86.6185 69.8706 86.7484 69.9637 86.8415C70.0419 86.9197 70.2064 86.9375 70.2822 86.8415Z" fill="black"/>
<path d="M22.1327 88.7948C21.4831 88.6093 21.74 87.6739 22.0873 87.3252C22.4088 87.0025 22.9261 86.9916 23.3456 87.0837C23.9127 87.2081 24.4238 87.5023 24.9168 87.7979C25.151 87.9383 25.3406 87.6332 25.1897 87.4442C24.7594 86.9052 24.5997 85.8316 25.2838 85.408C25.7302 85.1316 26.6191 85.2892 26.6826 85.9076C26.7072 86.1474 27.0534 86.2285 27.1249 85.9674C27.2969 85.3394 27.9436 84.8764 28.599 84.9522C29.2518 85.0277 29.7758 85.64 29.7917 86.2868C29.7989 86.5761 30.2493 86.5772 30.2421 86.2868C30.2206 85.4116 29.5348 84.62 28.659 84.5091C27.7859 84.3985 26.9208 85.0074 26.6906 85.8477L27.1329 85.9076C27.0588 85.186 26.3442 84.7648 25.6566 84.8296C24.8311 84.9073 24.3437 85.6565 24.3726 86.4498C24.3902 86.9334 24.5709 87.3864 24.8712 87.7626L25.1441 87.409C24.2874 86.8954 23.1473 86.2733 22.1382 86.7433C21.5215 87.0306 21.1864 87.8135 21.314 88.4656C21.3869 88.8378 21.6489 89.1251 22.013 89.229C22.2922 89.3087 22.4114 88.8743 22.1327 88.7948Z" fill="black"/>
<path d="M78.5452 1.13305C78.3218 2.02278 78.0984 2.91252 77.8749 3.80225C77.8043 4.0834 78.2385 4.20335 78.3092 3.92197C78.5327 3.03224 78.7561 2.1425 78.9795 1.25277C79.0501 0.971614 78.6159 0.851668 78.5452 1.13305Z" fill="black"/>
<path d="M88.8876 38.7492C89.5547 39.3059 90.2219 39.8626 90.889 40.4193C90.9823 40.4971 91.116 40.5107 91.2075 40.4193C91.2876 40.3392 91.3013 40.1791 91.2075 40.1008C90.5403 39.5441 89.8732 38.9875 89.206 38.4308C89.1127 38.3529 88.979 38.3393 88.8876 38.4308C88.8075 38.5109 88.7938 38.6709 88.8876 38.7492Z" fill="black"/>
<path d="M95.6987 22.7686C96.3876 22.9771 97.1351 22.9716 97.8204 22.7509C98.0952 22.6624 97.9777 22.2275 97.7007 22.3167C97.087 22.5143 96.4356 22.5211 95.8184 22.3344C95.5404 22.2502 95.4216 22.6848 95.6987 22.7686Z" fill="black"/>
<path d="M93.5484 6.07367C93.3259 6.51866 93.1034 6.96365 92.8809 7.40862C92.8283 7.51384 92.8494 7.65737 92.9617 7.7167C93.0638 7.77063 93.2136 7.7484 93.2698 7.63591C93.4923 7.19093 93.7148 6.74594 93.9373 6.30097C93.9899 6.19574 93.9688 6.05221 93.8565 5.99289C93.7545 5.93896 93.6047 5.96119 93.5484 6.07367Z" fill="black"/>
<path d="M44.941 35.6479C43.6373 35.2361 42.3671 33.9015 40.897 34.5064C39.6995 34.9991 39.5855 36.4779 39.7124 37.5917C39.8916 39.1646 40.2919 40.7177 40.9129 42.1745C41.4572 43.4512 42.3395 44.7305 43.7777 45.0546C44.5075 45.2191 45.2606 45.0833 45.8367 44.5935C46.3725 44.1379 46.668 43.431 46.523 42.7337C46.4639 42.4502 46.0297 42.5702 46.0887 42.8535C46.1998 43.3877 45.9346 43.9119 45.5374 44.2588C45.1035 44.6377 44.5074 44.7451 43.9518 44.632C42.6618 44.3696 41.874 43.2389 41.3719 42.1086C40.7979 40.8161 40.4241 39.4192 40.2192 38.0219C40.1366 37.4593 40.0735 36.8778 40.1573 36.3111C40.2272 35.8383 40.407 35.3369 40.818 35.0561C41.405 34.6552 42.1837 34.8162 42.7884 35.0913C43.4766 35.4043 44.0947 35.8527 44.8213 36.0821C45.0983 36.1696 45.2168 35.735 44.941 35.6479Z" fill="black"/>
<path d="M40.2031 39.0977C41.6913 39.6682 43.3684 39.7624 44.9143 39.3623C45.0996 39.3143 45.3292 39.271 45.4565 39.4104C45.5033 39.4615 45.5257 39.5289 45.5469 39.5941C45.6706 39.9739 45.7942 40.3538 45.9178 40.7336C46.1393 41.4141 46.3632 42.1106 46.3404 42.8239C46.3176 43.5373 46.0009 44.2832 45.3662 44.6427C44.7895 44.9693 44.0419 44.9185 43.4448 44.6285C42.8477 44.3385 42.3839 43.8387 42.0154 43.2979C41.2431 42.1646 40.8415 40.8365 40.4712 39.5259" fill="black"/>
<path d="M40.1522 39.3131C41.3205 39.7554 42.5961 39.9192 43.8383 39.7837C44.1405 39.7507 44.4412 39.703 44.7379 39.6368C44.8674 39.6079 44.9966 39.5637 45.1281 39.5454C45.2879 39.5231 45.3111 39.5686 45.3593 39.7156C45.564 40.3394 45.7858 40.9621 45.9554 41.5966C46.1095 42.1737 46.202 42.7863 46.0401 43.372C45.9045 43.8626 45.5944 44.3207 45.1113 44.5213C43.9966 44.984 42.8959 44.1395 42.2829 43.2748C41.4773 42.1385 41.072 40.7893 40.6973 39.4643C40.6185 39.1859 40.1838 39.3042 40.263 39.584C40.6295 40.8798 41.0279 42.199 41.7778 43.3323C42.4581 44.3603 43.5338 45.2741 44.8506 45.0585C46.1387 44.8477 46.6845 43.499 46.553 42.3235C46.471 41.591 46.2162 40.8942 45.9894 40.1973C45.9379 40.039 45.8863 39.8807 45.8348 39.7225C45.7826 39.5621 45.7438 39.3762 45.6247 39.2495C45.4256 39.0376 45.1164 39.0815 44.8633 39.1435C43.3356 39.5175 41.7457 39.4368 40.2719 38.8789C40.0006 38.7761 39.8833 39.2113 40.1522 39.3131Z" fill="black"/>
<path d="M36.4144 30.1422C37.6175 30.3749 38.7992 30.7044 39.9492 31.1278L39.8955 30.7162C39.2401 31.0759 38.5847 31.4357 37.9293 31.7954C37.6752 31.9349 37.9022 32.324 38.1566 32.1843C38.812 31.8246 39.4674 31.4648 40.1228 31.1051C40.305 31.0051 40.2411 30.7569 40.069 30.6935C38.919 30.2701 37.7373 29.9406 36.5341 29.7079C36.2509 29.6531 36.1296 30.0871 36.4144 30.1422Z" fill="black"/>
<path d="M45.6377 29.0729C44.6688 29.3599 43.7741 29.8425 42.9971 30.4877C42.8934 30.5737 42.9161 30.7858 43.0426 30.8413C43.7781 31.164 44.5137 31.4867 45.2492 31.8094C45.3605 31.8582 45.4909 31.842 45.5573 31.7286C45.6132 31.633 45.5884 31.4696 45.4765 31.4205C44.741 31.0978 44.0055 30.7751 43.2699 30.4525L43.3155 30.8061C44.0311 30.2121 44.8663 29.7711 45.7575 29.5071C46.0347 29.425 45.9167 28.9903 45.6377 29.0729Z" fill="black"/>
<path d="M41.4288 29.9929C41.6396 31.0573 41.8504 32.1217 42.0611 33.1861C42.1174 33.4701 42.5515 33.3499 42.4954 33.0664C42.2846 32.002 42.0739 30.9376 41.8631 29.8732C41.8069 29.5891 41.3727 29.7094 41.4288 29.9929Z" fill="black"/>
<path d="M48.2145 23.3658L47.4639 1.82422L33.277 19.5379L16.5918 5.42478C17.5385 12.4397 18.5338 18.012 20.0612 24.9206C21.8526 24.8195 23.6439 24.7184 25.4352 24.6172C25.5276 23.6244 25.7211 22.641 26.0119 21.6872C27.3844 22.3265 27.7588 24.328 29.1844 24.8378C29.5762 24.9779 30.0015 24.9827 30.4176 24.9859C31.9984 24.9983 33.5793 25.0107 35.1601 25.0231C35.1739 24.1545 35.1877 23.2859 35.2015 22.4173C35.7254 22.8646 35.9906 23.5464 36.4679 24.0432C37.6338 25.2569 39.5892 25.0223 41.2613 24.831C43.4221 24.5839 45.6087 24.5638 47.7737 24.7713C47.9547 24.3089 48.1161 23.8419 48.2634 23.3717L48.2145 23.3658Z" fill="black"/>
<path d="M48.4447 23.365C48.4197 22.6479 48.3948 21.9309 48.3698 21.2138C48.3102 19.5041 48.2506 17.7943 48.191 16.0845C48.1186 14.0053 48.0461 11.926 47.9737 9.84679C47.9114 8.0588 47.8491 6.2708 47.7868 4.48282C47.7563 3.60939 47.7468 2.73226 47.6954 1.85974C47.6946 1.84765 47.6945 1.83548 47.6941 1.82338C47.688 1.64714 47.4395 1.5021 47.3097 1.66415C46.8378 2.25329 46.366 2.84243 45.8942 3.43155C44.7616 4.84564 43.629 6.25974 42.4965 7.67383C41.1312 9.37852 39.7659 11.0832 38.4006 12.7879C37.2213 14.2603 36.0421 15.7327 34.8628 17.2052C34.4761 17.688 34.0894 18.1709 33.7027 18.6537C33.5217 18.8797 33.3003 19.1025 33.1464 19.3483C33.1398 19.3588 33.1305 19.3682 33.1228 19.3778H33.4412C32.8861 18.9082 32.3309 18.4386 31.7758 17.9691C30.4476 16.8456 29.1194 15.7222 27.7912 14.5987C26.181 13.2368 24.5708 11.8748 22.9606 10.5129C21.5738 9.33985 20.187 8.16682 18.8003 6.99381C18.1282 6.42532 17.4621 5.84855 16.7834 5.28789C16.7742 5.28027 16.7652 5.27244 16.756 5.26472C16.574 5.11072 16.3497 5.26184 16.3797 5.4838C16.7285 8.06628 17.1099 10.6444 17.5409 13.2145C17.9544 15.6799 18.414 18.1375 18.9136 20.5869C19.2128 22.0538 19.5261 23.5178 19.8491 24.9797C19.8693 25.0711 19.972 25.1503 20.0662 25.145C21.8576 25.0438 23.6489 24.9427 25.4402 24.8416C25.5707 24.8342 25.6533 24.7438 25.6654 24.6164C25.7582 23.6427 25.9509 22.6824 26.234 21.7462L25.9033 21.8808C26.9197 22.3671 27.3477 23.5314 28.0751 24.3242C28.4895 24.7759 29.0005 25.0812 29.613 25.1658C30.0192 25.2219 30.432 25.2104 30.841 25.2136C31.2827 25.217 31.7244 25.2205 32.1661 25.2239C33.1658 25.2317 34.1655 25.2396 35.1651 25.2474C35.2883 25.2484 35.3884 25.1434 35.3903 25.0222C35.4041 24.1536 35.4179 23.285 35.4317 22.4165L35.0473 22.5757C35.3729 22.8613 35.594 23.2263 35.8335 23.582C36.0667 23.9285 36.3221 24.2497 36.6568 24.5034C37.2604 24.9609 38.0126 25.1424 38.7566 25.1941C39.5433 25.2487 40.3327 25.1618 41.1136 25.0728C42.1536 24.9544 43.1966 24.8776 44.2433 24.8588C45.4234 24.8376 46.6037 24.8844 47.7787 24.9956C47.8836 25.0056 47.962 24.9172 47.9958 24.8303C48.1753 24.3695 48.337 23.9024 48.4855 23.4307C48.5339 23.277 48.406 23.1623 48.2684 23.1457L48.2195 23.1398C48.0978 23.1251 47.9955 23.2538 47.9943 23.365C47.9929 23.4987 48.0993 23.5757 48.2195 23.5902L48.2684 23.596L48.0512 23.311C47.9028 23.7827 47.741 24.2498 47.5615 24.7106L47.7787 24.5453C45.7282 24.3511 43.6603 24.3561 41.6113 24.5675C40.817 24.6495 40.0242 24.763 39.2239 24.76C38.5029 24.7574 37.752 24.6622 37.1255 24.2801C36.3271 23.7932 36.0495 22.857 35.3657 22.2572C35.2211 22.1304 34.9845 22.2134 34.9813 22.4165C34.9675 23.285 34.9537 24.1536 34.9399 25.0222L35.1651 24.797C34.2933 24.7902 33.4215 24.7834 32.5497 24.7766C31.7063 24.77 30.8581 24.7892 30.0154 24.7516C29.6751 24.7364 29.3347 24.6845 29.0314 24.5215C28.7999 24.3971 28.6017 24.228 28.4226 24.0371C28.0527 23.6429 27.7734 23.1754 27.4587 22.7386C27.1007 22.2418 26.6934 21.7612 26.1306 21.4919C25.9983 21.4287 25.8445 21.4787 25.7998 21.6265C25.5049 22.6016 25.3117 23.6024 25.215 24.6164L25.4402 24.3913C23.6489 24.4924 21.8576 24.5935 20.0662 24.6947L20.2834 24.86C19.7212 22.3161 19.1898 19.7654 18.7073 17.2052C18.2442 14.7483 17.8267 12.2831 17.4506 9.81151C17.2253 8.33095 17.0144 6.84822 16.8139 5.36411L16.4376 5.58319C16.9927 6.05276 17.5479 6.52234 18.103 6.99191L22.0876 10.3622L26.9181 14.4481C28.3049 15.6211 29.6917 16.7942 31.0785 17.9672C31.7506 18.5357 32.4167 19.1124 33.0953 19.6731C33.1046 19.6807 33.1136 19.6885 33.1227 19.6963C33.2076 19.7681 33.3602 19.7974 33.4412 19.6963C33.913 19.1071 34.3849 18.518 34.8567 17.9289C35.9893 16.5148 37.1218 15.1007 38.2544 13.6866C39.6197 11.9819 40.985 10.2772 42.3503 8.57251C43.5295 7.10009 44.7088 5.62767 45.8881 4.15525C46.2748 3.6724 46.6615 3.18954 47.0482 2.70669C47.2298 2.48001 47.4482 2.25742 47.6045 2.01209C47.6112 2.00169 47.6204 1.99227 47.6281 1.98263L47.2437 1.8234C47.2687 2.54046 47.2937 3.2575 47.3187 3.97456C47.3782 5.68433 47.4378 7.39411 47.4974 9.10387C47.5698 11.1831 47.6423 13.2623 47.7148 15.3416C47.7771 17.1296 47.8394 18.9176 47.9017 20.7056C47.9321 21.579 47.9416 22.4561 47.9931 23.3286C47.9938 23.3407 47.9939 23.3529 47.9943 23.365C48.0044 23.654 48.4549 23.6553 48.4447 23.365Z" fill="black"/>
<path d="M19.7559 24.9375L19.766 24.9396C19.7738 24.9391 19.7815 24.9387 19.7892 24.9383L19.7559 24.9375Z" fill="black"/>
<path d="M19.7065 25.1534C19.7096 25.1541 19.7128 25.1547 19.7159 25.1553C19.7365 25.1595 19.7574 25.1645 19.7783 25.1633C19.7806 25.1632 19.7828 25.1631 19.785 25.163C19.7895 25.1627 19.7939 25.1625 19.7984 25.1622C19.8294 25.1634 19.8583 25.1569 19.8852 25.1428C19.9131 25.1337 19.9372 25.1182 19.9576 25.0962C19.9796 25.0759 19.9951 25.0517 20.0042 25.0238C20.0183 24.997 20.0247 24.968 20.0236 24.937L20.0155 24.8772C20.0048 24.839 19.9855 24.8059 19.9576 24.7778L19.912 24.7426C19.8769 24.7222 19.839 24.712 19.7984 24.7119L19.7704 24.7112L19.7663 24.7111C19.7353 24.7099 19.7064 24.7164 19.6796 24.7305C19.6517 24.7396 19.6275 24.7551 19.6071 24.7771C19.5851 24.7974 19.5696 24.8216 19.5605 24.8495C19.5464 24.8763 19.54 24.9053 19.5411 24.9363L19.5492 24.9961C19.5599 25.0343 19.5792 25.0674 19.6071 25.0955L19.6527 25.1307C19.6878 25.1511 19.7257 25.1613 19.7663 25.1615L19.7944 25.1621L19.7984 25.1622V24.7119C19.791 24.7123 19.7835 24.7127 19.7761 24.7131L19.836 24.7211L19.8262 24.7192C19.7963 24.7098 19.7663 24.7084 19.7364 24.7151C19.7064 24.7165 19.6785 24.7254 19.6527 24.7418C19.6264 24.756 19.6054 24.7753 19.5895 24.7998C19.5696 24.8216 19.5562 24.8471 19.5492 24.8764L19.5411 24.9363C19.5413 24.9769 19.5515 25.0148 19.5719 25.0499L19.6071 25.0955C19.6352 25.1234 19.6683 25.1427 19.7065 25.1534Z" fill="black"/>
<path d="M36.0436 27.9002C37.0153 27.1921 38.1785 26.7948 39.3816 26.7746C39.6711 26.7697 39.672 26.3194 39.3816 26.3243C38.1047 26.3457 36.8492 26.7587 35.8163 27.5114C35.5844 27.6804 35.8089 28.0713 36.0436 27.9002Z" fill="black"/>
<path d="M45.7091 26.7482C44.7158 25.9493 43.4145 26.0747 42.2622 26.4011C41.9838 26.48 42.1021 26.9146 42.382 26.8353C43.3537 26.5601 44.5377 26.3806 45.3906 27.0666C45.4861 27.1434 45.6155 27.1582 45.7091 27.0666C45.7888 26.9886 45.8036 26.8242 45.7091 26.7482Z" fill="black"/>
</svg>
