<svg width="96" height="96" viewBox="0 0 96 96" fill="none" xmlns="http://www.w3.org/2000/svg">
<circle cx="48" cy="52" r="29" fill="#95BEF9"/>
<path opacity="0.4" d="M81.4443 50.9183C79.9643 50.9183 78.7243 49.7983 78.5643 48.3183C77.6043 39.5183 72.8843 31.5983 65.6043 26.5583C64.2843 25.6383 63.9643 23.8383 64.8843 22.5183C65.8043 21.1983 67.6043 20.8783 68.9243 21.7983C77.6043 27.8383 83.2043 37.2783 84.3643 47.7183C84.5243 49.3183 83.3643 50.7583 81.7643 50.9183C81.6443 50.9183 81.5643 50.9183 81.4443 50.9183Z" fill="#0062F1"/>
<path opacity="0.4" d="M14.9572 51.1169C14.8772 51.1169 14.7572 51.1169 14.6772 51.1169C13.0772 50.9569 11.9172 49.5169 12.0772 47.9169C13.1572 37.4769 18.6772 28.0369 27.2772 21.9569C28.5572 21.0369 30.3972 21.3569 31.3172 22.6369C32.2372 23.9569 31.9172 25.7569 30.6372 26.6769C23.4372 31.7969 18.7572 39.7169 17.8772 48.4769C17.7172 49.9969 16.4372 51.1169 14.9572 51.1169Z" fill="#0062F1"/>
<path opacity="0.4" d="M63.9545 84.4013C59.0345 86.7613 53.7545 87.9613 48.2345 87.9613C42.4745 87.9613 36.9945 86.6813 31.8745 84.0813C30.4345 83.4013 29.8745 81.6413 30.5945 80.2013C31.2745 78.7613 33.0345 78.2013 34.4745 78.8813C36.9945 80.1613 39.6745 81.0413 42.3945 81.5613C46.0745 82.2813 49.8345 82.3213 53.5145 81.6813C56.2345 81.2013 58.9145 80.3613 61.3945 79.1613C62.8745 78.4813 64.6345 79.0413 65.2745 80.5213C65.9945 81.9613 65.4345 83.7213 63.9545 84.4013Z" fill="#0062F1"/>
<path d="M48.2019 8.03906C42.0019 8.03906 36.9219 13.0791 36.9219 19.3191C36.9219 25.5591 41.9619 30.5991 48.2019 30.5991C54.4419 30.5991 59.4819 25.5591 59.4819 19.3191C59.4819 13.0791 54.4419 8.03906 48.2019 8.03906Z" fill="#0062F1"/>
<path d="M20.2019 55.4766C14.0019 55.4766 8.92188 60.5166 8.92188 66.7566C8.92188 72.9966 13.9619 78.0366 20.2019 78.0366C26.4419 78.0366 31.4819 72.9966 31.4819 66.7566C31.4819 60.5166 26.4019 55.4766 20.2019 55.4766Z" fill="#0062F1"/>
<path d="M75.7956 55.4766C69.5956 55.4766 64.5156 60.5166 64.5156 66.7566C64.5156 72.9966 69.5556 78.0366 75.7956 78.0366C82.0356 78.0366 87.0756 72.9966 87.0756 66.7566C87.0756 60.5166 82.0356 55.4766 75.7956 55.4766Z" fill="#0062F1"/>
</svg>
