<svg width="116" height="64" viewBox="0 0 116 64" fill="none" xmlns="http://www.w3.org/2000/svg">
<rect x="0.5" width="64" height="64" rx="16" fill="#3E50F7"/>
<path d="M32.3299 35.9868C29.2146 33.5017 21.9884 30.8092 18.0058 39.9209C17.7672 33.3217 24.9665 14.516 28.6043 11.0856C29.382 10.2602 31.2887 9.11022 32.6944 11.1137C32.8351 11.3142 33.0334 11.5777 33.2802 11.9055C34.1509 13.0624 35.6248 15.0207 37.2972 17.8402C36.498 18.1887 35.7903 18.8038 35.3604 19.509C35.6486 19.3772 35.9333 19.2366 36.2174 19.0962C36.691 18.8622 37.1631 18.629 37.6474 18.4386C37.8701 18.8241 38.0957 19.2244 38.3233 19.6397C37.3504 20.1941 36.5032 20.9756 35.9669 21.8103C36.2948 21.6452 36.6213 21.4739 36.948 21.3025C37.5399 20.992 38.1329 20.681 38.736 20.4056C38.9537 20.8164 39.1727 21.2407 39.3923 21.6788C38.2916 22.4191 37.3307 23.3449 36.629 24.3348C36.9281 24.1691 37.2277 24.0007 37.5282 23.8319C38.2887 23.4044 39.0548 22.9737 39.8335 22.5766C42.9648 29.0744 46.1008 38.3606 47 50.7683C38.0203 54.9375 35.8814 55.6055 29.7501 49.583C34.6971 49.8633 42.8797 45.4838 36.0343 25.7227C29.8022 7.73164 26.2096 19.3645 23.3895 28.4962C23.112 29.3946 22.8421 30.2688 22.5778 31.0882C24.8494 30.5133 29.9801 30.6883 32.3299 35.9868Z" fill="white"/>
<rect x="52.5" y="1" width="62" height="62" rx="15" fill="#0F9D58"/>
<rect x="52.5" y="1" width="62" height="62" rx="15" stroke="white" stroke-width="2"/>
<mask id="mask0_8658_213037" style="mask-type:alpha" maskUnits="userSpaceOnUse" x="68" y="9" width="33" height="46">
<path d="M88.3632 9.65674H71.0989C69.4232 9.65674 68.0522 11.0277 68.0522 12.7034V51.2942C68.0522 52.9698 69.4232 54.3408 71.0989 54.3408H97.5031C99.1788 54.3408 100.55 52.9698 100.55 51.2942V21.8433L88.3632 9.65674Z" fill="white"/>
</mask>
<g mask="url(#mask0_8658_213037)">
<path d="M88.3632 9.65674H71.0989C69.4232 9.65674 68.0522 11.0277 68.0522 12.7034V51.2942C68.0522 52.9698 69.4232 54.3408 71.0989 54.3408H97.5031C99.1788 54.3408 100.55 52.9698 100.55 51.2942V21.8433L93.4409 16.7656L88.3632 9.65674Z" fill="white"/>
</g>
<mask id="mask1_8658_213037" style="mask-type:alpha" maskUnits="userSpaceOnUse" x="68" y="9" width="33" height="46">
<path d="M88.3632 9.65674H71.0989C69.4232 9.65674 68.0522 11.0277 68.0522 12.7034V51.2942C68.0522 52.9698 69.4232 54.3408 71.0989 54.3408H97.5031C99.1788 54.3408 100.55 52.9698 100.55 51.2942V21.8433L88.3632 9.65674Z" fill="white"/>
</mask>
<g mask="url(#mask1_8658_213037)">
<path d="M76.1768 31.4919V46.2174H92.4255V31.4919H76.1768ZM83.2856 44.1863H78.2079V41.6474H83.2856V44.1863ZM83.2856 40.1241H78.2079V37.5852H83.2856V40.1241ZM83.2856 36.0619H78.2079V33.523H83.2856V36.0619ZM90.3944 44.1863H85.3167V41.6474H90.3944V44.1863ZM90.3944 40.1241H85.3167V37.5852H90.3944V40.1241ZM90.3944 36.0619H85.3167V33.523H90.3944V36.0619Z" fill="#F1F1F1"/>
</g>
<mask id="mask2_8658_213037" style="mask-type:alpha" maskUnits="userSpaceOnUse" x="68" y="9" width="33" height="46">
<path d="M88.3632 9.65674H71.0989C69.4232 9.65674 68.0522 11.0277 68.0522 12.7034V51.2942C68.0522 52.9698 69.4232 54.3408 71.0989 54.3408H97.5031C99.1788 54.3408 100.55 52.9698 100.55 51.2942V21.8433L88.3632 9.65674Z" fill="white"/>
</mask>
<g mask="url(#mask2_8658_213037)">
<path d="M89.2544 20.9525L100.55 32.2454V21.8437L89.2544 20.9525Z" fill="url(#paint0_linear_8658_213037)"/>
</g>
<mask id="mask3_8658_213037" style="mask-type:alpha" maskUnits="userSpaceOnUse" x="68" y="9" width="33" height="46">
<path d="M88.3632 9.65674H71.0989C69.4232 9.65674 68.0522 11.0277 68.0522 12.7034V51.2942C68.0522 52.9698 69.4232 54.3408 71.0989 54.3408H97.5031C99.1788 54.3408 100.55 52.9698 100.55 51.2942V21.8433L88.3632 9.65674Z" fill="white"/>
</mask>
<g mask="url(#mask3_8658_213037)">
<path d="M88.3633 9.65674V18.7967C88.3633 20.4799 89.7266 21.8433 91.4099 21.8433H100.55L88.3633 9.65674Z" fill="#49D793"/>
</g>
<mask id="mask4_8658_213037" style="mask-type:alpha" maskUnits="userSpaceOnUse" x="68" y="9" width="33" height="46">
<path d="M88.3632 9.65674H71.0989C69.4232 9.65674 68.0522 11.0277 68.0522 12.7034V51.2942C68.0522 52.9698 69.4232 54.3408 71.0989 54.3408H97.5031C99.1788 54.3408 100.55 52.9698 100.55 51.2942V21.8433L88.3632 9.65674Z" fill="white"/>
</mask>
<g mask="url(#mask4_8658_213037)">
<path d="M71.0989 9.65674C69.4232 9.65674 68.0522 11.0277 68.0522 12.7034V12.9573C68.0522 11.2816 69.4232 9.91063 71.0989 9.91063H88.3632V9.65674H71.0989Z" fill="white" fill-opacity="0.2"/>
</g>
<mask id="mask5_8658_213037" style="mask-type:alpha" maskUnits="userSpaceOnUse" x="68" y="9" width="33" height="46">
<path d="M88.3632 9.65674H71.0989C69.4232 9.65674 68.0522 11.0277 68.0522 12.7034V51.2942C68.0522 52.9698 69.4232 54.3408 71.0989 54.3408H97.5031C99.1788 54.3408 100.55 52.9698 100.55 51.2942V21.8433L88.3632 9.65674Z" fill="white"/>
</mask>
<g mask="url(#mask5_8658_213037)">
<path d="M97.5031 54.0879H71.0989C69.4232 54.0879 68.0522 52.7169 68.0522 51.0413V51.2951C68.0522 52.9708 69.4232 54.3418 71.0989 54.3418H97.5031C99.1788 54.3418 100.55 52.9708 100.55 51.2951V51.0413C100.55 52.7169 99.1788 54.0879 97.5031 54.0879Z" fill="#263238" fill-opacity="0.2"/>
</g>
<mask id="mask6_8658_213037" style="mask-type:alpha" maskUnits="userSpaceOnUse" x="68" y="9" width="33" height="46">
<path d="M88.3632 9.65674H71.0989C69.4232 9.65674 68.0522 11.0277 68.0522 12.7034V51.2942C68.0522 52.9698 69.4232 54.3408 71.0989 54.3408H97.5031C99.1788 54.3408 100.55 52.9698 100.55 51.2942V21.8433L88.3632 9.65674Z" fill="white"/>
</mask>
<g mask="url(#mask6_8658_213037)">
<path d="M91.4099 21.8436C89.7266 21.8436 88.3633 20.4802 88.3633 18.797V19.0509C88.3633 20.7341 89.7266 22.0975 91.4099 22.0975H100.55V21.8436H91.4099Z" fill="#263238" fill-opacity="0.1"/>
</g>
<path d="M88.3632 9.65771H71.0989C69.4232 9.65771 68.0522 11.0287 68.0522 12.7044V51.2951C68.0522 52.9708 69.4232 54.3418 71.0989 54.3418H97.5031C99.1788 54.3418 100.55 52.9708 100.55 51.2951V21.8443L88.3632 9.65771Z" fill="url(#paint1_radial_8658_213037)"/>
<rect x="76.4907" y="31" width="2.00235" height="15" fill="#49D793"/>
<rect x="90.5068" y="31" width="2.00235" height="15" fill="#49D793"/>
<rect x="76.4907" y="33" width="2" height="15.0176" transform="rotate(-90 76.4907 33)" fill="#49D793"/>
<rect x="76.4907" y="46" width="2" height="15.0176" transform="rotate(-90 76.4907 46)" fill="#49D793"/>
<rect x="76.4907" y="42" width="2" height="15.0176" transform="rotate(-90 76.4907 42)" fill="#49D793"/>
<rect x="76.4907" y="38" width="2" height="15.0176" transform="rotate(-90 76.4907 38)" fill="#49D793"/>
<rect x="83.499" y="31" width="2.00235" height="13" fill="#49D793"/>
<defs>
<linearGradient id="paint0_linear_8658_213037" x1="94.9027" y1="21.9221" x2="94.9027" y2="32.247" gradientUnits="userSpaceOnUse">
<stop stop-color="#263238" stop-opacity="0.2"/>
<stop offset="1" stop-color="#263238" stop-opacity="0.02"/>
</linearGradient>
<radialGradient id="paint1_radial_8658_213037" cx="0" cy="0" r="1" gradientUnits="userSpaceOnUse" gradientTransform="translate(69.0818 10.5459) scale(52.4018 52.4018)">
<stop stop-color="white" stop-opacity="0.1"/>
<stop offset="1" stop-color="white" stop-opacity="0"/>
</radialGradient>
</defs>
</svg>
