<svg width="58" height="58" viewBox="0 0 58 58" fill="none" xmlns="http://www.w3.org/2000/svg">
<g clip-path="url(#clip0_8658_212853)">
<mask id="mask0_8658_212853" style="mask-type:alpha" maskUnits="userSpaceOnUse" x="15" y="9" width="29" height="39">
<path d="M32.708 9.89246H18.0708C16.6502 9.89246 15.4878 11.0548 15.4878 12.4755V45.1938C15.4878 46.6144 16.6502 47.7768 18.0708 47.7768H40.457C41.8777 47.7768 43.04 46.6144 43.04 45.1938V20.2245L32.708 9.89246Z" fill="white"/>
</mask>
<g mask="url(#mask0_8658_212853)">
<path d="M32.708 9.89246H18.0708C16.6502 9.89246 15.4878 11.0548 15.4878 12.4755V45.1938C15.4878 46.6144 16.6502 47.7768 18.0708 47.7768H40.457C41.8777 47.7768 43.04 46.6144 43.04 45.1938V20.2245L37.013 15.9195L32.708 9.89246Z" fill="#0F9D58"/>
</g>
<mask id="mask1_8658_212853" style="mask-type:alpha" maskUnits="userSpaceOnUse" x="15" y="9" width="29" height="39">
<path d="M32.708 9.89246H18.0708C16.6502 9.89246 15.4878 11.0548 15.4878 12.4755V45.1938C15.4878 46.6144 16.6502 47.7768 18.0708 47.7768H40.457C41.8777 47.7768 43.04 46.6144 43.04 45.1938V20.2245L32.708 9.89246Z" fill="white"/>
</mask>
<g mask="url(#mask1_8658_212853)">
<path d="M22.3755 28.4028V40.8874H36.1516V28.4028H22.3755ZM28.4025 39.1654H24.0975V37.0129H28.4025V39.1654ZM28.4025 35.7214H24.0975V33.5689H28.4025V35.7214ZM28.4025 32.2774H24.0975V30.1248H28.4025V32.2774ZM34.4296 39.1654H30.1246V37.0129H34.4296V39.1654ZM34.4296 35.7214H30.1246V33.5689H34.4296V35.7214ZM34.4296 32.2774H30.1246V30.1248H34.4296V32.2774Z" fill="#F1F1F1"/>
</g>
<mask id="mask2_8658_212853" style="mask-type:alpha" maskUnits="userSpaceOnUse" x="15" y="9" width="29" height="39">
<path d="M32.708 9.89246H18.0708C16.6502 9.89246 15.4878 11.0548 15.4878 12.4755V45.1938C15.4878 46.6144 16.6502 47.7768 18.0708 47.7768H40.457C41.8777 47.7768 43.04 46.6144 43.04 45.1938V20.2245L32.708 9.89246Z" fill="white"/>
</mask>
<g mask="url(#mask2_8658_212853)">
<path d="M33.4629 19.467L43.0395 29.0415V20.2226L33.4629 19.467Z" fill="url(#paint0_linear_8658_212853)"/>
</g>
<mask id="mask3_8658_212853" style="mask-type:alpha" maskUnits="userSpaceOnUse" x="15" y="9" width="29" height="39">
<path d="M32.708 9.89246H18.0708C16.6502 9.89246 15.4878 11.0548 15.4878 12.4755V45.1938C15.4878 46.6144 16.6502 47.7768 18.0708 47.7768H40.457C41.8777 47.7768 43.04 46.6144 43.04 45.1938V20.2245L32.708 9.89246Z" fill="white"/>
</mask>
<g mask="url(#mask3_8658_212853)">
<path d="M32.7075 9.89246V17.6415C32.7075 19.0686 33.8634 20.2245 35.2905 20.2245H43.0396L32.7075 9.89246Z" fill="#87CEAC"/>
</g>
<mask id="mask4_8658_212853" style="mask-type:alpha" maskUnits="userSpaceOnUse" x="15" y="9" width="29" height="39">
<path d="M32.708 9.89246H18.0708C16.6502 9.89246 15.4878 11.0548 15.4878 12.4755V45.1938C15.4878 46.6144 16.6502 47.7768 18.0708 47.7768H40.457C41.8777 47.7768 43.04 46.6144 43.04 45.1938V20.2245L32.708 9.89246Z" fill="white"/>
</mask>
<g mask="url(#mask4_8658_212853)">
<path d="M18.0708 9.89246C16.6502 9.89246 15.4878 11.0548 15.4878 12.4755V12.6907C15.4878 11.2701 16.6502 10.1077 18.0708 10.1077H32.708V9.89246H18.0708Z" fill="white" fill-opacity="0.2"/>
</g>
<mask id="mask5_8658_212853" style="mask-type:alpha" maskUnits="userSpaceOnUse" x="15" y="9" width="29" height="39">
<path d="M32.708 9.89246H18.0708C16.6502 9.89246 15.4878 11.0548 15.4878 12.4755V45.1938C15.4878 46.6144 16.6502 47.7768 18.0708 47.7768H40.457C41.8777 47.7768 43.04 46.6144 43.04 45.1938V20.2245L32.708 9.89246Z" fill="white"/>
</mask>
<g mask="url(#mask5_8658_212853)">
<path d="M40.457 47.5602H18.0708C16.6502 47.5602 15.4878 46.3978 15.4878 44.9772V45.1924C15.4878 46.6131 16.6502 47.7755 18.0708 47.7755H40.457C41.8777 47.7755 43.04 46.6131 43.04 45.1924V44.9772C43.04 46.3978 41.8777 47.5602 40.457 47.5602Z" fill="#263238" fill-opacity="0.2"/>
</g>
<mask id="mask6_8658_212853" style="mask-type:alpha" maskUnits="userSpaceOnUse" x="15" y="9" width="29" height="39">
<path d="M32.708 9.89246H18.0708C16.6502 9.89246 15.4878 11.0548 15.4878 12.4755V45.1938C15.4878 46.6144 16.6502 47.7768 18.0708 47.7768H40.457C41.8777 47.7768 43.04 46.6144 43.04 45.1938V20.2245L32.708 9.89246Z" fill="white"/>
</mask>
<g mask="url(#mask6_8658_212853)">
<path d="M35.2905 20.2235C33.8634 20.2235 32.7075 19.0676 32.7075 17.6405V17.8557C32.7075 19.2829 33.8634 20.4388 35.2905 20.4388H43.0396V20.2235H35.2905Z" fill="#263238" fill-opacity="0.1"/>
</g>
<path d="M32.707 9.89062H18.0698C16.6492 9.89062 15.4868 11.053 15.4868 12.4736V45.1919C15.4868 46.6126 16.6492 47.775 18.0698 47.775H40.456C41.8767 47.775 43.0391 46.6126 43.0391 45.1919V20.2227L32.707 9.89062Z" fill="url(#paint1_radial_8658_212853)"/>
</g>
<defs>
<linearGradient id="paint0_linear_8658_212853" x1="38.2517" y1="20.2891" x2="38.2517" y2="29.0428" gradientUnits="userSpaceOnUse">
<stop stop-color="#263238" stop-opacity="0.2"/>
<stop offset="1" stop-color="#263238" stop-opacity="0.02"/>
</linearGradient>
<radialGradient id="paint1_radial_8658_212853" cx="0" cy="0" r="1" gradientUnits="userSpaceOnUse" gradientTransform="translate(16.3597 10.6437) scale(44.4276 44.4276)">
<stop stop-color="white" stop-opacity="0.1"/>
<stop offset="1" stop-color="white" stop-opacity="0"/>
</radialGradient>
<clipPath id="clip0_8658_212853">
<rect width="28.86" height="39" fill="white" transform="translate(15.002 9.33301)"/>
</clipPath>
</defs>
</svg>
