<svg width="299" height="161" viewBox="0 0 299 161" fill="none" xmlns="http://www.w3.org/2000/svg">
<path d="M101.5 24H35C17.3269 24 3 38.3269 3 56V126C3 143.673 17.3269 158 35 158H105" stroke="url(#paint0_linear_3386_99996)" stroke-width="6"/>
<path d="M125.479 16.348C125.376 15.3168 124.938 14.5156 124.162 13.9446C123.386 13.3736 122.334 13.0881 121.004 13.0881C120.101 13.0881 119.338 13.2159 118.716 13.4716C118.094 13.7187 117.616 14.0639 117.284 14.5071C116.96 14.9503 116.798 15.4531 116.798 16.0156C116.781 16.4844 116.879 16.8935 117.092 17.2429C117.314 17.5923 117.616 17.8949 118 18.1506C118.384 18.3977 118.827 18.6151 119.33 18.8026C119.832 18.9815 120.369 19.1349 120.94 19.2628L123.293 19.8253C124.435 20.081 125.483 20.4219 126.438 20.848C127.392 21.2741 128.219 21.7983 128.918 22.4205C129.616 23.0426 130.158 23.7756 130.541 24.6193C130.933 25.4631 131.134 26.4304 131.142 27.5213C131.134 29.1236 130.724 30.5128 129.915 31.6889C129.114 32.8565 127.955 33.7642 126.438 34.4119C124.929 35.0511 123.109 35.3707 120.979 35.3707C118.865 35.3707 117.024 35.0469 115.456 34.3991C113.896 33.7514 112.678 32.7926 111.8 31.5227C110.93 30.2443 110.474 28.6634 110.432 26.7798H115.788C115.848 27.6577 116.099 28.3906 116.543 28.9787C116.994 29.5582 117.595 29.9972 118.345 30.2955C119.104 30.5852 119.96 30.7301 120.915 30.7301C121.852 30.7301 122.666 30.5937 123.357 30.321C124.055 30.0483 124.597 29.669 124.98 29.1832C125.364 28.6974 125.555 28.1392 125.555 27.5085C125.555 26.9205 125.381 26.4261 125.031 26.0256C124.69 25.625 124.188 25.2841 123.523 25.0028C122.866 24.7216 122.061 24.4659 121.107 24.2358L118.256 23.5199C116.048 22.983 114.305 22.1435 113.027 21.0014C111.749 19.8594 111.114 18.321 111.122 16.3864C111.114 14.8011 111.536 13.4162 112.388 12.2315C113.249 11.0469 114.429 10.1222 115.929 9.45739C117.429 8.79261 119.134 8.46023 121.043 8.46023C122.986 8.46023 124.682 8.79261 126.131 9.45739C127.588 10.1222 128.722 11.0469 129.531 12.2315C130.341 13.4162 130.759 14.7884 130.784 16.348H125.479ZM134.763 35V15.3636H140.209V35H134.763ZM137.499 12.8324C136.689 12.8324 135.995 12.5639 135.415 12.027C134.844 11.4815 134.559 10.8295 134.559 10.071C134.559 9.32102 134.844 8.67756 135.415 8.14062C135.995 7.59517 136.689 7.32244 137.499 7.32244C138.309 7.32244 138.999 7.59517 139.57 8.14062C140.15 8.67756 140.439 9.32102 140.439 10.071C140.439 10.8295 140.15 11.4815 139.57 12.027C138.999 12.5639 138.309 12.8324 137.499 12.8324ZM153.418 42.7727C151.654 42.7727 150.141 42.5298 148.88 42.044C147.627 41.5668 146.63 40.9148 145.888 40.0881C145.147 39.2614 144.665 38.3324 144.444 37.3011L149.481 36.6236C149.634 37.0156 149.877 37.3821 150.21 37.723C150.542 38.0639 150.981 38.3366 151.526 38.5412C152.08 38.7543 152.754 38.8608 153.546 38.8608C154.731 38.8608 155.707 38.571 156.474 37.9915C157.249 37.4205 157.637 36.4616 157.637 35.1151V31.5227H157.407C157.168 32.0682 156.81 32.5838 156.333 33.0696C155.856 33.5554 155.242 33.9517 154.492 34.2585C153.742 34.5653 152.847 34.7188 151.808 34.7188C150.333 34.7188 148.991 34.3778 147.781 33.696C146.579 33.0057 145.62 31.9531 144.904 30.5384C144.197 29.1151 143.843 27.3168 143.843 25.1435C143.843 22.919 144.205 21.0611 144.93 19.5696C145.654 18.0781 146.617 16.9616 147.819 16.2202C149.029 15.4787 150.354 15.108 151.795 15.108C152.894 15.108 153.815 15.2955 154.556 15.6705C155.298 16.0369 155.894 16.4972 156.346 17.0511C156.806 17.5966 157.16 18.1335 157.407 18.6619H157.612V15.3636H163.019V35.1918C163.019 36.8622 162.61 38.2599 161.792 39.3849C160.974 40.5099 159.84 41.3537 158.391 41.9162C156.951 42.4872 155.293 42.7727 153.418 42.7727ZM153.533 30.6278C154.411 30.6278 155.153 30.4105 155.758 29.9759C156.371 29.5327 156.84 28.902 157.164 28.0838C157.496 27.2571 157.663 26.2685 157.663 25.1179C157.663 23.9673 157.501 22.9702 157.177 22.1264C156.853 21.2741 156.384 20.6136 155.771 20.1449C155.157 19.6761 154.411 19.4418 153.533 19.4418C152.638 19.4418 151.884 19.6847 151.271 20.1705C150.657 20.6477 150.192 21.3125 149.877 22.1648C149.562 23.017 149.404 24.0014 149.404 25.1179C149.404 26.2514 149.562 27.2315 149.877 28.0582C150.201 28.8764 150.665 29.5114 151.271 29.9631C151.884 30.4062 152.638 30.6278 153.533 30.6278ZM172.799 23.6477V35H167.353V15.3636H172.543V18.8281H172.773C173.208 17.6861 173.937 16.7827 174.96 16.1179C175.982 15.4446 177.222 15.108 178.68 15.108C180.043 15.108 181.232 15.4062 182.246 16.0028C183.261 16.5994 184.049 17.4517 184.612 18.5597C185.174 19.6591 185.455 20.9716 185.455 22.4972V35H180.009V23.4688C180.018 22.267 179.711 21.3295 179.089 20.6562C178.467 19.9744 177.61 19.6335 176.519 19.6335C175.786 19.6335 175.138 19.7912 174.576 20.1065C174.022 20.4219 173.587 20.8821 173.272 21.4872C172.965 22.0838 172.808 22.804 172.799 23.6477ZM198.696 35.3835C196.676 35.3835 194.938 34.9744 193.48 34.1562C192.032 33.3295 190.915 32.1619 190.131 30.6534C189.347 29.1364 188.955 27.3423 188.955 25.2713C188.955 23.2514 189.347 21.4787 190.131 19.9531C190.915 18.4276 192.019 17.2386 193.442 16.3864C194.874 15.5341 196.553 15.108 198.479 15.108C199.775 15.108 200.98 15.3168 202.097 15.7344C203.222 16.1435 204.202 16.7614 205.037 17.5881C205.881 18.4148 206.537 19.4545 207.006 20.7074C207.475 21.9517 207.709 23.4091 207.709 25.0795V26.5753H191.128V23.2003H202.583C202.583 22.4162 202.412 21.7216 202.071 21.1165C201.73 20.5114 201.257 20.0384 200.652 19.6974C200.056 19.348 199.361 19.1733 198.569 19.1733C197.742 19.1733 197.009 19.3651 196.37 19.7486C195.739 20.1236 195.245 20.6307 194.887 21.2699C194.529 21.9006 194.346 22.6037 194.337 23.3793V26.5881C194.337 27.5597 194.516 28.3991 194.874 29.1065C195.24 29.8139 195.756 30.3594 196.421 30.7429C197.086 31.1264 197.874 31.3182 198.786 31.3182C199.391 31.3182 199.945 31.233 200.448 31.0625C200.951 30.892 201.381 30.6364 201.739 30.2955C202.097 29.9545 202.37 29.5369 202.557 29.0426L207.594 29.375C207.338 30.5852 206.814 31.642 206.022 32.5455C205.238 33.4403 204.223 34.1392 202.979 34.642C201.743 35.1364 200.316 35.3835 198.696 35.3835ZM218.499 35.3196C217.007 35.3196 215.657 34.9361 214.446 34.169C213.245 33.3935 212.29 32.2557 211.583 30.7557C210.884 29.2472 210.534 27.3977 210.534 25.2074C210.534 22.9574 210.897 21.0866 211.621 19.5952C212.346 18.0952 213.309 16.9744 214.51 16.233C215.721 15.483 217.046 15.108 218.486 15.108C219.586 15.108 220.502 15.2955 221.235 15.6705C221.976 16.0369 222.573 16.4972 223.025 17.0511C223.485 17.5966 223.834 18.1335 224.073 18.6619H224.239V8.81818H229.672V35H224.303V31.8551H224.073C223.817 32.4006 223.455 32.9418 222.986 33.4787C222.526 34.0071 221.925 34.446 221.184 34.7955C220.451 35.1449 219.556 35.3196 218.499 35.3196ZM220.225 30.9858C221.103 30.9858 221.844 30.7472 222.449 30.2699C223.063 29.7841 223.532 29.1065 223.855 28.2372C224.188 27.3679 224.354 26.3494 224.354 25.1818C224.354 24.0142 224.192 23 223.868 22.1392C223.544 21.2784 223.076 20.6136 222.462 20.1449C221.848 19.6761 221.103 19.4418 220.225 19.4418C219.33 19.4418 218.576 19.6847 217.962 20.1705C217.348 20.6562 216.884 21.3295 216.569 22.1903C216.253 23.0511 216.096 24.0483 216.096 25.1818C216.096 26.3239 216.253 27.3338 216.569 28.2116C216.892 29.081 217.357 29.7628 217.962 30.2571C218.576 30.7429 219.33 30.9858 220.225 30.9858ZM242.584 35V8.81818H248.03V18.6619H248.196C248.435 18.1335 248.78 17.5966 249.232 17.0511C249.692 16.4972 250.289 16.0369 251.022 15.6705C251.763 15.2955 252.684 15.108 253.783 15.108C255.215 15.108 256.536 15.483 257.746 16.233C258.956 16.9744 259.924 18.0952 260.648 19.5952C261.373 21.0866 261.735 22.9574 261.735 25.2074C261.735 27.3977 261.381 29.2472 260.674 30.7557C259.975 32.2557 259.02 33.3935 257.81 34.169C256.608 34.9361 255.262 35.3196 253.77 35.3196C252.713 35.3196 251.814 35.1449 251.073 34.7955C250.34 34.446 249.739 34.0071 249.27 33.4787C248.801 32.9418 248.444 32.4006 248.196 31.8551H247.953V35H242.584ZM247.915 25.1818C247.915 26.3494 248.077 27.3679 248.401 28.2372C248.725 29.1065 249.194 29.7841 249.807 30.2699C250.421 30.7472 251.167 30.9858 252.044 30.9858C252.931 30.9858 253.681 30.7429 254.294 30.2571C254.908 29.7628 255.373 29.081 255.688 28.2116C256.012 27.3338 256.174 26.3239 256.174 25.1818C256.174 24.0483 256.016 23.0511 255.701 22.1903C255.385 21.3295 254.921 20.6562 254.307 20.1705C253.694 19.6847 252.939 19.4418 252.044 19.4418C251.158 19.4418 250.408 19.6761 249.794 20.1449C249.189 20.6136 248.725 21.2784 248.401 22.1392C248.077 23 247.915 24.0142 247.915 25.1818ZM268.098 42.3636C267.408 42.3636 266.76 42.3082 266.155 42.1974C265.558 42.0952 265.064 41.9631 264.672 41.8011L265.899 37.7358C266.538 37.9318 267.114 38.0384 267.625 38.0554C268.145 38.0724 268.592 37.9531 268.967 37.6974C269.351 37.4418 269.662 37.0071 269.901 36.3935L270.22 35.5625L263.176 15.3636H268.903L272.969 29.7841H273.173L277.277 15.3636H283.043L275.411 37.1222C275.044 38.179 274.545 39.0994 273.915 39.8835C273.293 40.6761 272.504 41.2855 271.55 41.7116C270.595 42.1463 269.445 42.3636 268.098 42.3636ZM289.013 35.3324C288.169 35.3324 287.445 35.0341 286.839 34.4375C286.243 33.8324 285.945 33.108 285.945 32.2642C285.945 31.429 286.243 30.7131 286.839 30.1165C287.445 29.5199 288.169 29.2216 289.013 29.2216C289.831 29.2216 290.547 29.5199 291.161 30.1165C291.774 30.7131 292.081 31.429 292.081 32.2642C292.081 32.8267 291.936 33.3423 291.646 33.8111C291.365 34.2713 290.994 34.642 290.534 34.9233C290.074 35.196 289.567 35.3324 289.013 35.3324ZM289.013 21.5767C288.169 21.5767 287.445 21.2784 286.839 20.6818C286.243 20.0852 285.945 19.3608 285.945 18.5085C285.945 17.6733 286.243 16.9616 286.839 16.3736C287.445 15.777 288.169 15.4787 289.013 15.4787C289.831 15.4787 290.547 15.777 291.161 16.3736C291.774 16.9616 292.081 17.6733 292.081 18.5085C292.081 19.0795 291.936 19.5994 291.646 20.0682C291.365 20.5284 290.994 20.8949 290.534 21.1676C290.074 21.4403 289.567 21.5767 289.013 21.5767Z" fill="#3B475D"/>
<defs>
<linearGradient id="paint0_linear_3386_99996" x1="3" y1="24.3681" x2="122.625" y2="42.5765" gradientUnits="userSpaceOnUse">
<stop stop-color="#0062F1"/>
<stop offset="1" stop-color="#00398B"/>
</linearGradient>
</defs>
</svg>
