<svg width="21" height="20" viewBox="0 0 21 20" fill="none" xmlns="http://www.w3.org/2000/svg">
<path d="M11.333 7.70866V3.12533C11.333 2.31991 11.9859 1.66699 12.7913 1.66699C13.5968 1.66699 14.2497 2.31991 14.2497 3.12533V7.70866C14.2497 8.51407 13.5968 9.16699 12.7913 9.16699C11.9859 9.16699 11.333 8.51407 11.333 7.70866Z" stroke="#3E50F7" stroke-width="1.25" stroke-linecap="round" stroke-linejoin="round"/>
<path d="M6.75 16.8752V12.2918C6.75 11.4864 7.40292 10.8335 8.20833 10.8335C9.01375 10.8335 9.66667 11.4864 9.66667 12.2918V16.8752C9.66667 17.6806 9.01375 18.3335 8.20833 18.3335C7.40292 18.3335 6.75 17.6806 6.75 16.8752Z" stroke="#3E50F7" stroke-width="1.25" stroke-linecap="round" stroke-linejoin="round"/>
<path d="M12.7913 10.8335L17.3747 10.8335C18.1801 10.8335 18.833 11.4864 18.833 12.2918C18.833 13.0972 18.1801 13.7502 17.3747 13.7502L12.7913 13.7502C11.9859 13.7502 11.333 13.0972 11.333 12.2918C11.333 11.4864 11.9859 10.8335 12.7913 10.8335Z" stroke="#3E50F7" stroke-width="1.25" stroke-linecap="round" stroke-linejoin="round"/>
<path d="M3.62484 6.25L8.20817 6.25C9.01359 6.25 9.6665 6.90292 9.6665 7.70833C9.6665 8.51375 9.01359 9.16667 8.20817 9.16667L3.62484 9.16667C2.81942 9.16667 2.1665 8.51375 2.1665 7.70833C2.1665 6.90292 2.81942 6.25 3.62484 6.25Z" stroke="#3E50F7" stroke-width="1.25" stroke-linecap="round" stroke-linejoin="round"/>
<path d="M6.33301 3.12533C6.33301 3.93074 6.98593 4.58366 7.79134 4.58366H9.24967V3.12533C9.24967 2.31991 8.59676 1.66699 7.79134 1.66699C6.98593 1.66699 6.33301 2.31991 6.33301 3.12533Z" stroke="#3E50F7" stroke-width="1.25" stroke-linejoin="round"/>
<path d="M14.6667 16.8753C14.6667 16.0699 14.0137 15.417 13.2083 15.417H11.75V16.8753C11.75 17.6807 12.4029 18.3337 13.2083 18.3337C14.0137 18.3337 14.6667 17.6807 14.6667 16.8753Z" stroke="#3E50F7" stroke-width="1.25" stroke-linejoin="round"/>
<path d="M17.3748 5.8335C16.5694 5.8335 15.9165 6.48641 15.9165 7.29183L15.9165 8.75016H17.3748C18.1803 8.75016 18.8332 8.09724 18.8332 7.29183C18.8332 6.48641 18.1803 5.8335 17.3748 5.8335Z" stroke="#3E50F7" stroke-width="1.25" stroke-linejoin="round"/>
<path d="M3.62484 14.1667C4.43025 14.1667 5.08317 13.5137 5.08317 12.7083V11.25L3.62484 11.25C2.81942 11.25 2.1665 11.9029 2.1665 12.7083C2.1665 13.5137 2.81942 14.1667 3.62484 14.1667Z" stroke="#3E50F7" stroke-width="1.25" stroke-linejoin="round"/>
</svg>
