<svg width="57" height="56" viewBox="0 0 57 56" fill="none" xmlns="http://www.w3.org/2000/svg">
<g clip-path="url(#clip0_4782_113776)">
<path fill-rule="evenodd" clip-rule="evenodd" d="M20.6415 0C17.5459 0.00228338 15.0406 2.50944 15.0429 5.59886C15.0406 8.68828 17.5482 11.1954 20.6438 11.1977H26.2447V5.60114C26.247 2.51172 23.7394 0.00456677 20.6415 0C20.6438 0 20.6438 0 20.6415 0ZM20.6415 14.9333H5.7103C2.61469 14.9356 0.107093 17.4428 0.109381 20.5322C0.104805 23.6216 2.6124 26.1288 5.70801 26.1333H20.6415C23.7371 26.1311 26.2447 23.6239 26.2424 20.5345C26.2447 17.4428 23.7371 14.9356 20.6415 14.9333Z" fill="#36C5F0"/>
<path fill-rule="evenodd" clip-rule="evenodd" d="M56.1096 20.5322C56.1119 17.4428 53.6043 14.9356 50.5087 14.9333C47.4131 14.9356 44.9055 17.4428 44.9078 20.5322V26.1333H50.5087C53.6043 26.1311 56.1119 23.6239 56.1096 20.5322ZM41.1761 20.5322V5.59886C41.1784 2.51172 38.6731 0.00456677 35.5775 0C32.4819 0.00228338 29.9743 2.50944 29.9766 5.59886V20.5322C29.972 23.6216 32.4796 26.1288 35.5752 26.1333C38.6708 26.1311 41.1784 23.6239 41.1761 20.5322Z" fill="#2EB67D"/>
<path fill-rule="evenodd" clip-rule="evenodd" d="M35.5775 55.9999C38.6731 55.9976 41.1807 53.4904 41.1784 50.401C41.1807 47.3116 38.6731 44.8044 35.5775 44.8022H29.9766V50.401C29.9743 53.4882 32.4819 55.9953 35.5775 55.9999ZM35.5775 41.0643H50.511C53.6066 41.062 56.1142 38.5548 56.1119 35.4654C56.1165 32.376 53.6089 29.8688 50.5132 29.8643H35.5798C32.4842 29.8665 29.9766 32.3737 29.9789 35.4631C29.9766 38.5548 32.4819 41.062 35.5775 41.0643Z" fill="#ECB22E"/>
<path fill-rule="evenodd" clip-rule="evenodd" d="M0.109377 35.4651C0.107089 38.5545 2.61469 41.0616 5.71029 41.0639C8.8059 41.0616 11.3135 38.5545 11.3112 35.4651V29.8662H5.71029C2.61469 29.8685 0.107089 32.3756 0.109377 35.4651ZM15.0429 35.4651V50.3984C15.0383 53.4878 17.5459 55.995 20.6415 55.9995C23.7371 55.9973 26.2447 53.4901 26.2424 50.4007V35.4696C26.247 32.3802 23.7394 29.8731 20.6438 29.8685C17.5459 29.8685 15.0406 32.3756 15.0429 35.4651Z" fill="#E01E5A"/>
</g>
<defs>
<clipPath id="clip0_4782_113776">
<rect width="56" height="56" fill="white" transform="translate(0.109375)"/>
</clipPath>
</defs>
</svg>
