<svg width="40" height="40" viewBox="0 0 40 40" fill="none" xmlns="http://www.w3.org/2000/svg">
<rect x="1" y="1" width="38" height="38" rx="19" fill="#0062F1"/>
<rect x="1" y="1" width="38" height="38" rx="19" stroke="#3B475D" stroke-width="2"/>
<rect x="12" y="7" width="1" height="1" rx="0.5" fill="#0062F1"/>
<rect x="2" y="1" width="37" height="37" rx="18.5" fill="#0062F1"/>
<rect x="14" y="8" width="1" height="1" rx="0.5" fill="#0062F1"/>
<path d="M19.7559 22.1514C17.8371 20.6166 13.3863 18.9539 10.9333 24.5809C10.7863 20.5055 15.2206 8.8919 17.4612 6.77346C17.9402 6.26371 19.1147 5.55354 19.9805 6.79081C20.0671 6.91463 20.1893 7.07735 20.3412 7.2798C20.8776 7.99425 21.7854 9.20359 22.8155 10.9448C22.3232 11.16 21.8873 11.5398 21.6225 11.9754C21.8001 11.894 21.9754 11.8071 22.1504 11.7205C22.4421 11.576 22.7329 11.4319 23.0312 11.3144C23.1684 11.5524 23.3073 11.7996 23.4475 12.0561C22.8482 12.3984 22.3265 12.8811 21.9961 13.3965C22.1981 13.2946 22.3992 13.1888 22.6004 13.083C22.965 12.8912 23.3302 12.6992 23.7017 12.5291C23.8358 12.7828 23.9707 13.0448 24.1059 13.3153C23.428 13.7725 22.8361 14.3443 22.4039 14.9556C22.5882 14.8533 22.7727 14.7493 22.9577 14.645C23.4262 14.381 23.8981 14.115 24.3777 13.8698C26.3063 17.8826 28.2379 23.6173 28.7918 31.2798C23.2608 33.8545 21.9434 34.267 18.167 30.5478C21.214 30.7209 26.2539 28.0163 22.0377 15.8127C18.1991 4.70219 15.9863 11.8862 14.2493 17.5255C14.0784 18.0803 13.9121 18.6202 13.7493 19.1262C15.1485 18.7712 18.3086 18.8792 19.7559 22.1514Z" fill="#F8FBFF"/>
</svg>
