<svg width="16" height="16" viewBox="0 0 16 16" fill="none" xmlns="http://www.w3.org/2000/svg">
<g clip-path="url(#clip0_673_18025)">
<path d="M6.30915 10.3329C6.25246 10.1022 6.13793 9.89166 5.97748 9.72318C5.81702 9.5547 5.6165 9.43445 5.39677 9.37493L1.50153 8.32026C1.43507 8.30046 1.37658 8.25843 1.33493 8.20056C1.29329 8.14269 1.27075 8.07213 1.27075 7.9996C1.27075 7.92706 1.29329 7.8565 1.33493 7.79863C1.37658 7.74076 1.43507 7.69874 1.50153 7.67893L5.39677 6.6236C5.61642 6.56413 5.81689 6.44398 5.97734 6.27562C6.13779 6.10727 6.25236 5.89685 6.30915 5.66626L7.31359 1.57626C7.33226 1.50621 7.37225 1.44449 7.42745 1.40053C7.48264 1.35656 7.55002 1.33276 7.61931 1.33276C7.68859 1.33276 7.75597 1.35656 7.81117 1.40053C7.86636 1.44449 7.90635 1.50621 7.92502 1.57626L8.92883 5.66626C8.98552 5.89698 9.10004 6.10753 9.2605 6.27601C9.42096 6.44449 9.62148 6.56474 9.84121 6.62426L13.7365 7.67826C13.8034 7.69766 13.8625 7.7396 13.9046 7.79765C13.9467 7.85569 13.9695 7.92664 13.9695 7.9996C13.9695 8.07256 13.9467 8.1435 13.9046 8.20154C13.8625 8.25959 13.8034 8.30153 13.7365 8.32093L9.84121 9.37493C9.62148 9.43445 9.42096 9.5547 9.2605 9.72318C9.10004 9.89166 8.98552 10.1022 8.92883 10.3329L7.92439 14.4229C7.90571 14.493 7.86573 14.5547 7.81053 14.5987C7.75533 14.6426 7.68795 14.6664 7.61867 14.6664C7.54939 14.6664 7.48201 14.6426 7.42681 14.5987C7.37161 14.5547 7.33163 14.493 7.31296 14.4229L6.30915 10.3329Z" stroke="#7F56D9" stroke-width="1.2" stroke-linecap="round" stroke-linejoin="round"/>
<path d="M12.6984 2V4.66667" stroke="#7F56D9" stroke-width="1.2" stroke-linecap="round" stroke-linejoin="round"/>
<path d="M13.9683 3.33276H11.4286" stroke="#7F56D9" stroke-width="1.2" stroke-linecap="round" stroke-linejoin="round"/>
<path d="M2.53955 11.3328V12.6661" stroke="#7F56D9" stroke-width="1.2" stroke-linecap="round" stroke-linejoin="round"/>
<path d="M3.1745 12H1.90466" stroke="#7F56D9" stroke-width="1.2" stroke-linecap="round" stroke-linejoin="round"/>
</g>
<defs>
<clipPath id="clip0_673_18025">
<rect width="15.2381" height="16" fill="white"/>
</clipPath>
</defs>
</svg>
