<svg width="27" height="28" viewBox="0 0 27 28" fill="none" xmlns="http://www.w3.org/2000/svg">
<path d="M16.875 2.75L17.4811 5.44052C17.9952 7.72267 19.7773 9.50485 22.0595 10.0189L24.75 10.625L22.0595 11.2311C19.7773 11.7452 17.9952 13.5273 17.4811 15.8095L16.875 18.5L16.2689 15.8095C15.7548 13.5273 13.9727 11.7452 11.6905 11.2311L9 10.625L11.6905 10.0189C13.9727 9.50485 15.7548 7.72267 16.2689 5.44052L16.875 2.75Z" stroke="#001430" stroke-width="1.5" stroke-linejoin="round"/>
<path d="M7.875 14L8.30791 15.9218C8.67511 17.5519 9.94809 18.8249 11.5782 19.1921L13.5 19.625L11.5782 20.0579C9.94809 20.4251 8.67511 21.6981 8.30791 23.3282L7.875 25.25L7.44209 23.3282C7.07489 21.6981 5.80191 20.4251 4.1718 20.0579L2.25 19.625L4.1718 19.1921C5.80191 18.8249 7.07489 17.5519 7.44209 15.9218L7.875 14Z" stroke="#001430" stroke-width="1.5" stroke-linejoin="round"/>
</svg>
