<svg width="32" height="33" viewBox="0 0 32 33" fill="none" xmlns="http://www.w3.org/2000/svg">
<path d="M19.9998 3.15881L20.7181 6.34758C21.3274 9.05235 23.4396 11.1646 26.1444 11.7738L29.3332 12.4921L26.1444 13.2105C23.4396 13.8197 21.3274 15.9319 20.7181 18.6367L19.9998 21.8255L19.2815 18.6367C18.6723 15.9319 16.56 13.8197 13.8553 13.2105L10.6665 12.4921L13.8553 11.7738C16.56 11.1646 18.6723 9.05235 19.2815 6.34758L19.9998 3.15881Z" fill="#FCAA3F"/>
<path d="M9.33317 16.4922L9.84625 18.7699C10.2814 20.7019 11.7902 22.2106 13.7221 22.6458L15.9998 23.1589L13.7221 23.6719C11.7902 24.1071 10.2814 25.6159 9.84625 27.5478L9.33317 29.8255L8.82009 27.5478C8.38489 25.6159 6.87617 24.1071 4.9442 23.6719L2.6665 23.1589L4.94419 22.6458C6.87617 22.2106 8.38489 20.7019 8.82009 18.7699L9.33317 16.4922Z" fill="#FCAA3F"/>
</svg>
