<svg width="20" height="20" viewBox="0 0 20 20" fill="none" xmlns="http://www.w3.org/2000/svg">
<path d="M16.2109 6.67969L16.875 5.19531L18.3203 4.53125C18.6719 4.41406 18.6719 3.94531 18.3203 3.78906L16.875 3.125L16.2109 1.67969C16.0547 1.32812 15.625 1.32812 15.4688 1.67969L14.8047 3.125L13.3203 3.78906C13.0078 3.94531 13.0078 4.375 13.3203 4.53125L14.8047 5.19531L15.4688 6.67969C15.5859 6.99219 16.0547 6.99219 16.2109 6.67969ZM9.57031 7.92969L8.24219 5C7.96875 4.33594 7.03125 4.33594 6.75781 5L5.42969 7.92969L2.5 9.25781C1.83594 9.53125 1.83594 10.4688 2.5 10.7422L5.42969 12.0703L6.75781 15C7.03125 15.6641 7.96875 15.6641 8.24219 15L9.57031 12.0703L12.5 10.7422C13.1641 10.4688 13.1641 9.53125 12.5 9.25781L9.57031 7.92969ZM15.4688 13.3203L14.8047 14.8047L13.3203 15.4688C13.0078 15.5859 13.0078 16.0547 13.3203 16.2109L14.8047 16.875L15.4688 18.3203C15.5859 18.6719 16.0547 18.6719 16.2109 18.3203L16.875 16.875L18.3203 16.2109C18.6719 16.0547 18.6719 15.625 18.3203 15.4688L16.875 14.8047L16.2109 13.3203C16.0547 13.0078 15.5859 13.0078 15.4688 13.3203Z" fill="#C5B5FC"/>
</svg>
