<svg width="58" height="58" viewBox="0 0 58 58" fill="none" xmlns="http://www.w3.org/2000/svg">
<rect width="57.334" height="57.334" rx="6.64742" fill="#6D9A00"/>
<path d="M21.0072 28.9605C20.9981 28.7412 21.0347 28.5223 21.1145 28.3179C21.1943 28.1134 21.3157 27.9277 21.471 27.7726C21.6263 27.6175 21.8121 27.4963 22.0167 27.4166C22.2212 27.337 22.4401 27.3007 22.6594 27.31C22.9857 27.3104 23.3046 27.4074 23.5758 27.589C23.847 27.7706 24.0583 28.0284 24.183 28.33C24.3076 28.6316 24.3401 28.9634 24.2762 29.2835C24.2123 29.6035 24.055 29.8975 23.8241 30.1281C23.5932 30.3588 23.2991 30.5158 22.979 30.5793C22.6589 30.6429 22.3272 30.6101 22.0257 30.4851C21.7242 30.3602 21.4665 30.1486 21.2853 29.8772C21.104 29.6059 21.0072 29.2868 21.0072 28.9605Z" fill="white"/>
<path d="M26.7064 28.9605C26.6973 28.7412 26.7339 28.5223 26.8137 28.3179C26.8935 28.1134 27.0149 27.9277 27.1702 27.7726C27.3255 27.6175 27.5113 27.4963 27.7159 27.4166C27.9204 27.337 28.1393 27.3007 28.3586 27.31C28.6849 27.3104 29.0039 27.4074 29.2751 27.589C29.5462 27.7706 29.7575 28.0284 29.8822 28.33C30.0068 28.6316 30.0393 28.9634 29.9754 29.2835C29.9115 29.6035 29.7542 29.8975 29.5233 30.1281C29.2924 30.3588 28.9984 30.5158 28.6782 30.5793C28.3581 30.6429 28.0264 30.6101 27.7249 30.4851C27.4234 30.3602 27.1658 30.1486 26.9845 29.8772C26.8032 29.6059 26.7064 29.2868 26.7064 28.9605Z" fill="white"/>
<path d="M32.4018 28.9605C32.3927 28.7412 32.4292 28.5223 32.509 28.3179C32.5889 28.1134 32.7103 27.9277 32.8655 27.7726C33.0208 27.6175 33.2066 27.4963 33.4112 27.4166C33.6157 27.337 33.8346 27.3007 34.0539 27.31C34.3802 27.3104 34.6992 27.4074 34.9704 27.589C35.2416 27.7706 35.4528 28.0284 35.5775 28.33C35.7022 28.6316 35.7346 28.9634 35.6707 29.2835C35.6069 29.6035 35.4495 29.8975 35.2186 30.1281C34.9878 30.3588 34.6937 30.5158 34.3736 30.5793C34.0535 30.6429 33.7217 30.6101 33.4202 30.4851C33.1187 30.3602 32.8611 30.1486 32.6798 29.8772C32.4985 29.6059 32.4018 29.2868 32.4018 28.9605Z" fill="white"/>
<path d="M14.1719 30.4928V27.5369C14.6781 27.5363 15.1809 27.4552 15.6617 27.2967C15.9743 27.1228 16.2315 26.8644 16.404 26.551C16.6317 26.1459 16.7776 25.7001 16.8336 25.2388C16.9105 24.5562 16.9416 23.8692 16.9266 23.1825C16.8916 22.068 16.9612 20.9526 17.1346 19.8511C17.2405 19.2839 17.5016 18.7571 17.8888 18.3292C18.2451 17.8918 18.721 17.5675 19.2585 17.3958C19.9865 17.2193 20.7354 17.1448 21.4839 17.1742H22.0977V19.6042C21.5424 19.5697 20.985 19.6216 20.4456 19.7581C20.2172 19.8475 20.0267 20.013 19.9062 20.2265C19.7753 20.7464 19.7183 21.2821 19.7371 21.8178C19.7371 22.3353 19.7021 23.3166 19.6322 24.7619C19.6166 25.431 19.5155 26.0953 19.3312 26.7387C19.1969 27.1875 18.9871 27.6102 18.7106 27.9884C18.3811 28.3843 17.992 28.7266 17.5573 29.003C17.9869 29.2586 18.3662 29.5904 18.6768 29.9821C18.9822 30.387 19.2083 30.846 19.343 31.3349C19.5221 32.0358 19.623 32.7544 19.644 33.4775C19.6982 34.8404 19.7252 35.7107 19.7252 36.0884C19.7051 36.6202 19.7679 37.1519 19.9112 37.6644C20.0411 37.8836 20.2388 38.0545 20.4743 38.1515C21.004 38.2978 21.5544 38.355 22.1028 38.3206V40.8334H21.489C20.7475 40.8507 20.0086 40.7409 19.3042 40.5088C18.7665 40.3474 18.2803 40.0484 17.8938 39.6413C17.5026 39.2139 17.2359 38.6876 17.1227 38.1193C16.9647 37.1776 16.8984 36.2228 16.9249 35.2683C16.965 34.2831 16.9027 33.2964 16.7389 32.3242C16.6355 31.785 16.3659 31.2918 15.9677 30.9139C15.4165 30.6182 14.7971 30.473 14.1719 30.4928Z" fill="white"/>
<path d="M40.6641 30.9231C40.266 31.3011 39.9963 31.7943 39.893 32.3334C39.7291 33.3057 39.6668 34.2923 39.707 35.2775C39.7319 36.2299 39.6645 37.1824 39.5057 38.1218C39.3926 38.69 39.1259 39.2164 38.7346 39.6437C38.3502 40.0555 37.8645 40.3593 37.326 40.5248C36.6216 40.7569 35.8826 40.8667 35.1412 40.8494H34.5273V38.3416C35.0758 38.3761 35.6261 38.3189 36.1558 38.1725C36.3914 38.0756 36.589 37.9047 36.7189 37.6855C36.8623 37.173 36.925 36.6413 36.9049 36.1095C36.9049 35.7318 36.932 34.8615 36.9861 33.4985C37.0083 32.7759 37.1104 32.0579 37.2905 31.3577C37.4252 30.8688 37.6513 30.4097 37.9568 30.0049C38.2673 29.6132 38.6467 29.2814 39.0762 29.0258C38.6415 28.7494 38.2525 28.4071 37.9229 28.0111C37.6465 27.6329 37.4366 27.2103 37.3023 26.7615C37.1181 26.1181 37.0169 25.4537 37.0013 24.7847C36.9314 23.3394 36.8965 22.358 36.8965 21.8406C36.9152 21.3048 36.8583 20.7691 36.7274 20.2493C36.6068 20.0357 36.4163 19.8703 36.1879 19.7809C35.6485 19.6444 35.0912 19.5924 34.5358 19.627V17.1801H35.1496C35.8981 17.1506 36.6471 17.2252 37.375 17.4016C37.9125 17.5733 38.3884 17.8976 38.7448 18.3351C39.1319 18.763 39.393 19.2898 39.499 19.857C39.6723 20.9585 39.7419 22.0738 39.707 23.1883C39.6919 23.8751 39.723 24.562 39.8 25.2446C39.8559 25.7059 40.0018 26.1518 40.2295 26.5569C40.402 26.8702 40.6593 27.1287 40.9719 27.3026C41.4535 27.4626 41.9575 27.5448 42.465 27.5461V30.4953C41.8375 30.4766 41.2162 30.6242 40.6641 30.9231Z" fill="white"/>
</svg>
