<svg width="96" height="96" viewBox="0 0 96 96" fill="none" xmlns="http://www.w3.org/2000/svg">
<path opacity="0.4" d="M47.9925 88.0006C67.1457 88.0006 82.6725 72.4739 82.6725 53.3206C82.6725 34.1674 67.1457 18.6406 47.9925 18.6406C28.8393 18.6406 13.3125 34.1674 13.3125 53.3206C13.3125 72.4739 28.8393 88.0006 47.9925 88.0006Z" fill="#0062F1"/>
<path d="M48 55C46.36 55 45 53.64 45 52V32C45 30.36 46.36 29 48 29C49.64 29 51 30.36 51 32V52C51 53.64 49.64 55 48 55Z" fill="#0062F1"/>
<path d="M59.5625 13.8H36.4425C34.8425 13.8 33.5625 12.52 33.5625 10.92C33.5625 9.32 34.8425 8 36.4425 8H59.5625C61.1625 8 62.4425 9.28 62.4425 10.88C62.4425 12.48 61.1625 13.8 59.5625 13.8Z" fill="#0062F1"/>
</svg>
