<svg width="124" height="96" viewBox="0 0 124 96" fill="none" xmlns="http://www.w3.org/2000/svg">
<path d="M62.398 80.119C82.6322 80.119 99.1192 63.7 99.1192 43.534C99.0511 23.2998 82.6322 6.88086 62.398 6.88086C42.0957 6.88086 25.6768 23.2998 25.6768 43.4658C25.6768 63.7 42.0957 80.119 62.398 80.119Z" fill="#EAEEF9"/>
<g filter="url(#filter0_d_315_19356)">
<path d="M101.573 48.1671C101.573 56.0019 95.2367 62.3379 87.3338 62.3379C87.1976 62.3379 86.0394 62.3379 77.5233 62.3379C71.5962 62.3379 62.1263 62.3379 47.0018 62.3379H39.7802C30.3103 62.5422 22.748 54.98 22.748 45.8508C22.748 36.6534 30.3784 29.023 39.9845 29.4999C48.2281 3.74738 85.9713 7.35818 89.1733 33.9964C96.2587 34.8821 101.573 40.8774 101.573 48.1671Z" fill="url(#paint0_linear_315_19356)"/>
</g>
<path d="M87.3331 62.3375C95.1679 62.3375 101.572 56.0016 101.572 48.1668C101.572 40.332 95.1679 33.9961 87.3331 33.9961C79.4983 33.9961 73.0942 40.332 73.0942 48.1668C73.0942 56.0016 79.4983 62.3375 87.3331 62.3375Z" fill="url(#paint1_linear_315_19356)"/>
<path d="M64.1011 62.4712C78.0674 62.4712 89.4449 51.1619 89.4449 37.1956C89.4449 23.2292 78.0674 11.9199 64.1011 11.9199C50.1348 11.9199 38.7573 23.2292 38.7573 37.1956C38.7573 51.1619 50.0666 62.4712 64.1011 62.4712Z" fill="url(#paint2_linear_315_19356)"/>
<path d="M53.2713 46.9402C55.9283 45.237 59.0622 44.2832 62.4005 44.2832C71.5297 44.2832 78.9557 51.6411 78.9557 60.7703C78.9557 69.8995 71.5297 77.2574 62.4005 77.2574C53.2713 77.2574 45.8453 69.8995 45.8453 60.7703C45.709 54.9794 48.7067 49.9379 53.2713 46.9402Z" fill="url(#paint3_linear_315_19356)"/>
<path d="M63.5217 54.4359L68.1544 59.0686C68.6994 59.6136 68.6994 60.5674 68.1544 61.1125C67.6094 61.6575 66.6556 61.6575 66.0424 61.1125L63.9305 59.0686V66.5627C63.9305 67.3803 63.2492 68.0616 62.4316 68.0616C61.6141 68.0616 60.9328 67.3803 60.9328 66.5627V59.0686L58.8208 61.1125C58.2758 61.6575 57.322 61.6575 56.7088 61.1125C56.3682 60.7718 56.2319 60.4312 56.2319 60.0905C56.2319 59.7499 56.3682 59.273 56.7088 59.0686L61.3416 54.4359C61.546 54.2315 62.0229 53.959 62.3635 53.959C62.7041 53.959 63.3173 54.0952 63.5217 54.4359Z" fill="white"/>
<path d="M100.005 30.7272C101.548 30.7272 102.798 29.4766 102.798 27.9339C102.798 26.3912 101.548 25.1406 100.005 25.1406C98.4623 25.1406 97.2117 26.3912 97.2117 27.9339C97.2117 29.4766 98.4623 30.7272 100.005 30.7272Z" fill="#EAEEF9"/>
<path d="M104.092 19.825C105.146 19.825 106 18.9709 106 17.9174C106 16.8638 105.146 16.0098 104.092 16.0098C103.039 16.0098 102.185 16.8638 102.185 17.9174C102.185 18.9709 103.039 19.825 104.092 19.825Z" fill="#EAEEF9"/>
<path d="M26.8348 26.0945C27.8884 26.0945 28.7424 25.2404 28.7424 24.1869C28.7424 23.1334 27.8884 22.2793 26.8348 22.2793C25.7813 22.2793 24.9272 23.1334 24.9272 24.1869C24.9272 25.2404 25.7813 26.0945 26.8348 26.0945Z" fill="#EAEEF9"/>
<path d="M22.5427 68.06C24.4992 68.06 26.0854 66.4739 26.0854 64.5173C26.0854 62.5607 24.4992 60.9746 22.5427 60.9746C20.5861 60.9746 19 62.5607 19 64.5173C19 66.4739 20.5861 68.06 22.5427 68.06Z" fill="#EAEEF9"/>
<defs>
<filter id="filter0_d_315_19356" x="0.655581" y="0.938142" width="123.01" height="94.5424" filterUnits="userSpaceOnUse" color-interpolation-filters="sRGB">
<feFlood flood-opacity="0" result="BackgroundImageFix"/>
<feColorMatrix in="SourceAlpha" type="matrix" values="0 0 0 0 0 0 0 0 0 0 0 0 0 0 0 0 0 0 127 0" result="hardAlpha"/>
<feOffset dy="11.0462"/>
<feGaussianBlur stdDeviation="11.0462"/>
<feColorMatrix type="matrix" values="0 0 0 0 0.397708 0 0 0 0 0.47749 0 0 0 0 0.575 0 0 0 0.27 0"/>
<feBlend mode="normal" in2="BackgroundImageFix" result="effect1_dropShadow_315_19356"/>
<feBlend mode="normal" in="SourceGraphic" in2="effect1_dropShadow_315_19356" result="shape"/>
</filter>
<linearGradient id="paint0_linear_315_19356" x1="62.1604" y1="32.7941" x2="62.1347" y2="62.8848" gradientUnits="userSpaceOnUse">
<stop stop-color="white"/>
<stop offset="0.9964" stop-color="#ECF0F5"/>
</linearGradient>
<linearGradient id="paint1_linear_315_19356" x1="71.579" y1="30.9452" x2="84.2016" y2="44.7505" gradientUnits="userSpaceOnUse">
<stop stop-color="#BCCBE1"/>
<stop offset="0.9942" stop-color="white" stop-opacity="0"/>
</linearGradient>
<linearGradient id="paint2_linear_315_19356" x1="36.3841" y1="25.5972" x2="56.2785" y2="33.3825" gradientUnits="userSpaceOnUse">
<stop stop-color="#E2E8F0"/>
<stop offset="0.9942" stop-color="white" stop-opacity="0"/>
</linearGradient>
<linearGradient id="paint3_linear_315_19356" x1="62.4009" y1="45.4287" x2="62.4009" y2="63.9368" gradientUnits="userSpaceOnUse">
<stop stop-color="#B0BACC"/>
<stop offset="1" stop-color="#969EAE"/>
</linearGradient>
</defs>
</svg>
