<svg width="124" height="96" viewBox="0 0 124 96" fill="none" xmlns="http://www.w3.org/2000/svg">
<path d="M61.897 80.119C82.1312 80.119 98.6183 63.7001 98.6183 43.5341C98.5501 23.2999 82.1312 6.88095 61.897 6.88095C41.5947 6.88095 25.1758 23.2999 25.1758 43.4659C25.1758 63.7001 41.5947 80.119 61.897 80.119Z" fill="#EAEEF9"/>
<g filter="url(#filter0_d_7131_99425)">
<path d="M101.073 48.1677C101.073 56.0025 94.7367 62.3385 86.8338 62.3385C86.6976 62.3385 85.5394 62.3385 77.0233 62.3385C71.0962 62.3385 61.6263 62.3385 46.5018 62.3385H39.2802C29.8103 62.5428 22.248 54.9806 22.248 45.8514C22.248 36.654 29.8784 29.0236 39.4845 29.5005C47.7281 3.74799 85.4713 7.35879 88.6733 33.997C95.7587 34.8827 101.073 40.878 101.073 48.1677Z" fill="url(#paint0_linear_7131_99425)"/>
</g>
<path d="M86.8326 62.3385C94.6674 62.3385 101.071 56.0026 101.071 48.1678C101.071 40.333 94.6674 33.9971 86.8326 33.9971C78.9978 33.9971 72.5938 40.333 72.5938 48.1678C72.5938 56.0026 78.9978 62.3385 86.8326 62.3385Z" fill="url(#paint1_linear_7131_99425)"/>
<path d="M63.6016 62.4722C77.5679 62.4722 88.9454 51.1628 88.9454 37.1965C88.9454 23.2302 77.5679 11.9208 63.6016 11.9208C49.6353 11.9208 38.2578 23.2302 38.2578 37.1965C38.2578 51.1628 49.5671 62.4722 63.6016 62.4722Z" fill="url(#paint2_linear_7131_99425)"/>
<path d="M52.7723 46.9407C55.4293 45.2375 58.5632 44.2837 61.9015 44.2837C71.0307 44.2837 78.4567 51.6415 78.4567 60.7708C78.4567 69.9 71.0307 77.2579 61.9015 77.2579C52.7723 77.2579 45.3463 69.9 45.3463 60.7708C45.21 54.9798 48.2077 49.9383 52.7723 46.9407Z" fill="url(#paint3_linear_7131_99425)"/>
<path d="M63.0222 54.4364L67.6549 59.0692C68.1999 59.6142 68.1999 60.568 67.6549 61.113C67.1099 61.658 66.1561 61.658 65.5429 61.113L63.4309 59.0692V66.5633C63.4309 67.3808 62.7497 68.0621 61.9321 68.0621C61.1146 68.0621 60.4333 67.3808 60.4333 66.5633V59.0692L58.3213 61.113C57.7763 61.658 56.8225 61.658 56.2093 61.113C55.8687 60.7724 55.7324 60.4317 55.7324 60.0911C55.7324 59.7504 55.8687 59.2735 56.2093 59.0692L60.8421 54.4364C61.0464 54.232 61.5233 53.9595 61.864 53.9595C62.2046 53.9595 62.8178 54.0958 63.0222 54.4364Z" fill="white"/>
<path d="M99.5042 30.7273C101.047 30.7273 102.297 29.4767 102.297 27.934C102.297 26.3914 101.047 25.1408 99.5042 25.1408C97.9615 25.1408 96.7109 26.3914 96.7109 27.934C96.7109 29.4767 97.9615 30.7273 99.5042 30.7273Z" fill="#EAEEF9"/>
<path d="M103.593 19.8243C104.647 19.8243 105.501 18.9703 105.501 17.9168C105.501 16.8632 104.647 16.0092 103.593 16.0092C102.54 16.0092 101.686 16.8632 101.686 17.9168C101.686 18.9703 102.54 19.8243 103.593 19.8243Z" fill="#EAEEF9"/>
<path d="M26.3353 26.0945C27.3889 26.0945 28.2429 25.2404 28.2429 24.1869C28.2429 23.1333 27.3889 22.2793 26.3353 22.2793C25.2818 22.2793 24.4277 23.1333 24.4277 24.1869C24.4277 25.2404 25.2818 26.0945 26.3353 26.0945Z" fill="#EAEEF9"/>
<path d="M22.0427 68.0593C23.9992 68.0593 25.5854 66.4732 25.5854 64.5166C25.5854 62.56 23.9992 60.9739 22.0427 60.9739C20.0861 60.9739 18.5 62.56 18.5 64.5166C18.5 66.4732 20.0861 68.0593 22.0427 68.0593Z" fill="#EAEEF9"/>
<defs>
<filter id="filter0_d_7131_99425" x="0.155581" y="0.938752" width="123.009" height="94.5425" filterUnits="userSpaceOnUse" color-interpolation-filters="sRGB">
<feFlood flood-opacity="0" result="BackgroundImageFix"/>
<feColorMatrix in="SourceAlpha" type="matrix" values="0 0 0 0 0 0 0 0 0 0 0 0 0 0 0 0 0 0 127 0" result="hardAlpha"/>
<feOffset dy="11.0462"/>
<feGaussianBlur stdDeviation="11.0462"/>
<feColorMatrix type="matrix" values="0 0 0 0 0.397708 0 0 0 0 0.47749 0 0 0 0 0.575 0 0 0 0.27 0"/>
<feBlend mode="normal" in2="BackgroundImageFix" result="effect1_dropShadow_7131_99425"/>
<feBlend mode="normal" in="SourceGraphic" in2="effect1_dropShadow_7131_99425" result="shape"/>
</filter>
<linearGradient id="paint0_linear_7131_99425" x1="61.6604" y1="32.7947" x2="61.6347" y2="62.8854" gradientUnits="userSpaceOnUse">
<stop stop-color="white"/>
<stop offset="0.9964" stop-color="#ECF0F5"/>
</linearGradient>
<linearGradient id="paint1_linear_7131_99425" x1="71.0785" y1="30.9462" x2="83.7011" y2="44.7515" gradientUnits="userSpaceOnUse">
<stop stop-color="#BCCBE1"/>
<stop offset="0.9942" stop-color="white" stop-opacity="0"/>
</linearGradient>
<linearGradient id="paint2_linear_7131_99425" x1="35.8846" y1="25.5982" x2="55.779" y2="33.3834" gradientUnits="userSpaceOnUse">
<stop stop-color="#E2E8F0"/>
<stop offset="0.9942" stop-color="white" stop-opacity="0"/>
</linearGradient>
<linearGradient id="paint3_linear_7131_99425" x1="61.9019" y1="45.4292" x2="61.9019" y2="63.9372" gradientUnits="userSpaceOnUse">
<stop stop-color="#B0BACC"/>
<stop offset="1" stop-color="#969EAE"/>
</linearGradient>
</defs>
</svg>
