<svg width="16" height="17" viewBox="0 0 16 17" fill="none" xmlns="http://www.w3.org/2000/svg">
<path d="M11.3346 14.5V13.1667C11.3346 12.4594 11.0537 11.7811 10.5536 11.281C10.0535 10.781 9.37521 10.5 8.66797 10.5H3.33464C2.62739 10.5 1.94911 10.781 1.44902 11.281C0.94892 11.7811 0.667969 12.4594 0.667969 13.1667V14.5" stroke="#656D86" stroke-width="1.33333" stroke-linecap="round" stroke-linejoin="round"/>
<path d="M5.9987 7.83333C7.47146 7.83333 8.66536 6.63943 8.66536 5.16667C8.66536 3.69391 7.47146 2.5 5.9987 2.5C4.52594 2.5 3.33203 3.69391 3.33203 5.16667C3.33203 6.63943 4.52594 7.83333 5.9987 7.83333Z" stroke="#656D86" stroke-width="1.33333" stroke-linecap="round" stroke-linejoin="round"/>
<path d="M15.332 14.5012V13.1679C15.3316 12.577 15.1349 12.0031 14.7729 11.5361C14.4109 11.0691 13.9041 10.7356 13.332 10.5879" stroke="#656D86" stroke-width="1.33333" stroke-linecap="round" stroke-linejoin="round"/>
<path d="M10.668 2.58789C11.2416 2.73476 11.75 3.06836 12.1131 3.5361C12.4761 4.00384 12.6732 4.57911 12.6732 5.17122C12.6732 5.76334 12.4761 6.33861 12.1131 6.80635C11.75 7.27409 11.2416 7.60769 10.668 7.75456" stroke="#656D86" stroke-width="1.33333" stroke-linecap="round" stroke-linejoin="round"/>
</svg>
