<svg width="16" height="17" viewBox="0 0 16 17" fill="none" xmlns="http://www.w3.org/2000/svg">
<path d="M6 3.8335C6 4.93807 5.10457 5.8335 4 5.8335C2.89543 5.8335 2 4.93807 2 3.8335C2 2.72893 2.89543 1.8335 4 1.8335C5.10457 1.8335 6 2.72893 6 3.8335Z" stroke="#141B34"/>
<path d="M14 9.8335C14 10.9381 13.1046 11.8335 12 11.8335C10.8954 11.8335 10 10.9381 10 9.8335C10 8.72893 10.8954 7.8335 12 7.8335C13.1046 7.8335 14 8.72893 14 9.8335Z" stroke="#141B34"/>
<path d="M6 13.1667C6 14.2713 5.10457 15.1667 4 15.1667C2.89543 15.1667 2 14.2713 2 13.1667C2 12.0622 2.89543 11.1667 4 11.1667C5.10457 11.1667 6 12.0622 6 13.1667Z" stroke="#141B34"/>
<path d="M4 5.83341V11.1667" stroke="#141B34" stroke-linecap="round" stroke-linejoin="round"/>
<path d="M10 9.8335H8C5.79086 9.8335 4 8.04263 4 5.8335" stroke="#141B34" stroke-linecap="round" stroke-linejoin="round"/>
</svg>
