<svg xmlns="http://www.w3.org/2000/svg" width="12" height="13" viewBox="0 0 12 13" fill="none">
  <g clip-path="url(#clip0_1632_32549)">
    <mask id="mask0_1632_32549" style="mask-type:luminance" maskUnits="userSpaceOnUse" x="0" y="0" width="12" height="13">
      <path d="M0 0.599609H12V12.5996H0V0.599609Z" fill="white"/>
    </mask>
    <g mask="url(#mask0_1632_32549)">
      <path fill-rule="evenodd" clip-rule="evenodd" d="M12 6.59961C12 9.91311 9.3135 12.5996 6 12.5996C2.6865 12.5996 0 9.91311 0 6.59961C0 3.28611 2.6865 0.599609 6 0.599609C9.3135 0.599609 12 3.28611 12 6.59961ZM3 8.69961H7.5V5.39961C7.5 5.28142 7.47672 5.16439 7.43149 5.05519C7.38626 4.946 7.31997 4.84679 7.2364 4.76321C7.15282 4.67964 7.05361 4.61335 6.94442 4.56812C6.83522 4.52289 6.71819 4.49961 6.6 4.49961H2.1V7.79961C2.1 8.0383 2.19482 8.26722 2.3636 8.43601C2.44718 8.51958 2.54639 8.58587 2.65558 8.6311C2.76478 8.67633 2.88181 8.69961 3 8.69961ZM8.1 7.49961L9.9 8.69961V4.49961L8.1 5.69961V7.49961Z" fill="#4D81F7"/>
    </g>
  </g>
  <defs>
    <clipPath id="clip0_1632_32549">
      <rect width="12" height="12" fill="white" transform="translate(0 0.599609)"/>
    </clipPath>
  </defs>
</svg>