<svg width="59" height="58" viewBox="0 0 59 58" fill="none" xmlns="http://www.w3.org/2000/svg">
<rect x="0.333008" width="58" height="58" rx="16" fill="#F8FBFF"/>
<g clip-path="url(#clip0_1220_36254)">
<path d="M26.7016 35.2596C26.3256 35.2596 25.9447 35.1814 25.5785 35.0201L17.766 31.5343C16.3696 30.9134 15.7397 29.2659 16.3598 27.8676L19.8412 20.0454C20.4613 18.6472 22.1069 18.0165 23.5033 18.6374L31.3158 22.1232C32.7123 22.7441 33.3422 24.3916 32.7221 25.7899L29.2406 33.6121C28.7768 34.6485 27.7612 35.2596 26.7016 35.2596ZM26.228 33.5534C26.8188 33.8174 27.5121 33.5485 27.7758 32.9619L31.2573 25.1396C31.5209 24.5481 31.2524 23.8539 30.6664 23.5899L22.849 20.1041C22.2582 19.8401 21.5649 20.109 21.3012 20.6956L17.8197 28.5179C17.5561 29.1094 17.8246 29.8036 18.4106 30.0676L26.228 33.5534Z" fill="#089949"/>
<path d="M51.208 35.2636H42.6533C41.125 35.2636 39.8799 34.017 39.8799 32.4868V23.9214C39.8799 22.3912 41.125 21.1445 42.6533 21.1445H51.208C52.7363 21.1445 53.9814 22.3912 53.9814 23.9214V32.4868C53.9814 34.017 52.7363 35.2636 51.208 35.2636ZM42.6533 22.7481C42.0088 22.7481 41.4814 23.2761 41.4814 23.9214V32.4868C41.4814 33.1321 42.0088 33.6601 42.6533 33.6601H51.208C51.8525 33.6601 52.3799 33.1321 52.3799 32.4868V23.9214C52.3799 23.2761 51.8525 22.7481 51.208 22.7481H42.6533Z" fill="#F9B21D"/>
<path d="M19.1717 25.491L18.0194 28.0724C18.0047 28.1017 17.9901 28.1261 17.9754 28.1506L18.4246 30.9275C18.5272 31.5679 18.0926 32.1692 17.4578 32.2719L9.01057 33.6408C8.70295 33.6897 8.39045 33.6164 8.13655 33.4355C7.88264 33.2546 7.71662 32.9808 7.6678 32.6728L6.30061 24.215C6.25178 23.907 6.32502 23.5941 6.50569 23.3399C6.68635 23.0857 6.95979 22.9195 7.26741 22.8706L15.7147 21.5017C15.7781 21.4919 15.8416 21.487 15.9002 21.487C16.4617 21.487 16.9647 21.8977 17.0574 22.4746L17.5115 25.271L18.703 22.5968L18.6395 22.2204C18.3953 20.7097 16.9696 19.6781 15.4608 19.9226L7.0135 21.2915C6.28596 21.4039 5.64143 21.7999 5.21174 22.4012C4.77717 23.0026 4.60627 23.7359 4.72346 24.4692L6.09065 32.927C6.20784 33.6604 6.60334 34.3008 7.20393 34.7359C7.67756 35.083 8.23909 35.259 8.82014 35.259C8.96662 35.259 9.11799 35.2492 9.26936 35.2248L17.7166 33.8559C19.2254 33.6115 20.2557 32.1839 20.0115 30.6732L19.1717 25.491Z" fill="#E42527"/>
<path d="M29.3033 29.5299L30.5435 26.7481L30.192 24.1619C30.148 23.8539 30.231 23.5459 30.4215 23.2966C30.6119 23.0472 30.8853 22.8859 31.1978 22.8468L39.6744 21.693C39.7281 21.6881 39.7818 21.6832 39.8355 21.6832C40.0894 21.6832 40.3336 21.7663 40.5435 21.9228C40.5826 21.9521 40.6168 21.9863 40.6509 22.0157C41.0269 21.6197 41.5201 21.3361 42.0718 21.2139C41.9156 20.9988 41.7301 20.8081 41.5103 20.6419C40.9195 20.1921 40.192 20.0014 39.4595 20.0992L30.9732 21.253C30.2408 21.3508 29.5865 21.7321 29.1422 22.3237C28.6929 22.9152 28.5025 23.6437 28.6002 24.377L29.3033 29.5299Z" fill="#226DB4"/>
<path d="M43.7275 30.9594L42.6143 22.7461C41.9893 22.7656 41.4863 23.2839 41.4863 23.9145V26.3248L42.1455 31.1745C42.1895 31.4825 42.1064 31.7905 41.916 32.0399C41.7256 32.2892 41.4521 32.4505 41.1396 32.4896L32.6631 33.6434C32.3555 33.6874 32.0479 33.6043 31.7988 33.4136C31.5498 33.223 31.3887 32.9492 31.3496 32.6363L30.959 29.7568L29.7188 32.5385L29.7627 32.8514C29.8603 33.5848 30.2412 34.2399 30.832 34.6848C31.3203 35.0563 31.9014 35.2519 32.5068 35.2519C32.6338 35.2519 32.7607 35.2421 32.8877 35.2274L41.3545 34.0834C42.0869 33.9856 42.7412 33.6043 43.1855 33.0128C43.6348 32.4212 43.8252 31.6928 43.7275 30.9594Z" fill="#226DB4"/>
<path d="M36.3353 38.3199C36.3353 37.5866 36.8724 37.0586 37.6048 37.0586C38.3617 37.0586 38.8743 37.5768 38.8743 38.3248C38.8743 39.0826 38.3519 39.6057 37.5951 39.6057C36.8333 39.6057 36.3353 39.0826 36.3353 38.3199ZM38.2884 38.3297C38.2884 37.8848 38.0736 37.5035 37.5902 37.5035C37.1019 37.5035 36.9163 37.8995 36.9163 38.3493C36.9163 38.7746 37.1458 39.1657 37.6146 39.1657C38.098 39.1608 38.2884 38.7453 38.2884 38.3297ZM30.9202 37.0977H31.2816C31.3353 37.0977 31.3792 37.1417 31.3792 37.1955V38.1048H32.4046V37.1955C32.4046 37.1417 32.4486 37.0977 32.5023 37.0977H32.8636C32.9173 37.0977 32.9613 37.1417 32.9613 37.1955V39.4688C32.9613 39.5226 32.9173 39.5666 32.8636 39.5666H32.5072C32.4534 39.5666 32.4095 39.5226 32.4095 39.4688V38.5497H31.3841V39.4688C31.3841 39.5226 31.3402 39.5666 31.2865 39.5666H30.9251C30.8714 39.5666 30.8275 39.5226 30.8275 39.4688V37.1955C30.8226 37.1417 30.8665 37.0977 30.9202 37.0977ZM24.9095 38.3199C24.9095 37.5866 25.4466 37.0586 26.179 37.0586C26.9359 37.0586 27.4486 37.5768 27.4486 38.3248C27.4486 39.0826 26.9261 39.6057 26.1693 39.6057C25.4075 39.6057 24.9095 39.0826 24.9095 38.3199ZM26.8675 38.3297C26.8675 37.8848 26.6527 37.5035 26.1693 37.5035C25.681 37.5035 25.4954 37.8995 25.4954 38.3493C25.4954 38.7746 25.7249 39.1657 26.1937 39.1657C26.6771 39.1608 26.8675 38.7453 26.8675 38.3297ZM19.8118 39.327L21.0228 37.5377H20.0267C19.973 37.5377 19.929 37.4937 19.929 37.4399V37.2004C19.929 37.1466 19.973 37.1026 20.0267 37.1026H21.6624C21.7161 37.1026 21.7601 37.1466 21.7601 37.2004V37.2933C21.7601 37.3128 21.7552 37.3324 21.7454 37.347L20.5589 39.1364H21.6234C21.6771 39.1364 21.721 39.1804 21.721 39.2341V39.4737C21.721 39.5275 21.6771 39.5715 21.6234 39.5715H19.8949C19.8411 39.5715 19.7972 39.5275 19.7972 39.4737V39.3857C19.7923 39.3613 19.8021 39.3417 19.8118 39.327Z" fill="black"/>
</g>
<defs>
<clipPath id="clip0_1220_36254">
<rect width="50" height="22" fill="white" transform="translate(4.33301 18)"/>
</clipPath>
</defs>
</svg>
