<svg width="59" height="58" viewBox="0 0 59 58" fill="none" xmlns="http://www.w3.org/2000/svg">
<rect x="0.333008" width="58" height="58" rx="16" fill="#182C55"/>
<g clip-path="url(#clip0_1220_39624)">
<path d="M36.4576 48.9994H22.2078C20.2405 48.9226 20.2419 45.9505 22.2078 45.8744H36.4576C38.425 45.9512 38.4235 48.9233 36.4576 48.9994ZM39.4263 42.7495H19.2376C14.3276 42.7495 10.333 38.5447 10.333 33.3762V20.5623C10.333 15.393 14.3283 11.1875 19.2391 11.1875H21.0946C23.0619 11.2643 23.0604 14.2363 21.0946 14.3124H19.2391C15.9652 14.3124 13.3017 17.1161 13.3017 20.5623V33.3763C13.3017 36.8216 15.9646 39.6245 19.2376 39.6245H39.4263C42.7002 39.6245 45.3637 36.8208 45.3637 33.3746V30.5622C45.4367 28.4913 48.2601 28.4928 48.3324 30.5622V33.3746C48.3324 38.5439 44.3371 42.7495 39.4263 42.7495ZM35.5793 26.9685H31.7819C29.9977 26.9685 28.3202 26.2372 27.0587 24.9091C25.7971 23.5811 25.1023 21.8154 25.1023 19.9373V16.0311C25.1024 12.1541 28.0988 9 31.7819 9H35.5792C38.0383 9 40.2302 10.4246 41.3899 12.5973C41.3899 12.5973 43.8839 10.6479 43.9208 10.624C44.8129 10.046 45.9353 10.0212 46.8497 10.5591C47.7641 11.097 48.3322 12.1162 48.3323 13.2188L48.3324 22.7497C48.3324 23.8523 47.7644 24.8715 46.8499 25.4095C45.9354 25.9474 44.8132 25.9225 43.921 25.3447C43.8891 25.324 41.3934 23.4212 41.3934 23.4212C40.2365 25.5637 38.0437 26.9685 35.5793 26.9685ZM31.7819 12.125C29.7358 12.125 28.071 13.8773 28.071 16.0311V19.9373C28.071 20.9808 28.4569 21.9617 29.1579 22.6995C29.8588 23.4372 30.7906 23.8436 31.7819 23.8436H35.5793C37.3741 23.8436 38.9086 22.5097 39.2279 20.6718C39.3197 20.1439 39.6624 19.7025 40.1357 19.5027C40.6089 19.3029 41.1465 19.373 41.5593 19.688L45.3637 22.5914L45.3636 13.3813L41.5736 16.3475C41.1619 16.6698 40.6212 16.7454 40.1439 16.5475C39.6665 16.3495 39.3201 15.9061 39.2278 15.3747C38.906 13.522 37.3374 12.125 35.5792 12.125H31.7819Z" fill="white"/>
</g>
<defs>
<clipPath id="clip0_1220_39624">
<rect width="38" height="40" fill="white" transform="translate(10.333 9)"/>
</clipPath>
</defs>
</svg>
