<svg width="22" height="21" viewBox="0 0 22 21" fill="none" xmlns="http://www.w3.org/2000/svg">
<path d="M20.7703 11.3564H20.4622V7.53529C20.4622 7.03711 20.1992 6.59854 19.8056 6.35233V2.47555C19.8056 1.65806 18.7785 1.04254 16.6657 0.595331C14.8543 0.211591 12.4524 0 9.9028 0C7.35319 0 4.95152 0.211586 3.13989 0.595331C1.02704 1.04254 0 1.65806 0 2.47555V13.4569C0 14.1955 0.834182 14.7658 2.54961 15.2006C3.87336 15.5362 5.66762 15.7728 7.64219 15.8747V19.767C7.64219 20.447 8.19415 21 8.87283 21H20.7694C21.448 21 22 20.447 22 19.767V12.5906C22 11.9106 21.448 11.3576 20.7694 11.3576L20.7703 11.3564ZM19.5061 7.53529V11.3564H15.6059C15.5444 11.3564 15.484 11.3353 15.436 11.2968L13.1311 9.46659C12.9142 9.29444 12.6425 9.2002 12.367 9.2002H10.1544V7.53541C10.1544 7.29594 10.3492 7.10071 10.5883 7.10071H19.0731C19.3121 7.10071 19.507 7.29595 19.507 7.53541L19.5061 7.53529ZM3.5307 1.49261C5.2557 1.14831 7.51914 0.957872 9.90287 0.957872C12.2866 0.957872 14.5499 1.14734 16.275 1.49261C18.2112 1.87923 18.7853 2.33124 18.8468 2.47456C18.7853 2.61786 18.2113 3.06989 16.275 3.45651C14.55 3.80081 12.2866 3.99125 9.90287 3.99125C7.51914 3.99125 5.25583 3.80179 3.5307 3.45651C1.59449 3.06989 1.02041 2.61788 0.958972 2.47456C1.02041 2.33126 1.59444 1.87923 3.5307 1.49261ZM0.957006 3.65365C1.47251 3.92295 2.19822 4.15569 3.13991 4.35574C4.95132 4.73948 7.35321 4.95107 9.90282 4.95107C12.4524 4.95107 14.8541 4.73948 16.6657 4.35574C17.6074 4.15666 18.3332 3.92295 18.8486 3.65365V6.14158H10.5864C9.81944 6.14158 9.19547 6.76673 9.19547 7.53517V7.60345C7.02313 7.56883 4.9861 7.37552 3.42439 7.05332C1.54193 6.66478 1.00149 6.21853 0.956367 6.08676V3.65354L0.957006 3.65365ZM7.64398 14.9137C5.84218 14.8185 4.19298 14.6079 2.95958 14.3126C1.20194 13.8924 0.973471 13.4836 0.957153 13.448V10.9512C1.35936 11.1609 1.88926 11.3484 2.55066 11.5167C3.87442 11.8524 5.66868 12.089 7.64324 12.1909V14.9128L7.64398 14.9137ZM7.64398 10.432V11.2312C5.84218 11.136 4.19298 10.9254 2.95958 10.6301C1.20194 10.2098 0.973471 9.80109 0.957153 9.76551V7.26971C1.45248 7.52842 2.14268 7.75345 3.03159 7.94774C4.68172 8.30838 6.85882 8.52381 9.19635 8.56038V9.198H8.87381C8.19514 9.198 7.64317 9.75101 7.64317 10.431L7.64398 10.432ZM21.0447 19.7657C21.0447 19.9177 20.9218 20.0408 20.7702 20.0408H8.87364C8.72197 20.0408 8.59909 19.9177 8.59909 19.7657V10.433C8.59909 10.281 8.72197 10.1579 8.87364 10.1579H12.3649C12.4264 10.1579 12.4869 10.1791 12.5349 10.2175L14.8397 12.0478C15.0566 12.2199 15.3283 12.3142 15.6048 12.3142H20.7693C20.921 12.3142 21.0439 12.4373 21.0439 12.5892V19.7657L21.0447 19.7657Z" fill="black"/>
</svg>
