<svg width="132" height="129" viewBox="0 0 132 129" fill="none" xmlns="http://www.w3.org/2000/svg">
<path d="M104.212 91.2V53.8333C104.212 50.35 101.362 47.5 97.8785 47.5H79.5117" stroke="#ADB7CB" stroke-width="11.4" stroke-linecap="round" stroke-linejoin="round"/>
<path d="M89.0093 38L77.6094 47.5L89.0093 57" stroke="#ADB7CB" stroke-width="11.4" stroke-linecap="round" stroke-linejoin="round"/>
<path d="M47.8359 64.6016V91.2014" stroke="#ADB7CB" stroke-width="11.4" stroke-linecap="round" stroke-linejoin="round"/>
<path d="M48.7837 62.7C55.6044 62.7 61.1337 57.1708 61.1337 50.3501C61.1337 43.5294 55.6044 38 48.7837 38C41.963 38 36.4336 43.5294 36.4336 50.3501C36.4336 57.1708 41.963 62.7 48.7837 62.7Z" stroke="#ADB7CB" stroke-width="11.4" stroke-linecap="round" stroke-linejoin="round"/>
<path d="M47.8335 114.001C54.1296 114.001 59.2334 108.897 59.2334 102.601C59.2334 96.3052 54.1296 91.2012 47.8335 91.2012C41.5375 91.2012 36.4336 96.3052 36.4336 102.601C36.4336 108.897 41.5375 114.001 47.8335 114.001Z" stroke="#ADB7CB" stroke-width="11.4" stroke-linecap="round" stroke-linejoin="round"/>
<path d="M104.209 114.001C110.505 114.001 115.608 108.897 115.608 102.601C115.608 96.3052 110.505 91.2012 104.209 91.2012C97.9125 91.2012 92.8086 96.3052 92.8086 102.601C92.8086 108.897 97.9125 114.001 104.209 114.001Z" stroke="#ADB7CB" stroke-width="11.4" stroke-linecap="round" stroke-linejoin="round"/>
<path d="M57.0091 139.329H95.0091C126.676 139.329 139.342 126.662 139.342 94.9954V56.9954C139.342 25.3288 126.676 12.6621 95.0091 12.6621H57.0091C25.3424 12.6621 12.6758 25.3288 12.6758 56.9954V94.9954C12.6758 126.662 25.3424 139.329 57.0091 139.329Z" stroke="#ADB7CB" stroke-width="11.4" stroke-linecap="round" stroke-linejoin="round"/>
</svg>
