<svg width="121" height="120" viewBox="0 0 121 120" fill="none" xmlns="http://www.w3.org/2000/svg">
<rect x="0.332031" width="120" height="120" rx="8" fill="#FF6C37" fill-opacity="0.1"/>
<path d="M106.624 63.8409C109.843 38.6375 92.0444 15.5956 66.8869 12.3762C41.7295 9.1568 18.5956 26.9556 15.3762 52.1131C12.1568 77.2705 29.9556 100.358 55.1131 103.624C80.3165 106.843 103.358 89.0444 106.624 63.8409Z" fill="#FF6C37"/>
<path d="M77.6003 41.5362L58.1918 60.9447L52.7188 55.4717C71.8053 36.3851 73.691 38.0408 77.6003 41.5362Z" fill="white"/>
<path d="M58.1899 61.4057C58.0519 61.4057 57.9599 61.3597 57.8679 61.2677L52.3489 55.7947C52.1649 55.6108 52.1649 55.3348 52.3489 55.1509C71.7574 35.7423 73.7811 37.582 77.8743 41.2614C77.9663 41.3533 78.0123 41.4453 78.0123 41.5833C78.0123 41.7213 77.9663 41.8133 77.8743 41.9052L58.4658 61.2677C58.4198 61.3597 58.2818 61.4057 58.1899 61.4057ZM53.3607 55.4728L58.1899 60.3019L76.9085 41.5833C73.5051 38.5478 71.2055 37.628 53.3607 55.4728Z" fill="#FF6C37"/>
<path d="M63.7578 66.5081L58.4688 61.219L77.8773 41.8105C83.0743 47.0536 75.3017 55.5621 63.7578 66.5081Z" fill="white"/>
<path d="M63.7577 66.967C63.6197 66.967 63.5277 66.921 63.4357 66.829L58.1467 61.54C58.0547 61.448 58.0547 61.356 58.0547 61.218C58.0547 61.0801 58.1007 60.9881 58.1927 60.8961L77.6012 41.4876C77.7851 41.3036 78.0611 41.3036 78.2451 41.4876C79.4408 42.5914 80.0847 44.1551 80.0387 45.7648C79.9467 50.8699 74.1518 57.3547 64.1256 66.829C63.9876 66.921 63.8496 66.967 63.7577 66.967ZM59.1125 61.218C62.056 64.2075 63.2977 65.4033 63.7577 65.8632C71.4843 58.5045 78.9809 50.9619 79.0269 45.7648C79.0729 44.569 78.613 43.3732 77.8311 42.4534L59.1125 61.218Z" fill="#FF6C37"/>
<path d="M52.8076 55.6107L56.7169 59.52C56.8088 59.612 56.8088 59.7039 56.7169 59.7959C56.6709 59.8419 56.6709 59.8419 56.6249 59.8419L48.5303 61.5896C48.1164 61.6356 47.7485 61.3596 47.6565 60.9457C47.6105 60.7158 47.7025 60.4858 47.8405 60.3478L52.5316 55.6567C52.6236 55.5647 52.7616 55.5187 52.8076 55.6107Z" fill="white"/>
<path d="M48.3989 62.0496C47.709 62.0496 47.2031 61.4977 47.2031 60.8078C47.2031 60.4858 47.3411 60.1639 47.5711 59.9339L52.2622 55.2428C52.5382 55.0128 52.9061 55.0128 53.182 55.2428L57.0913 59.1521C57.3673 59.382 57.3673 59.796 57.0913 60.0719C56.9994 60.1639 56.9074 60.2099 56.7694 60.2559L48.6749 62.0036C48.5829 62.0036 48.4909 62.0496 48.3989 62.0496ZM52.6761 56.1166L48.169 60.6238C48.077 60.7158 48.031 60.8538 48.123 60.9917C48.169 61.1297 48.3069 61.1757 48.4449 61.1297L56.0335 59.474L52.6761 56.1166Z" fill="#FF6C37"/>
<path d="M87.8591 30.7704C84.9157 27.9189 80.1785 28.0109 77.327 31.0004C74.4756 33.9898 74.5675 38.681 77.557 41.5325C79.9946 43.878 83.6739 44.292 86.5714 42.5443L81.3283 37.3012L87.8591 30.7704Z" fill="white"/>
<path d="M82.7035 44.0653C78.3343 44.0653 74.793 40.5239 74.793 36.1547C74.793 31.7855 78.3343 28.2441 82.7035 28.2441C84.7272 28.2441 86.7048 29.026 88.1766 30.4517C88.2685 30.5437 88.3145 30.6357 88.3145 30.7737C88.3145 30.9117 88.2685 31.0036 88.1766 31.0956L81.9677 37.3045L86.8428 42.1796C87.0268 42.3636 87.0268 42.6395 86.8428 42.8235C86.7968 42.8695 86.7968 42.8695 86.7508 42.9155C85.555 43.6514 84.1293 44.0653 82.7035 44.0653ZM82.7035 29.21C78.8402 29.21 75.7128 32.3374 75.7588 36.2007C75.7588 40.064 78.8862 43.1914 82.7495 43.1455C83.8073 43.1455 84.8652 42.9155 85.831 42.4096L81.0018 37.6264C80.9099 37.5345 80.8639 37.4425 80.8639 37.3045C80.8639 37.1665 80.9099 37.0745 81.0018 36.9826L87.1647 30.8197C85.923 29.7619 84.3592 29.21 82.7035 29.21Z" fill="#FF6C37"/>
<path d="M87.9969 30.9123L87.9049 30.8203L81.3281 37.3051L86.5252 42.5022C87.0311 42.1803 87.537 41.8123 87.9509 41.3984C90.8944 38.5009 90.8944 33.8098 87.9969 30.9123Z" fill="white"/>
<path d="M86.5663 43.0043C86.4283 43.0043 86.3363 42.9583 86.2443 42.8663L81.0013 37.6232C80.9093 37.5312 80.8633 37.4393 80.8633 37.3013C80.8633 37.1633 80.9093 37.0713 81.0013 36.9793L87.5321 30.4485C87.716 30.2646 87.992 30.2646 88.176 30.4485L88.3139 30.5405C91.3954 33.6219 91.3954 38.5891 88.3599 41.7165C87.9 42.1764 87.3941 42.5903 86.8422 42.9123C86.7042 42.9583 86.6122 43.0043 86.5663 43.0043ZM81.9671 37.3013L86.6122 41.9464C86.9802 41.7165 87.3481 41.3945 87.6241 41.1186C90.2456 38.4971 90.3836 34.2198 87.854 31.4603L81.9671 37.3013Z" fill="#FF6C37"/>
<path d="M78.3831 42.365C77.2793 41.2612 75.4856 41.2612 74.3818 42.365L57.043 59.7038L59.9404 62.6013L78.2911 46.5042C79.4869 45.4924 79.5789 43.6987 78.5671 42.5029C78.4751 42.4569 78.4291 42.411 78.3831 42.365Z" fill="white"/>
<path d="M59.8965 63.0602C59.7585 63.0602 59.6665 63.0142 59.5745 62.9222L56.677 60.0248C56.4931 59.8408 56.4931 59.5648 56.677 59.3809L74.0159 42.042C75.3037 40.7542 77.3733 40.7542 78.6611 42.042C79.9488 43.3298 79.9488 45.3994 78.6611 46.6872C78.6151 46.7332 78.5691 46.7791 78.5231 46.8251L60.1724 62.9222C60.1264 63.0142 60.0344 63.0602 59.8965 63.0602ZM57.6889 59.7028L59.9424 61.9564L77.9712 46.1353C78.983 45.3074 79.075 43.7897 78.2472 42.7779C77.4193 41.766 75.9016 41.6741 74.8898 42.5019C74.8438 42.5479 74.7978 42.5939 74.7058 42.6399L57.6889 59.7028Z" fill="#FF6C37"/>
<path d="M43.7536 79.4317C43.5696 79.5237 43.4777 79.7076 43.5237 79.8916L44.3055 83.203C44.4895 83.6629 44.2135 84.2148 43.7076 84.3528C43.3397 84.4908 42.9258 84.3528 42.6958 84.0769L37.6367 79.0638L54.1477 62.5527L59.8507 62.6447L63.714 66.508C62.7942 67.2899 57.2292 72.6709 43.7536 79.4317Z" fill="white"/>
<path d="M43.3825 84.8156C43.0146 84.8156 42.6467 84.6776 42.4167 84.4017L37.4036 79.3886C37.3116 79.2966 37.2656 79.2046 37.2656 79.0666C37.2656 78.9287 37.3116 78.8367 37.4036 78.7447L53.9146 62.2337C54.0066 62.1417 54.1446 62.0957 54.2366 62.0957L59.9395 62.1877C60.0775 62.1877 60.1695 62.2337 60.2615 62.3257L64.1248 66.189C64.2168 66.2809 64.2628 66.4189 64.2628 66.5569C64.2628 66.6949 64.2168 66.7869 64.0788 66.8788L63.7568 67.1548C58.8817 71.432 52.2589 75.7092 44.0264 79.8025L44.8083 83.0679C44.9462 83.6658 44.6703 84.3097 44.1184 84.6316C43.8424 84.7696 43.6125 84.8156 43.3825 84.8156ZM38.3234 79.0666L43.0606 83.7578C43.1986 83.9878 43.4745 84.0797 43.7045 83.9418C43.9344 83.8038 44.0264 83.5278 43.8884 83.2979L43.1066 79.9865C43.0146 79.5725 43.1986 79.2046 43.5665 79.0206C51.707 74.9274 58.2838 70.6962 63.113 66.5109L59.7096 63.1075L54.4205 63.0155L38.3234 79.0666Z" fill="#FF6C37"/>
<path d="M33.728 83.0217L37.6833 79.0664L43.5703 84.9533L34.1879 84.3095C33.774 84.2635 33.4981 83.8955 33.5441 83.4816C33.5441 83.2976 33.5901 83.1137 33.728 83.0217Z" fill="white"/>
<path d="M43.5665 85.3673L34.1382 84.7234C33.4483 84.6774 32.9884 84.0796 33.0344 83.3897C33.0804 83.1137 33.1724 82.8378 33.4023 82.6538L37.3576 78.6985C37.5416 78.5146 37.8175 78.5146 38.0015 78.6985L43.8885 84.5855C44.0264 84.7234 44.0724 84.9074 43.9804 85.0914C43.8885 85.2753 43.7505 85.3673 43.5665 85.3673ZM37.6796 79.7103L34.0462 83.3437C33.9083 83.4357 33.9083 83.6656 34.0462 83.7576C34.0922 83.8036 34.1382 83.8496 34.2302 83.8496L42.3707 84.4015L37.6796 79.7103Z" fill="#FF6C37"/>
<path d="M52.538 64.672C52.2621 64.672 52.0781 64.4421 52.0781 64.2121C52.0781 64.0742 52.1241 63.9822 52.2161 63.8902L56.6773 59.429C56.8613 59.245 57.1372 59.245 57.3212 59.429L60.2187 62.3265C60.3566 62.4644 60.4026 62.6024 60.3566 62.7864C60.3106 62.9244 60.1727 63.0623 59.9887 63.1083L52.63 64.672C52.584 64.672 52.538 64.672 52.538 64.672ZM56.9992 60.3948L53.9638 63.4303L58.9309 62.3725L56.9992 60.3948Z" fill="#FF6C37"/>
<path d="M59.8449 62.6464L54.7858 63.7502C54.4179 63.8422 54.05 63.6122 53.958 63.2443C53.912 63.0143 53.958 62.7844 54.142 62.6004L56.9475 59.7949L59.8449 62.6464Z" fill="white"/>
<path d="M54.6928 64.2121C54.0489 64.2121 53.543 63.7062 53.543 63.0623C53.543 62.7404 53.6809 62.4644 53.8649 62.2345L56.6704 59.429C56.8544 59.245 57.1303 59.245 57.3143 59.429L60.2118 62.3265C60.3497 62.4644 60.3957 62.6024 60.3497 62.7864C60.3037 62.9244 60.1658 63.0623 59.9818 63.1083L54.9227 64.2121C54.8307 64.2121 54.7388 64.2121 54.6928 64.2121ZM56.9923 60.3948L54.5088 62.8784C54.4168 62.9704 54.4168 63.0623 54.4628 63.1543C54.5088 63.2463 54.6008 63.2923 54.7388 63.2923L58.97 62.3725L56.9923 60.3948Z" fill="#FF6C37"/>
<path d="M88.0403 35.3288C87.9484 35.0529 87.6264 34.9149 87.3505 35.0069C87.0745 35.0989 86.9365 35.4208 87.0285 35.6968C87.0285 35.7428 87.0745 35.7888 87.0745 35.8347C87.3505 36.3866 87.2585 37.0765 86.8905 37.5824C86.7066 37.8124 86.7526 38.1343 86.9365 38.3183C87.1665 38.5023 87.4884 38.4563 87.6724 38.2263C88.3623 37.3525 88.5003 36.2487 88.0403 35.3288Z" fill="#FF6C37"/>
<path d="M81.9616 102.818H84.0895V109.918C84.0895 110.574 83.942 111.144 83.647 111.628C83.3554 112.112 82.9493 112.485 82.429 112.746C81.9086 113.008 81.3037 113.139 80.6143 113.139C80.0012 113.139 79.4444 113.031 78.9439 112.816C78.4467 112.597 78.0523 112.266 77.7607 111.822C77.469 111.374 77.3248 110.812 77.3281 110.136H79.4709C79.4775 110.405 79.5322 110.635 79.6349 110.827C79.741 111.016 79.8852 111.162 80.0675 111.265C80.2531 111.364 80.4718 111.414 80.7237 111.414C80.9889 111.414 81.2126 111.358 81.3949 111.245C81.5805 111.129 81.7214 110.96 81.8175 110.738C81.9136 110.516 81.9616 110.242 81.9616 109.918V102.818ZM91.3928 105.746C91.353 105.345 91.1823 105.034 90.8807 104.812C90.5791 104.59 90.1697 104.479 89.6527 104.479C89.3014 104.479 89.0047 104.528 88.7628 104.628C88.5208 104.724 88.3352 104.858 88.206 105.031C88.08 105.203 88.017 105.398 88.017 105.617C88.0104 105.799 88.0485 105.959 88.1314 106.094C88.2176 106.23 88.3352 106.348 88.4844 106.447C88.6335 106.544 88.8059 106.628 89.0014 106.701C89.197 106.771 89.4058 106.83 89.6278 106.88L90.5426 107.099C90.9867 107.198 91.3944 107.331 91.7656 107.496C92.1368 107.662 92.4583 107.866 92.7301 108.108C93.0019 108.35 93.2124 108.635 93.3615 108.963C93.514 109.291 93.5919 109.667 93.5952 110.092C93.5919 110.715 93.4328 111.255 93.1179 111.712C92.8063 112.166 92.3556 112.519 91.7656 112.771C91.179 113.02 90.4714 113.144 89.6428 113.144C88.8208 113.144 88.1049 113.018 87.495 112.766C86.8885 112.514 86.4145 112.142 86.0732 111.648C85.7351 111.151 85.5578 110.536 85.5412 109.803H87.6243C87.6475 110.145 87.7453 110.43 87.9176 110.658C88.0933 110.884 88.3269 111.054 88.6186 111.17C88.9136 111.283 89.2467 111.339 89.6179 111.339C89.9825 111.339 90.299 111.286 90.5675 111.18C90.8393 111.074 91.0497 110.927 91.1989 110.738C91.348 110.549 91.4226 110.332 91.4226 110.087C91.4226 109.858 91.3546 109.666 91.2188 109.51C91.0862 109.354 90.8906 109.222 90.6321 109.112C90.3769 109.003 90.0637 108.903 89.6925 108.814L88.5838 108.536C87.7254 108.327 87.0476 108 86.5504 107.556C86.0533 107.112 85.8063 106.514 85.8097 105.761C85.8063 105.145 85.9704 104.606 86.3018 104.146C86.6366 103.685 87.0956 103.325 87.679 103.067C88.2623 102.808 88.9252 102.679 89.6676 102.679C90.4233 102.679 91.0829 102.808 91.6463 103.067C92.2131 103.325 92.6539 103.685 92.9688 104.146C93.2836 104.606 93.446 105.14 93.456 105.746H91.3928ZM104.4 107.909C104.4 109.019 104.189 109.964 103.768 110.743C103.351 111.522 102.781 112.117 102.058 112.528C101.339 112.935 100.53 113.139 99.6319 113.139C98.7271 113.139 97.9151 112.934 97.1958 112.523C96.4766 112.112 95.9082 111.517 95.4906 110.738C95.073 109.959 94.8642 109.016 94.8642 107.909C94.8642 106.799 95.073 105.854 95.4906 105.075C95.9082 104.296 96.4766 103.703 97.1958 103.295C97.9151 102.884 98.7271 102.679 99.6319 102.679C100.53 102.679 101.339 102.884 102.058 103.295C102.781 103.703 103.351 104.296 103.768 105.075C104.189 105.854 104.4 106.799 104.4 107.909ZM102.217 107.909C102.217 107.19 102.109 106.583 101.894 106.089C101.682 105.596 101.382 105.221 100.994 104.966C100.606 104.711 100.152 104.583 99.6319 104.583C99.1116 104.583 98.6575 104.711 98.2697 104.966C97.8819 105.221 97.5803 105.596 97.3649 106.089C97.1528 106.583 97.0467 107.19 97.0467 107.909C97.0467 108.628 97.1528 109.235 97.3649 109.729C97.5803 110.223 97.8819 110.597 98.2697 110.852C98.6575 111.107 99.1116 111.235 99.6319 111.235C100.152 111.235 100.606 111.107 100.994 110.852C101.382 110.597 101.682 110.223 101.894 109.729C102.109 109.235 102.217 108.628 102.217 107.909ZM114.511 102.818V113H112.651L108.222 106.592H108.147V113H105.994V102.818H107.884L112.278 109.222H112.368V102.818H114.511Z" fill="#FF6C37"/>
</svg>
