<svg width="121" height="120" viewBox="0 0 121 120" fill="none" xmlns="http://www.w3.org/2000/svg">
<rect x="0.667969" width="120" height="120" rx="8" fill="#FF6C37" fill-opacity="0.1"/>
<path d="M103.624 61.8409C106.843 36.6375 89.0444 13.5956 63.8869 10.3762C38.7295 7.1568 15.5956 24.9556 12.3762 50.1131C9.1568 75.2705 26.9556 98.3584 52.1131 101.624C77.3165 104.843 100.358 87.0444 103.624 61.8409Z" fill="#FF6C37"/>
<path d="M74.6003 39.5362L55.1918 58.9447L49.7188 53.4717C68.8053 34.3851 70.691 36.0408 74.6003 39.5362Z" fill="white"/>
<path d="M55.1899 59.4057C55.0519 59.4057 54.9599 59.3597 54.8679 59.2677L49.3489 53.7947C49.1649 53.6108 49.1649 53.3348 49.3489 53.1509C68.7574 33.7423 70.7811 35.582 74.8743 39.2614C74.9663 39.3533 75.0123 39.4453 75.0123 39.5833C75.0123 39.7213 74.9663 39.8133 74.8743 39.9052L55.4658 59.2677C55.4198 59.3597 55.2818 59.4057 55.1899 59.4057ZM50.3607 53.4728L55.1899 58.3019L73.9085 39.5833C70.5051 36.5478 68.2055 35.628 50.3607 53.4728Z" fill="#FF6C37"/>
<path d="M60.7578 64.5081L55.4688 59.219L74.8773 39.8105C80.0743 45.0536 72.3017 53.5621 60.7578 64.5081Z" fill="white"/>
<path d="M60.7577 64.967C60.6197 64.967 60.5277 64.921 60.4357 64.829L55.1467 59.54C55.0547 59.448 55.0547 59.356 55.0547 59.218C55.0547 59.0801 55.1007 58.9881 55.1927 58.8961L74.6012 39.4876C74.7851 39.3036 75.0611 39.3036 75.2451 39.4876C76.4408 40.5914 77.0847 42.1551 77.0387 43.7648C76.9467 48.8699 71.1518 55.3547 61.1256 64.829C60.9876 64.921 60.8496 64.967 60.7577 64.967ZM56.1125 59.218C59.056 62.2075 60.2977 63.4033 60.7577 63.8632C68.4843 56.5045 75.9809 48.9619 76.0269 43.7648C76.0729 42.569 75.613 41.3732 74.8311 40.4534L56.1125 59.218Z" fill="#FF6C37"/>
<path d="M49.8076 53.6107L53.7169 57.52C53.8088 57.612 53.8088 57.7039 53.7169 57.7959C53.6709 57.8419 53.6709 57.8419 53.6249 57.8419L45.5303 59.5896C45.1164 59.6356 44.7485 59.3596 44.6565 58.9457C44.6105 58.7158 44.7025 58.4858 44.8405 58.3478L49.5316 53.6567C49.6236 53.5647 49.7616 53.5187 49.8076 53.6107Z" fill="white"/>
<path d="M45.3989 60.0496C44.709 60.0496 44.2031 59.4977 44.2031 58.8078C44.2031 58.4858 44.3411 58.1639 44.5711 57.9339L49.2622 53.2428C49.5382 53.0128 49.9061 53.0128 50.182 53.2428L54.0913 57.1521C54.3673 57.382 54.3673 57.796 54.0913 58.0719C53.9994 58.1639 53.9074 58.2099 53.7694 58.2559L45.6749 60.0036C45.5829 60.0036 45.4909 60.0496 45.3989 60.0496ZM49.6761 54.1166L45.169 58.6238C45.077 58.7158 45.031 58.8538 45.123 58.9917C45.169 59.1297 45.3069 59.1757 45.4449 59.1297L53.0335 57.474L49.6761 54.1166Z" fill="#FF6C37"/>
<path d="M84.8591 28.7704C81.9157 25.9189 77.1785 26.0109 74.327 29.0004C71.4756 31.9898 71.5675 36.681 74.557 39.5325C76.9946 41.878 80.6739 42.292 83.5714 40.5443L78.3283 35.3012L84.8591 28.7704Z" fill="white"/>
<path d="M79.7035 42.0653C75.3343 42.0653 71.793 38.5239 71.793 34.1547C71.793 29.7855 75.3343 26.2441 79.7035 26.2441C81.7272 26.2441 83.7048 27.026 85.1766 28.4517C85.2685 28.5437 85.3145 28.6357 85.3145 28.7737C85.3145 28.9117 85.2685 29.0036 85.1766 29.0956L78.9677 35.3045L83.8428 40.1796C84.0268 40.3636 84.0268 40.6395 83.8428 40.8235C83.7968 40.8695 83.7968 40.8695 83.7508 40.9155C82.555 41.6514 81.1293 42.0653 79.7035 42.0653ZM79.7035 27.21C75.8402 27.21 72.7128 30.3374 72.7588 34.2007C72.7588 38.064 75.8862 41.1914 79.7495 41.1455C80.8073 41.1455 81.8652 40.9155 82.831 40.4096L78.0018 35.6264C77.9099 35.5345 77.8639 35.4425 77.8639 35.3045C77.8639 35.1665 77.9099 35.0745 78.0018 34.9826L84.1647 28.8197C82.923 27.7619 81.3592 27.21 79.7035 27.21Z" fill="#FF6C37"/>
<path d="M84.9969 28.9123L84.9049 28.8203L78.3281 35.3051L83.5252 40.5022C84.0311 40.1803 84.537 39.8123 84.9509 39.3984C87.8944 36.5009 87.8944 31.8098 84.9969 28.9123Z" fill="white"/>
<path d="M83.5663 41.0043C83.4283 41.0043 83.3363 40.9583 83.2443 40.8663L78.0013 35.6232C77.9093 35.5312 77.8633 35.4393 77.8633 35.3013C77.8633 35.1633 77.9093 35.0713 78.0013 34.9793L84.5321 28.4485C84.716 28.2646 84.992 28.2646 85.176 28.4485L85.3139 28.5405C88.3954 31.6219 88.3954 36.5891 85.3599 39.7165C84.9 40.1764 84.3941 40.5903 83.8422 40.9123C83.7042 40.9583 83.6122 41.0043 83.5663 41.0043ZM78.9671 35.3013L83.6122 39.9464C83.9802 39.7165 84.3481 39.3945 84.6241 39.1186C87.2456 36.4971 87.3836 32.2198 84.854 29.4603L78.9671 35.3013Z" fill="#FF6C37"/>
<path d="M75.3831 40.365C74.2793 39.2612 72.4856 39.2612 71.3818 40.365L54.043 57.7038L56.9404 60.6013L75.2911 44.5042C76.4869 43.4924 76.5789 41.6987 75.5671 40.5029C75.4751 40.4569 75.4291 40.411 75.3831 40.365Z" fill="white"/>
<path d="M56.8965 61.0602C56.7585 61.0602 56.6665 61.0142 56.5745 60.9222L53.677 58.0248C53.4931 57.8408 53.4931 57.5648 53.677 57.3809L71.0159 40.042C72.3037 38.7542 74.3733 38.7542 75.6611 40.042C76.9488 41.3298 76.9488 43.3994 75.6611 44.6872C75.6151 44.7332 75.5691 44.7791 75.5231 44.8251L57.1724 60.9222C57.1264 61.0142 57.0344 61.0602 56.8965 61.0602ZM54.6889 57.7028L56.9424 59.9564L74.9712 44.1353C75.983 43.3074 76.075 41.7897 75.2472 40.7779C74.4193 39.766 72.9016 39.6741 71.8898 40.5019C71.8438 40.5479 71.7978 40.5939 71.7058 40.6399L54.6889 57.7028Z" fill="#FF6C37"/>
<path d="M40.7536 77.4317C40.5696 77.5237 40.4777 77.7076 40.5237 77.8916L41.3055 81.203C41.4895 81.6629 41.2135 82.2148 40.7076 82.3528C40.3397 82.4908 39.9258 82.3528 39.6958 82.0769L34.6367 77.0638L51.1477 60.5527L56.8507 60.6447L60.714 64.508C59.7942 65.2899 54.2292 70.6709 40.7536 77.4317Z" fill="white"/>
<path d="M40.3825 82.8156C40.0146 82.8156 39.6467 82.6776 39.4167 82.4017L34.4036 77.3886C34.3116 77.2966 34.2656 77.2046 34.2656 77.0666C34.2656 76.9287 34.3116 76.8367 34.4036 76.7447L50.9146 60.2337C51.0066 60.1417 51.1446 60.0957 51.2366 60.0957L56.9395 60.1877C57.0775 60.1877 57.1695 60.2337 57.2615 60.3257L61.1248 64.189C61.2168 64.2809 61.2628 64.4189 61.2628 64.5569C61.2628 64.6949 61.2168 64.7869 61.0788 64.8788L60.7568 65.1548C55.8817 69.432 49.2589 73.7092 41.0264 77.8025L41.8083 81.0679C41.9462 81.6658 41.6703 82.3097 41.1184 82.6316C40.8424 82.7696 40.6125 82.8156 40.3825 82.8156ZM35.3234 77.0666L40.0606 81.7578C40.1986 81.9878 40.4745 82.0797 40.7045 81.9418C40.9344 81.8038 41.0264 81.5278 40.8884 81.2979L40.1066 77.9865C40.0146 77.5725 40.1986 77.2046 40.5665 77.0206C48.707 72.9274 55.2838 68.6962 60.113 64.5109L56.7096 61.1075L51.4205 61.0155L35.3234 77.0666Z" fill="#FF6C37"/>
<path d="M30.728 81.0217L34.6833 77.0664L40.5703 82.9533L31.1879 82.3095C30.774 82.2635 30.4981 81.8955 30.5441 81.4816C30.5441 81.2976 30.5901 81.1137 30.728 81.0217Z" fill="white"/>
<path d="M40.5665 83.3673L31.1382 82.7234C30.4483 82.6774 29.9884 82.0796 30.0344 81.3897C30.0804 81.1137 30.1724 80.8378 30.4023 80.6538L34.3576 76.6985C34.5416 76.5146 34.8175 76.5146 35.0015 76.6985L40.8885 82.5855C41.0264 82.7234 41.0724 82.9074 40.9804 83.0914C40.8885 83.2753 40.7505 83.3673 40.5665 83.3673ZM34.6796 77.7103L31.0462 81.3437C30.9083 81.4357 30.9083 81.6656 31.0462 81.7576C31.0922 81.8036 31.1382 81.8496 31.2302 81.8496L39.3707 82.4015L34.6796 77.7103Z" fill="#FF6C37"/>
<path d="M49.538 62.672C49.2621 62.672 49.0781 62.4421 49.0781 62.2121C49.0781 62.0742 49.1241 61.9822 49.2161 61.8902L53.6773 57.429C53.8613 57.245 54.1372 57.245 54.3212 57.429L57.2187 60.3265C57.3566 60.4644 57.4026 60.6024 57.3566 60.7864C57.3106 60.9244 57.1727 61.0623 56.9887 61.1083L49.63 62.672C49.584 62.672 49.538 62.672 49.538 62.672ZM53.9992 58.3948L50.9638 61.4303L55.9309 60.3725L53.9992 58.3948Z" fill="#FF6C37"/>
<path d="M56.8449 60.6464L51.7858 61.7502C51.4179 61.8422 51.05 61.6122 50.958 61.2443C50.912 61.0143 50.958 60.7844 51.142 60.6004L53.9475 57.7949L56.8449 60.6464Z" fill="white"/>
<path d="M51.6928 62.2121C51.0489 62.2121 50.543 61.7062 50.543 61.0623C50.543 60.7404 50.6809 60.4644 50.8649 60.2345L53.6704 57.429C53.8544 57.245 54.1303 57.245 54.3143 57.429L57.2118 60.3265C57.3497 60.4644 57.3957 60.6024 57.3497 60.7864C57.3037 60.9244 57.1658 61.0623 56.9818 61.1083L51.9227 62.2121C51.8307 62.2121 51.7388 62.2121 51.6928 62.2121ZM53.9923 58.3948L51.5088 60.8784C51.4168 60.9704 51.4168 61.0623 51.4628 61.1543C51.5088 61.2463 51.6008 61.2923 51.7388 61.2923L55.97 60.3725L53.9923 58.3948Z" fill="#FF6C37"/>
<path d="M85.0403 33.3288C84.9484 33.0529 84.6264 32.9149 84.3505 33.0069C84.0745 33.0989 83.9365 33.4208 84.0285 33.6968C84.0285 33.7428 84.0745 33.7888 84.0745 33.8347C84.3505 34.3866 84.2585 35.0765 83.8905 35.5824C83.7066 35.8124 83.7526 36.1343 83.9365 36.3183C84.1665 36.5023 84.4884 36.4563 84.6724 36.2263C85.3623 35.3525 85.5003 34.2487 85.0403 33.3288Z" fill="#FF6C37"/>
<path d="M91.27 102C90.48 101.05 90 99.83 90 98.5C90 95.48 92.47 93 95.5 93H100.5C103.52 93 106 95.48 106 98.5C106 101.52 103.53 104 100.5 104H98" stroke="#FF6C37" stroke-width="1.5" stroke-linecap="round" stroke-linejoin="round"/>
<path d="M108.73 102C109.52 102.95 110 104.17 110 105.5C110 108.52 107.53 111 104.5 111H99.5C96.48 111 94 108.52 94 105.5C94 102.48 96.47 100 99.5 100H102" stroke="#FF6C37" stroke-width="1.5" stroke-linecap="round" stroke-linejoin="round"/>
</svg>
