<svg width="120" height="120" viewBox="0 0 120 120" fill="none" xmlns="http://www.w3.org/2000/svg">
<path d="M104.625 59.9994C104.624 70.3236 101.044 80.3281 94.4936 88.3083C87.9435 96.2886 78.8289 101.751 68.703 103.764C58.577 105.778 48.0662 104.218 38.9614 99.3505C29.8566 94.4832 22.7211 86.6094 18.7708 77.0709C14.8205 67.5323 14.2998 56.9191 17.2973 47.0397C20.2948 37.1602 26.6252 28.6258 35.2098 22.8904C43.7944 17.1551 54.102 14.5738 64.3764 15.5863C74.6508 16.5988 84.2563 21.1425 91.5563 28.4431C95.7061 32.5827 98.997 37.5016 101.24 42.9171C103.483 48.3325 104.633 54.1379 104.625 59.9994Z" fill="#6D9A00"/>
<path d="M43.7257 59.9366C43.7055 59.4503 43.7865 58.965 43.9636 58.5116C44.1406 58.0582 44.4098 57.6464 44.7542 57.3024C45.0986 56.9584 45.5106 56.6896 45.9642 56.513C46.4178 56.3365 46.9031 56.256 47.3894 56.2766C48.1131 56.2773 48.8204 56.4926 49.4218 56.8952C50.0232 57.2979 50.4917 57.8697 50.7681 58.5386C51.0446 59.2074 51.1165 59.9432 50.9749 60.6529C50.8332 61.3627 50.4844 62.0145 49.9724 62.5259C49.4604 63.0374 48.8082 63.3856 48.0983 63.5266C47.3885 63.6675 46.6527 63.5948 45.9842 63.3176C45.3156 63.0405 44.7442 62.5714 44.3422 61.9696C43.9402 61.3678 43.7257 60.6603 43.7257 59.9366Z" fill="white"/>
<path d="M56.3663 59.9366C56.3461 59.4503 56.4271 58.965 56.6042 58.5116C56.7812 58.0582 57.0504 57.6464 57.3948 57.3024C57.7392 56.9584 58.1512 56.6896 58.6048 56.513C59.0584 56.3365 59.5437 56.256 60.03 56.2766C60.7538 56.2773 61.461 56.4926 62.0624 56.8952C62.6638 57.2979 63.1323 57.8697 63.4088 58.5386C63.6852 59.2074 63.7572 59.9432 63.6155 60.6529C63.4739 61.3627 63.125 62.0145 62.613 62.5259C62.101 63.0374 61.4488 63.3856 60.739 63.5266C60.0291 63.6675 59.2934 63.5948 58.6248 63.3176C57.9563 63.0405 57.3849 62.5714 56.9829 61.9696C56.5809 61.3678 56.3663 60.6603 56.3663 59.9366Z" fill="white"/>
<path d="M68.9991 59.9366C68.979 59.4503 69.06 58.965 69.237 58.5116C69.414 58.0582 69.6833 57.6464 70.0276 57.3024C70.372 56.9584 70.784 56.6896 71.2376 56.513C71.6912 56.3365 72.1765 56.256 72.6629 56.2766C73.3866 56.2773 74.0938 56.4926 74.6952 56.8952C75.2966 57.2979 75.7651 57.8697 76.0416 58.5386C76.318 59.2074 76.39 59.9432 76.2483 60.6529C76.1067 61.3627 75.7578 62.0145 75.2458 62.5259C74.7338 63.0374 74.0816 63.3856 73.3718 63.5266C72.6619 63.6675 71.9262 63.5948 71.2576 63.3176C70.5891 63.0405 70.0177 62.5714 69.6157 61.9696C69.2137 61.3678 68.9991 60.6603 68.9991 59.9366Z" fill="white"/>
<path d="M28.5703 63.337V56.782C29.6928 56.7807 30.808 56.6009 31.8741 56.2495C32.5673 55.8638 33.1378 55.2907 33.5203 54.5957C34.0251 53.6974 34.3488 52.7087 34.4728 51.6857C34.6435 50.172 34.7124 48.6486 34.6791 47.1257C34.6015 44.6542 34.756 42.1809 35.1403 39.7382C35.3753 38.4803 35.9542 37.3121 36.8128 36.3632C37.6031 35.3932 38.6585 34.674 39.8503 34.2932C41.4647 33.902 43.1255 33.7367 44.7853 33.802H46.1466V39.1907C44.915 39.1141 43.679 39.2292 42.4828 39.532C41.9764 39.7302 41.5539 40.0971 41.2866 40.5707C40.9963 41.7235 40.8701 42.9114 40.9116 44.0995C40.9116 45.247 40.8341 47.4232 40.6791 50.6282C40.6445 52.112 40.4201 53.5852 40.0116 55.012C39.7138 56.0073 39.2484 56.9445 38.6353 57.7832C37.9046 58.6612 37.0418 59.4203 36.0778 60.0332C37.0304 60.6001 37.8716 61.3359 38.5603 62.2045C39.2377 63.1023 39.739 64.1202 40.0378 65.2045C40.4348 66.7588 40.6587 68.3522 40.7053 69.9557C40.8253 72.9782 40.8853 74.9082 40.8853 75.7457C40.8407 76.9251 40.9799 78.1042 41.2978 79.2407C41.5858 79.7267 42.0241 80.1058 42.5466 80.3207C43.7211 80.6453 44.9416 80.7721 46.1578 80.6957V86.2682H44.7966C43.1523 86.3064 41.5136 86.0629 39.9516 85.5482C38.7593 85.1904 37.6811 84.5273 36.8241 83.6245C35.9564 82.6768 35.365 81.5096 35.1141 80.2495C34.7635 78.1611 34.6166 76.0437 34.6753 73.927C34.7644 71.7423 34.6262 69.5543 34.2628 67.3982C34.0337 66.2026 33.4357 65.1089 32.5528 64.2707C31.3304 63.6151 29.9568 63.2931 28.5703 63.337Z" fill="white"/>
<path d="M87.3197 64.286C86.4368 65.1242 85.8388 66.2179 85.6097 67.4135C85.2464 69.5696 85.1081 71.7576 85.1972 73.9423C85.2525 76.0543 85.103 78.1666 84.7509 80.2498C84.5 81.5099 83.9086 82.6772 83.0409 83.6248C82.1884 84.538 81.1114 85.2116 79.9172 85.5785C78.3551 86.0932 76.7164 86.3368 75.0722 86.2985H73.7109V80.7373C74.9272 80.8136 76.1476 80.6869 77.3222 80.3623C77.8446 80.1474 78.2829 79.7683 78.5709 79.2823C78.8889 78.1457 79.028 76.9666 78.9834 75.7873C78.9834 74.9498 79.0434 73.0198 79.1634 69.9973C79.2128 68.3947 79.4391 66.8026 79.8384 65.2498C80.1373 64.1655 80.6386 63.1476 81.3159 62.2498C82.0046 61.3812 82.8459 60.6454 83.7984 60.0785C82.8345 59.4656 81.9717 58.7065 81.2409 57.8285C80.6279 56.9898 80.1625 56.0526 79.8647 55.0573C79.4561 53.6305 79.2318 52.1573 79.1972 50.6735C79.0422 47.4685 78.9647 45.2923 78.9647 44.1448C79.0062 42.9568 78.8799 41.7688 78.5897 40.616C78.3224 40.1424 77.8999 39.7755 77.3934 39.5773C76.1972 39.2745 74.9612 39.1594 73.7297 39.236V33.8098H75.0909C76.7507 33.7445 78.4116 33.9098 80.0259 34.301C81.2178 34.6818 82.2731 35.401 83.0634 36.371C83.922 37.3199 84.5009 38.4881 84.7359 39.746C85.1203 42.1887 85.2747 44.662 85.1972 47.1335C85.1639 48.6564 85.2328 50.1799 85.4034 51.6935C85.5275 52.7165 85.8511 53.7052 86.3559 54.6035C86.7385 55.2985 87.309 55.8716 88.0022 56.2573C89.0702 56.6121 90.188 56.7944 91.3134 56.7973V63.3373C89.9218 63.296 88.544 63.6233 87.3197 64.286Z" fill="white"/>
</svg>
