<svg width="21" height="20" viewBox="0 0 21 20" fill="none" xmlns="http://www.w3.org/2000/svg">
<g clip-path="url(#clip0_3189_78216)">
<path d="M5.03125 5.21569H12.9062C13.1383 5.21569 13.3609 5.12408 13.525 4.961C13.6891 4.79793 13.7812 4.57676 13.7812 4.34613C13.7812 4.1155 13.6891 3.89432 13.525 3.73126C13.3609 3.56817 13.1383 3.47656 12.9062 3.47656H5.03125C4.79918 3.47656 4.57662 3.56817 4.41254 3.73126C4.24843 3.89432 4.15625 4.1155 4.15625 4.34613C4.15625 4.57676 4.24843 4.79793 4.41254 4.961C4.57662 5.12408 4.79918 5.21569 5.03125 5.21569Z" fill="black"/>
<path d="M5.03125 8.69616H12.9062C13.1383 8.69616 13.3609 8.60455 13.525 8.44147C13.6891 8.2784 13.7812 8.05723 13.7812 7.8266C13.7812 7.59597 13.6891 7.37479 13.525 7.21173C13.3609 7.04864 13.1383 6.95703 12.9062 6.95703H5.03125C4.79918 6.95703 4.57662 7.04864 4.41254 7.21173C4.24843 7.37479 4.15625 7.59597 4.15625 7.8266C4.15625 8.05723 4.24843 8.2784 4.41254 8.44147C4.57662 8.60455 4.79918 8.69616 5.03125 8.69616Z" fill="black"/>
<path d="M12.9062 12.1727C13.1383 12.1727 13.3609 12.0811 13.525 11.918C13.6891 11.755 13.7812 11.5338 13.7812 11.3032C13.7812 11.0725 13.6891 10.8514 13.525 10.6883C13.3609 10.5252 13.1383 10.4336 12.9062 10.4336H5.03125C4.79918 10.4336 4.57662 10.5252 4.41254 10.6883C4.24843 10.8514 4.15625 11.0725 4.15625 11.3032C4.15625 11.5338 4.24843 11.755 4.41254 11.918C4.57662 12.0811 4.79918 12.1727 5.03125 12.1727H12.9062Z" fill="black"/>
<path d="M20.125 13.913H16.625V2.6087C16.625 1.91683 16.3484 1.2533 15.8562 0.76407C15.3639 0.274843 14.6962 0 14 0H2.625C1.92881 0 1.26113 0.274843 0.768845 0.76407C0.276561 1.2533 0 1.91683 0 2.6087V15.6522C0 16.2231 0.113163 16.7885 0.333027 17.316C0.552891 17.8435 0.875151 18.3228 1.28141 18.7265C2.10188 19.5419 3.21468 20 4.375 20H16.625C17.1995 20 17.7685 19.8875 18.2992 19.669C18.83 19.4505 19.3123 19.1303 19.7186 18.7265C20.1248 18.3228 20.4471 17.8435 20.667 17.316C20.8868 16.7885 21 16.2231 21 15.6522V14.7826C21 14.552 20.9078 14.3308 20.7437 14.1677C20.5796 14.0047 20.3571 13.913 20.125 13.913ZM1.75 15.6522V2.6087C1.75 2.37807 1.84219 2.1569 2.00628 1.99382C2.17038 1.83075 2.39293 1.73913 2.625 1.73913H14C14.2321 1.73913 14.4546 1.83075 14.6187 1.99382C14.7828 2.1569 14.875 2.37807 14.875 2.6087V13.913H7.875C7.64293 13.913 7.42037 14.0047 7.25629 14.1677C7.09218 14.3308 7 14.552 7 14.7826V15.6522C7 16.344 6.72343 17.0076 6.23116 17.4968C5.73886 17.986 5.07119 18.2609 4.375 18.2609C3.67881 18.2609 3.01114 17.986 2.51884 17.4968C2.02656 17.0076 1.75 16.344 1.75 15.6522ZM16.625 18.2609H7.85313C8.43192 17.5126 8.74707 16.596 8.75 15.6522H19.25C19.25 16.344 18.9734 17.0076 18.4812 17.4968C17.9889 17.986 17.3212 18.2609 16.625 18.2609Z" fill="black"/>
</g>
<defs>
<clipPath id="clip0_3189_78216">
<rect width="21" height="20" fill="white"/>
</clipPath>
</defs>
</svg>
