<svg width="211" height="101" viewBox="0 0 211 101" fill="none" xmlns="http://www.w3.org/2000/svg">
<path d="M200.25 0.25H10.25C4.72715 0.25 0.25 4.72715 0.25 10.25V90.25C0.25 95.7729 4.72715 100.25 10.25 100.25H200.25C205.773 100.25 210.25 95.7729 210.25 90.25V10.25C210.25 4.72715 205.773 0.25 200.25 0.25Z" fill="white" stroke="#E5E7EB" stroke-width="0.5"/>
<path d="M14.8189 24.25V17.7045H17.4013C17.8977 17.7045 18.3207 17.7994 18.6701 17.989C19.0195 18.1765 19.2859 18.4375 19.4691 18.772C19.6545 19.1044 19.7472 19.4879 19.7472 19.9226C19.7472 20.3572 19.6534 20.7408 19.4659 21.0732C19.2784 21.4055 19.0067 21.6644 18.6509 21.8498C18.2972 22.0352 17.869 22.1278 17.3661 22.1278H15.7202V21.0188H17.1424C17.4087 21.0188 17.6282 20.973 17.8008 20.8814C17.9755 20.7876 18.1055 20.6587 18.1907 20.4947C18.2781 20.3285 18.3217 20.1378 18.3217 19.9226C18.3217 19.7053 18.2781 19.5156 18.1907 19.3537C18.1055 19.1896 17.9755 19.0629 17.8008 18.9734C17.6261 18.8817 17.4045 18.8359 17.136 18.8359H16.2028V24.25H14.8189ZM21.0184 24.25H19.5354L21.795 17.7045H23.5784L25.8348 24.25H24.3518L22.7123 19.2003H22.6611L21.0184 24.25ZM20.9257 21.6772H24.4285V22.7575H20.9257V21.6772ZM26.6226 24.25V17.7045H29.205C29.6993 17.7045 30.1212 17.793 30.4706 17.9698C30.8222 18.1445 31.0896 18.3928 31.2728 18.7145C31.4582 19.0341 31.5509 19.4102 31.5509 19.8427C31.5509 20.2773 31.4571 20.6513 31.2696 20.9645C31.0821 21.2756 30.8105 21.5142 30.4546 21.6804C30.1009 21.8466 29.6727 21.9297 29.1698 21.9297H27.4408V20.8175H28.9461C29.2103 20.8175 29.4298 20.7812 29.6045 20.7088C29.7792 20.6364 29.9092 20.5277 29.9944 20.3828C30.0818 20.2379 30.1254 20.0579 30.1254 19.8427C30.1254 19.6254 30.0818 19.4421 29.9944 19.293C29.9092 19.1438 29.7781 19.0309 29.6013 18.9542C29.4266 18.8754 29.2061 18.8359 28.9397 18.8359H28.0065V24.25H26.6226ZM30.1574 21.2713L31.7842 24.25H30.2565L28.6649 21.2713H30.1574ZM32.2796 18.8455V17.7045H37.6553V18.8455H35.6514V24.25H34.2835V18.8455H32.2796ZM44.0154 17.7045V24.25H42.82L39.9724 20.1303H39.9244V24.25H38.5406V17.7045H39.7551L42.5803 21.821H42.6379V17.7045H44.0154ZM45.1587 24.25V17.7045H49.5692V18.8455H46.5426V20.4052H49.3423V21.5462H46.5426V23.109H49.582V24.25H45.1587ZM50.6695 24.25V17.7045H53.2519C53.7462 17.7045 54.1681 17.793 54.5175 17.9698C54.8691 18.1445 55.1365 18.3928 55.3197 18.7145C55.5051 19.0341 55.5977 19.4102 55.5977 19.8427C55.5977 20.2773 55.504 20.6513 55.3165 20.9645C55.129 21.2756 54.8573 21.5142 54.5015 21.6804C54.1478 21.8466 53.7195 21.9297 53.2167 21.9297H51.4877V20.8175H52.993C53.2572 20.8175 53.4767 20.7812 53.6514 20.7088C53.8261 20.6364 53.9561 20.5277 54.0413 20.3828C54.1286 20.2379 54.1723 20.0579 54.1723 19.8427C54.1723 19.6254 54.1286 19.4421 54.0413 19.293C53.9561 19.1438 53.825 19.0309 53.6482 18.9542C53.4735 18.8754 53.2529 18.8359 52.9866 18.8359H52.0534V24.25H50.6695ZM54.2043 21.2713L55.8311 24.25H54.3034L52.7117 21.2713H54.2043ZM59.6088 20.4371V21.5174H56.6237V20.4371H59.6088ZM64.3453 19.587C64.3197 19.3292 64.21 19.1289 64.0161 18.9862C63.8222 18.8434 63.559 18.772 63.2267 18.772C63.0008 18.772 62.8101 18.804 62.6546 18.8679C62.499 18.9297 62.3797 19.016 62.2966 19.1268C62.2156 19.2376 62.1752 19.3633 62.1752 19.5039C62.1709 19.6211 62.1954 19.7234 62.2487 19.8107C62.3041 19.8981 62.3797 19.9737 62.4756 20.0376C62.5715 20.0994 62.6823 20.1538 62.808 20.2006C62.9337 20.2454 63.0679 20.2837 63.2107 20.3157L63.7987 20.4563C64.0843 20.5202 64.3463 20.6055 64.585 20.712C64.8236 20.8185 65.0303 20.9496 65.205 21.1051C65.3797 21.2607 65.515 21.4439 65.6109 21.6548C65.7089 21.8658 65.759 22.1076 65.7611 22.3803C65.759 22.7809 65.6567 23.1282 65.4543 23.4222C65.254 23.7141 64.9642 23.9411 64.585 24.103C64.2078 24.2628 63.7529 24.3427 63.2203 24.3427C62.6919 24.3427 62.2316 24.2617 61.8396 24.0998C61.4497 23.9379 61.145 23.6982 60.9255 23.3807C60.7082 23.0611 60.5942 22.6658 60.5835 22.195H61.9227C61.9376 22.4144 62.0004 22.5977 62.1112 22.7447C62.2242 22.8896 62.3744 22.9993 62.5619 23.0739C62.7515 23.1463 62.9656 23.1825 63.2043 23.1825C63.4387 23.1825 63.6421 23.1484 63.8147 23.0803C63.9894 23.0121 64.1247 22.9173 64.2206 22.7958C64.3165 22.6744 64.3644 22.5348 64.3644 22.3771C64.3644 22.2301 64.3208 22.1065 64.2334 22.0064C64.1482 21.9062 64.0225 21.821 63.8563 21.7507C63.6922 21.6804 63.4909 21.6165 63.2522 21.5589L62.5395 21.38C61.9877 21.2457 61.5519 21.0359 61.2323 20.7504C60.9127 20.4648 60.754 20.0803 60.7561 19.5966C60.754 19.2003 60.8595 18.854 61.0725 18.5579C61.2877 18.2617 61.5828 18.0305 61.9578 17.8643C62.3328 17.6982 62.759 17.6151 63.2362 17.6151C63.722 17.6151 64.146 17.6982 64.5083 17.8643C64.8726 18.0305 65.156 18.2617 65.3584 18.5579C65.5608 18.854 65.6652 19.1971 65.6716 19.587H64.3453ZM72.7069 20.9773C72.7069 21.6911 72.5716 22.2983 72.301 22.799C72.0325 23.2997 71.666 23.6822 71.2015 23.9464C70.7392 24.2085 70.2193 24.3395 69.6419 24.3395C69.0602 24.3395 68.5382 24.2074 68.0758 23.9432C67.6135 23.679 67.248 23.2965 66.9796 22.7958C66.7111 22.2951 66.5769 21.6889 66.5769 20.9773C66.5769 20.2635 66.7111 19.6562 66.9796 19.1555C67.248 18.6548 67.6135 18.2734 68.0758 18.0114C68.5382 17.7472 69.0602 17.6151 69.6419 17.6151C70.2193 17.6151 70.7392 17.7472 71.2015 18.0114C71.666 18.2734 72.0325 18.6548 72.301 19.1555C72.5716 19.6562 72.7069 20.2635 72.7069 20.9773ZM71.3038 20.9773C71.3038 20.5149 71.2346 20.125 71.0961 19.8075C70.9597 19.4901 70.7669 19.2493 70.5176 19.0852C70.2683 18.9212 69.9764 18.8391 69.6419 18.8391C69.3074 18.8391 69.0154 18.9212 68.7662 19.0852C68.5169 19.2493 68.323 19.4901 68.1845 19.8075C68.0481 20.125 67.9799 20.5149 67.9799 20.9773C67.9799 21.4396 68.0481 21.8295 68.1845 22.147C68.323 22.4645 68.5169 22.7053 68.7662 22.8693C69.0154 23.0334 69.3074 23.1154 69.6419 23.1154C69.9764 23.1154 70.2683 23.0334 70.5176 22.8693C70.7669 22.7053 70.9597 22.4645 71.0961 22.147C71.2346 21.8295 71.3038 21.4396 71.3038 20.9773ZM77.7749 17.7045H79.1588V21.9553C79.1588 22.4325 79.0448 22.8501 78.8169 23.2081C78.591 23.5661 78.2746 23.8452 77.8676 24.0455C77.4607 24.2436 76.9866 24.3427 76.4454 24.3427C75.9021 24.3427 75.4269 24.2436 75.02 24.0455C74.613 23.8452 74.2966 23.5661 74.0708 23.2081C73.8449 22.8501 73.732 22.4325 73.732 21.9553V17.7045H75.1159V21.837C75.1159 22.0863 75.1702 22.3079 75.2789 22.5018C75.3896 22.6957 75.5452 22.848 75.7455 22.9588C75.9458 23.0696 76.1791 23.125 76.4454 23.125C76.7139 23.125 76.9472 23.0696 77.1453 22.9588C77.3456 22.848 77.5001 22.6957 77.6088 22.5018C77.7195 22.3079 77.7749 22.0863 77.7749 21.837V17.7045ZM80.2974 24.25V17.7045H82.8798C83.3741 17.7045 83.796 17.793 84.1454 17.9698C84.497 18.1445 84.7644 18.3928 84.9476 18.7145C85.133 19.0341 85.2257 19.4102 85.2257 19.8427C85.2257 20.2773 85.1319 20.6513 84.9444 20.9645C84.7569 21.2756 84.4853 21.5142 84.1294 21.6804C83.7757 21.8466 83.3475 21.9297 82.8446 21.9297H81.1156V20.8175H82.6209C82.8851 20.8175 83.1046 20.7812 83.2793 20.7088C83.454 20.6364 83.584 20.5277 83.6692 20.3828C83.7566 20.2379 83.8002 20.0579 83.8002 19.8427C83.8002 19.6254 83.7566 19.4421 83.6692 19.293C83.584 19.1438 83.4529 19.0309 83.2761 18.9542C83.1014 18.8754 82.8809 18.8359 82.6145 18.8359H81.6813V24.25H80.2974ZM83.8322 21.2713L85.459 24.25H83.9313L82.3397 21.2713H83.8322ZM91.9789 19.9961H90.579C90.5534 19.815 90.5012 19.6541 90.4224 19.5135C90.3436 19.3707 90.2424 19.2493 90.1188 19.1491C89.9952 19.049 89.8525 18.9723 89.6905 18.919C89.5307 18.8658 89.3571 18.8391 89.1696 18.8391C88.8308 18.8391 88.5357 18.9233 88.2843 19.0916C88.0328 19.2578 87.8379 19.5007 87.6994 19.8203C87.5609 20.1378 87.4917 20.5234 87.4917 20.9773C87.4917 21.4439 87.5609 21.8359 87.6994 22.1534C87.84 22.4709 88.036 22.7106 88.2875 22.8725C88.5389 23.0344 88.8297 23.1154 89.16 23.1154C89.3453 23.1154 89.5169 23.0909 89.6745 23.0419C89.8343 22.9929 89.976 22.9215 90.0996 22.8278C90.2232 22.7319 90.3255 22.6158 90.4064 22.4794C90.4895 22.343 90.5471 22.1875 90.579 22.0128L91.9789 22.0192C91.9426 22.3196 91.8521 22.6094 91.7072 22.8885C91.5645 23.1655 91.3716 23.4137 91.1287 23.6332C90.888 23.8505 90.6003 24.0231 90.2658 24.1509C89.9334 24.2766 89.5574 24.3395 89.1376 24.3395C88.5538 24.3395 88.0318 24.2074 87.5716 23.9432C87.1135 23.679 86.7512 23.2965 86.4849 22.7958C86.2207 22.2951 86.0886 21.6889 86.0886 20.9773C86.0886 20.2635 86.2228 19.6562 86.4913 19.1555C86.7598 18.6548 87.1241 18.2734 87.5843 18.0114C88.0446 17.7472 88.5623 17.6151 89.1376 17.6151C89.5169 17.6151 89.8684 17.6683 90.1923 17.7749C90.5183 17.8814 90.807 18.0369 91.0584 18.2415C91.3098 18.4439 91.5144 18.6921 91.6721 18.9862C91.8319 19.2802 91.9341 19.6168 91.9789 19.9961ZM92.9712 24.25V17.7045H97.3817V18.8455H94.3551V20.4052H97.1548V21.5462H94.3551V23.109H97.3945V24.25H92.9712ZM100.802 24.25H98.482V17.7045H100.821C101.48 17.7045 102.047 17.8356 102.522 18.0977C102.997 18.3576 103.362 18.7315 103.618 19.2195C103.876 19.7074 104.005 20.2912 104.005 20.9709C104.005 21.6527 103.876 22.2386 103.618 22.7287C103.362 23.2187 102.995 23.5948 102.515 23.8569C102.038 24.119 101.467 24.25 100.802 24.25ZM99.8659 23.0643H100.745C101.154 23.0643 101.498 22.9918 101.777 22.8469C102.058 22.6999 102.269 22.473 102.41 22.1662C102.553 21.8572 102.624 21.4588 102.624 20.9709C102.624 20.4872 102.553 20.092 102.41 19.7852C102.269 19.4783 102.059 19.2525 101.78 19.1076C101.501 18.9627 101.157 18.8903 100.748 18.8903H99.8659V23.0643ZM107.113 24.25V17.7045H109.695C110.19 17.7045 110.611 17.793 110.961 17.9698C111.312 18.1445 111.58 18.3928 111.763 18.7145C111.948 19.0341 112.041 19.4102 112.041 19.8427C112.041 20.2773 111.947 20.6513 111.76 20.9645C111.572 21.2756 111.301 21.5142 110.945 21.6804C110.591 21.8466 110.163 21.9297 109.66 21.9297H107.931V20.8175H109.436C109.701 20.8175 109.92 20.7812 110.095 20.7088C110.269 20.6364 110.399 20.5277 110.485 20.3828C110.572 20.2379 110.616 20.0579 110.616 19.8427C110.616 19.6254 110.572 19.4421 110.485 19.293C110.399 19.1438 110.268 19.0309 110.092 18.9542C109.917 18.8754 109.696 18.8359 109.43 18.8359H108.497V24.25H107.113ZM110.648 21.2713L112.274 24.25H110.747L109.155 21.2713H110.648ZM113.019 24.25V17.7045H117.43V18.8455H114.403V20.4052H117.203V21.5462H114.403V23.109H117.442V24.25H113.019ZM119.712 17.7045L121.294 22.6776H121.355L122.94 17.7045H124.474L122.218 24.25H120.435L118.175 17.7045H119.712ZM125.262 24.25V17.7045H129.673V18.8455H126.646V20.4052H129.446V21.5462H126.646V23.109H129.686V24.25H125.262ZM136.248 17.7045V24.25H135.052L132.205 20.1303H132.157V24.25H130.773V17.7045H131.987L134.813 21.821H134.87V17.7045H136.248ZM141.434 17.7045H142.818V21.9553C142.818 22.4325 142.704 22.8501 142.476 23.2081C142.25 23.5661 141.934 23.8452 141.527 24.0455C141.12 24.2436 140.646 24.3427 140.105 24.3427C139.561 24.3427 139.086 24.2436 138.679 24.0455C138.272 23.8452 137.956 23.5661 137.73 23.2081C137.504 22.8501 137.391 22.4325 137.391 21.9553V17.7045H138.775V21.837C138.775 22.0863 138.829 22.3079 138.938 22.5018C139.049 22.6957 139.204 22.848 139.405 22.9588C139.605 23.0696 139.838 23.125 140.105 23.125C140.373 23.125 140.606 23.0696 140.805 22.9588C141.005 22.848 141.159 22.6957 141.268 22.5018C141.379 22.3079 141.434 22.0863 141.434 21.837V17.7045ZM143.957 24.25V17.7045H148.367V18.8455H145.34V20.4052H148.14V21.5462H145.34V23.109H148.38V24.25H143.957Z" fill="#9CA3AF"/>
<path d="M22.1349 53.6136V29.9773H23.6491V53.6136H22.1349ZM26.1513 37.7791C26.0774 37.0343 25.7604 36.4557 25.2003 36.0433C24.6402 35.6309 23.88 35.4247 22.9197 35.4247C22.2673 35.4247 21.7164 35.517 21.267 35.7017C20.8177 35.8802 20.473 36.1295 20.233 36.4496C19.9991 36.7696 19.8821 37.1328 19.8821 37.5391C19.8698 37.8776 19.9406 38.1731 20.0945 38.4254C20.2545 38.6778 20.473 38.8963 20.75 39.081C21.027 39.2595 21.3471 39.4164 21.7102 39.5518C22.0734 39.6811 22.4612 39.7919 22.8736 39.8842L24.5724 40.2905C25.3973 40.4751 26.1544 40.7214 26.8438 41.0291C27.5331 41.3369 28.1302 41.7154 28.6349 42.1648C29.1397 42.6141 29.5305 43.1435 29.8075 43.7528C30.0907 44.3622 30.2353 45.0608 30.2415 45.8487C30.2353 47.0059 29.9399 48.0092 29.3551 48.8587C28.7765 49.7019 27.9394 50.3575 26.8438 50.8253C25.7543 51.2869 24.4401 51.5178 22.9013 51.5178C21.3748 51.5178 20.0452 51.2839 18.9126 50.8161C17.7862 50.3482 16.906 49.6558 16.272 48.7386C15.6442 47.8153 15.3149 46.6735 15.2841 45.3132H19.1527C19.1958 45.9472 19.3774 46.4766 19.6974 46.9013C20.0237 47.3198 20.4576 47.6368 20.9993 47.8523C21.5471 48.0616 22.1657 48.1662 22.8551 48.1662C23.5322 48.1662 24.12 48.0677 24.6186 47.8707C25.1233 47.6738 25.5142 47.3999 25.7912 47.049C26.0682 46.6982 26.2067 46.295 26.2067 45.8395C26.2067 45.4148 26.0805 45.0578 25.8281 44.7685C25.5819 44.4792 25.2188 44.233 24.7386 44.0298C24.2647 43.8267 23.683 43.642 22.9936 43.4759L20.9347 42.9588C19.3404 42.571 18.0817 41.9647 17.1584 41.1399C16.2351 40.3151 15.7765 39.2041 15.7827 37.8068C15.7765 36.6619 16.0812 35.6617 16.6967 34.8061C17.3184 33.9505 18.1709 33.2827 19.2543 32.8026C20.3376 32.3224 21.5687 32.0824 22.9474 32.0824C24.3509 32.0824 25.5758 32.3224 26.6222 32.8026C27.6747 33.2827 28.4934 33.9505 29.0781 34.8061C29.6629 35.6617 29.9645 36.6527 29.983 37.7791H26.1513ZM32.5336 47.9261V44.7777L40.4277 32.3409H43.1422V36.6989H41.5357L36.5591 44.5746V44.7223H47.7772V47.9261H32.5336ZM41.6096 51.25V46.9659L41.6834 45.5717V32.3409H45.432V51.25H41.6096ZM57.4949 51.5085C56.073 51.5085 54.8081 51.2777 53.7001 50.8161C52.5983 50.3482 51.7335 49.7112 51.1056 48.9048C50.4778 48.0985 50.1639 47.1844 50.1639 46.1626C50.1639 45.3748 50.3424 44.6515 50.6994 43.9929C51.0626 43.3281 51.555 42.7772 52.1767 42.3402C52.7984 41.897 53.4939 41.6139 54.2633 41.4908V41.3615C53.2538 41.1584 52.4352 40.669 51.8074 39.8935C51.1795 39.1117 50.8656 38.2038 50.8656 37.1697C50.8656 36.1911 51.1518 35.3201 51.7243 34.5568C52.2967 33.7874 53.0815 33.1842 54.0787 32.7472C55.082 32.304 56.2207 32.0824 57.4949 32.0824C58.769 32.0824 59.9047 32.304 60.9018 32.7472C61.9051 33.1903 62.693 33.7966 63.2654 34.5661C63.8379 35.3293 64.1272 36.1972 64.1333 37.1697C64.1272 38.21 63.8071 39.1179 63.1731 39.8935C62.5391 40.669 61.7266 41.1584 60.7356 41.3615V41.4908C61.4927 41.6139 62.179 41.897 62.7946 42.3402C63.4163 42.7772 63.9087 43.3281 64.2718 43.9929C64.6412 44.6515 64.8289 45.3748 64.8351 46.1626C64.8289 47.1844 64.5119 48.0985 63.8841 48.9048C63.2562 49.7112 62.3883 50.3482 61.2804 50.8161C60.1786 51.2777 58.9167 51.5085 57.4949 51.5085ZM57.4949 48.5724C58.1288 48.5724 58.6828 48.4586 59.1568 48.2308C59.6307 47.9969 60.0001 47.6768 60.2647 47.2706C60.5356 46.8582 60.671 46.3842 60.671 45.8487C60.671 45.3009 60.5325 44.8177 60.2555 44.3991C59.9785 43.9744 59.603 43.642 59.1291 43.402C58.6551 43.1558 58.1104 43.0327 57.4949 43.0327C56.8855 43.0327 56.3407 43.1558 55.8606 43.402C55.3805 43.642 55.002 43.9744 54.725 44.3991C54.4541 44.8177 54.3187 45.3009 54.3187 45.8487C54.3187 46.3842 54.4511 46.8582 54.7157 47.2706C54.9804 47.6768 55.3528 47.9969 55.8329 48.2308C56.313 48.4586 56.867 48.5724 57.4949 48.5724ZM57.4949 40.1243C58.0242 40.1243 58.4951 40.0166 58.9075 39.8011C59.3199 39.5857 59.6431 39.2872 59.877 38.9055C60.1109 38.5239 60.2278 38.0838 60.2278 37.5852C60.2278 37.0928 60.1109 36.6619 59.877 36.2926C59.6431 35.9171 59.323 35.6248 58.9167 35.4155C58.5105 35.2 58.0365 35.0923 57.4949 35.0923C56.9593 35.0923 56.4854 35.2 56.073 35.4155C55.6606 35.6248 55.3374 35.9171 55.1035 36.2926C54.8758 36.6619 54.7619 37.0928 54.7619 37.5852C54.7619 38.0838 54.8788 38.5239 55.1127 38.9055C55.3467 39.2872 55.6698 39.5857 56.0822 39.8011C56.4946 40.0166 56.9655 40.1243 57.4949 40.1243ZM67.6303 51.25V48.3693L74.3612 42.1371C74.9336 41.5831 75.4137 41.0845 75.8015 40.6413C76.1954 40.1982 76.494 39.7642 76.6971 39.3395C76.9002 38.9086 77.0018 38.4439 77.0018 37.9453C77.0018 37.3913 76.8756 36.9143 76.6232 36.5142C76.3709 36.108 76.0262 35.7971 75.5891 35.5817C75.1521 35.3601 74.6566 35.2493 74.1026 35.2493C73.524 35.2493 73.0193 35.3662 72.5884 35.6001C72.1576 35.834 71.8252 36.1695 71.5913 36.6065C71.3574 37.0436 71.2404 37.5637 71.2404 38.1669H67.4457C67.4457 36.9297 67.7257 35.8556 68.2859 34.9446C68.846 34.0336 69.6308 33.3288 70.6403 32.8303C71.6497 32.3317 72.8131 32.0824 74.1303 32.0824C75.4845 32.0824 76.6632 32.3224 77.6665 32.8026C78.676 33.2765 79.4608 33.9351 80.021 34.7784C80.5811 35.6217 80.8612 36.5881 80.8612 37.6776C80.8612 38.3916 80.7196 39.0964 80.4364 39.7919C80.1594 40.4875 79.6639 41.2599 78.9499 42.1094C78.2359 42.9527 77.2295 43.9652 75.9308 45.147L73.1701 47.8523V47.9815H81.1104V51.25H67.6303ZM84.1181 51.25V32.3409H88.1159V40.6783H88.3652L95.1699 32.3409H99.9618L92.9448 40.8075L100.045 51.25H95.2623L90.0826 43.4759L88.1159 45.8764V51.25H84.1181Z" fill="#047857"/>
<path d="M17.446 62.7955V63.5057H14.5057V62.7955H17.446ZM15.3864 68.25V62.0426C15.3864 61.7301 15.4598 61.4697 15.6065 61.2614C15.7533 61.053 15.9439 60.8968 16.1783 60.7926C16.4126 60.6884 16.66 60.6364 16.9205 60.6364C17.1264 60.6364 17.2945 60.6529 17.4247 60.6861C17.5549 60.7192 17.652 60.75 17.7159 60.7784L17.4744 61.5028C17.4318 61.4886 17.3726 61.4709 17.2969 61.4496C17.2235 61.4283 17.1264 61.4176 17.0057 61.4176C16.7287 61.4176 16.5286 61.4875 16.4055 61.6271C16.2848 61.7668 16.2244 61.9716 16.2244 62.2415V68.25H15.3864ZM18.6206 68.25V62.7955H19.4302V63.6193H19.487C19.5865 63.3494 19.7664 63.1304 20.0268 62.9624C20.2872 62.7943 20.5808 62.7102 20.9075 62.7102C20.969 62.7102 21.046 62.7114 21.1383 62.7138C21.2306 62.7161 21.3005 62.7197 21.3478 62.7244V63.5767C21.3194 63.5696 21.2543 63.5589 21.1525 63.5447C21.0531 63.5282 20.9477 63.5199 20.8365 63.5199C20.5713 63.5199 20.3346 63.5755 20.1262 63.6868C19.9203 63.7957 19.7569 63.9472 19.6362 64.1413C19.5178 64.3331 19.4586 64.5521 19.4586 64.7983V68.25H18.6206ZM24.3912 68.3636C23.8987 68.3636 23.4667 68.2464 23.095 68.0121C22.7257 67.7777 22.4368 67.4498 22.2285 67.0284C22.0225 66.607 21.9196 66.1146 21.9196 65.5511C21.9196 64.983 22.0225 64.487 22.2285 64.0632C22.4368 63.6394 22.7257 63.3104 23.095 63.076C23.4667 62.8416 23.8987 62.7244 24.3912 62.7244C24.8836 62.7244 25.3145 62.8416 25.6838 63.076C26.0555 63.3104 26.3443 63.6394 26.5502 64.0632C26.7586 64.487 26.8627 64.983 26.8627 65.5511C26.8627 66.1146 26.7586 66.607 26.5502 67.0284C26.3443 67.4498 26.0555 67.7777 25.6838 68.0121C25.3145 68.2464 24.8836 68.3636 24.3912 68.3636ZM24.3912 67.6108C24.7652 67.6108 25.073 67.5149 25.3145 67.3232C25.5559 67.1314 25.7347 66.8793 25.8507 66.5668C25.9667 66.2543 26.0247 65.9157 26.0247 65.5511C26.0247 65.1866 25.9667 64.8468 25.8507 64.532C25.7347 64.2171 25.5559 63.9626 25.3145 63.7685C25.073 63.5743 24.7652 63.4773 24.3912 63.4773C24.0171 63.4773 23.7093 63.5743 23.4679 63.7685C23.2264 63.9626 23.0476 64.2171 22.9316 64.532C22.8156 64.8468 22.7576 65.1866 22.7576 65.5511C22.7576 65.9157 22.8156 66.2543 22.9316 66.5668C23.0476 66.8793 23.2264 67.1314 23.4679 67.3232C23.7093 67.5149 24.0171 67.6108 24.3912 67.6108ZM28.142 68.25V62.7955H28.9517V63.6477H29.0227C29.1364 63.3565 29.3198 63.1304 29.5732 62.9695C29.8265 62.8061 30.1307 62.7244 30.4858 62.7244C30.8456 62.7244 31.1451 62.8061 31.3842 62.9695C31.6257 63.1304 31.8139 63.3565 31.9489 63.6477H32.0057C32.1454 63.366 32.3549 63.1423 32.6342 62.9766C32.9136 62.8085 33.2486 62.7244 33.6392 62.7244C34.1269 62.7244 34.5258 62.8771 34.8359 63.1825C35.1461 63.4856 35.3011 63.9579 35.3011 64.5994V68.25H34.4631V64.5994C34.4631 64.197 34.353 63.9093 34.1328 63.7365C33.9126 63.5637 33.6534 63.4773 33.3551 63.4773C32.9716 63.4773 32.6745 63.5933 32.4638 63.8253C32.2531 64.0549 32.1477 64.3461 32.1477 64.6989V68.25H31.2955V64.5142C31.2955 64.2041 31.1948 63.9543 30.9936 63.7649C30.7924 63.5732 30.5331 63.4773 30.2159 63.4773C29.9981 63.4773 29.7945 63.5353 29.6051 63.6513C29.4181 63.7673 29.2666 63.9283 29.1506 64.1342C29.0369 64.3378 28.9801 64.5734 28.9801 64.8409V68.25H28.142ZM39.6317 68.25V67.6108L42.0323 64.983C42.314 64.6752 42.546 64.4077 42.7283 64.1804C42.9106 63.9508 43.0456 63.7353 43.1332 63.5341C43.2231 63.3305 43.2681 63.1174 43.2681 62.8949C43.2681 62.6392 43.2066 62.4179 43.0835 62.2308C42.9627 62.0438 42.797 61.8994 42.5863 61.7976C42.3756 61.6958 42.1388 61.6449 41.8761 61.6449C41.5967 61.6449 41.3529 61.7029 41.1445 61.8189C40.9386 61.9325 40.7788 62.0923 40.6651 62.2983C40.5539 62.5043 40.4982 62.7457 40.4982 63.0227H39.6602C39.6602 62.5966 39.7584 62.2225 39.9549 61.9006C40.1514 61.5786 40.4189 61.3277 40.7575 61.1477C41.0984 60.9678 41.4807 60.8778 41.9045 60.8778C42.3306 60.8778 42.7082 60.9678 43.0373 61.1477C43.3664 61.3277 43.6244 61.5703 43.8114 61.8757C43.9985 62.1811 44.092 62.5208 44.092 62.8949C44.092 63.1624 44.0434 63.424 43.9464 63.6797C43.8517 63.933 43.686 64.2159 43.4492 64.5284C43.2148 64.8385 42.8893 65.2173 42.4727 65.6648L40.8391 67.4119V67.4688H44.2198V68.25H39.6317ZM48.1438 68.3494C47.6751 68.3494 47.2572 68.2689 46.8903 68.108C46.5257 67.947 46.2357 67.7232 46.0202 67.4368C45.8072 67.148 45.6912 66.813 45.6722 66.4318H46.5671C46.5861 66.6662 46.6665 66.8686 46.8086 67.0391C46.9506 67.2071 47.1365 67.3374 47.3661 67.4297C47.5958 67.522 47.8503 67.5682 48.1296 67.5682C48.4421 67.5682 48.7191 67.5137 48.9606 67.4048C49.2021 67.2959 49.3915 67.1444 49.5288 66.9503C49.6661 66.7562 49.7347 66.5312 49.7347 66.2756C49.7347 66.008 49.6684 65.7725 49.5359 65.5689C49.4033 65.3629 49.2092 65.2019 48.9535 65.0859C48.6978 64.9699 48.3853 64.9119 48.016 64.9119H47.4336V64.1307H48.016C48.3048 64.1307 48.5581 64.0786 48.7759 63.9744C48.9961 63.8703 49.1677 63.7235 49.2908 63.5341C49.4163 63.3447 49.479 63.1222 49.479 62.8665C49.479 62.6203 49.4246 62.406 49.3157 62.2237C49.2068 62.0414 49.0529 61.8994 48.854 61.7976C48.6576 61.6958 48.4255 61.6449 48.158 61.6449C47.9071 61.6449 47.6703 61.6911 47.4478 61.7834C47.2276 61.8733 47.0477 62.0047 46.908 62.1776C46.7683 62.348 46.6926 62.554 46.6808 62.7955H45.8285C45.8427 62.4143 45.9575 62.0805 46.1729 61.794C46.3884 61.5052 46.6701 61.2803 47.0181 61.1193C47.3685 60.9583 47.7532 60.8778 48.1722 60.8778C48.622 60.8778 49.0079 60.969 49.3299 61.1513C49.6519 61.3312 49.8993 61.5691 50.0721 61.8651C50.2449 62.161 50.3313 62.4806 50.3313 62.8239C50.3313 63.2334 50.2236 63.5826 50.0082 63.8714C49.7951 64.1603 49.5051 64.3603 49.1381 64.4716V64.5284C49.5974 64.6042 49.9561 64.7995 50.2141 65.1143C50.4722 65.4268 50.6012 65.8139 50.6012 66.2756C50.6012 66.6709 50.4935 67.026 50.2781 67.3409C50.065 67.6534 49.7738 67.8996 49.4045 68.0795C49.0352 68.2595 48.6149 68.3494 48.1438 68.3494ZM56.94 68.3636C56.4854 68.3636 56.0842 68.2488 55.7362 68.0192C55.3881 67.7872 55.1159 67.4605 54.9194 67.0391C54.7229 66.6153 54.6246 66.1146 54.6246 65.5369C54.6246 64.964 54.7229 64.4669 54.9194 64.0455C55.1159 63.6241 55.3893 63.2985 55.7397 63.0689C56.0901 62.8393 56.4949 62.7244 56.9542 62.7244C57.3093 62.7244 57.5898 62.7836 57.7958 62.902C58.0041 63.018 58.1628 63.1506 58.2717 63.2997C58.3829 63.4465 58.4693 63.5672 58.5309 63.6619H58.6019V60.9773H59.44V68.25H58.6303V67.4119H58.5309C58.4693 67.5114 58.3817 67.6368 58.2681 67.7884C58.1545 67.9375 57.9923 68.0713 57.7816 68.1896C57.5709 68.3056 57.2904 68.3636 56.94 68.3636ZM57.0536 67.6108C57.3898 67.6108 57.6739 67.5232 57.9059 67.348C58.1379 67.1705 58.3143 66.9254 58.435 66.6129C58.5558 66.2981 58.6161 65.9347 58.6161 65.5227C58.6161 65.1155 58.5569 64.7592 58.4386 64.4538C58.3202 64.1461 58.145 63.907 57.913 63.7365C57.681 63.5637 57.3945 63.4773 57.0536 63.4773C56.6985 63.4773 56.4026 63.5684 56.1658 63.7507C55.9315 63.9306 55.7551 64.1757 55.6367 64.4858C55.5207 64.7936 55.4627 65.1392 55.4627 65.5227C55.4627 65.911 55.5219 66.2637 55.6403 66.581C55.761 66.8958 55.9386 67.1468 56.1729 67.3338C56.4097 67.5185 56.7032 67.6108 57.0536 67.6108ZM63.3782 68.3636C62.8526 68.3636 62.3993 68.2476 62.0181 68.0156C61.6393 67.7812 61.3469 67.4545 61.141 67.0355C60.9374 66.6141 60.8356 66.1241 60.8356 65.5653C60.8356 65.0066 60.9374 64.5142 61.141 64.0881C61.3469 63.6596 61.6334 63.3258 62.0004 63.0866C62.3697 62.8452 62.8005 62.7244 63.293 62.7244C63.5771 62.7244 63.8576 62.7718 64.1346 62.8665C64.4116 62.9612 64.6637 63.1151 64.891 63.3281C65.1183 63.5388 65.2994 63.8182 65.4343 64.1662C65.5692 64.5142 65.6367 64.9427 65.6367 65.4517V65.8068H61.4322V65.0824H64.7844C64.7844 64.7746 64.7229 64.5 64.5998 64.2585C64.479 64.017 64.3062 63.8265 64.0813 63.6868C63.8588 63.5471 63.596 63.4773 63.293 63.4773C62.9592 63.4773 62.6703 63.5601 62.4265 63.7259C62.185 63.8892 61.9992 64.1023 61.869 64.3651C61.7388 64.6278 61.6737 64.9096 61.6737 65.2102V65.6932C61.6737 66.1051 61.7447 66.4543 61.8867 66.7408C62.0311 67.0249 62.2312 67.2415 62.4869 67.3906C62.7425 67.5374 63.0397 67.6108 63.3782 67.6108C63.5984 67.6108 63.7972 67.58 63.9748 67.5185C64.1547 67.4545 64.3098 67.3598 64.44 67.2344C64.5702 67.1065 64.6708 66.9479 64.7418 66.7585L65.5515 66.9858C65.4663 67.2604 65.323 67.5019 65.1218 67.7102C64.9206 67.9162 64.672 68.0772 64.3761 68.1932C64.0801 68.3068 63.7475 68.3636 63.3782 68.3636ZM68.5167 68.3778C68.171 68.3778 67.8574 68.3127 67.5756 68.1825C67.2939 68.05 67.0702 67.8594 66.9045 67.6108C66.7388 67.3598 66.6559 67.0568 66.6559 66.7017C66.6559 66.3892 66.7174 66.1359 66.8406 65.9418C66.9637 65.7453 67.1282 65.5914 67.3342 65.4801C67.5401 65.3688 67.7674 65.286 68.016 65.2315C68.2669 65.1747 68.5191 65.1297 68.7724 65.0966C69.1038 65.054 69.3725 65.022 69.5785 65.0007C69.7868 64.977 69.9383 64.938 70.033 64.8835C70.1301 64.8291 70.1786 64.7344 70.1786 64.5994V64.571C70.1786 64.2206 70.0827 63.9484 69.891 63.7543C69.7016 63.5601 69.4139 63.4631 69.0281 63.4631C68.628 63.4631 68.3143 63.5507 68.087 63.7259C67.8597 63.901 67.6999 64.0881 67.6076 64.2869L66.8121 64.0028C66.9542 63.6714 67.1436 63.4134 67.3803 63.2287C67.6194 63.0417 67.8799 62.9115 68.1616 62.8381C68.4457 62.7623 68.725 62.7244 68.9996 62.7244C69.1748 62.7244 69.3761 62.7457 69.6033 62.7884C69.833 62.8286 70.0543 62.9126 70.2674 63.0405C70.4828 63.1683 70.6616 63.3613 70.8036 63.6193C70.9457 63.8774 71.0167 64.223 71.0167 64.6562V68.25H70.1786V67.5114H70.136C70.0792 67.6297 69.9845 67.7564 69.8519 67.8913C69.7193 68.0263 69.543 68.1411 69.3228 68.2358C69.1026 68.3305 68.8339 68.3778 68.5167 68.3778ZM68.6445 67.625C68.976 67.625 69.2553 67.5599 69.4826 67.4297C69.7122 67.2995 69.8851 67.1314 70.0011 66.9254C70.1194 66.7195 70.1786 66.5028 70.1786 66.2756V65.5085C70.1431 65.5511 70.065 65.5902 69.9442 65.6257C69.8259 65.6589 69.6886 65.6884 69.5323 65.7145C69.3784 65.7382 69.2281 65.7595 69.0813 65.7784C68.9369 65.795 68.8197 65.8092 68.7298 65.821C68.512 65.8494 68.3084 65.8956 68.119 65.9595C67.9319 66.0211 67.7804 66.1146 67.6644 66.2401C67.5508 66.3632 67.494 66.5312 67.494 66.7443C67.494 67.0355 67.6017 67.2557 67.8171 67.4048C68.0349 67.5516 68.3107 67.625 68.6445 67.625ZM73.3844 60.9773V68.25H72.5463V60.9773H73.3844ZM78.783 64.017L78.0302 64.2301C77.9828 64.1046 77.913 63.9827 77.8207 63.8643C77.7307 63.7436 77.6076 63.6442 77.4513 63.5661C77.2951 63.4879 77.0951 63.4489 76.8512 63.4489C76.5174 63.4489 76.2392 63.5258 76.0167 63.6797C75.7965 63.8312 75.6864 64.0241 75.6864 64.2585C75.6864 64.4669 75.7622 64.6314 75.9137 64.7521C76.0652 64.8729 76.302 64.9735 76.6239 65.054L77.4336 65.2528C77.9213 65.3712 78.2847 65.5523 78.5238 65.7962C78.7629 66.0376 78.8825 66.349 78.8825 66.7301C78.8825 67.0426 78.7925 67.322 78.6126 67.5682C78.435 67.8144 78.1864 68.0085 77.8668 68.1506C77.5472 68.2926 77.1755 68.3636 76.7518 68.3636C76.1954 68.3636 75.735 68.2429 75.3704 68.0014C75.0058 67.7599 74.775 67.4072 74.6779 66.9432L75.4734 66.7443C75.5491 67.0379 75.6924 67.258 75.9031 67.4048C76.1161 67.5516 76.3943 67.625 76.7376 67.625C77.1282 67.625 77.4383 67.5421 77.668 67.3764C77.9 67.2083 78.016 67.0071 78.016 66.7727C78.016 66.5833 77.9497 66.4247 77.8171 66.2969C77.6845 66.1667 77.4809 66.0696 77.2063 66.0057L76.2972 65.7926C75.7977 65.6742 75.4308 65.4908 75.1964 65.2422C74.9644 64.9912 74.8484 64.6776 74.8484 64.3011C74.8484 63.9934 74.9348 63.7211 75.1076 63.4844C75.2828 63.2476 75.5207 63.0618 75.8214 62.9268C76.1244 62.7919 76.4677 62.7244 76.8512 62.7244C77.391 62.7244 77.8147 62.8428 78.1225 63.0795C78.4326 63.3163 78.6528 63.6288 78.783 64.017ZM85.3287 62.7955V63.5057H82.502V62.7955H85.3287ZM83.3258 61.4886H84.1639V66.6875C84.1639 66.9242 84.1982 67.1018 84.2669 67.2202C84.3379 67.3362 84.4279 67.4143 84.5368 67.4545C84.648 67.4924 84.7652 67.5114 84.8883 67.5114C84.9806 67.5114 85.0564 67.5066 85.1156 67.4972C85.1748 67.4853 85.2221 67.4759 85.2576 67.4688L85.4281 68.2216C85.3713 68.2429 85.292 68.2642 85.1902 68.2855C85.0884 68.3092 84.9593 68.321 84.8031 68.321C84.5663 68.321 84.3343 68.2701 84.1071 68.1683C83.8822 68.0665 83.6951 67.9115 83.546 67.7031C83.3992 67.4948 83.3258 67.232 83.3258 66.9148V61.4886ZM87.5446 64.9688V68.25H86.7065V60.9773H87.5446V63.6477H87.6156C87.7434 63.366 87.9352 63.1423 88.1909 62.9766C88.4489 62.8085 88.7922 62.7244 89.2207 62.7244C89.5924 62.7244 89.9179 62.799 90.1973 62.9482C90.4766 63.0949 90.6932 63.321 90.8471 63.6264C91.0034 63.9295 91.0815 64.3153 91.0815 64.7841V68.25H90.2434V64.8409C90.2434 64.4077 90.131 64.0727 89.9061 63.8359C89.6835 63.5968 89.3746 63.4773 88.9792 63.4773C88.7046 63.4773 88.4584 63.5353 88.2406 63.6513C88.0252 63.7673 87.8547 63.9366 87.7292 64.1591C87.6061 64.3816 87.5446 64.6515 87.5446 64.9688ZM92.6147 68.25V62.7955H93.4528V68.25H92.6147ZM93.0408 61.8864C92.8775 61.8864 92.7366 61.8307 92.6183 61.7195C92.5022 61.6082 92.4442 61.4744 92.4442 61.3182C92.4442 61.1619 92.5022 61.0282 92.6183 60.9169C92.7366 60.8056 92.8775 60.75 93.0408 60.75C93.2042 60.75 93.3439 60.8056 93.4599 60.9169C93.5782 61.0282 93.6374 61.1619 93.6374 61.3182C93.6374 61.4744 93.5782 61.6082 93.4599 61.7195C93.3439 61.8307 93.2042 61.8864 93.0408 61.8864ZM98.8514 64.017L98.0985 64.2301C98.0512 64.1046 97.9814 63.9827 97.889 63.8643C97.7991 63.7436 97.676 63.6442 97.5197 63.5661C97.3635 63.4879 97.1634 63.4489 96.9196 63.4489C96.5858 63.4489 96.3076 63.5258 96.085 63.6797C95.8649 63.8312 95.7548 64.0241 95.7548 64.2585C95.7548 64.4669 95.8306 64.6314 95.9821 64.7521C96.1336 64.8729 96.3703 64.9735 96.6923 65.054L97.502 65.2528C97.9896 65.3712 98.353 65.5523 98.5922 65.7962C98.8313 66.0376 98.9508 66.349 98.9508 66.7301C98.9508 67.0426 98.8609 67.322 98.6809 67.5682C98.5034 67.8144 98.2548 68.0085 97.9352 68.1506C97.6156 68.2926 97.2439 68.3636 96.8201 68.3636C96.2638 68.3636 95.8033 68.2429 95.4387 68.0014C95.0742 67.7599 94.8433 67.4072 94.7463 66.9432L95.5417 66.7443C95.6175 67.0379 95.7607 67.258 95.9714 67.4048C96.1845 67.5516 96.4627 67.625 96.8059 67.625C97.1966 67.625 97.5067 67.5421 97.7363 67.3764C97.9683 67.2083 98.0843 67.0071 98.0843 66.7727C98.0843 66.5833 98.0181 66.4247 97.8855 66.2969C97.7529 66.1667 97.5493 66.0696 97.2747 66.0057L96.3656 65.7926C95.8661 65.6742 95.4991 65.4908 95.2647 65.2422C95.0327 64.9912 94.9167 64.6776 94.9167 64.3011C94.9167 63.9934 95.0031 63.7211 95.176 63.4844C95.3511 63.2476 95.5891 63.0618 95.8897 62.9268C96.1928 62.7919 96.536 62.7244 96.9196 62.7244C97.4593 62.7244 97.8831 62.8428 98.1909 63.0795C98.501 63.3163 98.7212 63.6288 98.8514 64.017ZM106.746 70.2955V67.4119H106.675C106.614 67.5114 106.526 67.6368 106.413 67.7884C106.299 67.9375 106.137 68.0713 105.926 68.1896C105.715 68.3056 105.435 68.3636 105.085 68.3636C104.63 68.3636 104.229 68.2488 103.881 68.0192C103.533 67.7872 103.26 67.4605 103.064 67.0391C102.867 66.6153 102.769 66.1146 102.769 65.5369C102.769 64.964 102.867 64.4669 103.064 64.0455C103.26 63.6241 103.534 63.2985 103.884 63.0689C104.235 62.8393 104.639 62.7244 105.099 62.7244C105.454 62.7244 105.734 62.7836 105.94 62.902C106.149 63.018 106.307 63.1506 106.416 63.2997C106.527 63.4465 106.614 63.5672 106.675 63.6619H106.775V62.7955H107.585V70.2955H106.746ZM105.198 67.6108C105.534 67.6108 105.818 67.5232 106.05 67.348C106.282 67.1705 106.459 66.9254 106.58 66.6129C106.7 66.2981 106.761 65.9347 106.761 65.5227C106.761 65.1155 106.701 64.7592 106.583 64.4538C106.465 64.1461 106.29 63.907 106.058 63.7365C105.826 63.5637 105.539 63.4773 105.198 63.4773C104.843 63.4773 104.547 63.5684 104.31 63.7507C104.076 63.9306 103.9 64.1757 103.781 64.4858C103.665 64.7936 103.607 65.1392 103.607 65.5227C103.607 65.911 103.666 66.2637 103.785 66.581C103.906 66.8958 104.083 67.1468 104.317 67.3338C104.554 67.5185 104.848 67.6108 105.198 67.6108ZM112.556 66.0199V62.7955H113.394V68.25H112.556V67.3267H112.499C112.371 67.6037 112.173 67.8393 111.903 68.0334C111.633 68.2251 111.292 68.321 110.88 68.321C110.539 68.321 110.236 68.2464 109.971 68.0973C109.706 67.9458 109.497 67.7185 109.346 67.4155C109.194 67.1101 109.119 66.7254 109.119 66.2614V62.7955H109.957V66.2045C109.957 66.6023 110.068 66.9195 110.29 67.1562C110.515 67.393 110.802 67.5114 111.15 67.5114C111.358 67.5114 111.57 67.4581 111.786 67.3516C112.003 67.245 112.186 67.0817 112.332 66.8615C112.482 66.6413 112.556 66.3608 112.556 66.0199ZM116.534 68.3778C116.189 68.3778 115.875 68.3127 115.593 68.1825C115.311 68.05 115.088 67.8594 114.922 67.6108C114.756 67.3598 114.673 67.0568 114.673 66.7017C114.673 66.3892 114.735 66.1359 114.858 65.9418C114.981 65.7453 115.146 65.5914 115.352 65.4801C115.558 65.3688 115.785 65.286 116.034 65.2315C116.285 65.1747 116.537 65.1297 116.79 65.0966C117.121 65.054 117.39 65.022 117.596 65.0007C117.804 64.977 117.956 64.938 118.051 64.8835C118.148 64.8291 118.196 64.7344 118.196 64.5994V64.571C118.196 64.2206 118.1 63.9484 117.909 63.7543C117.719 63.5601 117.432 63.4631 117.046 63.4631C116.646 63.4631 116.332 63.5507 116.105 63.7259C115.877 63.901 115.718 64.0881 115.625 64.2869L114.83 64.0028C114.972 63.6714 115.161 63.4134 115.398 63.2287C115.637 63.0417 115.897 62.9115 116.179 62.8381C116.463 62.7623 116.743 62.7244 117.017 62.7244C117.192 62.7244 117.394 62.7457 117.621 62.7884C117.851 62.8286 118.072 62.9126 118.285 63.0405C118.5 63.1683 118.679 63.3613 118.821 63.6193C118.963 63.8774 119.034 64.223 119.034 64.6562V68.25H118.196V67.5114H118.154C118.097 67.6297 118.002 67.7564 117.869 67.8913C117.737 68.0263 117.561 68.1411 117.34 68.2358C117.12 68.3305 116.852 68.3778 116.534 68.3778ZM116.662 67.625C116.994 67.625 117.273 67.5599 117.5 67.4297C117.73 67.2995 117.903 67.1314 118.019 66.9254C118.137 66.7195 118.196 66.5028 118.196 66.2756V65.5085C118.161 65.5511 118.083 65.5902 117.962 65.6257C117.843 65.6589 117.706 65.6884 117.55 65.7145C117.396 65.7382 117.246 65.7595 117.099 65.7784C116.954 65.795 116.837 65.8092 116.747 65.821C116.53 65.8494 116.326 65.8956 116.137 65.9595C115.95 66.0211 115.798 66.1146 115.682 66.2401C115.568 66.3632 115.512 66.5312 115.512 66.7443C115.512 67.0355 115.619 67.2557 115.835 67.4048C116.052 67.5516 116.328 67.625 116.662 67.625ZM120.564 68.25V62.7955H121.374V63.6193H121.43C121.53 63.3494 121.71 63.1304 121.97 62.9624C122.231 62.7943 122.524 62.7102 122.851 62.7102C122.912 62.7102 122.989 62.7114 123.082 62.7138C123.174 62.7161 123.244 62.7197 123.291 62.7244V63.5767C123.263 63.5696 123.198 63.5589 123.096 63.5447C122.996 63.5282 122.891 63.5199 122.78 63.5199C122.515 63.5199 122.278 63.5755 122.07 63.6868C121.864 63.7957 121.7 63.9472 121.58 64.1413C121.461 64.3331 121.402 64.5521 121.402 64.7983V68.25H120.564ZM126.999 62.7955V63.5057H124.172V62.7955H126.999ZM124.996 61.4886H125.834V66.6875C125.834 66.9242 125.868 67.1018 125.937 67.2202C126.008 67.3362 126.098 67.4143 126.207 67.4545C126.318 67.4924 126.435 67.5114 126.558 67.5114C126.651 67.5114 126.726 67.5066 126.786 67.4972C126.845 67.4853 126.892 67.4759 126.928 67.4688L127.098 68.2216C127.041 68.2429 126.962 68.2642 126.86 68.2855C126.758 68.3092 126.629 68.321 126.473 68.321C126.236 68.321 126.004 68.2701 125.777 68.1683C125.552 68.0665 125.365 67.9115 125.216 67.7031C125.069 67.4948 124.996 67.232 124.996 66.9148V61.4886ZM130.488 68.3636C129.962 68.3636 129.509 68.2476 129.127 68.0156C128.749 67.7812 128.456 67.4545 128.25 67.0355C128.047 66.6141 127.945 66.1241 127.945 65.5653C127.945 65.0066 128.047 64.5142 128.25 64.0881C128.456 63.6596 128.743 63.3258 129.11 63.0866C129.479 62.8452 129.91 62.7244 130.402 62.7244C130.686 62.7244 130.967 62.7718 131.244 62.8665C131.521 62.9612 131.773 63.1151 132 63.3281C132.228 63.5388 132.409 63.8182 132.544 64.1662C132.679 64.5142 132.746 64.9427 132.746 65.4517V65.8068H128.542V65.0824H131.894C131.894 64.7746 131.832 64.5 131.709 64.2585C131.588 64.017 131.416 63.8265 131.191 63.6868C130.968 63.5471 130.705 63.4773 130.402 63.4773C130.069 63.4773 129.78 63.5601 129.536 63.7259C129.294 63.8892 129.109 64.1023 128.978 64.3651C128.848 64.6278 128.783 64.9096 128.783 65.2102V65.6932C128.783 66.1051 128.854 66.4543 128.996 66.7408C129.141 67.0249 129.341 67.2415 129.596 67.3906C129.852 67.5374 130.149 67.6108 130.488 67.6108C130.708 67.6108 130.907 67.58 131.084 67.5185C131.264 67.4545 131.419 67.3598 131.549 67.2344C131.68 67.1065 131.78 66.9479 131.851 66.7585L132.661 66.9858C132.576 67.2604 132.432 67.5019 132.231 67.7102C132.03 67.9162 131.781 68.0772 131.485 68.1932C131.19 68.3068 130.857 68.3636 130.488 68.3636ZM134.021 68.25V62.7955H134.831V63.6193H134.887C134.987 63.3494 135.167 63.1304 135.427 62.9624C135.688 62.7943 135.981 62.7102 136.308 62.7102C136.369 62.7102 136.446 62.7114 136.539 62.7138C136.631 62.7161 136.701 62.7197 136.748 62.7244V63.5767C136.72 63.5696 136.655 63.5589 136.553 63.5447C136.453 63.5282 136.348 63.5199 136.237 63.5199C135.972 63.5199 135.735 63.5755 135.527 63.6868C135.321 63.7957 135.157 63.9472 135.037 64.1413C134.918 64.3331 134.859 64.5521 134.859 64.7983V68.25H134.021Z" fill="#6B7280"/>
<path d="M94.75 78.25H17.75C15.817 78.25 14.25 79.817 14.25 81.75C14.25 83.683 15.817 85.25 17.75 85.25H94.75C96.683 85.25 98.25 83.683 98.25 81.75C98.25 79.817 96.683 78.25 94.75 78.25Z" fill="#4F46E5"/>
<path d="M152.75 78.25H103.75C101.817 78.25 100.25 79.817 100.25 81.75C100.25 83.683 101.817 85.25 103.75 85.25H152.75C154.683 85.25 156.25 83.683 156.25 81.75C156.25 79.817 154.683 78.25 152.75 78.25Z" fill="#10B981"/>
<path d="M192.75 78.25H161.75C159.817 78.25 158.25 79.817 158.25 81.75C158.25 83.683 159.817 85.25 161.75 85.25H192.75C194.683 85.25 196.25 83.683 196.25 81.75C196.25 79.817 194.683 78.25 192.75 78.25Z" fill="#DBEAFE"/>
</svg>

