<svg width="263" height="85" viewBox="0 0 263 85" fill="none" xmlns="http://www.w3.org/2000/svg">
<g filter="url(#filter0_d_6287_12587)">
<path d="M236.05 12.0508H26.0498C20.527 12.0508 16.0498 16.5279 16.0498 22.0508V54.0508C16.0498 59.5736 20.527 64.0508 26.0498 64.0508H236.05C241.573 64.0508 246.05 59.5736 246.05 54.0508V22.0508C246.05 16.5279 241.573 12.0508 236.05 12.0508Z" fill="white" stroke="#E5E7EB" stroke-width="0.5"/>
<path d="M50.0498 22.0508H34.0498C29.6315 22.0508 26.0498 25.6325 26.0498 30.0508V46.0508C26.0498 50.4691 29.6315 54.0508 34.0498 54.0508H50.0498C54.4681 54.0508 58.0498 50.4691 58.0498 46.0508V30.0508C58.0498 25.6325 54.4681 22.0508 50.0498 22.0508Z" fill="#EEF2FF"/>
<path d="M42.0498 28.0508L44.5044 35.1383L52.0498 38.5508L44.5044 41.9633L42.0498 49.0508L39.5953 41.9633L32.0498 38.5508L39.5953 35.1383L42.0498 28.0508Z" fill="#4F46E5"/>
<path d="M70.124 35.0508H68.3115L71.0732 27.0508H73.2529L76.0107 35.0508H74.1982L72.1943 28.8789H72.1318L70.124 35.0508ZM70.0107 31.9062H74.292V33.2266H70.0107V31.9062ZM78.665 27.0508V35.0508H76.9736V27.0508H78.665ZM85.7979 29.0508V30.3008H82.0947V29.0508H85.7979ZM82.9424 35.0508V28.6172C82.9424 28.1823 83.027 27.8216 83.1963 27.5352C83.3682 27.2487 83.6025 27.0339 83.8994 26.8906C84.1963 26.7474 84.5335 26.6758 84.9111 26.6758C85.1663 26.6758 85.3994 26.6953 85.6104 26.7344C85.8239 26.7734 85.9827 26.8086 86.0869 26.8398L85.79 28.0898C85.7249 28.069 85.6442 28.0495 85.5479 28.0312C85.4541 28.013 85.3577 28.0039 85.2588 28.0039C85.014 28.0039 84.8434 28.0612 84.7471 28.1758C84.6507 28.2878 84.6025 28.4453 84.6025 28.6484V35.0508H82.9424ZM89.3105 35.168C88.7038 35.168 88.179 35.0391 87.7363 34.7812C87.2962 34.5208 86.9564 34.1589 86.7168 33.6953C86.4772 33.2292 86.3574 32.6888 86.3574 32.0742C86.3574 31.4544 86.4772 30.9128 86.7168 30.4492C86.9564 29.9831 87.2962 29.6211 87.7363 29.3633C88.179 29.1029 88.7038 28.9727 89.3105 28.9727C89.9173 28.9727 90.4408 29.1029 90.8809 29.3633C91.3236 29.6211 91.6647 29.9831 91.9043 30.4492C92.1439 30.9128 92.2637 31.4544 92.2637 32.0742C92.2637 32.6888 92.1439 33.2292 91.9043 33.6953C91.6647 34.1589 91.3236 34.5208 90.8809 34.7812C90.4408 35.0391 89.9173 35.168 89.3105 35.168ZM89.3184 33.8789C89.5944 33.8789 89.8249 33.8008 90.0098 33.6445C90.1947 33.4857 90.334 33.2695 90.4277 32.9961C90.5241 32.7227 90.5723 32.4115 90.5723 32.0625C90.5723 31.7135 90.5241 31.4023 90.4277 31.1289C90.334 30.8555 90.1947 30.6393 90.0098 30.4805C89.8249 30.3216 89.5944 30.2422 89.3184 30.2422C89.0397 30.2422 88.8053 30.3216 88.6152 30.4805C88.4277 30.6393 88.2858 30.8555 88.1895 31.1289C88.0957 31.4023 88.0488 31.7135 88.0488 32.0625C88.0488 32.4115 88.0957 32.7227 88.1895 32.9961C88.2858 33.2695 88.4277 33.4857 88.6152 33.6445C88.8053 33.8008 89.0397 33.8789 89.3184 33.8789ZM97.1934 32.4961V29.0508H98.8574V35.0508H97.2598V33.9609H97.1973C97.0618 34.3125 96.8366 34.5951 96.5215 34.8086C96.209 35.0221 95.8275 35.1289 95.377 35.1289C94.9759 35.1289 94.623 35.0378 94.3184 34.8555C94.0137 34.6732 93.7754 34.4141 93.6035 34.0781C93.4342 33.7422 93.3483 33.3398 93.3457 32.8711V29.0508H95.0098V32.5742C95.0124 32.9284 95.1074 33.2083 95.2949 33.4141C95.4824 33.6198 95.7337 33.7227 96.0488 33.7227C96.2493 33.7227 96.4368 33.6771 96.6113 33.5859C96.7858 33.4922 96.9264 33.3542 97.0332 33.1719C97.1426 32.9896 97.196 32.7643 97.1934 32.4961ZM101.853 31.582V35.0508H100.188V29.0508H101.774V30.1094H101.845C101.978 29.7604 102.2 29.4844 102.513 29.2812C102.825 29.0755 103.204 28.9727 103.649 28.9727C104.066 28.9727 104.429 29.0638 104.739 29.2461C105.049 29.4284 105.29 29.6888 105.462 30.0273C105.634 30.3633 105.72 30.7643 105.72 31.2305V35.0508H104.056V31.5273C104.058 31.1602 103.965 30.8737 103.774 30.668C103.584 30.4596 103.323 30.3555 102.989 30.3555C102.765 30.3555 102.567 30.4036 102.396 30.5C102.226 30.5964 102.093 30.737 101.997 30.9219C101.903 31.1042 101.855 31.3242 101.853 31.582ZM109.242 35.1484C108.786 35.1484 108.374 35.0312 108.004 34.7969C107.637 34.5599 107.345 34.2122 107.129 33.7539C106.915 33.293 106.809 32.7279 106.809 32.0586C106.809 31.3711 106.919 30.7995 107.141 30.3437C107.362 29.8854 107.656 29.543 108.023 29.3164C108.393 29.0872 108.798 28.9727 109.238 28.9727C109.574 28.9727 109.854 29.0299 110.078 29.1445C110.305 29.2565 110.487 29.3971 110.625 29.5664C110.766 29.7331 110.872 29.8971 110.945 30.0586H110.996V27.0508H112.656V35.0508H111.016V34.0898H110.945C110.867 34.2565 110.757 34.4219 110.613 34.5859C110.473 34.7474 110.289 34.8815 110.062 34.9883C109.839 35.0951 109.565 35.1484 109.242 35.1484ZM109.77 33.8242C110.038 33.8242 110.264 33.7513 110.449 33.6055C110.637 33.457 110.78 33.25 110.879 32.9844C110.98 32.7187 111.031 32.4076 111.031 32.0508C111.031 31.694 110.982 31.3841 110.883 31.1211C110.784 30.8581 110.641 30.6549 110.453 30.5117C110.266 30.3685 110.038 30.2969 109.77 30.2969C109.496 30.2969 109.266 30.3711 109.078 30.5195C108.891 30.668 108.749 30.8737 108.652 31.1367C108.556 31.3997 108.508 31.7044 108.508 32.0508C108.508 32.3997 108.556 32.7083 108.652 32.9766C108.751 33.2422 108.893 33.4505 109.078 33.6016C109.266 33.75 109.496 33.8242 109.77 33.8242ZM120.035 27.0508V35.0508H118.344V28.6562H118.297L116.465 29.8047V28.3047L118.445 27.0508H120.035ZM121.937 35.0508V33.832L124.784 31.1953C125.026 30.9609 125.229 30.75 125.394 30.5625C125.56 30.375 125.687 30.1914 125.772 30.0117C125.858 29.8294 125.901 29.6328 125.901 29.4219C125.901 29.1875 125.848 28.9857 125.741 28.8164C125.634 28.6445 125.489 28.513 125.304 28.4219C125.119 28.3281 124.909 28.2812 124.675 28.2812C124.43 28.2812 124.216 28.3307 124.034 28.4297C123.852 28.5286 123.711 28.6706 123.612 28.8555C123.513 29.0404 123.464 29.2604 123.464 29.5156H121.858C121.858 28.9922 121.977 28.5378 122.214 28.1523C122.451 27.7669 122.783 27.4687 123.21 27.2578C123.637 27.0469 124.129 26.9414 124.687 26.9414C125.259 26.9414 125.758 27.043 126.183 27.2461C126.61 27.4466 126.942 27.7253 127.179 28.082C127.416 28.4388 127.534 28.8477 127.534 29.3086C127.534 29.6107 127.474 29.9089 127.354 30.2031C127.237 30.4974 127.028 30.8242 126.726 31.1836C126.424 31.5404 125.998 31.9687 125.448 32.4687L124.28 33.6133V33.668H127.64V35.0508H121.937ZM133.091 31.582V35.0508H131.427V29.0508H133.013V30.1094H133.083C133.216 29.7604 133.438 29.4844 133.751 29.2812C134.063 29.0755 134.442 28.9727 134.888 28.9727C135.304 28.9727 135.668 29.0638 135.978 29.2461C136.287 29.4284 136.528 29.6888 136.7 30.0273C136.872 30.3633 136.958 30.7643 136.958 31.2305V35.0508H135.294V31.5273C135.297 31.1602 135.203 30.8737 135.013 30.668C134.823 30.4596 134.561 30.3555 134.228 30.3555C134.004 30.3555 133.806 30.4036 133.634 30.5C133.465 30.5964 133.332 30.737 133.235 30.9219C133.142 31.1042 133.093 31.3242 133.091 31.582ZM141.004 35.168C140.387 35.168 139.855 35.043 139.41 34.793C138.967 34.5404 138.626 34.1836 138.387 33.7227C138.147 33.2591 138.027 32.7109 138.027 32.0781C138.027 31.4609 138.147 30.9193 138.387 30.4531C138.626 29.987 138.964 29.6237 139.398 29.3633C139.836 29.1029 140.349 28.9727 140.938 28.9727C141.333 28.9727 141.702 29.0365 142.043 29.1641C142.387 29.2891 142.686 29.4779 142.941 29.7305C143.199 29.9831 143.4 30.3008 143.543 30.6836C143.686 31.0638 143.758 31.5091 143.758 32.0195V32.4766H138.691V31.4453H142.191C142.191 31.2057 142.139 30.9935 142.035 30.8086C141.931 30.6237 141.786 30.4792 141.602 30.375C141.419 30.2682 141.207 30.2148 140.965 30.2148C140.712 30.2148 140.488 30.2734 140.293 30.3906C140.1 30.5052 139.949 30.6602 139.84 30.8555C139.73 31.0482 139.674 31.263 139.672 31.5V32.4805C139.672 32.7773 139.727 33.0339 139.836 33.25C139.948 33.4661 140.105 33.6328 140.309 33.75C140.512 33.8672 140.753 33.9258 141.031 33.9258C141.216 33.9258 141.385 33.8997 141.539 33.8477C141.693 33.7956 141.824 33.7174 141.934 33.6133C142.043 33.5091 142.126 33.3815 142.184 33.2305L143.723 33.332C143.645 33.7018 143.484 34.0247 143.242 34.3008C143.003 34.5742 142.693 34.7878 142.313 34.9414C141.935 35.0924 141.499 35.168 141.004 35.168ZM145.984 35.0508L144.352 29.0508H146.035L146.965 33.082H147.02L147.988 29.0508H149.641L150.625 33.0586H150.676L151.59 29.0508H153.27L151.641 35.0508H149.879L148.848 31.2773H148.773L147.742 35.0508H145.984ZM156.703 35.0508V29.0508H158.289V30.1094H158.359C158.484 29.7578 158.693 29.4805 158.984 29.2773C159.276 29.0742 159.625 28.9727 160.031 28.9727C160.443 28.9727 160.793 29.0755 161.082 29.2812C161.371 29.4844 161.564 29.7604 161.66 30.1094H161.723C161.845 29.7656 162.066 29.4909 162.387 29.2852C162.71 29.0768 163.091 28.9727 163.531 28.9727C164.091 28.9727 164.546 29.151 164.895 29.5078C165.246 29.862 165.422 30.3646 165.422 31.0156V35.0508H163.762V31.3437C163.762 31.0104 163.673 30.7604 163.496 30.5938C163.319 30.4271 163.098 30.3437 162.832 30.3437C162.53 30.3437 162.294 30.4401 162.125 30.6328C161.956 30.8229 161.871 31.0742 161.871 31.3867V35.0508H160.258V31.3086C160.258 31.0143 160.173 30.7799 160.004 30.6055C159.837 30.431 159.617 30.3437 159.344 30.3437C159.159 30.3437 158.992 30.3906 158.844 30.4844C158.698 30.5755 158.582 30.7044 158.496 30.8711C158.41 31.0352 158.367 31.2279 158.367 31.4492V35.0508H156.703ZM168.447 35.1641C168.064 35.1641 167.723 35.0977 167.424 34.9648C167.124 34.8294 166.887 34.6302 166.713 34.3672C166.541 34.1016 166.455 33.7708 166.455 33.375C166.455 33.0417 166.516 32.7617 166.639 32.5352C166.761 32.3086 166.928 32.1263 167.139 31.9883C167.35 31.8503 167.589 31.7461 167.857 31.6758C168.128 31.6055 168.412 31.556 168.709 31.5273C169.058 31.4909 169.339 31.457 169.553 31.4258C169.766 31.3919 169.921 31.3424 170.018 31.2773C170.114 31.2122 170.162 31.1159 170.162 30.9883V30.9648C170.162 30.7174 170.084 30.526 169.928 30.3906C169.774 30.2552 169.555 30.1875 169.271 30.1875C168.972 30.1875 168.734 30.2539 168.557 30.3867C168.38 30.5169 168.262 30.681 168.205 30.8789L166.666 30.7539C166.744 30.3893 166.898 30.0742 167.127 29.8086C167.356 29.5404 167.652 29.3346 168.014 29.1914C168.378 29.0456 168.8 28.9727 169.279 28.9727C169.613 28.9727 169.932 29.0117 170.236 29.0898C170.544 29.168 170.816 29.2891 171.053 29.4531C171.292 29.6172 171.481 29.8281 171.619 30.0859C171.757 30.3411 171.826 30.6471 171.826 31.0039V35.0508H170.248V34.2188H170.201C170.105 34.4062 169.976 34.5716 169.814 34.7148C169.653 34.8555 169.459 34.9661 169.232 35.0469C169.006 35.125 168.744 35.1641 168.447 35.1641ZM168.924 34.0156C169.169 34.0156 169.385 33.9674 169.572 33.8711C169.76 33.7721 169.907 33.6393 170.014 33.4727C170.12 33.306 170.174 33.1172 170.174 32.9062V32.2695C170.122 32.3034 170.05 32.3346 169.959 32.3633C169.87 32.3893 169.77 32.4141 169.658 32.4375C169.546 32.4583 169.434 32.4779 169.322 32.4961C169.21 32.5117 169.109 32.526 169.018 32.5391C168.822 32.5677 168.652 32.6133 168.506 32.6758C168.36 32.7383 168.247 32.8229 168.166 32.9297C168.085 33.0339 168.045 33.1641 168.045 33.3203C168.045 33.5469 168.127 33.7201 168.291 33.8398C168.458 33.957 168.669 34.0156 168.924 34.0156ZM176.309 29.0508V30.3008H172.695V29.0508H176.309ZM173.516 27.6133H175.18V33.207C175.18 33.3607 175.203 33.4805 175.25 33.5664C175.297 33.6497 175.362 33.7083 175.445 33.7422C175.531 33.776 175.63 33.793 175.742 33.793C175.82 33.793 175.898 33.7865 175.977 33.7734C176.055 33.7578 176.115 33.7461 176.156 33.7383L176.418 34.9766C176.335 35.0026 176.217 35.0326 176.066 35.0664C175.915 35.1029 175.732 35.125 175.516 35.1328C175.115 35.1484 174.763 35.0951 174.461 34.9727C174.161 34.8503 173.928 34.6602 173.762 34.4023C173.595 34.1445 173.513 33.819 173.516 33.4258V27.6133ZM180.039 35.168C179.424 35.168 178.896 35.0378 178.453 34.7773C178.013 34.5143 177.674 34.1497 177.438 33.6836C177.203 33.2174 177.086 32.681 177.086 32.0742C177.086 31.4596 177.204 30.9206 177.441 30.457C177.681 29.9909 178.021 29.6276 178.461 29.3672C178.901 29.1042 179.424 28.9727 180.031 28.9727C180.555 28.9727 181.013 29.0677 181.406 29.2578C181.799 29.4479 182.111 29.7148 182.34 30.0586C182.569 30.4023 182.695 30.806 182.719 31.2695H181.148C181.104 30.9701 180.987 30.7292 180.797 30.5469C180.609 30.362 180.363 30.2695 180.059 30.2695C179.801 30.2695 179.576 30.3398 179.383 30.4805C179.193 30.6185 179.044 30.8203 178.938 31.0859C178.831 31.3516 178.777 31.6732 178.777 32.0508C178.777 32.4336 178.829 32.7591 178.934 33.0273C179.04 33.2956 179.19 33.5 179.383 33.6406C179.576 33.7812 179.801 33.8516 180.059 33.8516C180.249 33.8516 180.419 33.8125 180.57 33.7344C180.724 33.6563 180.85 33.543 180.949 33.3945C181.051 33.2435 181.117 33.0625 181.148 32.8516H182.719C182.693 33.3099 182.568 33.7135 182.344 34.0625C182.122 34.4089 181.816 34.6797 181.426 34.875C181.035 35.0703 180.573 35.168 180.039 35.168ZM185.448 31.582V35.0508H183.784V27.0508H185.401V30.1094H185.472C185.607 29.7552 185.826 29.4779 186.128 29.2773C186.43 29.0742 186.809 28.9727 187.265 28.9727C187.681 28.9727 188.045 29.0638 188.354 29.2461C188.667 29.4258 188.909 29.6849 189.081 30.0234C189.256 30.3594 189.341 30.7617 189.339 31.2305V35.0508H187.675V31.5273C187.677 31.1576 187.584 30.8698 187.394 30.6641C187.206 30.4583 186.943 30.3555 186.604 30.3555C186.378 30.3555 186.177 30.4036 186.003 30.5C185.831 30.5964 185.696 30.737 185.597 30.9219C185.5 31.1042 185.451 31.3242 185.448 31.582ZM193.383 35.168C192.766 35.168 192.234 35.043 191.789 34.793C191.346 34.5404 191.005 34.1836 190.766 33.7227C190.526 33.2591 190.406 32.7109 190.406 32.0781C190.406 31.4609 190.526 30.9193 190.766 30.4531C191.005 29.987 191.342 29.6237 191.777 29.3633C192.215 29.1029 192.728 28.9727 193.316 28.9727C193.712 28.9727 194.081 29.0365 194.422 29.1641C194.766 29.2891 195.065 29.4779 195.32 29.7305C195.578 29.9831 195.779 30.3008 195.922 30.6836C196.065 31.0638 196.137 31.5091 196.137 32.0195V32.4766H191.07V31.4453H194.57C194.57 31.2057 194.518 30.9935 194.414 30.8086C194.31 30.6237 194.165 30.4792 193.98 30.375C193.798 30.2682 193.586 30.2148 193.344 30.2148C193.091 30.2148 192.867 30.2734 192.672 30.3906C192.479 30.5052 192.328 30.6602 192.219 30.8555C192.109 31.0482 192.053 31.263 192.051 31.5V32.4805C192.051 32.7773 192.105 33.0339 192.215 33.25C192.327 33.4661 192.484 33.6328 192.688 33.75C192.891 33.8672 193.132 33.9258 193.41 33.9258C193.595 33.9258 193.764 33.8997 193.918 33.8477C194.072 33.7956 194.203 33.7174 194.312 33.6133C194.422 33.5091 194.505 33.3815 194.563 33.2305L196.102 33.332C196.023 33.7018 195.863 34.0247 195.621 34.3008C195.382 34.5742 195.072 34.7878 194.691 34.9414C194.314 35.0924 193.878 35.168 193.383 35.168ZM202.215 30.7617L200.691 30.8555C200.665 30.7253 200.609 30.6081 200.523 30.5039C200.438 30.3971 200.324 30.3125 200.184 30.25C200.046 30.1849 199.88 30.1523 199.688 30.1523C199.43 30.1523 199.212 30.207 199.035 30.3164C198.858 30.4232 198.77 30.5664 198.77 30.7461C198.77 30.8893 198.827 31.0104 198.941 31.1094C199.056 31.2083 199.253 31.2878 199.531 31.3477L200.617 31.5664C201.201 31.6862 201.635 31.8789 201.922 32.1445C202.208 32.4102 202.352 32.7591 202.352 33.1914C202.352 33.5846 202.236 33.9297 202.004 34.2266C201.775 34.5234 201.46 34.7552 201.059 34.9219C200.66 35.0859 200.201 35.168 199.68 35.168C198.885 35.168 198.253 35.0026 197.781 34.6719C197.313 34.3385 197.038 33.8854 196.957 33.3125L198.594 33.2266C198.643 33.4687 198.763 33.6536 198.953 33.7812C199.143 33.9062 199.387 33.9688 199.684 33.9688C199.975 33.9688 200.21 33.9128 200.387 33.8008C200.566 33.6862 200.658 33.5391 200.66 33.3594C200.658 33.2083 200.594 33.0846 200.469 32.9883C200.344 32.8893 200.151 32.8138 199.891 32.7617L198.852 32.5547C198.266 32.4375 197.829 32.2344 197.543 31.9453C197.259 31.6562 197.117 31.2878 197.117 30.8398C197.117 30.4544 197.221 30.1224 197.43 29.8437C197.641 29.5651 197.936 29.3503 198.316 29.1992C198.699 29.0482 199.147 28.9727 199.66 28.9727C200.418 28.9727 201.014 29.1328 201.449 29.4531C201.887 29.7734 202.142 30.2096 202.215 30.7617Z" fill="#4F46E5"/>
<path d="M68.8169 50.0508V44.5962H69.6549V50.0508H68.8169ZM69.243 43.6871C69.0796 43.6871 68.9388 43.6315 68.8204 43.5202C68.7044 43.409 68.6464 43.2752 68.6464 43.119C68.6464 42.9627 68.7044 42.829 68.8204 42.7177C68.9388 42.6064 69.0796 42.5508 69.243 42.5508C69.4063 42.5508 69.546 42.6064 69.662 42.7177C69.7804 42.829 69.8396 42.9627 69.8396 43.119C69.8396 43.2752 69.7804 43.409 69.662 43.5202C69.546 43.6315 69.4063 43.6871 69.243 43.6871ZM72.028 46.7695V50.0508H71.1899V44.5962H71.9996V45.4485H72.0706C72.1984 45.1715 72.3925 44.949 72.653 44.7809C72.9134 44.6104 73.2496 44.5252 73.6615 44.5252C74.0308 44.5252 74.354 44.601 74.6309 44.7525C74.9079 44.9016 75.1234 45.1289 75.2773 45.4343C75.4311 45.7373 75.5081 46.1209 75.5081 46.5849V50.0508H74.67V46.6417C74.67 46.2132 74.5587 45.8794 74.3362 45.6403C74.1137 45.3988 73.8083 45.2781 73.42 45.2781C73.1525 45.2781 72.9134 45.3361 72.7027 45.4521C72.4943 45.5681 72.3298 45.7373 72.2091 45.9599C72.0883 46.1824 72.028 46.4523 72.028 46.7695ZM80.3918 52.0962C80.2497 52.0962 80.1231 52.0844 80.0118 52.0607C79.9005 52.0394 79.8236 52.0181 79.781 51.9968L79.9941 51.2582C80.1977 51.3103 80.3776 51.3292 80.5338 51.315C80.6901 51.3008 80.8286 51.2309 80.9493 51.1055C81.0724 50.9824 81.1849 50.7823 81.2867 50.5053L81.4429 50.0792L79.4259 44.5962H80.335L81.8406 48.9428H81.8975L83.4031 44.5962H84.3122L81.9969 50.8462C81.8927 51.128 81.7637 51.3612 81.6098 51.5458C81.4559 51.7328 81.2772 51.8713 81.0736 51.9613C80.8724 52.0513 80.6451 52.0962 80.3918 52.0962ZM87.439 50.1644C86.9466 50.1644 86.5145 50.0472 86.1428 49.8129C85.7735 49.5785 85.4847 49.2506 85.2764 48.8292C85.0704 48.4078 84.9674 47.9154 84.9674 47.3519C84.9674 46.7837 85.0704 46.2878 85.2764 45.864C85.4847 45.4402 85.7735 45.1112 86.1428 44.8768C86.5145 44.6424 86.9466 44.5252 87.439 44.5252C87.9314 44.5252 88.3623 44.6424 88.7316 44.8768C89.1033 45.1112 89.3921 45.4402 89.5981 45.864C89.8064 46.2878 89.9106 46.7837 89.9106 47.3519C89.9106 47.9154 89.8064 48.4078 89.5981 48.8292C89.3921 49.2506 89.1033 49.5785 88.7316 49.8129C88.3623 50.0472 87.9314 50.1644 87.439 50.1644ZM87.439 49.4116C87.8131 49.4116 88.1208 49.3157 88.3623 49.1239C88.6038 48.9322 88.7825 48.68 88.8985 48.3675C89.0145 48.055 89.0725 47.7165 89.0725 47.3519C89.0725 46.9873 89.0145 46.6476 88.8985 46.3327C88.7825 46.0179 88.6038 45.7634 88.3623 45.5692C88.1208 45.3751 87.8131 45.2781 87.439 45.2781C87.065 45.2781 86.7572 45.3751 86.5157 45.5692C86.2742 45.7634 86.0955 46.0179 85.9795 46.3327C85.8635 46.6476 85.8055 46.9873 85.8055 47.3519C85.8055 47.7165 85.8635 48.055 85.9795 48.3675C86.0955 48.68 86.2742 48.9322 86.5157 49.1239C86.7572 49.3157 87.065 49.4116 87.439 49.4116ZM94.6274 47.8207V44.5962H95.4655V50.0508H94.6274V49.1275H94.5706C94.4427 49.4045 94.2439 49.64 93.974 49.8342C93.7041 50.0259 93.3632 50.1218 92.9513 50.1218C92.6104 50.1218 92.3073 50.0472 92.0422 49.8981C91.777 49.7466 91.5687 49.5193 91.4172 49.2163C91.2657 48.9109 91.1899 48.5262 91.1899 48.0621V44.5962H92.028V48.0053C92.028 48.4031 92.1392 48.7203 92.3618 48.957C92.5867 49.1938 92.8731 49.3121 93.2211 49.3121C93.4295 49.3121 93.6414 49.2589 93.8568 49.1523C94.0746 49.0458 94.2569 48.8825 94.4037 48.6623C94.5528 48.4421 94.6274 48.1616 94.6274 47.8207ZM97.0004 50.0508V44.5962H97.8101V45.4201H97.8669C97.9664 45.1502 98.1463 44.9312 98.4067 44.7631C98.6671 44.5951 98.9607 44.511 99.2874 44.511C99.3489 44.511 99.4259 44.5122 99.5182 44.5146C99.6105 44.5169 99.6804 44.5205 99.7277 44.5252V45.3775C99.6993 45.3704 99.6342 45.3597 99.5324 45.3455C99.433 45.329 99.3276 45.3207 99.2164 45.3207C98.9512 45.3207 98.7145 45.3763 98.5061 45.4876C98.3002 45.5965 98.1368 45.748 98.0161 45.9421C97.8977 46.1339 97.8385 46.3529 97.8385 46.5991V50.0508H97.0004ZM103.534 52.0962V44.5962H104.343V45.4627H104.443C104.504 45.368 104.59 45.2473 104.698 45.1005C104.81 44.9513 104.968 44.8188 105.174 44.7028C105.383 44.5844 105.664 44.5252 106.019 44.5252C106.479 44.5252 106.884 44.64 107.234 44.8697C107.584 45.0993 107.858 45.4248 108.054 45.8462C108.251 46.2676 108.349 46.7648 108.349 47.3377C108.349 47.9154 108.251 48.4161 108.054 48.8398C107.858 49.2612 107.585 49.5879 107.237 49.82C106.889 50.0496 106.488 50.1644 106.034 50.1644C105.683 50.1644 105.403 50.1064 105.192 49.9904C104.981 49.872 104.819 49.7383 104.706 49.5891C104.592 49.4376 104.504 49.3121 104.443 49.2127H104.372V52.0962H103.534ZM104.358 47.3235C104.358 47.7354 104.418 48.0988 104.539 48.4137C104.659 48.7262 104.836 48.9712 105.068 49.1488C105.3 49.324 105.584 49.4116 105.92 49.4116C106.27 49.4116 106.563 49.3192 106.797 49.1346C107.034 48.9476 107.211 48.6966 107.33 48.3817C107.451 48.0645 107.511 47.7118 107.511 47.3235C107.511 46.94 107.452 46.5943 107.333 46.2866C107.217 45.9764 107.041 45.7314 106.804 45.5515C106.57 45.3692 106.275 45.2781 105.92 45.2781C105.579 45.2781 105.293 45.3645 105.061 45.5373C104.829 45.7077 104.653 45.9469 104.535 46.2546C104.417 46.56 104.358 46.9163 104.358 47.3235ZM111.233 50.1786C110.887 50.1786 110.573 50.1135 110.291 49.9833C110.01 49.8507 109.786 49.6602 109.62 49.4116C109.455 49.1606 109.372 48.8576 109.372 48.5025C109.372 48.19 109.433 47.9367 109.556 47.7425C109.679 47.546 109.844 47.3922 110.05 47.2809C110.256 47.1696 110.483 47.0868 110.732 47.0323C110.983 46.9755 111.235 46.9305 111.488 46.8974C111.82 46.8548 112.088 46.8228 112.294 46.8015C112.503 46.7778 112.654 46.7388 112.749 46.6843C112.846 46.6299 112.894 46.5352 112.894 46.4002V46.3718C112.894 46.0214 112.799 45.7492 112.607 45.555C112.417 45.3609 112.13 45.2638 111.744 45.2638C111.344 45.2638 111.03 45.3514 110.803 45.5266C110.576 45.7018 110.416 45.8888 110.323 46.0877L109.528 45.8036C109.67 45.4722 109.859 45.2141 110.096 45.0295C110.335 44.8424 110.596 44.7122 110.877 44.6388C111.161 44.5631 111.441 44.5252 111.715 44.5252C111.891 44.5252 112.092 44.5465 112.319 44.5891C112.549 44.6294 112.77 44.7134 112.983 44.8413C113.199 44.9691 113.377 45.1621 113.519 45.4201C113.661 45.6781 113.733 46.0238 113.733 46.457V50.0508H112.894V49.3121H112.852C112.795 49.4305 112.7 49.5572 112.568 49.6921C112.435 49.8271 112.259 49.9419 112.039 50.0366C111.818 50.1313 111.55 50.1786 111.233 50.1786ZM111.36 49.4258C111.692 49.4258 111.971 49.3607 112.198 49.2305C112.428 49.1003 112.601 48.9322 112.717 48.7262C112.835 48.5202 112.894 48.3036 112.894 48.0763V47.3093C112.859 47.3519 112.781 47.391 112.66 47.4265C112.542 47.4596 112.404 47.4892 112.248 47.5153C112.094 47.5389 111.944 47.5603 111.797 47.5792C111.653 47.5958 111.536 47.61 111.446 47.6218C111.228 47.6502 111.024 47.6964 110.835 47.7603C110.648 47.8219 110.496 47.9154 110.38 48.0408C110.267 48.1639 110.21 48.332 110.21 48.5451C110.21 48.8363 110.318 49.0565 110.533 49.2056C110.751 49.3524 111.027 49.4258 111.36 49.4258ZM115.262 50.0508V44.5962H116.072V45.4201H116.129C116.228 45.1502 116.408 44.9312 116.668 44.7631C116.929 44.5951 117.222 44.511 117.549 44.511C117.611 44.511 117.688 44.5122 117.78 44.5146C117.872 44.5169 117.942 44.5205 117.989 44.5252V45.3775C117.961 45.3704 117.896 45.3597 117.794 45.3455C117.695 45.329 117.589 45.3207 117.478 45.3207C117.213 45.3207 116.976 45.3763 116.768 45.4876C116.562 45.5965 116.399 45.748 116.278 45.9421C116.159 46.1339 116.1 46.3529 116.1 46.5991V50.0508H115.262ZM121.697 44.5962V45.3065H118.87V44.5962H121.697ZM119.694 43.2894H120.532V48.4883C120.532 48.725 120.566 48.9026 120.635 49.021C120.706 49.137 120.796 49.2151 120.905 49.2553C121.016 49.2932 121.133 49.3121 121.256 49.3121C121.349 49.3121 121.425 49.3074 121.484 49.2979C121.543 49.2861 121.59 49.2766 121.626 49.2695L121.796 50.0224C121.739 50.0437 121.66 50.065 121.558 50.0863C121.457 50.11 121.328 50.1218 121.171 50.1218C120.935 50.1218 120.703 50.0709 120.475 49.9691C120.25 49.8673 120.063 49.7122 119.914 49.5039C119.767 49.2956 119.694 49.0328 119.694 48.7156V43.2894ZM123.796 46.7695V50.0508H122.957V44.5962H123.767V45.4485H123.838C123.966 45.1715 124.16 44.949 124.421 44.7809C124.681 44.6104 125.017 44.5252 125.429 44.5252C125.798 44.5252 126.122 44.601 126.399 44.7525C126.676 44.9016 126.891 45.1289 127.045 45.4343C127.199 45.7373 127.276 46.1209 127.276 46.5849V50.0508H126.438V46.6417C126.438 46.2132 126.326 45.8794 126.104 45.6403C125.881 45.3988 125.576 45.2781 125.188 45.2781C124.92 45.2781 124.681 45.3361 124.47 45.4521C124.262 45.5681 124.097 45.7373 123.977 45.9599C123.856 46.1824 123.796 46.4523 123.796 46.7695ZM131.094 50.1644C130.568 50.1644 130.115 50.0484 129.734 49.8164C129.355 49.582 129.063 49.2553 128.857 48.8363C128.653 48.4149 128.551 47.9248 128.551 47.3661C128.551 46.8074 128.653 46.315 128.857 45.8888C129.063 45.4603 129.349 45.1265 129.716 44.8874C130.085 44.646 130.516 44.5252 131.009 44.5252C131.293 44.5252 131.573 44.5726 131.85 44.6673C132.127 44.762 132.38 44.9158 132.607 45.1289C132.834 45.3396 133.015 45.619 133.15 45.967C133.285 46.315 133.353 46.7435 133.353 47.2525V47.6076H129.148V46.8832H132.5C132.5 46.5754 132.439 46.3008 132.316 46.0593C132.195 45.8178 132.022 45.6272 131.797 45.4876C131.575 45.3479 131.312 45.2781 131.009 45.2781C130.675 45.2781 130.386 45.3609 130.142 45.5266C129.901 45.69 129.715 45.9031 129.585 46.1658C129.455 46.4286 129.389 46.7103 129.389 47.011V47.494C129.389 47.9059 129.46 48.2551 129.603 48.5415C129.747 48.8256 129.947 49.0423 130.203 49.1914C130.458 49.3382 130.755 49.4116 131.094 49.4116C131.314 49.4116 131.513 49.3808 131.691 49.3192C131.871 49.2553 132.026 49.1606 132.156 49.0352C132.286 48.9073 132.387 48.7487 132.458 48.5593L133.267 48.7866C133.182 49.0612 133.039 49.3027 132.838 49.511C132.636 49.717 132.388 49.878 132.092 49.994C131.796 50.1076 131.463 50.1644 131.094 50.1644ZM134.627 50.0508V44.5962H135.437V45.4201H135.494C135.593 45.1502 135.773 44.9312 136.034 44.7631C136.294 44.5951 136.588 44.511 136.914 44.511C136.976 44.511 137.053 44.5122 137.145 44.5146C137.237 44.5169 137.307 44.5205 137.355 44.5252V45.3775C137.326 45.3704 137.261 45.3597 137.159 45.3455C137.06 45.329 136.955 45.3207 136.843 45.3207C136.578 45.3207 136.341 45.3763 136.133 45.4876C135.927 45.5965 135.764 45.748 135.643 45.9421C135.525 46.1339 135.465 46.3529 135.465 46.5991V50.0508H134.627ZM143.448 50.1644C142.922 50.1644 142.469 50.0484 142.087 49.8164C141.709 49.582 141.416 49.2553 141.21 48.8363C141.007 48.4149 140.905 47.9248 140.905 47.3661C140.905 46.8074 141.007 46.315 141.21 45.8888C141.416 45.4603 141.703 45.1265 142.07 44.8874C142.439 44.646 142.87 44.5252 143.362 44.5252C143.646 44.5252 143.927 44.5726 144.204 44.6673C144.481 44.762 144.733 44.9158 144.96 45.1289C145.188 45.3396 145.369 45.619 145.504 45.967C145.639 46.315 145.706 46.7435 145.706 47.2525V47.6076H141.502V46.8832H144.854C144.854 46.5754 144.792 46.3008 144.669 46.0593C144.548 45.8178 144.376 45.6272 144.151 45.4876C143.928 45.3479 143.665 45.2781 143.362 45.2781C143.028 45.2781 142.74 45.3609 142.496 45.5266C142.254 45.69 142.069 45.9031 141.938 46.1658C141.808 46.4286 141.743 46.7103 141.743 47.011V47.494C141.743 47.9059 141.814 48.2551 141.956 48.5415C142.1 48.8256 142.301 49.0423 142.556 49.1914C142.812 49.3382 143.109 49.4116 143.448 49.4116C143.668 49.4116 143.867 49.3808 144.044 49.3192C144.224 49.2553 144.379 49.1606 144.509 49.0352C144.64 48.9073 144.74 48.7487 144.811 48.5593L145.621 48.7866C145.536 49.0612 145.392 49.3027 145.191 49.511C144.99 49.717 144.741 49.878 144.445 49.994C144.149 50.1076 143.817 50.1644 143.448 50.1644ZM149.197 50.1644C148.685 50.1644 148.245 50.0437 147.876 49.8022C147.506 49.5607 147.222 49.2281 147.024 48.8043C146.825 48.3806 146.725 47.8964 146.725 47.3519C146.725 46.7979 146.827 46.3091 147.031 45.8853C147.237 45.4592 147.523 45.1265 147.89 44.8874C148.259 44.646 148.69 44.5252 149.183 44.5252C149.566 44.5252 149.912 44.5962 150.22 44.7383C150.527 44.8803 150.779 45.0792 150.976 45.3349C151.172 45.5906 151.294 45.8888 151.342 46.2298H150.504C150.44 45.9812 150.298 45.761 150.078 45.5692C149.86 45.3751 149.566 45.2781 149.197 45.2781C148.87 45.2781 148.584 45.3633 148.337 45.5337C148.094 45.7018 147.903 45.9397 147.766 46.2475C147.631 46.5529 147.563 46.9116 147.563 47.3235C147.563 47.7449 147.63 48.1119 147.762 48.4244C147.897 48.7369 148.086 48.9795 148.33 49.1523C148.577 49.3252 148.865 49.4116 149.197 49.4116C149.415 49.4116 149.612 49.3737 149.79 49.2979C149.967 49.2222 150.118 49.1133 150.241 48.9712C150.364 48.8292 150.452 48.6587 150.504 48.4599H151.342C151.294 48.7818 151.177 49.0719 150.99 49.3299C150.805 49.5856 150.56 49.7892 150.255 49.9407C149.952 50.0898 149.599 50.1644 149.197 50.1644ZM154.783 50.1644C154.29 50.1644 153.858 50.0472 153.487 49.8129C153.117 49.5785 152.828 49.2506 152.62 48.8292C152.414 48.4078 152.311 47.9154 152.311 47.3519C152.311 46.7837 152.414 46.2878 152.62 45.864C152.828 45.4402 153.117 45.1112 153.487 44.8768C153.858 44.6424 154.29 44.5252 154.783 44.5252C155.275 44.5252 155.706 44.6424 156.075 44.8768C156.447 45.1112 156.736 45.4402 156.942 45.864C157.15 46.2878 157.254 46.7837 157.254 47.3519C157.254 47.9154 157.15 48.4078 156.942 48.8292C156.736 49.2506 156.447 49.5785 156.075 49.8129C155.706 50.0472 155.275 50.1644 154.783 50.1644ZM154.783 49.4116C155.157 49.4116 155.465 49.3157 155.706 49.1239C155.948 48.9322 156.126 48.68 156.242 48.3675C156.358 48.055 156.416 47.7165 156.416 47.3519C156.416 46.9873 156.358 46.6476 156.242 46.3327C156.126 46.0179 155.948 45.7634 155.706 45.5692C155.465 45.3751 155.157 45.2781 154.783 45.2781C154.409 45.2781 154.101 45.3751 153.859 45.5692C153.618 45.7634 153.439 46.0179 153.323 46.3327C153.207 46.6476 153.149 46.9873 153.149 47.3519C153.149 47.7165 153.207 48.055 153.323 48.3675C153.439 48.68 153.618 48.9322 153.859 49.1239C154.101 49.3157 154.409 49.4116 154.783 49.4116ZM162.397 45.8178L161.644 46.0309C161.597 45.9054 161.527 45.7835 161.435 45.6651C161.345 45.5444 161.222 45.445 161.066 45.3668C160.909 45.2887 160.709 45.2496 160.465 45.2496C160.132 45.2496 159.853 45.3266 159.631 45.4805C159.411 45.632 159.301 45.8249 159.301 46.0593C159.301 46.2676 159.376 46.4322 159.528 46.5529C159.679 46.6737 159.916 46.7743 160.238 46.8548L161.048 47.0536C161.536 47.172 161.899 47.3531 162.138 47.5969C162.377 47.8384 162.497 48.1497 162.497 48.5309C162.497 48.8434 162.407 49.1228 162.227 49.369C162.049 49.6152 161.801 49.8093 161.481 49.9513C161.161 50.0934 160.79 50.1644 160.366 50.1644C159.81 50.1644 159.349 50.0437 158.985 49.8022C158.62 49.5607 158.389 49.208 158.292 48.744L159.088 48.5451C159.163 48.8387 159.307 49.0588 159.517 49.2056C159.73 49.3524 160.009 49.4258 160.352 49.4258C160.742 49.4258 161.053 49.3429 161.282 49.1772C161.514 49.0091 161.63 48.8079 161.63 48.5735C161.63 48.3841 161.564 48.2255 161.431 48.0977C161.299 47.9674 161.095 47.8704 160.821 47.8065L159.911 47.5934C159.412 47.475 159.045 47.2915 158.811 47.043C158.579 46.792 158.463 46.4783 158.463 46.1019C158.463 45.7942 158.549 45.5219 158.722 45.2852C158.897 45.0484 159.135 44.8626 159.436 44.7276C159.739 44.5927 160.082 44.5252 160.465 44.5252C161.005 44.5252 161.429 44.6436 161.737 44.8803C162.047 45.1171 162.267 45.4296 162.397 45.8178ZM164.298 52.0962C164.156 52.0962 164.029 52.0844 163.918 52.0607C163.807 52.0394 163.73 52.0181 163.687 51.9968L163.9 51.2582C164.104 51.3103 164.284 51.3292 164.44 51.315C164.596 51.3008 164.735 51.2309 164.856 51.1055C164.979 50.9824 165.091 50.7823 165.193 50.5053L165.349 50.0792L163.332 44.5962H164.241L165.747 48.9428H165.804L167.309 44.5962H168.218L165.903 50.8462C165.799 51.128 165.67 51.3612 165.516 51.5458C165.362 51.7328 165.183 51.8713 164.98 51.9613C164.779 52.0513 164.551 52.0962 164.298 52.0962ZM173.188 45.8178L172.435 46.0309C172.388 45.9054 172.318 45.7835 172.226 45.6651C172.136 45.5444 172.013 45.445 171.857 45.3668C171.7 45.2887 171.5 45.2496 171.256 45.2496C170.923 45.2496 170.645 45.3266 170.422 45.4805C170.202 45.632 170.092 45.8249 170.092 46.0593C170.092 46.2676 170.167 46.4322 170.319 46.5529C170.47 46.6737 170.707 46.7743 171.029 46.8548L171.839 47.0536C172.327 47.172 172.69 47.3531 172.929 47.5969C173.168 47.8384 173.288 48.1497 173.288 48.5309C173.288 48.8434 173.198 49.1228 173.018 49.369C172.84 49.6152 172.592 49.8093 172.272 49.9513C171.953 50.0934 171.581 50.1644 171.157 50.1644C170.601 50.1644 170.14 50.0437 169.776 49.8022C169.411 49.5607 169.18 49.208 169.083 48.744L169.879 48.5451C169.954 48.8387 170.098 49.0588 170.308 49.2056C170.521 49.3524 170.8 49.4258 171.143 49.4258C171.533 49.4258 171.844 49.3429 172.073 49.1772C172.305 49.0091 172.421 48.8079 172.421 48.5735C172.421 48.3841 172.355 48.2255 172.222 48.0977C172.09 47.9674 171.886 47.8704 171.612 47.8065L170.703 47.5934C170.203 47.475 169.836 47.2915 169.602 47.043C169.37 46.792 169.254 46.4783 169.254 46.1019C169.254 45.7942 169.34 45.5219 169.513 45.2852C169.688 45.0484 169.926 44.8626 170.227 44.7276C170.53 44.5927 170.873 44.5252 171.256 44.5252C171.796 44.5252 172.22 44.6436 172.528 44.8803C172.838 45.1171 173.058 45.4296 173.188 45.8178ZM176.921 44.5962V45.3065H174.095V44.5962H176.921ZM174.919 43.2894H175.757V48.4883C175.757 48.725 175.791 48.9026 175.86 49.021C175.931 49.137 176.021 49.2151 176.13 49.2553C176.241 49.2932 176.358 49.3121 176.481 49.3121C176.573 49.3121 176.649 49.3074 176.708 49.2979C176.768 49.2861 176.815 49.2766 176.85 49.2695L177.021 50.0224C176.964 50.0437 176.885 50.065 176.783 50.0863C176.681 50.11 176.552 50.1218 176.396 50.1218C176.159 50.1218 175.927 50.0709 175.7 49.9691C175.475 49.8673 175.288 49.7122 175.139 49.5039C174.992 49.2956 174.919 49.0328 174.919 48.7156V43.2894ZM180.41 50.1644C179.885 50.1644 179.431 50.0484 179.05 49.8164C178.672 49.582 178.379 49.2553 178.173 48.8363C177.97 48.4149 177.868 47.9248 177.868 47.3661C177.868 46.8074 177.97 46.315 178.173 45.8888C178.379 45.4603 178.666 45.1265 179.033 44.8874C179.402 44.646 179.833 44.5252 180.325 44.5252C180.609 44.5252 180.89 44.5726 181.167 44.6673C181.444 44.762 181.696 44.9158 181.923 45.1289C182.15 45.3396 182.332 45.619 182.467 45.967C182.601 46.315 182.669 46.7435 182.669 47.2525V47.6076H178.464V46.8832H181.817C181.817 46.5754 181.755 46.3008 181.632 46.0593C181.511 45.8178 181.338 45.6272 181.114 45.4876C180.891 45.3479 180.628 45.2781 180.325 45.2781C179.991 45.2781 179.703 45.3609 179.459 45.5266C179.217 45.69 179.031 45.9031 178.901 46.1658C178.771 46.4286 178.706 46.7103 178.706 47.011V47.494C178.706 47.9059 178.777 48.2551 178.919 48.5415C179.063 48.8256 179.263 49.0423 179.519 49.1914C179.775 49.3382 180.072 49.4116 180.41 49.4116C180.631 49.4116 180.829 49.3808 181.007 49.3192C181.187 49.2553 181.342 49.1606 181.472 49.0352C181.602 48.9073 181.703 48.7487 181.774 48.5593L182.584 48.7866C182.498 49.0612 182.355 49.3027 182.154 49.511C181.953 49.717 181.704 49.878 181.408 49.994C181.112 50.1076 180.78 50.1644 180.41 50.1644ZM183.944 50.0508V44.5962H184.753V45.4485H184.824C184.938 45.1573 185.122 44.9312 185.375 44.7702C185.628 44.6069 185.932 44.5252 186.288 44.5252C186.647 44.5252 186.947 44.6069 187.186 44.7702C187.427 44.9312 187.616 45.1573 187.751 45.4485H187.807C187.947 45.1668 188.157 44.9431 188.436 44.7773C188.715 44.6093 189.05 44.5252 189.441 44.5252C189.929 44.5252 190.328 44.6779 190.638 44.9833C190.948 45.2863 191.103 45.7586 191.103 46.4002V50.0508H190.265V46.4002C190.265 45.9978 190.155 45.7101 189.935 45.5373C189.714 45.3645 189.455 45.2781 189.157 45.2781C188.773 45.2781 188.476 45.3941 188.266 45.6261C188.055 45.8557 187.949 46.1469 187.949 46.4996V50.0508H187.097V46.315C187.097 46.0049 186.997 45.7551 186.795 45.5657C186.594 45.3739 186.335 45.2781 186.018 45.2781C185.8 45.2781 185.596 45.3361 185.407 45.4521C185.22 45.5681 185.068 45.729 184.952 45.935C184.839 46.1386 184.782 46.3742 184.782 46.6417V50.0508H183.944Z" fill="#6B7280"/>
</g>
<defs>
<filter id="filter0_d_6287_12587" x="-0.000195503" y="0.000781059" width="262.1" height="84.1" filterUnits="userSpaceOnUse" color-interpolation-filters="sRGB">
<feFlood flood-opacity="0" result="BackgroundImageFix"/>
<feColorMatrix in="SourceAlpha" type="matrix" values="0 0 0 0 0 0 0 0 0 0 0 0 0 0 0 0 0 0 127 0" result="hardAlpha"/>
<feOffset dy="4"/>
<feGaussianBlur stdDeviation="7.9"/>
<feComposite in2="hardAlpha" operator="out"/>
<feColorMatrix type="matrix" values="0 0 0 0 0 0 0 0 0 0 0 0 0 0 0 0 0 0 0.25 0"/>
<feBlend mode="normal" in2="BackgroundImageFix" result="effect1_dropShadow_6287_12587"/>
<feBlend mode="normal" in="SourceGraphic" in2="effect1_dropShadow_6287_12587" result="shape"/>
</filter>
</defs>
</svg>

