<svg width="191" height="121" viewBox="0 0 191 121" fill="none" xmlns="http://www.w3.org/2000/svg">
<path d="M180 0.25H10C4.47715 0.25 0 4.72715 0 10.25V110.25C0 115.773 4.47715 120.25 10 120.25H180C185.523 120.25 190 115.773 190 110.25V10.25C190 4.72715 185.523 0.25 180 0.25Z" fill="white" stroke="#E5E7EB" stroke-width="0.5"/>
<path d="M14.5689 15.7045H16.2756L18.0781 20.1023H18.1548L19.9574 15.7045H21.6641V22.25H20.3217V17.9897H20.2674L18.5735 22.218H17.6594L15.9656 17.9737H15.9112V22.25H14.5689V15.7045ZM28.8192 18.9773C28.8192 19.6911 28.6839 20.2983 28.4133 20.799C28.1448 21.2997 27.7783 21.6822 27.3138 21.9464C26.8515 22.2085 26.3316 22.3395 25.7542 22.3395C25.1725 22.3395 24.6505 22.2074 24.1881 21.9432C23.7258 21.679 23.3604 21.2965 23.0919 20.7958C22.8234 20.2951 22.6892 19.6889 22.6892 18.9773C22.6892 18.2635 22.8234 17.6562 23.0919 17.1555C23.3604 16.6548 23.7258 16.2734 24.1881 16.0114C24.6505 15.7472 25.1725 15.6151 25.7542 15.6151C26.3316 15.6151 26.8515 15.7472 27.3138 16.0114C27.7783 16.2734 28.1448 16.6548 28.4133 17.1555C28.6839 17.6562 28.8192 18.2635 28.8192 18.9773ZM27.4161 18.9773C27.4161 18.5149 27.3469 18.125 27.2084 17.8075C27.072 17.4901 26.8792 17.2493 26.6299 17.0852C26.3806 16.9212 26.0887 16.8391 25.7542 16.8391C25.4197 16.8391 25.1278 16.9212 24.8785 17.0852C24.6292 17.2493 24.4353 17.4901 24.2968 17.8075C24.1604 18.125 24.0922 18.5149 24.0922 18.9773C24.0922 19.4396 24.1604 19.8295 24.2968 20.147C24.4353 20.4645 24.6292 20.7053 24.8785 20.8693C25.1278 21.0334 25.4197 21.1154 25.7542 21.1154C26.0887 21.1154 26.3806 21.0334 26.6299 20.8693C26.8792 20.7053 27.072 20.4645 27.2084 20.147C27.3469 19.8295 27.4161 19.4396 27.4161 18.9773ZM35.3191 15.7045V22.25H34.1238L31.2761 18.1303H31.2282V22.25H29.8443V15.7045H31.0588L33.8841 19.821H33.9416V15.7045H35.3191ZM36.2132 16.8455V15.7045H41.5889V16.8455H39.585V22.25H38.2171V16.8455H36.2132ZM42.4742 22.25V15.7045H43.858V18.4052H46.6673V15.7045H48.048V22.25H46.6673V19.5462H43.858V22.25H42.4742ZM49.189 22.25V15.7045H50.5729V21.109H53.379V22.25H49.189ZM53.077 15.7045H54.627L56.1196 18.5234H56.1835L57.676 15.7045H59.2261L56.8387 19.9361V22.25H55.4644V19.9361L53.077 15.7045ZM62.065 22.25V15.7045H64.6474C65.1417 15.7045 65.5636 15.793 65.913 15.9698C66.2646 16.1445 66.532 16.3928 66.7152 16.7145C66.9006 17.0341 66.9933 17.4102 66.9933 17.8427C66.9933 18.2773 66.8995 18.6513 66.712 18.9645C66.5245 19.2756 66.2528 19.5142 65.897 19.6804C65.5433 19.8466 65.1151 19.9297 64.6122 19.9297H62.8832V18.8175H64.3885C64.6527 18.8175 64.8722 18.7812 65.0469 18.7088C65.2216 18.6364 65.3516 18.5277 65.4368 18.3828C65.5241 18.2379 65.5678 18.0579 65.5678 17.8427C65.5678 17.6254 65.5241 17.4421 65.4368 17.293C65.3516 17.1438 65.2205 17.0309 65.0437 16.9542C64.869 16.8754 64.6484 16.8359 64.3821 16.8359H63.4489V22.25H62.065ZM65.5998 19.2713L67.2266 22.25H65.6989L64.1072 19.2713H65.5998ZM67.9712 22.25V15.7045H72.3817V16.8455H69.3551V18.4052H72.1548V19.5462H69.3551V21.109H72.3945V22.25H67.9712ZM74.6645 15.7045L76.2465 20.6776H76.3073L77.8925 15.7045H79.4266L77.1702 22.25H75.3868L73.1272 15.7045H74.6645ZM80.2144 22.25V15.7045H84.6249V16.8455H81.5983V18.4052H84.398V19.5462H81.5983V21.109H84.6377V22.25H80.2144ZM91.1999 15.7045V22.25H90.0046L87.157 18.1303H87.109V22.25H85.7251V15.7045H86.9396L89.7649 19.821H89.8224V15.7045H91.1999ZM96.3863 15.7045H97.7702V19.9553C97.7702 20.4325 97.6562 20.8501 97.4282 21.2081C97.2023 21.5661 96.8859 21.8452 96.479 22.0455C96.072 22.2436 95.5979 22.3427 95.0567 22.3427C94.5134 22.3427 94.0383 22.2436 93.6313 22.0455C93.2243 21.8452 92.9079 21.5661 92.6821 21.2081C92.4562 20.8501 92.3433 20.4325 92.3433 19.9553V15.7045H93.7272V19.837C93.7272 20.0863 93.7815 20.3079 93.8902 20.5018C94.001 20.6957 94.1565 20.848 94.3568 20.9588C94.5571 21.0696 94.7904 21.125 95.0567 21.125C95.3252 21.125 95.5585 21.0696 95.7567 20.9588C95.9569 20.848 96.1114 20.6957 96.2201 20.5018C96.3309 20.3079 96.3863 20.0863 96.3863 19.837V15.7045ZM98.9087 22.25V15.7045H103.319V16.8455H100.293V18.4052H103.092V19.5462H100.293V21.109H103.332V22.25H98.9087Z" fill="#9CA3AF"/>
<path d="M169 12.25H147C143.134 12.25 140 15.384 140 19.25C140 23.116 143.134 26.25 147 26.25H169C172.866 26.25 176 23.116 176 19.25C176 15.384 172.866 12.25 169 12.25Z" fill="#ECFDF5"/>
<path d="M149.21 22.3636V18.3409H150.227V22.3636H149.21ZM147.707 20.8608V19.8438H151.73V20.8608H147.707ZM152.745 23.25V22.3636L154.816 20.446C154.992 20.2756 155.14 20.1222 155.259 19.9858C155.38 19.8494 155.472 19.7159 155.535 19.5852C155.597 19.4527 155.629 19.3097 155.629 19.1562C155.629 18.9858 155.59 18.839 155.512 18.7159C155.434 18.5909 155.328 18.4953 155.194 18.429C155.059 18.3608 154.907 18.3267 154.737 18.3267C154.558 18.3267 154.403 18.3627 154.271 18.4347C154.138 18.5066 154.036 18.6098 153.964 18.7443C153.892 18.8788 153.856 19.0388 153.856 19.2244H152.688C152.688 18.8437 152.774 18.5133 152.947 18.233C153.119 17.9527 153.361 17.7358 153.671 17.5824C153.982 17.429 154.34 17.3523 154.745 17.3523C155.162 17.3523 155.524 17.4261 155.833 17.5739C156.144 17.7197 156.385 17.9223 156.558 18.1818C156.73 18.4413 156.816 18.7386 156.816 19.0739C156.816 19.2936 156.772 19.5104 156.685 19.7244C156.6 19.9384 156.448 20.1761 156.228 20.4375C156.008 20.697 155.699 21.0085 155.299 21.3722L154.45 22.2045V22.2443H156.893V23.25H152.745ZM159.955 23.3295C159.517 23.3295 159.128 23.2585 158.787 23.1165C158.448 22.9725 158.182 22.7765 157.989 22.5284C157.795 22.2803 157.699 21.9991 157.699 21.6847C157.699 21.4422 157.754 21.2197 157.864 21.017C157.975 20.8125 158.127 20.643 158.318 20.5085C158.509 20.3722 158.723 20.285 158.96 20.2472V20.2074C158.65 20.1449 158.398 19.9943 158.205 19.7557C158.011 19.5152 157.915 19.2358 157.915 18.9176C157.915 18.6165 158.003 18.3485 158.179 18.1136C158.355 17.8769 158.597 17.6913 158.903 17.5568C159.212 17.4205 159.562 17.3523 159.955 17.3523C160.347 17.3523 160.696 17.4205 161.003 17.5568C161.312 17.6932 161.554 17.8797 161.73 18.1165C161.906 18.3513 161.995 18.6184 161.997 18.9176C161.995 19.2377 161.897 19.517 161.702 19.7557C161.507 19.9943 161.257 20.1449 160.952 20.2074V20.2472C161.185 20.285 161.396 20.3722 161.585 20.5085C161.777 20.643 161.928 20.8125 162.04 21.017C162.153 21.2197 162.211 21.4422 162.213 21.6847C162.211 21.9991 162.114 22.2803 161.92 22.5284C161.727 22.7765 161.46 22.9725 161.119 23.1165C160.78 23.2585 160.392 23.3295 159.955 23.3295ZM159.955 22.4261C160.15 22.4261 160.32 22.3911 160.466 22.321C160.612 22.2491 160.725 22.1506 160.807 22.0256C160.89 21.8987 160.932 21.7528 160.932 21.5881C160.932 21.4195 160.889 21.2708 160.804 21.142C160.719 21.0114 160.603 20.9091 160.457 20.8352C160.312 20.7595 160.144 20.7216 159.955 20.7216C159.767 20.7216 159.599 20.7595 159.452 20.8352C159.304 20.9091 159.188 21.0114 159.102 21.142C159.019 21.2708 158.977 21.4195 158.977 21.5881C158.977 21.7528 159.018 21.8987 159.099 22.0256C159.181 22.1506 159.295 22.2491 159.443 22.321C159.591 22.3911 159.761 22.4261 159.955 22.4261ZM159.955 19.8267C160.117 19.8267 160.262 19.7936 160.389 19.7273C160.516 19.661 160.616 19.5691 160.688 19.4517C160.759 19.3343 160.795 19.1989 160.795 19.0455C160.795 18.8939 160.759 18.7614 160.688 18.6477C160.616 18.5322 160.517 18.4422 160.392 18.3778C160.267 18.3116 160.121 18.2784 159.955 18.2784C159.79 18.2784 159.644 18.3116 159.517 18.3778C159.39 18.4422 159.291 18.5322 159.219 18.6477C159.149 18.7614 159.114 18.8939 159.114 19.0455C159.114 19.1989 159.15 19.3343 159.222 19.4517C159.294 19.5691 159.393 19.661 159.52 19.7273C159.647 19.7936 159.792 19.8267 159.955 19.8267ZM166.258 22.1591V21.8523C166.258 21.6193 166.307 21.4053 166.406 21.2102C166.506 21.0133 166.651 20.8561 166.84 20.7386C167.031 20.6193 167.264 20.5597 167.539 20.5597C167.817 20.5597 168.051 20.6184 168.241 20.7358C168.432 20.8532 168.576 21.0104 168.673 21.2074C168.771 21.4025 168.82 21.6174 168.82 21.8523V22.1591C168.82 22.392 168.771 22.607 168.673 22.804C168.574 22.9991 168.429 23.1553 168.238 23.2727C168.047 23.392 167.814 23.4517 167.539 23.4517C167.261 23.4517 167.027 23.392 166.837 23.2727C166.648 23.1553 166.504 22.9991 166.406 22.804C166.307 22.607 166.258 22.392 166.258 22.1591ZM167.085 21.8523V22.1591C167.085 22.2936 167.117 22.4205 167.181 22.5398C167.247 22.6591 167.367 22.7188 167.539 22.7188C167.711 22.7188 167.829 22.66 167.891 22.5426C167.956 22.4252 167.988 22.2973 167.988 22.1591V21.8523C167.988 21.714 167.958 21.5852 167.897 21.4659C167.836 21.3466 167.717 21.2869 167.539 21.2869C167.369 21.2869 167.25 21.3466 167.184 21.4659C167.118 21.5852 167.085 21.714 167.085 21.8523ZM163.272 18.8295V18.5227C163.272 18.2879 163.322 18.0729 163.423 17.8778C163.523 17.6809 163.668 17.5237 163.857 17.4062C164.049 17.2888 164.28 17.2301 164.55 17.2301C164.831 17.2301 165.066 17.2888 165.255 17.4062C165.444 17.5237 165.588 17.6809 165.687 17.8778C165.785 18.0729 165.835 18.2879 165.835 18.5227V18.8295C165.835 19.0644 165.784 19.2794 165.684 19.4744C165.585 19.6695 165.441 19.8258 165.249 19.9432C165.06 20.0587 164.827 20.1165 164.55 20.1165C164.274 20.1165 164.04 20.0578 163.849 19.9403C163.659 19.821 163.515 19.6648 163.417 19.4716C163.32 19.2765 163.272 19.0625 163.272 18.8295ZM164.104 18.5227V18.8295C164.104 18.9678 164.137 19.0956 164.201 19.2131C164.267 19.3305 164.384 19.3892 164.55 19.3892C164.725 19.3892 164.843 19.3305 164.906 19.2131C164.97 19.0956 165.002 18.9678 165.002 18.8295V18.5227C165.002 18.3845 164.972 18.2557 164.911 18.1364C164.851 18.017 164.73 17.9574 164.55 17.9574C164.382 17.9574 164.265 18.018 164.201 18.1392C164.137 18.2604 164.104 18.3883 164.104 18.5227ZM163.647 23.25L167.647 17.4318H168.391L164.391 23.25H163.647Z" fill="#047857"/>
<path d="M20.6719 48.25V28.25H21.9531V48.25H20.6719ZM24.0703 34.8516C24.0078 34.2214 23.7396 33.7318 23.2656 33.3828C22.7917 33.0339 22.1484 32.8594 21.3359 32.8594C20.7839 32.8594 20.3177 32.9375 19.9375 33.0937C19.5573 33.2448 19.2656 33.4557 19.0625 33.7266C18.8646 33.9974 18.7656 34.3047 18.7656 34.6484C18.7552 34.9349 18.8151 35.1849 18.9453 35.3984C19.0807 35.612 19.2656 35.7969 19.5 35.9531C19.7344 36.1042 20.0052 36.237 20.3125 36.3516C20.6198 36.4609 20.9479 36.5547 21.2969 36.6328L22.7344 36.9766C23.4323 37.1328 24.0729 37.3411 24.6562 37.6016C25.2396 37.862 25.7448 38.1823 26.1719 38.5625C26.599 38.9427 26.9297 39.3906 27.1641 39.9062C27.4036 40.4219 27.526 41.013 27.5312 41.6797C27.526 42.6589 27.276 43.5078 26.7813 44.2266C26.2917 44.9401 25.5833 45.4948 24.6562 45.8906C23.7344 46.2812 22.6224 46.4766 21.3203 46.4766C20.0286 46.4766 18.9036 46.2786 17.9453 45.8828C16.9922 45.487 16.2474 44.901 15.7109 44.125C15.1797 43.3437 14.901 42.3776 14.875 41.2266H18.1484C18.1849 41.763 18.3385 42.2109 18.6094 42.5703C18.8854 42.9245 19.2526 43.1927 19.7109 43.375C20.1745 43.5521 20.6979 43.6406 21.2812 43.6406C21.8542 43.6406 22.3516 43.5573 22.7734 43.3906C23.2005 43.224 23.5313 42.9922 23.7656 42.6953C24 42.3984 24.1172 42.0573 24.1172 41.6719C24.1172 41.3125 24.0104 41.0104 23.7969 40.7656C23.5885 40.5208 23.2813 40.3125 22.875 40.1406C22.474 39.9687 21.9818 39.8125 21.3984 39.6719L19.6563 39.2344C18.3073 38.9062 17.2422 38.3932 16.4609 37.6953C15.6797 36.9974 15.2917 36.0573 15.2969 34.875C15.2917 33.9062 15.5495 33.0599 16.0703 32.3359C16.5964 31.612 17.3177 31.0469 18.2344 30.6406C19.151 30.2344 20.1927 30.0312 21.3594 30.0312C22.5469 30.0312 23.5833 30.2344 24.4688 30.6406C25.3594 31.0469 26.0521 31.612 26.5469 32.3359C27.0417 33.0599 27.2969 33.8984 27.3125 34.8516H24.0703ZM36.6738 30.25V46.25H33.291V33.4609H33.1973L29.5332 35.7578V32.7578L33.4941 30.25H36.6738ZM41.5938 46.4531C41.0781 46.4531 40.6354 46.2708 40.2656 45.9062C39.901 45.5365 39.7188 45.0937 39.7188 44.5781C39.7188 44.0677 39.901 43.6302 40.2656 43.2656C40.6354 42.901 41.0781 42.7187 41.5938 42.7187C42.0938 42.7187 42.5313 42.901 42.9063 43.2656C43.2813 43.6302 43.4688 44.0677 43.4688 44.5781C43.4688 44.9219 43.3802 45.237 43.2031 45.5234C43.0313 45.8047 42.8047 46.0312 42.5234 46.2031C42.2422 46.3698 41.9323 46.4531 41.5938 46.4531ZM46.1699 46.25V43.8125L51.8652 38.5391C52.3496 38.0703 52.7559 37.6484 53.084 37.2734C53.4173 36.8984 53.6699 36.5312 53.8418 36.1719C54.0137 35.8073 54.0996 35.4141 54.0996 34.9922C54.0996 34.5234 53.9928 34.1198 53.7793 33.7812C53.5658 33.4375 53.2741 33.1745 52.9043 32.9922C52.5345 32.8047 52.1152 32.7109 51.6465 32.7109C51.1569 32.7109 50.7298 32.8099 50.3652 33.0078C50.0007 33.2057 49.7194 33.4896 49.5215 33.8594C49.3236 34.2292 49.2246 34.6693 49.2246 35.1797H46.0137C46.0137 34.1328 46.2507 33.224 46.7246 32.4531C47.1986 31.6823 47.8626 31.0859 48.7168 30.6641C49.571 30.2422 50.5553 30.0312 51.6699 30.0312C52.8158 30.0312 53.8132 30.2344 54.6621 30.6406C55.5163 31.0417 56.1803 31.599 56.6543 32.3125C57.1283 33.026 57.3652 33.8437 57.3652 34.7656C57.3652 35.3698 57.2454 35.9661 57.0059 36.5547C56.7715 37.1432 56.3522 37.7969 55.748 38.5156C55.1439 39.2292 54.2923 40.0859 53.1934 41.0859L50.8574 43.375V43.4844H57.5762V46.25H46.1699ZM60.1211 30.25H64.293L68.6992 41H68.8867L73.293 30.25H77.4648V46.25H74.1836V35.8359H74.0508L69.9102 46.1719H67.6758L63.5352 35.7969H63.4023V46.25H60.1211V30.25Z" fill="#111827"/>
<path d="M23 96.25H16C14.8954 96.25 14 97.1454 14 98.25V108.25C14 109.355 14.8954 110.25 16 110.25H23C24.1046 110.25 25 109.355 25 108.25V98.25C25 97.1454 24.1046 96.25 23 96.25Z" fill="#DBEAFE"/>
<path d="M37 90.25H30C28.8954 90.25 28 91.1454 28 92.25V108.25C28 109.355 28.8954 110.25 30 110.25H37C38.1046 110.25 39 109.355 39 108.25V92.25C39 91.1454 38.1046 90.25 37 90.25Z" fill="#DBEAFE"/>
<path d="M51 92.25H44C42.8954 92.25 42 93.1454 42 94.25V108.25C42 109.355 42.8954 110.25 44 110.25H51C52.1046 110.25 53 109.355 53 108.25V94.25C53 93.1454 52.1046 92.25 51 92.25Z" fill="#DBEAFE"/>
<path d="M65 84.25H58C56.8954 84.25 56 85.1454 56 86.25V108.25C56 109.355 56.8954 110.25 58 110.25H65C66.1046 110.25 67 109.355 67 108.25V86.25C67 85.1454 66.1046 84.25 65 84.25Z" fill="#C7D2FE"/>
<path d="M79 86.25H72C70.8954 86.25 70 87.1454 70 88.25V108.25C70 109.355 70.8954 110.25 72 110.25H79C80.1046 110.25 81 109.355 81 108.25V88.25C81 87.1454 80.1046 86.25 79 86.25Z" fill="#C7D2FE"/>
<path d="M93 78.25H86C84.8954 78.25 84 79.1454 84 80.25V108.25C84 109.355 84.8954 110.25 86 110.25H93C94.1046 110.25 95 109.355 95 108.25V80.25C95 79.1454 94.1046 78.25 93 78.25Z" fill="#A5B4FC"/>
<path d="M107 80.25H100C98.8954 80.25 98 81.1454 98 82.25V108.25C98 109.355 98.8954 110.25 100 110.25H107C108.105 110.25 109 109.355 109 108.25V82.25C109 81.1454 108.105 80.25 107 80.25Z" fill="#A5B4FC"/>
<path d="M121 72.25H114C112.895 72.25 112 73.1454 112 74.25V108.25C112 109.355 112.895 110.25 114 110.25H121C122.105 110.25 123 109.355 123 108.25V74.25C123 73.1454 122.105 72.25 121 72.25Z" fill="#818CF8"/>
<path d="M135 74.25H128C126.895 74.25 126 75.1454 126 76.25V108.25C126 109.355 126.895 110.25 128 110.25H135C136.105 110.25 137 109.355 137 108.25V76.25C137 75.1454 136.105 74.25 135 74.25Z" fill="#818CF8"/>
<path d="M149 66.25H142C140.895 66.25 140 67.1454 140 68.25V108.25C140 109.355 140.895 110.25 142 110.25H149C150.105 110.25 151 109.355 151 108.25V68.25C151 67.1454 150.105 66.25 149 66.25Z" fill="#6366F1"/>
<path d="M163 62.25H156C154.895 62.25 154 63.1454 154 64.25V108.25C154 109.355 154.895 110.25 156 110.25H163C164.105 110.25 165 109.355 165 108.25V64.25C165 63.1454 164.105 62.25 163 62.25Z" fill="#4F46E5"/>
<path d="M177 58.25H170C168.895 58.25 168 59.1454 168 60.25V108.25C168 109.355 168.895 110.25 170 110.25H177C178.105 110.25 179 109.355 179 108.25V60.25C179 59.1454 178.105 58.25 177 58.25Z" fill="url(#paint0_linear_6287_12569)"/>
<defs>
<linearGradient id="paint0_linear_6287_12569" x1="168" y1="58.25" x2="179" y2="58.25" gradientUnits="userSpaceOnUse">
<stop stop-color="#818CF8"/>
<stop offset="1" stop-color="#4F46E5"/>
</linearGradient>
</defs>
</svg>

