<svg width="59" height="58" viewBox="0 0 59 58" fill="none" xmlns="http://www.w3.org/2000/svg">
<rect x="0.666992" width="58" height="58" rx="16" fill="#F7DA1D"/>
<path d="M28.3048 7.00003C19.9915 6.97253 3.99805 25.7841 9.97305 30.767L11.4403 31.9935C11.0443 33.0416 10.9043 34.1672 11.0317 35.2787C11.1877 36.8187 11.9938 38.2927 13.2977 39.433C14.5346 40.5147 16.1617 41.2003 17.7404 41.2003C20.3518 47.1402 26.3212 50.7848 33.3159 50.9902C40.8195 51.2102 47.1214 47.7342 49.7606 41.49C49.9334 41.05 50.667 39.0773 50.667 37.3339C50.667 35.5812 49.664 34.8552 49.0233 34.8552C49.0047 34.7874 48.8784 34.3309 48.7038 33.7809C48.5311 33.2309 48.3509 32.8459 48.3509 32.8459C49.0474 31.8138 49.0604 30.8935 48.9675 30.371C48.8691 29.7238 48.5961 29.1738 48.0463 28.6037C47.4965 28.0335 46.371 27.4487 44.7904 27.0124L43.9621 26.785C43.9583 26.7502 43.9175 24.8546 43.8822 24.0406C43.8562 23.4539 43.8042 22.5336 43.5163 21.6298C43.1708 20.4051 42.5728 19.3327 41.8243 18.647C43.8896 16.535 45.1786 14.2067 45.1749 12.2103C45.1693 8.36951 40.3904 7.20719 34.5027 9.61432L33.2546 10.1368C32.4928 9.39826 31.7301 8.66066 30.9664 7.92402C30.2309 7.29153 29.3264 7.0037 28.3048 7.00003ZM28.4404 8.6005C28.7487 8.6005 29.0385 8.63534 29.3041 8.70684C29.8557 8.86083 31.6814 10.9508 31.6814 10.9508C31.6814 10.9508 28.29 12.8079 25.1437 15.3984C20.909 18.6195 17.7051 23.3018 15.7883 28.3819C14.282 28.6715 12.9541 29.5148 12.1424 30.679C11.6576 30.2793 10.7531 29.5057 10.5934 29.205C9.29699 26.774 12.0068 22.0515 13.9013 19.384C18.214 13.3066 24.7815 8.5895 28.4404 8.6005ZM34.5436 14.6009C34.6179 14.5972 34.655 14.6926 34.5956 14.7366C34.33 14.9382 34.0402 15.2132 33.8285 15.4956C33.8203 15.5063 33.8153 15.5191 33.814 15.5325C33.8127 15.5459 33.8151 15.5594 33.8211 15.5715C33.827 15.5837 33.8362 15.5939 33.8477 15.6012C33.8592 15.6085 33.8724 15.6126 33.8861 15.6129C35.1101 15.6202 36.8337 16.0437 37.9573 16.6652C38.0335 16.7074 37.9796 16.854 37.8942 16.8339C36.1947 16.4489 33.4106 16.1574 30.5206 16.8522C27.9389 17.4755 25.9702 18.4343 24.5326 19.4665C24.4583 19.5178 24.3729 19.4243 24.4305 19.3565C26.0946 17.459 28.1432 15.8091 29.9783 14.8832C30.0414 14.8502 30.1083 14.9181 30.0749 14.9786C29.9281 15.2407 29.6477 15.7981 29.5585 16.2215C29.5455 16.2857 29.618 16.337 29.6737 16.2985C30.8159 15.5286 32.8014 14.7072 34.5436 14.6009ZM40.1583 20.4766L40.2623 20.4785C40.564 20.4902 40.8567 20.5827 41.1092 20.7461C42.101 21.397 42.2422 22.9754 42.2942 24.1286C42.322 24.7886 42.4038 26.3817 42.4316 26.8382C42.4948 27.885 42.7734 28.0317 43.3361 28.215C43.6519 28.3195 43.9491 28.3947 44.3818 28.5157C45.6931 28.8787 46.4713 29.249 46.9635 29.722C47.2551 30.019 47.3907 30.3325 47.4334 30.6331C47.5876 31.7478 46.5567 33.1264 43.8265 34.3749C40.8418 35.7426 37.22 36.0891 34.7182 35.8141L33.8434 35.7169C31.8412 35.4511 30.6989 38.003 31.9006 39.752C32.6751 40.8795 34.7832 41.6128 36.8931 41.6128C41.7296 41.6128 45.4461 39.576 46.8298 37.8142C46.8697 37.7642 46.9069 37.7122 46.9412 37.6584C47.0081 37.5575 46.9523 37.5025 46.8669 37.5594C45.7377 38.322 40.7192 41.3525 35.3515 40.4395C35.3515 40.4395 34.6996 40.335 34.1034 40.1058C33.6298 39.9225 32.6398 39.4752 32.5191 38.4724C36.8522 39.7923 39.5788 38.5439 39.5788 38.5439C39.604 38.5326 39.6251 38.5138 39.6391 38.4901C39.6531 38.4665 39.6593 38.4391 39.6568 38.4119C39.6552 38.3957 39.6503 38.38 39.6425 38.3657C39.6347 38.3514 39.6241 38.3388 39.6113 38.3285C39.5985 38.3183 39.5838 38.3107 39.568 38.3061C39.5523 38.3015 39.5357 38.3001 39.5193 38.3019C39.5193 38.3019 35.97 38.8207 32.6138 37.6089C32.9797 36.4356 33.9511 36.8609 35.4184 36.9764C37.7013 37.11 39.9907 36.8658 42.192 36.2541C43.7113 35.8251 45.7061 34.9762 47.257 33.7681C47.7789 34.9011 47.9627 36.1496 47.9627 36.1496C47.9627 36.1496 48.3695 36.0762 48.7057 36.2834C49.027 36.4777 49.261 36.8811 49.1013 37.9242C48.7744 39.873 47.9349 41.4551 46.5252 42.9108C45.6437 43.8514 44.5949 44.6244 43.4309 45.1914C42.7994 45.5214 42.1233 45.8037 41.412 46.0347C36.0944 47.7489 30.6506 45.8642 28.8955 41.8181C28.7533 41.5087 28.6359 41.1887 28.5444 40.8612C27.7959 38.1937 28.433 34.9946 30.4166 32.9798C30.5373 32.8514 30.6618 32.6993 30.6618 32.5105C30.6618 32.351 30.5596 32.1823 30.4723 32.065C29.7777 31.0695 27.3725 29.3773 27.8554 26.0994C28.2027 23.7454 30.2885 22.0863 32.2331 22.1853C32.3984 22.1926 32.5618 22.2036 32.7271 22.2128C33.5685 22.2623 34.3058 22.3686 34.9986 22.3961C36.1594 22.4474 37.2033 22.2806 38.4402 21.2631C38.8581 20.9203 39.1925 20.6215 39.7589 20.528C39.8109 20.5188 39.9298 20.4766 40.1583 20.4766ZM40.1991 24.4732C40.1618 24.4737 40.1246 24.4767 40.0877 24.4824C39.4655 24.5814 39.4432 25.3404 39.6642 26.3891C39.7905 26.9757 40.0115 27.4799 40.2586 27.7915C40.5836 27.7549 40.8956 27.7512 41.1835 27.7915C41.3488 27.4157 41.3767 26.7704 41.2281 26.0646C41.0201 25.0837 40.7433 24.4659 40.1991 24.4732ZM33.4013 27.3075C32.7241 27.3048 32.0634 27.514 31.5143 27.9052C31.2171 28.1197 30.9367 28.4185 30.9757 28.5982C30.9905 28.6568 31.0332 28.7008 31.1391 28.7137C31.3824 28.7412 32.2386 28.3159 33.223 28.2554C33.9177 28.2132 34.4934 28.4277 34.9373 28.622C35.3812 28.8127 35.6543 28.9392 35.7601 28.8292C35.8288 28.7595 35.8084 28.6275 35.7025 28.4552C35.4834 28.1032 35.0339 27.7457 34.5547 27.544C34.1901 27.3901 33.7979 27.3097 33.4013 27.3075ZM40.9829 28.7925C40.6653 28.787 40.4016 29.1335 40.3941 29.5625C40.3867 29.9952 40.6375 30.3508 40.9569 30.3545C41.2764 30.36 41.5401 30.0153 41.5475 29.5845C41.555 29.1518 41.3024 28.798 40.9829 28.7925ZM34.3337 29.1078C34.2408 29.1078 34.1443 29.1115 34.0458 29.1225C33.4682 29.2142 33.1487 29.4012 32.9444 29.5753C32.7698 29.7257 32.6621 29.8925 32.6621 30.0098C32.6619 30.028 32.6653 30.0461 32.6722 30.063C32.6791 30.0799 32.6893 30.0953 32.7022 30.1082C32.7152 30.1212 32.7306 30.1315 32.7477 30.1385C32.7647 30.1455 32.783 30.1492 32.8014 30.1492C32.9314 30.1492 33.2249 30.0337 33.2249 30.0337C33.8176 29.8131 34.458 29.7474 35.0841 29.843C35.3757 29.876 35.5112 29.8925 35.5762 29.7953C35.5948 29.766 35.6171 29.7055 35.5577 29.612C35.4407 29.4232 34.9819 29.1188 34.3337 29.1078ZM38.5312 29.8412C38.2954 29.8412 38.0948 29.9347 38.0056 30.1125C37.8663 30.3948 38.0706 30.778 38.4625 30.9668C38.8526 31.1575 39.2853 31.0823 39.4283 30.8018C39.5676 30.5177 39.3633 30.1345 38.9714 29.9457C38.8348 29.8777 38.6843 29.8431 38.5312 29.8412ZM16.9213 29.8852C17.0105 29.8852 17.1033 29.8852 17.198 29.8907C18.5539 29.964 20.5524 30.9906 21.0093 33.9056C21.4123 36.4906 20.7715 39.1177 18.318 39.532C18.0896 39.5687 17.8574 39.5852 17.6234 39.5797C15.3574 39.5192 12.9076 37.5044 12.6643 35.1156C12.395 32.4756 13.762 30.4443 16.1821 29.9622C16.3994 29.9182 16.6501 29.8888 16.9213 29.8852ZM16.7913 31.5846C16.4965 31.5821 16.2044 31.6401 15.9336 31.755C15.6628 31.8698 15.4191 32.0391 15.2181 32.252C14.5124 33.0183 14.4028 34.0633 14.5384 34.4336C14.5885 34.5674 14.6684 34.6059 14.7241 34.6133C14.843 34.6279 15.0213 34.5418 15.1327 34.2466C15.144 34.2151 15.1545 34.1833 15.1643 34.1513C15.2318 33.9138 15.3298 33.6859 15.4559 33.4729C15.5479 33.3339 15.6669 33.2141 15.8059 33.1205C15.9449 33.0269 16.1013 32.9612 16.2661 32.9273C16.4308 32.8934 16.6007 32.892 16.7661 32.923C16.9314 32.954 17.0889 33.0169 17.2296 33.1081C17.7237 33.4271 17.915 34.0248 17.7032 34.5931C17.5955 34.8882 17.4172 35.4529 17.4562 35.9149C17.5361 36.8517 18.1193 37.2294 18.6449 37.2679C19.1538 37.2862 19.5104 37.0057 19.6014 36.7986C19.6553 36.6757 19.6107 36.6024 19.581 36.5694C19.5011 36.4722 19.3711 36.5016 19.2467 36.5309C19.1497 36.5567 19.0499 36.5703 18.9495 36.5712C18.8428 36.5741 18.7371 36.5509 18.6418 36.5035C18.5465 36.4562 18.4646 36.3862 18.4034 36.2999C18.2586 36.0799 18.2679 35.7499 18.4276 35.3759C18.448 35.3246 18.474 35.2696 18.5019 35.2072C18.7582 34.6426 19.1854 33.6948 18.7062 32.7928C18.344 32.1145 17.7534 31.6891 17.0457 31.6011C16.9608 31.5899 16.8752 31.5838 16.7894 31.5828L16.7913 31.5846Z" fill="black"/>
</svg>
