<svg width="160" height="9" viewBox="0 0 160 9" fill="none" xmlns="http://www.w3.org/2000/svg">
<path d="M3.47142 4.52356C4.72412 4.52356 6.03648 4.47644 7.28919 4.42932C7.82606 4.42932 8.30328 4.3822 8.84016 4.3822C11.107 4.28796 13.3738 4.19372 15.6406 4.09948C18.3846 4.00524 21.069 3.86387 23.813 3.76963C27.6904 3.58115 31.5678 3.43979 35.4452 3.25131C36.34 3.20419 37.2348 3.20419 38.1296 3.15707C40.3964 3.06283 42.6632 2.96859 44.93 2.92147C47.1968 2.82722 49.4636 2.73298 51.7304 2.68586C52.6252 2.63874 53.52 2.59162 54.4148 2.59162C57.9939 2.49738 61.6328 2.40314 65.2119 2.3089C67.4191 2.26178 69.6262 2.21466 71.893 2.12042C72.7878 2.12042 73.6229 2.0733 74.5177 2.0733C77.9776 2.02618 81.4971 1.97906 84.9569 1.93194C88.4168 1.88482 91.817 1.8377 95.2769 1.79058C96.1716 1.79058 97.0664 1.79058 98.0209 1.79058C100.288 1.79058 102.495 1.79058 104.762 1.79058C108.281 1.79058 111.741 1.79058 115.26 1.74346C116.394 1.74346 117.527 1.74346 118.661 1.74346C121.047 1.74346 123.433 1.74346 125.819 1.74346C125.998 1.74346 126.237 1.74346 126.416 1.74346C121.047 1.79058 115.618 1.8377 110.25 1.93194C107.983 1.97906 105.776 1.97906 103.509 2.02618C102.554 2.02618 101.54 2.02618 100.586 2.0733C97.305 2.12042 94.0838 2.21466 90.8029 2.26178C87.0448 2.35602 83.2867 2.40314 79.5286 2.49738C78.8724 2.49738 78.2759 2.5445 77.6197 2.5445C75.5915 2.63874 73.6229 2.68586 71.5947 2.7801C67.5384 2.92147 63.482 3.06283 59.4256 3.20419C58.8291 3.20419 58.2326 3.25131 57.636 3.29843C55.6675 3.39267 53.6393 3.53403 51.6708 3.62827C48.0916 3.81675 44.5721 4.00524 40.9929 4.19372C40.0385 4.24084 39.0244 4.33508 38.07 4.3822C35.8032 4.52356 33.5364 4.66492 31.2696 4.8534C28.4062 5.04188 25.4832 5.23037 22.6199 5.41885C18.6232 5.70157 14.5668 5.98429 10.5701 6.26702C9.61564 6.31414 8.6612 6.40838 7.6471 6.4555C5.91718 6.59686 4.18725 6.73822 2.45732 6.87958C2.27836 6.87958 2.0994 6.97382 2.0994 7.1623C2.0994 7.30366 2.27836 7.44503 2.45732 7.44503C3.1135 7.44503 3.71003 7.49215 4.36621 7.49215C4.2469 7.72775 4.18725 7.86911 4.18725 8.01047C4.18725 8.5288 4.72412 9 5.43995 9C10.3911 8.7644 15.2826 8.48168 20.2338 8.29319C24.5288 8.15183 28.8238 7.96335 33.1188 7.82199C37.8313 7.63351 42.6036 7.44503 47.3161 7.30367C48.8074 7.25654 50.2988 7.20942 51.7901 7.11518C52.2076 7.11518 52.6252 7.06806 53.1024 7.06806C60.738 6.9267 68.3735 6.73822 76.009 6.59686C80.0654 6.50262 84.1815 6.40838 88.2378 6.36126C89.7292 6.31414 91.1608 6.31414 92.6521 6.26702C100.467 6.17278 108.281 6.07853 116.096 5.98429C119.436 5.93717 122.777 5.89005 126.117 5.84293C128.981 5.79581 131.844 5.79581 134.707 5.70157C137.093 5.65445 139.42 5.56021 141.806 5.51309C142.999 5.46597 144.192 5.46597 145.325 5.41885C148.01 5.27749 150.694 5.13613 153.379 4.99476C153.2 5.18325 153.2 5.46597 153.259 5.65445C153.319 5.89005 153.498 6.07853 153.796 6.17277C154.035 6.26702 154.393 6.36126 154.631 6.26702C155.228 6.07853 155.824 5.89005 156.361 5.70157C156.361 5.70157 156.361 5.70157 156.302 5.70157C156.361 5.70157 156.361 5.65445 156.421 5.65445C156.48 5.65445 156.54 5.60733 156.54 5.60733H156.48C156.779 5.51309 157.077 5.41885 157.435 5.27749C157.733 5.18325 158.091 5.04188 158.389 4.94764C158.747 4.80628 159.046 4.66492 159.403 4.52356C159.761 4.3822 160 4.00524 160 3.67539C160 3.48691 159.94 3.34555 159.821 3.15707C159.702 2.96859 159.403 2.73298 159.105 2.68586C158.807 2.63874 158.509 2.59162 158.21 2.59162C158.151 2.59162 158.091 2.59162 158.031 2.59162C157.852 2.59162 157.614 2.59162 157.435 2.63874C156.958 2.68586 156.54 2.73298 156.063 2.73298C155.705 2.73298 155.347 2.7801 154.93 2.7801C153.915 2.82722 152.961 2.87435 151.947 2.96859C151.708 2.96859 151.41 3.01571 151.171 3.01571C151.291 2.92147 151.35 2.82722 151.35 2.73298C151.41 2.63874 151.41 2.5445 151.41 2.45026C151.41 2.40314 151.41 2.3089 151.47 2.26178C151.47 2.16754 151.47 2.0733 151.41 2.02618C151.41 2.02618 151.47 2.02618 151.47 1.97906C151.649 1.88482 151.828 1.79058 151.947 1.60209C152.066 1.46073 152.126 1.27225 152.126 1.08377C152.126 0.895288 152.066 0.753927 151.947 0.565445C151.887 0.518325 151.828 0.424084 151.768 0.376963C151.589 0.235602 151.41 0.188482 151.231 0.141361C150.873 0.0471204 150.456 0 150.038 0C149.68 0 149.382 0 149.024 0C148.547 0 148.069 0 147.592 0C146.936 0 146.22 0 145.564 0C143.774 0 141.985 0 140.195 0C138.525 0 136.795 0 135.125 0C133.574 0 132.083 0 130.532 0C124.387 0 118.303 0.0471204 112.159 0.0942408C107.565 0.141361 102.972 0.188482 98.3788 0.188482C96.3506 0.188482 94.2628 0.235602 92.2346 0.282723C87.6413 0.376963 83.0481 0.424084 78.4548 0.518325C77.1424 0.518325 75.8301 0.565445 74.5177 0.565445C73.7422 0.565445 73.0264 0.612565 72.2509 0.612565C67.7173 0.753927 63.1837 0.895288 58.6501 1.03665C57.2781 1.08377 55.9061 1.13089 54.4744 1.17801C53.699 1.17801 52.9235 1.22513 52.148 1.27225C47.6144 1.46073 43.1404 1.64921 38.6068 1.8377C36.2804 1.93194 33.9539 2.02618 31.6275 2.16754C27.6307 2.35602 23.634 2.5445 19.6969 2.7801C16.2371 2.96859 12.7772 3.10995 9.31738 3.25131C8.7805 3.29843 8.24363 3.29843 7.6471 3.34555C6.75231 3.39267 5.85752 3.39267 4.96273 3.43979C4.18725 3.62827 3.35211 3.62827 2.57663 3.62827C2.51697 3.43979 2.27836 3.29843 2.0994 3.34555C1.56253 3.34555 1.08531 3.39267 0.548435 3.43979C0.309825 3.48691 0.0712142 3.58115 0.0115616 3.76963C-0.0480911 4.00524 0.130867 4.24084 0.369478 4.28796C0.608088 4.33508 0.846699 4.3822 1.08531 4.42932C1.32392 4.47644 1.50288 4.47644 1.74149 4.47644C2.33802 4.52356 2.87489 4.52356 3.47142 4.52356ZM143.059 3.01571C143.774 3.01571 144.55 3.01571 145.266 3.01571C145.325 3.15707 145.445 3.25131 145.564 3.34555C145.266 3.34555 144.968 3.39267 144.729 3.39267C144.192 3.39267 143.655 3.43979 143.118 3.43979C140.732 3.48691 138.406 3.58115 136.02 3.62827C134.946 3.67539 133.872 3.72251 132.798 3.72251C131.128 3.72251 129.398 3.76963 127.728 3.76963C123.85 3.81675 120.033 3.86387 116.155 3.91099C108.639 4.00524 101.182 4.09948 93.6662 4.19372C88.2975 4.24084 82.9288 4.3822 77.56 4.52356C69.5069 4.71204 61.3941 4.8534 53.341 5.04188C51.7304 5.08901 50.1198 5.13613 48.5092 5.23037C43.9159 5.41885 39.3227 5.56021 34.7294 5.74869C30.2555 5.93717 25.7219 6.07853 21.2479 6.26702C20.8303 6.26702 20.4128 6.31414 19.9952 6.31414C21.1883 6.2199 22.441 6.17277 23.634 6.07853C27.8694 5.84293 32.1047 5.56021 36.34 5.32461C37.8313 5.23037 39.3227 5.13613 40.7543 5.04188C41.5298 4.99476 42.3053 4.94764 43.0211 4.94764C47.4951 4.75916 51.9094 4.52356 56.3237 4.33508C57.1588 4.28796 58.0536 4.24084 58.8887 4.19372C60.1414 4.1466 61.3941 4.09948 62.5872 4.09948C67.1208 3.95812 71.6544 3.81675 76.188 3.67539C77.2021 3.62827 78.2162 3.62827 79.1706 3.58115C79.4092 3.58115 79.7075 3.58115 79.9461 3.58115C80.662 3.58115 81.3778 3.58115 82.034 3.53403C86.5676 3.43979 91.1608 3.39267 95.6944 3.29843C97.7823 3.25131 99.8701 3.20419 101.958 3.20419C108.699 3.15707 115.499 3.10995 122.24 3.06283C129.279 3.06283 136.199 3.01571 143.059 3.01571Z" fill="#5B76FF"/>
</svg>
