<svg width="48" height="48" viewBox="0 0 48 48" fill="none" xmlns="http://www.w3.org/2000/svg">
<path d="M31.75 11C38.5105 11.0001 44 16.4876 44 23.248C44 26.5435 42.6964 29.5371 40.5752 31.7393C40.4822 31.8363 40.4335 31.9632 40.4395 32.0986L40.6338 37.0557L37.0107 34.5703C36.8711 34.4752 36.6948 34.4567 36.541 34.5234H36.5391C35.0675 35.1489 33.4501 35.4951 31.752 35.4951C25.1558 35.4951 19.7718 30.2708 19.5127 23.7373L25.3311 23.7393C25.8269 23.7393 26.3032 23.5415 26.6533 23.1914C27.0055 22.8412 27.2021 22.365 27.2021 21.8691V14.8076C27.2021 13.7733 26.3633 12.9375 25.3311 12.9375H25.1416C27.0483 11.7109 29.3171 11 31.75 11ZM25.334 13.917C25.8237 13.9171 26.2227 14.3159 26.2227 14.8057V21.8672C26.2227 22.104 26.1269 22.3311 25.9609 22.4971C25.7951 22.6628 25.5685 22.7557 25.334 22.7578H10.8916C10.7603 22.7579 10.637 22.8085 10.5439 22.9014L7.85352 25.5918L7.30957 23.1426C7.25897 22.9179 7.05783 22.7578 6.8291 22.7578H5.20996C4.89031 22.7577 4.58112 22.63 4.35449 22.4014C4.12787 22.1747 4.00009 21.8676 4 21.5459V15.1289C4.00005 14.8072 4.12784 14.4992 4.35449 14.2705C4.58108 14.0441 4.88843 13.9171 5.20996 13.917H25.334ZM6.09277 18.3291C5.82154 18.3291 5.60059 18.5481 5.60059 18.8193C5.6007 19.0905 5.82161 19.3086 6.09277 19.3086H21.2432C21.5121 19.3084 21.7323 19.0883 21.7324 18.8193C21.7324 18.5482 21.5122 18.3293 21.2432 18.3291H6.09277ZM6.09277 15.7422C5.82154 15.7422 5.60059 15.9632 5.60059 16.2324C5.60063 16.5036 5.82157 16.7227 6.09277 16.7227H8.67773C8.94879 16.7225 9.1689 16.5035 9.16895 16.2324C9.16895 15.9633 8.94881 15.7424 8.67773 15.7422H6.09277Z" fill="white"/>
</svg>
