<svg width="48" height="48" viewBox="0 0 48 48" fill="none" xmlns="http://www.w3.org/2000/svg">
<path fill-rule="evenodd" clip-rule="evenodd" d="M5.16679 30.7807H9.02206C9.66494 30.7807 10.1888 31.3024 10.1888 31.9424V40.8362C10.1888 41.4762 9.66489 41.9978 9.02206 41.9978H5.16679C4.52391 41.9978 4 41.4762 4 40.8362V31.9424C4 31.3023 4.52396 30.7807 5.16679 30.7807ZM29.634 16.9516C30.3066 16.9516 30.4757 17.2253 30.5779 17.1236L39.1489 8.5902C39.2046 8.53471 39.1582 8.44037 39.0801 8.44961L37.3281 8.64014C36.9862 8.67714 36.6778 8.42927 36.6425 8.08888C36.6053 7.74852 36.8543 7.44144 37.1962 7.4063L40.9028 7.00489C41.3636 6.95495 41.6906 7.29347 41.6237 7.73928L41.0738 11.4222C41.0236 11.7626 40.7078 11.9975 40.3659 11.9476C40.024 11.8976 39.7881 11.5832 39.8382 11.2428L40.0779 9.63903C40.089 9.55948 39.9924 9.51139 39.9367 9.56873L31.4627 18.0036C31.4367 18.0295 31.4311 18.0647 31.446 18.098C32.061 19.3947 31.1171 20.9374 29.6345 20.9374C28.3822 20.9374 27.4514 19.8109 27.6632 18.6011C27.6688 18.566 27.6539 18.5327 27.6223 18.5142L19.7558 14.0321C19.7242 14.0136 19.687 14.0173 19.661 14.0414C19.0665 14.5445 18.2285 14.6611 17.5169 14.3281C17.4854 14.3133 17.4482 14.3188 17.4222 14.3447L8.92017 22.8521C8.89416 22.878 8.88858 22.9131 8.90345 22.9464C9.52772 24.2524 8.57087 25.7914 7.09379 25.7914C5.98831 25.7914 5.09278 24.8998 5.09278 23.7992C5.09278 22.323 6.6386 21.3852 7.94104 21.9938C7.97263 22.0086 8.00978 22.003 8.0358 21.9771L16.5397 13.4698C16.5657 13.4439 16.5713 13.4087 16.5564 13.3754C15.9377 12.0787 16.8779 10.5304 18.3661 10.5304C19.6184 10.5304 20.5492 11.657 20.3374 12.8667C20.3318 12.9019 20.3467 12.9352 20.3783 12.9537L28.2448 17.4358C28.2764 17.4543 28.3136 17.4506 28.3396 17.4265C28.687 17.1305 29.1404 16.9511 29.6346 16.9511L29.634 16.9516ZM38.9779 15.9527C38.3351 15.9527 37.8111 16.4743 37.8111 17.1143V40.8383C37.8111 41.4784 38.3351 42 38.9779 42H42.8332C43.4761 42 44 41.4783 44 40.8383L43.9981 17.1143C43.9981 16.4743 43.4742 15.9527 42.8314 15.9527H38.9779ZM27.7077 27.4159H31.563C32.2059 27.4159 32.7298 27.9376 32.7298 28.5776V40.8383C32.7298 41.4784 32.2058 42 31.563 42H27.7077C27.0648 42 26.5409 41.4783 26.5409 40.8383V28.5776C26.5409 27.9375 27.0649 27.4159 27.7077 27.4159ZM16.4375 24.0511C15.7946 24.0511 15.2707 24.5728 15.2707 25.2128V40.8381C15.2707 41.4781 15.7947 41.9998 16.4375 41.9998H20.2928C20.9356 41.9998 21.4596 41.4781 21.4596 40.8381L21.4577 25.2128C21.4577 24.5727 20.9337 24.0511 20.2909 24.0511H16.4375Z" fill="white"/>
</svg>
