<svg width="144" height="47" viewBox="0 0 144 47" fill="none" xmlns="http://www.w3.org/2000/svg">
<rect width="144" height="47" fill="white"/>
<path d="M46.8677 10L38.3058 29.6381H38.1629L37.255 21.5149L32.7751 31.5525L33.0918 33.9026H42.1498L52.8178 10H46.8677Z" fill="#F55800"/>
<path d="M37.2545 21.5151H37.2551L42.3938 10.0012H36.4443L27.8818 29.6394H27.739L26.8067 21.5161H21L22.6678 33.9038H31.7259L32.7751 31.5527L31.4239 21.5151H37.2545Z" fill="#FFA450"/>
<path d="M37.2549 21.5149H31.4238L32.775 31.5525L37.2356 21.5586L37.2549 21.5149Z" fill="#C63D22"/>
<path d="M60.6077 21.5203L54.6998 33.908H51.1023L50.3637 26.2844L46.9568 33.908H43.526L41.8587 21.5203H45.0988L45.9803 29.644H46.1231L49.649 21.5203H52.7935L53.5321 29.644H53.675L57.2725 21.5203H60.6077Z" fill="#25223B"/>
<path d="M62.2033 16.47H65.5385L64.3953 22.8786C65.3245 21.8304 66.6106 21.2824 68.1117 21.2824C70.4704 21.2824 72.0899 22.6402 72.0899 24.9989C72.0899 25.7136 71.9471 26.5712 71.8043 27.3337L70.6132 33.909H67.3497L68.493 27.4053C68.5646 26.9768 68.6836 26.4761 68.6836 25.9281C68.6836 24.8799 68.2784 23.9507 66.7778 23.9507C65.0866 23.9507 64.0145 25.1178 63.7283 26.7379L62.4656 33.9085H59.1304L62.2033 16.47Z" fill="#25223B"/>
<path d="M81.5829 33.9086L81.7964 32.7226C81.132 33.6331 79.7727 34.147 78.2005 34.147C74.7224 34.147 72.5544 31.6455 72.5544 28.1435C72.5544 24.2842 75.2226 21.2825 79.2487 21.2825C81.5357 21.2825 82.7745 22.259 83.4175 23.3789L83.749 21.5209H86.7054L84.9903 31.2408L84.5531 33.9091H81.5829V33.9086ZM82.7745 27.3093C82.7745 25.3558 81.6546 23.8786 79.511 23.8786C76.9144 23.8786 75.7706 26.0227 75.7706 28.0952C75.7706 30.1916 76.9617 31.5494 78.963 31.5494C81.464 31.5499 82.7745 29.4296 82.7745 27.3093Z" fill="#25223B"/>
<path d="M92.8748 17.9468L92.2318 21.5204H95.4241L95.019 23.9503H91.8266L90.7545 30.0727C90.5878 31.0258 90.8262 31.6211 91.8505 31.6211C92.3268 31.6211 93.1264 31.4605 93.6744 31.2698L93.2642 33.6239C92.8118 33.8385 92.1362 34.146 90.5639 34.146C87.4671 34.146 87.1098 32.1208 87.5383 29.6675L88.5387 23.9503H86.7997L87.2592 21.5204H88.9911L90.1583 17.9468H92.8748Z" fill="#25223B"/>
<path d="M109.541 21.5204L107.349 33.9081H104.086L105.824 23.9772L104.355 23.9442L104.8 21.5199H109.541V21.5204ZM107.993 16.2317C108.993 16.2317 109.803 17.042 109.803 18.0424C109.803 19.0428 108.994 19.8531 107.993 19.8531C106.992 19.8531 106.182 19.0433 106.182 18.0424C106.182 17.042 106.992 16.2317 107.993 16.2317Z" fill="#25223B"/>
<path d="M113.734 27.4999L110.494 21.5203H114.043L115.925 25.3318L118.784 21.5203H122.667L117.474 27.7383L120.666 33.9085H117.188L115.235 29.8824L112.185 33.9085H108.278L113.734 27.4999Z" fill="#25223B"/>
<path d="M94.9355 35.4571C95.8886 35.3381 96.1982 34.7901 96.341 34.0276L98.0801 23.9503H96.1743L96.5078 21.5204H98.5325L98.7231 20.4245C99.0805 18.4948 99.9141 16.2317 102.988 16.2317C104.072 16.2317 104.954 16.4838 104.954 16.4838L104.552 18.7973C104.129 18.7439 103.94 18.7093 103.535 18.7093C102.32 18.7093 102.177 19.3763 102.011 20.2816L101.796 21.5204H104.059L103.63 23.9503H101.367L99.5563 34.1227C99.1038 36.7193 98.1858 38.1894 94.4821 37.9804L94.9355 35.4571Z" fill="#25223B"/>
</svg>
