<svg width="37" height="38" viewBox="0 0 37 38" fill="none" xmlns="http://www.w3.org/2000/svg">
<path opacity="0.4" d="M13.8757 3.58337C9.83648 3.58337 6.55273 6.86712 6.55273 10.9063C6.55273 14.8684 9.65148 18.075 13.6907 18.2138C13.814 18.1984 13.9373 18.1984 14.0298 18.2138C14.0607 18.2138 14.0761 18.2138 14.1069 18.2138C14.1223 18.2138 14.1223 18.2138 14.1377 18.2138C18.0844 18.075 21.1831 14.8684 21.1986 10.9063C21.1986 6.86712 17.9148 3.58337 13.8757 3.58337Z" fill="#2563EB"/>
<path d="M21.7065 22.3146C17.4052 19.4471 10.3907 19.4471 6.05857 22.3146C4.10065 23.625 3.02148 25.3979 3.02148 27.2941C3.02148 29.1904 4.10065 30.9479 6.04315 32.2429C8.20148 33.6921 11.0382 34.4167 13.8748 34.4167C16.7115 34.4167 19.5482 33.6921 21.7065 32.2429C23.649 30.9325 24.7282 29.175 24.7282 27.2633C24.7127 25.3671 23.649 23.6096 21.7065 22.3146Z" fill="#2563EB"/>
<path opacity="0.4" d="M30.817 11.8158C31.0636 14.8066 28.9361 17.4275 25.9915 17.782C25.9761 17.782 25.9761 17.782 25.9607 17.782H25.9145C25.822 17.782 25.7295 17.782 25.6524 17.8129C24.157 17.8899 22.7849 17.412 21.752 16.5333C23.3399 15.1149 24.2495 12.9874 24.0645 10.6749C23.9565 9.4262 23.5249 8.28537 22.8774 7.31412C23.4632 7.0212 24.1415 6.8362 24.8353 6.77453C27.857 6.51245 30.5549 8.76328 30.817 11.8158Z" fill="#2563EB"/>
<path d="M33.9017 26.0763C33.7784 27.5717 32.8225 28.8667 31.2192 29.7455C29.6775 30.5934 27.735 30.9942 25.8079 30.948C26.9179 29.9459 27.5654 28.6971 27.6888 27.3713C27.8429 25.4596 26.9334 23.625 25.1142 22.1605C24.0813 21.3434 22.8788 20.6959 21.5684 20.218C24.9754 19.2313 29.2613 19.8942 31.8975 22.0217C33.3159 23.1625 34.0404 24.5963 33.9017 26.0763Z" fill="#2563EB"/>
</svg>
