<svg width="16" height="16" viewBox="0 0 16 16" fill="none" xmlns="http://www.w3.org/2000/svg">
<path opacity="0.4" d="M13.666 6.79337H11.7393C10.1593 6.79337 8.87268 5.50671 8.87268 3.92671V2.00004C8.87268 1.63337 8.57268 1.33337 8.20602 1.33337H5.37935C3.32602 1.33337 1.66602 2.66671 1.66602 5.04671V10.9534C1.66602 13.3334 3.32602 14.6667 5.37935 14.6667H10.6193C12.6727 14.6667 14.3327 13.3334 14.3327 10.9534V7.46004C14.3327 7.09337 14.0327 6.79337 13.666 6.79337Z" fill="#2563EB"/>
<path d="M10.5338 1.47329C10.2604 1.19995 9.78711 1.38662 9.78711 1.76662V4.09329C9.78711 5.06662 10.6138 5.87329 11.6204 5.87329C12.2538 5.87995 13.1338 5.87995 13.8871 5.87995C14.2671 5.87995 14.4671 5.43329 14.2004 5.16662C13.2404 4.19995 11.5204 2.45995 10.5338 1.47329Z" fill="#2563EB"/>
<path d="M8.66682 9.5H5.87349L6.35349 9.02C6.54682 8.82667 6.54682 8.50667 6.35349 8.31333C6.16016 8.12 5.84016 8.12 5.64682 8.31333L4.31349 9.64667C4.30682 9.65333 4.30682 9.66 4.30016 9.66C4.26016 9.7 4.22682 9.75333 4.20016 9.80667C4.20016 9.81333 4.20016 9.81333 4.19349 9.82C4.17349 9.87333 4.16682 9.92667 4.16016 9.98C4.16016 10 4.16016 10.0133 4.16016 10.0333C4.16016 10.0733 4.17349 10.1133 4.18682 10.1533C4.19349 10.1733 4.20016 10.1867 4.20682 10.2C4.23349 10.2533 4.26016 10.3067 4.30682 10.3467L5.64016 11.68C5.74016 11.78 5.86682 11.8267 5.99349 11.8267C6.12016 11.8267 6.24682 11.78 6.34682 11.68C6.54016 11.4867 6.54016 11.1667 6.34682 10.9733L5.86682 10.4933H8.66682C8.94016 10.4933 9.16682 10.2667 9.16682 9.99333C9.16682 9.72 8.94016 9.5 8.66682 9.5Z" fill="#2563EB"/>
</svg>
