<svg width="242" height="106" viewBox="0 0 242 106" fill="none" xmlns="http://www.w3.org/2000/svg">
<path d="M0 54.5H102.5M102.5 54.5V20.5C102.5 16.0817 106.082 12.5 110.5 12.5H171.5M102.5 54.5H171.5M102.5 54.5V88.5C102.5 92.9183 106.082 96.5 110.5 96.5H171.5" stroke="#8AB9F1"/>
<rect x="30" y="33" width="40" height="40" rx="4" fill="white"/>
<path d="M49.9003 55.1746C48.0741 53.8191 43.838 52.3505 41.5034 57.3205C41.3635 53.7209 45.5838 43.4633 47.7163 41.5922C48.1722 41.1419 49.2899 40.5147 50.114 41.6075C50.1964 41.7168 50.3127 41.8606 50.4573 42.0394L50.4574 42.0394C50.9678 42.6705 51.8318 43.7386 52.8121 45.2765C52.3437 45.4666 51.9288 45.802 51.6768 46.1867C51.8457 46.1148 52.0126 46.0381 52.1791 45.9616L52.1791 45.9616C52.4568 45.8339 52.7335 45.7067 53.0175 45.6029C53.148 45.8131 53.2802 46.0315 53.4137 46.258C52.8433 46.5604 52.3467 46.9867 52.0323 47.442C52.2244 47.352 52.4157 47.2586 52.6072 47.1652L52.6075 47.165C52.9544 46.9957 53.3021 46.826 53.6556 46.6758C53.7832 46.8998 53.9116 47.1313 54.0403 47.3702C53.3951 47.7741 52.8318 48.279 52.4204 48.819C52.5958 48.7286 52.7714 48.6368 52.9475 48.5447L52.9477 48.5446C53.3934 48.3114 53.8425 48.0766 54.299 47.8599C56.1345 51.4042 57.9729 56.4694 58.5 63.2373C53.236 65.5114 51.9822 65.8757 48.388 62.5907C51.2879 62.7436 56.0846 60.3548 52.0719 49.576C48.4185 39.7627 46.3125 46.1079 44.6594 51.0888L44.6593 51.089C44.4967 51.579 44.3384 52.0557 44.1835 52.5026C45.5152 52.1891 48.5228 52.2845 49.9003 55.1746Z" fill="#3E50F7"/>
<rect x="135.2" y="38.2" width="86.6" height="29.6" rx="3.8" fill="white"/>
<rect x="135.2" y="38.2" width="86.6" height="29.6" rx="3.8" stroke="#DBE9FE" stroke-width="0.4"/>
<rect x="141" y="44" width="75" height="6" rx="3" fill="#DBE9FE"/>
<rect opacity="0.4" x="141" y="54" width="34" height="3" rx="1.5" fill="#DBE9FE"/>
<rect opacity="0.4" x="141" y="59" width="32" height="3" rx="1.5" fill="#DBE9FE"/>
<rect x="155.2" y="0.2" width="86.6" height="29.6" rx="3.8" fill="white"/>
<rect x="155.2" y="0.2" width="86.6" height="29.6" rx="3.8" stroke="#DBE9FE" stroke-width="0.4"/>
<rect x="161" y="6" width="75" height="6" rx="3" fill="#DBE9FE"/>
<rect opacity="0.4" x="161" y="16" width="34" height="3" rx="1.5" fill="#DBE9FE"/>
<rect opacity="0.4" x="161" y="21" width="32" height="3" rx="1.5" fill="#DBE9FE"/>
<rect x="155.2" y="76.2" width="86.6" height="29.6" rx="3.8" fill="white"/>
<rect x="155.2" y="76.2" width="86.6" height="29.6" rx="3.8" stroke="#DBE9FE" stroke-width="0.4"/>
<rect x="161" y="82" width="75" height="6" rx="3" fill="#DBE9FE"/>
<rect opacity="0.4" x="161" y="92" width="75" height="3" rx="1.5" fill="#DBE9FE"/>
<rect opacity="0.4" x="161" y="97" width="42" height="3" rx="1.5" fill="#DBE9FE"/>
</svg>
