<svg width="16" height="16" viewBox="0 0 16 16" fill="none" xmlns="http://www.w3.org/2000/svg">
<path d="M6.66634 3.00016V12.0002C6.66634 12.7202 6.373 13.3802 5.90633 13.8602L5.87968 13.8868C5.81968 13.9468 5.75301 14.0068 5.69301 14.0535C5.49301 14.2268 5.26633 14.3602 5.033 14.4535C4.95967 14.4868 4.88634 14.5135 4.81301 14.5402C4.55301 14.6268 4.27301 14.6668 3.99967 14.6668C3.81967 14.6668 3.63968 14.6468 3.46635 14.6135C3.37968 14.5935 3.29301 14.5735 3.20634 14.5468C3.09967 14.5135 2.99968 14.4802 2.89968 14.4335C2.89968 14.4268 2.89967 14.4268 2.89301 14.4335C2.70634 14.3402 2.52635 14.2335 2.35968 14.1068L2.35301 14.1002C2.26634 14.0335 2.18635 13.9668 2.11302 13.8868C2.03968 13.8068 1.96634 13.7268 1.89301 13.6402C1.76634 13.4735 1.65968 13.2935 1.56635 13.1068C1.57301 13.1002 1.57301 13.1002 1.56635 13.1002C1.56635 13.1002 1.56634 13.0935 1.55967 13.0868C1.51967 12.9935 1.48634 12.8935 1.453 12.7935C1.42634 12.7068 1.40633 12.6202 1.38633 12.5335C1.353 12.3602 1.33301 12.1802 1.33301 12.0002V3.00016C1.33301 2.00016 1.99967 1.3335 2.99967 1.3335H4.99967C5.99967 1.3335 6.66634 2.00016 6.66634 3.00016Z" stroke="#212B36" stroke-linecap="round" stroke-linejoin="round"/>
<path d="M14.6667 11.0002V13.0002C14.6667 14.0002 14 14.6668 13 14.6668H4C4.27333 14.6668 4.55333 14.6268 4.81333 14.5402C4.88667 14.5135 4.95999 14.4868 5.03333 14.4535C5.26666 14.3602 5.49334 14.2268 5.69334 14.0535C5.75334 14.0068 5.82 13.9468 5.88 13.8868L5.90666 13.8602L10.44 9.3335H13C14 9.3335 14.6667 10.0002 14.6667 11.0002Z" stroke="#212B36" stroke-linecap="round" stroke-linejoin="round"/>
<path d="M3.20646 14.5468C2.80646 14.4268 2.42647 14.2068 2.11314 13.8868C1.79314 13.5735 1.57312 13.1935 1.45312 12.7935C1.71312 13.6268 2.37313 14.2868 3.20646 14.5468Z" stroke="#212B36" stroke-linecap="round" stroke-linejoin="round"/>
<path d="M12.2472 7.52647L10.4406 9.33314L5.90723 13.8598C6.37389 13.3798 6.66724 12.7198 6.66724 11.9998V5.55981L8.4739 3.75314C9.18056 3.04648 10.1272 3.04648 10.8339 3.75314L12.2472 5.16647C12.9539 5.87314 12.9539 6.8198 12.2472 7.52647Z" stroke="#212B36" stroke-linecap="round" stroke-linejoin="round"/>
<path d="M3.99967 12.6668C4.36786 12.6668 4.66634 12.3684 4.66634 12.0002C4.66634 11.632 4.36786 11.3335 3.99967 11.3335C3.63148 11.3335 3.33301 11.632 3.33301 12.0002C3.33301 12.3684 3.63148 12.6668 3.99967 12.6668Z" stroke="#212B36" stroke-linecap="round" stroke-linejoin="round"/>
</svg>
