<svg width="101" height="42" viewBox="0 0 101 42" fill="none" xmlns="http://www.w3.org/2000/svg">
<path fill-rule="evenodd" clip-rule="evenodd" d="M100.935 21.7009C100.935 14.5234 97.4579 8.85981 90.8131 8.85981C84.1402 8.85981 80.1028 14.5234 80.1028 21.6449C80.1028 30.0841 84.8692 34.3458 91.7103 34.3458C95.0467 34.3458 97.5701 33.5888 99.4766 32.5234V26.9159C97.5701 27.8692 95.3832 28.4579 92.6075 28.4579C89.8878 28.4579 87.4766 27.5047 87.1682 24.1963H100.879C100.879 23.8318 100.935 22.3738 100.935 21.7009ZM87.0841 19.0374C87.0841 15.8692 89.0187 14.5514 90.785 14.5514C92.4953 14.5514 94.3178 15.8692 94.3178 19.0374H87.0841ZM69.2804 8.85981C66.5327 8.85981 64.7664 10.1495 63.785 11.0467L63.4206 9.30841H57.2523V42L64.2617 40.514L64.2897 32.5794C65.2991 33.3084 66.785 34.3458 69.2523 34.3458C74.271 34.3458 78.8411 30.3084 78.8411 21.4206C78.8131 13.2897 74.1869 8.85981 69.2804 8.85981ZM67.5981 28.1776C65.9439 28.1776 64.9626 27.5888 64.2897 26.8598L64.2617 16.4579C64.9907 15.6449 66 15.0841 67.5981 15.0841C70.1495 15.0841 71.9159 17.9439 71.9159 21.6168C71.9159 25.3738 70.1776 28.1776 67.5981 28.1776ZM47.6075 7.20561L54.6449 5.69159V0L47.6075 1.48598V7.20561ZM47.6075 9.33645H54.6449V33.8692H47.6075V9.33645ZM40.0654 11.4112L39.6168 9.33645H33.5607V33.8692H40.5701V17.243C42.2243 15.0841 45.028 15.4766 45.8972 15.785V9.33645C45 9 41.7196 8.38318 40.0654 11.4112ZM26.0467 3.25234L19.2056 4.71028L19.1776 27.1682C19.1776 31.3178 22.2897 34.3738 26.4393 34.3738C28.7383 34.3738 30.4206 33.9533 31.3458 33.4486V27.757C30.4486 28.1215 26.0187 29.4112 26.0187 25.2617V15.3084H31.3458V9.33645H26.0187L26.0467 3.25234ZM7.09346 16.4579C7.09346 15.3645 7.99066 14.9439 9.47664 14.9439C11.6075 14.9439 14.2991 15.5888 16.4299 16.7383V10.1495C14.1028 9.2243 11.8037 8.85981 9.47664 8.85981C3.78505 8.85981 0 11.8318 0 16.7944C0 24.5327 10.6542 23.2991 10.6542 26.6355C10.6542 27.9252 9.53271 28.3458 7.96262 28.3458C5.63551 28.3458 2.66355 27.3925 0.308411 26.1028V32.7757C2.91589 33.8972 5.5514 34.3738 7.96262 34.3738C13.7944 34.3738 17.8037 31.486 17.8037 26.4673C17.7757 18.1121 7.09346 19.5981 7.09346 16.4579Z" fill="#635BFF"/>
</svg>
