<svg width="64" height="64" viewBox="0 0 64 64" fill="none" xmlns="http://www.w3.org/2000/svg">
<g clip-path="url(#clip0_1872_9972)">
<path fill-rule="evenodd" clip-rule="evenodd" d="M62.125 0H1.875C0.84 0 0 0.84 0 1.875V62.125C0 63.16 0.84 64 1.875 64H62.125C63.16 64 64 63.16 64 62.125V1.875C64 0.84 63.16 0 62.125 0Z" fill="#55B76F"/>
<path d="M48.1233 11.3711V23.2511C46.2033 21.7261 43.7733 20.8151 41.1313 20.8151C37.3943 20.8151 34.0833 22.6381 32.0373 25.4421C30.6322 27.3649 29.8767 29.6856 29.8803 32.0671C29.8803 32.0801 29.8753 32.0721 29.8653 32.0521C29.8593 35.9091 26.7313 39.0341 22.8733 39.0341C19.0203 39.0341 15.8963 35.9181 15.8813 32.0681V32.0151C15.8953 28.1651 19.0213 25.0491 22.8733 25.0491C25.4933 25.0491 27.7773 26.4921 28.9733 28.6261C29.1153 28.1461 29.4463 27.1141 29.9103 26.2061C30.3133 25.4181 30.8323 24.7361 31.1173 24.3861C30.0655 23.2502 28.79 22.3442 27.3711 21.7251C25.9521 21.1061 24.4204 20.7874 22.8723 20.7891C16.7323 20.7891 11.7403 25.7091 11.6223 31.8221H11.6123V52.7341H15.8793V40.8561C17.7993 42.3811 20.2293 43.2921 22.8693 43.2921C26.6223 43.2921 29.9453 41.4541 31.9893 38.6301C33.3233 36.7941 34.1053 34.5301 34.1053 32.0841C34.1053 32.0641 34.1173 32.0881 34.1373 32.1421C34.1373 32.1161 34.1353 32.0921 34.1353 32.0651C34.1353 28.2031 37.2653 25.0731 41.1273 25.0731C44.9793 25.0731 48.1033 28.1881 48.1193 32.0361V32.0941C48.1033 35.9421 44.9793 39.0571 41.1273 39.0571C38.5053 39.0571 36.2213 37.6131 35.0243 35.4771C34.8903 35.9351 34.5543 37.0051 34.0743 37.9441C33.6843 38.7091 33.1843 39.3741 32.8943 39.7311C33.9458 40.8637 35.2199 41.7668 36.6369 42.3839C38.0538 43.001 39.5829 43.3187 41.1283 43.3171C47.2683 43.3171 52.2603 38.3971 52.3783 32.2841H52.3883V11.3711H48.1233Z" fill="white"/>
</g>
<defs>
<clipPath id="clip0_1872_9972">
<rect width="64" height="64" fill="white"/>
</clipPath>
</defs>
</svg>
