<svg width="317" height="61" viewBox="0 0 317 61" fill="none" xmlns="http://www.w3.org/2000/svg">
<path d="M15.9997 50.2917C11.9658 50.2917 8.57196 49.2991 5.81807 47.314C3.06419 45.2857 1.12483 42.5453 0 39.0929L6.86533 34.6263C8.4556 39.2439 11.578 41.5527 16.2324 41.5527C18.4821 41.5527 20.1305 41.0996 21.1778 40.1933C22.225 39.2871 22.7487 38.1434 22.7487 36.7625C22.7487 35.1657 22.1087 33.9358 20.8287 33.0727C19.5487 32.1664 17.2603 31.1954 13.9634 30.1597C12.1404 29.5555 10.5889 28.9513 9.30892 28.3471C8.06773 27.743 6.80715 26.9446 5.52717 25.952C4.28598 24.9163 3.3357 23.6216 2.67631 22.068C2.01693 20.5144 1.68724 18.7019 1.68724 16.6304C1.68724 12.5307 2.98661 9.27242 5.58535 6.85571C8.22288 4.39585 11.384 3.16591 15.0688 3.16591C18.3657 3.16591 21.2554 4.07218 23.7377 5.88471C26.2589 7.65408 28.2177 10.1355 29.614 13.329L22.865 17.6662C21.236 13.7822 18.6372 11.8402 15.0688 11.8402C13.401 11.8402 12.0822 12.2717 11.1125 13.1348C10.1816 13.9548 9.71618 15.0337 9.71618 16.3715C9.71618 17.7956 10.2398 18.9608 11.2871 19.8671C12.3731 20.7302 14.4288 21.6796 17.4542 22.7154C18.6954 23.1469 19.6263 23.4921 20.2469 23.7511C20.9063 23.9669 21.779 24.3337 22.865 24.8515C23.9899 25.3263 24.8432 25.7794 25.425 26.211C26.0456 26.6425 26.7437 27.2251 27.5195 27.9587C28.2952 28.6924 28.877 29.4476 29.2649 30.2244C29.6916 31.0012 30.0407 31.9506 30.3122 33.0727C30.6225 34.1516 30.7776 35.3383 30.7776 36.633C30.7776 40.8191 29.4007 44.1421 26.6468 46.6019C23.9317 49.0618 20.3827 50.2917 15.9997 50.2917Z" fill="white"/>
<path d="M58.8862 4.07218H66.8569V49.3854H58.8862V30.6128H43.7592V49.3854H35.7302V4.07218H43.7592V22.068H58.8862V4.07218Z" fill="white"/>
<path d="M140.4 49.3854L132.196 33.6553H126.087V49.3854H118.058V4.07218H134.349C138.111 4.07218 141.311 5.53947 143.949 8.47404C146.586 11.4086 147.905 14.9474 147.905 19.0903C147.905 21.8954 147.187 24.5063 145.752 26.923C144.317 29.2966 142.417 31.0875 140.051 32.2959L149.069 49.3854H140.4ZM126.087 12.4228V25.8225H134.349C135.862 25.8225 137.161 25.1752 138.247 23.8806C139.333 22.5427 139.876 20.946 139.876 19.0903C139.876 17.2346 139.333 15.6594 138.247 14.3648C137.161 13.0701 135.862 12.4228 134.349 12.4228H126.087Z" fill="white"/>
<path d="M185.621 49.3854H176.37L161.825 28.1529V49.3854H153.796V4.07218H161.825V24.0747L175.789 4.07218H185.039L169.97 26.0815L185.621 49.3854Z" fill="white"/>
<path d="M205.765 4.07218C211.351 4.07218 216.005 6.25153 219.729 10.6102C223.491 14.9689 225.372 20.3418 225.372 26.7288C225.372 33.1158 223.491 38.4887 219.729 42.8474C216.005 47.2061 211.351 49.3854 205.765 49.3854H189.591V4.07218H205.765ZM205.765 40.8407C209.295 40.8407 212.165 39.546 214.376 36.9567C216.587 34.3242 217.692 30.9149 217.692 26.7288C217.692 22.5427 216.587 19.155 214.376 16.5657C212.165 13.9332 209.295 12.617 205.765 12.617H197.62V40.8407H205.765Z" fill="white"/>
<path d="M265.336 43.4947C261.225 48.026 256.221 50.2917 250.325 50.2917C244.43 50.2917 239.426 48.026 235.315 43.4947C231.242 38.9202 229.206 33.3316 229.206 26.7288C229.206 20.126 231.242 14.559 235.315 10.0276C239.426 5.45315 244.43 3.16591 250.325 3.16591C256.221 3.16591 261.225 5.45315 265.336 10.0276C269.447 14.559 271.503 20.126 271.503 26.7288C271.503 33.3316 269.447 38.9202 265.336 43.4947ZM240.958 37.4098C243.479 40.1717 246.602 41.5527 250.325 41.5527C254.049 41.5527 257.171 40.1717 259.692 37.4098C262.214 34.6047 263.474 31.0444 263.474 26.7288C263.474 22.4133 262.214 18.8529 259.692 16.0478C257.171 13.2427 254.049 11.8402 250.325 11.8402C246.602 11.8402 243.479 13.2427 240.958 16.0478C238.437 18.8529 237.176 22.4133 237.176 26.7288C237.176 31.0444 238.437 34.6047 240.958 37.4098Z" fill="white"/>
<path d="M317 4.07218V49.3854H309.029V19.9966L297.568 41.0349H296.637L285.175 20.0613V49.3854H277.146V4.07218H285.408L297.102 25.4989L308.738 4.07218H317Z" fill="white"/>
<path d="M93.7395 36.0272C89.783 32.5818 80.6057 28.8492 75.5477 41.4812C75.2447 32.3323 84.3878 6.26079 89.0079 1.50506C89.9956 0.360725 92.4172 -1.23356 94.2024 1.54401C94.3811 1.82198 94.6329 2.18727 94.9463 2.64176C96.0522 4.24564 97.9241 6.96049 100.048 10.8694C99.0331 11.3525 98.1342 12.2052 97.5882 13.183C97.9543 13.0002 98.3158 12.8052 98.6766 12.6107C99.2782 12.2863 99.8777 11.9629 100.493 11.699C100.776 12.2334 101.062 12.7883 101.351 13.3642C100.116 14.1327 99.0397 15.2161 98.3586 16.3733C98.775 16.1445 99.1896 15.907 99.6046 15.6694C100.356 15.239 101.109 14.8077 101.875 14.4259C102.152 14.9954 102.43 15.5837 102.709 16.191C101.311 17.2174 100.091 18.5009 99.1994 19.8732C99.5793 19.6436 99.9598 19.4101 100.341 19.176C101.307 18.5833 102.28 17.9863 103.269 17.4357C107.246 26.444 111.229 39.3181 112.371 56.5197C100.966 62.2997 98.25 63.2258 90.4631 54.8764C96.7458 55.2651 107.138 49.1934 98.4442 21.7974C90.5293 -3.14477 85.9667 12.9827 82.3851 25.6424C82.0327 26.8879 81.6898 28.0999 81.3542 29.2359C84.2391 28.4389 90.7551 28.6814 93.7395 36.0272Z" fill="white"/>
</svg>
