<svg xmlns="http://www.w3.org/2000/svg" width="151" height="26" viewBox="0 0 151 26" fill="none">
  <path d="M66.9525 21.0517L63.065 14.347H60.17V21.0517H56.3652V1.73784H64.0851C65.8681 1.73784 67.3845 2.36324 68.6344 3.61404C69.8843 4.86484 70.5092 6.37316 70.5092 8.139C70.5092 9.33462 70.1692 10.4475 69.4891 11.4775C68.809 12.4892 67.9083 13.2526 66.7871 13.7676L71.0606 21.0517H66.9525ZM60.17 5.29711V11.0085H64.0851C64.802 11.0085 65.4177 10.7326 65.9324 10.1807C66.4471 9.61053 66.7044 8.92995 66.7044 8.139C66.7044 7.34805 66.4471 6.67667 65.9324 6.12484C65.4177 5.57302 64.802 5.29711 64.0851 5.29711H60.17Z" fill="#1B1D21"/>
  <path d="M88.3824 21.0517H83.9986L77.1058 12.0018V21.0517H73.301V1.73784H77.1058V10.2635L83.7229 1.73784H88.1067L80.9658 11.1189L88.3824 21.0517Z" fill="#1B1D21"/>
  <path d="M97.9285 1.73784C100.575 1.73784 102.781 2.66674 104.546 4.52455C106.328 6.38236 107.22 8.67243 107.22 11.3948C107.22 14.1171 106.328 16.4072 104.546 18.265C102.781 20.1228 100.575 21.0517 97.9285 21.0517H90.2637V1.73784H97.9285ZM97.9285 17.4096C99.6011 17.4096 100.961 16.8578 102.009 15.7542C103.057 14.6321 103.581 13.179 103.581 11.3948C103.581 9.61053 103.057 8.16659 102.009 7.06294C100.961 5.9409 99.6011 5.37988 97.9285 5.37988H94.0685V17.4096H97.9285Z" fill="#1B1D21"/>
  <path d="M126.158 18.5409C124.21 20.4723 121.839 21.438 119.045 21.438C116.251 21.438 113.88 20.4723 111.932 18.5409C110.002 16.5911 109.037 14.2091 109.037 11.3948C109.037 8.58046 110.002 6.20762 111.932 4.27623C113.88 2.32645 116.251 1.35156 119.045 1.35156C121.839 1.35156 124.21 2.32645 126.158 4.27623C128.107 6.20762 129.081 8.58046 129.081 11.3948C129.081 14.2091 128.107 16.5911 126.158 18.5409ZM114.606 15.9473C115.801 17.1245 117.28 17.7132 119.045 17.7132C120.809 17.7132 122.289 17.1245 123.484 15.9473C124.679 14.7517 125.276 13.2342 125.276 11.3948C125.276 9.55535 124.679 8.03783 123.484 6.84221C122.289 5.6466 120.809 5.04879 119.045 5.04879C117.28 5.04879 115.801 5.6466 114.606 6.84221C113.411 8.03783 112.814 9.55535 112.814 11.3948C112.814 13.2342 113.411 14.7517 114.606 15.9473Z" fill="#1B1D21"/>
  <path d="M150.641 1.73784V21.0517H146.864V8.52528L141.432 17.4924H140.991L135.56 8.55287V21.0517H131.755V1.73784H135.67L141.212 10.8705L146.726 1.73784H150.641Z" fill="#1B1D21"/>
  <path d="M44.8411 15.3559C42.9662 13.8873 38.6172 12.2964 36.2203 17.6805C36.0767 13.781 40.4095 2.66853 42.5989 0.641502C43.067 0.153752 44.2145 -0.525778 45.0605 0.658103C45.1452 0.776583 45.2645 0.932279 45.4131 1.126C45.9371 1.80962 46.8242 2.96677 47.8307 4.63287C47.3497 4.83878 46.9238 5.20222 46.665 5.61897C46.8385 5.54106 47.0098 5.45796 47.1808 5.37503C47.4659 5.23676 47.75 5.09896 48.0415 4.98646C48.1755 5.21422 48.3112 5.45077 48.4482 5.6962C47.8627 6.02376 47.3528 6.48556 47.0301 6.97879C47.2274 6.88125 47.4239 6.78005 47.6205 6.67877C47.9768 6.4953 48.3337 6.3115 48.6966 6.14876C48.8276 6.3915 48.9595 6.64225 49.0916 6.90109C48.4291 7.33857 47.8508 7.88562 47.4285 8.47055C47.6086 8.37267 47.7889 8.27317 47.9697 8.17337C48.4274 7.92076 48.8885 7.66629 49.3572 7.43161C51.2417 11.2712 53.129 16.7586 53.6702 24.0904C48.2659 26.554 46.9786 26.9487 43.2885 23.3899C46.2658 23.5556 51.1904 20.9677 47.0706 9.29068C43.3199 -1.34039 41.1577 5.53359 39.4604 10.9295C39.2934 11.4604 39.131 11.977 38.9719 12.4612C40.3391 12.1215 43.4269 12.2249 44.8411 15.3559Z" fill="#6863FB"/>
  <path d="M8.00198 21.438C6.09038 21.438 4.48206 21.0149 3.17703 20.1688C1.872 19.3042 0.952963 18.1362 0.419922 16.6647L3.67331 14.7609C4.42692 16.7291 5.90657 17.7132 8.11226 17.7132C9.17834 17.7132 9.95953 17.52 10.4558 17.1337C10.9521 16.7475 11.2002 16.26 11.2002 15.6714C11.2002 14.9908 10.8969 14.4666 10.2904 14.0987C9.68381 13.7124 8.59935 13.2986 7.03699 12.8571C6.17309 12.5996 5.43786 12.3421 4.8313 12.0845C4.24312 11.827 3.64574 11.4867 3.03918 11.0637C2.45099 10.6222 2.00067 10.0704 1.68819 9.4082C1.37572 8.74601 1.21948 7.97345 1.21948 7.09053C1.21948 5.34309 1.83524 3.95433 3.06675 2.92426C4.31664 1.8758 5.81467 1.35156 7.56084 1.35156C9.1232 1.35156 10.4926 1.73784 11.6689 2.51039C12.8637 3.26455 13.7919 4.32222 14.4536 5.68338L11.2554 7.532C10.4834 5.87652 9.25187 5.04879 7.56084 5.04879C6.77047 5.04879 6.14552 5.23273 5.686 5.60061C5.24487 5.9501 5.0243 6.40995 5.0243 6.98017C5.0243 7.58718 5.27244 8.08382 5.76872 8.4701C6.28338 8.83798 7.25756 9.24265 8.69125 9.68411C9.27944 9.86805 9.72058 10.0152 10.0147 10.1256C10.3271 10.2175 10.7407 10.3739 11.2554 10.5946C11.7884 10.797 12.1928 10.9901 12.4685 11.174C12.7626 11.358 13.0934 11.6063 13.4611 11.919C13.8287 12.2317 14.1044 12.5536 14.2882 12.8847C14.4904 13.2158 14.6558 13.6205 14.7845 14.0987C14.9315 14.5586 15.005 15.0644 15.005 15.6162C15.005 17.4005 14.3525 18.8168 13.0475 19.8653C11.7608 20.9137 10.079 21.438 8.00198 21.438Z" fill="#1B1D21"/>
  <path d="M28.3253 1.73784H32.1026V21.0517H28.3253V13.0502H21.1568V21.0517H17.352V1.73784H21.1568V9.4082H28.3253V1.73784Z" fill="#1B1D21"/>
</svg>