<svg width="270" height="85" viewBox="0 0 270 85" fill="none" xmlns="http://www.w3.org/2000/svg">
<g clip-path="url(#clip0_85_11)">
<path d="M98.4064 5C107.046 5 114.246 8.03 120.006 14.09C125.826 20.15 128.736 27.62 128.736 36.5C128.736 45.38 125.826 52.85 120.006 58.91C114.246 64.97 107.046 68 98.4064 68H73.3864V5H98.4064ZM98.4064 56.12C103.866 56.12 108.306 54.32 111.726 50.72C115.146 47.06 116.856 42.32 116.856 36.5C116.856 30.68 115.146 25.97 111.726 22.37C108.306 18.71 103.866 16.88 98.4064 16.88H85.8064V56.12H98.4064ZM190.557 59.81C184.197 66.11 176.457 69.26 167.337 69.26C158.217 69.26 150.477 66.11 144.117 59.81C137.817 53.45 134.667 45.68 134.667 36.5C134.667 27.32 137.817 19.58 144.117 13.28C150.477 6.92 158.217 3.74 167.337 3.74C176.457 3.74 184.197 6.92 190.557 13.28C196.917 19.58 200.097 27.32 200.097 36.5C200.097 45.68 196.917 53.45 190.557 59.81ZM152.847 51.35C156.747 55.19 161.577 57.11 167.337 57.11C173.097 57.11 177.927 55.19 181.827 51.35C185.727 47.45 187.677 42.5 187.677 36.5C187.677 30.5 185.727 25.55 181.827 21.65C177.927 17.75 173.097 15.8 167.337 15.8C161.577 15.8 156.747 17.75 152.847 21.65C148.947 25.55 146.997 30.5 146.997 36.5C146.997 42.5 148.947 47.45 152.847 51.35ZM270.476 5V68H258.146V27.14L240.416 56.39H238.976L221.246 27.23V68H208.826V5H221.606L239.696 34.79L257.696 5H270.476Z" fill="#2563EB"/>
<path fill-rule="evenodd" clip-rule="evenodd" d="M28.1523 50.4273C22.0321 45.6371 7.83558 40.4475 0.0113663 58.0101C-0.457337 45.2902 13.6863 9.0424 20.8331 2.43041C22.3609 0.839415 26.1069 -1.37715 28.8685 2.48456C29.1448 2.87104 29.5345 3.37891 30.0192 4.01082L30.0193 4.01093L30.0193 4.01094L30.0193 4.01096C31.73 6.24084 34.6255 10.0152 37.9109 15.4498C36.3408 16.1214 34.9503 17.307 34.1056 18.6664C34.6719 18.4123 35.2312 18.1413 35.7893 17.8708L35.7894 17.8707L35.7894 17.8707C36.72 17.4196 37.6474 16.9701 38.5991 16.6032C39.0365 17.3461 39.4797 18.1177 39.9268 18.9182C38.0153 19.9867 36.3509 21.4931 35.2973 23.1021L35.2947 23.1034L35.2968 23.1028L35.2973 23.1021C35.9414 22.7839 36.5828 22.4538 37.2247 22.1234L37.2252 22.1232L37.2253 22.1231C38.3883 21.5246 39.5528 20.9253 40.7377 20.3944C41.1654 21.1862 41.5956 22.0042 42.027 22.8485C39.8645 24.2755 37.9766 26.06 36.5981 27.968C37.1857 27.6488 37.7743 27.3242 38.3646 26.9987C39.8587 26.1747 41.364 25.3445 42.8939 24.579C49.0455 37.1035 55.2064 55.0027 56.9731 78.9184C39.3316 86.9545 35.1296 88.2421 23.0841 76.6337C32.8029 77.1741 48.8783 68.7325 35.4301 30.6432C23.1865 -4.03434 16.1285 18.3879 10.5882 35.9891C10.0431 37.7208 9.51266 39.4058 8.99346 40.9852C13.4562 39.8771 23.5359 40.2143 28.1523 50.4273Z" fill="#2563EB"/>
</g>
<defs>
<clipPath id="clip0_85_11">
<rect width="270" height="85" fill="white"/>
</clipPath>
</defs>
</svg>
