<svg width="56" height="56" viewBox="0 0 56 56" fill="none" xmlns="http://www.w3.org/2000/svg">
<rect width="56" height="56" rx="14" fill="#3E50F7" fill-opacity="0.1"/>
<path d="M37.625 23.625H31.5V17.5C31.5 16.8038 31.2234 16.1361 30.7312 15.6438C30.2389 15.1516 29.5712 14.875 28.875 14.875H18.375C17.6788 14.875 17.0111 15.1516 16.5188 15.6438C16.0266 16.1361 15.75 16.8038 15.75 17.5V40.25C15.75 40.4821 15.8422 40.7046 16.0063 40.8687C16.1704 41.0328 16.3929 41.125 16.625 41.125H22.3125C22.4285 41.125 22.5398 41.0789 22.6219 40.9969C22.7039 40.9148 22.75 40.8035 22.75 40.6875V36.7746C22.75 36.3038 23.112 35.8996 23.5829 35.8761C23.7012 35.8704 23.8194 35.8888 23.9304 35.9301C24.0414 35.9715 24.1429 36.0349 24.2286 36.1166C24.3144 36.1983 24.3826 36.2966 24.4293 36.4055C24.4759 36.5143 24.5 36.6316 24.5 36.75V40.6875C24.5 40.8035 24.5461 40.9148 24.6281 40.9969C24.7102 41.0789 24.8215 41.125 24.9375 41.125H39.375C39.6071 41.125 39.8296 41.0328 39.9937 40.8687C40.1578 40.7046 40.25 40.4821 40.25 40.25V26.25C40.25 25.5538 39.9734 24.8861 39.4812 24.3938C38.9889 23.9016 38.3212 23.625 37.625 23.625ZM19.3637 37.6179C19.1825 37.6416 18.9984 37.608 18.8373 37.5217C18.6762 37.4354 18.5461 37.3009 18.4654 37.1369C18.3846 36.973 18.3572 36.7879 18.387 36.6076C18.4168 36.4272 18.5023 36.2608 18.6316 36.1316C18.7608 36.0023 18.9272 35.9168 19.1076 35.887C19.2879 35.8572 19.473 35.8846 19.6369 35.9654C19.8009 36.0461 19.9354 36.1762 20.0217 36.3373C20.108 36.4984 20.1416 36.6825 20.1179 36.8637C20.0929 37.055 20.0054 37.2326 19.869 37.369C19.7326 37.5054 19.555 37.5929 19.3637 37.6179ZM19.3637 33.2429C19.1825 33.2666 18.9984 33.233 18.8373 33.1467C18.6762 33.0604 18.5461 32.9259 18.4654 32.7619C18.3846 32.598 18.3572 32.4129 18.387 32.2326C18.4168 32.0522 18.5023 31.8858 18.6316 31.7566C18.7608 31.6273 18.9272 31.5418 19.1076 31.512C19.2879 31.4822 19.473 31.5096 19.6369 31.5904C19.8009 31.6711 19.9354 31.8012 20.0217 31.9623C20.108 32.1234 20.1416 32.3075 20.1179 32.4887C20.0929 32.68 20.0054 32.8576 19.869 32.994C19.7326 33.1304 19.555 33.2179 19.3637 33.2429ZM19.3637 28.8679C19.1825 28.8916 18.9984 28.858 18.8373 28.7717C18.6762 28.6854 18.5461 28.5509 18.4654 28.3869C18.3846 28.223 18.3572 28.0379 18.387 27.8576C18.4168 27.6772 18.5023 27.5108 18.6316 27.3816C18.7608 27.2523 18.9272 27.1668 19.1076 27.137C19.2879 27.1072 19.473 27.1346 19.6369 27.2154C19.8009 27.2961 19.9354 27.4262 20.0217 27.5873C20.108 27.7484 20.1416 27.9325 20.1179 28.1137C20.0929 28.305 20.0054 28.4826 19.869 28.619C19.7326 28.7554 19.555 28.8429 19.3637 28.8679ZM19.3637 24.4929C19.1825 24.5166 18.9984 24.483 18.8373 24.3967C18.6762 24.3104 18.5461 24.1759 18.4654 24.0119C18.3846 23.848 18.3572 23.6629 18.387 23.4826C18.4168 23.3022 18.5023 23.1358 18.6316 23.0066C18.7608 22.8773 18.9272 22.7918 19.1076 22.762C19.2879 22.7322 19.473 22.7596 19.6369 22.8404C19.8009 22.9211 19.9354 23.0512 20.0217 23.2123C20.108 23.3734 20.1416 23.5575 20.1179 23.7388C20.0929 23.93 20.0054 24.1076 19.869 24.244C19.7326 24.3804 19.555 24.4679 19.3637 24.4929ZM19.3637 20.1179C19.1825 20.1416 18.9984 20.108 18.8373 20.0217C18.6762 19.9354 18.5461 19.8009 18.4654 19.6369C18.3846 19.473 18.3572 19.2879 18.387 19.1076C18.4168 18.9272 18.5023 18.7608 18.6316 18.6316C18.7608 18.5023 18.9272 18.4168 19.1076 18.387C19.2879 18.3572 19.473 18.3846 19.6369 18.4654C19.8009 18.5461 19.9354 18.6762 20.0217 18.8373C20.108 18.9984 20.1416 19.1825 20.1179 19.3637C20.0929 19.555 20.0054 19.7326 19.869 19.869C19.7326 20.0054 19.555 20.0929 19.3637 20.1179ZM23.7387 33.2429C23.5575 33.2666 23.3734 33.233 23.2123 33.1467C23.0512 33.0604 22.9211 32.9259 22.8404 32.7619C22.7596 32.598 22.7322 32.4129 22.762 32.2326C22.7918 32.0522 22.8773 31.8858 23.0066 31.7566C23.1358 31.6273 23.3022 31.5418 23.4826 31.512C23.6629 31.4822 23.848 31.5096 24.0119 31.5904C24.1759 31.6711 24.3104 31.8012 24.3967 31.9623C24.483 32.1234 24.5166 32.3075 24.4929 32.4887C24.4679 32.68 24.3804 32.8576 24.244 32.994C24.1076 33.1304 23.93 33.2179 23.7387 33.2429ZM23.7387 28.8679C23.5575 28.8916 23.3734 28.858 23.2123 28.7717C23.0512 28.6854 22.9211 28.5509 22.8404 28.3869C22.7596 28.223 22.7322 28.0379 22.762 27.8576C22.7918 27.6772 22.8773 27.5108 23.0066 27.3816C23.1358 27.2523 23.3022 27.1668 23.4826 27.137C23.6629 27.1072 23.848 27.1346 24.0119 27.2154C24.1759 27.2961 24.3104 27.4262 24.3967 27.5873C24.483 27.7484 24.5166 27.9325 24.4929 28.1137C24.4679 28.305 24.3804 28.4826 24.244 28.619C24.1076 28.7554 23.93 28.8429 23.7387 28.8679ZM23.7387 24.4929C23.5575 24.5166 23.3734 24.483 23.2123 24.3967C23.0512 24.3104 22.9211 24.1759 22.8404 24.0119C22.7596 23.848 22.7322 23.6629 22.762 23.4826C22.7918 23.3022 22.8773 23.1358 23.0066 23.0066C23.1358 22.8773 23.3022 22.7918 23.4826 22.762C23.6629 22.7322 23.848 22.7596 24.0119 22.8404C24.1759 22.9211 24.3104 23.0512 24.3967 23.2123C24.483 23.3734 24.5166 23.5575 24.4929 23.7388C24.4679 23.93 24.3804 24.1076 24.244 24.244C24.1076 24.3804 23.93 24.4679 23.7387 24.4929ZM23.7387 20.1179C23.5575 20.1416 23.3734 20.108 23.2123 20.0217C23.0512 19.9354 22.9211 19.8009 22.8404 19.6369C22.7596 19.473 22.7322 19.2879 22.762 19.1076C22.7918 18.9272 22.8773 18.7608 23.0066 18.6316C23.1358 18.5023 23.3022 18.4168 23.4826 18.387C23.6629 18.3572 23.848 18.3846 24.0119 18.4654C24.1759 18.5461 24.3104 18.6762 24.3967 18.8373C24.483 18.9984 24.5166 19.1825 24.4929 19.3637C24.4679 19.555 24.3804 19.7326 24.244 19.869C24.1076 20.0054 23.93 20.0929 23.7387 20.1179ZM28.1137 37.6179C27.9325 37.6416 27.7484 37.608 27.5873 37.5217C27.4262 37.4354 27.2961 37.3009 27.2154 37.1369C27.1346 36.973 27.1072 36.7879 27.137 36.6076C27.1668 36.4272 27.2523 36.2608 27.3816 36.1316C27.5108 36.0023 27.6772 35.9168 27.8576 35.887C28.0379 35.8572 28.223 35.8846 28.3869 35.9654C28.5509 36.0461 28.6854 36.1762 28.7717 36.3373C28.858 36.4984 28.8916 36.6825 28.8679 36.8637C28.8429 37.055 28.7554 37.2326 28.619 37.369C28.4826 37.5054 28.305 37.5929 28.1137 37.6179ZM28.1137 33.2429C27.9325 33.2666 27.7484 33.233 27.5873 33.1467C27.4262 33.0604 27.2961 32.9259 27.2154 32.7619C27.1346 32.598 27.1072 32.4129 27.137 32.2326C27.1668 32.0522 27.2523 31.8858 27.3816 31.7566C27.5108 31.6273 27.6772 31.5418 27.8576 31.512C28.0379 31.4822 28.223 31.5096 28.3869 31.5904C28.5509 31.6711 28.6854 31.8012 28.7717 31.9623C28.858 32.1234 28.8916 32.3075 28.8679 32.4887C28.8429 32.68 28.7554 32.8576 28.619 32.994C28.4826 33.1304 28.305 33.2179 28.1137 33.2429ZM28.1137 28.8679C27.9325 28.8916 27.7484 28.858 27.5873 28.7717C27.4262 28.6854 27.2961 28.5509 27.2154 28.3869C27.1346 28.223 27.1072 28.0379 27.137 27.8576C27.1668 27.6772 27.2523 27.5108 27.3816 27.3816C27.5108 27.2523 27.6772 27.1668 27.8576 27.137C28.0379 27.1072 28.223 27.1346 28.3869 27.2154C28.5509 27.2961 28.6854 27.4262 28.7717 27.5873C28.858 27.7484 28.8916 27.9325 28.8679 28.1137C28.8429 28.305 28.7554 28.4826 28.619 28.619C28.4826 28.7554 28.305 28.8429 28.1137 28.8679ZM28.1137 24.4929C27.9325 24.5166 27.7484 24.483 27.5873 24.3967C27.4262 24.3104 27.2961 24.1759 27.2154 24.0119C27.1346 23.848 27.1072 23.6629 27.137 23.4826C27.1668 23.3022 27.2523 23.1358 27.3816 23.0066C27.5108 22.8773 27.6772 22.7918 27.8576 22.762C28.0379 22.7322 28.223 22.7596 28.3869 22.8404C28.5509 22.9211 28.6854 23.0512 28.7717 23.2123C28.858 23.3734 28.8916 23.5575 28.8679 23.7388C28.8429 23.93 28.7554 24.1076 28.619 24.244C28.4826 24.3804 28.305 24.4679 28.1137 24.4929ZM28.1137 20.1179C27.9325 20.1416 27.7484 20.108 27.5873 20.0217C27.4262 19.9354 27.2961 19.8009 27.2154 19.6369C27.1346 19.473 27.1072 19.2879 27.137 19.1076C27.1668 18.9272 27.2523 18.7608 27.3816 18.6316C27.5108 18.5023 27.6772 18.4168 27.8576 18.387C28.0379 18.3572 28.223 18.3846 28.3869 18.4654C28.5509 18.5461 28.6854 18.6762 28.7717 18.8373C28.858 18.9984 28.8916 19.1825 28.8679 19.3637C28.8429 19.555 28.7554 19.7326 28.619 19.869C28.4826 20.0054 28.305 20.0929 28.1137 20.1179ZM38.2812 39.375H31.5V25.375H37.625C37.8571 25.375 38.0796 25.4672 38.2437 25.6313C38.4078 25.7954 38.5 26.0179 38.5 26.25V39.1562C38.5 39.2143 38.477 39.2699 38.4359 39.3109C38.3949 39.352 38.3393 39.375 38.2812 39.375Z" fill="#3E50F7"/>
<path d="M35.875 35.875C35.7019 35.875 35.5328 35.9263 35.3889 36.0225C35.245 36.1186 35.1328 36.2553 35.0666 36.4152C35.0004 36.575 34.9831 36.751 35.0168 36.9207C35.0506 37.0904 35.1339 37.2463 35.2563 37.3687C35.3787 37.4911 35.5346 37.5744 35.7043 37.6082C35.874 37.6419 36.05 37.6246 36.2098 37.5584C36.3697 37.4922 36.5064 37.38 36.6025 37.2361C36.6987 37.0922 36.75 36.9231 36.75 36.75C36.75 36.5179 36.6578 36.2954 36.4937 36.1313C36.3296 35.9672 36.1071 35.875 35.875 35.875ZM35.875 31.5C35.7019 31.5 35.5328 31.5513 35.3889 31.6475C35.245 31.7436 35.1328 31.8803 35.0666 32.0402C35.0004 32.2 34.9831 32.376 35.0168 32.5457C35.0506 32.7154 35.1339 32.8713 35.2563 32.9937C35.3787 33.1161 35.5346 33.1994 35.7043 33.2332C35.874 33.2669 36.05 33.2496 36.2098 33.1834C36.3697 33.1172 36.5064 33.005 36.6025 32.8611C36.6987 32.7172 36.75 32.5481 36.75 32.375C36.75 32.1429 36.6578 31.9204 36.4937 31.7563C36.3296 31.5922 36.1071 31.5 35.875 31.5ZM35.875 27.125C35.7019 27.125 35.5328 27.1763 35.3889 27.2725C35.245 27.3686 35.1328 27.5053 35.0666 27.6652C35.0004 27.825 34.9831 28.001 35.0168 28.1707C35.0506 28.3404 35.1339 28.4963 35.2563 28.6187C35.3787 28.7411 35.5346 28.8244 35.7043 28.8582C35.874 28.8919 36.05 28.8746 36.2098 28.8084C36.3697 28.7422 36.5064 28.63 36.6025 28.4861C36.6987 28.3422 36.75 28.1731 36.75 28C36.75 27.7679 36.6578 27.5454 36.4937 27.3813C36.3296 27.2172 36.1071 27.125 35.875 27.125ZM32.375 35.875C32.2019 35.875 32.0328 35.9263 31.8889 36.0225C31.745 36.1186 31.6328 36.2553 31.5666 36.4152C31.5004 36.575 31.4831 36.751 31.5168 36.9207C31.5506 37.0904 31.6339 37.2463 31.7563 37.3687C31.8787 37.4911 32.0346 37.5744 32.2043 37.6082C32.374 37.6419 32.55 37.6246 32.7098 37.5584C32.8697 37.4922 33.0064 37.38 33.1025 37.2361C33.1987 37.0922 33.25 36.9231 33.25 36.75C33.25 36.5179 33.1578 36.2954 32.9937 36.1313C32.8296 35.9672 32.6071 35.875 32.375 35.875ZM32.375 31.5C32.2019 31.5 32.0328 31.5513 31.8889 31.6475C31.745 31.7436 31.6328 31.8803 31.5666 32.0402C31.5004 32.2 31.4831 32.376 31.5168 32.5457C31.5506 32.7154 31.6339 32.8713 31.7563 32.9937C31.8787 33.1161 32.0346 33.1994 32.2043 33.2332C32.374 33.2669 32.55 33.2496 32.7098 33.1834C32.8697 33.1172 33.0064 33.005 33.1025 32.8611C33.1987 32.7172 33.25 32.5481 33.25 32.375C33.25 32.1429 33.1578 31.9204 32.9937 31.7563C32.8296 31.5922 32.6071 31.5 32.375 31.5ZM32.375 27.125C32.2019 27.125 32.0328 27.1763 31.8889 27.2725C31.745 27.3686 31.6328 27.5053 31.5666 27.6652C31.5004 27.825 31.4831 28.001 31.5168 28.1707C31.5506 28.3404 31.6339 28.4963 31.7563 28.6187C31.8787 28.7411 32.0346 28.8244 32.2043 28.8582C32.374 28.8919 32.55 28.8746 32.7098 28.8084C32.8697 28.7422 33.0064 28.63 33.1025 28.4861C33.1987 28.3422 33.25 28.1731 33.25 28C33.25 27.7679 33.1578 27.5454 32.9937 27.3813C32.8296 27.2172 32.6071 27.125 32.375 27.125Z" fill="#323232"/>
</svg>
