<svg xmlns="http://www.w3.org/2000/svg" width="174" height="151" viewBox="0 0 174 151" fill="none">
  <path d="M88.9803 82.0283C84.7068 91.9828 81.2694 102.296 78.7082 112.821C77.5045 117.768 76.4943 122.763 75.6818 127.789C75.3238 130.003 75.2707 132.408 74.3615 134.481C73.5136 136.414 72.0784 138.093 70.2769 139.199C69.1118 139.914 67.8098 140.396 66.6877 141.177C65.367 142.096 64.1575 143.838 64.5526 145.528C64.8607 146.847 66.1726 147.689 67.4676 148.086C69.934 148.841 72.5646 148.457 74.9606 147.632C75.5518 147.428 76.1329 147.196 76.7052 146.945C77.0931 146.774 77.8256 146.215 78.2487 146.209C78.8199 146.201 78.6723 146.304 78.6393 146.928C78.6 147.672 78.4926 148.418 78.4196 149.159C80.7343 149.699 83.1165 149.873 85.4871 150.046C87.2732 150.176 89.1349 150.295 90.7906 149.612C94.8294 129.798 98.4995 109.439 108.548 91.5791C108.698 91.3125 108.849 91.0466 109.002 90.7815" fill="black"/>
  <path d="M88.6718 81.8448C86.2096 87.5854 84.0173 93.44 82.1138 99.3893C80.1961 105.383 78.5686 111.469 77.2388 117.62C76.5545 120.785 75.949 123.967 75.4235 127.162C74.9624 129.965 74.9536 132.932 73.4646 135.443C72.803 136.558 71.9286 137.557 70.8946 138.342C69.765 139.2 68.4419 139.713 67.2206 140.417C66.0901 141.068 65.0814 141.961 64.525 143.164C64.0169 144.262 63.9364 145.573 64.6478 146.606C65.3345 147.602 66.4751 148.184 67.6159 148.498C69.0498 148.893 70.5527 148.921 72.0192 148.718C73.5096 148.511 74.9543 148.06 76.3407 147.483C76.8713 147.262 77.3386 146.971 77.8472 146.71C77.952 146.657 78.0637 146.598 78.1804 146.576C78.2479 146.563 78.371 146.591 78.4268 146.564L78.4487 146.57C78.5464 146.598 78.5043 146.536 78.3225 146.383C78.313 146.392 78.3279 146.46 78.3213 146.477C78.2839 146.576 78.2961 146.726 78.2881 146.831C78.2291 147.608 78.1407 148.38 78.0623 149.155C78.0473 149.304 78.1835 149.468 78.3248 149.5C80.8714 150.087 83.497 150.274 86.0987 150.443C87.289 150.52 88.4931 150.55 89.6691 150.316C89.9457 150.261 90.2191 150.19 90.4868 150.102C90.763 150.01 91.0634 149.953 91.1475 149.645C91.3056 149.065 91.39 148.453 91.5095 147.864C92.4681 143.134 93.4132 138.402 94.4391 133.687C95.4706 128.947 96.5837 124.222 97.8733 119.544C99.1537 114.9 100.609 110.301 102.328 105.799C104.054 101.278 106.051 96.8575 108.38 92.614C108.685 92.0591 108.996 91.5076 109.311 90.9589C109.541 90.5593 108.923 90.1988 108.694 90.598C104.661 97.6124 101.575 105.129 99.1182 112.829C96.675 120.486 94.8374 128.32 93.1748 136.178C92.2357 140.617 91.3521 145.068 90.446 149.514L90.6957 149.264C88.8292 150.011 86.7832 149.782 84.8285 149.637C82.7095 149.48 80.5896 149.289 78.5148 148.811L78.7773 149.156C78.8556 148.38 78.9428 147.608 79.003 146.831C79.0316 146.463 79.1094 146.027 78.6607 145.886C78.1988 145.74 77.7186 145.96 77.3242 146.181C76.7836 146.482 76.2667 146.754 75.687 146.981C73.0035 148.033 69.7749 148.697 67.0098 147.541C65.937 147.092 64.9006 146.253 64.8378 145.007C64.7729 143.72 65.5934 142.528 66.5414 141.733C67.632 140.818 69.0322 140.34 70.2505 139.628C71.3659 138.977 72.3611 138.118 73.1702 137.111C73.9913 136.089 74.6404 134.932 75.0418 133.682C75.4822 132.31 75.6393 130.868 75.8136 129.444C76.1946 126.333 76.809 123.24 77.4331 120.17C78.6879 113.998 80.2419 107.887 82.0873 101.865C83.902 95.9437 85.9984 90.1086 88.3691 84.3869C88.6712 83.6579 88.9781 82.9309 89.2891 82.2057C89.4685 81.7874 88.8528 81.4227 88.6718 81.8448Z" fill="black"/>
  <path d="M88.9809 82.0253C84.7074 91.9798 81.27 102.293 78.7088 112.818C77.2323 118.886 76.2658 125.046 74.9165 131.137C74.8584 131.399 74.8029 131.685 74.922 131.926C75.0627 132.21 75.3956 132.333 75.6976 132.43C79.4722 133.642 83.2676 134.854 87.1797 135.542C89.1555 135.889 91.1577 136.102 93.1651 136.102C94.2496 136.101 94.577 136.265 95.0488 135.396C95.466 134.627 95.5717 133.463 95.8026 132.615C97.7477 125.477 99.7789 118.351 102.351 111.409C105.255 103.57 113.134 87.5719 118.004 80.75" fill="#3E50F7"/>
  <path d="M106.949 99.8834C106.69 97.9207 106.023 96.0166 105.015 94.3134C103.987 92.5757 102.057 91.2011 100.667 89.7191C100.279 89.3051 99.8809 88.8771 99.3658 88.6387C97.3421 87.7021 97.5033 90.2062 97.4686 91.4569C97.4199 93.2086 97.5591 94.9621 97.8326 96.6919C98.3777 100.138 99.4488 103.483 100.71 106.728C101.411 108.53 102.353 110.521 102.098 112.506C103.203 109.12 104.623 105.838 106.333 102.714C106.591 102.243 106.859 101.765 106.96 101.237C107.046 100.792 107.008 100.333 106.949 99.8834Z" fill="black"/>
  <path d="M105.427 88.3357C104.593 96.9151 104.623 106.946 111.266 115.504C114.388 119.526 118.416 126.3 121.843 130.065C123.353 131.723 125.202 133.262 126.258 135.264C127.243 137.131 127.663 139.3 127.407 141.398C127.241 142.755 126.808 144.074 126.721 145.438C126.618 147.044 127.228 149.075 128.797 149.818C130.021 150.398 131.496 149.895 132.613 149.129C134.74 147.669 136.076 145.371 136.922 142.983C137.131 142.393 137.311 141.794 137.471 141.189C137.579 140.78 137.597 139.858 137.856 139.524C138.206 139.072 138.194 139.251 138.662 139.666C139.219 140.159 139.736 140.708 140.271 141.226C142.134 139.751 143.754 137.995 145.365 136.248C146.579 134.931 147.831 133.548 148.327 131.827C135.336 116.331 121.689 100.784 113.968 81.8012C113.853 81.5178 113.739 81.2338 113.627 80.9492" fill="black"/>
  <path d="M105.068 88.3369C104.537 93.8294 104.433 99.4373 105.76 104.832C106.466 107.702 107.581 110.476 109.113 113.006C109.885 114.281 110.796 115.445 111.679 116.642C112.485 117.735 113.258 118.853 114.025 119.974C115.684 122.397 117.305 124.85 119.064 127.204C119.837 128.239 120.634 129.259 121.499 130.219C122.499 131.329 123.608 132.337 124.578 133.474C125.617 134.692 126.386 136.073 126.792 137.627C127.214 139.246 127.187 140.874 126.859 142.505C126.567 143.954 126.194 145.4 126.45 146.883C126.657 148.078 127.248 149.28 128.294 149.95C129.53 150.742 131.058 150.432 132.272 149.76C133.519 149.07 134.552 148.008 135.37 146.855C136.214 145.666 136.834 144.326 137.31 142.952C137.559 142.234 137.801 141.501 137.905 140.746C137.941 140.479 137.969 140.202 138.051 139.944C138.09 139.823 138.192 139.738 138.23 139.63L138.281 139.579L138.069 139.598C138.066 139.63 138.255 139.777 138.283 139.804C138.866 140.357 139.441 140.918 140.017 141.48C140.167 141.626 140.369 141.602 140.522 141.48C142.533 139.88 144.28 137.976 146.004 136.079C146.78 135.226 147.543 134.334 148.093 133.315C148.224 133.072 148.341 132.822 148.445 132.567C148.536 132.346 148.71 132.023 148.677 131.781C148.645 131.539 148.347 131.299 148.197 131.12C147.993 130.877 147.789 130.634 147.584 130.391C144.472 126.685 141.347 122.99 138.285 119.243C135.199 115.468 132.177 111.64 129.303 107.701C126.454 103.798 123.75 99.7857 121.287 95.6272C118.804 91.4353 116.563 87.0933 114.68 82.5981C114.437 82.0197 114.201 81.4386 113.971 80.8554C113.803 80.4326 113.112 80.6169 113.281 81.0455C114.78 84.8318 116.521 88.5184 118.462 92.0978C120.376 95.6278 122.479 99.0536 124.713 102.39C126.962 105.749 129.343 109.018 131.804 112.225C134.252 115.415 136.777 118.544 139.337 121.644C141.91 124.76 144.518 127.847 147.117 130.942C147.436 131.321 147.755 131.701 148.073 132.081L147.982 131.733C147.412 133.638 145.951 135.089 144.636 136.511C143.181 138.084 141.697 139.637 140.017 140.975H140.522C139.934 140.401 139.344 139.83 138.75 139.262C138.584 139.103 138.422 138.914 138.175 138.905C137.901 138.895 137.685 139.136 137.546 139.344C137.249 139.793 137.255 140.379 137.167 140.892C137.032 141.672 136.741 142.456 136.465 143.195C135.968 144.528 135.306 145.826 134.417 146.942C133.519 148.07 132.327 149.152 130.916 149.566C130.235 149.765 129.493 149.79 128.852 149.448C128.323 149.165 127.925 148.713 127.639 148.19C126.989 146.999 126.987 145.632 127.218 144.329C127.507 142.698 127.931 141.127 127.811 139.453C127.7 137.894 127.261 136.358 126.512 134.985C125.795 133.669 124.757 132.559 123.716 131.494C122.755 130.512 121.806 129.53 120.939 128.463C119.134 126.241 117.532 123.857 115.923 121.492C115.126 120.321 114.332 119.148 113.519 117.988C112.758 116.901 111.953 115.852 111.165 114.786C109.365 112.35 107.977 109.631 107.047 106.75C105.332 101.436 105.19 95.7913 105.615 90.2681C105.664 89.6238 105.721 88.9802 105.784 88.337C105.828 87.8793 105.112 87.8823 105.068 88.3369Z" fill="black"/>
  <path d="M97.9141 87.9801C98.6898 96.3039 104.267 104.825 108.319 112.135C112.565 119.794 118.496 125.978 123.983 132.752C124.152 132.961 124.341 133.182 124.603 133.239C124.914 133.306 125.217 133.122 125.481 132.946C128.779 130.746 132.091 128.531 135.064 125.898C136.566 124.568 137.979 123.133 139.229 121.562C139.904 120.713 140.235 120.559 139.849 119.648C139.507 118.843 138.662 118.036 138.142 117.327C133.374 110.825 128.37 104.315 125.838 96.5609C123.411 89.1276 123.316 80.9145 125.768 73.4746" fill="#3E50F7"/>
  <path d="M88.6723 81.8448C86.0735 87.9031 83.7761 94.089 81.8007 100.378C79.8021 106.742 78.141 113.197 76.8396 119.739C76.1816 123.046 75.5724 126.363 74.8712 129.662C74.7856 130.065 74.6986 130.467 74.61 130.869C74.5263 131.249 74.4236 131.645 74.5773 132.021C74.8401 132.663 75.6766 132.798 76.2625 132.986C77.8406 133.492 79.421 133.991 81.0141 134.448C84.2517 135.376 87.5589 136.127 90.9248 136.375C91.7311 136.434 92.5359 136.449 93.3439 136.46C93.7925 136.466 94.308 136.538 94.7172 136.307C95.1692 136.051 95.4194 135.515 95.5885 135.048C95.8219 134.403 95.913 133.718 96.0633 133.052C96.4223 131.461 96.9192 129.888 97.3599 128.317C97.8177 126.686 98.2849 125.057 98.767 123.433C99.7254 120.203 100.743 116.99 101.862 113.813C102.134 113.041 102.411 112.272 102.695 111.504C102.855 111.072 102.164 110.886 102.006 111.314C99.7345 117.453 97.8805 123.735 96.1378 130.041C95.92 130.829 95.7029 131.618 95.4887 132.407C95.3134 133.053 95.2204 133.717 95.0501 134.365C94.9413 134.778 94.7763 135.469 94.3563 135.689C94.2284 135.756 94.0718 135.755 93.9304 135.756C93.6361 135.759 93.3414 135.745 93.0471 135.744C89.7763 135.727 86.541 135.155 83.3793 134.349C81.8108 133.949 80.2576 133.492 78.7118 133.012C77.9575 132.777 77.2048 132.538 76.4525 132.297C76.1215 132.191 75.7332 132.115 75.4302 131.939C75.0759 131.733 75.2403 131.328 75.312 131.002C76.0195 127.785 76.6239 124.546 77.2559 121.314C78.5023 114.939 80.0315 108.644 81.9164 102.427C83.7647 96.3313 85.911 90.3256 88.3476 84.44C88.6567 83.6932 88.9709 82.9485 89.2896 82.2056C89.469 81.7874 88.8533 81.4227 88.6723 81.8448Z" fill="black"/>
  <path d="M97.5585 87.9791C97.9383 91.958 99.3114 95.7595 100.984 99.3641C102.715 103.096 104.8 106.648 106.833 110.22C107.841 111.991 108.814 113.778 109.917 115.493C111.039 117.239 112.248 118.928 113.508 120.576C116.007 123.844 118.699 126.956 121.34 130.107C122.017 130.916 122.692 131.727 123.359 132.545C123.642 132.892 123.915 133.336 124.34 133.522C124.79 133.718 125.238 133.53 125.623 133.28C127.456 132.089 129.265 130.85 131.032 129.563C132.773 128.294 134.468 126.954 136.049 125.488C136.824 124.768 137.572 124.018 138.28 123.232C138.647 122.826 139.003 122.41 139.346 121.984C139.616 121.651 139.924 121.33 140.157 120.969C140.601 120.279 140.236 119.477 139.821 118.864C139.285 118.071 138.617 117.369 138.05 116.597C136.837 114.946 135.618 113.299 134.432 111.627C132.078 108.309 129.843 104.885 128.09 101.205C126.289 97.4246 125.075 93.3767 124.589 89.2135C124.096 84.9987 124.307 80.6987 125.273 76.5644C125.51 75.5538 125.791 74.5547 126.115 73.5686C126.258 73.1304 125.568 72.9426 125.425 73.3785C124.128 77.3345 123.533 81.5135 123.627 85.6742C123.721 89.8197 124.489 93.9573 125.91 97.8534C127.275 101.598 129.212 105.1 131.384 108.431C132.485 110.119 133.645 111.767 134.826 113.399C135.411 114.207 136.002 115.012 136.593 115.817C137.163 116.592 137.711 117.39 138.329 118.127C138.64 118.498 138.964 118.861 139.231 119.265C139.419 119.55 139.69 119.959 139.657 120.32C139.629 120.62 139.324 120.887 139.144 121.104C138.809 121.509 138.483 121.921 138.137 122.317C136.763 123.896 135.23 125.332 133.618 126.666C131.969 128.032 130.232 129.288 128.469 130.501C127.574 131.117 126.672 131.722 125.769 132.325C125.482 132.516 124.909 133.069 124.546 132.824C124.368 132.705 124.235 132.495 124.102 132.331C123.932 132.123 123.762 131.914 123.592 131.706C121.01 128.556 118.324 125.492 115.774 122.315C113.236 119.153 110.838 115.865 108.841 112.331C106.88 108.861 104.848 105.424 103.017 101.883C101.187 98.3423 99.5401 94.6441 98.7024 90.7295C98.508 89.8212 98.3618 88.9039 98.2735 87.9791C98.2302 87.5251 97.5147 87.5206 97.5585 87.9791Z" fill="black"/>
  <path d="M120.196 84.3812C121.418 84.503 122.681 84.6419 123.85 84.2645C123.854 81.6317 124.637 77.3383 126.037 75.1084C124.522 75.417 122.933 76.9274 121.39 76.8401C115.991 76.5349 110.596 77.0857 105.229 77.6126C102.568 77.8738 99.9057 78.1321 97.2357 78.2796C94.9824 78.404 92.8748 78.3633 90.753 79.2657C90.5257 79.3623 90.2967 79.47 90.1211 79.6436C89.9656 79.7974 89.8609 79.994 89.759 80.1893C88.7485 82.125 87.5269 84.2742 86.9863 86.3904C92.0761 84.7989 97.9784 84.3843 103.316 84.0591C108.939 83.7166 114.59 83.8225 120.196 84.3812Z" fill="black"/>
  <path d="M120.197 84.7402C121.448 84.8651 122.723 84.9884 123.945 84.6108C124.096 84.5641 124.207 84.4268 124.208 84.2661C124.214 82.7095 124.43 81.1501 124.765 79.632C125.095 78.1374 125.533 76.6011 126.346 75.2904C126.518 75.0118 126.234 74.7016 125.942 74.7652C124.752 75.0244 123.771 75.8006 122.651 76.2364C122.383 76.3409 122.1 76.4328 121.813 76.4705C121.477 76.5146 121.132 76.4691 120.795 76.454C120.022 76.4192 119.248 76.4011 118.474 76.3975C115.356 76.3828 112.244 76.6008 109.141 76.8814C106.074 77.1589 103.013 77.4981 99.943 77.7401C98.4597 77.857 96.9758 77.9296 95.4903 78.0075C94.1074 78.0799 92.7102 78.2099 91.3885 78.6474C90.7056 78.8735 89.9789 79.1171 89.5871 79.7621C89.1824 80.4284 88.8458 81.1505 88.488 81.8431C87.7507 83.2701 87.0486 84.7369 86.6421 86.2969C86.5754 86.5528 86.8162 86.8192 87.0818 86.7367C91.0415 85.5057 95.1905 85.0129 99.3103 84.6894C103.712 84.3438 108.121 84.1425 112.537 84.2587C115.095 84.3261 117.65 84.4879 120.197 84.7402C120.654 84.7855 120.651 84.0703 120.197 84.0252C115.636 83.5734 111.048 83.4159 106.467 83.5583C102.214 83.6905 97.9272 83.9722 93.7131 84.5727C91.4082 84.9011 89.1169 85.3555 86.8918 86.0472L87.3315 86.487C87.6901 85.1106 88.2848 83.8153 88.9273 82.5513C89.2507 81.9148 89.5878 81.2855 89.9201 80.6537C90.0526 80.4017 90.1682 80.1003 90.3744 79.8979C90.6073 79.6693 90.9664 79.5566 91.2657 79.4462C92.5538 78.9711 93.9127 78.8114 95.2754 78.7341C96.7339 78.6512 98.192 78.5896 99.649 78.4779C105.704 78.0134 111.737 77.146 117.819 77.1126C118.652 77.1081 119.486 77.1193 120.319 77.1495C121.043 77.1758 121.752 77.2645 122.459 77.0569C123.748 76.6781 124.814 75.7418 126.132 75.4546L125.728 74.9295C124.884 76.29 124.418 77.8902 124.076 79.4419C123.727 81.0199 123.499 82.648 123.493 84.2661L123.755 83.9214C122.596 84.2794 121.382 84.1436 120.197 84.0252C119.739 83.9796 119.742 84.6948 120.197 84.7402Z" fill="black"/>
  <path d="M68.0656 72.7979C65.3377 78.0474 62.66 83.323 60.0331 88.6238C59.868 86.7402 59.7071 84.8858 59.3978 83.0184C58.7079 78.8532 57.9492 74.9135 55.1703 71.5905C54.7795 71.1232 54.3503 70.6642 53.7989 70.4052C50.9879 69.0851 47.5578 69.4786 44.7695 70.7448C42.7451 71.6641 42.4586 74.3835 43.0596 76.2908C43.6122 78.0447 44.7126 79.581 45.3204 81.3165C46.6124 85.0063 45.6285 89.3555 45.5988 93.18C45.5656 97.4449 45.8633 101.73 46.7975 105.9C47.2091 107.737 47.5494 109.166 48.9562 110.539C50.2604 111.812 51.9779 112.66 53.77 112.972C60.0688 114.066 65.3035 109.468 68.762 104.775C72.941 99.1051 75.8658 93.2529 78.0941 86.5648C78.5021 85.3402 78.8803 84.1051 79.2078 82.8565" fill="white"/>
  <path d="M67.7587 72.6164C65.6352 76.7034 63.5417 80.806 61.4791 84.9241C60.8923 86.0956 60.3081 87.2684 59.7262 88.4424L60.3923 88.6228C60.1959 86.3811 59.9612 84.1535 59.5778 81.9351C59.2514 80.0465 58.8716 78.1565 58.2285 76.3467C57.582 74.5271 56.6663 72.8208 55.4248 71.3367C55.1161 70.9677 54.7868 70.6173 54.3926 70.338C53.9942 70.0559 53.5136 69.8767 53.0542 69.7205C52.1192 69.4026 51.1261 69.2497 50.1401 69.2298C49.1418 69.2095 48.1378 69.3287 47.1656 69.5536C46.2325 69.7695 45.2656 70.0702 44.4169 70.521C43.0533 71.2454 42.4713 72.8018 42.4282 74.272C42.3743 76.1108 43.2173 77.7272 44.0321 79.3213C44.5065 80.2492 44.9519 81.1847 45.217 82.1967C45.4768 83.189 45.5878 84.2104 45.6194 85.2339C45.6838 87.3242 45.4317 89.4057 45.3062 91.489C45.1734 93.6944 45.2318 95.9199 45.3705 98.1238C45.5138 100.401 45.7849 102.672 46.2267 104.911C46.5791 106.697 46.9249 108.601 48.0669 110.074C50.4367 113.13 54.736 114.042 58.3586 113.162C61.8684 112.309 64.8357 109.933 67.1937 107.283C68.4654 105.853 69.5874 104.295 70.6551 102.71C71.7894 101.026 72.842 99.2873 73.8052 97.4999C75.7468 93.8972 77.3187 90.1019 78.5877 86.2131C78.9397 85.1346 79.2652 84.0477 79.5544 82.9506C79.6718 82.5053 78.9824 82.3153 78.865 82.7605C77.8249 86.706 76.3899 90.5765 74.6427 94.2629C72.9581 97.8174 70.9336 101.204 68.6128 104.379C66.5784 107.163 64.1031 109.782 61.0132 111.391C57.8677 113.029 53.9793 113.363 50.8373 111.521C50.0289 111.047 49.2773 110.444 48.6866 109.713C48.1671 109.07 47.8199 108.317 47.5783 107.532C46.9836 105.597 46.6552 103.546 46.4039 101.542C46.1286 99.3471 45.9961 97.1358 45.9637 94.9246C45.9337 92.8709 46.0693 90.844 46.2179 88.7975C46.3614 86.8218 46.4508 84.8199 46.0946 82.8605C45.9172 81.8852 45.6033 80.9558 45.1889 80.0565C44.7664 79.1399 44.2645 78.2622 43.8492 77.3422C43.2215 75.9521 42.8906 74.4094 43.367 72.9176C43.5717 72.2768 43.9513 71.6729 44.5176 71.2939C45.2546 70.8007 46.2075 70.5338 47.0582 70.3156C48.9217 69.8376 50.9258 69.7758 52.7688 70.3781C53.2051 70.5207 53.6564 70.6852 54.0318 70.9554C54.3985 71.2192 54.6995 71.5749 54.9851 71.9214C55.5876 72.6525 56.1091 73.45 56.554 74.2859C57.418 75.9094 57.9648 77.6756 58.3692 79.4637C58.8073 81.4008 59.138 83.3751 59.3626 85.3479C59.4866 86.4376 59.5817 87.5303 59.6774 88.6227C59.7056 88.9438 60.1719 89.1496 60.3436 88.8032C62.389 84.6765 64.4646 80.5649 66.5709 76.469C67.1702 75.3038 67.7719 74.1399 68.376 72.9772C68.5879 72.5695 67.9711 72.2075 67.7587 72.6164Z" fill="black"/>
  <path d="M46.5586 55.807L77.42 85.5964L131.398 78.3278L143.671 34.9544C141.795 32.9969 139.92 31.0394 138.044 29.0818C134.024 24.8857 130.004 20.6895 125.984 16.4934C122.217 12.5613 118.45 8.6293 114.683 4.69724C113.693 3.66378 112.74 2.56659 111.7 1.58314C110.649 0.589649 108.635 0.890496 107.263 0.991555C104.62 1.1862 102.042 1.86045 99.4744 2.47687C91.5482 4.37951 83.1967 5.7361 75.3004 3.71273C72.0832 2.88836 68.9155 1.50331 65.5986 1.6708C64.0575 1.74861 62.4166 2.24905 61.5208 3.50552C60.6251 4.76196 60.9226 6.87649 62.3645 7.42583C60.8272 6.54815 58.9715 6.24312 57.2341 6.58256C55.9724 6.82906 54.6525 7.55283 54.3273 8.79662C53.7958 10.8291 55.8312 11.7392 57.4112 12.3491C56.8474 12.1486 56.1863 12.3764 55.7849 12.8202C55.3836 13.264 55.2196 13.8859 55.2383 14.484C55.2682 15.4428 55.8019 16.6488 56.6305 17.1926C57.563 17.8045 58.9482 18.0687 60.0375 18.2023C59.9568 18.1915 59.187 20.795 59.1059 21.0423C58.8136 21.9334 58.428 22.7649 58.1232 23.6568C57.4446 25.6421 56.7674 27.6279 56.078 29.6095C54.1822 35.0589 52.2408 40.4925 50.2524 45.9088C49.0387 49.2147 47.8075 52.5143 46.5586 55.807Z" fill="white"/>
  <path d="M46.31 56.0595C47.6109 57.3153 48.9118 58.571 50.2128 59.8267C53.2094 62.7192 56.2059 65.6117 59.2025 68.5041C62.5251 71.7113 65.8477 74.9185 69.1703 78.1257C71.4861 80.361 73.8018 82.5964 76.1176 84.8317C76.4532 85.1557 76.7871 85.5806 77.1714 85.8489C77.4961 86.0755 78.2153 85.847 78.5764 85.7984C81.1931 85.446 83.81 85.0937 86.4268 84.7413C90.638 84.1742 94.8492 83.6071 99.0604 83.0401C103.732 82.4109 108.404 81.7818 113.076 81.1527L124.956 79.553C127.04 79.2723 129.125 78.9916 131.209 78.7109C131.305 78.698 131.401 78.6851 131.497 78.6722C131.616 78.6561 131.716 78.5301 131.746 78.4225C132.102 77.1667 132.457 75.9108 132.813 74.655C133.683 71.579 134.553 68.503 135.424 65.427C136.516 61.5679 137.608 57.7089 138.7 53.8499C139.72 50.245 140.74 46.6401 141.76 43.0353C142.413 40.727 143.066 38.4187 143.719 36.1105C143.814 35.7746 143.982 35.3987 144.019 35.0498C144.051 34.7582 143.85 34.62 143.66 34.4217C143.302 34.0489 142.945 33.676 142.588 33.3031C141.874 32.5574 141.159 31.8117 140.445 31.0659C139.038 29.5975 137.631 28.1291 136.224 26.6607C130.592 20.7818 124.96 14.9028 119.328 9.02386C117.932 7.5667 116.536 6.10953 115.14 4.65234C114.472 3.9553 113.823 3.24101 113.159 2.54042C112.628 1.98018 112.08 1.27877 111.38 0.923284C110.129 0.288086 108.607 0.527093 107.267 0.633796C105.36 0.785625 103.487 1.15686 101.627 1.5929C94.0411 3.37118 86.2781 5.16431 78.448 3.98388C76.5597 3.69921 74.7316 3.20497 72.9071 2.6513C71.1466 2.11709 69.3771 1.58036 67.5416 1.37805C64.9448 1.0918 60.8067 1.67383 60.6635 5.03594C60.6138 6.20257 61.1743 7.31287 62.2737 7.77025C62.6509 7.9272 62.8968 7.31008 62.5491 7.11688C61.1381 6.33271 59.5063 5.96221 57.8945 6.12756C56.6182 6.25852 55.2457 6.70171 54.4453 7.76934C53.75 8.69691 53.6923 9.99017 54.4125 10.9163C55.1225 11.8295 56.2747 12.2878 57.3204 12.6935L57.5104 12.0041C56.6102 11.7391 55.6684 12.1913 55.2232 13.0026C54.7458 13.8725 54.8194 14.9326 55.1786 15.8291C55.5379 16.7256 56.1403 17.4072 57.0221 17.8095C57.9745 18.2442 59.0099 18.4291 60.0418 18.5595L59.8613 17.8934C59.6836 17.9861 59.6258 18.2396 59.5638 18.4113C59.4427 18.7472 59.338 19.0895 59.2314 19.4302C59.0389 20.0461 58.8678 20.6704 58.6518 21.2786C58.1877 22.5856 57.6767 23.8725 57.2276 25.1859C56.7544 26.5695 56.2801 27.9528 55.8002 29.3341C53.8435 34.9652 51.8361 40.5787 49.7795 46.1741C48.6087 49.3594 47.4214 52.5385 46.2182 55.7116C46.0548 56.1423 46.7457 56.3284 46.9075 55.9017C48.9859 50.4209 51.0159 44.9218 52.9974 39.4053C53.9835 36.6601 54.9577 33.9106 55.9203 31.1571C56.8671 28.4485 57.7089 25.6861 58.7447 23.0107C59.0944 22.1076 59.4314 21.2137 59.7145 20.2884C59.8401 19.878 59.9662 19.4676 60.0991 19.0594C60.1489 18.9063 60.1983 18.7527 60.2532 18.6013C60.3306 18.3878 60.3883 18.424 60.2222 18.5106C60.5709 18.3287 60.3588 17.8846 60.0417 17.8445C58.6362 17.6669 56.8643 17.3923 56.0828 16.0628C55.7232 15.4511 55.5079 14.6911 55.6314 13.9802C55.7715 13.174 56.4436 12.4354 57.3204 12.6935C57.7706 12.8261 57.9303 12.167 57.5104 12.0041C56.6743 11.6797 55.7648 11.3203 55.1314 10.6605C54.3972 9.89573 54.4727 8.75154 55.1876 7.99307C55.9723 7.16056 57.2049 6.86284 58.308 6.8125C59.6663 6.75051 61.0016 7.07473 62.1883 7.73418L62.4638 7.0808C61.4049 6.64025 61.1848 5.24767 61.528 4.27053C61.982 2.97811 63.4331 2.35473 64.681 2.1304C67.9178 1.54854 71.2079 2.93025 74.2629 3.79989C80.7682 5.65171 87.578 5.22519 94.1553 3.99286C97.4866 3.36868 100.748 2.43581 104.073 1.79307C105.599 1.49813 107.149 1.31546 108.701 1.24058C109.324 1.21054 109.967 1.20694 110.572 1.37526C111.299 1.57741 111.77 2.13177 112.28 2.6562C117.163 7.68377 121.959 12.8032 126.808 17.8648C131.721 22.9929 136.634 28.1211 141.547 33.2493C142.172 33.9018 142.797 34.5543 143.422 35.2068L143.33 34.859C142.924 36.2956 142.517 37.7321 142.111 39.1686C141.134 42.619 140.158 46.0693 139.182 49.5197C138 53.695 136.819 57.8703 135.637 62.0456C134.615 65.6571 133.594 69.2685 132.572 72.88C132.234 74.0715 131.897 75.263 131.56 76.4545C131.455 76.8262 131.35 77.198 131.245 77.5697C131.193 77.7521 131.094 77.9664 131.079 78.1562C131.077 78.181 131.064 78.2082 131.057 78.2324L131.307 77.9827C129.505 78.2253 127.703 78.468 125.901 78.7106C121.608 79.2886 117.316 79.8667 113.024 80.4447C107.837 81.1432 102.649 81.8417 97.462 82.5402C92.9642 83.1459 88.4663 83.7516 83.9685 84.3572L79.5136 84.9571C78.8387 85.048 78.0771 85.0568 77.4191 85.2392C77.3908 85.247 77.3584 85.2473 77.3292 85.2513L77.677 85.3432C76.6529 84.3547 75.6288 83.3661 74.6047 82.3776C72.1457 80.0041 69.6867 77.6305 67.2277 75.2569C64.265 72.3971 61.3023 69.5373 58.3395 66.6775C55.7671 64.1944 53.1947 61.7113 50.6222 59.2283C49.7765 58.4119 48.9307 57.5955 48.085 56.7791C47.6823 56.3905 47.2946 55.9686 46.8687 55.6051C46.8501 55.5892 46.8332 55.5709 46.8156 55.5539C46.4845 55.2342 45.9782 55.7392 46.31 56.0595Z" fill="black"/>
  <path d="M59.6153 18.5669C61.0217 18.74 62.4901 18.3458 63.6211 17.4922C63.775 17.3761 63.855 17.1837 63.7494 17.0031C63.6607 16.8516 63.4153 16.7579 63.2603 16.8749C62.2132 17.6651 60.9172 18.0122 59.6153 17.8519C59.4234 17.8283 59.2578 18.0331 59.2578 18.2094C59.2578 18.4223 59.4228 18.5432 59.6153 18.5669Z" fill="black"/>
  <path d="M66.768 41.338C67.3099 40.1825 68.6261 39.6038 69.7752 39.2303C71.0727 38.8086 72.5297 38.7355 73.6753 39.5827C74.0456 39.8565 74.4025 39.2363 74.0362 38.9654C72.7491 38.0136 71.0451 38.0663 69.5852 38.5409C68.2683 38.9689 66.7714 39.6537 66.1507 40.9772C65.9565 41.3913 66.5726 41.7547 66.768 41.338Z" fill="black"/>
  <path d="M69.6131 45.5762C70.7034 44.5633 72.336 44.2988 73.7052 44.8574C73.884 44.9304 74.0981 44.7782 74.1449 44.6078C74.2012 44.403 74.0747 44.2413 73.8953 44.168C72.2915 43.5137 70.3696 43.8982 69.1076 45.0706C68.7697 45.3845 69.2762 45.8892 69.6131 45.5762Z" fill="black"/>
  <path d="M59.5576 48.3024C59.7312 48.5272 59.633 48.9213 59.5468 49.1579C59.4389 49.4538 59.2637 49.6808 58.9899 49.8342C58.2069 50.2728 57.2808 50.4465 56.39 50.4416C55.9908 50.4394 55.4738 50.4255 55.2421 50.0413C55.0645 49.7467 55.0821 49.3415 55.2227 49.0354C55.493 48.4469 56.1813 48.1713 56.7664 48.0144C57.1961 47.8991 57.6359 47.8306 58.0818 47.8439C58.5452 47.8578 59.2219 47.9458 59.5576 48.3024C59.8736 48.6381 60.3785 48.1319 60.0632 47.7969C59.6555 47.3638 58.9575 47.2137 58.3901 47.1509C57.8334 47.0893 57.2688 47.1573 56.7261 47.287C55.8994 47.4845 54.9768 47.888 54.5925 48.7011C54.3764 49.1583 54.3335 49.7074 54.5208 50.1817C54.7568 50.7796 55.2997 51.0595 55.9121 51.1306C57.0338 51.2608 58.2856 51.0231 59.2799 50.4904C60.1761 50.0102 60.742 48.6755 60.0632 47.7969C59.9442 47.6429 59.6831 47.6741 59.5576 47.7969C59.4052 47.9461 59.4402 48.1505 59.5576 48.3024Z" fill="black"/>
  <path d="M57.0942 49.0298C57.2361 49.6689 56.9971 50.6496 56.1923 50.6203C55.383 50.5909 54.6741 50.0702 54.9715 49.1892C55.0712 48.8938 55.2656 48.6313 55.519 48.4498C55.9236 48.1599 56.5576 48.1094 56.8864 48.541C56.9945 48.683 57.0555 48.8556 57.0942 49.0298Z" fill="black"/>
  <path d="M56.7467 49.1254C56.7514 49.1475 56.756 49.1696 56.7599 49.1919C56.7734 49.2689 56.7448 49.2062 56.7605 49.1886C56.749 49.2016 56.7705 49.3103 56.7713 49.3316C56.7728 49.3723 56.7728 49.4131 56.7716 49.4538C56.7703 49.4995 56.7796 49.5859 56.7584 49.6267L56.7644 49.581C56.7619 49.5974 56.7592 49.6137 56.7563 49.63C56.7519 49.6545 56.747 49.6788 56.7415 49.703C56.7325 49.7431 56.722 49.7828 56.71 49.8221C56.7028 49.8454 56.6951 49.8686 56.6868 49.8916L56.6783 49.9143C56.6639 49.9506 56.6667 49.9444 56.6868 49.8958C56.6932 49.9271 56.6264 50.0152 56.6097 50.0421C56.6071 50.0462 56.5731 50.101 56.571 50.1C56.569 50.099 56.6295 50.0317 56.5847 50.082C56.5543 50.1162 56.5226 50.1474 56.4899 50.1794C56.4343 50.2339 56.5575 50.1382 56.4911 50.1789C56.4718 50.1908 56.4533 50.2037 56.4335 50.2149C56.4295 50.2172 56.3723 50.2459 56.3723 50.2457C56.3703 50.2389 56.4565 50.2161 56.3702 50.2424C56.347 50.2494 56.3234 50.2537 56.3001 50.26C56.2199 50.2818 56.3813 50.259 56.2958 50.2612C56.2406 50.2626 56.1865 50.264 56.1312 50.2603C56.105 50.2586 55.9648 50.2349 56.0542 50.254C55.9896 50.2402 55.9249 50.2302 55.861 50.2127C55.8078 50.1982 55.7563 50.1798 55.7043 50.1615C55.6232 50.1331 55.747 50.1892 55.7029 50.1609C55.6848 50.1493 55.6624 50.1418 55.6433 50.1319C55.5971 50.108 55.5522 50.0815 55.5092 50.0522C55.4926 50.0409 55.431 49.9861 55.5001 50.0474C55.4751 50.0252 55.4495 50.0041 55.4257 49.9805C55.4089 49.9639 55.3269 49.8602 55.3845 49.9415C55.356 49.9014 55.3292 49.8609 55.3066 49.8171C55.2956 49.7959 55.2745 49.7241 55.3024 49.8124C55.2948 49.7885 55.2856 49.7654 55.2788 49.7412C55.273 49.7208 55.2691 49.6999 55.2637 49.6794C55.2398 49.5897 55.2615 49.7312 55.2599 49.658C55.2587 49.6022 55.2586 49.5479 55.2609 49.4921C55.2649 49.3986 55.2414 49.5641 55.2644 49.47C55.2718 49.4397 55.2771 49.409 55.2851 49.3787C55.2994 49.3248 55.3167 49.2715 55.3372 49.2196C55.3112 49.2855 55.3557 49.1822 55.3575 49.1785C55.3783 49.1373 55.4009 49.097 55.4253 49.0578C55.4818 48.9673 55.5268 48.91 55.6345 48.8118C55.6364 48.8101 55.7229 48.7368 55.6687 48.7793C55.6923 48.7608 55.7174 48.7439 55.7425 48.7276C55.7975 48.6921 55.8555 48.6611 55.9156 48.635C55.9032 48.6404 55.8472 48.6591 55.9091 48.6398C55.9452 48.6285 55.9807 48.616 56.0174 48.6066C56.0449 48.5995 56.0727 48.5947 56.1002 48.5884C56.1411 48.5817 56.1373 48.5819 56.0888 48.589C56.1074 48.5869 56.126 48.5854 56.1447 48.5843C56.2006 48.5811 56.2556 48.5839 56.3113 48.5878C56.2178 48.5812 56.305 48.5882 56.3248 48.5926C56.3606 48.6007 56.3948 48.6122 56.4298 48.6231C56.5124 48.6488 56.3716 48.5845 56.4446 48.6311C56.4758 48.651 56.5082 48.668 56.5387 48.6892C56.4757 48.6454 56.528 48.6808 56.5425 48.6963C56.5657 48.7213 56.5908 48.7439 56.6122 48.7707C56.5649 48.7116 56.6313 48.8052 56.6343 48.8105C56.6411 48.8218 56.6975 48.9393 56.6754 48.8853C56.707 48.9625 56.728 49.0443 56.7467 49.1254C56.7888 49.3077 57.008 49.4326 57.1864 49.3749C57.377 49.3132 57.4812 49.1305 57.4361 48.9351C57.3524 48.573 57.1699 48.2283 56.8415 48.034C56.5523 47.8628 56.2061 47.8373 55.8825 47.9044C55.22 48.0417 54.6705 48.6628 54.5675 49.3244C54.5182 49.6411 54.5522 49.9649 54.7256 50.2417C54.8744 50.4792 55.0994 50.6687 55.3541 50.7838C55.8936 51.0275 56.5969 51.0983 57.0446 50.6382C57.4688 50.2023 57.5588 49.509 57.4361 48.9351C57.3969 48.752 57.1727 48.6284 56.9963 48.6855C56.8033 48.748 56.7047 48.9292 56.7467 49.1254Z" fill="black"/>
  <path d="M42.0467 69.0188C36.4141 67.7459 31.8136 62.1601 32.0985 56.3087C32.2805 52.5717 34.126 49.1246 37.7833 47.7696C40.2955 46.8389 43.2411 47.1722 45.4818 48.6409C48.1649 50.3995 49.6591 53.5273 50.3631 56.6573C50.8582 58.8587 51.023 61.1749 50.4748 63.3637C49.8397 65.8998 48.1014 68.7838 45.2954 69.2472C44.7895 69.3308 44.2725 69.2998 43.7607 69.267C43.1817 69.2299 42.609 69.1458 42.0467 69.0188Z" fill="#3E50F7"/>
  <path d="M44.8516 67.6636C46.6378 70.312 48.1862 73.1207 49.4718 76.045C49.8462 76.8966 50.4809 78.29 51.6858 77.6636C52.9272 77.0182 51.7483 75.163 51.3852 74.3178C50.1081 71.3454 48.7427 68.4105 47.2478 65.541" fill="#3E50F7"/>
  <path d="M46.0098 72.5566C46.9525 72.8639 47.9435 73.0215 48.9349 73.0256C49.7331 73.029 50.7447 72.6624 51.5096 72.779C51.6851 72.8057 51.8371 72.9187 51.9537 73.0525C52.4436 73.6146 52.3042 74.6016 51.6777 75.006C53.1764 74.3607 53.742 76.3361 53.0391 77.3365C53.5471 77.3448 54.0359 77.6736 54.2352 78.141C54.4344 78.6084 54.3331 79.1887 53.9873 79.561C54.5457 79.7809 54.8925 80.4048 54.8562 81.0039C54.7397 82.9255 51.6566 83.6859 50.1618 83.2492" fill="white"/>
  <path d="M45.9146 72.8995C46.6366 73.13 47.3799 73.2785 48.135 73.3446C48.8358 73.406 49.4898 73.3486 50.1801 73.2287C50.6701 73.1435 51.5062 72.8855 51.7904 73.4438C51.9996 73.8546 51.8816 74.4287 51.4972 74.6955C51.1902 74.9085 51.3714 75.512 51.7726 75.3488C52.2487 75.1553 52.6745 75.2349 52.8788 75.7433C53.0626 76.2009 53.0036 76.7475 52.7303 77.1543C52.5704 77.3922 52.7859 77.6792 53.039 77.6922C53.8481 77.7335 54.2693 78.6864 53.7344 79.3063C53.6011 79.4609 53.5798 79.7689 53.8068 79.8678C54.4221 80.1359 54.6485 80.8367 54.3942 81.443C54.1978 81.9112 53.7741 82.2413 53.3389 82.4748C52.4482 82.9528 51.2443 83.1793 50.2567 82.9027C49.8129 82.7783 49.6235 83.4679 50.0666 83.5921C51.3245 83.9444 52.9024 83.6353 53.9839 82.9235C54.5287 82.5649 55.0002 82.0526 55.1555 81.4033C55.3566 80.5618 54.9877 79.6078 54.1676 79.2505L54.2399 79.8119C54.6823 79.2991 54.8286 78.5874 54.5437 77.9587C54.2753 77.3666 53.6759 77.0098 53.0389 76.9772L53.3476 77.5151C53.7689 76.888 53.8035 76.0221 53.4804 75.3461C53.1254 74.6037 52.3266 74.3569 51.5825 74.6595L51.858 75.3128C52.9806 74.5338 52.8173 72.4369 51.246 72.3975C50.4656 72.378 49.7129 72.6599 48.9347 72.6663C47.9744 72.6743 47.0172 72.5014 46.1046 72.2101C45.6653 72.0699 45.4773 72.7599 45.9146 72.8995Z" fill="black"/>
  <path d="M59.4708 86.2688C59.8635 90.2586 59.9218 94.2762 59.6451 98.2757C59.6133 98.7349 60.3284 98.7329 60.36 98.2757C60.6368 94.2762 60.5784 90.2586 60.1857 86.2688C60.1411 85.8151 59.4257 85.8104 59.4708 86.2688Z" fill="black"/>
  <path d="M51.607 72.2473C51.5153 72.1931 51.4511 72.1284 51.3918 72.0307C51.3726 71.999 51.3549 71.9666 51.3384 71.9334C51.3315 71.9195 51.3043 71.8568 51.3217 71.8998C51.2939 71.8312 51.2725 71.7594 51.2546 71.6876C51.216 71.5323 51.2042 71.4113 51.2131 71.2422C51.2165 71.1781 51.2218 71.1342 51.2402 71.0585C51.2505 71.0162 51.2633 70.9751 51.2766 70.9337C51.3137 70.8187 51.2509 70.9712 51.2979 70.8796C51.3281 70.8207 51.36 70.7639 51.3975 70.7094C51.4118 70.6896 51.4111 70.6898 51.3953 70.71C51.4065 70.696 51.4181 70.6824 51.4302 70.6691C51.4499 70.6469 51.4704 70.6252 51.4918 70.6045C51.5172 70.58 51.5436 70.555 51.5721 70.5339C51.5243 70.5694 51.616 70.5087 51.6162 70.5086C51.6465 70.4903 51.6781 70.4732 51.7103 70.4586C51.6531 70.4846 51.7628 70.4427 51.7657 70.4419C51.9018 70.4024 52.0277 70.4021 52.1854 70.4214C52.3114 70.4367 52.5042 70.4862 52.6524 70.5247C52.8391 70.5732 53.0404 70.4631 53.0921 70.275C53.1428 70.0904 53.03 69.884 52.8424 69.8353C52.41 69.723 51.9355 69.6185 51.5004 69.7775C51.1332 69.9118 50.829 70.1959 50.6655 70.5512C50.3214 71.2986 50.4949 72.4207 51.2462 72.8646C51.6432 73.0992 52.0033 72.4814 51.607 72.2473Z" fill="black"/>
  <path d="M127.422 57.4151C133.105 60.3933 138.455 64.0071 143.34 68.1675C143.632 68.416 143.931 68.6786 144.085 69.0296C144.229 69.358 144.231 69.7289 144.228 70.0875C144.18 77.0814 143.63 84.12 144.55 91.0825C144.789 92.8909 145.123 94.6858 145.647 96.425C146.199 98.2536 146.448 100.234 146.933 102.097C147.216 103.184 147.504 104.282 148.037 105.27C148.155 105.491 148.294 105.713 148.509 105.841C150.051 106.766 150.093 103.969 150.238 103.252C150.971 104.659 151.935 106.127 153.456 106.577C153.588 106.615 153.729 106.646 153.86 106.607C154.084 106.542 154.206 106.305 154.277 106.083C154.503 105.382 154.471 104.602 154.19 103.921C154.505 104.333 154.904 104.699 155.392 104.874C155.881 105.048 156.467 105.002 156.864 104.669C157.198 104.388 157.36 103.94 157.365 103.504C157.37 103.068 157.233 102.642 157.052 102.245C157.434 102.713 157.893 103.222 158.497 103.24C158.961 103.253 159.407 102.935 159.573 102.502C159.739 102.069 159.632 101.552 159.331 101.199C159.639 101.561 160.195 101.652 160.637 101.476C161.078 101.299 161.402 100.896 161.562 100.448C161.735 99.9663 161.732 99.4235 161.555 98.9429C161.337 98.3508 160.879 97.884 160.434 97.4365C160.036 97.0357 159.637 96.6343 159.205 96.2701C158.616 95.7741 157.966 95.3468 157.434 94.79C156.206 93.5037 156.631 92.0487 156.814 90.4425C157.012 88.6974 157.263 86.9589 157.513 85.2205C158.012 81.7535 158.508 78.2748 158.576 74.7672C158.608 73.1326 158.546 71.4954 158.358 69.8708C157.605 63.3511 155.223 56.9412 151.035 51.8883C146.478 46.3905 140.081 42.7709 133.661 39.6445" fill="white"/>
  <path d="M127.244 57.7255C131.056 59.7265 134.719 62.0072 138.192 64.5509C139.911 65.8094 141.606 67.1203 143.209 68.5247C143.644 68.9065 143.86 69.2559 143.872 69.8489C143.884 70.4093 143.865 70.9719 143.856 71.5323C143.838 72.6925 143.81 73.8526 143.781 75.0126C143.666 79.6497 143.532 84.3014 143.955 88.9278C144.158 91.1522 144.469 93.3811 145.031 95.5455C145.308 96.6105 145.624 97.6566 145.848 98.7353C146.072 99.8093 146.264 100.89 146.53 101.955C146.784 102.978 147.057 104.005 147.491 104.968C147.797 105.645 148.265 106.423 149.118 106.385C150.254 106.334 150.406 104.703 150.513 103.865C150.538 103.672 150.551 103.525 150.585 103.348L149.932 103.434C150.602 104.715 151.459 106.082 152.82 106.715C153.487 107.024 154.221 107.148 154.56 106.346C154.892 105.559 154.844 104.612 154.537 103.828L153.939 104.176C154.605 105.025 155.738 105.68 156.805 105.137C157.979 104.539 157.807 103.07 157.363 102.066L156.801 102.5C157.397 103.224 158.285 103.961 159.251 103.397C160.157 102.869 160.19 101.715 159.586 100.948L159.08 101.453C159.879 102.302 161.17 101.888 161.711 100.976C162.38 99.8465 161.965 98.5861 161.154 97.6711C160.288 96.6944 159.282 95.9122 158.283 95.0844C157.833 94.711 157.387 94.2965 157.158 93.7451C156.956 93.259 156.932 92.7294 156.964 92.2106C157.042 90.9467 157.258 89.673 157.425 88.4181C157.617 86.9709 157.832 85.5269 158.037 84.0816C158.438 81.2534 158.808 78.4146 158.913 75.5576C159.107 70.3061 158.251 65.0142 156.29 60.1311C154.448 55.5448 151.628 51.4665 147.934 48.177C144.223 44.8714 139.886 42.3623 135.463 40.1387C134.925 39.868 134.385 39.6015 133.843 39.3375C133.431 39.1368 133.068 39.7531 133.482 39.9549C137.763 42.0411 142.009 44.3117 145.755 47.2777C147.616 48.7517 149.347 50.3949 150.857 52.23C152.367 54.0662 153.637 56.099 154.675 58.2362C156.815 62.6398 158.008 67.5607 158.199 72.4494C158.417 78.0169 157.338 83.509 156.633 89.0058C156.549 89.6601 156.48 90.3163 156.391 90.9699C156.323 91.4774 156.245 91.9868 156.238 92.4999C156.222 93.6003 156.623 94.5378 157.43 95.2869C157.882 95.7065 158.39 96.0588 158.865 96.4506C159.36 96.8585 159.813 97.3144 160.262 97.7701C160.673 98.1856 161.106 98.6306 161.266 99.2085C161.424 99.7771 161.311 100.451 160.889 100.882C160.534 101.245 159.957 101.343 159.586 100.948C159.263 100.604 158.803 101.102 159.08 101.453C159.444 101.915 159.333 102.674 158.722 102.854C158.126 103.029 157.635 102.394 157.307 101.994C157.028 101.655 156.595 102.088 156.745 102.427C157.042 103.098 157.246 104.236 156.352 104.556C155.584 104.831 154.884 104.231 154.445 103.67C154.228 103.393 153.72 103.694 153.847 104.018C154.091 104.641 154.162 105.348 153.934 105.99C153.905 106.074 153.86 106.226 153.768 106.264C153.652 106.312 153.427 106.196 153.32 106.155C153.064 106.056 152.821 105.917 152.597 105.758C151.669 105.101 151.066 104.06 150.549 103.073C150.412 102.811 149.954 102.857 149.896 103.158C149.811 103.594 149.787 104.04 149.703 104.476C149.636 104.824 149.545 105.436 149.212 105.632C149.075 105.713 148.874 105.647 148.723 105.553C148.326 105.306 148.12 104.664 147.959 104.25C147.587 103.294 147.334 102.284 147.104 101.285C146.863 100.235 146.677 99.173 146.447 98.1202C146.221 97.0838 145.898 96.0769 145.643 95.0483C145.108 92.8929 144.814 90.6805 144.63 88.4699C144.253 83.9719 144.386 79.4532 144.498 74.9469C144.526 73.8088 144.554 72.6706 144.571 71.5323C144.58 70.9915 144.594 70.4498 144.588 69.9091C144.582 69.4181 144.506 68.944 144.209 68.5407C143.927 68.158 143.538 67.866 143.177 67.5623C142.772 67.2225 142.365 66.8865 141.955 66.5543C141.158 65.9089 140.35 65.2777 139.531 64.6603C136.191 62.1416 132.669 59.8654 129 57.8561C128.537 57.6025 128.072 57.3535 127.604 57.1081C127.197 56.8945 126.836 57.5113 127.244 57.7255Z" fill="black"/>
  <path d="M45.4177 52.3249C43.9179 49.9562 40.8525 48.6205 38.1472 49.6266C36.063 50.4018 34.8268 52.3836 34.4217 54.4982C34.2114 55.596 34.1979 56.717 34.3613 57.8217C34.5319 58.9742 34.9524 60.0495 35.489 61.079C36.7577 63.5128 38.7416 65.8194 41.2996 66.9352C42.7364 67.562 44.3548 67.7842 45.8917 67.4124C47.5866 67.0023 48.4099 65.437 48.6714 63.8275C48.7446 63.3774 48.0557 63.1837 47.982 63.6374C47.7776 64.895 47.2333 66.2745 45.9003 66.6701C44.661 67.038 43.2872 66.9089 42.082 66.4817C39.683 65.6313 37.796 63.6032 36.5215 61.4622C35.9563 60.5128 35.4628 59.4984 35.2032 58.4199C34.9718 57.4585 34.9109 56.4589 35.0003 55.4747C35.1695 53.6134 35.972 51.6439 37.6408 50.6532C40.1122 49.1861 43.3284 50.3611 44.8004 52.6858C45.0458 53.0735 45.6648 52.7151 45.4177 52.3249Z" fill="black"/>
  <path d="M46.2542 55.1283C46.9486 56.3965 47.4463 57.7561 47.7429 59.1711C47.8372 59.6211 48.5265 59.4307 48.4323 58.981C48.1235 57.5082 47.5941 56.0872 46.8715 54.7674C46.6505 54.3637 46.0329 54.7241 46.2542 55.1283Z" fill="black"/>
  <path d="M36.6642 57.2665C36.3478 57.0072 36.3155 55.9759 36.3071 55.6981C36.2873 55.043 36.3906 54.3884 36.5716 53.76C36.6971 53.3243 37.1574 52.8486 37.4862 52.5494C37.7706 52.2906 38.1877 52.0062 38.583 52.1951C38.6578 52.2309 38.7165 52.2945 38.7594 52.3655C38.9183 52.6279 38.8643 52.9739 38.7173 53.2433C38.5704 53.5125 38.3436 53.7276 38.1422 53.959C37.976 54.15 37.8257 54.3546 37.6927 54.5701C37.3728 55.0886 37.161 55.6636 37.056 56.2632C37.0126 56.5116 37.0466 56.7256 37.0605 56.9729C37.0702 57.1437 37.0508 57.309 36.8423 57.3253C36.7747 57.3306 36.7156 57.3088 36.6642 57.2665Z" fill="white"/>
  <path d="M36.9172 57.0126C36.7874 56.8932 36.7487 56.6111 36.72 56.4234C36.6863 56.2036 36.6742 55.9796 36.6668 55.7575C36.6536 55.3596 36.6776 54.9625 36.7483 54.5705C36.8175 54.1872 36.8903 53.8009 37.1154 53.4763C37.3026 53.2064 37.5477 52.9609 37.7979 52.749C37.9688 52.6043 38.4542 52.2818 38.4974 52.6968C38.5337 53.0462 38.2125 53.3464 38.0015 53.58C37.7227 53.8886 37.4705 54.2207 37.2696 54.5855C37.0508 54.983 36.8832 55.4136 36.7768 55.8546C36.7234 56.0755 36.6779 56.3025 36.6775 56.5305C36.6772 56.6474 36.6898 56.7639 36.6974 56.8804C36.6996 56.9145 36.6925 56.9715 36.7043 57.0034C36.7047 57.018 36.7051 57.0325 36.7058 57.0471C36.7053 57.1147 36.7517 57.0845 36.8449 56.9567C36.4581 56.705 36.0993 57.3238 36.484 57.574C36.9274 57.8624 37.4133 57.5286 37.4202 57.0352C37.4239 56.7746 37.3728 56.5274 37.4176 56.2672C37.4636 55.9996 37.5435 55.7339 37.6388 55.48C37.8333 54.9616 38.1374 54.4952 38.507 54.0855C38.8433 53.7129 39.1771 53.3253 39.2109 52.8006C39.243 52.3001 38.9379 51.8434 38.4244 51.7849C37.9283 51.7284 37.5001 52.0444 37.1576 52.3659C36.8163 52.6862 36.4769 53.0536 36.2925 53.4894C36.0763 54.0001 35.9982 54.6074 35.9608 55.1571C35.9328 55.5688 35.9493 55.9873 36.0004 56.3968C36.048 56.7785 36.1125 57.2428 36.4117 57.5181C36.7498 57.8293 37.2567 57.3249 36.9172 57.0126Z" fill="white"/>
  <path d="M10.3995 54.2777C16.1833 53.2528 21.9844 52.3172 27.8013 51.5002C29.2474 51.2971 30.6946 51.1026 32.1434 50.92C32.3364 50.8957 32.4986 50.7731 32.5008 50.5625C32.5027 50.388 32.3349 50.1809 32.1434 50.2051C26.488 50.9178 20.8514 51.7848 15.2295 52.7242C13.5548 53.004 11.8814 53.292 10.2094 53.5882C9.75718 53.6684 9.94887 54.3575 10.3995 54.2777Z" fill="black"/>
  <path d="M0.996148 56.058C2.50608 55.7494 4.0187 55.454 5.53296 55.1674C5.9845 55.0819 5.79329 54.3928 5.3429 54.478C3.82862 54.7646 2.31602 55.06 0.806089 55.3686C0.355628 55.4607 0.546287 56.1499 0.996148 56.058Z" fill="black"/>
  <path d="M11.7612 103.236C10.6266 104.392 9.48605 105.543 8.33967 106.688C8.01368 107.013 8.51912 107.519 8.8452 107.193C9.99156 106.048 11.1321 104.898 12.2668 103.741C12.5893 103.413 12.0841 102.907 11.7612 103.236Z" fill="black"/>
  <path d="M41.3523 70.0789C38.1544 74.0214 34.8936 77.9129 31.5702 81.7504C28.2469 85.5878 24.8615 89.3714 21.4158 93.0994C19.4842 95.1894 17.5333 97.2615 15.5643 99.3163C15.2459 99.6485 15.7507 100.155 16.0698 99.8218C19.5821 96.1565 23.0359 92.4353 26.4283 88.6588C29.8207 84.8823 33.1519 81.0508 36.4204 77.1666C38.2528 74.9891 40.065 72.7947 41.8578 70.5844C42.1452 70.2301 41.6424 69.7213 41.3523 70.0789Z" fill="black"/>
  <path d="M24.4978 66.6742C26.2946 66.1485 28.0913 65.6228 29.8881 65.0972C30.3288 64.9682 30.1412 64.2781 29.698 64.4077C27.9013 64.9334 26.1045 65.4591 24.3078 65.9848C23.8671 66.1137 24.0546 66.8039 24.4978 66.6742Z" fill="black"/>
  <path d="M29.2199 44.4774C29.9821 44.8808 30.7442 45.2841 31.5064 45.6875C31.6715 45.7749 31.9027 45.7348 31.9954 45.5593C32.0828 45.3939 32.0437 45.1636 31.8672 45.0702C31.1051 44.6668 30.3429 44.2634 29.5808 43.8601C29.4156 43.7726 29.1844 43.8127 29.0917 43.9883C29.0043 44.1536 29.0434 44.384 29.2199 44.4774Z" fill="black"/>
  <path d="M41.1628 77.8425L40.6304 79.8613C40.5828 80.0419 40.6904 80.2578 40.88 80.301C41.0673 80.3437 41.2688 80.2448 41.3198 80.0514L41.8522 78.0325C41.8998 77.8519 41.7921 77.636 41.6025 77.5928C41.4153 77.5502 41.2138 77.649 41.1628 77.8425Z" fill="black"/>
  <path d="M61.6801 7.40584C62.5414 8.08299 63.6425 8.42457 64.737 8.28271C64.9285 8.2579 65.0945 8.13616 65.0945 7.92523C65.0945 7.75135 64.9299 7.54277 64.737 7.56775C63.841 7.68387 62.9062 7.46684 62.1857 6.90028C62.0341 6.78106 61.8281 6.75234 61.6802 6.90028C61.5562 7.02422 61.5275 7.28585 61.6801 7.40584Z" fill="black"/>
  <path d="M56.9287 12.5086C57.6707 12.8821 58.5576 12.9504 59.3378 12.6498C59.5117 12.5828 59.651 12.4064 59.5875 12.2101C59.5326 12.0407 59.3345 11.8884 59.1477 11.9604C58.9785 12.0256 58.8056 12.0721 58.627 12.1031C58.5131 12.1228 58.6941 12.0983 58.5791 12.1096C58.5312 12.1143 58.4833 12.1185 58.4353 12.121C58.3512 12.1254 58.2669 12.1259 58.1828 12.1223C58.1407 12.1205 58.0987 12.1176 58.0568 12.1139C58.0433 12.1127 57.9257 12.0973 57.9906 12.1072C57.9074 12.0946 57.8248 12.078 57.7432 12.0575C57.6616 12.0369 57.581 12.0125 57.5018 11.9841C57.49 11.9799 57.3679 11.9307 57.4198 11.9533C57.3757 11.9341 57.3325 11.9129 57.2895 11.8913C57.1227 11.8073 56.8944 11.8416 56.8004 12.0196C56.7146 12.182 56.7503 12.4189 56.9287 12.5086Z" fill="black"/>
  <path d="M106.902 85.8508C109.18 87.9816 112.374 89.0543 115.478 88.78C116.372 88.701 117.251 88.5171 118.098 88.2191C118.529 88.0674 118.343 87.3764 117.908 87.5297C114.341 88.7849 110.173 87.9324 107.407 85.3453C107.072 85.0312 106.565 85.5357 106.902 85.8508Z" fill="black"/>
  <path d="M111.969 88.6816C113.919 94.6107 116.366 100.376 119.275 105.899C122.177 111.409 125.539 116.677 129.315 121.63C131.44 124.416 133.692 127.104 136.068 129.679C136.381 130.018 136.885 129.511 136.574 129.174C132.37 124.618 128.553 119.712 125.169 114.519C121.806 109.358 118.867 103.921 116.396 98.2789C114.995 95.0786 113.75 91.8103 112.658 88.4916C112.515 88.0565 111.825 88.2428 111.969 88.6816Z" fill="black"/>
  <path d="M84.6234 133.03C85.9225 127.824 87.393 122.661 89.0348 117.552C90.6767 112.444 92.4886 107.39 94.4667 102.403C95.5777 99.6015 96.7419 96.8216 97.9575 94.0641C98.1414 93.647 97.5255 93.2827 97.3402 93.7033C95.1633 98.6414 93.1478 103.65 91.3036 108.722C89.47 113.765 87.8043 118.868 86.3104 124.022C85.4627 126.946 84.6711 129.886 83.934 132.84C83.8226 133.286 84.5119 133.477 84.6234 133.03Z" fill="black"/>
  <path d="M37.4673 144.927C36.0258 144.166 34.8909 142.866 34.3406 141.329C34.0709 140.575 33.8392 139.642 34.0108 138.843C34.1825 138.044 34.926 137.693 35.6924 137.728C36.7035 137.775 37.5419 138.537 38.2552 139.176C38.5454 139.437 39.0424 139.103 38.8166 138.743C37.5973 136.802 37.7856 134.185 39.124 132.35C39.4511 131.902 39.8655 131.478 40.3373 131.182C40.7987 130.893 41.5527 130.594 42.0033 131.06C42.2344 131.299 42.3248 131.654 42.4258 131.962C42.5538 132.351 42.6695 132.745 42.7732 133.141C42.9712 133.898 43.1256 134.666 43.2342 135.441C43.4831 137.217 43.4784 139.028 43.2495 140.806C43.1946 141.233 43.8209 141.248 43.9517 140.901C44.2871 140.01 44.6916 139.09 45.4206 138.448C46.0064 137.933 46.9008 137.668 47.6514 137.962C48.5333 138.306 48.7213 139.386 48.6041 140.224C48.4795 141.115 47.9951 141.964 47.2741 142.505L47.7632 142.994C48.5735 141.774 50.4575 142.128 51.4926 142.812C52.0842 143.204 52.6116 143.836 52.6078 144.579C52.6047 145.205 52.2526 145.849 51.6181 146.008L51.9659 146.606C52.6697 145.807 54.3642 146.211 54.4997 147.329C54.5544 147.78 55.27 147.785 55.2147 147.329C55.0108 145.647 52.6227 144.781 51.4603 146.1C51.228 146.364 51.4496 146.788 51.8081 146.698C53.2715 146.33 53.6653 144.495 52.9596 143.313C52.2027 142.044 50.5433 141.338 49.0997 141.507C48.3063 141.6 47.5946 141.958 47.1459 142.633C46.9561 142.919 47.3464 143.339 47.635 143.122C49.0397 142.067 49.8438 140.015 49.044 138.349C48.2454 136.685 46.0137 136.918 44.8448 138.007C44.0669 138.731 43.6301 139.734 43.2623 140.711L43.9645 140.806C44.1932 139.029 44.1882 137.232 43.9517 135.457C43.8343 134.575 43.6639 133.702 43.434 132.843C43.3281 132.447 43.2102 132.054 43.0801 131.666C42.9481 131.271 42.8049 130.859 42.5088 130.555C41.4386 129.453 39.7729 130.546 38.9685 131.421C38.0891 132.377 37.5373 133.609 37.3568 134.892C37.1521 136.346 37.4133 137.853 38.1994 139.104L38.7608 138.671C37.9899 137.98 37.1279 137.227 36.0698 137.055C35.2038 136.914 34.2287 137.139 33.6779 137.866C33.0611 138.68 33.2156 139.865 33.4364 140.796C33.6582 141.73 34.0767 142.628 34.6458 143.402C35.2991 144.289 36.13 145.029 37.1065 145.544C37.5131 145.759 37.8748 145.142 37.4673 144.927Z" fill="black"/>
  <path d="M161.6 144.875C161.023 144.127 160.617 143.275 160.414 142.352C160.232 141.527 160.18 140.597 160.458 139.787C160.692 139.103 161.301 138.484 162.059 138.88C162.93 139.335 163.061 140.439 163.179 141.31L163.868 141.12C163.589 139.522 164.382 137.789 165.762 136.942C166.069 136.753 166.557 136.451 166.733 136.926C166.902 137.383 166.924 137.939 166.928 138.42C166.936 139.436 166.714 140.444 166.275 141.36C166.131 141.661 166.367 141.929 166.679 141.885C167.305 141.797 167.908 141.516 168.544 141.5C169.065 141.486 169.564 141.701 169.928 142.071C170.688 142.844 170.547 144.086 169.748 144.771L170.254 145.276C170.633 144.828 171.247 144.61 171.816 144.808C172.377 145.003 172.734 145.572 172.735 146.152C172.736 146.612 173.451 146.613 173.45 146.152C173.448 145.277 172.91 144.464 172.088 144.148C171.276 143.838 170.304 144.114 169.748 144.771C169.45 145.122 169.902 145.577 170.254 145.276C171.304 144.375 171.443 142.748 170.549 141.693C170.119 141.184 169.482 140.857 168.82 140.795C168.02 140.72 167.268 141.086 166.489 141.196L166.893 141.721C167.32 140.83 167.574 139.876 167.631 138.888C167.659 138.405 167.634 137.923 167.566 137.444C167.507 137.027 167.443 136.533 167.13 136.22C166.476 135.566 165.48 136.219 164.915 136.671C164.285 137.176 163.799 137.852 163.486 138.594C163.123 139.457 163.018 140.388 163.179 141.31C163.259 141.769 163.928 141.564 163.868 141.12C163.749 140.238 163.59 139.292 162.927 138.641C162.359 138.083 161.51 137.846 160.785 138.242C159.375 139.012 159.431 141.161 159.714 142.493C159.925 143.487 160.363 144.432 160.982 145.236C161.101 145.39 161.288 145.468 161.472 145.364C161.623 145.278 161.717 145.028 161.6 144.875Z" fill="black"/>
  <path d="M55.481 44.1424C55.8991 43.5162 56.4465 42.9835 57.0878 42.5881C57.7049 42.2076 58.5082 41.8292 59.2501 41.9561C60.735 42.21 61.4288 44.0763 61.714 45.3477C62.0646 46.9108 62.0143 48.5301 62.0998 50.1207C62.1431 50.9244 62.194 51.756 62.3903 52.5392C62.5659 53.2398 62.9406 53.9249 63.6118 54.2554C64.3281 54.608 65.1268 54.3952 65.6235 53.7835C66.2207 53.0481 66.1966 52.0911 66.1276 51.196C66.0925 50.7402 65.3773 50.7364 65.4127 51.196C65.4703 51.9438 65.5621 52.8549 64.9785 53.4345C64.4328 53.9764 63.6967 53.6429 63.3516 53.0541C62.9571 52.381 62.9141 51.4953 62.8547 50.7353C62.7932 49.9484 62.7762 49.159 62.7457 48.3705C62.6864 46.8379 62.5805 45.2656 61.9878 43.8324C61.467 42.5731 60.464 41.2108 58.9565 41.2198C58.1179 41.2248 57.2567 41.6146 56.5691 42.0718C55.8889 42.5242 55.3169 43.1029 54.8637 43.7817C54.6074 44.1654 55.2264 44.5236 55.481 44.1424Z" fill="black"/>
  <path d="M65.2721 57.7782C65.539 58.6875 66.4587 59.2062 67.3531 59.3145C68.218 59.4193 69.1196 59.157 69.8365 58.6723C71.5163 57.5362 71.9899 55.3928 71.9236 53.4816C71.9076 53.0228 71.1926 53.0207 71.2086 53.4816C71.263 55.0468 70.9701 56.8644 69.6761 57.9075C69.1188 58.3568 68.3992 58.6353 67.6799 58.6236C67.0078 58.6128 66.1683 58.2929 65.9615 57.5882C65.8322 57.1477 65.142 57.3351 65.2721 57.7782Z" fill="black"/>
  <path d="M71.1387 53.7837C71.237 53.7095 71.3398 53.6416 71.4473 53.5814C71.4943 53.5552 71.5421 53.5303 71.5906 53.5069C71.6184 53.4936 71.6465 53.4811 71.6745 53.4683C71.7099 53.453 71.7027 53.456 71.6529 53.4773C71.6671 53.4715 71.6814 53.4658 71.6958 53.4602C71.8033 53.4184 71.9136 53.3836 72.0257 53.3561C72.0855 53.3414 72.1458 53.3288 72.2064 53.3183C72.2216 53.3157 72.2368 53.3133 72.252 53.3109C72.2912 53.3052 72.2824 53.3062 72.2255 53.3141C72.2527 53.3177 72.2898 53.3067 72.3173 53.3041C72.4142 53.2949 72.4991 53.2704 72.5701 53.1994C72.6321 53.1374 72.6788 53.0357 72.6748 52.9466C72.6668 52.7681 72.5167 52.5702 72.3173 52.5892C71.7628 52.6419 71.2247 52.8289 70.7778 53.1664C70.7005 53.2248 70.6403 53.2828 70.6136 53.38C70.59 53.4656 70.6006 53.5795 70.6496 53.6555C70.7444 53.8026 70.9791 53.9043 71.1387 53.7837Z" fill="black"/>
  <path d="M125.988 16.4934C122.22 12.5613 118.453 8.62929 114.686 4.69723C113.696 3.66378 112.743 2.56658 111.703 1.58313C110.652 0.58966 108.638 0.890485 107.266 0.991568C104.623 1.18619 102.045 1.86047 99.4775 2.47684C91.5513 4.3795 83.1998 5.73609 75.3035 3.7127C72.0863 2.88837 68.9186 1.50333 65.6017 1.67081C64.0606 1.7486 62.4196 2.24904 61.5239 3.50551C60.7008 4.66022 60.8881 6.53642 62.0427 7.25964C60.5723 6.51598 58.8551 6.26648 57.2372 6.58253C55.9755 6.82905 54.6556 7.55279 54.3304 8.79663C53.7989 10.829 55.8343 11.7392 57.4143 12.3491C56.8505 12.1486 56.1894 12.3764 55.788 12.8202C55.3867 13.264 55.2227 13.8859 55.2414 14.484C55.2713 15.4429 55.805 16.6488 56.6336 17.1926C57.5066 17.7655 58.7733 18.0319 59.8256 18.1734C60.3595 18.0967 60.8887 17.9914 61.4075 17.8599C64.2504 17.139 66.8575 15.7163 69.4299 14.3075C72.2802 12.7465 75.1306 11.1855 77.9809 9.62443C77.0658 14.2949 81.1489 18.7718 85.7443 20.0098C88.6658 20.7967 91.979 20.7082 94.3583 22.5771C96.2994 24.1018 97.158 26.5908 97.9207 28.9383C97.2872 26.06 99.3304 22.9302 102.168 22.1347C105.006 21.3391 108.244 22.7945 109.743 25.3317C111.243 27.869 111.031 31.2464 109.434 33.7231C118.921 38.2 130.322 37.4785 139.551 42.4663C140.109 42.768 140.691 43.0905 141.286 43.3942C142.034 40.7488 143.674 34.9544 143.674 34.9544C141.798 32.9969 139.923 31.0393 138.048 29.0818C134.027 24.8857 130.008 20.6895 125.988 16.4934Z" fill="black"/>
  <path d="M126.24 16.2409C122.283 12.1107 118.273 8.02515 114.371 3.84273C113.956 3.39714 113.544 2.94765 113.124 2.50578C112.679 2.03709 112.234 1.51049 111.71 1.12842C110.932 0.561357 109.894 0.490799 108.964 0.51604C106.464 0.583909 103.991 1.03742 101.563 1.60809C96.244 2.85817 90.9293 4.11043 85.4453 4.32559C82.745 4.43153 80.0274 4.29812 77.3678 3.80279C74.7617 3.31743 72.2899 2.3554 69.7134 1.7573C67.3242 1.2027 64.2921 0.836797 62.168 2.37216C61.2886 3.00779 60.7133 3.92695 60.6638 5.02489C60.6188 6.0202 61.0219 7.00712 61.8623 7.56859L62.2231 6.95126C60.8197 6.25979 59.2526 5.958 57.6946 6.15131C56.4305 6.30816 55.09 6.80634 54.3484 7.9027C53.7068 8.85106 53.743 10.1133 54.4726 10.9945C55.1875 11.8579 56.3025 12.2998 57.3192 12.6941L57.5093 12.0047C56.6677 11.7534 55.7877 12.135 55.3108 12.8568C54.8387 13.5714 54.7989 14.4895 55.0024 15.2998C55.2077 16.1174 55.6634 16.9331 56.3552 17.4332C57.0908 17.9648 58.0321 18.2169 58.9107 18.386C59.3706 18.4745 59.7767 18.5459 60.2404 18.4689C60.7986 18.3762 61.3506 18.2516 61.8958 18.1001C62.944 17.8088 63.9627 17.4225 64.9588 16.9867C67.0408 16.0756 69.0185 14.9405 71.0096 13.8501C73.3935 12.5445 75.7774 11.2389 78.1613 9.93336L77.6362 9.52965C76.9177 13.3842 79.3129 16.9621 82.4766 18.9548C84.2304 20.0594 86.1573 20.5283 88.1777 20.874C90.2021 21.2203 92.3831 21.5206 94.0657 22.7999C96.0281 24.2918 96.8438 26.7835 97.576 29.0336C97.7189 29.4728 98.3585 29.294 98.2654 28.8436C97.6117 25.6825 100.23 22.4785 103.403 22.2859C106.724 22.0842 109.659 24.5522 110.272 27.767C110.651 29.752 110.199 31.8443 109.125 33.543C109.028 33.6955 109.082 33.952 109.253 34.0321C117.142 37.7303 126.039 37.8788 134.231 40.5913C135.383 40.9728 136.519 41.4049 137.624 41.9081C138.814 42.4503 139.943 43.1053 141.105 43.7031C141.31 43.8083 141.565 43.7207 141.63 43.4894C142.102 41.8224 142.574 40.1553 143.045 38.4883C143.257 37.742 143.468 36.9956 143.679 36.2493C143.787 35.8677 143.948 35.4682 144.011 35.0759C144.066 34.7342 143.777 34.5462 143.56 34.3189C143.03 33.7657 142.5 33.2124 141.97 32.6592C140.991 31.6379 140.013 30.6166 139.034 29.5953C137.026 27.4988 135.017 25.4023 133.009 23.3058C130.753 20.9508 128.496 18.5959 126.24 16.2409C125.921 15.908 125.416 16.414 125.735 16.7464C130.326 21.5383 134.916 26.3302 139.507 31.1221C140.812 32.4839 142.116 33.8457 143.421 35.2074L143.329 34.8596C142.533 37.6729 141.737 40.4861 140.941 43.2994L141.466 43.0857C139.513 42.081 137.618 41.0515 135.55 40.2946C133.53 39.5558 131.45 38.9967 129.355 38.5202C125.122 37.5575 120.817 36.9299 116.611 35.8485C114.216 35.2328 111.856 34.4656 109.614 33.4147L109.742 33.9038C111.799 30.6526 111.603 25.9999 108.579 23.3976C105.845 21.0454 101.623 20.8583 99.1262 23.6602C97.8247 25.1208 97.1757 27.098 97.576 29.0336L98.2654 28.8436C97.6433 26.9317 96.9791 24.9667 95.6887 23.3886C94.3712 21.7775 92.4768 21 90.4892 20.5727C88.4761 20.1398 86.3717 20.0019 84.4579 19.1901C82.6835 18.4374 81.0694 17.2136 79.909 15.6704C78.6291 13.9685 77.9293 11.8461 78.3256 9.71967C78.382 9.41707 78.088 9.15851 77.8005 9.31596C74.212 11.2812 70.6505 13.3099 67.021 15.1986C65.2922 16.0982 63.5122 16.917 61.6274 17.4324C61.2118 17.546 60.7921 17.6439 60.3686 17.7233C59.883 17.8143 59.5136 17.7784 59.0305 17.6826C58.2396 17.5258 57.3365 17.3123 56.6933 16.7973C56.0308 16.2667 55.6248 15.3227 55.5989 14.4842C55.5697 13.5389 56.2101 12.3629 57.3192 12.6941C57.7688 12.8283 57.9292 12.1675 57.5093 12.0047C56.6795 11.6829 55.7793 11.3266 55.1461 10.6773C54.4615 9.97539 54.4406 8.92474 55.0458 8.15525C55.7339 7.28027 56.9368 6.92611 58.0016 6.83322C59.3318 6.7172 60.6663 6.97935 61.8623 7.56859C62.2751 7.77198 62.6075 7.20806 62.2231 6.95126C61.4574 6.43965 61.2415 5.39968 61.4467 4.54447C61.689 3.53487 62.5479 2.84016 63.4774 2.46642C65.6298 1.60098 68.1533 2.07417 70.3159 2.64378C72.7746 3.29139 75.1578 4.15335 77.6727 4.58018C80.155 5.0015 82.6785 5.13418 85.1933 5.04958C90.3166 4.87721 95.3592 3.84244 100.327 2.6397C102.817 2.03673 105.281 1.51621 107.837 1.30237C108.782 1.22343 109.805 1.11375 110.721 1.42012C111.22 1.58717 111.559 1.93207 111.925 2.29745C112.375 2.74729 112.811 3.21212 113.244 3.67865C117.344 8.09261 121.567 12.3964 125.735 16.7464C126.054 17.0793 126.559 16.5733 126.24 16.2409Z" fill="black"/>
  <path d="M105.125 27.0784C104.143 27.6231 103.396 28.5787 103.119 29.6691C103.035 30.0005 102.987 30.3622 103.144 30.6803C103.28 30.9552 103.581 31.1527 103.892 31.1359C104.556 31.1 104.713 30.1308 104.073 29.9174C103.636 29.7715 103.448 30.4617 103.883 30.6068C103.796 30.5777 103.817 30.5586 103.777 30.5087L103.774 30.4784C103.773 30.5166 103.773 30.5231 103.774 30.4977C103.763 30.4729 103.804 30.4439 103.77 30.4895C103.785 30.459 103.806 30.4385 103.834 30.428C103.838 30.426 103.843 30.4244 103.847 30.4231C103.847 30.4253 103.795 30.3874 103.781 30.365C103.753 30.3199 103.753 30.238 103.754 30.1862C103.759 29.8497 103.907 29.4841 104.057 29.187C104.375 28.5561 104.868 28.0385 105.486 27.6956C105.888 27.4723 105.528 26.8547 105.125 27.0784Z" fill="black"/>
</svg>