<svg xmlns="http://www.w3.org/2000/svg" width="172" height="120" viewBox="0 0 172 120" fill="none">
  <path d="M90.3484 43.2315C78.5719 41.6492 67.7123 36.1709 56.2646 32.9868C53.5761 32.239 50.8115 31.6133 48.0235 31.7318C45.2355 31.8502 42.3917 32.7867 40.4399 34.7811C39.9684 35.2628 39.5278 35.9327 39.7513 36.5687C40.064 37.4586 41.3003 37.4765 42.2316 37.3267C42.2011 38.0622 42.2127 38.9031 42.7636 39.3914C43.3717 39.9305 44.3013 39.7584 45.1057 39.8742C45.9998 40.003 46.7855 40.5139 47.5439 41.0046C63.0526 51.0397 80.6356 57.8534 98.8567 60.8889" fill="white"/>
  <path d="M90.4405 42.8908C86.5079 42.3584 82.6506 41.3925 78.8624 40.2233C75.0372 39.0426 71.2784 37.6614 67.5111 36.3108C63.7561 34.9647 59.9866 33.6442 56.1386 32.5858C52.3866 31.5537 48.3477 30.7831 44.5347 31.9663C42.8974 32.4743 41.2988 33.3363 40.1209 34.6015C39.5547 35.2096 39.0664 36.0927 39.5157 36.9077C39.8557 37.5246 40.5858 37.7216 41.2423 37.7486C41.6048 37.7636 41.9661 37.7235 42.3238 37.6682L41.8761 37.3271C41.8439 38.1582 41.8785 39.1259 42.578 39.697C43.3036 40.2894 44.2536 40.0869 45.1087 40.2316C46.1121 40.4013 46.9684 41.0582 47.8046 41.5946C48.688 42.1613 49.5781 42.7176 50.4745 43.2634C54.0603 45.4465 57.7484 47.4613 61.5217 49.3012C65.2753 51.1315 69.1135 52.7895 73.0183 54.27C76.9438 55.7582 80.938 57.0652 84.9842 58.1844C89.0134 59.2988 93.0942 60.2271 97.2095 60.9626C97.7261 61.0549 98.2432 61.144 98.7608 61.2304C99.2061 61.3048 99.3976 60.6233 98.9489 60.5483C94.877 59.8683 90.8367 59.0029 86.8441 57.9532C82.8516 56.9036 78.9072 55.6715 75.0267 54.2632C71.1583 52.8593 67.3543 51.2796 63.6299 49.5289C59.894 47.7729 56.2381 45.8467 52.6782 43.7567C50.9014 42.7136 49.1611 41.6158 47.424 40.5087C46.5965 39.9813 45.7472 39.552 44.7528 39.4861C43.9483 39.4327 42.9383 39.5244 42.6669 38.5637C42.5537 38.1631 42.5675 37.7391 42.5835 37.3271C42.5932 37.0755 42.3508 36.9528 42.1358 36.9861C41.5814 37.072 40.7872 37.1525 40.314 36.7754C39.6108 36.2152 40.4131 35.2933 40.8548 34.8661C42.0405 33.7196 43.5487 32.9614 45.1308 32.5295C48.8409 31.5166 52.7124 32.3601 56.3248 33.3719C59.9735 34.3938 63.5532 35.6428 67.119 36.9199C70.6842 38.1967 74.24 39.5044 77.851 40.6479C81.4582 41.7901 85.1258 42.7679 88.8649 43.3682C89.3266 43.4424 89.7891 43.5103 90.2525 43.573C90.4432 43.5988 90.6299 43.527 90.6876 43.326C90.7348 43.1615 90.6296 42.9164 90.4405 42.8908Z" fill="black"/>
  <path d="M58.3008 40.8232C59.0077 41.3046 62.5991 44.1271 63.1027 44.8183C63.4561 45.3033 63.687 45.8647 63.9093 46.4221C65.6515 50.7904 67.072 55.2869 68.1556 59.8632C68.7199 62.246 69.5404 64.5555 70.2444 66.8982C70.7064 68.4353 72.3031 72.1514 71.2897 73.6634C71.05 74.0211 70.6503 74.2466 70.2355 74.3619C68.3205 74.8943 67.4823 73.0741 65.8517 72.6487C63.9808 72.1606 63.1189 71.6376 62.4986 69.5993" fill="#3E50F7"/>
  <path d="M33.9453 66.2936C40.21 67.8727 46.484 69.4315 52.8313 70.6434C56.2189 71.2901 59.6248 71.8374 63.0359 72.347C64.5493 72.5731 65.9753 72.9356 67.5105 73.0623C68.0535 73.1071 68.6896 73.1045 69.0285 72.6812C69.5578 72.0199 69.0733 71.1235 68.8671 70.4427C68.5717 69.4679 68.2747 68.4935 67.9771 67.5194C67.382 65.571 66.7832 63.6237 66.1807 61.6776C64.9926 57.8393 63.7902 54.0054 62.5737 50.1759C62.1807 48.9388 61.7839 47.6964 61.2033 46.5342C61.0592 46.2458 60.847 45.9253 60.5228 45.9125C60.3461 45.9055 60.182 45.996 60.0305 46.0864C58.8625 46.7824 57.873 47.6545 56.6694 48.2913C55.7553 48.775 54.8412 49.2586 53.9271 49.7423C51.7205 50.9098 49.5139 52.0773 47.3073 53.2448C43.141 55.4492 38.9748 57.6536 34.8085 59.858L33.9453 66.2936Z" fill="#3E50F7"/>
  <path d="M61.2536 45.66C60.3542 46.4057 58.2737 47.6316 57.2808 48.2416C56.6232 48.6455 55.9695 49.0555 55.3196 49.4716C48.1086 54.0878 41.3724 59.4454 35.2527 65.4335C34.5964 66.0757 33.8081 66.776 32.8969 66.6619C31.9875 66.548 31.3799 65.6518 31.1094 64.7761C30.6798 63.3852 30.8023 61.832 31.4445 60.5257C30.1292 60.5343 29.5152 59.6076 28.8359 58.6355C28.2447 57.7894 27.6161 56.6398 27.7147 55.5938C27.77 55.007 27.9025 54.4274 28.1077 53.8748C28.1327 53.8077 28.1591 53.7372 28.1483 53.6665C28.1274 53.5289 27.9822 53.4528 27.8565 53.3931C27.105 53.0362 26.4356 52.4927 25.9751 51.7999C25.2346 50.6857 25.6449 49.1497 26.6735 48.3719C27.9573 47.4011 29.2478 46.4167 30.532 45.4374C33.1451 43.4446 35.7798 41.4802 38.4356 39.5447C40.3389 38.1575 42.2566 36.7829 44.2912 35.5965C44.8632 35.263 45.4548 35.0891 46.0512 34.8293C46.6401 34.5727 47.1419 34.2009 47.8288 34.2831C48.2736 34.3364 48.6704 34.5779 49.0513 34.8136C53.774 37.7366 58.5237 40.6795 62.6707 44.3742" fill="#3E50F7"/>
  <path d="M31.2827 61.0575C34.3776 58.3352 37.5314 55.6797 40.7649 53.1233C43.9301 50.621 47.1725 48.2172 50.4826 45.91C52.4179 44.561 54.376 43.245 56.3517 41.9561C56.7315 41.7083 56.3775 41.0956 55.9947 41.3453C52.516 43.6147 49.0938 45.9705 45.7499 48.4346C42.492 50.8352 39.3085 53.3361 36.1961 55.9226C34.3691 57.4409 32.5663 58.9883 30.7826 60.5573C30.4401 60.8585 30.942 61.3572 31.2827 61.0575Z" fill="black"/>
  <path d="M83.693 115.26C84.3075 116.263 85.1937 117.099 86.2318 117.653C86.4201 117.754 86.6147 117.846 86.8212 117.901C87.4216 118.059 88.0773 117.879 88.5857 117.523C89.0941 117.166 89.4705 116.649 89.7658 116.103C90.4748 114.792 90.7587 113.255 90.5648 111.777C89.8336 112.179 88.9803 112.278 88.1749 112.498C86.5216 112.947 85.0614 113.908 83.6328 114.854" fill="black"/>
  <path d="M83.3918 115.437C83.8364 116.153 84.3971 116.787 85.0618 117.304C85.7046 117.805 86.4996 118.341 87.3488 118.31C89.1624 118.244 90.2161 116.375 90.6717 114.836C90.9643 113.847 91.0496 112.799 90.9227 111.776C90.8898 111.511 90.6476 111.334 90.3905 111.471C89.8183 111.775 89.1794 111.895 88.5538 112.04C87.9404 112.182 87.3501 112.376 86.7721 112.626C85.5963 113.134 84.523 113.843 83.4585 114.547C83.0805 114.797 83.4344 115.41 83.8155 115.158C84.8796 114.454 85.9538 113.739 87.1314 113.236C87.7128 112.987 88.3152 112.818 88.9307 112.679C89.557 112.536 90.1764 112.385 90.7475 112.081L90.2153 111.776C90.3411 112.79 90.2574 113.809 89.9479 114.784C89.6723 115.652 89.2192 116.598 88.4815 117.166C88.1132 117.449 87.6428 117.634 87.173 117.601C86.7298 117.569 86.3226 117.313 85.958 117.079C85.1647 116.569 84.4997 115.88 84.0025 115.08C83.7627 114.694 83.1505 115.049 83.3918 115.437Z" fill="black"/>
  <path d="M28.1165 54.5475C30.9175 52.0135 33.8423 49.6171 36.8826 47.3757C39.9071 45.1458 43.042 43.0656 46.272 41.1455C48.0996 40.059 49.9578 39.0248 51.8431 38.0419C52.2469 37.8314 51.8897 37.2208 51.4861 37.4312C48.1246 39.1835 44.8504 41.1017 41.6798 43.1797C38.5118 45.2561 35.4482 47.4915 32.5008 49.8706C30.8335 51.2164 29.2052 52.6099 27.6163 54.0473C27.278 54.3533 27.7795 54.8524 28.1165 54.5475Z" fill="black"/>
  <path d="M30.3886 45.9547C30.6263 47.805 32.0729 49.4019 33.933 49.7198L33.6733 49.3788C33.5285 51.0412 33.8867 52.7651 34.9289 54.0971C35.3794 54.6728 35.9502 55.1663 36.6029 55.4998C36.7648 55.5825 36.9321 55.6555 37.1018 55.7204C37.1459 55.7372 37.2865 55.7593 37.3141 55.7957C37.3532 55.847 37.3268 55.9771 37.3255 56.0368C37.3169 56.4389 37.3501 56.8383 37.4337 57.2322C37.622 58.1195 38.0649 58.938 38.6838 59.5982C38.9958 59.9311 39.4952 59.4301 39.184 59.0981C38.6655 58.545 38.3067 57.869 38.1351 57.1307C38.0477 56.7548 38.0266 56.3821 38.0341 55.9976C38.0415 55.6211 37.9331 55.287 37.5596 55.1369C36.8952 54.8699 36.316 54.5552 35.8101 54.0357C35.296 53.5077 34.9122 52.8614 34.6762 52.1643C34.372 51.2658 34.2987 50.3202 34.3807 49.3788C34.393 49.2383 34.2631 49.062 34.1211 49.0378C32.5986 48.7776 31.2956 47.5082 31.096 45.9548C31.0715 45.7638 30.951 45.6032 30.7424 45.6011C30.57 45.5993 30.3643 45.7653 30.3886 45.9547Z" fill="black"/>
  <path d="M119.246 71.5913C109.371 72.9385 86.6732 74.6666 76.7331 75.6285C67.8256 76.4905 58.8753 77.3596 50.2188 79.5009C51.3115 85.0933 51.8362 90.7824 51.7835 96.4669C51.787 96.0771 65.7496 94.6917 67.0669 94.5404C72.2826 93.9412 77.506 93.4007 82.7357 92.9189C92.8902 91.9834 120.16 88.7458 130.328 88.8217" fill="white"/>
  <path d="M119.161 71.2554C115.675 71.7298 112.171 72.0797 108.67 72.4227C104.304 72.8504 99.934 73.24 95.5635 73.6219C91.3673 73.9886 87.1702 74.3444 82.9742 74.7126C78.7047 75.0872 74.4368 75.4846 70.1746 75.9352C64.186 76.5684 58.1993 77.3434 52.3164 78.6526C51.5869 78.815 50.8594 78.9861 50.1338 79.165C49.9381 79.2132 49.851 79.4164 49.8867 79.6C50.9672 85.1569 51.486 90.8113 51.4388 96.472C51.4356 96.8576 52.0755 96.97 52.1335 96.566C52.1408 96.5153 52.0115 96.813 52.0143 96.7365C52.0146 96.7292 51.9356 96.7547 52.0101 96.7398C52.0973 96.7224 52.184 96.6904 52.2711 96.6704C52.5363 96.6095 52.8056 96.5651 53.074 96.5214C53.9243 96.3827 54.7793 96.2726 55.634 96.1651C57.9334 95.8759 60.2375 95.6243 62.5417 95.3779C68.4301 94.7482 74.3145 94.0806 80.2096 93.5159C85.3195 93.0264 90.425 92.5043 95.5306 91.971C101.588 91.3384 107.646 90.7148 113.713 90.1768C118.797 89.7258 123.903 89.2694 129.01 89.1872C129.452 89.1801 129.895 89.1774 130.337 89.1804C130.792 89.1835 130.793 88.4761 130.337 88.473C125.439 88.4397 120.525 88.886 115.649 89.301C109.499 89.8245 103.356 90.4495 97.2164 91.0879C92.288 91.6004 87.3619 92.1427 82.4278 92.5995C76.1043 93.185 69.7956 93.9021 63.4809 94.5706C61.167 94.8155 58.8535 95.0659 56.5436 95.3455C55.5494 95.4659 54.5555 95.5904 53.5646 95.7351C53.0046 95.8169 52.4089 95.8716 51.8669 96.0434C51.7052 96.0947 51.4799 96.1799 51.4515 96.3779L52.1462 96.4719C52.1939 90.7487 51.6612 85.0299 50.5688 79.4119L50.3218 79.847C56.2111 78.3954 62.2218 77.525 68.2444 76.8521C72.7566 76.348 77.2782 75.9237 81.8007 75.5233C85.9135 75.1592 90.0277 74.8107 94.1411 74.4532C98.5415 74.0707 102.941 73.6818 107.338 73.2592C110.99 72.9082 114.642 72.5466 118.281 72.0789C118.637 72.0331 118.993 71.9858 119.349 71.9374C119.798 71.8763 119.607 71.1947 119.161 71.2554Z" fill="black"/>
  <path d="M11.435 77.1035C11.3802 81.8668 11.3253 86.63 11.2705 91.3933C11.2436 93.7282 11.2166 96.0631 11.1898 98.3981C11.1659 100.478 10.8412 102.212 12.648 103.658C15.3834 105.846 18.4445 107.84 21.421 109.691C23.6998 111.108 26.2003 112.918 28.7237 113.85C30.8329 114.63 33.9285 113.806 36.0621 113.413C39.0211 112.868 41.9263 112.074 44.8642 111.431C47.7251 110.805 50.616 110.324 53.4797 109.711C56.4326 109.079 59.3536 108.307 62.2733 107.536C64.2322 107.018 66.191 106.501 68.1499 105.983L68.3249 80.2006L28.5952 78.7858L11.435 77.1035Z" fill="#3E50F7"/>
  <path d="M56.6009 82.182L68.3194 80.1994L44.2841 72.0879C33.2254 73.4611 22.2025 75.1229 11.2305 77.0711L19.013 81.2626C27.138 79.9339 35.2886 78.7613 43.4589 77.7468L56.6009 82.182Z" fill="white"/>
  <path d="M56.6949 82.5247C58.0126 82.3018 59.3303 82.0788 60.648 81.8559C62.7507 81.5001 64.8534 81.1444 66.956 80.7886C67.4418 80.7064 67.9276 80.6243 68.4134 80.5421C68.7838 80.4794 68.7135 79.9613 68.4134 79.86C66.8481 79.3317 65.2828 78.8035 63.7176 78.2752C60.4976 77.1886 57.2777 76.1019 54.0578 75.0152C51.336 74.0967 48.6142 73.1781 45.8924 72.2595C45.4026 72.0942 44.8948 71.8611 44.3884 71.752C44.2437 71.7208 44.093 71.7596 43.9478 71.7777C43.4995 71.8336 43.0513 71.89 42.6031 71.9468C41.7068 72.0605 40.8106 72.1762 39.9148 72.2937C38.1663 72.523 36.4188 72.7593 34.6723 73.0028C27.6624 73.9802 20.6687 75.0736 13.695 76.2827C12.8418 76.4306 11.989 76.5804 11.1364 76.7317C10.8343 76.7853 10.7971 77.2409 11.0519 77.3781C13.0417 78.4498 15.0315 79.5215 17.0213 80.5931L18.3979 81.3345C18.5182 81.3993 18.6377 81.4661 18.7589 81.5289C19.0012 81.6546 19.2317 81.5848 19.4983 81.5414C22.4616 81.0586 25.4283 80.5967 28.3981 80.1556C31.3927 79.7108 34.3904 79.2868 37.391 78.8851C38.8883 78.6846 40.3863 78.4894 41.885 78.2995C42.2222 78.2568 42.5594 78.2143 42.8967 78.1721C43.0342 78.1549 43.2622 78.0838 43.3791 78.0943C43.4377 78.0995 43.5073 78.1375 43.5626 78.1562C45.75 78.8944 47.9374 79.6326 50.1248 80.3708C52.2141 81.0759 54.3034 81.781 56.3928 82.4861C56.4308 82.499 56.4688 82.5118 56.5068 82.5246C56.9391 82.6705 57.1246 81.9876 56.6949 81.8425C55.6798 81.5 54.6647 81.1574 53.6497 80.8149C51.6638 80.1447 49.6779 79.4745 47.6921 78.8043C46.3602 78.3548 45.0284 77.9053 43.6965 77.4559C43.4291 77.3656 43.1811 77.4292 42.8966 77.4648C41.8286 77.5983 40.761 77.7346 39.6936 77.8736C37.5651 78.1508 35.4379 78.4384 33.3122 78.7367C29.0299 79.3375 24.7538 79.9817 20.4846 80.6691C19.9626 80.7531 19.4407 80.8378 18.9189 80.9231L19.1914 80.9588C16.9157 79.7331 14.64 78.5075 12.3643 77.2818C12.0458 77.1103 11.7274 76.9388 11.4089 76.7673L11.3244 77.4137C18.2933 76.177 25.2824 75.0545 32.2883 74.0488C35.7972 73.5451 39.3103 73.0707 42.8272 72.6258C43.2314 72.5747 43.6641 72.5638 44.0599 72.471C44.1467 72.4507 44.1556 72.4315 44.2094 72.4371C44.2649 72.4428 44.3292 72.4775 44.3816 72.4952L45.1673 72.7604C47.6998 73.615 50.2323 74.4697 52.7648 75.3244C56.0281 76.4257 59.2914 77.527 62.5547 78.6283C63.7919 79.0458 65.029 79.4633 66.2662 79.8808C66.8845 80.0895 67.5084 80.3535 68.1416 80.5138C68.1699 80.5209 68.1977 80.5327 68.2254 80.542V79.8599C66.9076 80.0829 65.5899 80.3058 64.2722 80.5288C62.1695 80.8845 60.0669 81.2402 57.9642 81.596C57.4784 81.6782 56.9926 81.7604 56.5068 81.8426C56.0589 81.9183 56.2489 82.6002 56.6949 82.5247Z" fill="black"/>
  <path d="M56.5997 82.1862L43.4576 77.751C35.2874 78.7655 27.1367 79.9381 19.0117 81.2668L29.2959 86.8056L56.5997 82.1862Z" fill="black"/>
  <path d="M56.6973 81.8411C55.6756 81.4963 54.654 81.1515 53.6323 80.8067C51.6553 80.1395 49.6783 79.4723 47.7012 78.8051C46.3659 78.3544 45.0306 77.9038 43.6953 77.4531C43.4196 77.3601 43.1547 77.4313 42.8647 77.4676C41.7984 77.601 40.7324 77.7372 39.6667 77.876C37.5402 78.153 35.415 78.4404 33.2913 78.7385C29.0163 79.3385 24.7474 79.9817 20.4855 80.6679C19.964 80.7518 19.4426 80.8365 18.9213 80.9217C18.6171 80.9714 18.5843 81.4322 18.8368 81.5681C19.7112 82.0391 20.5856 82.51 21.46 82.981C23.096 83.8621 24.732 84.7432 26.368 85.6243C27.0088 85.9695 27.6496 86.3146 28.2904 86.6597C28.5631 86.8065 28.8343 86.981 29.1182 87.1055C29.2991 87.1849 29.5031 87.1241 29.6922 87.0921L30.682 86.9246C31.8835 86.7214 33.085 86.5181 34.2865 86.3148C35.9795 86.0284 37.6725 85.7419 39.3655 85.4555C41.2509 85.1365 43.1363 84.8175 45.0217 84.4985C46.8046 84.1969 48.5875 83.8953 50.3704 83.5936C51.7558 83.3592 53.1412 83.1248 54.5266 82.8904C55.2184 82.7734 55.9178 82.6774 56.6056 82.5387C56.6359 82.5326 56.6667 82.5284 56.6972 82.5232C57.1451 82.4474 56.9552 81.7657 56.5092 81.8411C55.6063 81.9939 54.7033 82.1466 53.8004 82.2994C51.6226 82.6679 49.4448 83.0363 47.267 83.4048C44.6406 83.8491 42.0143 84.2935 39.388 84.7378C37.1105 85.1231 34.8331 85.5084 32.5557 85.8937C31.8123 86.0195 31.069 86.1453 30.3257 86.271C29.9729 86.3307 29.5977 86.3614 29.2513 86.4528C29.2365 86.4567 29.2205 86.458 29.2054 86.4606L29.4779 86.4962C28.3207 85.873 27.1635 85.2497 26.0063 84.6265C24.1606 83.6324 22.315 82.6384 20.4693 81.6444C20.0442 81.4154 19.619 81.1864 19.1938 80.9574L19.1093 81.6038C23.3337 80.9134 27.5648 80.2644 31.8021 79.6583C33.9165 79.3559 36.0324 79.0638 38.1497 78.7829C39.215 78.6415 40.2807 78.5028 41.3467 78.3668C41.8888 78.2977 42.4309 78.2292 42.9731 78.1615C43.1153 78.1437 43.2768 78.0817 43.3999 78.0991C43.5274 78.1171 43.6659 78.1889 43.7874 78.2299L44.5522 78.488L46.8908 79.2772C48.8674 79.9443 50.844 80.6114 52.8206 81.2785C54.0266 81.6855 55.2287 82.1531 56.4525 82.5042C56.4716 82.5096 56.4903 82.5169 56.5091 82.5233C56.9414 82.6691 57.127 81.9861 56.6973 81.8411Z" fill="black"/>
  <path d="M43.3869 73.3148C43.384 75.572 43.2983 77.8282 43.1301 80.0792C43.0962 80.5333 43.8037 80.5311 43.8374 80.0792C44.0057 77.8282 44.0913 75.572 44.0943 73.3148C44.0949 72.8596 43.3875 72.8589 43.3869 73.3148Z" fill="black"/>
  <path d="M28.9382 88.3372C29.3084 95.0843 29.7927 101.832 29.8275 108.592C29.8368 110.409 29.8111 112.226 29.7334 114.04C29.7139 114.496 30.4213 114.495 30.4408 114.04C30.7252 107.392 30.3537 100.731 29.974 94.0939C29.8643 92.175 29.7508 90.2564 29.6455 88.3372C29.6207 87.8845 28.9132 87.8816 28.9382 88.3372Z" fill="black"/>
  <path d="M152.067 72.457C152.628 79.1416 149.954 86.024 145.028 90.5767C141.38 93.948 136.724 95.9892 132.111 97.8316C128.738 99.1788 125.365 100.148 121.884 101.135C118.918 101.976 115.991 103.413 113.108 104.545C103.501 108.316 93.863 112.012 84.2853 115.856C81.9592 116.79 79.6255 117.715 77.2321 118.464C76.0398 118.838 74.8337 119.168 73.6123 119.432C72.4414 119.685 71.9906 119.923 71.3963 118.869C68.8836 114.412 67.1555 109.235 65.2861 104.48C64.7883 103.214 64.2999 101.945 63.8196 100.672C63.3376 99.3947 63.1272 98.9454 64.2078 97.9608C65.6286 96.6661 67.778 96.1442 69.6069 96.7946C71.18 97.3541 72.405 98.6211 73.9293 99.3025C76.9327 100.645 79.9405 99.2594 82.8314 98.3174C86.0844 97.2574 89.3202 96.1448 92.5371 94.9801C98.9711 92.6507 105.33 90.1131 111.599 87.3723" fill="white"/>
  <path d="M151.715 72.4547C152.113 77.3999 150.773 82.404 148.019 86.526C145.051 90.9699 140.529 93.7879 135.734 95.9322C133.126 97.0986 130.459 98.1409 127.741 99.0211C124.969 99.9186 122.11 100.573 119.38 101.592C116.605 102.627 113.901 103.856 111.142 104.936C108.291 106.052 105.439 107.162 102.586 108.273C96.8537 110.506 91.122 112.741 85.4099 115.025C82.5977 116.15 79.7925 117.305 76.8948 118.197C75.5605 118.607 74.2049 118.966 72.8357 119.241C72.4499 119.319 72.1573 119.325 71.8965 118.993C71.5073 118.499 71.2437 117.86 70.9568 117.302C69.6493 114.761 68.5838 112.104 67.5613 109.438C66.5401 106.775 65.5079 104.115 64.493 101.45C64.2712 100.867 64.0091 100.282 63.846 99.6789C63.7315 99.2558 63.7972 98.9289 64.0826 98.589C64.8622 97.6605 66.0782 97.0739 67.2667 96.9114C68.5613 96.7344 69.736 97.1201 70.8294 97.7947C71.8811 98.4436 72.842 99.2358 73.9941 99.7094C76.7107 100.826 79.5473 99.8058 82.1629 98.9121C85.0237 97.9346 87.8993 97.0053 90.7488 95.9939C96.471 93.9629 102.135 91.7674 107.731 89.4114C109.084 88.8417 110.433 88.2629 111.779 87.6753C112.195 87.4935 111.835 86.8839 111.422 87.0645C105.68 89.5728 99.864 91.9113 93.9834 94.0748C91.0218 95.1644 88.0438 96.2098 85.051 97.2105C83.6152 97.6906 82.1797 98.1716 80.7435 98.6501C79.3365 99.1188 77.8766 99.5469 76.3788 99.4999C74.8929 99.4533 73.6482 98.8352 72.4413 98.0191C71.4063 97.3193 70.3624 96.556 69.1181 96.2855C67.9457 96.0307 66.7125 96.1768 65.6134 96.648C64.7019 97.0387 63.5299 97.765 63.1685 98.7479C63.0274 99.1314 63.0679 99.5295 63.178 99.9155C63.3528 100.528 63.6146 101.123 63.8412 101.717C64.3819 103.137 64.9426 104.548 65.4864 105.966C66.513 108.642 67.498 111.336 68.626 113.972C69.2009 115.316 69.8136 116.645 70.4916 117.94C70.9016 118.723 71.344 119.98 72.4029 120C72.8667 120.009 73.3422 119.852 73.7903 119.753C74.5391 119.588 75.2826 119.4 76.0207 119.192C77.5002 118.775 78.9569 118.281 80.3983 117.748C83.3471 116.657 86.2508 115.442 89.1736 114.284C92.1282 113.114 95.087 111.954 98.0473 110.798C103.865 108.527 109.744 106.372 115.496 103.94C116.898 103.347 118.295 102.743 119.723 102.216C121.154 101.689 122.623 101.295 124.087 100.871C126.976 100.035 129.838 99.1231 132.63 98.0005C137.635 95.9878 142.74 93.6726 146.463 89.6392C149.862 85.9565 151.963 81.136 152.409 76.1495C152.519 74.9201 152.521 73.6848 152.422 72.4547C152.386 72.004 151.678 72.0002 151.715 72.4547Z" fill="black"/>
  <path d="M45.8321 110.837C45.1902 107.825 44.7764 104.767 44.6015 101.692C44.5167 100.2 44.4609 98.6953 44.522 97.2018C44.5766 95.8653 44.7948 94.5001 45.5684 93.3762C46.2613 92.3693 47.3953 91.5689 48.6289 91.4336C49.2491 91.3656 49.8855 91.4717 50.4048 91.8316C50.8387 92.1324 51.1433 92.5893 51.3484 93.0692C51.809 94.1471 51.8776 95.3753 52.0088 96.5258C52.1623 97.8731 52.3004 99.2221 52.4276 100.572C52.7132 103.602 52.9489 106.638 53.1197 109.677C53.1451 110.13 53.8527 110.133 53.8271 109.677C53.6654 106.801 53.4449 103.927 53.1803 101.059C53.0491 99.6366 52.9062 98.2156 52.7468 96.7965C52.6055 95.5398 52.5386 94.2064 52.0835 93.0141C51.6394 91.8504 50.7756 90.9261 49.4968 90.7456C48.1672 90.5579 46.8482 91.1208 45.8628 91.9891C43.5477 94.0289 43.7375 97.3827 43.8275 100.192C43.9441 103.833 44.391 107.463 45.15 111.025C45.2448 111.47 45.9268 111.282 45.8321 110.837Z" fill="black"/>
  <path d="M51.0814 99.6005C51.0388 99.4771 50.9697 99.3817 50.8598 99.3096C50.7761 99.2545 50.6781 99.2323 50.5797 99.2252C50.4783 99.2179 50.3772 99.2469 50.2873 99.2917C50.1919 99.3392 50.1232 99.4163 50.0613 99.5002C49.9649 99.6308 49.9286 99.8025 49.9194 99.9614C49.9098 100.126 49.9508 100.282 50.015 100.431C50.1395 100.72 50.4334 100.908 50.7457 100.914C50.8909 100.918 51.0562 100.877 51.1763 100.793C51.3155 100.696 51.4311 100.56 51.4662 100.389C51.5029 100.21 51.4793 100.027 51.3882 99.8671C51.3363 99.7762 51.2678 99.7119 51.1856 99.6503C51.1259 99.6055 51.0504 99.572 50.9765 99.5606C50.8791 99.5456 50.7924 99.5445 50.7039 99.5962C50.6306 99.6392 50.5606 99.7233 50.5414 99.8076C50.5208 99.8981 50.5252 99.9998 50.5771 100.08C50.6236 100.152 50.6996 100.229 50.7884 100.243C50.8118 100.246 50.8335 100.252 50.8552 100.261L50.7707 100.226C50.7916 100.235 50.8104 100.247 50.8286 100.261L50.757 100.206C50.7748 100.221 50.7904 100.237 50.805 100.254L50.7497 100.183C50.768 100.207 50.783 100.233 50.7953 100.26L50.7597 100.176C50.7728 100.207 50.7817 100.239 50.7869 100.273L50.7742 100.179C50.7785 100.213 50.7786 100.246 50.7741 100.28L50.7867 100.186C50.7823 100.213 50.7752 100.238 50.765 100.263L50.8006 100.179C50.7906 100.201 50.7786 100.221 50.764 100.241L50.8193 100.169C50.8007 100.192 50.78 100.213 50.7566 100.231L50.8282 100.176C50.8044 100.193 50.7794 100.208 50.7525 100.22L50.837 100.184C50.799 100.2 50.76 100.211 50.7192 100.216L50.8132 100.204C50.7717 100.208 50.7307 100.208 50.6893 100.202L50.7833 100.215C50.7457 100.209 50.7096 100.2 50.6742 100.186L50.7587 100.221C50.7233 100.206 50.6909 100.188 50.6602 100.164L50.7318 100.22C50.6992 100.194 50.6704 100.164 50.6444 100.132L50.6997 100.203C50.6696 100.163 50.6453 100.12 50.6257 100.074L50.6614 100.158C50.641 100.107 50.6272 100.055 50.6192 100L50.6318 100.094C50.6238 100.031 50.6239 99.9681 50.6323 99.9049L50.6197 99.9989C50.627 99.9515 50.6387 99.9059 50.6567 99.8615L50.621 99.946C50.6349 99.9143 50.6513 99.8849 50.672 99.8572L50.6167 99.9288C50.6327 99.909 50.65 99.8914 50.6699 99.8753L50.5983 99.9307C50.6145 99.9188 50.6309 99.9087 50.649 99.9003L50.5645 99.936C50.5812 99.9294 50.5977 99.9248 50.6154 99.9216L50.5213 99.9343C50.5427 99.9314 50.5635 99.9311 50.585 99.9332L50.491 99.9205C50.512 99.9235 50.5318 99.9286 50.5516 99.9364L50.4671 99.9007C50.4828 99.9078 50.497 99.9161 50.5108 99.9264L50.4392 99.8711C50.4496 99.8799 50.4586 99.889 50.4672 99.8996L50.4119 99.828C50.4198 99.8392 50.4261 99.8505 50.4315 99.8632L50.3959 99.7787L50.3993 99.7886C50.4295 99.8762 50.48 99.9521 50.5618 99.9999C50.6376 100.044 50.7493 100.063 50.8343 100.036C50.9199 100.008 51.0025 99.9549 51.0457 99.8731C51.0886 99.7919 51.1124 99.6902 51.0814 99.6005Z" fill="black"/>
  <path d="M20.6223 114.382C20.2877 114.195 20.1384 113.735 20.2994 113.387C20.4604 113.039 20.9076 112.855 21.2668 112.989C20.8508 112.254 20.3839 111.144 20.8971 110.341C21.3007 109.71 22.2273 109.485 22.8751 109.862C22.7504 108.912 22.9882 107.865 23.7025 107.226C24.4168 106.587 25.653 106.523 26.2885 107.24C26.0652 106.483 26.3635 105.637 26.9083 105.066C27.4531 104.494 28.2098 104.166 28.9776 103.982C29.1712 103.936 29.382 103.899 29.5634 103.981C29.7519 104.066 29.8648 104.26 29.9528 104.447C30.2005 104.974 30.3482 105.548 30.3856 106.129C30.7573 105.798 31.1799 105.505 31.6625 105.384C32.1452 105.263 32.697 105.336 33.0688 105.667C33.4685 106.023 33.5932 106.621 33.4714 107.142C33.3496 107.663 33.0145 108.113 32.6214 108.476C33.5279 108.371 34.6046 108.33 35.1745 109.043C35.689 109.687 35.4197 110.79 34.6666 111.124C36.1794 110.957 37.7166 112.135 37.9486 113.639C37.9532 112.978 38.772 112.522 39.3906 112.756C40.0092 112.99 40.3401 113.724 40.2512 114.379C40.1623 115.035 39.7314 115.602 39.214 116.014" fill="white"/>
  <path d="M20.8013 114.078C20.3542 113.796 20.6901 113.18 21.1731 113.331C21.4756 113.426 21.7183 113.072 21.5726 112.812C21.2392 112.216 20.8298 111.388 21.1094 110.698C21.3536 110.096 22.1417 109.866 22.697 110.168C22.9084 110.283 23.263 110.144 23.2292 109.863C23.1271 109.012 23.2847 108.03 23.981 107.453C24.5598 106.974 25.5066 106.921 26.0388 107.492C26.2841 107.755 26.7196 107.48 26.6299 107.148C26.3309 106.037 27.1786 105.092 28.1173 104.647C28.355 104.534 28.6058 104.45 28.8592 104.379C29.0818 104.318 29.3745 104.193 29.5356 104.419C29.8655 104.882 29.9909 105.577 30.0323 106.13C30.0557 106.442 30.3988 106.588 30.6361 106.38C31.1982 105.888 32.3074 105.261 32.9308 106.032C33.5182 106.759 32.9279 107.702 32.3716 108.227C32.1645 108.422 32.3102 108.866 32.6217 108.831C33.3233 108.751 34.3174 108.625 34.8506 109.21C35.3053 109.708 35.0685 110.542 34.4884 110.82C34.1794 110.968 34.3212 111.512 34.6669 111.479C36.0589 111.346 37.3743 112.356 37.6079 113.734C37.6773 114.144 38.2838 114.02 38.3026 113.64C38.3188 113.312 38.6439 113.09 38.9486 113.052C39.3071 113.007 39.6057 113.256 39.7642 113.557C40.203 114.389 39.5985 115.248 38.9642 115.765C38.6112 116.052 39.1142 116.55 39.4644 116.265C40.4577 115.455 41.0841 113.995 40.1588 112.886C39.7862 112.439 39.1899 112.238 38.6271 112.4C38.0558 112.566 37.625 113.038 37.5952 113.64L38.2899 113.546C38.0085 111.886 36.3431 110.611 34.6669 110.772L34.8454 111.431C35.7297 111.007 36.0731 109.769 35.5384 108.947C34.9143 107.986 33.627 108.009 32.6217 108.123L32.8718 108.727C33.7234 107.924 34.3158 106.546 33.4309 105.532C33.0481 105.093 32.4313 104.927 31.8674 104.993C31.1966 105.071 30.6329 105.445 30.1358 105.88L30.7396 106.13C30.6855 105.409 30.5244 104.5 30.0462 103.927C29.5316 103.31 28.6192 103.671 28.0033 103.929C26.6685 104.487 25.5361 105.807 25.9477 107.336L26.5389 106.991C25.807 106.207 24.514 106.197 23.668 106.806C22.7167 107.491 22.3874 108.743 22.5218 109.863L23.0539 109.558C22.2119 109.1 21.072 109.361 20.5706 110.2C20.0097 111.138 20.4788 112.306 20.9617 113.169L21.3611 112.649C20.8268 112.482 20.2082 112.733 19.9765 113.252C19.7412 113.779 19.9683 114.388 20.4442 114.688C20.8303 114.932 21.1858 114.32 20.8013 114.078Z" fill="black"/>
  <path d="M27.6686 113.98C27.2932 113.447 27.7892 112.655 28.2962 112.398C28.9331 112.075 29.327 112.78 29.5303 113.275C29.6679 113.61 30.2537 113.617 30.225 113.181C30.1944 112.716 30.6969 112.561 31.0704 112.497C31.4997 112.425 32.0015 112.415 32.3801 112.661C33.0023 113.066 33.0389 113.954 32.8471 114.596C32.7165 115.033 33.399 115.22 33.5292 114.784C33.8387 113.748 33.5903 112.405 32.5077 111.932C31.547 111.513 29.4241 111.76 29.5177 113.181L30.2124 113.087C30.0333 112.651 29.8226 112.206 29.4447 111.906C29.027 111.575 28.4947 111.526 28.0139 111.751C27.1442 112.157 26.4413 113.462 27.0578 114.338C27.3179 114.707 27.9315 114.354 27.6686 113.98Z" fill="black"/>
  <path d="M39.4174 97.8962C39.4434 98.2427 39.6673 101.689 39.8627 101.68C38.0426 101.766 36.2216 101.83 34.4006 101.895C34.3616 101.896 34.3204 101.897 34.286 101.878C34.2178 101.842 34.2075 101.75 34.2057 101.672C34.1594 99.778 33.6805 97.9005 34.5162 96.082C34.9394 95.1611 35.7727 94.3227 36.7861 94.3092C37.6055 94.2984 38.3584 94.8444 38.7841 95.5447C39.2097 96.2451 39.3561 97.079 39.4174 97.8962Z" fill="white"/>
  <path d="M39.0581 97.8957C39.1117 98.619 39.1616 99.3425 39.2308 100.065C39.2714 100.489 39.3143 100.914 39.3833 101.335C39.4203 101.56 39.4715 101.98 39.7631 102.02L39.8571 101.326C38.5102 101.389 37.1628 101.441 35.8153 101.49C35.4876 101.502 35.1598 101.513 34.832 101.525C34.7592 101.528 34.6864 101.53 34.6135 101.533C34.5498 101.535 34.2665 101.488 34.4743 101.606L34.5537 101.672C34.5521 101.605 34.5499 101.539 34.5473 101.472C34.5434 101.373 34.5384 101.273 34.5327 101.174C34.4987 100.578 34.4362 99.9849 34.4011 99.3896C34.3314 98.2037 34.3788 96.9511 35.0038 95.9024C35.4944 95.0792 36.4094 94.3867 37.3989 94.7795C38.6305 95.2683 38.9647 96.7149 39.0581 97.8957C39.0938 98.3465 39.8014 98.3503 39.7654 97.8957C39.661 96.5762 39.3223 95.1976 38.1737 94.4001C37.114 93.6643 35.8046 93.9252 34.9392 94.8251C33.9782 95.8243 33.6677 97.2565 33.668 98.6027C33.6681 99.3291 33.7458 100.052 33.7989 100.776C33.838 101.309 33.671 102.262 34.4496 102.246C36.252 102.208 38.0563 102.118 39.857 102.033C40.2314 102.015 40.3657 101.396 39.951 101.338C40.0035 101.345 40.1187 101.458 40.1247 101.462C40.1488 101.477 40.152 101.553 40.135 101.479C40.1254 101.436 40.1127 101.395 40.1033 101.352C40.073 101.216 40.053 101.077 40.0342 100.938C39.983 100.562 39.946 100.162 39.9114 99.7764C39.8551 99.1501 39.8119 98.5228 39.7654 97.8957C39.732 97.4445 39.0244 97.4408 39.0581 97.8957Z" fill="black"/>
  <path d="M36.258 94.5245C36.327 96.8834 36.426 99.2414 36.5549 101.598C36.5796 102.051 37.2871 102.053 37.2622 101.598C37.1334 99.2414 37.0344 96.8834 36.9654 94.5245C36.9521 94.0703 36.2447 94.0684 36.258 94.5245Z" fill="black"/>
  <path d="M34.1463 99.3242C35.8623 99.3288 37.573 99.1925 39.2681 98.927C39.4582 98.8973 39.5598 98.6615 39.5151 98.492C39.4619 98.2901 39.2678 98.2155 39.08 98.2449C37.4481 98.5005 35.798 98.6213 34.1463 98.6168C33.6911 98.6156 33.6905 99.3229 34.1463 99.3242Z" fill="black"/>
  <path d="M61.3137 94.1432C61.3699 94.4861 61.894 97.8996 62.0878 97.8733C60.2822 98.1183 58.4738 98.3414 56.6654 98.5646C56.6266 98.5694 56.5856 98.5739 56.5498 98.5584C56.4786 98.5277 56.4604 98.4371 56.4518 98.3601C56.2402 96.4771 55.5991 94.6486 56.2728 92.764C56.6139 91.8097 57.3708 90.9017 58.3791 90.7998C59.1944 90.7174 59.9921 91.1956 60.4773 91.856C60.9625 92.5164 61.1812 93.3344 61.3137 94.1432Z" fill="white"/>
  <path d="M60.9715 94.2411C61.0881 94.9569 61.201 95.6733 61.333 96.3865C61.4071 96.787 61.4811 97.1895 61.5847 97.5835C61.6566 97.857 61.7446 98.2134 62.0867 98.2309L61.9926 97.5361C60.6698 97.7153 59.3453 97.8826 58.0205 98.0471C57.7131 98.0853 57.4057 98.1233 57.0983 98.1612C57.0079 98.1724 56.9175 98.1836 56.827 98.1947L56.7728 98.2014C56.6137 98.1942 56.623 98.2368 56.8006 98.3291C56.8246 98.315 56.7442 97.8942 56.7393 97.8599C56.6528 97.2478 56.5338 96.6409 56.4432 96.0294C56.2682 94.8481 56.2185 93.5546 56.7879 92.4647C57.2367 91.6055 58.0961 90.8974 59.109 91.2439C60.3562 91.6706 60.7755 93.0746 60.9715 94.2411C61.0468 94.689 61.7286 94.499 61.6536 94.053C61.4378 92.7683 60.9527 91.3959 59.7292 90.7481C58.5846 90.1421 57.3346 90.5288 56.5596 91.5199C55.7025 92.6161 55.5299 94.0672 55.6597 95.4146C55.73 96.1446 55.8701 96.8651 55.9871 97.5884C56.0382 97.9047 56.0346 98.2702 56.1351 98.5745C56.2517 98.9273 56.5702 98.9338 56.8813 98.8954C58.6487 98.6772 60.4159 98.4572 62.1807 98.2182C62.5924 98.1625 62.464 97.5427 62.0867 97.5235C62.1816 97.5283 62.3295 97.646 62.3436 97.65C62.3137 97.6415 62.3612 97.7139 62.3474 97.6615C62.3357 97.6172 62.3172 97.5737 62.304 97.5297C62.2623 97.3912 62.2297 97.2497 62.1979 97.1087C62.1086 96.7128 62.0348 96.3133 61.9633 95.9138C61.8526 95.2947 61.7547 94.6737 61.6536 94.053C61.5806 93.6049 60.8989 93.795 60.9715 94.2411Z" fill="black"/>
  <path d="M56.1712 96.0255C57.8801 95.8804 59.5754 95.6031 61.2402 95.1906C61.6818 95.0811 61.4947 94.3988 61.0521 94.5085C59.4482 94.9059 57.8178 95.1783 56.1712 95.3181C55.721 95.3563 55.7169 96.064 56.1712 96.0255Z" fill="black"/>
  <path d="M9.41448 94.2622C9.24398 93.5774 8.69482 93.0545 8.02924 92.8448C7.3524 92.6315 6.63199 92.8038 6.08071 93.2352C4.77573 94.2565 4.91236 96.0872 5.87472 97.2876L6.3033 96.7321C5.54502 96.1688 4.36906 96.3034 3.76636 97.0345C3.1537 97.7778 3.24859 98.9445 3.94753 99.5977L4.37611 99.0422C3.30541 98.5357 1.88157 98.791 1.23107 99.8435C0.637043 100.805 0.935348 102.183 1.90483 102.773C2.29474 103.01 2.65062 102.399 2.26185 102.162C1.61629 101.77 1.44875 100.829 1.84186 100.201C2.28147 99.4974 3.29855 99.3121 4.01912 99.653C4.3615 99.8149 4.76009 99.3894 4.4477 99.0975C4.01063 98.689 3.91728 97.9528 4.31286 97.4792C4.71774 96.9943 5.46335 96.9841 5.94629 97.3429C6.08739 97.4478 6.30511 97.3781 6.40254 97.2518C6.51758 97.1028 6.48689 96.9272 6.37489 96.7874C5.68464 95.9264 5.56991 94.6065 6.45669 93.8372C7.20029 93.1922 8.47804 93.4286 8.73239 94.4502C8.84229 94.8917 9.52465 94.7047 9.41448 94.2622Z" fill="black"/>
  <path d="M8.30683 99.1115C7.81669 99.0571 7.29559 99.4499 7.2147 99.9368C7.17166 100.196 7.21712 100.467 7.36676 100.687C7.51437 100.904 7.7285 101.075 7.98837 101.135C8.16837 101.176 8.37972 101.08 8.42344 100.888C8.46443 100.708 8.36934 100.497 8.17642 100.453C8.15549 100.448 8.13488 100.443 8.11449 100.436C8.04206 100.412 8.16339 100.461 8.13115 100.445C8.09555 100.426 8.06239 100.407 8.02887 100.385C7.97706 100.352 8.09158 100.441 8.04316 100.395C8.02973 100.383 8.01622 100.371 8.00336 100.357C7.99051 100.344 7.97883 100.33 7.9665 100.317C7.92201 100.268 8.00976 100.382 7.97755 100.33C7.95658 100.295 7.93709 100.262 7.91872 100.226C7.90721 100.201 7.91308 100.215 7.93634 100.268C7.93191 100.257 7.92779 100.246 7.92393 100.234C7.91819 100.217 7.91308 100.199 7.90876 100.181C7.90444 100.164 7.90208 100.145 7.89791 100.128C7.92152 100.228 7.90463 100.182 7.90311 100.149C7.90227 100.131 7.90228 100.113 7.90307 100.095C7.9036 100.082 7.9045 100.07 7.90578 100.058C7.89674 100.119 7.89476 100.135 7.89981 100.107C7.90801 100.072 7.91273 100.023 7.93281 99.9927L7.91162 100.044C7.91676 100.033 7.92221 100.022 7.92796 100.011C7.93658 99.9952 7.94588 99.9795 7.95581 99.9642C7.97629 99.9327 8.00497 99.9206 7.94344 99.9767C7.95665 99.9646 7.96723 99.9485 7.97962 99.9353C7.99221 99.922 8.00533 99.9092 8.01889 99.8968C8.02795 99.8886 8.03721 99.8806 8.04664 99.8728C8.00127 99.907 7.98954 99.9161 8.01143 99.9001C8.04468 99.8778 8.07736 99.8563 8.11327 99.8383C8.14151 99.8242 8.19205 99.8191 8.09583 99.8446C8.11327 99.84 8.1304 99.8323 8.1478 99.8273C8.16539 99.8222 8.18308 99.8184 8.20091 99.8142C8.26675 99.7988 8.11572 99.8192 8.17897 99.8165C8.22214 99.8146 8.26364 99.8141 8.30676 99.8189C8.39098 99.8282 8.49948 99.7727 8.55685 99.7153C8.61819 99.654 8.66438 99.5533 8.66043 99.4652C8.65633 99.3737 8.62628 99.2789 8.55685 99.2151C8.48352 99.1478 8.40527 99.1224 8.30683 99.1115Z" fill="black"/>
  <path d="M111.6 87.3723C105.331 90.1131 98.972 92.6507 92.5381 94.9801C90.7256 95.6363 88.9072 96.276 87.0831 96.899C86.145 97.2194 85.2054 97.5355 84.2643 97.847C83.6185 98.0608 82.5065 98.142 82.0391 98.6599C84.7636 100.946 86.895 104.144 88.4452 107.313C90.0644 110.624 90.69 114.399 88.679 117.695C101.57 111.247 115.407 106.936 128.709 101.385C132.554 99.7809 136.39 98.0525 139.74 95.5767C147.062 90.1672 152.861 81.904 152.068 72.457" fill="white"/>
  <path d="M111.423 87.0645C103.498 90.5267 95.432 93.6641 87.2507 96.4664C86.1799 96.8332 85.1101 97.2418 84.0206 97.5491C83.2651 97.7622 82.37 97.8142 81.79 98.4074C81.6648 98.5355 81.6423 98.7828 81.79 98.9076C83.9261 100.712 85.6292 102.969 87.0211 105.382C88.3811 107.74 89.5783 110.308 89.5894 113.084C89.5957 114.654 89.1828 116.168 88.3746 117.514C88.1831 117.833 88.5549 118.15 88.8586 117.998C94.1525 115.353 99.6119 113.061 105.119 110.903C110.622 108.746 116.174 106.717 121.684 104.579C124.413 103.52 127.134 102.436 129.83 101.293C132.451 100.181 135.05 98.9884 137.487 97.5074C141.654 94.975 145.372 91.5337 148.124 87.5012C150.786 83.6004 152.479 79.0141 152.495 74.2591C152.498 73.6567 152.472 73.055 152.423 72.4546C152.386 72.0041 151.679 72.0001 151.716 72.4546C152.101 77.2004 150.78 81.853 148.319 85.8961C145.829 89.9857 142.29 93.4997 138.311 96.1459C135.973 97.7008 133.446 98.9455 130.88 100.074C128.233 101.239 125.544 102.313 122.851 103.368C117.41 105.502 111.921 107.51 106.472 109.621C101.063 111.716 95.6891 113.913 90.46 116.427C89.8047 116.742 89.1519 117.062 88.5015 117.387L88.9854 117.871C90.49 115.365 90.5869 112.412 89.7559 109.658C89.3386 108.276 88.7055 106.972 88.0147 105.707C87.3075 104.413 86.5173 103.162 85.6277 101.985C84.6413 100.679 83.5413 99.4642 82.2902 98.4074V98.9076C82.7773 98.4093 83.6521 98.3986 84.2857 98.2089C85.2585 97.9177 86.2172 97.5659 87.1781 97.2377C89.2181 96.5409 91.251 95.8233 93.2763 95.0851C97.2622 93.6323 101.219 92.0995 105.143 90.4879C107.366 89.5752 109.578 88.6372 111.78 87.6753C112.196 87.4935 111.836 86.8838 111.423 87.0645Z" fill="black"/>
  <path d="M72.5798 102.54C72.4854 102.306 72.391 102.061 72.4131 101.809C72.4446 101.45 72.7018 101.16 72.9029 100.861C73.2925 100.282 73.4924 99.6913 73.5406 99.109C72.1911 98.4028 71.0439 97.3026 69.6069 96.7916C67.778 96.1411 65.6287 96.663 64.2078 97.9577C63.1272 98.9423 63.3376 99.3916 63.8195 100.669C64.2999 101.942 64.7883 103.211 65.2861 104.477C67.1555 109.232 68.8835 114.409 71.3963 118.866C71.9906 119.92 72.4414 119.682 73.6122 119.429C74.7232 119.189 75.8208 118.892 76.9075 118.56C77.5789 116.657 76.8324 113.937 76.3558 112.123C75.4825 108.799 73.8652 105.727 72.5798 102.54Z" fill="white"/>
  <path d="M72.9232 102.447C72.8101 102.163 72.7019 101.895 72.8413 101.601C72.966 101.338 73.1716 101.115 73.3219 100.867C73.6481 100.328 73.8367 99.7354 73.8967 99.1101C73.9079 98.9932 73.8224 98.8582 73.7215 98.8047C72.0869 97.9374 70.7042 96.519 68.8084 96.2283C67.0719 95.9621 65.258 96.5288 63.9601 97.7088C63.4488 98.1735 63.0046 98.7416 63.0883 99.4692C63.1274 99.809 63.2432 100.13 63.362 100.449C63.545 100.94 63.7324 101.429 63.9193 101.919C64.6752 103.898 65.4535 105.868 66.2046 107.849C66.9398 109.789 67.6774 111.727 68.485 113.638C69.2715 115.498 70.1001 117.379 71.1345 119.117C71.4694 119.68 71.9343 120.058 72.6155 119.989C72.9717 119.953 73.3197 119.857 73.6684 119.78C74.2022 119.663 74.7338 119.537 75.2624 119.398C75.7948 119.258 76.3242 119.108 76.8511 118.948C77.1209 118.867 77.2168 118.776 77.3005 118.505C77.3639 118.299 77.4107 118.088 77.4445 117.876C77.5879 116.976 77.5293 116.068 77.3992 115.17C76.8242 111.202 75.114 107.561 73.5395 103.917C73.3287 103.43 73.1224 102.94 72.9232 102.447C72.7547 102.031 72.0702 102.213 72.2412 102.636C73.1223 104.814 74.1504 106.931 74.9973 109.123C75.7486 111.068 76.3657 113.117 76.6902 115.18C76.8603 116.262 76.9278 117.415 76.5689 118.467L76.816 118.22C75.5169 118.615 74.2018 118.957 72.8722 119.234C72.5629 119.299 72.2547 119.357 72.011 119.121C71.8488 118.963 71.7414 118.756 71.6323 118.561C71.4647 118.261 71.3012 117.958 71.1413 117.654C69.8667 115.231 68.8234 112.695 67.8352 110.145C66.8338 107.56 65.846 104.97 64.8512 102.382C64.5992 101.727 64.3495 101.071 64.1018 100.414C63.9591 100.036 63.7254 99.571 63.7878 99.1533C63.8493 98.7422 64.2301 98.411 64.5225 98.1532C64.9569 97.7701 65.4687 97.4594 66.0072 97.2462C67.2128 96.7689 68.5671 96.7265 69.7709 97.2319C71.0693 97.777 72.1267 98.7588 73.3645 99.4155L73.1894 99.1101C73.1254 99.7772 72.8348 100.349 72.4552 100.89C72.2963 101.117 72.1402 101.359 72.0856 101.635C72.0165 101.985 72.1125 102.313 72.2412 102.636C72.4076 103.053 73.092 102.871 72.9232 102.447Z" fill="black"/>
  <path d="M64.111 106.318C64.3563 107.073 64.6082 107.825 64.8637 108.574C65.7353 111.133 66.7035 113.663 67.889 116.094C68.6408 117.636 70.4549 120.17 72.582 119.464C73.2971 119.227 73.7816 118.525 73.9525 117.791C74.1234 117.057 74.0303 116.289 73.9073 115.546C73.1559 111.004 71.322 106.693 68.9792 102.73C68.3056 101.591 67.5686 100.454 66.5253 99.6397C65.5711 98.8949 64.0269 98.535 63.2549 99.4674C62.4096 100.488 62.8472 102.186 63.1784 103.315C63.4734 104.32 63.7865 105.321 64.111 106.318Z" fill="black"/>
  <path d="M63.7608 106.41C64.3815 108.316 65.0259 110.215 65.7541 112.082C66.1097 112.994 66.4848 113.898 66.884 114.791C67.2148 115.532 67.5427 116.283 67.9596 116.98C68.6337 118.107 69.5584 119.245 70.8122 119.74C71.4349 119.985 72.1535 120.01 72.7796 119.761C73.5056 119.473 74.0027 118.81 74.2309 118.079C74.5166 117.164 74.3656 116.179 74.2064 115.256C74.0501 114.35 73.8506 113.451 73.6127 112.563C73.1326 110.772 72.4946 109.026 71.7463 107.329C70.9974 105.631 70.1329 103.984 69.181 102.391C68.3676 101.03 67.3716 99.4913 65.8547 98.8456C65.2183 98.5747 64.4596 98.4345 63.7906 98.6756C63.1118 98.9202 62.6659 99.5189 62.4986 100.208C62.3182 100.951 62.4177 101.737 62.5816 102.473C62.769 103.315 63.0433 104.141 63.2996 104.963C63.4502 105.447 63.6044 105.929 63.7608 106.41C63.9009 106.842 64.5841 106.657 64.4429 106.222C64.1525 105.328 63.8704 104.432 63.6025 103.531C63.4097 102.882 63.2068 102.224 63.1371 101.549C63.0724 100.922 63.0906 100.195 63.5195 99.6885C63.9145 99.222 64.564 99.1969 65.1173 99.3373C66.561 99.7035 67.5333 101.08 68.2806 102.273C69.1792 103.709 69.983 105.212 70.705 106.743C71.4282 108.277 72.0552 109.856 72.5604 111.475C72.8145 112.29 73.0376 113.114 73.2257 113.946C73.4161 114.789 73.6072 115.653 73.6681 116.516C73.7214 117.272 73.6378 118.098 73.1086 118.685C72.6918 119.148 72.0511 119.318 71.4472 119.193C70.276 118.95 69.3908 117.895 68.7693 116.942C68.409 116.389 68.124 115.798 67.845 115.201C67.4567 114.37 67.0919 113.528 66.7475 112.677C66.0653 110.993 65.4616 109.28 64.8841 107.557C64.7351 107.113 64.5881 106.668 64.4429 106.222C64.3025 105.791 63.6192 105.976 63.7608 106.41Z" fill="black"/>
  <path d="M152.064 72.451L125.982 82.064L119.246 71.5913C114.672 72.2154 107.344 72.9213 99.8086 73.5949C100.959 76.0416 104.443 78.9251 105.676 80.0002C110.382 84.1023 118.007 87.0896 124.317 86.9906C131.77 86.8738 139.32 86.7124 146.839 86.7912C147.264 86.7957 147.701 86.8038 148.129 86.8467C150.901 82.6077 152.506 77.7132 152.064 72.451Z" fill="black"/>
  <path d="M151.978 72.1132C151.111 72.4328 150.244 72.7523 149.377 73.0719C147.296 73.8389 145.215 74.606 143.133 75.3731C140.634 76.2942 138.135 77.2153 135.636 78.1364C133.46 78.9383 131.284 79.7403 129.109 80.5422L126.958 81.3348C126.63 81.4556 126.249 81.5448 125.94 81.7102C125.926 81.7173 125.91 81.721 125.896 81.7262L126.296 81.8888C125.539 80.7131 124.783 79.5374 124.027 78.3618C122.816 76.4782 121.604 74.5947 120.393 72.7112C120.115 72.2795 119.838 71.8478 119.56 71.4161C119.465 71.2685 119.324 71.2312 119.16 71.2535C114.358 71.9073 109.524 72.3501 104.699 72.7996C103.072 72.9512 101.444 73.0989 99.8166 73.2445C99.5389 73.2693 99.3902 73.5231 99.5112 73.7767C100.132 75.0783 101.132 76.1993 102.131 77.2236C103.052 78.1689 104.038 79.0472 105.036 79.9095C106.122 80.8465 107.241 81.7246 108.451 82.4972C109.841 83.3847 111.307 84.1527 112.819 84.8084C115.868 86.1297 119.125 87.0442 122.446 87.2904C124.28 87.4263 126.132 87.3187 127.968 87.2883C130.043 87.2539 132.118 87.2198 134.193 87.1919C138.338 87.1362 142.483 87.105 146.629 87.1459C147.132 87.1509 147.635 87.1567 148.137 87.2037C148.262 87.2154 148.378 87.1266 148.442 87.0285C150.618 83.6895 152.094 79.8938 152.427 75.9047C152.523 74.7564 152.52 73.6025 152.426 72.4542C152.389 72.0036 151.682 71.9997 151.719 72.4542C152.038 76.3716 151.206 80.2747 149.477 83.7933C148.988 84.786 148.435 85.7449 147.831 86.6715L148.137 86.4963C147.129 86.402 146.106 86.4325 145.095 86.4266C144.072 86.4207 143.049 86.4189 142.026 86.4204C139.981 86.4233 137.935 86.4395 135.89 86.4632C133.849 86.4869 131.808 86.5182 129.767 86.5513C127.793 86.5834 125.815 86.659 123.841 86.6418C120.619 86.6137 117.412 85.8492 114.414 84.7011C111.434 83.5602 108.55 81.9842 106.115 79.9092C105.219 79.1456 104.33 78.3712 103.477 77.559C102.425 76.5558 101.384 75.4899 100.594 74.2618C100.42 73.9907 100.261 73.7106 100.122 73.4196L99.8166 73.9518C105.178 73.4724 110.541 72.9865 115.889 72.3678C117.043 72.2342 118.197 72.0924 119.349 71.9356L118.949 71.7731C119.705 72.9487 120.461 74.1244 121.218 75.3C122.429 77.1836 123.64 79.0671 124.852 80.9506C125.129 81.3823 125.407 81.814 125.685 82.2457C125.764 82.3687 125.935 82.4633 126.084 82.4083C126.951 82.0887 127.818 81.7692 128.685 81.4496C130.766 80.6825 132.848 79.9155 134.929 79.1484C137.428 78.2273 139.927 77.3062 142.426 76.3851C144.602 75.5831 146.778 74.7812 148.954 73.9793C150.01 73.5901 151.072 73.215 152.123 72.8113C152.137 72.8058 152.152 72.8006 152.166 72.7953C152.59 72.6392 152.407 71.9553 151.978 72.1132Z" fill="black"/>
  <path d="M37.4241 40.3228C37.314 41.4586 37.718 42.6274 38.5164 43.4455C39.295 44.2435 40.4167 44.6698 41.5269 44.6175L41.1858 44.3578C41.4703 45.5204 41.8196 46.7044 42.3372 47.7869C42.7881 48.73 43.6407 49.6186 44.7711 49.531L44.4175 49.1773C44.4217 50.265 44.4907 51.3765 44.9507 52.3791C45.3402 53.2278 46.0222 53.9264 46.9099 54.2395C47.34 54.3913 47.525 53.7081 47.0979 53.5574C45.3373 52.9363 45.131 50.7591 45.1248 49.1773C45.1241 48.9971 44.963 48.8088 44.7711 48.8236C43.7704 48.9011 43.1759 47.9854 42.8332 47.1747C42.4243 46.2072 42.1174 45.1889 41.8679 44.1698C41.8326 44.0254 41.6777 43.903 41.5269 43.9101C40.5946 43.9541 39.6725 43.6175 39.0166 42.9453C38.339 42.2509 38.0387 41.2797 38.1315 40.3228C38.1754 39.87 37.4677 39.8731 37.4241 40.3228Z" fill="black"/>
  <path d="M44.2435 35.8108C43.6216 37.6054 44.6965 39.5979 46.5464 40.0452C46.7547 40.0956 46.9708 40.1261 47.1851 40.1356C47.2788 40.1397 47.3774 40.1249 47.4702 40.1365C47.6071 40.1537 47.5798 40.1438 47.586 40.2909C47.6061 40.7666 47.6518 41.2351 47.7742 41.697C48.0118 42.5943 48.488 43.4476 49.184 44.0693C49.9579 44.7606 50.954 45.1735 51.9964 45.169L51.6554 44.9094C52.0571 46.5097 52.7099 48.4886 54.5734 48.8416C55.0183 48.9259 55.2089 48.2443 54.7614 48.1595C53.1596 47.8561 52.6782 46.0789 52.3375 44.7213C52.2999 44.5717 52.149 44.461 51.9964 44.4617C50.236 44.4693 48.8626 43.1063 48.4446 41.4648C48.3379 41.046 48.3149 40.6371 48.292 40.2084C48.2687 39.7746 48.0308 39.4751 47.5863 39.4345C47.1746 39.3969 46.8077 39.4122 46.41 39.2645C46.0429 39.1282 45.7095 38.9018 45.4408 38.6181C44.7803 37.921 44.6163 36.8916 44.9256 35.9989C45.075 35.5678 44.3919 35.3826 44.2435 35.8108Z" fill="black"/>
  <path d="M102.058 75.9431C109.902 81.5812 119.972 84.0048 129.921 83.1952C131.122 83.0975 132.32 82.9584 133.512 82.7812C140.751 81.7054 147.854 79.158 153.717 74.7774C159.58 70.3967 164.133 64.1018 165.775 56.9699C166.455 54.0175 166.637 50.9729 166.68 47.9435C166.813 38.6699 164.343 29.0656 159.275 21.2467C155.936 16.0947 151.438 11.5175 145.803 9.08137C134.804 4.32656 121.085 8.23739 110.883 1.95124C110.046 1.4353 109.234 0.850296 108.298 0.546783C107.363 0.243248 106.249 0.271911 105.496 0.905218C104.744 1.53852 104.599 2.87627 105.38 3.47438C103.803 3.25285 102.205 3.1798 100.614 3.2565C100.062 3.28314 99.4591 3.35025 99.0696 3.74282C98.5767 4.23963 98.6337 5.09403 99.0076 5.68571C99.3814 6.27739 99.9948 6.6681 100.588 7.03926C99.0524 5.87219 96.4837 6.57751 95.7593 8.36514C95.0349 10.1528 96.388 12.4474 98.3029 12.6786C96.1281 14.9393 94.7137 17.5384 93.2434 20.2603C86.2907 33.132 84.7321 50.4349 91.5208 63.72C94.099 68.7655 97.7416 72.8409 102.058 75.9431Z" fill="white"/>
  <path d="M101.888 76.2495C106.738 79.7218 112.402 81.9711 118.265 83.0079C124.377 84.0885 130.642 83.8407 136.706 82.571C142.651 81.3261 148.441 79.0251 153.387 75.463C157.935 72.1873 161.754 67.8268 164.146 62.7385C166.81 57.069 167.311 50.6782 166.972 44.4909C166.64 38.4417 165.241 32.4417 162.759 26.9107C160.386 21.6241 156.97 16.6389 152.52 12.8864C150.369 11.0724 147.973 9.56861 145.361 8.51407C142.755 7.46223 139.992 6.87403 137.215 6.50148C131.55 5.74175 125.788 5.89554 120.153 4.89103C117.442 4.40767 114.762 3.64087 112.315 2.35589C111.026 1.67855 109.855 0.700392 108.467 0.22938C107.329 -0.156394 105.824 -0.0949015 105.013 0.909495C104.364 1.71292 104.299 3.02754 105.138 3.72549L105.482 3.13436C104.345 2.97832 103.203 2.88431 102.055 2.8752C101.146 2.86799 99.9368 2.75057 99.1275 3.25869C98.4 3.71541 98.2178 4.63221 98.4951 5.41002C98.8169 6.31258 99.642 6.85923 100.418 7.34566C100.811 7.59224 101.135 6.99765 100.775 6.73486C99.0741 5.4931 96.3386 6.20946 95.4819 8.14108C94.5939 10.1434 96.0605 12.7167 98.217 13.0207L98.061 12.4295C96.3576 14.214 95.0368 16.2935 93.842 18.4412C92.7284 20.4431 91.6862 22.474 90.8053 24.5902C89.0371 28.8378 87.8533 33.3206 87.2519 37.8807C86.645 42.4819 86.6531 47.1646 87.3617 51.7539C88.0583 56.2661 89.4611 60.6888 91.6483 64.7042C93.8653 68.7744 96.9134 72.3733 100.552 75.2426C100.99 75.5879 101.435 75.9232 101.888 76.2495C102.257 76.5163 102.611 75.903 102.245 75.6388C98.5609 72.9809 95.4121 69.6156 93.0543 65.7299C90.713 61.8712 89.1652 57.5648 88.3161 53.1399C87.4671 48.7149 87.3204 44.1668 87.7527 39.6876C88.1872 35.1852 89.2231 30.7351 90.8077 26.4989C91.5857 24.4193 92.504 22.3946 93.5569 20.4399C94.6994 18.319 95.8572 16.1785 97.3679 14.2915C97.7454 13.8199 98.1441 13.3667 98.5612 12.9298C98.7254 12.7577 98.6828 12.3778 98.4051 12.3386C96.6762 12.0949 95.3778 10.0573 96.1342 8.4061C96.8509 6.84144 99.061 6.35504 100.418 7.34566L100.775 6.73486C100.17 6.35557 99.455 5.93315 99.1828 5.23414C98.8795 4.45554 99.2542 3.8143 100.058 3.6666C100.855 3.5202 101.727 3.5693 102.533 3.59099C103.456 3.61589 104.379 3.69085 105.294 3.81648C105.597 3.85811 105.945 3.48115 105.638 3.22535C105.211 2.87018 105.13 2.30963 105.313 1.79891C105.529 1.1989 106.079 0.858807 106.688 0.750904C108.142 0.493538 109.433 1.4601 110.594 2.18356C112.869 3.60204 115.4 4.55451 118.003 5.16893C123.343 6.4295 128.876 6.39477 134.313 6.88708C137.035 7.13353 139.756 7.51023 142.392 8.25225C145.03 8.99505 147.516 10.1394 149.782 11.6843C154.407 14.8381 158.023 19.3927 160.673 24.2822C163.499 29.4973 165.259 35.2896 165.973 41.172C166.336 44.1622 166.405 47.1703 166.273 50.1779C166.135 53.3022 165.729 56.4115 164.735 59.3866C163.004 64.5638 159.736 69.1573 155.658 72.7546C151.253 76.6406 145.878 79.3208 140.26 80.9557C134.499 82.632 128.396 83.3365 122.411 82.8381C116.616 82.3554 110.885 80.7276 105.796 77.8919C104.57 77.2088 103.386 76.4555 102.245 75.6388C101.874 75.3734 101.52 75.9866 101.888 76.2495Z" fill="black"/>
  <path d="M121.514 56.9518C113.291 57.1303 105.049 56.3309 97.0089 54.5981C89.1841 52.9117 82.2587 49.7567 74.8604 47.0455C71.3188 45.7476 67.8471 44.2546 64.4949 42.5236C63.4977 42.0087 62.3683 41.4574 61.3013 41.8053C60.2343 42.1532 59.7896 43.9371 60.8373 44.3393C58.7 45.4819 56.8143 47.0923 55.3515 49.0246C55.011 49.4744 54.6852 50.0903 54.9858 50.5677C55.4548 51.3129 56.5967 50.7126 57.2097 50.0805C56.6483 50.8506 56.2445 51.7351 56.0302 52.6637C55.9458 53.0293 55.9349 53.5011 56.2633 53.6828C56.5128 53.8208 56.8234 53.7057 57.0737 53.5692C57.6698 53.2442 58.2009 52.8003 58.6266 52.2714C58.1591 53.0042 57.7744 53.7898 57.4821 54.6085C57.3704 54.9216 57.2736 55.2752 57.4121 55.5774C57.6245 56.0411 58.3015 56.113 58.7396 55.8518C59.1777 55.5907 59.4317 55.1134 59.6643 54.6595C59.3665 55.1572 59.0603 55.6816 59.0329 56.261C59.0054 56.8404 59.3608 57.4824 59.9349 57.5649C60.6755 57.6714 61.1879 56.8911 61.7342 56.3798C63.3884 54.8319 66.0505 55.583 68.144 56.4488C77.0391 60.1278 85.7507 64.2894 94.8818 67.3359C104.013 70.3824 113.688 72.3011 123.263 71.3109" fill="white"/>
  <path d="M121.521 56.5997C116.835 56.6985 112.143 56.4856 107.485 55.9603C102.868 55.4397 98.241 54.6616 93.7556 53.4372C89.4785 52.2698 85.3321 50.6894 81.2029 49.0876C76.9752 47.4474 72.6771 45.9619 68.5444 44.0892C67.4979 43.615 66.4606 43.1203 65.4343 42.6038C64.4823 42.1248 63.5186 41.5248 62.4447 41.3781C61.6146 41.2646 60.789 41.4689 60.2893 42.1739C59.9222 42.6917 59.7539 43.4382 60.032 44.0324C60.1617 44.3097 60.3843 44.5264 60.6663 44.6464V44.0356C58.6232 45.1368 56.7985 46.6446 55.3528 48.4621C54.8096 49.1451 53.9634 50.4419 55.0355 51.1042C55.8492 51.6069 56.899 50.9009 57.4673 50.3322L56.9118 49.9036C56.4883 50.4952 56.1524 51.141 55.9121 51.828C55.7268 52.3579 55.4708 53.0812 55.751 53.6244C56.4508 54.9809 58.3495 53.1727 58.8843 52.5231L58.3288 52.0945C57.9142 52.7521 57.5643 53.4441 57.2795 54.1674C57.05 54.7503 56.7864 55.5039 57.3021 56.0198C57.6705 56.3882 58.2722 56.4364 58.7379 56.248C59.3477 56.0015 59.6911 55.3954 59.9773 54.8397C60.1848 54.4366 59.6012 54.0891 59.3665 54.4827C58.875 55.3067 58.3827 56.318 58.9363 57.2406C59.4479 58.0932 60.4221 58.0666 61.1287 57.4856C61.4805 57.1963 61.7553 56.8266 62.1029 56.5329C62.4444 56.2444 62.8543 56.0538 63.2864 55.9473C64.2111 55.7194 65.197 55.8722 66.1029 56.1129C67.1089 56.3803 68.0647 56.7926 69.0228 57.1929C70.1604 57.6683 71.295 58.1509 72.4281 58.6368C74.691 59.6073 76.9479 60.5916 79.2101 61.5636C83.7183 63.5004 88.2503 65.3918 92.88 67.0217C97.4746 68.6393 102.171 69.9933 106.967 70.8674C111.741 71.7376 116.617 72.1391 121.466 71.8188C122.069 71.7791 122.67 71.7276 123.271 71.6663C123.719 71.6205 123.724 70.9127 123.271 70.9589C118.564 71.4392 113.807 71.2319 109.136 70.5175C104.43 69.7978 99.8076 68.591 95.2906 67.0985C90.7516 65.5988 86.3114 63.8171 81.9112 61.9534C77.5297 60.0976 73.1821 58.1627 68.7887 56.3348C67.077 55.6226 65.1711 54.8568 63.2824 55.2247C62.3786 55.4008 61.7074 55.8952 61.0842 56.5472C60.8248 56.8186 60.4904 57.2227 60.0784 57.2217C59.6244 57.2206 59.3884 56.7033 59.3935 56.3086C59.4004 55.7733 59.7121 55.2843 59.9773 54.8397L59.3665 54.4827C59.1698 54.8647 58.9579 55.3254 58.5686 55.5481C58.3161 55.6925 57.8351 55.7231 57.7229 55.3826C57.6513 55.1653 57.7605 54.9067 57.8307 54.7042C57.9291 54.4205 58.044 54.1415 58.1688 53.8686C58.3927 53.3785 58.6523 52.9072 58.9396 52.4516C59.1495 52.1186 58.6428 51.7087 58.3841 52.023C58.0666 52.4086 57.7065 52.7538 57.2901 53.0316C57.098 53.1597 56.8636 53.332 56.6342 53.3759C56.3703 53.4264 56.3346 53.2385 56.3422 53.0215C56.3585 52.5483 56.5691 52.0313 56.7542 51.6016C56.9587 51.1268 57.222 50.6806 57.5226 50.2607C57.7604 49.9286 57.2447 49.5543 56.9672 49.8321C56.6867 50.1127 55.5068 51.0493 55.2499 50.2905C55.112 49.8834 55.5187 49.3917 55.7476 49.0962C56.0374 48.7221 56.3454 48.3617 56.6667 48.0144C57.9228 46.6564 59.3956 45.5238 61.0234 44.6464C61.2377 44.5309 61.2707 44.1409 61.0234 44.0357C60.4536 43.7933 60.5459 43.1045 60.8184 42.6545C61.2959 41.8659 62.3148 41.9962 63.0688 42.2579C64.0893 42.612 65.0404 43.204 66.0098 43.6765C67.0036 44.1609 68.007 44.6256 69.0186 45.0715C72.986 46.82 77.0907 48.2478 81.1317 49.815C85.104 51.3556 89.0929 52.8731 93.2007 54.0182C97.4822 55.2117 101.892 55.9798 106.299 56.5273C110.775 57.0832 115.287 57.3533 119.797 57.3303C120.372 57.3273 120.947 57.3193 121.521 57.3072C121.976 57.2976 121.978 56.5901 121.521 56.5997Z" fill="black"/>
  <path d="M97.2154 12.6413C99.5913 13.6582 102.3 13.6182 104.641 12.5185C105.053 12.3251 104.694 11.7151 104.284 11.9077C102.198 12.888 99.6938 12.9385 97.5724 12.0305C97.3955 11.9548 97.1952 11.9793 97.0885 12.1574C96.9998 12.3055 97.04 12.5663 97.2154 12.6413Z" fill="black"/>
  <path d="M91.0056 32.6187C90.1838 32.6585 89.0814 32.9832 89.1559 34.0152C89.2254 34.9775 90.3489 35.557 91.1824 35.7122C91.7029 35.8091 92.2386 35.8387 92.7667 35.8656C93.2317 35.8892 93.7213 35.8831 94.1692 35.7405C94.6404 35.5904 95.0842 35.2842 95.2703 34.8101C95.4678 34.3072 95.2517 33.8165 94.8402 33.5036C94.3477 33.129 93.6735 32.9482 93.0791 32.813C92.3998 32.6586 91.7015 32.5945 91.0056 32.6187C90.5517 32.6345 90.5496 33.342 91.0056 33.3261C91.9259 33.2941 92.8348 33.425 93.7049 33.7292C93.9974 33.8315 94.4691 33.9699 94.6099 34.2819C94.7621 34.6192 94.348 34.9155 94.0812 35.0235C93.436 35.2846 92.6437 35.1605 91.9701 35.1043C91.2766 35.0463 90.5227 34.9061 90.0452 34.3481C89.8445 34.1135 89.7712 33.7835 90.0475 33.5735C90.3091 33.3748 90.6892 33.3414 91.0056 33.3261C91.4587 33.3042 91.4614 32.5966 91.0056 32.6187Z" fill="black"/>
  <path d="M91.9491 34.2188C91.7104 35.5545 89.4527 34.9618 90.0436 33.6862C90.2073 33.3327 90.6934 33.2616 91.0372 33.2714C91.2346 33.277 91.4384 33.3045 91.6068 33.4076C91.8727 33.5705 92.0039 33.9118 91.9491 34.2188Z" fill="black"/>
  <path d="M91.6007 34.1269C91.5931 34.1674 91.5841 34.2075 91.5723 34.247C91.5663 34.2673 91.5591 34.287 91.5525 34.3071C91.5268 34.3861 91.5794 34.2577 91.5545 34.3029C91.537 34.3345 91.5216 34.367 91.502 34.3976C91.4923 34.4129 91.4775 34.4278 91.4701 34.4442C91.4679 34.4488 91.5242 34.3794 91.501 34.404C91.4921 34.4134 91.4841 34.4242 91.4755 34.4338C91.453 34.4588 91.429 34.4823 91.4037 34.5043C91.3922 34.5143 91.3464 34.5514 91.3979 34.5103C91.4516 34.4676 91.3919 34.5129 91.3777 34.5219C91.3499 34.5397 91.3209 34.5546 91.2919 34.5702C91.2291 34.6041 91.3255 34.5591 91.3141 34.5623C91.2948 34.5677 91.2761 34.5769 91.257 34.5832C91.2256 34.5937 91.1937 34.6024 91.1614 34.6097C91.1439 34.6137 91.1262 34.6166 91.1087 34.6202C91.0392 34.6344 91.1867 34.6135 91.134 34.6173C91.0612 34.6225 90.9896 34.6262 90.9166 34.6209C90.8984 34.6196 90.8802 34.6166 90.8621 34.6157C90.8257 34.6139 90.9251 34.6252 90.9173 34.6232C90.9075 34.6206 90.8963 34.6201 90.8864 34.6182C90.8505 34.6112 90.8148 34.6042 90.7794 34.5948C90.7468 34.5862 90.7144 34.5763 90.6825 34.5651C90.6657 34.5591 90.6489 34.5503 90.6317 34.5459C90.624 34.544 90.7126 34.5824 90.6805 34.5666C90.669 34.561 90.657 34.5561 90.6454 34.5505C90.5827 34.5206 90.5282 34.4808 90.4688 34.4457C90.4595 34.4402 90.539 34.5053 90.4872 34.4595C90.4761 34.4496 90.4646 34.4402 90.4536 34.4301C90.4262 34.405 90.4022 34.3774 90.3767 34.3506C90.3304 34.3019 90.4179 34.4125 90.3911 34.3705C90.3832 34.3582 90.3742 34.3467 90.3662 34.3344C90.3469 34.3046 90.334 34.2669 90.3132 34.2387C90.3018 34.2235 90.3446 34.3269 90.3261 34.2691C90.3209 34.2527 90.3146 34.2366 90.3097 34.22C90.2999 34.187 90.2986 34.1492 90.2871 34.1173C90.2874 34.1184 90.2949 34.2169 90.2944 34.1654C90.2943 34.1577 90.2932 34.1498 90.2928 34.142C90.2918 34.1235 90.2914 34.105 90.2917 34.0865C90.292 34.0703 90.2932 34.0541 90.294 34.0378C90.2944 34.0274 90.298 34.0148 90.2971 34.0048C90.2977 34.0119 90.28 34.0951 90.2918 34.0484C90.3012 34.011 90.3074 33.9731 90.3185 33.9359C90.3248 33.9149 90.3318 33.8942 90.3393 33.8736C90.3426 33.8645 90.3466 33.8556 90.3497 33.8464C90.3623 33.8092 90.3078 33.928 90.3416 33.8668C90.353 33.8461 90.3653 33.8249 90.3759 33.8038C90.4017 33.7528 90.3659 33.829 90.3619 33.8187C90.3609 33.8164 90.3827 33.7949 90.3849 33.7927C90.392 33.7859 90.4365 33.7345 90.444 33.7375C90.4498 33.7397 90.3821 33.7758 90.4191 33.7581C90.4327 33.7516 90.4455 33.7407 90.4586 33.7329C90.4636 33.7299 90.525 33.6897 90.5319 33.6942C90.5339 33.6955 90.4638 33.7188 90.5026 33.7063C90.5179 33.7014 90.5328 33.6949 90.548 33.6897C90.6021 33.6712 90.6576 33.657 90.7136 33.646C90.7257 33.6436 90.7379 33.6418 90.7499 33.6392C90.8159 33.6252 90.6957 33.6433 90.7405 33.6397C90.7685 33.6374 90.7965 33.6336 90.8245 33.6316C90.8856 33.6272 90.9469 33.6256 91.0082 33.6268C91.0484 33.6275 91.0887 33.6292 91.1289 33.6322C91.1453 33.6334 91.1619 33.6358 91.1784 33.6365C91.2357 33.6392 91.1004 33.6197 91.1991 33.6398C91.2368 33.6475 91.2742 33.6555 91.3111 33.6664C91.332 33.6726 91.3525 33.68 91.3731 33.6871C91.4186 33.7026 91.3395 33.6622 91.3781 33.6912C91.3906 33.7006 91.4075 33.707 91.421 33.7153C91.4309 33.7213 91.4876 33.7675 91.4502 33.7337C91.4164 33.7031 91.4498 33.7349 91.4549 33.7401C91.4673 33.7527 91.4803 33.7645 91.4923 33.7774C91.5044 33.7903 91.5156 33.8038 91.5269 33.8174C91.5095 33.7964 91.4983 33.7749 91.518 33.8103C91.522 33.8175 91.5752 33.8979 91.5694 33.9033C91.5676 33.9049 91.5471 33.8397 91.5595 33.8804C91.566 33.9017 91.5744 33.9224 91.5805 33.9438C91.584 33.9562 91.597 34.0458 91.6033 34.0485C91.5983 34.0464 91.5992 33.9803 91.5981 34.0211C91.5976 34.0387 91.6001 34.0569 91.6002 34.0746C91.6004 34.0987 91.5854 34.2216 91.6007 34.1269C91.5714 34.3088 91.6475 34.5165 91.8477 34.5621C92.0176 34.6008 92.2513 34.5104 92.2827 34.3151C92.3438 33.9355 92.2563 33.5503 91.9834 33.2677C91.7093 32.9839 91.2975 32.9102 90.9183 32.9197C90.6245 32.9271 90.2984 32.9819 90.0525 33.1539C89.8059 33.3264 89.6528 33.5895 89.6058 33.8858C89.53 34.3621 89.7283 34.7847 90.118 35.061C90.4576 35.302 90.8998 35.3742 91.3043 35.3011C91.8025 35.2111 92.1902 34.8092 92.2827 34.3151C92.3167 34.1338 92.2326 33.9248 92.0357 33.88C91.8618 33.8404 91.6371 33.9324 91.6007 34.1269Z" fill="black"/>
  <path d="M101.97 34.149C101.149 34.1888 100.046 34.5135 100.121 35.5454C100.19 36.5077 101.314 37.0872 102.147 37.2425C102.668 37.3394 103.203 37.369 103.731 37.3958C104.197 37.4195 104.686 37.4134 105.134 37.2708C105.605 37.1207 106.049 36.8145 106.235 36.3404C106.433 35.8375 106.217 35.3468 105.805 35.0339C105.312 34.6593 104.638 34.4785 104.044 34.3433C103.365 34.1888 102.666 34.1248 101.97 34.149C101.517 34.1648 101.514 34.8722 101.97 34.8564C102.891 34.8244 103.8 34.9553 104.67 35.2595C104.962 35.3617 105.434 35.5001 105.575 35.8122C105.727 36.1495 105.313 36.4458 105.046 36.5538C104.401 36.8148 103.609 36.6908 102.935 36.6345C102.241 36.5766 101.487 36.4364 101.01 35.8784C100.809 35.6438 100.736 35.3138 101.012 35.1038C101.274 34.905 101.654 34.8717 101.97 34.8564C102.424 34.8344 102.426 34.1269 101.97 34.149Z" fill="black"/>
  <path d="M102.91 35.749C102.671 37.0848 100.414 36.4921 101.004 35.2164C101.168 34.8629 101.654 34.7918 101.998 34.8016C102.196 34.8073 102.399 34.8347 102.568 34.9379C102.834 35.1007 102.965 35.4421 102.91 35.749Z" fill="black"/>
  <path d="M102.569 35.6532C102.562 35.6937 102.553 35.7338 102.541 35.7734C102.535 35.7936 102.528 35.8134 102.521 35.8335C102.496 35.9124 102.548 35.784 102.523 35.8292C102.506 35.8609 102.49 35.8933 102.471 35.9239C102.461 35.9393 102.446 35.9542 102.439 35.9705C102.437 35.9752 102.493 35.9058 102.47 35.9303C102.461 35.9398 102.453 35.9505 102.444 35.9602C102.422 35.9852 102.398 36.0087 102.372 36.0307C102.361 36.0407 102.315 36.0778 102.367 36.0367C102.42 35.9939 102.361 36.0392 102.346 36.0483C102.319 36.0661 102.29 36.081 102.261 36.0966C102.198 36.1305 102.294 36.0855 102.283 36.0887C102.264 36.0941 102.245 36.1033 102.226 36.1096C102.194 36.12 102.162 36.1288 102.13 36.1361C102.113 36.1401 102.095 36.143 102.077 36.1466C102.008 36.1607 102.155 36.1399 102.103 36.1437C102.03 36.1489 101.958 36.1526 101.885 36.1473C101.867 36.146 101.849 36.1429 101.831 36.142C101.794 36.1403 101.894 36.1516 101.886 36.1495C101.876 36.147 101.865 36.1465 101.855 36.1446C101.819 36.1376 101.784 36.1305 101.748 36.1212C101.716 36.1126 101.683 36.1026 101.651 36.0914C101.634 36.0855 101.618 36.0767 101.6 36.0723C101.593 36.0703 101.681 36.1087 101.649 36.093C101.638 36.0873 101.626 36.0824 101.614 36.0769C101.551 36.0469 101.497 36.0071 101.438 35.9721C101.428 35.9666 101.508 36.0317 101.456 35.9859C101.445 35.976 101.433 35.9665 101.422 35.9565C101.395 35.9314 101.371 35.9038 101.345 35.8769C101.299 35.8283 101.387 35.9389 101.36 35.8969C101.352 35.8846 101.343 35.873 101.335 35.8608C101.316 35.831 101.303 35.7932 101.282 35.7651C101.271 35.7499 101.313 35.8532 101.295 35.7955C101.29 35.779 101.283 35.763 101.278 35.7464C101.269 35.7133 101.267 35.6756 101.256 35.6436C101.256 35.6448 101.264 35.7432 101.263 35.6918C101.263 35.684 101.262 35.6761 101.262 35.6684C101.261 35.6499 101.26 35.6314 101.26 35.6129C101.261 35.5966 101.262 35.5804 101.263 35.5642C101.263 35.5538 101.267 35.5412 101.266 35.5312C101.266 35.5383 101.249 35.6215 101.261 35.5748C101.27 35.5374 101.276 35.4994 101.287 35.4623C101.294 35.4413 101.301 35.4205 101.308 35.3999C101.311 35.3909 101.315 35.3819 101.318 35.3728C101.331 35.3356 101.277 35.4544 101.31 35.3932C101.322 35.3725 101.334 35.3513 101.345 35.3302C101.37 35.2792 101.335 35.3554 101.331 35.3451C101.33 35.3427 101.351 35.3213 101.354 35.3191C101.361 35.3122 101.405 35.2609 101.413 35.2638C101.419 35.2661 101.351 35.3022 101.388 35.2844C101.401 35.2779 101.414 35.267 101.427 35.2593C101.432 35.2563 101.494 35.2161 101.501 35.2206C101.503 35.2218 101.433 35.2451 101.471 35.2327C101.487 35.2278 101.502 35.2213 101.517 35.2161C101.571 35.1976 101.626 35.1834 101.682 35.1723C101.694 35.17 101.707 35.1681 101.719 35.1656C101.785 35.1516 101.664 35.1696 101.709 35.166C101.737 35.1638 101.765 35.16 101.793 35.158C101.854 35.1535 101.916 35.152 101.977 35.1531C102.017 35.1539 102.057 35.1555 102.098 35.1585C102.114 35.1597 102.131 35.1621 102.147 35.1629C102.204 35.1656 102.069 35.1461 102.168 35.1662C102.206 35.1739 102.243 35.1818 102.28 35.1927C102.301 35.1989 102.321 35.2064 102.342 35.2134C102.387 35.229 102.308 35.1885 102.347 35.2176C102.359 35.227 102.376 35.2334 102.39 35.2417C102.4 35.2477 102.456 35.2939 102.419 35.2601C102.385 35.2295 102.419 35.2612 102.424 35.2664C102.436 35.279 102.449 35.2908 102.461 35.3038C102.473 35.3167 102.484 35.3302 102.496 35.3438C102.478 35.3228 102.467 35.3012 102.487 35.3366C102.491 35.3439 102.544 35.4243 102.538 35.4297C102.536 35.4313 102.516 35.3661 102.528 35.4067C102.535 35.428 102.543 35.4487 102.549 35.4702C102.553 35.4825 102.566 35.5722 102.572 35.5749C102.567 35.5727 102.568 35.5067 102.567 35.5474C102.566 35.5651 102.569 35.5832 102.569 35.601C102.569 35.625 102.554 35.748 102.569 35.6532C102.54 35.8351 102.616 36.0429 102.816 36.0884C102.986 36.1271 103.22 36.0367 103.251 35.8414C103.313 35.4619 103.225 35.0767 102.952 34.7941C102.678 34.5103 102.266 34.4366 101.887 34.4461C101.593 34.4535 101.267 34.5083 101.021 34.6803C100.775 34.8528 100.622 35.1159 100.575 35.4121C100.499 35.8885 100.697 36.311 101.087 36.5874C101.426 36.8284 101.869 36.9006 102.273 36.8275C102.771 36.7375 103.159 36.3356 103.251 35.8414C103.285 35.6602 103.201 35.4512 103.004 35.4064C102.831 35.3668 102.606 35.4588 102.569 35.6532Z" fill="black"/>
  <path d="M57.1474 61.4438C57.3537 63.4229 57.0457 65.4061 56.676 67.3469C56.5579 67.967 56.5906 68.0467 55.9489 67.9909C55.4658 67.949 54.9842 67.8816 54.507 67.7954C53.5888 67.6294 52.6847 67.3858 51.8077 67.0673C50.9429 66.7532 50.0669 66.3602 49.1484 66.4126C49.886 64.3506 50.1945 62.2742 51.4641 60.424C51.9626 59.6975 52.5914 59.0301 53.3934 58.6653C54.1954 58.3004 55.1931 58.2842 55.9176 58.7857C56.7465 59.3595 57.0429 60.4412 57.1474 61.4438Z" fill="black"/>
  <path d="M56.7996 61.4433C56.9978 63.4344 56.6878 65.4049 56.3211 67.3576C56.3073 67.431 56.2393 67.6419 56.2505 67.6867C56.2616 67.7313 56.2285 67.659 56.2646 67.6716C56.2909 67.6808 56.3296 67.6586 56.2399 67.651C55.8129 67.6152 55.3899 67.5824 54.9655 67.5148C54.0095 67.3624 53.067 67.1283 52.1518 66.8122C51.1734 66.4742 50.2143 66.016 49.1543 66.0584L49.4953 66.5061C50.1402 64.6873 50.4844 62.7388 51.4815 61.0621C51.9367 60.2967 52.518 59.5556 53.3042 59.11C54.0393 58.6934 55.023 58.5824 55.745 59.0906C56.4784 59.6069 56.708 60.6048 56.7996 61.4433C56.8484 61.891 57.5563 61.896 57.5069 61.4433C57.4068 60.5261 57.1877 59.5761 56.5536 58.8714C55.8809 58.1237 54.8281 57.9116 53.8731 58.1318C51.7802 58.6143 50.5958 60.903 49.9392 62.7501C49.5213 63.9258 49.2303 65.1419 48.8132 66.318C48.7377 66.531 48.9361 66.7745 49.1543 66.7658C50.1607 66.7255 51.0827 67.1932 52.0128 67.5112C53.0109 67.8524 54.0415 68.0966 55.0861 68.2431C55.6421 68.3211 56.6673 68.6225 56.9221 67.9009C57.0496 67.5397 57.0835 67.1257 57.1506 66.7506C57.2482 66.2048 57.3353 65.6572 57.4068 65.1073C57.5649 63.8918 57.6286 62.6652 57.5069 61.4433C57.4623 60.9945 56.7544 60.9899 56.7996 61.4433Z" fill="black"/>
  <path d="M49.0534 33.9228C48.5211 33.8085 48.0047 34.1904 47.6786 34.6263C47.3921 35.0092 47.1817 35.5122 47.3478 35.9606C47.5099 36.3985 47.995 36.6488 48.4611 36.6756C48.9273 36.7023 49.3829 36.5495 49.8248 36.3987C50.2111 36.2668 50.5975 36.1349 50.9838 36.0031C51.0788 35.9706 51.1786 35.9377 51.2777 35.9542C51.3882 35.9726 51.4786 36.049 51.5671 36.1177C52.1254 36.5517 52.8383 36.7824 53.545 36.7575" fill="white"/>
  <path d="M49.1439 33.5776C48.2023 33.4206 47.3879 34.1685 47.0596 35.0004C46.7195 35.862 47.1641 36.7198 48.0537 36.9619C48.9936 37.2177 50.0089 36.7036 50.8811 36.4059C50.9899 36.3688 51.1319 36.286 51.2486 36.3183C51.3429 36.3444 51.4528 36.4721 51.5341 36.5276C51.7126 36.6493 51.9033 36.7477 52.1018 36.8319C52.5585 37.0257 53.0455 37.1167 53.5415 37.107C53.9961 37.0982 53.9976 36.3908 53.5415 36.3996C53.1699 36.4069 52.8085 36.3522 52.4602 36.219C52.1126 36.086 51.8584 35.8261 51.532 35.6683C51.161 35.4888 50.7597 35.701 50.4033 35.8227C50.02 35.9535 49.6384 36.0966 49.2486 36.2075C48.7234 36.3571 47.6408 36.4296 47.6392 35.6126C47.6381 35.0359 48.3221 34.154 48.9558 34.2597C49.4011 34.334 49.5926 33.6525 49.1439 33.5776Z" fill="black"/>
  <path d="M57.8739 91.0289C58.1525 93.4042 58.4615 95.7759 58.8002 98.1433C58.8275 98.3338 59.0675 98.4346 59.2353 98.3903C59.439 98.3366 59.5092 98.1434 59.4823 97.9553C59.1526 95.6504 58.8525 93.3414 58.5813 91.0289C58.5289 90.5822 57.8209 90.5769 57.8739 91.0289Z" fill="black"/>
  <path d="M91.6426 106.362C97.3142 104.078 102.928 101.653 108.49 99.1121C113.998 96.5952 119.454 93.966 124.872 91.2594C127.964 89.7145 131.043 88.1443 134.113 86.5561C134.518 86.3469 134.161 85.7363 133.756 85.9453C128.352 88.7412 122.917 91.4809 117.437 94.1265C111.984 96.759 106.486 99.2984 100.932 101.712C97.791 103.077 94.6317 104.401 91.4545 105.68C91.0376 105.848 91.2197 106.533 91.6426 106.362Z" fill="black"/>
  <path d="M70.0161 86.1011C75.0125 85.7947 80.0095 85.4876 84.9968 85.0542C89.9726 84.6218 94.9404 84.0636 99.8706 83.2582C102.653 82.8037 105.422 82.2686 108.169 81.6354C108.613 81.5332 108.425 80.851 107.981 80.9533C103.126 82.0724 98.2034 82.8825 93.2588 83.4909C88.3274 84.0976 83.3744 84.5115 78.4183 84.8555C75.6186 85.0499 72.8174 85.2219 70.0161 85.3937C69.5639 85.4214 69.5608 86.129 70.0161 86.1011Z" fill="black"/>
  <path d="M85.7593 98.9158C89.4646 101.835 91.9149 106.175 92.4111 110.877C92.5607 112.295 92.5459 113.734 92.3515 115.147C92.3252 115.338 92.3977 115.525 92.5985 115.582C92.7633 115.63 93.0075 115.524 93.0335 115.335C93.7287 110.284 92.304 105.135 89.0784 101.183C88.2435 100.16 87.2966 99.2326 86.2594 98.4156C85.9057 98.1369 85.4018 98.6342 85.7593 98.9158Z" fill="black"/>
  <path d="M150.258 102.506C149.554 102.479 148.875 102.263 148.283 101.881C147.929 101.654 146.95 100.976 147.343 100.473C147.696 100.023 148.379 100.057 148.883 100.08C149.557 100.11 150.227 100.093 150.763 99.6296C150.914 99.4991 150.882 99.2646 150.763 99.1295C149.83 98.0658 148.172 95.8483 149.676 94.5634C150.73 93.6631 152.464 94.3014 153.219 95.2778C153.313 95.3996 153.525 95.4049 153.648 95.3331C153.794 95.2476 153.833 95.0911 153.81 94.9337C153.483 92.6808 153.099 89.7608 155.113 88.1499C155.84 87.5687 156.846 87.206 157.765 87.495C158.675 87.7808 159.182 88.6296 159.363 89.5182C159.591 90.6391 159.409 91.8316 159.18 92.9369C159.099 93.3276 159.603 93.5539 159.826 93.2095C160.499 92.1677 162.04 91.8152 163.092 92.4811C164.153 93.1523 164.447 94.7066 163.799 95.7525L164.41 96.1095C164.713 95.5523 165.536 95.8256 165.876 96.205C166.534 96.9399 166.038 98.2087 165.757 98.996C165.645 99.309 166.023 99.5217 166.276 99.3954C167.212 98.9293 168.398 99.0196 169.24 99.6488C170.047 100.252 170.448 101.273 170.351 102.263C170.306 102.716 171.014 102.713 171.058 102.263C171.181 101.021 170.603 99.7703 169.597 99.038C168.536 98.266 167.078 98.2078 165.919 98.7846L166.439 99.184C166.833 98.0814 167.296 96.4775 166.243 95.5775C165.548 94.9836 164.3 94.8331 163.799 95.7525C163.581 96.1529 164.17 96.497 164.41 96.1095C165.068 95.0458 164.97 93.6045 164.23 92.6051C163.461 91.567 162.107 91.2014 160.889 91.5897C160.2 91.8096 159.609 92.2437 159.215 92.8524L159.862 93.125C160.277 91.1175 160.611 88.0661 158.363 86.9777C157.33 86.4773 156.131 86.6782 155.171 87.2536C154.092 87.9004 153.383 88.9396 153.071 90.1481C152.65 91.7782 152.89 93.4837 153.128 95.1218L153.719 94.7777C152.915 93.7385 151.392 93.1881 150.116 93.553C149.48 93.7352 148.936 94.1677 148.645 94.7672C148.282 95.5175 148.341 96.3649 148.635 97.1282C148.996 98.0653 149.605 98.8802 150.263 99.6297V99.1295C149.689 99.625 148.742 99.2859 148.059 99.3852C147.431 99.4766 146.694 99.836 146.562 100.521C146.404 101.344 147.248 102.037 147.852 102.444C148.563 102.922 149.404 103.181 150.258 103.214C150.713 103.231 150.712 102.524 150.258 102.506Z" fill="black"/>
  <path d="M159.086 102.503C159.075 102.46 159.064 102.417 159.058 102.372C159.068 102.445 159.058 102.349 159.057 102.334C159.055 102.289 159.056 102.245 159.059 102.201C159.06 102.181 159.074 102.1 159.062 102.162C159.077 102.085 159.099 102.012 159.122 101.937C159.137 101.898 159.138 101.895 159.124 101.928C159.133 101.907 159.142 101.887 159.152 101.867C159.167 101.837 159.183 101.807 159.2 101.778C159.337 101.546 159.542 101.38 159.805 101.32C159.821 101.317 159.838 101.313 159.855 101.31C159.817 101.314 159.819 101.314 159.862 101.31C159.901 101.307 159.941 101.305 159.98 101.306C160.02 101.307 160.059 101.309 160.098 101.314C160.026 101.304 160.14 101.324 160.154 101.328C160.193 101.337 160.231 101.348 160.268 101.36C160.29 101.368 160.311 101.375 160.332 101.384C160.305 101.372 160.303 101.371 160.326 101.382C160.398 101.416 160.467 101.455 160.533 101.5C160.547 101.51 160.561 101.52 160.575 101.53C160.548 101.509 160.551 101.512 160.583 101.538C160.612 101.566 160.642 101.592 160.67 101.62C160.698 101.648 160.725 101.678 160.75 101.708C160.711 101.661 160.778 101.748 160.785 101.76C160.807 101.793 160.827 101.827 160.845 101.862C160.856 101.882 160.866 101.902 160.875 101.922C160.864 101.895 160.863 101.893 160.872 101.916C160.902 101.996 160.922 102.078 160.935 102.163C160.964 102.352 161.201 102.456 161.37 102.41C161.572 102.354 161.646 102.164 161.617 101.975C161.514 101.303 160.906 100.732 160.242 100.626C159.536 100.513 158.847 100.878 158.534 101.525C158.357 101.89 158.299 102.296 158.404 102.691C158.521 103.131 159.204 102.944 159.086 102.503Z" fill="black"/>
  <path d="M95.3985 43.5064C95.4153 44.2462 95.8459 44.8739 96.4651 45.2575C97.1047 45.6538 97.8676 45.7278 98.5892 45.5445C100.21 45.1329 101.501 43.6524 102.335 42.2796C102.573 41.8895 101.961 41.5337 101.725 41.9226C101.034 43.0589 100.016 44.2737 98.7356 44.7574C98.1822 44.9665 97.5677 45.0203 97.0226 44.7574C96.5284 44.5191 96.1188 44.0772 96.1059 43.5064C96.0956 43.0519 95.3882 43.0502 95.3985 43.5064Z" fill="black"/>
  <path d="M101.258 41.6051C101.319 41.6463 101.379 41.6893 101.437 41.7341L101.365 41.6788C101.597 41.8593 101.806 42.0678 101.986 42.3001L101.931 42.2285C101.996 42.3136 102.058 42.4015 102.116 42.4921C102.164 42.5689 102.238 42.6301 102.327 42.6546C102.412 42.6779 102.524 42.6674 102.6 42.619C102.756 42.5183 102.833 42.3021 102.726 42.135C102.438 41.6807 102.061 41.2964 101.615 40.9943C101.542 40.9448 101.426 40.9359 101.343 40.9587C101.261 40.9813 101.172 41.0447 101.131 41.1212C101.037 41.3002 101.095 41.4939 101.258 41.6051Z" fill="black"/>
  <path d="M96.0932 36.9838C95.3164 36.7815 94.4193 36.8318 93.9013 37.5219C93.6821 37.8139 93.586 38.1866 93.6547 38.5463C93.7236 38.9071 93.992 39.1952 94.2992 39.3773C94.465 39.4755 94.6475 39.5482 94.8288 39.6122C95.0593 39.6935 95.2933 39.7738 95.5243 39.6439C95.6857 39.5531 95.7535 39.3187 95.6512 39.16C95.546 38.9967 95.34 38.936 95.1673 39.0331C95.1599 39.0372 95.3132 39.0054 95.2541 39.0102C95.2153 39.0133 95.2705 39.0111 95.2764 39.0134C95.2457 39.0012 95.2114 38.9948 95.1798 38.9847C95.1207 38.9657 95.0617 38.9462 95.0033 38.9253C94.9715 38.914 94.9398 38.9023 94.9083 38.8901C94.8959 38.8853 94.8195 38.8532 94.8568 38.8698C94.8947 38.8866 94.8045 38.8452 94.7941 38.8402C94.7641 38.8257 94.7345 38.8105 94.7054 38.7945C94.6519 38.7652 94.6012 38.7325 94.5509 38.6981C94.4957 38.6603 94.585 38.7305 94.5361 38.6856C94.5127 38.6641 94.4891 38.6431 94.467 38.6202C94.4448 38.597 94.4056 38.5427 94.4437 38.5989C94.4284 38.5763 94.4126 38.5544 94.3987 38.5309C94.3845 38.5072 94.3731 38.4821 94.36 38.4579C94.3973 38.5269 94.3552 38.4373 94.3486 38.4118C94.3452 38.3987 94.3436 38.3845 94.3395 38.3717C94.3263 38.3299 94.3468 38.3986 94.3416 38.3985C94.3376 38.3983 94.337 38.3065 94.3371 38.3035C94.3372 38.2903 94.3395 38.2064 94.3374 38.2555C94.3354 38.3013 94.3368 38.2587 94.339 38.2484C94.3428 38.2305 94.3462 38.2125 94.3506 38.1947C94.3583 38.1633 94.3678 38.1324 94.3785 38.1019C94.3832 38.0888 94.3883 38.0758 94.3932 38.0628C94.3915 38.0672 94.3659 38.1171 94.3858 38.0832C94.4192 38.0262 94.4512 37.9692 94.4866 37.9132C94.5077 37.8801 94.4776 37.9248 94.4745 37.9283C94.4839 37.9176 94.4928 37.9064 94.5022 37.8957C94.5241 37.8707 94.547 37.8466 94.571 37.8236C94.5916 37.8038 94.6139 37.7861 94.6347 37.7668C94.5858 37.8123 94.6427 37.7618 94.666 37.7467C94.6936 37.7288 94.722 37.7122 94.7512 37.697C94.7664 37.689 94.8411 37.6555 94.7896 37.6764C94.862 37.647 94.9377 37.6248 95.0139 37.6079C95.0303 37.6043 95.0468 37.601 95.0632 37.5979C95.0697 37.5967 95.1367 37.5858 95.0993 37.5911C95.0605 37.5965 95.1157 37.5895 95.1192 37.5893C95.1473 37.5869 95.1754 37.5845 95.2036 37.5831C95.283 37.579 95.3627 37.5798 95.4421 37.5847C95.4878 37.5875 95.5332 37.5925 95.5788 37.597C95.6207 37.6011 95.5769 37.5969 95.57 37.5957C95.5926 37.5994 95.6153 37.6028 95.6378 37.6068C95.7278 37.6225 95.8168 37.643 95.9052 37.666C96.084 37.7126 96.2975 37.607 96.3403 37.419C96.3824 37.2342 96.2848 37.0337 96.0932 36.9838Z" fill="black"/>
  <path d="M91.3678 28.9441C92.1731 29.3191 93.0408 29.089 93.7904 28.6872C94.5295 28.2911 95.2008 27.7565 95.7683 27.1405C96.0764 26.8061 95.5774 26.3046 95.2682 26.6403C94.7826 27.1674 94.2295 27.6191 93.6088 27.9783C93.0716 28.2892 92.3397 28.6196 91.7248 28.3333C91.5517 28.2527 91.3436 28.2846 91.2409 28.4602C91.1514 28.6132 91.1938 28.8631 91.3678 28.9441Z" fill="black"/>
  <path d="M109.536 30.7142C109.405 29.4862 108.848 28.3183 107.918 27.493C106.974 26.6547 105.724 26.2047 104.462 26.2419C104.008 26.2552 104.006 26.9626 104.462 26.9492C106.651 26.8849 108.595 28.5176 108.829 30.7142C108.849 30.9041 108.977 31.0678 109.183 31.0678C109.358 31.0678 109.557 30.9053 109.536 30.7142Z" fill="black"/>
  <path d="M125.035 31.0776C124.96 31.2836 124.891 31.4913 124.832 31.7023C124.942 31.5018 125.006 31.2918 125.035 31.0776Z" fill="black"/>
  <path d="M124.692 30.9826C124.617 31.1886 124.548 31.3963 124.489 31.6073C124.465 31.6917 124.476 31.805 124.524 31.8799C124.567 31.9455 124.621 31.994 124.693 32.0245C124.764 32.0542 124.849 32.0665 124.924 32.0424C125.01 32.0145 125.091 31.9615 125.135 31.8799C125.255 31.6595 125.339 31.4192 125.374 31.1707C125.389 31.1237 125.391 31.0767 125.38 31.0296C125.378 30.9826 125.364 30.9387 125.338 30.8981C125.295 30.8248 125.211 30.7548 125.127 30.7356C125.036 30.715 124.935 30.7194 124.854 30.7713L124.783 30.8265C124.739 30.8707 124.709 30.9227 124.692 30.9826C124.669 31.1434 124.628 31.3003 124.565 31.45L124.6 31.3655C124.577 31.4191 124.552 31.4715 124.524 31.5228L125.171 31.7954C125.23 31.5844 125.299 31.3766 125.374 31.1707C125.404 31.0884 125.381 30.9713 125.338 30.8981C125.295 30.8248 125.211 30.7548 125.127 30.7356C125.036 30.715 124.935 30.7194 124.854 30.7713L124.783 30.8265C124.739 30.8707 124.709 30.9227 124.692 30.9826Z" fill="black"/>
  <path d="M162.267 32.909C162.913 32.2419 163.446 31.4945 163.885 30.694C162.715 27.368 161.179 24.1815 159.277 21.2466C155.938 16.0947 151.44 11.5175 145.804 9.08133C134.805 4.32652 121.087 8.23736 110.885 1.95125C110.048 1.43533 109.235 0.850262 108.3 0.546772C107.364 0.243259 106.25 0.27192 105.498 0.905139C104.745 1.53845 104.601 2.87623 105.381 3.47435C103.804 3.25279 102.206 3.17972 100.616 3.25645C100.063 3.28311 99.4607 3.35024 99.0712 3.74276C98.5782 4.23961 98.6353 5.09395 99.0091 5.68563C99.3115 6.16427 99.7709 6.51071 100.249 6.82232C98.6999 5.97938 96.4342 6.70352 95.7608 8.3651C95.0365 10.1528 96.3896 12.4473 98.3045 12.6785C98.2867 12.6971 98.271 12.7165 98.2533 12.7351C99.5544 13.0381 100.515 13.2439 101.933 13.0296C106.537 12.3334 112.574 10.623 117.025 9.25264C116.606 13.4949 116.965 17.8126 118.077 21.9279C118.513 23.5409 119.115 25.2015 120.376 26.297C121.352 27.144 122.629 27.5673 123.656 28.3507C124.502 28.9955 125.171 30.0828 125.035 31.0794C125.952 28.5541 128.037 26.4444 130.611 25.6785C133.395 24.8501 136.655 25.7094 138.539 27.9203C140.423 30.1312 140.72 33.6072 139.096 36.016C137.987 37.6618 136.159 38.7036 134.266 39.3018C137.526 41.1937 141.546 41.3942 145.243 40.6607C148.939 39.9271 152.4 38.3349 155.841 36.7977C158.142 35.7699 160.513 34.7186 162.267 32.909Z" fill="black"/>
  <path d="M162.513 33.1562C163.003 32.6436 163.443 32.0836 163.823 31.4847C163.956 31.2746 164.233 30.9473 164.234 30.691C164.235 30.5427 164.146 30.3822 164.097 30.2454C164.026 30.0504 163.955 29.8558 163.882 29.6617C163.376 28.3159 162.811 26.9916 162.184 25.6979C160.981 23.2175 159.547 20.849 157.889 18.6463C154.85 14.6088 151.014 11.0569 146.377 8.94952C141.745 6.84471 136.627 6.30954 131.607 5.96517C126.582 5.62045 121.458 5.49444 116.592 4.06351C115.407 3.71488 114.243 3.2881 113.125 2.76069C111.944 2.20356 110.879 1.48305 109.752 0.831271C108.688 0.215669 107.417 -0.240748 106.188 0.138103C105.161 0.45469 104.415 1.38906 104.51 2.49102C104.551 2.96807 104.753 3.4147 105.127 3.72148L105.471 3.13035C104.387 2.98095 103.298 2.88906 102.203 2.87298C101.656 2.86493 101.106 2.87232 100.559 2.90259C100.134 2.92614 99.6991 2.97248 99.3078 3.15306C98.5292 3.51242 98.2388 4.34515 98.4105 5.15211C98.6009 6.04675 99.341 6.64707 100.066 7.12476L100.423 6.51397C99.014 5.77556 97.1528 6.09792 96.0595 7.25718C94.9066 8.47956 94.998 10.3437 95.9766 11.642C96.5185 12.361 97.3041 12.8925 98.206 13.0166L98.0499 12.4255L97.9988 12.482C97.8285 12.6701 97.883 13.01 98.1549 13.0732C99.4507 13.3742 100.694 13.563 102.022 13.3677C103.208 13.1933 104.387 12.9597 105.559 12.7065C108.118 12.1534 110.652 11.4825 113.17 10.7632C114.489 10.3864 115.803 9.99405 117.114 9.59072L116.666 9.24968C116.327 12.7552 116.508 16.3024 117.2 19.7559C117.514 21.3221 117.881 22.9295 118.56 24.3834C118.862 25.0302 119.246 25.6433 119.733 26.1677C120.267 26.7428 120.931 27.1633 121.613 27.5404C122.956 28.2828 124.88 29.2294 124.677 31.0764C124.63 31.4986 125.243 31.5177 125.372 31.1704C126.044 29.3525 127.331 27.7605 129 26.7672C130.677 25.7695 132.676 25.4734 134.572 25.9347C136.446 26.3906 138.121 27.5587 139.03 29.2815C139.912 30.9552 140.053 33.0279 139.346 34.7892C138.471 36.9684 136.312 38.2707 134.168 38.9578C133.885 39.0485 133.811 39.4479 134.083 39.6042C137.458 41.5408 141.525 41.7436 145.276 41.0099C149.398 40.2035 153.266 38.3612 157.064 36.6288C159.031 35.7312 160.983 34.7167 162.513 33.1562C162.832 32.8308 162.332 32.3303 162.012 32.656C160.689 34.006 159.03 34.9271 157.334 35.7272C155.543 36.5726 153.725 37.3779 151.896 38.1397C148.286 39.6438 144.466 40.8681 140.508 40.6788C138.387 40.5773 136.29 40.0546 134.44 38.9934L134.356 39.6399C136.464 38.9642 138.546 37.7583 139.656 35.7711C140.673 33.9496 140.754 31.6604 140.004 29.7284C138.398 25.5934 133.312 23.9538 129.396 25.7599C127.197 26.7739 125.523 28.7288 124.69 30.9824L125.384 31.0764C125.546 29.6035 124.427 28.3789 123.266 27.657C122.587 27.2349 121.855 26.904 121.186 26.4647C120.558 26.0515 120.039 25.5209 119.636 24.8848C118.797 23.5572 118.415 21.967 118.071 20.452C117.677 18.7187 117.416 16.9573 117.292 15.1841C117.153 13.2073 117.183 11.2219 117.374 9.24968C117.396 9.02188 117.13 8.84592 116.926 8.90865C112.206 10.361 107.418 11.7552 102.54 12.5729C101.858 12.6873 101.178 12.7866 100.484 12.7539C99.7577 12.7196 99.0488 12.5551 98.3429 12.3911L98.499 12.9822L98.5502 12.9257C98.7076 12.7518 98.677 12.3735 98.3941 12.3346C96.7433 12.1074 95.5191 10.2768 96.0244 8.66144C96.5239 7.06455 98.6396 6.37727 100.066 7.12476C100.471 7.33684 100.804 6.7643 100.423 6.51397C99.8394 6.12938 99.2073 5.65072 99.0837 4.91558C98.9539 4.14442 99.4822 3.73102 100.192 3.63919C100.981 3.53704 101.808 3.56531 102.601 3.58919C103.498 3.61615 104.394 3.68993 105.283 3.81245C105.585 3.85403 105.937 3.47538 105.627 3.22132C104.845 2.57983 105.252 1.37839 106.047 0.955951C107.132 0.379043 108.422 0.879336 109.395 1.44209C110.429 2.03955 111.407 2.70703 112.482 3.23362C113.489 3.72699 114.533 4.14539 115.599 4.49512C120.027 5.94874 124.738 6.23259 129.357 6.52618C134.018 6.82246 138.753 7.09006 143.237 8.50323C147.761 9.92903 151.673 12.6712 154.881 16.133C158.308 19.8324 160.97 24.2481 162.84 28.9225C163.087 29.5383 163.319 30.1597 163.54 30.7851L163.575 30.5126C163.142 31.292 162.629 32.0111 162.012 32.656C161.698 32.985 162.197 33.4859 162.513 33.1562Z" fill="black"/>
  <path d="M134.05 31.0466C133.072 30.9707 132.097 31.3563 131.374 32.0049C131.034 32.3101 130.743 32.6936 130.555 33.1108C130.417 33.419 130.311 33.7228 130.367 34.0657C130.419 34.3926 130.681 34.6731 131.003 34.752C131.387 34.8462 131.787 34.6934 131.988 34.347C132.187 34.0039 132.11 33.5426 131.828 33.2711C131.626 33.0767 131.269 33.0555 131.071 33.2711C130.878 33.4815 130.856 33.8203 131.071 34.0278C131.113 34.0695 131.109 34.0635 131.06 34.0097C131.036 33.9728 131.026 33.9324 131.028 33.8883C131.033 33.9811 131.049 33.8383 131.064 33.8069C131.016 33.883 131.046 33.8575 131.155 33.7304C131.112 33.7544 131.11 33.7562 131.149 33.7359C131.177 33.7182 131.208 33.7103 131.242 33.7122C131.319 33.7281 131.328 33.7292 131.268 33.7154C131.342 33.7506 131.352 33.767 131.403 33.8278C131.421 33.8864 131.422 33.8861 131.405 33.827C131.414 33.8925 131.418 33.8932 131.417 33.8292L131.411 33.8756C131.417 33.8436 131.425 33.8119 131.435 33.7806C131.448 33.7351 131.466 33.6913 131.482 33.6468C131.505 33.5901 131.504 33.5914 131.48 33.6509C131.492 33.6238 131.504 33.5968 131.517 33.5701C131.537 33.53 131.557 33.4904 131.579 33.4512C131.628 33.36 131.683 33.2715 131.743 33.1862C131.765 33.1539 131.822 33.0782 131.765 33.1514C131.802 33.1046 131.84 33.0591 131.879 33.0146C131.944 32.9423 132.011 32.873 132.082 32.8069C132.12 32.7713 132.159 32.7366 132.198 32.7029C132.209 32.6936 132.326 32.6018 132.23 32.6747C132.313 32.6119 132.399 32.5528 132.488 32.4982C132.577 32.4435 132.669 32.3931 132.762 32.3473C132.803 32.3277 132.843 32.3091 132.884 32.291C132.77 32.3418 132.919 32.279 132.943 32.2703C133.132 32.2014 133.326 32.1539 133.525 32.1207C133.397 32.1421 133.53 32.121 133.559 32.1183C133.618 32.1129 133.678 32.1093 133.737 32.1077C133.841 32.1049 133.946 32.1086 134.05 32.1167C134.329 32.1384 134.597 31.8551 134.585 31.5816C134.571 31.2732 134.349 31.0698 134.05 31.0466Z" fill="black"/>
</svg>