<svg width="16" height="11" viewBox="0 0 16 11" fill="none" xmlns="http://www.w3.org/2000/svg">
<path d="M9.76855 8.54492C9.82518 8.41352 10.0126 8.41359 10.0693 8.54492L10.1504 8.73438C10.2886 9.05735 10.5469 9.31544 10.8711 9.45508L11.1006 9.55469C11.2321 9.61128 11.2321 9.79595 11.1006 9.85254L10.8574 9.95703C10.5414 10.0931 10.2881 10.342 10.1475 10.6543L10.0684 10.8301C10.0105 10.9581 9.82733 10.9581 9.76953 10.8301L9.69043 10.6543C9.54972 10.342 9.29654 10.0931 8.98047 9.95703L8.7373 9.85254C8.60584 9.79597 8.60594 9.61135 8.7373 9.55469L8.9668 9.45508C9.29109 9.31546 9.54924 9.05742 9.6875 8.73438L9.76855 8.54492ZM9.71582 0.677734C10.2877 0.677734 10.7987 0.839062 11.248 1.16113C11.6973 1.48318 12.0095 1.90408 12.1846 2.42383L12.4795 3.4873C12.3995 3.64244 12.2896 4.02967 12.1846 4.18457C12.0795 4.33954 11.9992 4.57175 11.8691 4.74609L11.6797 5.03711L10.8535 2.84766C10.7601 2.58782 10.6144 2.38732 10.416 2.24609C10.2176 2.10488 9.9842 2.03418 9.71582 2.03418C9.44749 2.03422 9.21101 2.10801 9.00684 2.25488C8.80287 2.40171 8.65386 2.60465 8.56055 2.86426L7.05469 7.72949C6.94965 8.0459 6.76058 8.30636 6.48633 8.50977C6.21214 8.71309 5.89981 8.81442 5.5498 8.81445C5.23477 8.81445 4.94318 8.73215 4.6748 8.56836C4.40638 8.4045 4.21339 8.17566 4.09668 7.88184L3.62402 6.76367L1.55859 10.8486H0L2.41602 6.16992C2.5327 5.944 2.69922 5.76351 2.91504 5.62793C3.13094 5.49232 3.37318 5.42383 3.6416 5.42383C3.92166 5.42384 4.17872 5.4945 4.41211 5.63574C4.64549 5.777 4.8149 5.97839 4.91992 6.23828L5.39258 7.35645C5.41592 7.42425 5.46811 7.45585 5.5498 7.4502C5.63136 7.44452 5.68368 7.40752 5.70703 7.33984L7.21289 2.47461C7.37629 1.9323 7.68853 1.49759 8.14941 1.16992C8.61034 0.842242 9.13238 0.677776 9.71582 0.677734ZM12.8281 3.98828C12.9377 3.7331 13.3016 3.73308 13.4111 3.98828L13.7061 4.67676C13.9608 5.27148 14.4363 5.74625 15.0332 6.00293L15.8096 6.33691C16.0644 6.44651 16.0644 6.80639 15.8096 6.91602L15.0078 7.26074C14.4259 7.51099 13.9594 7.96885 13.7002 8.54395L13.4092 9.18945C13.2972 9.43786 12.942 9.43786 12.8301 9.18945L12.5391 8.54395C12.2799 7.96887 11.8133 7.511 11.2314 7.26074L10.4297 6.91602C10.1748 6.80641 10.1748 6.44652 10.4297 6.33691L11.2061 6.00293C11.8029 5.74625 12.2785 5.27148 12.5332 4.67676L12.8281 3.98828ZM3.39648 0C3.97997 1.32885e-05 4.47632 0.197287 4.88477 0.592773C5.29324 0.988299 5.49707 1.46914 5.49707 2.03418C5.49704 2.58786 5.2932 3.06565 4.88477 3.4668C4.47631 3.86795 3.97998 4.06835 3.39648 4.06836C2.81299 4.06836 2.31666 3.86792 1.9082 3.4668C1.49976 3.06565 1.29593 2.58786 1.2959 2.03418C1.2959 1.46914 1.49973 0.988299 1.9082 0.592773C2.31665 0.197313 2.813 0 3.39648 0ZM3.39648 1.35645C3.19811 1.35645 3.03166 1.42086 2.89746 1.55078C2.76325 1.68074 2.69629 1.84207 2.69629 2.03418C2.69632 2.22624 2.76328 2.38765 2.89746 2.51758C3.03164 2.64742 3.19818 2.71191 3.39648 2.71191C3.5948 2.7119 3.76133 2.64744 3.89551 2.51758C4.02969 2.38765 4.09665 2.22624 4.09668 2.03418C4.09668 1.84207 4.02972 1.68074 3.89551 1.55078C3.76131 1.42084 3.59486 1.35646 3.39648 1.35645Z" fill="url(#paint0_radial_1209_10319)"/>
<defs>
<radialGradient id="paint0_radial_1209_10319" cx="0" cy="0" r="1" gradientTransform="matrix(12.4751 11.2328 -18.1905 14.5675 1.40722 0.381024)" gradientUnits="userSpaceOnUse">
<stop stop-color="#F49C46"/>
<stop offset="0.174628" stop-color="#D96570"/>
<stop offset="0.454476" stop-color="#9B72CB"/>
<stop offset="0.699779" stop-color="#5489D6"/>
<stop offset="0.9999" stop-color="#1BA1E3"/>
<stop offset="1" stop-color="#1BA1E3"/>
</radialGradient>
</defs>
</svg>
