<svg xmlns="http://www.w3.org/2000/svg" width="212" height="237" viewBox="0 0 212 237" fill="none">
  <path d="M0.535156 235.888C28.6096 202.076 81.0618 188.257 127.343 194.473C159.915 198.848 190.659 213.661 211.441 235.892" fill="white"/>
  <path d="M0.938707 236.287C10.0359 225.367 21.527 216.682 34.1049 210.142C47.2694 203.296 61.5835 198.751 76.173 196.156C90.9516 193.528 106.114 192.909 121.058 194.32C137.187 195.842 153.1 199.876 167.944 206.383C182.365 212.704 195.851 221.351 207.166 232.338C208.491 233.625 209.782 234.944 211.045 236.291C211.544 236.823 212.342 236.023 211.844 235.492C201.013 223.938 187.866 214.678 173.642 207.774C158.941 200.638 143.074 195.972 126.877 193.845C111.861 191.874 96.5699 192.025 81.5793 194.155C66.6871 196.27 52.027 200.383 38.3908 206.768C25.4225 212.841 13.3441 221.064 3.57105 231.583C2.39135 232.853 1.24895 234.157 0.139617 235.488C-0.322763 236.043 0.472541 236.847 0.938707 236.287Z" fill="black"/>
  <path d="M105.692 212.832C110.018 211.054 114.409 209.388 118.856 207.836C122.256 206.65 125.738 205.52 129.396 205.182C133.053 204.844 136.953 205.376 139.889 207.247C142.826 209.119 144.545 212.494 143.442 215.457C142.947 216.787 141.993 218.38 143.105 219.411C144.042 220.28 145.71 219.975 147.035 219.615C155.626 217.284 164.446 215.556 173.375 214.452C177.152 213.985 180.609 213.987 184.309 214.182C167.361 204.024 147.711 197.208 127.345 194.473C119.984 193.484 112.467 193.004 104.916 193.029C104.053 194.025 103.312 195.109 102.585 196.182C99.914 200.119 97.2348 204.069 95.1936 208.266C94.1077 210.499 93.2131 213.063 94.3703 215.27C96.1282 218.623 103.117 213.89 105.692 212.832Z" fill="black"/>
  <path d="M105.843 213.377C108.88 212.131 111.939 210.941 115.021 209.809C118.013 208.71 121.021 207.595 124.1 206.758C127.036 205.96 130.068 205.472 133.116 205.719C135.775 205.935 138.606 206.721 140.648 208.517C142.381 210.041 143.67 212.416 143.067 214.77C142.766 215.945 141.977 217.029 142.027 218.283C142.078 219.578 143.139 220.368 144.35 220.51C145.678 220.665 147.011 220.204 148.276 219.869C149.871 219.446 151.472 219.045 153.078 218.665C156.245 217.916 159.43 217.249 162.631 216.664C168.995 215.502 175.425 214.477 181.911 214.65C182.711 214.672 183.511 214.706 184.311 214.748C184.886 214.778 185.058 213.972 184.596 213.695C177.375 209.373 169.769 205.709 161.913 202.696C153.91 199.628 145.644 197.243 137.241 195.558C128.343 193.775 119.289 192.786 110.219 192.53C109.042 192.497 107.864 192.477 106.687 192.468C106.157 192.464 105.624 192.447 105.095 192.464C104.771 192.475 104.625 192.521 104.411 192.755C104.19 192.996 103.991 193.264 103.791 193.522C102.434 195.271 101.234 197.154 100.01 198.997C98.7784 200.851 97.5778 202.726 96.4722 204.658C95.3997 206.531 94.2872 208.485 93.6579 210.561C93.1315 212.297 92.9795 214.525 94.2012 216.025C94.9082 216.894 96.0611 217.101 97.1227 216.985C99.7789 216.696 102.234 215.198 104.566 213.999C104.97 213.791 105.499 213.52 105.843 213.377C106.127 213.259 106.322 213.004 106.238 212.682C106.167 212.415 105.824 212.171 105.543 212.288C103.967 212.943 102.497 213.837 100.952 214.562C100.101 214.961 99.2314 215.328 98.3275 215.591C97.6142 215.798 96.8197 215.983 96.0758 215.851C95.3079 215.716 94.8927 215.212 94.6395 214.477C94.1598 213.084 94.4631 211.602 94.9492 210.256C95.4602 208.84 96.1905 207.495 96.9142 206.179C97.6715 204.802 98.4825 203.454 99.3226 202.126C100.275 200.62 101.266 199.139 102.264 197.663C103.238 196.223 104.182 194.75 105.317 193.429L104.918 193.595C116.199 193.564 127.483 194.64 138.524 196.974C148.821 199.151 158.909 202.375 168.531 206.643C173.852 209.003 179.031 211.681 184.025 214.671L184.311 213.618C181.104 213.451 177.891 213.431 174.692 213.742C171.448 214.058 168.212 214.567 164.999 215.107C161.758 215.651 158.531 216.279 155.322 216.992C153.737 217.344 152.157 217.716 150.582 218.109C149.092 218.48 147.614 218.943 146.112 219.26C145.216 219.449 143.353 219.689 143.165 218.384C143.083 217.81 143.351 217.194 143.558 216.674C143.785 216.106 144.047 215.549 144.186 214.95C144.744 212.539 143.726 210.085 142.081 208.33C140.237 206.365 137.603 205.289 134.99 204.828C132.057 204.311 129.07 204.507 126.164 205.102C123.075 205.734 120.09 206.794 117.125 207.85C114.001 208.962 110.899 210.134 107.82 211.365C107.059 211.669 106.3 211.977 105.543 212.288C105.258 212.404 105.063 212.662 105.148 212.983C105.219 213.251 105.561 213.493 105.843 213.377Z" fill="black"/>
  <path d="M192.472 151.221C187.815 155.762 182.555 159.861 176.83 163.427C174.233 165.043 171.345 166.413 168.557 167.773C165.203 169.409 160.068 170.093 159.972 173.809C159.619 187.537 156.034 200.483 150.761 213.406C149.076 217.537 142.518 223.975 137.747 218.002C136.784 216.797 136.478 215.314 136.182 213.882C134.6 206.232 132.646 198.637 130.326 191.122C129.742 189.227 128.753 186.369 126.597 185.284C124.04 183.999 122.454 186.197 120.747 187.749C116.871 191.276 113.773 195.347 110.701 199.381C106.84 204.451 102.978 209.522 99.1165 214.592C98.3234 215.634 97.4264 216.745 96.035 217.136C94.566 217.549 92.883 216.995 91.854 216.019C88.758 213.081 89.3621 207.893 89.6376 204.318C90.562 192.328 92.8556 180.412 96.4764 168.791C96.7595 167.882 97.0505 166.918 96.73 166.018C96.4107 165.122 95.5427 164.454 94.7119 163.834C90.2135 160.477 85.917 156.92 81.9993 153.076C80.0781 151.19 78.3564 149.356 76.2022 147.68C73.9177 145.901 71.9674 143.845 70.0662 141.778C67.3718 138.848 64.701 135.781 63.4952 132.215C62.9393 130.57 62.7148 128.797 63.2882 127.157C64.5706 123.489 69.8806 121.839 73.9574 122.891C77.3827 123.775 80.1422 125.868 83.0808 127.597C87.2588 130.055 91.9778 131.313 96.4532 133.156C101.445 135.21 106.826 136.811 112.212 137.944C112.534 138.012 112.873 138.077 113.194 138.007C113.588 137.923 113.882 137.654 114.153 137.399C123.457 128.616 133.054 120.256 143.765 112.65C146.411 110.772 149.194 108.906 152.49 108.025C154.069 107.603 155.864 107.436 157.325 108.095C159.985 109.294 160.185 112.396 160 114.936C159.32 124.242 158.159 133.524 156.521 142.744C167.52 141.008 177.9 136.567 186.061 130.105C186.425 129.816 186.801 129.516 187.273 129.379C188.43 129.043 189.693 129.873 190.056 130.859C190.419 131.845 190.139 132.909 189.858 133.914C192.776 131.437 196.05 129.269 199.202 127.003C200.195 126.289 201.441 125.526 202.684 125.858C204.153 126.25 204.516 127.85 204.491 129.151C204.329 137.416 198.882 144.971 192.472 151.221Z" fill="white"/>
  <path d="M192.074 150.822C186.782 155.967 180.805 160.676 174.323 164.235C171.446 165.815 168.491 167.292 165.412 168.433C163.372 169.19 160.748 170.051 159.772 172.199C159.174 173.516 159.375 175.147 159.294 176.554C159.188 178.411 159.023 180.266 158.802 182.113C158.355 185.863 157.665 189.585 156.789 193.258C155.915 196.922 154.851 200.539 153.644 204.106C153.025 205.934 152.369 207.748 151.681 209.551C151.11 211.047 150.598 212.622 149.841 214.036C148.674 216.219 146.795 218.275 144.52 219.317C143.472 219.797 142.279 220.021 141.146 219.733C139.693 219.364 138.42 218.219 137.709 216.923C136.832 215.325 136.651 213.331 136.271 211.574C135.863 209.686 135.432 207.802 134.979 205.923C134.027 201.977 132.978 198.054 131.833 194.16C131.03 191.43 130.386 188.217 128.439 186.023C127.547 185.02 126.228 184.234 124.845 184.345C123.528 184.45 122.472 185.324 121.552 186.198C118.954 188.664 116.474 191.18 114.21 193.963C111.837 196.881 109.597 199.907 107.318 202.899C104.848 206.143 102.378 209.386 99.9074 212.63C98.9169 213.931 97.9152 215.692 96.3745 216.413C94.789 217.155 92.9435 216.446 91.8491 215.199C89.964 213.051 89.8755 209.898 90.0005 207.194C90.1609 203.728 90.5316 200.256 90.9621 196.814C91.9297 189.079 93.4797 181.414 95.5622 173.902C96.0917 171.992 96.7585 170.109 97.2431 168.189C97.6809 166.453 97.1848 165.111 95.82 163.983C94.4274 162.832 92.9346 161.796 91.5185 160.672C89.9961 159.465 88.4983 158.226 87.0324 156.95C84.2255 154.507 81.667 151.825 78.9466 149.293C77.5536 147.996 76.0156 146.876 74.6101 145.595C73.2159 144.324 71.9176 142.953 70.6398 141.567C68.2628 138.988 65.7978 136.296 64.407 133.029C63.6524 131.256 63.1623 129.183 63.8341 127.308C64.259 126.121 65.1719 125.186 66.2287 124.532C68.5948 123.07 71.6386 122.788 74.2819 123.568C77.6533 124.562 80.4258 126.787 83.4607 128.464C86.6994 130.254 90.2347 131.405 93.6914 132.687C97.2226 133.997 100.677 135.437 104.291 136.518C106.171 137.08 108.068 137.583 109.979 138.028C110.825 138.225 111.689 138.474 112.554 138.573C113.303 138.659 113.857 138.415 114.416 137.927C117.259 135.448 119.94 132.771 122.757 130.259C128.371 125.254 134.158 120.44 140.191 115.947C143.114 113.77 146.066 111.45 149.346 109.828C151.906 108.563 156.581 106.845 158.605 109.879C159.345 110.988 159.491 112.391 159.486 113.692C159.48 115.441 159.266 117.202 159.113 118.943C158.761 122.951 158.319 126.95 157.789 130.938C157.271 134.836 156.663 138.723 155.977 142.595C155.897 143.045 156.228 143.361 156.672 143.29C166.706 141.687 176.482 137.872 184.698 131.849C185.233 131.458 185.759 131.055 186.281 130.647C186.849 130.204 187.42 129.738 188.185 129.916C190.04 130.349 189.696 132.386 189.314 133.764C189.155 134.341 189.846 134.662 190.259 134.314C192.713 132.243 195.356 130.419 197.976 128.567C199.117 127.762 200.511 126.39 201.987 126.345C203.313 126.305 203.844 127.513 203.917 128.653C204.078 131.184 203.384 133.863 202.499 136.211C201.52 138.807 200.104 141.23 198.494 143.482C196.6 146.131 194.399 148.548 192.074 150.822C191.553 151.332 192.352 152.131 192.873 151.621C197.312 147.279 201.438 142.293 203.628 136.408C204.154 134.994 204.554 133.532 204.791 132.042C205 130.727 205.191 129.318 204.972 127.993C204.793 126.911 204.235 125.872 203.18 125.436C201.748 124.844 200.282 125.568 199.107 126.382C195.826 128.653 192.512 130.939 189.46 133.515L190.404 134.065C190.759 132.784 191.097 131.289 190.293 130.099C189.722 129.254 188.691 128.684 187.662 128.744C186.359 128.82 185.304 130.005 184.314 130.737C183.256 131.519 182.17 132.264 181.061 132.972C176.345 135.982 171.215 138.321 165.875 139.984C162.765 140.952 159.587 141.687 156.371 142.2L157.066 142.895C158.496 134.826 159.573 126.694 160.279 118.529C160.526 115.673 161.258 112.074 159.673 109.454C157.918 106.553 154.197 106.833 151.39 107.766C147.908 108.923 144.91 111.118 141.968 113.247C138.873 115.487 135.838 117.812 132.86 120.205C126.854 125.032 121.084 130.143 115.455 135.402C114.818 135.998 114.209 136.661 113.526 137.204C112.785 137.792 111.388 137.194 110.54 136.998C108.628 136.558 106.729 136.061 104.848 135.505C101.062 134.385 97.45 132.873 93.7527 131.509C90.2235 130.207 86.6279 129.02 83.3669 127.11C80.3272 125.329 77.4212 123.126 73.9305 122.303C71.3215 121.687 68.4016 122.042 66.0443 123.332C63.3657 124.797 62.0463 127.438 62.4912 130.475C63.0092 134.011 65.2562 137.105 67.5122 139.76C69.9196 142.594 72.4923 145.415 75.3918 147.754C78.411 150.188 81.0318 153.017 83.8794 155.642C86.7062 158.247 89.6747 160.694 92.7241 163.034C93.4857 163.618 94.2815 164.169 95.0208 164.782C95.7956 165.424 96.394 166.126 96.284 167.2C96.1884 168.133 95.8032 169.049 95.5327 169.944C95.2176 170.985 94.9128 172.03 94.6186 173.078C93.5435 176.908 92.6079 180.776 91.8167 184.674C90.3264 192.018 89.2651 199.516 88.8798 207.004C88.7394 209.733 88.8377 212.762 90.3845 215.125C92.1173 217.771 95.598 218.807 98.1214 216.58C99.4377 215.418 100.422 213.805 101.479 212.417C102.729 210.777 103.978 209.136 105.227 207.496C107.728 204.213 110.214 200.919 112.732 197.649C115.049 194.64 117.454 191.681 120.194 189.042C121.27 188.006 122.366 186.735 123.639 185.941C125.078 185.045 126.58 185.627 127.639 186.822C128.559 187.86 129.101 189.204 129.536 190.502C130.12 192.247 130.621 194.024 131.13 195.791C132.266 199.735 133.303 203.706 134.241 207.701C134.713 209.716 135.16 211.737 135.582 213.763C135.924 215.408 136.275 217.06 137.348 218.403C139.029 220.506 141.565 221.53 144.18 220.659C150.071 218.699 152.003 212.086 153.87 206.884C156.467 199.645 158.504 192.188 159.607 184.569C159.874 182.726 160.091 180.875 160.249 179.02C160.33 178.069 160.396 177.116 160.446 176.163C160.493 175.259 160.431 174.304 160.573 173.412C160.96 170.964 164.173 170.092 166.134 169.367C169.237 168.22 172.229 166.69 175.12 165.085C178.487 163.217 181.68 160.988 184.732 158.646C187.58 156.463 190.3 154.123 192.873 151.621C193.395 151.114 192.596 150.315 192.074 150.822Z" fill="black"/>
  <path d="M151.211 172.318C145.254 172.729 139.245 172.506 133.3 172.055C121.106 171.128 109.568 169.737 98.0313 166.192C97.0702 165.897 96.366 165.756 95.7808 165.786C95.9486 166.619 95.6846 167.492 95.4263 168.321C93.2768 175.22 91.5814 182.22 90.3438 189.277C97.7123 192.174 105.706 193.91 113.753 195.345C115.83 192.757 118.032 190.241 120.553 187.948C122.32 186.341 123.962 184.066 126.609 185.396C128.841 186.519 129.865 189.478 130.47 191.44C131.162 193.681 131.818 195.929 132.447 198.183C132.723 198.208 132.999 198.235 133.276 198.257C141.563 198.904 150.004 198.084 157.909 195.89C159.796 188.585 160.964 181.168 161.161 173.516C161.188 172.478 161.596 171.67 162.244 171.009C158.905 170.542 154.454 172.094 151.211 172.318Z" fill="white"/>
  <path d="M151.21 171.753C143.634 172.269 136.04 171.77 128.49 171.093C121.297 170.448 114.12 169.532 107.062 167.977C105.108 167.546 103.164 167.068 101.235 166.536C100.261 166.268 99.2916 165.986 98.3255 165.692C97.5031 165.441 96.6483 165.19 95.7794 165.22C95.3855 165.234 95.1712 165.569 95.2346 165.935C95.3569 166.644 95.1289 167.361 94.923 168.032C94.694 168.779 94.4625 169.525 94.2398 170.273C93.7931 171.776 93.3673 173.285 92.9626 174.799C92.1556 177.819 91.4328 180.861 90.7956 183.921C90.4354 185.651 90.1035 187.386 89.7975 189.126C89.7402 189.452 89.8843 189.701 90.1921 189.821C96.0272 192.108 102.124 193.644 108.259 194.881C110.035 195.239 111.817 195.571 113.601 195.89C113.787 195.923 114.02 195.907 114.151 195.744C115.596 193.946 117.095 192.188 118.701 190.531C119.506 189.701 120.35 188.917 121.191 188.124C121.806 187.545 122.384 186.92 123.05 186.398C123.656 185.923 124.361 185.536 125.152 185.562C125.97 185.589 126.748 186.043 127.332 186.593C128.535 187.726 129.19 189.343 129.699 190.882C130.511 193.339 131.205 195.841 131.901 198.333C131.972 198.591 132.194 198.725 132.445 198.748C139.128 199.353 145.895 198.998 152.485 197.737C154.359 197.379 156.218 196.943 158.058 196.435C158.245 196.383 158.404 196.23 158.453 196.04C160.131 189.527 161.25 182.864 161.619 176.144C161.669 175.224 161.671 174.3 161.73 173.382C161.78 172.619 162.12 171.956 162.642 171.408C163.011 171.02 162.71 170.505 162.242 170.443C158.52 169.95 154.886 171.483 151.21 171.753C150.489 171.805 150.483 172.936 151.21 172.883C154.882 172.613 158.529 171.082 162.242 171.573L161.843 170.609C161.363 171.113 160.982 171.694 160.775 172.363C160.537 173.13 160.586 173.961 160.554 174.755C160.487 176.473 160.37 178.189 160.205 179.9C159.878 183.321 159.356 186.721 158.67 190.089C158.284 191.984 157.845 193.867 157.363 195.74L157.757 195.345C151.326 197.122 144.657 197.979 137.986 197.902C136.136 197.881 134.288 197.785 132.445 197.618L132.99 198.033C132.32 195.632 131.638 193.229 130.877 190.855C130.334 189.161 129.649 187.428 128.431 186.099C127.126 184.674 125.171 183.964 123.365 184.858C122.556 185.257 121.874 185.894 121.23 186.515C120.459 187.259 119.666 187.981 118.9 188.73C116.911 190.673 115.092 192.78 113.352 194.945L113.901 194.8C107.694 193.691 101.498 192.412 95.4832 190.498C93.8012 189.962 92.136 189.376 90.4925 188.731L90.8872 189.427C91.9971 183.115 93.4642 176.868 95.2849 170.724C95.5355 169.879 95.8006 169.038 96.0554 168.193C96.3099 167.35 96.4758 166.513 96.3243 165.635L95.7794 166.35C96.4993 166.326 97.1969 166.531 97.8797 166.737C98.7504 167 99.6216 167.26 100.498 167.505C102.234 167.991 103.983 168.434 105.74 168.837C109.256 169.643 112.807 170.29 116.375 170.817C123.651 171.893 131.016 172.583 138.362 172.939C142.642 173.146 146.933 173.174 151.21 172.883C151.932 172.834 151.937 171.703 151.21 171.753Z" fill="black"/>
  <path d="M94.4255 168.177C94.3859 171.827 102.796 173.11 105.996 173.68C113.993 175.103 122.068 176.283 130.22 176.768C137.067 177.175 144.13 177.725 150.951 177.245C153.003 177.1 155.066 176.954 157.061 176.524C158.807 176.147 160.961 175.494 162.295 174.42C163.536 173.422 163.249 171.708 162.509 170.45C150.885 172.296 138.286 172.368 126.51 171.322C119.484 170.698 112.631 169.121 105.815 167.55C102.79 166.853 99.7647 166.156 96.7396 165.459C96.1831 165.33 95.5967 165.187 95.2017 164.833C94.1901 165.451 94.4357 167.245 94.4255 168.177Z" fill="white"/>
  <path d="M93.8635 168.177C93.8674 169.678 95.0046 170.762 96.2163 171.474C97.7348 172.366 99.4779 172.881 101.178 173.298C102.693 173.669 104.228 173.938 105.764 174.209C108.737 174.735 111.715 175.235 114.703 175.674C117.769 176.124 120.844 176.517 123.927 176.827C126.977 177.133 130.033 177.32 133.092 177.508C139.169 177.882 145.256 178.215 151.339 177.783C154.133 177.584 156.957 177.328 159.622 176.408C160.734 176.024 161.899 175.536 162.788 174.744C163.656 173.969 163.847 172.778 163.61 171.684C163.494 171.151 163.271 170.637 163 170.165C162.865 169.928 162.612 169.866 162.362 169.905C153.746 171.267 144.979 171.629 136.268 171.349C131.923 171.209 127.56 170.955 123.246 170.4C118.81 169.829 114.424 168.92 110.063 167.941C107.619 167.392 105.179 166.823 102.738 166.261C101.507 165.977 100.277 165.694 99.0463 165.41C98.4053 165.262 97.7644 165.115 97.1235 164.967C96.6235 164.852 96.0128 164.771 95.6042 164.433C95.4179 164.279 95.1404 164.198 94.9195 164.345C93.6453 165.188 93.8689 166.854 93.8635 168.177C93.8605 168.904 94.9906 168.905 94.9935 168.177C94.9957 167.646 94.954 167.116 94.9896 166.586C95.019 166.149 95.0939 165.582 95.4899 165.32L94.8051 165.232C95.6058 165.895 96.6859 166.025 97.6691 166.252C98.7971 166.512 99.9251 166.772 101.053 167.032C103.299 167.549 105.543 168.069 107.79 168.583C112.245 169.603 116.716 170.58 121.239 171.253C125.638 171.906 130.084 172.225 134.525 172.414C138.962 172.603 143.408 172.62 147.845 172.436C152.806 172.231 157.757 171.77 162.663 170.995L162.024 170.736C162.473 171.517 162.841 172.6 162.38 173.46C162.137 173.913 161.681 174.201 161.249 174.455C160.752 174.748 160.225 174.987 159.685 175.188C157.209 176.112 154.573 176.414 151.955 176.608C146.157 177.039 140.368 176.816 134.572 176.468C128.702 176.116 122.86 175.676 117.032 174.873C112.381 174.232 107.715 173.52 103.115 172.575C101.44 172.231 99.7607 171.821 98.1731 171.177C97.0406 170.718 95.5921 170.02 95.1137 168.85C95.0412 168.673 94.9941 168.401 94.9935 168.177C94.9917 167.45 93.8617 167.448 93.8635 168.177Z" fill="black"/>
  <path d="M99.8617 167.584C99.2642 168.891 99.0853 170.314 99.3845 171.724C99.4479 172.023 99.798 172.196 100.08 172.119C100.389 172.034 100.538 171.723 100.474 171.423C100.247 170.351 100.375 169.167 100.838 168.154C100.964 167.877 100.917 167.546 100.635 167.381C100.392 167.239 99.9892 167.305 99.8617 167.584Z" fill="black"/>
  <path d="M107.376 169.697C106.765 170.745 106.434 171.949 106.467 173.164C106.475 173.459 106.721 173.743 107.032 173.729C107.331 173.716 107.606 173.48 107.597 173.164C107.59 172.903 107.599 172.643 107.626 172.384C107.63 172.347 107.634 172.31 107.639 172.273C107.631 172.331 107.632 172.325 107.642 172.257C107.652 172.202 107.66 172.146 107.671 172.091C107.696 171.953 107.727 171.816 107.762 171.68C107.829 171.425 107.913 171.174 108.013 170.929C108.028 170.893 108.028 170.894 108.012 170.933C108.027 170.898 108.043 170.863 108.058 170.829C108.086 170.768 108.115 170.707 108.145 170.648C108.21 170.519 108.279 170.392 108.352 170.268C108.501 170.012 108.419 169.637 108.149 169.494C107.878 169.351 107.535 169.425 107.376 169.697Z" fill="black"/>
  <path d="M115.685 171.952C115.538 172.776 115.392 173.599 115.245 174.422C115.194 174.712 115.324 175.045 115.64 175.117C115.916 175.18 116.28 175.033 116.335 174.722C116.482 173.899 116.628 173.076 116.774 172.253C116.826 171.963 116.696 171.63 116.38 171.558C116.104 171.495 115.74 171.641 115.685 171.952Z" fill="black"/>
  <path d="M125.722 172.785C125.728 172.821 125.733 172.856 125.738 172.892L125.718 172.742C125.764 173.086 125.765 173.432 125.721 173.777L125.742 173.627C125.704 173.901 125.639 174.17 125.548 174.432C125.45 174.711 125.659 175.062 125.942 175.127C126.258 175.199 126.533 175.031 126.638 174.732C126.891 174.007 126.934 173.24 126.812 172.485C126.791 172.354 126.662 172.212 126.552 172.147C126.431 172.076 126.253 172.046 126.117 172.09C125.98 172.135 125.848 172.219 125.779 172.35C125.704 172.492 125.696 172.627 125.722 172.785Z" fill="black"/>
  <path d="M136.002 173.166C135.937 173.814 135.871 174.462 135.806 175.11C135.792 175.245 135.879 175.417 135.972 175.509C136.07 175.607 136.23 175.681 136.371 175.675C136.517 175.668 136.669 175.62 136.771 175.509C136.878 175.393 136.92 175.267 136.936 175.11C137.001 174.462 137.067 173.814 137.132 173.166C137.146 173.031 137.059 172.86 136.966 172.767C136.868 172.669 136.708 172.595 136.567 172.601C136.421 172.608 136.269 172.656 136.167 172.767C136.06 172.883 136.018 173.009 136.002 173.166Z" fill="black"/>
  <path d="M145.199 173.311C145.39 173.768 145.53 174.248 145.596 174.739C145.58 174.623 145.601 174.799 145.602 174.806C145.609 174.869 145.614 174.932 145.618 174.996C145.626 175.114 145.63 175.232 145.631 175.35C145.632 175.477 145.628 175.604 145.619 175.73C145.616 175.785 145.612 175.839 145.606 175.893C145.604 175.914 145.578 176.13 145.594 176.014C145.553 176.305 145.665 176.635 145.989 176.709C146.255 176.77 146.64 176.627 146.684 176.314C146.841 175.193 146.727 174.06 146.289 173.011C146.176 172.739 145.91 172.514 145.594 172.616C145.333 172.7 145.077 173.019 145.199 173.311Z" fill="black"/>
  <path d="M90.7866 81.2305C90.5309 74.8189 85.6201 69.1671 79.0332 66.0949C78.3773 65.789 77.6857 65.5197 76.9475 65.411C76.1207 65.2893 75.2731 65.3737 74.4399 65.4584C73.7615 65.5273 73.0307 65.6166 72.542 66.0196C71.5172 66.8648 72.9753 68.114 73.6277 68.7424C77.5113 72.483 78.5772 77.7127 79.0233 82.6722C79.3808 86.6462 79.407 90.7919 77.4771 94.4291C76.0733 97.075 73.6809 99.3527 72.8241 102.16C72.7686 102.342 72.722 102.542 72.8206 102.71C73.0313 103.069 73.6586 102.989 74.1007 102.844C79.163 101.182 83.5644 98.1333 86.5181 94.2857C89.4718 90.438 90.9693 85.8128 90.7866 81.2305Z" fill="black"/>
  <path d="M91.3528 81.2304C91.0778 74.9968 86.7217 69.8475 81.5446 66.7804C80.058 65.8996 78.4045 64.9706 76.656 64.8112C75.7528 64.7288 74.8228 64.8332 73.9271 64.9533C73.1438 65.0585 72.2253 65.2886 71.8011 66.0297C71.0658 67.3141 72.6273 68.5368 73.418 69.327C74.5865 70.4946 75.5214 71.8633 76.2397 73.3484C77.6317 76.2264 78.1667 79.4537 78.4539 82.6112C78.7783 86.1762 78.8718 89.9663 77.395 93.3107C76.696 94.8938 75.6487 96.2752 74.6512 97.6771C73.7031 99.0096 72.6254 100.498 72.2493 102.121C72.0406 103.021 72.7237 103.594 73.5847 103.522C74.371 103.457 75.1611 103.084 75.8865 102.795C77.4797 102.16 79.0179 101.392 80.4696 100.477C86.335 96.7822 90.6258 90.7673 91.2838 83.7654C91.3631 82.9225 91.3835 82.0763 91.3528 81.2304C91.3265 80.5053 90.1963 80.5018 90.2227 81.2304C90.4629 87.8416 87.1617 93.9485 82.0409 97.9955C80.8113 98.9673 79.478 99.8148 78.0919 100.545C77.3756 100.922 76.6427 101.271 75.8944 101.58C75.1844 101.874 74.4082 102.246 73.6479 102.38C73.5418 102.398 73.4346 102.386 73.3298 102.399C73.2493 102.409 73.3336 102.436 73.3295 102.496C73.3353 102.411 73.3641 102.331 73.3892 102.249C73.5067 101.868 73.6569 101.499 73.8298 101.139C74.1693 100.434 74.5827 99.7675 75.0199 99.1195C75.935 97.7632 76.9685 96.4833 77.7777 95.0574C79.4803 92.0573 79.8802 88.5791 79.7556 85.1838C79.6419 82.0869 79.2977 78.9112 78.4221 75.9301C77.552 72.9678 76.0609 70.2821 73.818 68.1425C73.454 67.7953 72.8745 67.3341 72.769 66.8112C72.6569 66.2553 73.6858 66.118 74.0559 66.0662C74.9033 65.9474 75.8021 65.8561 76.656 65.9412C77.5373 66.0292 78.3614 66.3896 79.1491 66.7735C84.2018 69.2361 88.8481 73.5837 89.9917 79.2861C90.1205 79.9283 90.1939 80.5762 90.2227 81.2304C90.2547 81.9548 91.385 81.9587 91.3528 81.2304Z" fill="black"/>
  <path d="M153.826 173.27C153.943 173.425 154.048 173.588 154.136 173.761C154.157 173.803 154.177 173.847 154.197 173.89C154.245 173.989 154.155 173.774 154.196 173.885C154.229 173.974 154.261 174.062 154.288 174.152C154.314 174.242 154.336 174.333 154.354 174.425C154.36 174.459 154.366 174.494 154.372 174.528C154.381 174.59 154.379 174.574 154.365 174.481C154.368 174.504 154.371 174.528 154.373 174.551C154.39 174.736 154.388 174.921 154.369 175.106C154.34 175.401 154.65 175.684 154.934 175.671C155.266 175.656 155.468 175.422 155.499 175.106C155.584 174.26 155.313 173.375 154.802 172.7C154.71 172.578 154.618 172.483 154.465 172.44C154.329 172.403 154.149 172.42 154.029 172.497C153.797 172.647 153.636 173.018 153.826 173.27Z" fill="black"/>
  <path d="M71.4766 0.545824C71.4766 13.304 71.4766 26.0623 71.4766 38.8205C71.4766 53.4978 71.4766 68.1752 71.4766 82.8525C71.4766 97.5299 71.4766 113.471 71.4766 128.78C71.4766 143.607 71.4766 158.435 71.4766 173.262C71.4766 186.277 71.4766 199.292 71.4766 212.308V216.684C71.4766 217.411 72.6066 217.412 72.6066 216.684C72.6066 203.925 72.6066 191.167 72.6066 178.409C72.6066 163.732 72.6066 149.054 72.6066 134.377C72.6066 119.068 72.6066 103.759 72.6066 88.45C72.6066 73.141 72.6066 58.795 72.6066 43.9675C72.6066 30.9523 72.6066 17.937 72.6066 4.92181V0.545824C72.6066 -0.181348 71.4766 -0.182535 71.4766 0.545824Z" fill="black"/>
  <path d="M153.878 87.411C155.015 83.9156 155.792 80.2924 155.801 76.6586C155.806 74.8508 155.614 73.0338 155.109 71.274C154.853 70.3791 154.647 69.6899 153.88 69.0308C153.054 68.3215 152.221 67.6176 151.401 66.9031C150.874 66.4432 149.917 65.8695 150.127 65.1446C150.261 64.6866 150.698 64.3399 151.144 64.0555C152.485 63.1996 154.098 62.6509 155.768 62.483C156.197 62.4399 156.649 62.4241 157.044 62.5723C157.329 62.6791 157.562 62.8628 157.789 63.0432C158.903 63.9293 160.024 64.8218 160.929 65.8638C164.716 70.2231 164.737 75.7095 164.873 80.8884C164.927 82.9404 164.96 85.0809 163.907 86.9308C163.298 87.9997 162.332 88.9177 161.16 89.5695C159.862 90.2913 158.628 90.1323 157.119 90.1022C155.72 90.0743 153.94 89.7567 153.699 88.5925C153.618 88.1979 153.752 87.7972 153.878 87.411Z" fill="white"/>
  <path d="M154.426 87.5616C155.996 82.709 157.005 77.3755 155.948 72.3052C155.737 71.2903 155.495 70.1227 154.867 69.2712C154.523 68.8034 154.071 68.4501 153.632 68.0752C153.12 67.6373 152.607 67.2001 152.097 66.7587C151.738 66.4475 151.348 66.1637 151.003 65.8365C150.664 65.5146 150.564 65.2939 150.921 64.9349C151.299 64.5536 151.827 64.2884 152.303 64.0498C152.83 63.7857 153.38 63.5765 153.945 63.4119C154.961 63.116 156.386 62.6857 157.309 63.378C158.286 64.1104 159.247 64.9113 160.096 65.7892C161.643 67.3887 162.706 69.3846 163.321 71.514C163.919 73.5845 164.121 75.7366 164.218 77.882C164.266 78.9522 164.29 80.0235 164.316 81.0944C164.345 82.2545 164.369 83.4357 164.151 84.5806C163.939 85.6899 163.499 86.7419 162.746 87.5935C162.038 88.3924 161.09 89.137 160.045 89.4172C159.029 89.6897 157.896 89.5768 156.856 89.5288C156.102 89.494 155.05 89.4187 154.476 88.8571C154.1 88.4895 154.282 88.0036 154.426 87.5616C154.65 86.8681 153.559 86.5711 153.336 87.2612C153.136 87.8791 153.003 88.5141 153.294 89.1261C153.486 89.5327 153.845 89.8507 154.236 90.0629C155.151 90.5597 156.242 90.6446 157.263 90.671C158.457 90.7019 159.692 90.7961 160.828 90.3463C161.933 89.9089 162.957 89.1165 163.709 88.2003C165.404 86.1328 165.508 83.5134 165.443 80.9574C165.383 78.6231 165.336 76.2846 164.996 73.9704C164.652 71.6304 163.955 69.3233 162.697 67.3055C162.012 66.2069 161.174 65.2097 160.22 64.3357C159.715 63.8735 159.186 63.4394 158.652 63.0115C158.165 62.6215 157.679 62.1564 157.064 61.9844C156.417 61.8038 155.717 61.9091 155.066 62.0086C154.427 62.1063 153.797 62.2588 153.185 62.4669C152.095 62.8377 150.761 63.3776 149.994 64.2751C149.631 64.7003 149.426 65.2401 149.614 65.7897C149.78 66.2782 150.185 66.6379 150.574 66.953C151.606 67.7876 152.665 68.6444 153.625 69.5602C154.439 70.3366 154.659 71.6248 154.874 72.6799C155.155 74.063 155.253 75.4763 155.237 76.8862C155.206 79.7064 154.707 82.496 153.955 85.2086C153.764 85.8974 153.556 86.5812 153.336 87.2612C153.111 87.9547 154.202 88.2518 154.426 87.5616Z" fill="black"/>
  <path d="M150.038 88.1173C150.95 87.6304 152.139 87.8308 153.174 88.0894C160.186 89.8414 159.456 79.9242 158.604 76.3774C157.898 73.442 156.378 70.6508 154.219 68.2749C153.501 67.4844 152.297 65.8341 151.054 65.7712C149.89 65.7123 148.411 67.1345 147.343 67.4944C145.144 68.2326 142.643 67.9516 140.387 67.3487C138.132 66.7457 135.998 65.8367 133.717 65.307C128.077 63.9975 121.95 65.1351 116.76 67.4124C114.992 68.1883 113.272 69.1036 111.333 69.4945C107.383 70.2913 103.36 68.7975 99.583 67.5364C92.684 65.2329 85.3468 63.5962 77.9313 63.7923C75.7149 63.8509 74.4095 64.3452 72.832 65.5732C77.0878 66.5673 80.6181 69.2815 82.7052 72.5663C84.7924 75.851 85.5291 79.6605 85.3853 83.386C89.3463 82.7832 93.5412 83.3382 97.094 84.9348C100.595 86.5083 103.373 88.9953 106.47 91.0872C109.567 93.179 113.321 94.9561 117.273 94.674C121.667 94.3605 125.237 91.6143 129.401 90.3902C132.372 89.5167 135.576 89.4395 138.721 89.371C141.896 89.3018 145.43 89.3421 147.742 91.1806" fill="#3E50F7"/>
  <path d="M150.323 88.6049C151.232 88.1551 152.291 88.4731 153.219 88.6802C153.847 88.8202 154.504 88.9003 155.146 88.8398C156.232 88.7376 157.239 88.279 157.961 87.4474C159.443 85.7406 159.708 83.2235 159.7 81.0535C159.691 78.583 159.295 76.0853 158.364 73.7904C157.573 71.8404 156.469 70.0477 155.113 68.4393C154.553 67.7742 153.983 67.0908 153.365 66.4782C152.8 65.9182 152.115 65.3585 151.305 65.2345C150.43 65.1006 149.603 65.5494 148.878 65.9875C148.108 66.4525 147.425 66.9223 146.539 67.1369C144.349 67.6677 142.036 67.249 139.911 66.6278C137.694 65.9797 135.548 65.0909 133.277 64.634C131.152 64.2064 128.967 64.0971 126.807 64.2612C124.637 64.426 122.486 64.8418 120.403 65.4686C118.32 66.0949 116.371 66.992 114.387 67.8673C113.355 68.3229 112.293 68.7256 111.183 68.9493C110.102 69.1675 108.99 69.1937 107.893 69.1064C105.61 68.9249 103.396 68.215 101.236 67.4953C96.8094 66.0204 92.3541 64.6954 87.7395 63.9445C85.4132 63.566 83.0642 63.3147 80.708 63.237C78.7431 63.1722 76.5893 63.0502 74.728 63.7993C73.9346 64.1185 73.2229 64.5639 72.5471 65.085C72.193 65.358 72.1607 65.9935 72.682 66.1177C75.4823 66.7849 78.0568 68.2124 80.1027 70.2392C82.2533 72.3697 83.6787 75.0901 84.3538 78.033C84.7565 79.7884 84.8842 81.5882 84.8204 83.3856C84.8061 83.7893 85.1912 83.9816 85.5357 83.9305C89.937 83.2775 94.5245 84.0723 98.4175 86.2308C102.189 88.322 105.315 91.4004 109.177 93.3451C111.108 94.3179 113.178 95.0241 115.341 95.2184C117.441 95.4071 119.518 95.0049 121.485 94.2813C123.418 93.5701 125.243 92.6084 127.139 91.8092C129.213 90.935 131.359 90.4032 133.598 90.1805C136.068 89.9349 138.594 89.8648 141.075 89.9289C143.21 89.984 145.597 90.221 147.343 91.5798C147.586 91.7686 147.905 91.8119 148.142 91.5798C148.34 91.3867 148.383 90.9678 148.142 90.7807C146.543 89.5359 144.59 89.0623 142.602 88.8832C140.415 88.6862 138.185 88.789 135.995 88.8858C133.68 88.9882 131.34 89.2129 129.114 89.8859C127.065 90.5052 125.15 91.4822 123.203 92.3563C121.277 93.2213 119.252 93.9942 117.124 94.1184C114.953 94.245 112.795 93.7314 110.812 92.87C106.763 91.1118 103.566 88.002 99.8225 85.7392C95.4365 83.0884 90.302 82.0891 85.2352 82.8408L85.9505 83.3856C86.0717 79.9707 85.4683 76.5158 83.8788 73.4688C82.4982 70.8223 80.3716 68.5893 77.8302 67.03C76.3339 66.1119 74.6898 65.4348 72.9825 65.028L73.1174 66.0608C73.7676 65.5595 74.4634 65.0911 75.2392 64.8079C76.0587 64.5089 76.917 64.3938 77.7851 64.3616C80.0587 64.2772 82.3467 64.4003 84.607 64.6474C89.1271 65.1415 93.5738 66.2165 97.9043 67.5841C102.08 68.9028 106.382 70.798 110.86 70.1462C113.011 69.8329 114.941 68.8316 116.906 67.9615C118.833 67.1084 120.846 66.4411 122.903 65.9815C124.978 65.5178 127.102 65.2779 129.229 65.3233C131.412 65.3699 133.524 65.7637 135.603 66.4171C137.735 67.0869 139.828 67.9225 142.043 68.287C143.99 68.6074 146.287 68.7092 148.095 67.7773C148.852 67.3875 149.523 66.8254 150.312 66.498C151.053 66.1908 151.627 66.4398 152.209 66.9447C152.807 67.4624 153.295 68.0868 153.82 68.6741C154.516 69.4525 155.157 70.2688 155.724 71.1462C157.299 73.5832 158.225 76.3459 158.481 79.1936C158.667 81.2708 158.699 83.6362 157.823 85.5712C157.447 86.4004 156.906 87.1061 156.071 87.4731C154.966 87.9588 153.786 87.6061 152.632 87.3903C151.651 87.2068 150.667 87.1768 149.753 87.6292C149.101 87.9518 149.673 88.9269 150.323 88.6049Z" fill="black"/>
  <path d="M147.573 105.51C149.726 100.101 151.365 93.21 149.347 87.6062C148.353 84.8447 155.358 85.8056 156.593 86.7459C157.254 87.2495 157.542 88.0086 157.757 88.7381C159.17 93.5151 158.975 99.0669 157.727 103.858C157.333 105.37 156.697 106.994 155.14 107.813C153.829 108.503 152.171 108.454 150.63 108.351C149.234 108.256 147.479 107.855 147.316 106.681C147.26 106.283 147.422 105.889 147.573 105.51Z" fill="white"/>
  <path d="M148.115 105.66C149.757 101.52 150.975 97.0325 150.813 92.5441C150.773 91.4298 150.642 90.313 150.4 89.2241C150.286 88.7103 150.145 88.2022 149.977 87.7037C149.923 87.5466 149.86 87.392 149.824 87.2295C149.788 87.0615 149.824 87.2934 149.818 87.1963C149.814 87.1394 149.813 87.0827 149.817 87.0257C149.803 87.2113 149.893 86.7916 149.833 86.9682C149.845 86.9342 149.875 86.8825 149.9 86.856C149.804 86.9596 149.909 86.85 149.924 86.8339C150.005 86.7482 150.213 86.6328 150.319 86.5938C150.841 86.4014 151.318 86.3652 151.869 86.3541C153.045 86.3304 154.249 86.4885 155.376 86.8268C155.49 86.8609 155.603 86.8971 155.714 86.937C155.765 86.9553 155.816 86.9743 155.867 86.994C156.026 87.056 155.771 86.9477 155.918 87.0147C156.136 87.1141 156.31 87.2254 156.478 87.4015C157.158 88.1185 157.349 89.3039 157.562 90.2335C158.584 94.7157 158.344 99.6102 157.093 104.025C156.816 105.005 156.424 105.996 155.684 106.722C154.848 107.542 153.693 107.795 152.558 107.837C151.442 107.879 150.241 107.85 149.159 107.545C148.768 107.435 148.315 107.282 148.043 106.961C147.71 106.569 147.949 106.077 148.115 105.66C148.384 104.984 147.291 104.69 147.026 105.359C146.812 105.897 146.636 106.466 146.818 107.042C146.957 107.479 147.257 107.82 147.625 108.084C148.414 108.65 149.472 108.815 150.416 108.899C152.696 109.101 155.307 109.045 156.859 107.1C157.507 106.288 157.902 105.318 158.183 104.325C158.518 103.144 158.758 101.931 158.939 100.718C159.32 98.1676 159.422 95.5731 159.152 93.0063C159.019 91.7426 158.807 90.4856 158.486 89.2557C158.196 88.1467 157.846 86.9434 156.862 86.2475C155.95 85.6021 154.598 85.4444 153.522 85.3147C152.28 85.165 150.811 85.0843 149.657 85.6567C149.194 85.8863 148.814 86.2879 148.715 86.8064C148.658 87.1045 148.691 87.4091 148.78 87.6978C148.949 88.2428 149.135 88.7751 149.266 89.3316C150.389 94.0923 149.255 99.1934 147.648 103.707C147.451 104.262 147.242 104.812 147.026 105.359C146.757 106.035 147.85 106.329 148.115 105.66Z" fill="black"/>
  <path d="M152.218 102.98C152.734 100.819 152.762 98.4949 152.899 96.3009C153.04 94.0624 154.218 89.1773 151.793 87.592C151.029 87.0922 150.178 87.1943 149.32 86.9824C148.409 86.7577 147.538 86.2794 146.683 85.938C142.588 84.3038 137.961 83.6331 133.454 84.0209C129.545 84.3572 125.793 85.4631 121.943 86.1247C118.093 86.7863 113.932 86.9717 110.383 85.5474C107.694 84.468 105.605 82.566 103.114 81.1904C98.7231 78.7667 93.0353 78.0958 88.026 79.4108C87.333 79.5928 86.6213 79.8288 86.1536 80.2972C85.6127 80.8391 85.4965 81.5881 85.4024 82.2923C84.602 88.2784 84.2324 94.3015 79.0048 98.9122C77.9547 99.8383 76.7601 100.708 75.4821 101.404C74.3371 102.028 73.1829 102.288 72.3711 103.278C74.8417 104.82 78.7656 103.628 81.3415 102.882C84.6348 101.929 88.222 101.034 91.5366 101.934C93.6691 102.513 95.4381 103.777 97.4668 104.579C101.448 106.152 105.246 107.708 109.748 107.962C114.456 108.228 119.271 107.351 123.363 105.349C125.119 104.49 126.782 103.427 128.739 102.972C132.019 102.208 135.086 103.297 138.089 104.289C140.776 105.177 144.096 105.859 146.97 106.027C148.567 106.12 150.391 105.948 151.369 104.879C151.863 104.338 152.058 103.65 152.218 102.98Z" fill="#3E50F7"/>
  <path d="M152.762 103.13C153.251 101.035 153.316 98.8796 153.437 96.7405C153.511 95.4561 153.724 94.1865 153.82 92.904C153.92 91.5744 153.945 90.129 153.45 88.8676C153.221 88.2839 152.887 87.7408 152.397 87.34C151.646 86.7264 150.794 86.6642 149.875 86.5173C148.864 86.3556 147.96 85.8602 147.025 85.4716C146.093 85.0841 145.133 84.7603 144.163 84.4841C142.163 83.9149 140.099 83.5641 138.025 83.42C133.735 83.1219 129.588 83.96 125.418 84.8576C121.401 85.7222 117.187 86.5501 113.086 85.7467C111.149 85.3671 109.414 84.5702 107.757 83.5137C106.153 82.4915 104.635 81.3293 102.939 80.4572C99.5608 78.7197 95.6619 77.9825 91.8786 78.2274C90.9308 78.2888 89.9841 78.4104 89.0523 78.5948C88.1498 78.7735 87.1752 78.9673 86.3696 79.432C84.7468 80.368 84.8129 82.4608 84.6026 84.099C84.1754 87.4268 83.7027 90.854 82.1789 93.8869C80.4913 97.2462 77.5473 99.8825 74.138 101.424C73.3309 101.789 72.5553 102.193 71.9708 102.877C71.7344 103.154 71.755 103.565 72.0851 103.765C74.1907 105.04 76.8798 104.62 79.1447 104.07C81.7933 103.428 84.3642 102.465 87.0948 102.201C88.5774 102.057 90.0826 102.104 91.5213 102.516C92.8537 102.898 94.0686 103.57 95.2976 104.194C96.5584 104.835 97.8678 105.347 99.1846 105.859C100.507 106.374 101.838 106.869 103.193 107.288C108.78 109.015 114.824 108.996 120.388 107.161C121.725 106.72 123.02 106.166 124.271 105.522C125.513 104.883 126.733 104.18 128.066 103.746C130.986 102.796 133.933 103.525 136.757 104.444C139.483 105.331 142.209 106.06 145.061 106.414C147.288 106.691 150.52 107.058 152.028 104.954C152.415 104.414 152.607 103.768 152.762 103.13C152.933 102.423 151.844 102.122 151.672 102.829C151.523 103.447 151.355 104.092 150.894 104.557C150.526 104.928 150.037 105.14 149.538 105.274C148.355 105.591 147.094 105.494 145.89 105.376C143.142 105.108 140.44 104.472 137.823 103.606C135.08 102.698 132.26 101.838 129.341 102.282C126.55 102.707 124.245 104.447 121.678 105.488C116.467 107.602 110.515 108.043 105.066 106.644C103.714 106.298 102.389 105.857 101.081 105.376C99.773 104.895 98.4494 104.413 97.1752 103.848C95.9342 103.298 94.763 102.605 93.5203 102.059C92.2151 101.485 90.8717 101.122 89.4459 101.025C86.5555 100.829 83.6908 101.612 80.9418 102.409C78.7927 103.031 76.3768 103.803 74.1215 103.348C73.5988 103.242 73.112 103.066 72.6555 102.789L72.7698 103.677C73.3516 102.995 74.1422 102.658 74.9407 102.295C75.8395 101.886 76.6868 101.382 77.495 100.815C79.0371 99.7334 80.439 98.4644 81.5849 96.9657C83.6183 94.3066 84.6259 91.0958 85.1934 87.8355C85.4857 86.1566 85.6825 84.4629 85.903 82.7736C85.9987 82.0402 86.0366 81.128 86.6429 80.6108C87.3166 80.036 88.3808 79.8827 89.2209 79.7111C92.8354 78.9727 96.6737 79.2538 100.151 80.4793C101.907 81.098 103.494 82.0172 105.034 83.0517C106.585 84.0936 108.114 85.1855 109.839 85.9275C113.492 87.4989 117.601 87.3749 121.456 86.7732C125.618 86.1235 129.678 84.8495 133.895 84.5506C137.943 84.2636 142.05 84.8205 145.86 86.2242C146.753 86.5531 147.6 86.9905 148.493 87.3165C148.934 87.4774 149.379 87.5819 149.844 87.6452C150.316 87.7096 150.825 87.7339 151.263 87.9402C152.359 88.4568 152.65 89.8149 152.721 90.9099C152.807 92.258 152.635 93.6082 152.474 94.9441C152.276 96.5831 152.256 98.233 152.117 99.877C152.032 100.871 151.899 101.857 151.672 102.829C151.507 103.537 152.596 103.839 152.762 103.13Z" fill="black"/>
  <path d="M84.9781 77.1346C87.2362 76.3125 89.6383 75.9766 92.0362 76.1207C93.2354 76.1927 94.4287 76.3881 95.5839 76.7202C96.6086 77.0147 97.6066 77.4407 98.3211 78.2594C99.0677 79.115 99.5646 80.1175 100.576 80.7133C101.204 81.0833 101.773 80.1068 101.146 79.7375C100.263 79.2173 99.8044 78.2614 99.1575 77.5041C98.4062 76.6245 97.3567 76.1018 96.2728 75.7491C93.9012 74.9773 91.2873 74.7928 88.8179 75.0806C87.4034 75.2454 86.0165 75.5575 84.6776 76.0449C83.9996 76.2917 84.2924 77.3842 84.9781 77.1346Z" fill="black"/>
  <path d="M78.9463 64.7974C83.0574 67.3402 86.3543 71.2879 87.5505 76.0259C87.7284 76.7306 88.8186 76.432 88.6402 75.7254C87.3732 70.7068 83.8701 66.5143 79.5167 63.8215C78.8964 63.4379 78.3283 64.4151 78.9463 64.7974Z" fill="black"/>
  <path d="M88.9738 80.208C89.2716 83.2302 89.2069 86.2922 88.7401 89.2944C88.2998 92.1258 87.5919 95.0492 86.3853 97.6597C85.7829 98.9628 84.9759 100.186 83.806 101.046C83.2262 101.472 83.7893 102.454 84.3764 102.022C86.6833 100.326 87.7351 97.6555 88.5653 95.011C89.524 91.9573 90.089 88.7752 90.2431 85.5782C90.3294 83.787 90.2797 81.9924 90.1039 80.2081C90.0332 79.491 88.9024 79.4836 88.9738 80.208Z" fill="black"/>
  <path d="M85.4249 85.2522C85.9942 85.2546 86.3598 85.2931 86.8786 85.4081C87.1251 85.4628 87.3688 85.53 87.6082 85.6101C87.7312 85.6513 87.8531 85.6958 87.9736 85.7438C87.9765 85.745 88.1366 85.814 88.0428 85.7719C88.1097 85.8019 88.1766 85.8319 88.243 85.8632C88.5099 85.9889 88.865 85.9466 89.0161 85.6605C89.1486 85.4097 89.0989 85.0218 88.8134 84.8874C87.7514 84.3872 86.5996 84.127 85.4249 84.1221C85.1293 84.1209 84.8462 84.3829 84.8598 84.6871C84.8736 84.9943 85.1081 85.2509 85.4249 85.2522Z" fill="black"/>
  <path d="M82.2952 95.9944C82.8204 96.0724 83.3369 96.2 83.8359 96.3818C83.8924 96.4024 83.9487 96.4236 84.0047 96.4456C84.024 96.4531 84.2173 96.5343 84.1072 96.4864C84.2242 96.5373 84.3401 96.5907 84.4544 96.6474C84.6879 96.7632 84.9142 96.8923 85.1337 97.0327C85.3831 97.1924 85.7681 97.0924 85.9068 96.83C86.0547 96.5501 85.9702 96.2273 85.704 96.0569C84.7681 95.4579 83.6936 95.0677 82.5956 94.9047C82.3045 94.8615 81.974 94.9771 81.9006 95.2993C81.8394 95.5678 81.9826 95.948 82.2952 95.9944Z" fill="black"/>
  <path d="M83.4741 72.8619C83.8288 72.6822 84.1836 72.5026 84.5383 72.3229C84.6603 72.2611 84.7625 72.1139 84.798 71.9852C84.8352 71.8499 84.8184 71.6698 84.741 71.5498C84.6632 71.4291 84.5474 71.3229 84.4033 71.2901C84.25 71.2552 84.1089 71.2756 83.9679 71.3471C83.6131 71.5268 83.2584 71.7064 82.9036 71.8861C82.7817 71.9479 82.6794 72.0951 82.644 72.2238C82.6067 72.3591 82.6236 72.5392 82.701 72.6592C82.7787 72.7799 82.8946 72.8861 83.0387 72.9189C83.192 72.9538 83.333 72.9333 83.4741 72.8619Z" fill="black"/>
  <path d="M88.7901 36.6031C91.7387 29.929 89.6007 22.6769 82.1692 18.9751C79.6887 17.7396 76.6053 17.6673 73.7783 18.1323C73.4164 18.1918 73.0444 18.2639 72.7471 18.4481C70.6118 19.7704 73.8663 24.8149 74.5689 26.2563C75.9881 29.1679 76.9944 32.2648 77.0134 35.4132C77.0324 38.5615 76.0048 41.7744 73.699 44.249C73.0552 44.9399 72.2707 45.8108 72.7315 46.599C73.2296 47.4511 74.6933 47.3667 75.7657 47.0782C81.6788 45.487 86.6215 41.5118 88.7901 36.6031Z" fill="black"/>
  <path d="M89.2796 36.8884C90.3167 34.5188 90.8497 31.9199 90.5503 29.3329C90.2583 26.81 89.2473 24.4644 87.6339 22.5041C85.8345 20.318 83.2101 18.4649 80.4582 17.7372C78.8677 17.3167 77.1906 17.2319 75.5551 17.3536C74.7443 17.414 73.8749 17.4769 73.0898 17.6987C72.5512 17.8509 72.0708 18.1597 71.783 18.6482C71.2979 19.4717 71.4512 20.529 71.6922 21.4037C71.9853 22.4679 72.4673 23.4832 72.9716 24.4615C73.3774 25.2486 73.8313 26.0112 74.2124 26.8109C74.987 28.4362 75.625 30.1325 76.0264 31.89C76.7437 35.0306 76.5878 38.3934 75.0908 41.2923C74.7271 41.9967 74.2971 42.6726 73.7939 43.2858C73.278 43.9145 72.6193 44.471 72.2585 45.2125C71.9329 45.8816 71.953 46.6625 72.4979 47.2142C72.953 47.6749 73.6223 47.8262 74.2487 47.8435C75.67 47.8828 77.1402 47.3021 78.4369 46.7794C79.8233 46.2205 81.1567 45.5376 82.4047 44.7135C84.7738 43.1491 86.8592 41.115 88.3398 38.6826C88.6914 38.105 89.004 37.5058 89.2796 36.8884C89.4049 36.6077 89.3586 36.2842 89.0768 36.1153C88.837 35.9717 88.4278 36.0399 88.3037 36.318C86.1038 41.2472 81.436 44.7643 76.351 46.3222C75.7369 46.5104 75.1139 46.6965 74.4673 46.7132C74.0685 46.7234 73.3367 46.7085 73.182 46.2322C72.9916 45.6456 73.8522 44.9227 74.1928 44.548C74.7066 43.9828 75.173 43.3695 75.578 42.7218C77.1463 40.213 77.7672 37.1865 77.5291 34.2534C77.2841 31.2352 76.2749 28.2236 74.8459 25.562C73.9842 23.9571 72.9245 22.2881 72.637 20.4583C72.5797 20.0941 72.5725 19.7392 72.6687 19.4231C72.7651 19.1059 72.989 18.9034 73.3902 18.7885C74.1241 18.5782 74.9345 18.5253 75.6931 18.4739C76.4731 18.4212 77.2571 18.4176 78.0369 18.4759C80.8619 18.6869 83.4428 20.0126 85.5142 21.9129C87.2559 23.5107 88.5489 25.5447 89.1374 27.8419C89.7064 30.0629 89.5852 32.4045 88.9331 34.5933C88.7583 35.1801 88.5492 35.7571 88.3037 36.318C88.1805 36.5996 88.2233 36.9215 88.5065 37.0912C88.7448 37.2339 89.1574 37.1675 89.2796 36.8884Z" fill="black"/>
  <path d="M78.4591 67.2682C78.4767 67.2411 78.4952 67.215 78.5149 67.1894L78.4265 67.3038C78.4847 67.2312 78.5508 67.1675 78.6241 67.1105L78.5097 67.1988C78.6039 67.1279 78.7058 67.0704 78.8142 67.0242L78.6792 67.0812C78.8054 67.0294 78.9363 66.9944 79.0713 66.9754L78.9211 66.9955C79.0505 66.9792 79.18 66.9782 79.3095 66.9942L79.1593 66.974C79.2093 66.981 79.2585 66.9903 79.3076 67.002C79.4531 67.0369 79.6123 67.0216 79.743 66.9451C79.8602 66.8765 79.972 66.7421 80.0027 66.6074C80.0688 66.317 79.9155 65.986 79.608 65.9123C78.8239 65.7243 77.931 66.0069 77.4834 66.6978C77.3223 66.9463 77.4248 67.3328 77.6861 67.4709C77.9673 67.6195 78.2873 67.5334 78.4591 67.2682Z" fill="black"/>
  <path d="M57.308 222.876C56.885 221.512 57.605 219.951 59.0093 219.188C60.4137 218.425 62.3948 218.517 63.6905 219.407C63.6698 218.406 63.8439 217.322 64.6628 216.597C65.4816 215.873 67.1202 215.774 67.747 216.624C67.9345 216.879 68.041 217.209 68.3611 217.339C69.1066 217.641 70.9531 212.59 74.5761 213.99C76.0116 214.545 76.8168 216.152 76.0734 217.327C77.9447 216.874 80.1353 217.737 80.9248 219.239C81.7143 220.742 81.002 222.692 79.3474 223.558" fill="white"/>
  <path d="M57.8545 222.725C57.486 221.447 58.2623 220.194 59.4 219.621C60.642 218.995 62.2599 219.134 63.407 219.895C63.767 220.133 64.2625 219.818 64.2572 219.407C64.2472 218.627 64.3352 217.772 64.8863 217.17C65.3223 216.694 66.0408 216.49 66.6708 216.616C66.9336 216.668 67.1599 216.779 67.3207 216.996C67.5765 217.342 67.7576 217.754 68.2126 217.884C68.5768 217.987 68.8985 217.807 69.1591 217.567C69.7623 217.011 70.1982 216.274 70.765 215.679C71.4518 214.958 72.3107 214.301 73.3524 214.309C74.6404 214.319 76.4361 215.616 75.5872 217.042C75.3258 217.481 75.7561 217.979 76.2253 217.872C77.6771 217.541 79.5653 218.045 80.3634 219.391C81.1728 220.755 80.3472 222.372 79.0639 223.07C78.4248 223.417 78.9946 224.393 79.6343 224.046C81.4303 223.069 82.4213 220.792 81.3899 218.909C80.3704 217.048 77.8942 216.334 75.9249 216.782L76.563 217.612C77.5269 215.993 76.3738 214.099 74.78 213.466C73.4586 212.941 72.0509 213.196 70.923 214.031C70.019 214.701 69.3798 215.587 68.6636 216.438C68.5589 216.562 68.4505 216.681 68.3326 216.793C68.268 216.854 68.3465 216.724 68.3425 216.787C68.342 216.795 68.2782 216.829 68.2695 216.831C68.2878 216.826 68.5617 216.751 68.5488 216.8C68.5607 216.755 68.2753 216.393 68.2366 216.339C68.1224 216.178 67.9949 216.045 67.8393 215.925C67.4869 215.654 67.0664 215.521 66.6281 215.473C65.7128 215.374 64.7202 215.69 64.0872 216.371C63.322 217.195 63.1131 218.317 63.1272 219.407L63.9774 218.919C62.4594 217.912 60.3248 217.833 58.7259 218.7C57.2031 219.525 56.2735 221.321 56.7649 223.026C56.966 223.723 58.0567 223.427 57.8545 222.725Z" fill="black"/>
  <path d="M67.4165 225.657C67.4238 225.654 67.5789 225.59 67.4762 225.629C67.526 225.61 67.5759 225.592 67.6266 225.576C67.7196 225.546 67.8143 225.521 67.9099 225.5C67.9536 225.491 67.9975 225.484 68.0414 225.475C68.2067 225.444 67.936 225.479 68.1042 225.468C68.2032 225.461 68.3014 225.454 68.4006 225.453C68.5 225.452 68.5994 225.456 68.6984 225.464C68.7524 225.468 68.8067 225.473 68.8604 225.48C68.7597 225.467 68.8989 225.489 68.9248 225.493C69.1195 225.53 69.3114 225.581 69.4978 225.648C69.66 225.706 69.7325 225.738 69.9379 225.858C70.0198 225.905 70.0982 225.958 70.1762 226.011C70.1971 226.026 70.2177 226.041 70.238 226.056C70.1972 226.024 70.1921 226.021 70.2229 226.046C70.2549 226.073 70.2869 226.1 70.3179 226.127C70.391 226.193 70.4606 226.263 70.5255 226.337C70.5346 226.348 70.6177 226.451 70.5731 226.393C70.5286 226.335 70.6056 226.44 70.6133 226.452C70.6665 226.531 70.7095 226.614 70.7546 226.698C70.8102 226.802 70.7329 226.614 70.7705 226.736C70.7842 226.781 70.8001 226.825 70.8131 226.87C70.8979 227.163 71.2113 227.347 71.5082 227.265C71.8005 227.185 71.9879 226.864 71.9028 226.57C71.6184 225.586 70.7755 224.925 69.8485 224.577C68.8802 224.213 67.7812 224.238 66.846 224.681C66.5702 224.812 66.4987 225.207 66.6433 225.454C66.8084 225.737 67.1396 225.788 67.4165 225.657Z" fill="black"/>
  <path d="M82.0383 30.7769C82.1936 35.7921 79.2246 40.5911 75.1484 44.242C74.2236 45.0703 73.1568 46.0746 73.4621 47.1832C73.8594 48.6258 76.0753 48.8995 77.7602 49.3126C81.9383 50.3372 84.561 53.7135 87.8851 56.0831C92.0316 59.039 97.6315 60.4938 103.029 60.0175C105.363 59.8115 107.765 59.2679 110.008 59.8487C110.44 56.8423 110.279 53.7757 109.533 50.8133C111.854 51.5438 114.468 51.0634 116.758 50.2682C119.048 49.473 121.196 48.3701 123.579 47.8014C128.2 46.6986 133.477 47.853 136.882 50.7111C138.61 48.7953 139.674 46.5074 140.413 44.1818C142.049 39.0362 142.094 33.559 140.697 28.3707C139.997 25.7757 138.937 23.2489 137.532 20.8662C136.592 19.2718 135.584 16.6115 133.35 15.9937C130.256 15.1381 127.17 18.1256 124.826 19.2185C122.984 20.0776 120.822 20.2767 118.723 20.3938C115.895 20.5514 113.059 20.5908 110.227 20.5119C112.101 17.788 112.479 14.4147 111.535 11.3671C110.59 8.31944 108.388 5.60084 105.561 3.54395C103.02 6.00363 99.4749 7.70932 95.673 8.3009C89.2124 9.30621 82.6962 7.60546 77.1218 11.4292C74.5194 13.2143 72.6986 15.7935 72.077 18.575C72.0326 18.7738 72.0003 18.9981 72.1411 19.1618C72.2455 19.2831 72.4216 19.3416 72.588 19.3941C78.1685 21.1535 81.8865 25.7358 82.0383 30.7769Z" fill="#3E50F7"/>
  <path d="M69.6891 124.625C70.3682 126.896 72.5121 126.752 74.3932 128.086C76.1054 129.301 77.2906 131.074 77.4803 132.967C77.8821 136.975 73.7468 139.641 69.2383 138.113" fill="white"/>
  <path d="M69.1424 124.775C69.3685 125.491 69.7499 126.126 70.3418 126.597C70.889 127.033 71.5236 127.304 72.1637 127.573C73.6768 128.209 75.0222 129.059 75.9502 130.454C76.7783 131.699 77.196 133.244 76.7713 134.711C76.415 135.942 75.4939 136.887 74.3561 137.437C72.8036 138.188 70.9888 138.099 69.3867 137.569C68.6946 137.34 68.398 138.431 69.0862 138.658C72.0511 139.639 75.8739 139.01 77.4496 136.025C79.1671 132.771 77.0623 128.897 74.0964 127.233C72.7045 126.452 70.7754 126.197 70.2322 124.474C70.0142 123.783 68.9228 124.078 69.1424 124.775Z" fill="black"/>
  <path d="M81.471 30.7771C81.5729 34.7206 79.714 38.4005 77.2008 41.3394C76.529 42.1252 75.8076 42.8683 75.0477 43.5691C74.3289 44.2319 73.5055 44.884 73.0834 45.7916C72.7053 46.6046 72.7945 47.5042 73.381 48.191C73.8843 48.7803 74.6559 49.0919 75.3779 49.314C76.1914 49.5643 77.0336 49.6989 77.8542 49.9213C78.7592 50.1667 79.6151 50.538 80.4287 51.0022C82.0386 51.9208 83.4323 53.1496 84.8323 54.3515C86.2888 55.6021 87.7756 56.8087 89.4588 57.7449C91.2451 58.7383 93.1788 59.4796 95.1632 59.9651C97.4595 60.5269 99.8479 60.7634 102.209 60.6401C104.739 60.508 107.342 59.7705 109.855 60.3938C110.123 60.4601 110.507 60.3084 110.55 59.9992C110.989 56.8772 110.836 53.725 110.076 50.6633L109.381 51.3584C113.34 52.5623 117.199 50.6806 120.821 49.2833C122.6 48.5969 124.419 48.0731 126.332 47.9751C128.057 47.8867 129.787 48.0785 131.45 48.5443C133.272 49.0544 135.021 49.8977 136.48 51.1109C136.705 51.2973 137.061 51.3553 137.28 51.1109C140.177 47.8641 141.545 43.4468 142.058 39.1963C142.605 34.6713 142.017 30.0183 140.454 25.742C140.07 24.6919 139.63 23.6607 139.137 22.657C138.698 21.7612 138.185 20.9092 137.71 20.0329C136.951 18.633 136.22 17.1393 134.918 16.1584C131.663 13.708 127.985 16.8345 125.163 18.4087C123.107 19.5555 120.71 19.7247 118.406 19.8459C115.681 19.9893 112.952 20.0209 110.224 19.947L110.712 20.7973C112.228 18.5627 112.846 15.8223 112.494 13.1497C112.151 10.5486 110.923 8.17674 109.247 6.184C108.25 4.99926 107.091 3.96999 105.844 3.05623C105.642 2.90791 105.327 2.98361 105.159 3.14457C102.356 5.83587 98.6164 7.39812 94.7833 7.85777C90.839 8.33077 86.8333 7.91946 82.9066 8.58277C79.0653 9.23164 75.5321 11.2034 73.2955 14.445C72.7817 15.1898 72.3609 15.9897 72.0254 16.8297C71.8775 17.2001 71.7499 17.5786 71.6445 17.9633C71.5141 18.4395 71.3398 19.0021 71.6509 19.4471C71.9136 19.8228 72.3803 19.9156 72.7892 20.0552C73.2433 20.2103 73.6902 20.3854 74.1259 20.5867C74.9106 20.9491 75.6644 21.3785 76.3733 21.8734C79.2926 23.912 81.3443 27.1742 81.471 30.7771C81.4965 31.5023 82.6267 31.5056 82.6011 30.777C82.4884 27.5718 81.0258 24.5694 78.7274 22.3562C77.4942 21.1687 76.0417 20.203 74.4765 19.5115C74.0971 19.344 73.7128 19.1874 73.3225 19.047C73.1399 18.9814 72.9033 18.946 72.7359 18.8493C72.5077 18.7175 72.6505 18.9203 72.6196 18.7253C72.6025 18.6179 72.6905 18.4274 72.7189 18.3212C72.9402 17.4925 73.2669 16.7022 73.6855 15.954C75.5655 12.5941 78.975 10.4978 82.6932 9.76613C86.5124 9.01454 90.4499 9.43802 94.3054 9.04107C98.6211 8.59672 102.797 6.97901 105.958 3.94362L105.274 4.03196C109.11 6.84349 112.21 11.4018 111.32 16.3597C111.07 17.7546 110.532 19.0549 109.736 20.2268C109.486 20.596 109.822 21.0662 110.224 21.0771C112.559 21.1403 114.894 21.1267 117.227 21.0311C119.376 20.943 121.599 20.8764 123.673 20.2538C125.378 19.742 126.783 18.7148 128.294 17.8154C129.7 16.9781 131.397 16.0926 133.083 16.5087C134.587 16.8799 135.469 18.2881 136.171 19.5578C137.057 21.1589 137.981 22.7445 138.716 24.422C140.48 28.4438 141.314 32.8752 141.094 37.2619C140.971 39.6938 140.515 42.1025 139.742 44.4119C139.024 46.5593 137.996 48.6134 136.48 50.3117H137.28C134.551 48.0446 131.002 46.8949 127.476 46.827C125.622 46.7914 123.784 47.083 122.022 47.6552C120.093 48.2816 118.264 49.1734 116.34 49.8137C114.209 50.5232 111.876 50.9361 109.681 50.2686C109.258 50.1398 108.885 50.5575 108.986 50.9636C109.694 53.8143 109.87 56.7872 109.461 59.6986L110.156 59.304C107.941 58.7549 105.7 59.1792 103.475 59.4094C101.407 59.6233 99.3104 59.5804 97.2577 59.2418C93.3454 58.5967 89.754 56.9815 86.6996 54.4563C85.2911 53.2918 83.9499 52.0443 82.4645 50.9752C80.9555 49.8893 79.3115 49.085 77.4948 48.6707C76.7195 48.4938 75.9208 48.3489 75.1794 48.0524C74.6229 47.83 73.9255 47.4269 73.9729 46.7306C74.0314 45.8717 74.9607 45.1698 75.5457 44.6416C76.3146 43.9474 77.0501 43.2182 77.7363 42.4417C80.5772 39.2268 82.7144 35.1632 82.6011 30.777C82.5823 30.0512 81.4521 30.0484 81.471 30.7771Z" fill="black"/>
  <path d="M94.2962 18.2902C99.3052 20.181 104.646 21.149 109.997 21.2204C110.724 21.2302 110.725 20.1001 109.997 20.0904C104.74 20.0202 99.517 19.0578 94.5966 17.2005C93.9155 16.9434 93.6211 18.0354 94.2962 18.2902Z" fill="black"/>
  <path d="M90.8076 45.2799C93.4563 45.7023 96.07 46.3328 98.614 47.1838C101.073 48.0063 103.384 49.1323 105.767 50.1385C107.113 50.7068 108.489 51.1956 109.928 51.4649C110.639 51.5979 110.944 50.5089 110.229 50.3752C107.676 49.8977 105.372 48.7167 103.015 47.6817C100.608 46.6243 98.1194 45.7608 95.5712 45.11C94.0986 44.7339 92.6089 44.4296 91.108 44.1902C90.8043 44.1417 90.5038 44.2685 90.413 44.5848C90.3359 44.8531 90.5068 45.2319 90.8076 45.2799Z" fill="black"/>
  <path d="M70.9558 19.0453C70.312 18.5584 69.5589 18.2104 68.7774 18.0105C68.0905 17.8349 67.3219 17.726 66.6624 18.0583C66.3581 18.2116 66.1243 18.4803 66.0704 18.8211C66.0004 19.2634 66.2527 19.6309 66.5539 19.9284C67.0609 20.4293 67.7081 20.7799 68.3867 20.9869C69.205 21.2367 70.078 21.2629 70.9128 21.0852L70.6123 19.9954C69.7413 20.3529 68.992 20.8956 68.4463 21.6706C67.943 22.3857 67.4713 23.5792 68.452 24.1207C69.3928 24.6403 70.4077 23.9881 71.0313 23.2859C71.6751 22.5608 72.0644 21.6745 72.1301 20.7056C72.1507 20.4008 71.8556 20.1406 71.565 20.1406C71.242 20.1406 71.0207 20.3999 71 20.7056C70.9597 21.3003 70.7184 21.8758 70.3528 22.3444C70.1738 22.5739 69.9562 22.7997 69.7175 22.9676C69.4822 23.1331 69.291 23.1923 69.0212 23.1441C68.8962 23.1218 68.9898 23.1057 68.9891 23.1394C68.9911 23.0426 69.0649 22.8915 69.1013 22.8041C69.1941 22.5811 69.3257 22.3613 69.4735 22.1699C69.8407 21.6946 70.358 21.3128 70.9128 21.0852C71.1949 20.9694 71.3953 20.7098 71.3074 20.3901C71.2225 20.081 70.9118 19.9317 70.6123 19.9954C69.9736 20.1314 69.3102 20.0875 68.6871 19.8973C68.3823 19.8043 68.0978 19.6743 67.8279 19.5048C67.6971 19.4227 67.5751 19.3344 67.4607 19.2311C67.4115 19.1866 67.2114 18.9319 67.1802 18.9321C67.1958 18.932 67.1714 19.0229 67.1679 19.0468C67.1598 19.1024 67.0435 19.1094 67.1559 19.0746C67.2127 19.057 67.3303 19.0003 67.4626 18.9803C67.6899 18.9461 68.0301 18.9975 68.2984 19.0575C69.0611 19.2281 69.7618 19.5495 70.3854 20.0211C70.629 20.2053 71.0173 20.0598 71.1585 19.8184C71.328 19.5287 71.2 19.23 70.9558 19.0453Z" fill="black"/>
  <path d="M72.4998 44.2859C71.3414 43.4231 69.5367 43.0847 68.1949 43.6972C67.5272 44.0019 67.0066 44.717 67.3773 45.4504C67.7332 46.1547 68.6545 46.3789 69.375 46.4285C70.2023 46.4856 71.0813 46.2666 71.764 45.7912L71.0792 44.9038C70.1982 45.8834 68.5387 46.7944 69.1359 48.3684C69.3815 49.0159 69.9526 49.5045 70.6669 49.509C71.4775 49.5141 72.0786 48.9253 72.4577 48.2658C72.9559 47.3993 73.3201 46.4449 73.5376 45.4702C73.6957 44.7617 72.6064 44.4592 72.4479 45.1698C72.2529 46.0439 71.9425 46.8857 71.4993 47.6651C71.3621 47.9063 71.1963 48.185 70.937 48.3127C70.8226 48.369 70.7255 48.3884 70.6046 48.3767C70.6931 48.3853 70.5396 48.3593 70.5206 48.3531C70.4557 48.331 70.4477 48.3279 70.4968 48.3438C70.4633 48.3262 70.4308 48.3068 70.3995 48.2855C70.4688 48.334 70.3378 48.2239 70.3219 48.2069C70.2968 48.1777 70.2962 48.179 70.3202 48.2108C70.2978 48.1797 70.277 48.1476 70.2575 48.1146C70.2005 48.0181 70.1829 47.9826 70.1512 47.8172C70.1686 47.9081 70.1461 47.7033 70.1462 47.6782C70.1465 47.5629 70.1259 47.7212 70.152 47.599C70.1874 47.4329 70.2012 47.4226 70.3011 47.2665C70.6981 46.6467 71.3899 46.2458 71.8783 45.7028C72.0657 45.4943 72.1029 45.1874 71.9224 44.9609C71.7591 44.7558 71.4283 44.6519 71.1935 44.8153C70.6561 45.1895 70.0264 45.3433 69.375 45.2984C69.0979 45.2792 68.7858 45.2206 68.5461 45.0733C68.49 45.0387 68.3608 44.9183 68.3778 44.9209C68.3661 44.8787 68.3668 44.8779 68.3799 44.9183C68.3828 44.942 68.376 44.9623 68.3597 44.9792C68.4063 44.9524 68.3727 44.9405 68.414 44.8944C68.7692 44.4975 69.5644 44.5048 70.0719 44.5473C70.7458 44.6038 71.3889 44.8591 71.9293 45.2616C72.1742 45.444 72.5605 45.3016 72.7024 45.0589C72.871 44.7707 72.7453 44.4687 72.4998 44.2859Z" fill="black"/>
  <path d="M72.4521 65.6318C71.5585 64.3592 70.3621 63.0418 68.698 62.9621C67.8665 62.9223 66.7966 63.2621 66.565 64.1659C66.3568 64.9781 66.9632 65.7804 67.6731 66.1092C68.7145 66.5916 69.8871 66.3026 70.9357 65.9987L70.5003 64.9659C69.8216 65.3385 69.2043 65.8348 68.7248 66.4447C68.4759 66.7613 68.1939 67.1254 68.0906 67.5219C67.9732 67.972 68.19 68.4122 68.5828 68.6409C69.3617 69.0944 70.1868 68.6366 70.8244 68.1639C71.4911 67.6696 72.1005 67.1128 72.6289 66.4717C72.8229 66.2364 72.8593 65.903 72.6289 65.6726C72.429 65.4727 72.0249 65.436 71.8298 65.6726C71.4366 66.1497 70.9993 66.5872 70.5211 66.9791C70.2162 67.229 69.6349 67.7574 69.2621 67.6992C69.2395 67.6957 69.1256 67.6578 69.1439 67.6637C69.1983 67.6813 69.1405 67.6783 69.1256 67.6425C69.1584 67.6654 69.1714 67.699 69.1646 67.7436C69.1713 67.8333 69.1791 67.8485 69.1879 67.7892C69.2211 67.7752 69.2692 67.6398 69.2874 67.6087C69.4143 67.3928 69.558 67.1898 69.7241 67.0023C70.1099 66.5668 70.5616 66.2212 71.0707 65.9417C71.6314 65.6338 71.2515 64.7303 70.6353 64.9089C69.8721 65.1301 68.8223 65.4833 68.0876 65.0525C67.9825 64.9909 67.8427 64.8758 67.7905 64.8096C67.7412 64.747 67.6931 64.6692 67.664 64.5948C67.7009 64.6891 67.6454 64.4099 67.6538 64.5417C67.6517 64.5038 67.6523 64.466 67.6558 64.4283C67.651 64.485 67.656 64.4792 67.671 64.411C67.6366 64.4781 67.727 64.3438 67.7338 64.3371C67.8402 64.232 67.9853 64.1802 68.1275 64.1425C69.547 63.7666 70.7418 65.1562 71.4763 66.2021C71.6515 66.4516 71.9705 66.568 72.2494 66.4049C72.4962 66.2605 72.6283 65.8828 72.4521 65.6318Z" fill="black"/>
  <path d="M72.1669 101.856C70.886 100.452 68.847 99.4836 66.9294 99.4957C66.0049 99.5016 65.1006 99.9804 65.0039 100.976C64.9266 101.771 65.4341 102.565 66.1173 102.941C67.1644 103.518 68.4316 103.399 69.5709 103.263L69.1714 102.299C68.3899 103 67.7822 103.87 67.422 104.858C67.1414 105.627 66.8152 106.875 67.5647 107.487C68.6008 108.332 69.5827 106.933 70.1793 106.252C71.0077 105.306 71.836 104.36 72.6644 103.415C73.1419 102.87 72.3457 102.067 71.8653 102.616C71.221 103.351 70.5768 104.087 69.9325 104.822C69.6257 105.172 69.3188 105.523 69.0121 105.873C68.8744 106.03 68.4778 106.633 68.2505 106.603C68.27 106.605 68.2997 106.659 68.278 106.625C68.2548 106.589 68.2494 106.528 68.244 106.486C68.2256 106.345 68.2522 106.193 68.2744 106.054C68.3322 105.69 68.4351 105.326 68.5783 104.986C68.8874 104.254 69.3819 103.626 69.9705 103.098C70.3117 102.792 70.0614 102.075 69.571 102.133C68.6583 102.242 67.5365 102.425 66.6877 101.965C66.2983 101.754 65.8101 101.015 66.378 100.726C66.7634 100.529 67.3081 100.63 67.7129 100.703C68.1834 100.789 68.6477 100.918 69.0928 101.093C69.9596 101.435 70.7406 101.968 71.3679 102.655C71.8591 103.194 72.6564 102.393 72.1669 101.856Z" fill="black"/>
  <path d="M105.652 36.8072C104.475 36.2064 104.055 35.389 103.1 34.6237C102.57 34.1999 101.854 33.9016 101.128 33.9625C100.638 34.0036 100.188 34.2015 99.7133 34.3144C98.083 34.7024 96.1813 33.9276 95.5268 32.6089C94.8723 31.2901 95.552 29.6025 97.0231 28.8937C97.6243 28.6041 98.3924 28.4759 99.0058 28.7468C99.5204 28.9741 99.9223 29.4667 100.502 29.4415C100.755 29.4305 100.983 29.3173 101.195 29.2006C103.087 28.1574 103.752 26.5221 106.041 26.0573C108.042 25.6514 110.381 25.8939 112.066 26.9351C113.547 27.8501 114.591 29.2482 114.959 30.766C115.327 32.2837 115.021 33.9068 114.14 35.2655C112.611 37.6216 108.309 38.1632 105.652 36.8072Z" fill="white"/>
  <path d="M100.219 30.8594C100.117 31.9953 100.421 33.1494 101.016 34.1173C101.17 34.369 101.528 34.4879 101.789 34.32C102.041 34.1572 102.157 33.8164 101.991 33.5469C101.922 33.4337 101.856 33.3186 101.795 33.2006C101.766 33.1459 101.739 33.0908 101.713 33.0351C101.704 33.0168 101.621 32.8234 101.664 32.9299C101.573 32.705 101.497 32.4742 101.44 32.2384C101.412 32.1215 101.388 32.0036 101.369 31.8849C101.363 31.851 101.358 31.8172 101.353 31.7832C101.362 31.8486 101.363 31.8477 101.355 31.7806C101.35 31.7294 101.345 31.6785 101.341 31.6273C101.322 31.3713 101.326 31.115 101.349 30.8594C101.375 30.5642 101.07 30.2816 100.784 30.2944C100.455 30.3091 100.247 30.5431 100.219 30.8594Z" fill="black"/>
  <path d="M110.475 142.95C111.814 140.809 113.453 138.881 115.315 137.176C115.852 136.684 115.051 135.887 114.516 136.377C112.586 138.145 110.887 140.16 109.499 142.379C109.112 142.998 110.09 143.566 110.475 142.95Z" fill="black"/>
  <path d="M156.31 140.361C155.943 142.11 155.751 143.894 155.75 145.681C155.749 146.409 156.88 146.41 156.88 145.681C156.881 143.993 157.053 142.315 157.4 140.662C157.462 140.363 157.312 140.051 157.005 139.967C156.724 139.89 156.373 140.061 156.31 140.361Z" fill="black"/>
  <path d="M54.097 109.238C53.767 108.981 50.0733 112.757 49.7825 113.099C48.5776 114.515 47.448 116.298 47.7451 118.102C47.3319 115.592 45.7038 113.45 44.1414 111.332C43.4204 110.354 42.5052 109.458 41.3477 108.849C41.867 108.157 42.887 107.67 43.5416 107.039C44.2848 106.322 44.9714 105.563 45.5842 104.763C46.1969 103.963 46.736 103.123 47.1877 102.25C47.4711 101.702 48.353 100.384 48.2022 99.7881C49.0967 103.326 50.9479 106.785 54.097 109.238Z" fill="#3E50F7"/>
  <path d="M39.0373 73.4208C38.7097 73.1989 35.0435 76.4572 34.7549 76.7521C33.559 77.9741 32.4378 79.5131 32.7326 81.0699C32.3225 78.9041 30.7066 77.0552 29.1557 75.2274C28.4401 74.3839 27.5317 73.6107 26.3828 73.085C26.8982 72.4879 27.9107 72.0677 28.5604 71.5229C29.2981 70.9044 29.9796 70.2495 30.5878 69.5591C31.1959 68.8688 31.731 68.1438 32.1794 67.3904C32.4607 66.9177 33.336 65.7806 33.1864 65.2661C34.0742 68.3187 35.9117 71.304 39.0373 73.4208Z" fill="#3E50F7"/>
  <path d="M177.413 44.1187C177.16 43.9471 174.325 46.4664 174.102 46.6945C173.178 47.6393 172.311 48.8292 172.539 50.033C172.222 48.3584 170.972 46.9287 169.773 45.5156C169.22 44.8634 168.517 44.2655 167.629 43.859C168.027 43.3973 168.81 43.0725 169.313 42.6512C169.883 42.173 170.41 41.6666 170.88 41.1328C171.35 40.5991 171.764 40.0385 172.111 39.456C172.328 39.0905 173.005 38.2113 172.889 37.8135C173.576 40.1738 174.997 42.482 177.413 44.1187Z" fill="#3E50F7"/>
  <path d="M128.028 131.065C129.376 132.908 131.772 133.67 133.982 133.353C134.284 133.31 134.45 132.926 134.376 132.658C134.287 132.334 133.985 132.22 133.681 132.264C132.022 132.501 130.02 131.884 129.003 130.494C128.823 130.248 128.513 130.126 128.23 130.292C127.988 130.434 127.846 130.817 128.028 131.065Z" fill="black"/>
  <path d="M140.973 133.767C143.277 135.297 146.484 135.389 148.919 134.118C149.564 133.782 148.993 132.806 148.349 133.142C146.257 134.234 143.508 134.096 141.543 132.791C140.936 132.388 140.369 133.366 140.973 133.767Z" fill="black"/>
  <path d="M153.446 108.617C147.034 108.434 140.569 109.936 135.17 112.861C134.311 113.327 133.462 113.841 132.864 114.54C132.267 115.239 131.952 116.159 132.262 116.98C132.65 118.01 133.888 118.635 135.1 118.984C137.19 119.586 139.439 119.647 141.647 119.635C145.373 119.616 149.097 119.41 152.794 119.018C153.592 124.788 154.428 130.673 157.343 135.934C158.348 133.386 159.352 130.837 160.357 128.288C161.945 124.261 163.545 120.187 163.977 115.958C164.134 114.42 164.13 112.84 163.572 111.369C163.013 109.898 161.835 108.539 160.161 107.916C159.219 107.566 158.168 107.463 157.14 107.495C156.673 107.51 156.196 107.554 155.774 107.723C154.957 108.051 154.218 108.846 153.37 108.581" fill="black"/>
  <path d="M153.445 108.051C147.264 107.888 141.005 109.215 135.497 112.049C134.218 112.707 132.791 113.45 132.034 114.731C131.318 115.943 131.477 117.395 132.556 118.329C133.628 119.258 135.102 119.639 136.469 119.874C138.079 120.15 139.713 120.204 141.344 120.201C145.167 120.195 148.99 119.983 152.792 119.583L152.247 119.168C153.058 125.025 153.964 130.969 156.853 136.219C157.109 136.683 157.719 136.508 157.886 136.084C158.9 133.512 159.915 130.94 160.929 128.367C161.916 125.863 162.904 123.35 163.619 120.751C164.789 116.498 165.848 110.199 161.076 107.709C159.83 107.059 158.389 106.869 156.998 106.935C156.3 106.969 155.661 107.109 155.048 107.451C154.6 107.701 154.065 108.177 153.519 108.036C152.814 107.855 152.513 108.944 153.218 109.126C154.359 109.42 155.064 108.565 156.051 108.221C156.602 108.029 157.225 108.042 157.801 108.059C158.434 108.078 159.061 108.162 159.668 108.347C161.72 108.97 163.029 110.798 163.386 112.854C163.593 114.045 163.501 115.287 163.351 116.48C163.192 117.746 162.92 119 162.589 120.232C161.93 122.687 161.02 125.064 160.091 127.427C158.996 130.214 157.895 132.998 156.796 135.784L157.829 135.649C154.992 130.493 154.133 124.617 153.337 118.868C153.306 118.646 153.013 118.43 152.792 118.453C149.638 118.785 146.47 118.986 143.298 119.049C141.768 119.08 140.231 119.102 138.703 119.002C137.287 118.909 135.815 118.718 134.491 118.182C133.471 117.769 132.398 116.981 132.803 115.745C133.225 114.454 134.707 113.738 135.821 113.153C138.32 111.84 140.987 110.865 143.729 110.201C146.907 109.43 150.176 109.095 153.445 109.182C154.172 109.201 154.172 108.071 153.445 108.051Z" fill="black"/>
  <path d="M134.528 137.832C134.544 137.778 134.563 137.726 134.585 137.674L134.528 137.809C134.581 137.689 134.647 137.578 134.726 137.474L134.638 137.588C134.738 137.46 134.853 137.348 134.98 137.248L134.865 137.336C135.014 137.223 135.175 137.13 135.346 137.056L135.211 137.113C135.397 137.036 135.591 136.983 135.791 136.955L135.641 136.975C135.696 136.968 135.751 136.963 135.807 136.96C136.102 136.943 136.386 136.713 136.372 136.395C136.359 136.104 136.123 135.811 135.807 135.83C134.78 135.891 133.747 136.506 133.439 137.531C133.354 137.814 133.541 138.159 133.833 138.226C134.138 138.295 134.437 138.135 134.528 137.832Z" fill="black"/>
  <path d="M133.245 142.511C133.398 143.915 135.344 143.605 136.279 143.352C137.41 143.046 138.497 142.417 139.237 141.497C139.428 141.26 139.469 140.93 139.237 140.698C139.039 140.5 138.63 140.459 138.438 140.698C137.899 141.368 137.175 141.862 136.364 142.143C135.952 142.286 135.522 142.389 135.087 142.425C134.902 142.441 134.664 142.451 134.531 142.423C134.489 142.414 134.446 142.404 134.405 142.391C134.39 142.386 134.312 142.359 134.368 142.38C134.308 142.358 134.332 142.352 134.324 142.358C134.3 142.334 134.299 142.333 134.32 142.356C134.362 142.394 134.38 142.446 134.375 142.511C134.341 142.208 134.139 141.946 133.81 141.946C133.53 141.946 133.211 142.206 133.245 142.511Z" fill="black"/>
  <path d="M138.506 140.009C138.546 140.348 138.587 140.687 138.627 141.026C138.624 141.104 138.64 141.177 138.676 141.244C138.698 141.314 138.737 141.375 138.792 141.426C138.89 141.524 139.051 141.598 139.192 141.591C139.338 141.585 139.49 141.537 139.592 141.426C139.686 141.323 139.774 141.172 139.757 141.026C139.717 140.687 139.676 140.348 139.636 140.009C139.639 139.931 139.623 139.859 139.587 139.792C139.565 139.722 139.526 139.661 139.471 139.61C139.373 139.512 139.212 139.438 139.071 139.444C138.925 139.451 138.773 139.499 138.672 139.61C138.577 139.713 138.489 139.864 138.506 140.009Z" fill="black"/>
  <path d="M130.943 127.681C132.505 128.23 134.302 128.207 135.845 127.601C136.128 127.489 136.326 127.222 136.239 126.906C136.165 126.635 135.83 126.399 135.544 126.511C134.166 127.053 132.64 127.082 131.243 126.591C130.955 126.49 130.625 126.706 130.548 126.986C130.462 127.298 130.654 127.579 130.943 127.681Z" fill="black"/>
  <path d="M148.243 127.508C147.738 126.716 147.063 126.058 146.28 125.542C145.88 125.278 145.452 125.066 145.009 124.884C144.566 124.701 143.907 124.538 143.557 124.989C143.37 125.23 143.322 125.553 143.557 125.788C143.752 125.983 144.168 126.031 144.356 125.788C144.409 125.719 144.347 125.788 144.309 125.806C144.268 125.825 144.179 125.816 144.276 125.827C144.328 125.833 144.334 125.838 144.28 125.826C144.323 125.835 144.365 125.845 144.406 125.858C144.605 125.919 144.693 125.964 144.857 126.041C145.207 126.205 145.543 126.398 145.859 126.619C146.381 126.984 146.924 127.54 147.267 128.078C147.431 128.335 147.769 128.439 148.04 128.281C148.296 128.131 148.407 127.766 148.243 127.508Z" fill="black"/>
</svg>