<svg xmlns="http://www.w3.org/2000/svg" width="22" height="22" viewBox="0 0 22 22" fill="none">
  <path d="M10.2396 3.14696C10.2771 2.94624 10.3836 2.76495 10.5407 2.63449C10.6978 2.50403 10.8956 2.43262 11.0998 2.43262C11.3039 2.43262 11.5017 2.50403 11.6588 2.63449C11.8159 2.76495 11.9224 2.94624 11.9599 3.14696L12.8795 8.01021C12.9448 8.35597 13.1128 8.674 13.3617 8.92281C13.6105 9.17162 13.9285 9.33965 14.2743 9.40496L19.1375 10.3246C19.3382 10.3621 19.5195 10.4686 19.65 10.6257C19.7804 10.7828 19.8518 10.9805 19.8518 11.1847C19.8518 11.3889 19.7804 11.5867 19.65 11.7438C19.5195 11.9008 19.3382 12.0073 19.1375 12.0448L14.2743 12.9645C13.9285 13.0298 13.6105 13.1978 13.3617 13.4466C13.1128 13.6954 12.9448 14.0135 12.8795 14.3592L11.9599 19.2225C11.9224 19.4232 11.8159 19.6045 11.6588 19.7349C11.5017 19.8654 11.3039 19.9368 11.0998 19.9368C10.8956 19.9368 10.6978 19.8654 10.5407 19.7349C10.3836 19.6045 10.2771 19.4232 10.2396 19.2225L9.32 14.3592C9.25469 14.0135 9.08666 13.6954 8.83785 13.4466C8.58904 13.1978 8.27101 13.0298 7.92525 12.9645L3.062 12.0448C2.86128 12.0073 2.67999 11.9008 2.54953 11.7438C2.41907 11.5867 2.34766 11.3889 2.34766 11.1847C2.34766 10.9805 2.41907 10.7828 2.54953 10.6257C2.67999 10.4686 2.86128 10.3621 3.062 10.3246L7.92525 9.40496C8.27101 9.33965 8.58904 9.17162 8.83785 8.92281C9.08666 8.674 9.25469 8.35597 9.32 8.01021L10.2396 3.14696Z" stroke="#3E50F7" stroke-width="1.75" stroke-linecap="round" stroke-linejoin="round"/>
  <path d="M18.1016 2.43457V5.93457" stroke="#3E50F7" stroke-width="1.75" stroke-linecap="round" stroke-linejoin="round"/>
  <path d="M19.8516 4.18457H16.3516" stroke="#3E50F7" stroke-width="1.75" stroke-linecap="round" stroke-linejoin="round"/>
  <path d="M4.10156 19.9346C5.06806 19.9346 5.85156 19.1511 5.85156 18.1846C5.85156 17.2181 5.06806 16.4346 4.10156 16.4346C3.13506 16.4346 2.35156 17.2181 2.35156 18.1846C2.35156 19.1511 3.13506 19.9346 4.10156 19.9346Z" stroke="#3E50F7" stroke-width="1.75" stroke-linecap="round" stroke-linejoin="round"/>
</svg>