<svg width="28" height="28" viewBox="0 0 28 28" fill="none" xmlns="http://www.w3.org/2000/svg">
<path fill-rule="evenodd" clip-rule="evenodd" d="M10.5 1.75C9.68777 1.75 8.90882 2.07266 8.33449 2.64699C7.76016 3.22132 7.4375 4.00027 7.4375 4.8125V7H5.25C4.32174 7 3.4315 7.36875 2.77513 8.02513C2.11875 8.6815 1.75 9.57174 1.75 10.5V22.75C1.75 23.6783 2.11875 24.5685 2.77513 25.2249C3.4315 25.8813 4.32174 26.25 5.25 26.25H22.75C23.6783 26.25 24.5685 25.8813 25.2249 25.2249C25.8813 24.5685 26.25 23.6783 26.25 22.75V10.5C26.25 9.57174 25.8813 8.6815 25.2249 8.02513C24.5685 7.36875 23.6783 7 22.75 7H20.5625V4.8125C20.5625 4.00027 20.2398 3.22132 19.6655 2.64699C19.0912 2.07266 18.3122 1.75 17.5 1.75H10.5ZM17.9375 7V4.8125C17.9375 4.69647 17.8914 4.58519 17.8094 4.50314C17.7273 4.42109 17.616 4.375 17.5 4.375H10.5C10.384 4.375 10.2727 4.42109 10.1906 4.50314C10.1086 4.58519 10.0625 4.69647 10.0625 4.8125V7H17.9375ZM5.25 9.625H22.75C22.9821 9.625 23.2046 9.71719 23.3687 9.88128C23.5328 10.0454 23.625 10.2679 23.625 10.5V12.25H4.375V10.5C4.375 10.2679 4.46719 10.0454 4.63128 9.88128C4.79538 9.71719 5.01794 9.625 5.25 9.625ZM4.375 14.875V22.75C4.375 22.9821 4.46719 23.2046 4.63128 23.3687C4.79538 23.5328 5.01794 23.625 5.25 23.625H22.75C22.9821 23.625 23.2046 23.5328 23.3687 23.3687C23.5328 23.2046 23.625 22.9821 23.625 22.75V14.875H15.75V17.5H12.25V14.875H4.375Z" fill="#3E50F7"/>
</svg>
