<svg xmlns="http://www.w3.org/2000/svg" width="28" height="28" viewBox="0 0 28 28" fill="none">
  <path d="M25.6673 14.0002C25.6673 20.4435 20.444 25.6668 14.0007 25.6668M25.6673 14.0002C25.6673 7.55684 20.444 2.3335 14.0007 2.3335M25.6673 14.0002H2.33398M14.0007 25.6668C7.55733 25.6668 2.33398 20.4435 2.33398 14.0002M14.0007 25.6668C16.9188 22.4721 18.5772 18.3261 18.6673 14.0002C18.5772 9.6742 16.9188 5.52824 14.0007 2.3335M14.0007 25.6668C11.0825 22.4721 9.42411 18.3261 9.33398 14.0002C9.42411 9.6742 11.0825 5.52824 14.0007 2.3335M2.33398 14.0002C2.33398 7.55684 7.55733 2.3335 14.0007 2.3335" stroke="#3E50F7" stroke-width="2.33333" stroke-linecap="round" stroke-linejoin="round"/>
</svg>