<svg width="28" height="28" viewBox="0 0 28 28" fill="none" xmlns="http://www.w3.org/2000/svg">
<path fill-rule="evenodd" clip-rule="evenodd" d="M1.16797 13.9998C1.16797 17.4034 2.52005 20.6677 4.92677 23.0744C7.33348 25.4811 10.5977 26.8332 14.0013 26.8332C17.4049 26.8332 20.6691 25.4811 23.0758 23.0744C25.4826 20.6677 26.8346 17.4034 26.8346 13.9998C26.8346 10.5962 25.4826 7.33202 23.0758 4.9253C20.6691 2.51858 17.4049 1.1665 14.0013 1.1665C10.5977 1.1665 7.33348 2.51858 4.92677 4.9253C2.52005 7.33202 1.16797 10.5962 1.16797 13.9998ZM5.34464 16.8582C5.34464 16.8582 4.4113 16.6132 3.7813 16.4265C3.59387 15.6313 3.49991 14.8169 3.5013 13.9998L4.17797 12.5065L5.57797 12.0748L4.17797 10.3365C4.95288 8.32097 6.32145 6.5882 8.10261 5.36742C9.88378 4.14664 11.9936 3.49539 14.153 3.49984C16.3132 3.49857 18.4235 4.14914 20.208 5.3665L17.4546 6.88317L13.033 5.5415L11.3296 8.53984L12.9396 7.09317L13.768 8.3765L11.808 9.7415L9.98797 10.0915L10.058 11.1882C10.058 11.1882 9.53297 11.7248 9.53297 11.9582C9.53297 12.1798 10.1863 12.6115 10.1863 12.6115L11.633 11.4915L13.033 12.4948L13.3946 10.6282L14.6196 14.4782L13.6863 14.9448L12.613 14.4315L12.2863 13.9532L11.2013 14.3032L10.5246 14.4432L10.093 15.1898L9.3813 16.0532L9.35797 17.1498L10.443 18.1415L11.2013 18.0598L11.983 17.8848L12.4846 18.8765L13.068 20.0198L12.7763 20.8948L13.5813 22.9948L14.608 22.8782L15.5296 21.5948L16.6146 17.6865L15.6813 15.8315L16.498 14.8982L17.548 15.9832L18.2713 15.6098L19.8463 14.4782L20.5813 15.0148L21.2813 16.2982L22.378 14.9798L23.288 15.1665L24.0813 16.6948C24.0813 16.6948 24.3963 16.6948 24.5013 16.5432C23.9057 18.8285 22.5667 20.8508 20.6953 22.2913C18.8238 23.7319 16.5263 24.5088 14.1646 24.4998C12.6513 24.5037 11.1545 24.1864 9.77283 23.569C8.39121 22.9516 7.15629 22.0481 6.14964 20.9182L7.44464 18.4915L5.62464 17.8032L5.34464 16.8698V16.8582Z" fill="#3E50F7"/>
<path fill-rule="evenodd" clip-rule="evenodd" d="M14.0013 24.4998C15.3802 24.4998 16.7456 24.2282 18.0195 23.7006C19.2934 23.1729 20.4509 22.3995 21.4259 21.4245C22.4009 20.4494 23.1744 19.2919 23.702 18.018C24.2297 16.7441 24.5013 15.3787 24.5013 13.9998C24.5013 12.621 24.2297 11.2556 23.702 9.98166C23.1744 8.70774 22.4009 7.55023 21.4259 6.57522C20.4509 5.6002 19.2934 4.82678 18.0195 4.2991C16.7456 3.77143 15.3802 3.49984 14.0013 3.49984C11.2165 3.49984 8.54581 4.60608 6.57668 6.57522C4.60755 8.54435 3.5013 11.2151 3.5013 13.9998C3.5013 16.7846 4.60755 19.4553 6.57668 21.4245C8.54581 23.3936 11.2165 24.4998 14.0013 24.4998ZM26.8346 13.9998C26.8346 17.4034 25.4826 20.6677 23.0758 23.0744C20.6691 25.4811 17.4049 26.8332 14.0013 26.8332C10.5977 26.8332 7.33348 25.4811 4.92677 23.0744C2.52005 20.6677 1.16797 17.4034 1.16797 13.9998C1.16797 10.5962 2.52005 7.33202 4.92677 4.9253C7.33348 2.51858 10.5977 1.1665 14.0013 1.1665C17.4049 1.1665 20.6691 2.51858 23.0758 4.9253C25.4826 7.33202 26.8346 10.5962 26.8346 13.9998Z" fill="#3E50F7"/>
</svg>
