<svg width="58" height="58" viewBox="0 0 58 58" fill="none" xmlns="http://www.w3.org/2000/svg">
<rect width="58" height="58" rx="16" fill="#FF7A59"/>
<path fill-rule="evenodd" clip-rule="evenodd" d="M12.6223 5.84504C10.0938 6.20509 8.34239 8.65062 8.76247 11.2349C9.00872 12.7505 9.93515 14.0157 11.3124 14.7177C12.0433 15.0903 12.0785 15.0974 13.1912 15.0974C14.2143 15.0974 14.3905 15.0694 14.9914 14.8107L15.6573 14.5241L17.2488 15.677C18.124 16.311 21.3135 18.6206 24.3365 20.8093C27.3595 22.998 29.8729 24.8261 29.922 24.872C29.9728 24.9195 29.8046 25.1985 29.5294 25.523C27.36 28.0804 26.3212 31.006 26.4763 34.1217C26.5858 36.3224 27.1904 38.2571 28.3217 40.0265L28.7326 40.6693L26.5308 42.9394L24.3292 45.2094L23.8013 45.0928C22.264 44.7528 20.5791 45.6447 19.911 47.1519C19.6747 47.6851 19.631 47.9162 19.6284 48.645C19.6257 49.4184 19.6586 49.5768 19.9474 50.1817C20.3446 51.0136 21.0407 51.6866 21.8113 51.9839C22.4999 52.2495 23.5853 52.2745 24.2578 52.0403C25.7992 51.5032 26.8515 49.7058 26.5621 48.104L26.4491 47.4792L28.6309 45.2276C29.8309 43.9892 30.8467 42.9761 30.8883 42.9761C30.9298 42.9761 31.2173 43.1531 31.527 43.3694C32.7346 44.2128 34.2875 44.874 35.7402 45.1634C36.8015 45.3748 38.7831 45.3991 39.795 45.2132C47.2874 43.8368 51.4287 35.5981 48.1839 28.5245C46.6818 25.2498 43.8982 22.9354 40.4701 22.1112L39.5987 21.9016V19.0834V16.2653L40.0049 16.0516C40.6269 15.7244 41.3381 14.9262 41.6899 14.1605C41.9836 13.5212 42.0032 13.4084 42.0021 12.3652C42.0011 11.3198 41.9818 11.2116 41.6866 10.5874C41.0927 9.33124 40.168 8.5384 38.9118 8.2078C36.5211 7.57858 34.1267 9.43234 33.9337 12.0616C33.8141 13.6924 34.5782 15.2039 35.9372 16.0251L36.3598 16.2804V19.1042C36.3598 21.796 36.3512 21.928 36.176 21.928C35.7922 21.928 34.086 22.4325 33.3348 22.7681L32.5516 23.1181L31.4867 22.3019C30.9009 21.853 28.355 19.9222 25.8291 18.0113C23.303 16.1003 20.431 13.9116 19.4467 13.1474C17.7024 11.7933 17.6586 11.7504 17.7217 11.4545C17.9273 10.49 17.7318 9.16002 17.2502 8.24757C16.3475 6.53771 14.4987 5.57789 12.6223 5.84504ZM36.2827 27.4875C34.2191 28.0958 32.6023 29.7525 31.9809 31.8955C31.7407 32.7237 31.7407 34.4066 31.9809 35.2348C32.4846 36.9718 33.7041 38.4812 35.1947 39.2128C36.2262 39.7191 36.828 39.862 37.9136 39.8584C39.6257 39.8529 40.9397 39.2752 42.2049 37.9718C43.5164 36.6208 44.0905 35.0831 43.9823 33.211C43.8858 31.5425 43.3423 30.3228 42.1509 29.1016C41.3323 28.2624 40.4251 27.7244 39.3572 27.4445C38.5609 27.2358 37.0656 27.2567 36.2827 27.4875Z" fill="white"/>
</svg>
